<svg xmlns="http://www.w3.org/2000/svg" width="144" height="144" viewBox="0 0 144 144"><path d="M128.21,40L126.7,39.56L126.72,38.6L124.36,39.23L122.67,41.59L121.11,39.06L120.06,39.47L118.45,38L118.63,39.31L117.41,38.64L117.4,36.82L116.2,36.26L116.7,37.13L115.61,37.46L114.83,36.43L112.91,36.45L114.03,38.04L113.21,38.04L112.14,36.24L111.26,36.16L111.07,35.34L110.21,35.08L110.48,36.63L109.1,36.14L108.76,34.92L108.1,35L108.06,33.73L106.02,33.17L105.86,32.14L104.7,32.87L103.89,32.26L102.97,32.85L102.16,31.31L100.49,31.84L100.8,33.23L99.8,33.63L99.07,32.28L98.9,32.83L96.73,33.6L96.1,33.5L96.06,35.58L94.44,34.95L93.4,35.68L91.44,38.02L89.77,37.01L89.5,37.64L88.83,36.99L88.91,16.28L88.95,7.22L89.72,8.21L91.33,7.86L93.58,8.23L93.92,8.84L95.65,8.94L97.48,7.59L98.22,7.45L99.25,8.14L100.36,7.76L100.78,7.04L103.38,6.63L106.04,6.7L107.99,7.57L109.27,7.49L110.77,6.27L113.59,5.74L115.43,5.01L117.25,4.91L119.87,6.29L121.73,5.84L123.87,4.56L124.75,3.48L127.38,1.5L128.91,1.4L129.97,2.43L132.03,2.19L132.64,2.44L136.04,2.68L137.21,3.7L139.21,3.8L140.09,4.81L141.54,5.67L142.27,6.57L141.11,7.56L140.81,9.03L142.27,11.72L143.36,12.5L144,13.62L143.76,14.72L141.97,15.7L141.51,16.44L138.93,18.19L138.06,19.6L136.71,20.89L135.83,24.05L135.42,24.56L135.16,28.07L135.83,31.2L136.53,31.81L135.64,34.73L133.35,36.68L131.69,37.8L128.72,39.41ZM88.95,7.22L88.91,16.28L88.83,36.99L87.39,38.4L86.87,37.93L85.39,39.76L84.43,40.34L83.81,39.65L82.91,40.76L82.37,40.45L81.28,41.5L80.7,40.66L79.51,41.24L79.17,40.77L78.07,41.75L79.06,41.64L79.69,42.23L77.88,42.86L77.99,43.69L76.05,43.82L77.22,44.55L76.14,44.71L75.6,45.54L75.88,46.36L74.17,46.39L73.52,45.92L71.03,45.98L70.44,46.86L69.35,47L68.51,46.07L66.1,46.71L65.99,46.04L64.96,46.25L64.95,47.73L65.54,47.83L65.1,49.22L65.56,49.52L64.69,52.25L63.59,52.63L62.27,53.72L62.38,54.41L61.47,54.18L59.43,56.87L57.1,57.02L56.24,55.38L56.06,56.71L55.1,56.43L55.65,57.55L54.66,57.44L54.27,58.15L52.87,57.6L52.86,58.24L51.9,57.85L50.25,58.04L49.69,56.67L49.78,55.62L47.97,54.71L46.67,54.93L46.82,54.08L45.51,54.81L45.21,55.56L43.38,55.49L42.99,56.48L42.04,56.02L41.67,56.55L39.88,56.26L38.5,56.81L37.48,57.87L37.11,57.4L36.1,58.06L34.49,57.66L34.6,58.08L33.99,56.35L32.81,55.11L31.21,54.91L29.77,53.96L29.2,52.81L27.57,50.75L24.66,51.66L23.7,49.8L22.94,50.19L21.96,48.93L20.7,49.21L20.96,47.38L21.37,48.31L22.08,48.15L23.43,46.61L22.27,47.04L20.36,46.07L19.57,44.52L19.74,43.8L18.7,43.58L19.09,42.76L20.1,43.61L20.27,43.01L19.03,41.27L18.2,41.65L18,40.23L17.35,40.31L16.73,38.77L18.73,36.75L19.34,36.67L22.65,34.04L28.37,30.36L29.12,30.84L30.62,30.74L31.95,31.28L33.88,30.5L34.69,29.72L36.33,29.81L37.83,28.6L39.24,26.41L40.08,25.79L40.62,24.07L41.9,23.24L43.63,20.92L43.57,19.72L44.92,18.99L45.31,17.58L46.16,16.84L46.95,15.24L48.31,14.1L48.52,12.76L50.81,11.74L52.4,12.35L57.51,12.61L60.58,12.26L63.82,10.77L65.74,9.09L66.52,9.09L68.08,8.35L68.69,8.84L69.43,10.46L72.29,10.89L73.3,9.39L74.64,8.23L75.66,8.13L76.8,6.48L78.05,5.81L79.91,5.3L80.93,6.37L82.42,6.29L84.22,7.06L86.51,7.45L88.28,6.94ZM16.73,38.77L17.35,40.31L18,40.23L18.2,41.65L19.03,41.27L20.27,43.01L20.1,43.61L19.09,42.76L18.7,43.58L19.74,43.8L19.57,44.52L20.36,46.07L22.27,47.04L23.43,46.61L22.08,48.15L21.37,48.31L20.96,47.38L20.7,49.21L21.96,48.93L22.94,50.19L23.7,49.8L24.66,51.66L27.57,50.75L29.2,52.81L29.77,53.96L31.21,54.91L32.81,55.11L33.99,56.35L34.6,58.08L33.83,59.43L32.71,60.34L32.26,60.06L29.54,62.06L29.58,62.72L28.75,63.37L25.96,62.68L25.18,64.33L23.6,64.88L21.54,63.93L20.71,64.03L18.27,62.75L16.1,62.66L14.92,60.8L13.81,61.07L12.05,60.96L10.58,61.85L10.19,61.19L7.62,60.65L6.78,60.79L5.6,61.9L4.07,62.4L4.35,63.74L3.09,63.42L1.22,63.67L0.01,64.29L0,57.49L0.85,57.19L2.55,54.4L2.97,54.29L3.65,52.11L4.33,51.21L4.06,50.37L5.33,48.56L6.36,48L8.33,47.85L10.58,45.78L12.35,44.62L15.09,42.33L15.86,41.07L15.71,39.15ZM88.83,36.99L89.5,37.64L89.77,37.01L91.44,38.02L93.4,35.68L94.44,34.95L96.06,35.58L96.1,33.5L96.73,33.6L98.9,32.83L99.07,32.28L99.8,33.63L100.8,33.23L100.49,31.84L102.16,31.31L102.97,32.85L103.89,32.26L104.7,32.87L105.86,32.14L106.02,33.17L108.06,33.73L108.1,35L108.76,34.92L109.1,36.14L110.48,36.63L110.21,35.08L111.07,35.34L111.26,36.16L112.14,36.24L113.21,38.04L114.03,38.04L112.91,36.45L114.83,36.43L115.61,37.46L116.7,37.13L116.2,36.26L117.4,36.82L117.41,38.64L118.63,39.31L118.45,38L120.06,39.47L121.11,39.06L122.67,41.59L124.36,39.23L126.72,38.6L126.7,39.56L128.21,40L126.81,41.52L126.92,42.88L127.83,43.77L127.73,45.97L126.62,48.08L128.53,51.34L127.92,52.64L127.79,54.65L127.28,55.61L127.36,58.18L127.84,59.83L127.72,61.89L128.06,65.05L126.99,67.5L126.95,69.52L127.22,70.78L126.51,72.25L128.07,73.36L129.08,74.52L128.84,75.7L129.81,76.41L129.49,77.46L130.18,79.48L129.11,79.52L128.54,80.5L129.1,82.02L128.88,83.87L129.68,84.87L130,86.52L131.38,88.07L131.96,90.44L132.39,91.14L130.63,91.99L128,93.71L125.63,96.18L124.06,96.43L123.62,94.63L121.16,93.69L120.15,93.94L119.21,92.46L118.02,95.34L117.82,93.68L117.04,93.92L116.16,95.3L115.55,94.75L116.21,93.62L115.92,92.93L114.2,93.45L113.05,93.03L112.79,94.62L111.8,93.98L108.57,93.79L107.56,93.15L106.94,94.7L107.28,95.9L105.81,96.35L104.39,95.8L103.71,96.55L105.29,97.72L105.45,98.74L104.62,98.71L103.88,97.49L103.35,97.46L103.61,98.67L103.06,99.26L101.91,98.85L100.73,99.86L100.98,101.56L100.2,101.36L98.81,100L98.65,101.4L96.89,101.46L96.29,101.86L95.18,100.61L94.34,100.35L94.57,101.74L93.03,102.06L91.3,101.44L90.74,101.98L90.18,103.6L88.99,103.95L87.99,102.99L87.43,104.01L88.3,105.36L87.89,105.81L87.46,104.73L86.04,104.75L85.1,105.42L84.5,105.21L84.41,103.21L83.67,103.52L84.16,104.83L83.24,105.49L82.59,105.01L81.15,105.44L79.43,107.14L78.41,106.5L77.48,106.98L77.15,105.72L76.61,105.76L75.66,106.97L74.29,107.33L75.01,105.82L73.88,106L73.35,104.67L72.96,105.54L72.12,105.36L71.78,104.01L70.5,103.69L71.07,105.57L70.15,106.9L69.62,106.61L70.17,105.12L69.62,104.04L69.03,104.89L66.78,105.93L66.54,105.32L65.77,106.24L64.94,106.01L64.17,104.46L62.85,104.88L62.55,106.3L62.08,105.8L58.88,105.37L59,108.03L58.34,109.93L57.25,109.03L57.08,109.84L55.6,109.23L54.48,110.87L52.97,108.99L52.49,109.64L53.61,110.6L52.79,110.91L51.09,110.06L50.72,111.64L49.98,112.33L49.65,110.76L48.86,110.37L48.39,110.86L49.52,113.5L48.34,113.08L47.35,111.19L46.68,111.05L46.45,111.92L47.78,113.56L47.28,115.21L46.17,115.57L45.68,114.68L43.9,114.29L43.86,115.05L44.72,115.97L44.56,116.74L42.38,117.6L41.68,117.17L41.74,116.2L41.02,115.83L39.47,117L37.93,117.07L37.21,116.69L36.93,118.05L35.65,118.36L36.31,119.5L37.91,120.47L36.14,121.19L36.14,122.04L37,122.46L37.33,124.28L36.76,124.79L35.77,122.96L35.36,123.74L36.13,124.8L35.57,125.36L34.23,124.99L33.77,125.62L32.63,125.33L32.13,126.62L31.2,127.2L31.25,128.63L30.04,128.72L30.11,129.52L31.63,129.67L32.3,130.75L30.49,131.24L31.15,132.24L31.35,134.85L29.61,135.68L28.56,135.56L28.54,137.78L26.45,138.92L22.75,139.81L22.26,140.55L19.43,138.56L18.88,138.71L18.56,140.09L17.52,139.82L17.44,138.32L16.41,137.88L16.4,138.56L17.23,139.44L16.45,140.91L15.62,140.96L14.42,142.6L14.19,140.89L13.76,140.33L12.41,141.42L10.47,141.71L11.04,140.28L10.54,139.65L9.1,140.14L8.47,141.06L8.15,140.23L8.74,139.41L7.71,138.35L8.11,140.31L7.45,140.38L6.61,138.27L5.56,137.85L5.35,138.58L5.99,139.29L5.56,140.61L4.55,140.12L5.11,139.43L4.67,138.45L3.45,138.96L2.84,138.06L1.85,138.3L0.56,137.87L0.02,136.9L0.01,120.64L0.01,106.73L0.01,93.98L0.01,73.41L0.01,64.29L1.22,63.67L3.09,63.42L4.35,63.74L4.07,62.4L5.6,61.9L6.78,60.79L7.62,60.65L10.19,61.19L10.58,61.85L12.05,60.96L13.81,61.07L14.92,60.8L16.1,62.66L18.27,62.75L20.71,64.03L21.54,63.93L23.6,64.88L25.18,64.33L25.96,62.68L28.75,63.37L29.58,62.72L29.54,62.06L32.26,60.06L32.71,60.34L33.83,59.43L34.6,58.08L34.49,57.66L36.1,58.06L37.11,57.4L37.48,57.87L38.5,56.81L39.88,56.26L41.67,56.55L42.04,56.02L42.99,56.48L43.38,55.49L45.21,55.56L45.51,54.81L46.82,54.08L46.67,54.93L47.97,54.71L49.78,55.62L49.69,56.67L50.25,58.04L51.9,57.85L52.86,58.24L52.87,57.6L54.27,58.15L54.66,57.44L55.65,57.55L55.1,56.43L56.06,56.71L56.24,55.38L57.1,57.02L59.43,56.87L61.47,54.18L62.38,54.41L62.27,53.72L63.59,52.63L64.69,52.25L65.56,49.52L65.1,49.22L65.54,47.83L64.95,47.73L64.96,46.25L65.99,46.04L66.1,46.71L68.51,46.07L69.35,47L70.44,46.86L71.03,45.98L73.52,45.92L74.17,46.39L75.88,46.36L75.6,45.54L76.14,44.71L77.22,44.55L76.05,43.82L77.99,43.69L77.88,42.86L79.69,42.23L79.06,41.64L78.07,41.75L79.17,40.77L79.51,41.24L80.7,40.66L81.28,41.5L82.37,40.45L82.91,40.76L83.81,39.65L84.43,40.34L85.39,39.76L86.87,37.93L87.39,38.4Z" fill="#B3CFC0" stroke="#007139" stroke-width="0.5"/></svg>