<svg xmlns="http://www.w3.org/2000/svg" width="144" height="144" viewBox="0 0 144 144"><path d="M29.46,101.05L28.5,101.33L28.26,101.08L27.19,101.97L25.75,101.44L24.8,102.43L23.99,102.39L23.53,103.18L22.66,102.37L22.22,102.79L20.99,101.79L20.52,101.73L20.48,100.96L19.98,99.6L20.54,98.81L21.13,99.16L21.81,98.37L22.53,98.24L22.68,97.59L24.74,97.21L25.21,98.16L25.89,98.04L26.65,98.57L27.73,98.79L27.67,99.09L28.59,99.32L29.17,100.06ZM42.62,65.45L41.51,65.73L41.47,66.41L42.12,66.92L42.1,67.89L41.42,68.3L40.71,67.63L39.58,68.55L38.84,68.7L38.8,67.98L39.25,67.38L40.1,67.35L39.41,66.56L39.1,65.64L38.92,64.11L38.64,64.56L37.71,64.74L37.46,62.94L37.72,62.3L37.18,61.49L37.37,60.52L37.71,60.66L38.2,62.25L39.69,61.55L40.11,62.46L40.88,62.62L41.6,63.34L41.87,64.78ZM37.54,86.29L36.72,86.78L37.04,87.5L36.18,88.62L37.32,89.38L38.05,89.15L38.58,89.71L38.31,90.43L38.38,91.36L38.1,91.66L36.63,91.86L35.87,92.54L34.99,91.87L33.83,91.77L33.61,91.27L32.11,91.33L33.21,90.05L32.86,89.47L32.08,89.77L31.62,89.26L32.43,88.56L32.55,87.85L31.3,86.55L31.16,85.59L30.83,85.02L30.36,83.05L29.38,82.77L29.89,82.28L31.36,82.96L31.41,82.39L32.09,81.37L32.47,81.36L33.14,82.47L33.27,83.05L34.78,83.77L35.05,84.56L36.27,85.31L36.72,85.38ZM38.84,68.7L39.58,68.55L40.71,67.63L41.42,68.3L42.08,68.21L43.1,69.85L43.19,70.7L42.56,71.04L42.88,71.62L42.41,72.17L42.15,72.76L41.42,73.05L41.04,73.53L39.5,73.78L39.24,75.07L38.08,75.71L37.14,75.84L36.67,75.42L36.4,75.87L35.27,75.87L35.17,74.68L35.6,73.46L34.57,72.48L34.34,71.36L35.51,71.46L35.51,70.45L34.7,69.15L34.83,68.67L35.66,68.76L36.21,69.13L37.57,69.19ZM47.21,110.03L47.91,110.19L48.06,111.33L48.76,112.17L50.78,112.11L52.22,112.43L53.06,111.82L53.88,112.24L53.72,112.84L52.91,112.89L52.24,113.23L51.48,113.19L49.77,113.57L47.44,112.77L46.31,113.1L45.68,112.53L43.2,111.76L42.81,112.13L41.69,111.76L41.33,110.66L40.54,110.11L39.55,110.1L38.32,110.78L37.22,109.28L36.53,109.03L34.73,109.17L33.64,108.79L33.21,108.41L33.31,108.24L35.3,108.51L36.66,108L37.42,107.02L38.88,106.73L40.35,106.04L40.75,105.61L41.93,105.96L43.56,107.13L44.82,107.39L45.08,107.63L45.41,108.9ZM23.42,73.84L22.78,74.32L21.78,73.87L21.41,74.67L20.79,74.67L20.01,74.06L19.1,75.6L19.4,76.4L19.24,76.9L18.42,77.73L18.08,78.94L18.67,79.76L18.34,80.22L18.42,81.05L19.06,81.44L19.47,82.96L20.13,83.18L19.92,84.19L19.24,84.6L18.87,85.45L17.77,85.04L16.77,84.89L16.01,85.15L15.57,84.59L14.65,84.22L14.56,83.49L15.43,82.85L15.88,81.68L16.5,81.38L16.38,80.64L15.09,79.87L15.06,79.21L15.5,77.78L14.41,76.7L14.28,76.01L14.6,75.34L15.96,74.53L17.15,74.22L17.15,73.72L17.72,72.65L19.29,71.89L19.46,71.61L19.26,70.12L19.37,69.35L19.05,68.92L17.89,68.51L17.68,68.07L18.84,68.1L19.07,68.38L19.73,68.13L20.23,68.47L21.72,68.32L22.94,68.94L23.66,68.89L23.74,69.41L23.09,70.2L22.91,71.07L23.03,72.17L22.57,72.93ZM35.66,68.76L34.83,68.67L34.7,69.15L35.51,70.45L35.51,71.46L34.34,71.36L34,71.06L33.8,71.7L33.05,71.87L32.04,71.72L31.94,71.22L32.21,70.4L32.45,68.08L32.36,67.1L32.91,66.11L32.92,65.28L33.58,64.54L33.3,64.13L34.69,64.01L35.19,61.67L34.89,61.12L35.71,61.09L35.77,61.81L35.24,62.39L35.36,63.04L35.11,63.94L35.68,64.41L35.38,65.16L36.08,66.33L35.64,66.8ZM49.67,76.63L49.54,76.93L50.52,79.35L50.24,79.92L50.67,80.4L50.74,82.22L51.17,83.24L51.5,83.34L51.04,83.94L50.17,83.74L49.21,83.21L49.09,82.63L48.47,81.84L47.05,81.44L46.64,80.93L46.81,80.14L46.15,78.96L45.36,78.84L45.15,78.18L43.82,78.09L43.28,77.83L43.33,76.93L42.93,76.63L44.73,75.97L45.54,75.16L45.57,74.72L46.45,73.49L47.74,73.36L48.13,74.85L48.7,75.26ZM44.23,123.13L45.17,123.22L45.4,124.75L44.56,126.56L45.17,126.83L45.76,127.57L45.87,129.85L45.58,131.47L44.63,133.84L43.74,134.96L43.79,135.5L43.13,137.63L42,138.98L41.76,139.62L41.12,140.3L40.64,140.41L40.53,141.66L39.37,142.67L39.43,143.13L40.05,144L39.24,143.99L38.5,143.2L38.89,142.27L38.86,141.11L39.39,139.61L39.74,139.19L39.4,137.95L38.57,137.94L37.72,137.59L36.96,138.05L35.53,137.57L35.35,137.01L33.41,136.29L33.5,135.4L34.06,133.89L34.45,133.32L34.25,132.73L34.47,131.25L34.99,130.56L35.24,129.23L35.12,128.77L33.9,127.8L33.72,126.05L33.98,125.65L34.38,124.07L34.85,124.39L35.21,124.03L35.95,124L36.53,123.27L37.37,123.65L37.89,123.13L38.54,123.07L39.18,123.74L41.36,123.92L42.84,123.73L43.96,124.23ZM35.27,75.87L36.4,75.87L36.67,75.42L37.14,75.84L38.08,75.71L39.24,75.07L39.5,73.78L41.04,73.53L41.42,73.05L42.15,72.76L42.41,72.17L42.52,73.03L42.02,75.1L41.42,76L40.25,76.89L39.55,77.1L38.14,78.81L37.19,78.82L36.19,79.32L35.4,79.17L35.68,77.96L36.11,77.64L35.35,76.63ZM70.26,59.06L70.37,59.36L69.68,61.42L69.73,62.07L69.32,62.56L69.63,62.89L69.71,63.88L68.9,64.46L68.81,64.93L68.18,65.07L66.95,64.6L65.27,63.4L64.83,63.35L65.73,62.16L66.34,61.76L67.04,60.33L67.83,59.79L69.06,59.01L69.25,58.29L70.08,58.24ZM41.28,26.93L40.7,27.66L40.16,27.67L40.69,28.5L40.29,29.75L39.33,30.74L39.12,31.26L40.3,31.83L40.22,32.68L39.15,33.75L38.72,34.83L38.86,35.75L38.46,35.95L39.11,36.87L37.89,37.38L37.94,37.92L37.43,38.47L37.21,39.35L36.53,39.77L36.02,40.26L36.03,41.54L35.62,43.06L35.04,43.97L34.32,44.35L32.4,44.11L30.9,44.13L29.82,43.43L28.99,43.24L28.15,42.43L28.51,41.84L28.25,41.15L28.83,40.38L29.03,39.54L28.65,38.69L29.4,36.64L29.26,35.74L29.5,35.25L29.94,33.03L29.45,32.4L28.99,32.44L28.52,31.79L28.62,31.37L28.18,30.75L28.92,29.01L29.7,28.11L29.48,27.78L29.64,26.71L29.61,24.84L29.96,23.9L31.78,22.49L32.13,21.49L33.1,20.45L33.26,19.35L34.22,19.54L34.46,19.88L35.36,20.11L36.19,19.89L36.62,19.45L37.34,19.26L38.69,19.67L39.24,19.36L39.76,19.65L39.92,20.59L40.58,21.04L40.85,22.23L41.71,23.26L42.11,24.63L41.69,25.27ZM76.63,95.47L76.51,95.96L76.69,97.47L77.61,98.36L77.67,98.76L78.54,99.26L77.52,99.41L76.99,100L77.2,100.89L78.09,101.49L78.66,102.61L78.15,102.17L77.12,101.74L75.96,100.93L75.61,100.47L74.86,100.22L73.72,100.91L73.24,100.74L72.83,101.24L70.62,101.34L70.22,99.83L70.2,98.8L69.83,97.66L70.7,97.01L71.08,96.13L71.01,95.61L71.41,94.67L71.87,94.35L72.42,94.15L73.46,94.63L74.37,94.22L75.41,94.6L75.42,95.49ZM79.11,25.68L78.08,25.95L77.77,26.5L77.7,27.42L78.48,27.57L79.02,28.37L79.52,28.65L79.89,29.67L79.28,30.32L79.74,31.14L80.99,32.14L80.24,33.21L80.27,34.83L78.84,35.26L78.47,36.01L77.79,35.59L77.64,36.58L79.11,38.02L78.15,38.67L77.48,38.85L76.92,39.64L77.04,40.05L75.09,41.18L74.05,42.87L73.01,43.49L72.37,42.36L71.53,41.9L71.99,40.96L70.84,40.44L70.38,39.6L71.05,38.88L70.98,38.1L71.42,37.03L71.91,36.58L71.8,35.39L71.03,34.69L70.33,34.43L69.58,33.2L70.13,32.15L70.93,31.34L71.33,29.68L71.91,28.6L72.47,28.4L73.64,28.68L74,27.59L75.14,27.19L76.02,27.72L76.51,26.77L76.74,25.33L77.06,25.95L78.14,25.15L79,25.31ZM32.48,59.69L31.65,61.38L32.04,62.34L31.53,63.07L31.59,63.91L31.1,64.78L30.78,64.87L29.03,64.39L27.69,64.96L27.38,64.6L26.5,64.48L25.34,63.57L25.05,62.79L24.6,62.54L24.25,61.35L22.95,60.62L21.62,60.34L21.02,60.82L20.42,59.7L20.5,58.84L21.39,59.18L21.98,58.44L20.95,57.63L20.28,57.5L20.43,56.99L21.91,56.4L22.41,56.71L23.62,56.97L24.23,57.57L25.12,57.74L26.8,56.91L27.18,57.32L28.12,57.08L31.32,57.65L31.81,57.52L31.81,58.57ZM64.83,63.35L65.27,63.4L66.95,64.6L68.18,65.07L68.81,64.93L68.9,64.46L69.71,63.88L69.63,62.89L69.95,63.44L71.33,63.94L71.03,64.64L71.04,65.41L70.43,67.54L70.18,67.66L69.61,69.36L69.4,69.52L67.92,69.34L66.43,68.68L65.48,69.03L64.85,68.42L64.48,68.55L64.78,68.17L63.65,67.59L64.39,66.14L64.45,64.6ZM71.87,94.35L71.41,94.67L71.01,95.61L71.08,96.13L70.7,97.01L69.74,96.25L68.92,96.2L67.71,96.44L66.64,97.13L66.11,97.77L65.94,98.97L66.49,100.82L65.09,101.9L64.59,101.54L64.28,102.6L64.52,103.76L64.26,104.37L63.3,104.88L62.69,104.86L61.95,104.37L62.29,104.19L62.5,103.25L63.38,101.99L63.64,100.78L63.41,99.65L62.87,99.67L62.27,99.25L62.11,97.98L62.4,97.13L62.43,96.01L62.78,95.08L63.81,94.25L64.28,94.42L64.92,93.9L64.95,92.38L65.13,90.55L66.26,90.83L66.78,90.57L67.67,91.43L68.35,92.37L69.36,92.51L71.15,93.21L71.16,93.93ZM84.18,82.04L83.57,83.29L81.84,85.71L80.84,86.39L79.03,88.46L77.92,88.67L77.51,89.24L76.48,89.74L76.56,91.4L74.57,90.78L73.91,91.16L72.89,90.83L72.37,89.16L71.93,88.73L71.33,88.76L71.14,87.96L69.7,87.31L69.83,85.57L70.46,84.55L70.39,83.64L70.93,82.49L72.34,81.73L72.69,80.99L73.06,80.9L73.83,81.76L74.38,81.69L74.03,83.07L74.96,83.7L75.41,84.63L76.1,85.3L76.77,83.88L77.35,83.29L77.51,82.57L78.64,81.89L79.88,82.11L82.99,81.82ZM101.62,48.24L101.53,48.88L101.21,49.59L100.29,49.61L100.32,48.67L99.82,47.87L98.63,47.05L97.71,47.1L96.15,48.27L96.22,48.98L95.41,49.48L94.74,51.01L92.99,53.91L92.42,54.4L92.5,55L91.54,56.12L91.27,57.02L91.67,57.62L91.35,58.4L90.53,57.92L89.99,57.09L88.98,56.62L88.37,56.89L87.36,56.07L87.3,55.38L85.23,55.13L86.38,53.78L87.64,52.5L87.02,51.51L87.82,51.17L87.88,50.66L87.44,50.36L86.33,48.1L85.66,47.77L86.61,45.81L87.23,46.61L88.21,46.55L88.96,45.32L89.42,45.65L89.6,44.47L90.17,43.57L91.2,42.51L91.56,41.64L92.33,41.39L93.09,40.65L93.65,40.82L93.49,41.58L94.33,42.49L94.7,43.52L95.27,44.36L95.69,44.18L97.16,45.39L97.32,45.88L97.99,45.72L98.95,46.45L99.19,46.03L100.68,46.73ZM76.45,48.18L76.22,49.67L74.69,51.43L74.73,53L75,53.54L74.45,54.3L73.53,54.76L73.47,54.3L72.52,54.54L71.29,54.14L69.09,53.94L68.24,54.19L68.13,53.79L68.67,53.01L68.71,52.08L69.4,51.36L69.64,50.38L68.94,49.94L69.63,48.96L69.26,48.63L67.81,47.98L67.31,48.02L67.73,47.3L66.94,46.46L66.97,45.68L67.49,45.14L68.33,44.94L68.38,45.69L68.83,46.56L69.93,45.91L71.01,46.85L72.51,47.56L73.84,48.61L74.15,47.6L74.79,46.88L75.53,47.55L75.99,48.39ZM63.65,67.59L64.78,68.17L64.48,68.55L64.16,68.73L64.69,69.5L64.14,69.85L64.62,70.37L64.04,70.72L63.7,71.58L63.56,71.02L62.94,71.11L62.71,71.72L62.25,71.93L62.26,72.85L61.88,74.06L61.11,75.08L61.48,75.78L60.7,75.68L59.74,76.23L59.39,76.05L59.83,75.77L59.8,74.78L59.35,74.86L58.97,74.37L59.66,73.45L59.1,72.58L59.93,70.95L60.99,69.99L61.91,69.94L62.49,68.77ZM91.56,41.64L90.69,41.36L89.55,41.43L89.03,42.14L88.29,42.19L87.86,42.63L86.92,42.01L86.45,42.91L84.69,44.68L84.09,44.83L83.26,45.81L82.2,45.31L82.22,45.01L81.09,46.03L81.02,44.68L80.51,44.01L80.48,42.8L81.34,42.71L82.01,42.02L81.84,41.3L82.78,40.82L83.51,39.84L83.37,39.56L84.14,39.02L84.26,38.16L86.03,36.9L87.32,37.9L87.9,38.85L88.53,39.45L88.21,40.02L89.56,40.25L90.65,40.72L90.73,41.14ZM38.1,91.66L38.38,91.36L38.31,90.43L38.58,89.71L38.05,89.15L37.32,89.38L36.18,88.62L37.04,87.5L36.72,86.78L37.54,86.29L37.96,85.63L39.73,84.77L40.84,84.31L41.89,83.06L42.58,82.86L43.2,83.04L43.12,83.58L43.52,85.44L43.85,86.01L44.66,86.46L45.27,87.54L44.65,88.25L44.72,89.28L44.32,89.5L43.7,90.94L43.21,91.44L42.78,90.13L41.95,89.89L40.91,90.62L40.77,91.31L39.53,90.96L38.63,91.61ZM53.09,38.35L53.03,41.12L52.35,41.7L51.17,41.69L50.56,41.15L50.62,42.67L49.91,44.04L49.59,44.12L48.9,43.44L48.24,43.93L46.9,43.59L45.58,43.28L44.89,43.6L45.47,42.11L45.39,41.02L45.88,40.7L45.87,39.78L46.87,39.93L46.91,38.31L47.21,37.36L46.55,36.48L45.88,36.43L45.45,35.73L45.69,34.61L46.39,34.79L47.7,34.04L49.35,36.38L50.11,36.57L50.34,36.1L50.83,36.14L51.35,35.59L52.2,35.8L52.68,37.19L52.75,38.13ZM50.7,65.79L51.05,65.41L51.25,64.35L51.91,63.9L51.83,63.26L52.54,62.16L52.8,62.38L53.09,61.72L54.07,60.78L54.34,61.07L55.06,62.12L54.83,62.64L57.33,65.34L57.05,66.53L56.34,67.06L55.63,67.64L55.32,68.31L54.52,69.08L53.68,69.51L52.33,69.36L52.03,68.88L51.81,67.67ZM41.42,68.3L42.1,67.89L42.12,66.92L41.47,66.41L41.51,65.73L42.62,65.45L43.81,66.06L44.62,66.07L45.2,65.04L45.93,64.91L45.75,64.52L47.26,64.47L48.1,65.06L47.98,65.45L48.59,65.92L48.95,65.79L49.61,66.22L50.7,65.79L51.81,67.67L52.03,68.88L52.33,69.36L51.88,69.9L52.07,70.42L51.58,71.53L50.92,71.86L49.96,71.43L49.44,70.79L49.12,71.71L48.51,72.13L47.74,73.36L46.45,73.49L46.77,72.61L45.67,72.09L44.18,71.01L43.19,70.7L43.1,69.85L42.08,68.21ZM78.54,99.26L77.67,98.76L77.61,98.36L76.69,97.47L76.51,95.96L76.63,95.47L76.49,94.44L76.84,94.19L76.07,92.25L76.56,91.4L76.48,89.74L77.51,89.24L77.92,88.67L79.03,88.46L80.84,86.39L81.84,85.71L83.57,83.29L84.18,82.04L84.06,80.3L84.16,79.07L85.04,78.63L85.94,78.56L86.78,79.29L87.41,79.12L87.4,79.78L89.33,81.66L90.46,83.01L90.78,84.44L90.56,85.4L90.54,86.63L90.76,87.27L92.1,88.18L92.63,88.72L92.22,89.16L91.47,89.41L91.42,90.12L89.56,90.41L88.97,91.24L88.61,91.26L88.24,92.24L88.18,93.44L87.41,94.5L86.7,94.03L86.13,94.88L84.83,94.98L84.2,95.47L83.21,96.76L82.9,98.16L83.09,98.56L82.09,98.35L80.63,97.81L78.75,99.49ZM70.62,101.34L72.83,101.24L73.24,100.74L73.72,100.91L74.86,100.22L75.61,100.47L75.96,100.93L77.12,101.74L77.63,102.39L76.71,103.28L76.54,104.48L76.09,105.58L76.81,107.12L75.58,107.53L74.48,107.11L73.74,107.32L73.44,106.8L72.21,107.24L71.87,107.07L71.55,106.03L71,106.13L70.57,105.61L69.56,105.7L69.05,106.18L67.89,105.32L67.15,105.34L67.01,104.67L67.8,104.77L68.84,104.61L69.46,104.19L70.13,102.59L70.79,102.11ZM58.97,74.37L59.35,74.86L59.8,74.78L59.83,75.77L59.39,76.05L58.34,77L58.33,78.04L57.61,77.83L56.39,77.92L55.77,77.7L54.79,76.25L54.65,75.51L54.25,75.25L54.59,74.88L53.34,74.07L53.41,73.12L54.26,72.15L54.78,71.14L55.2,71.38L55.33,72.51L56.4,71.49L56.78,71.95L56.66,72.64L57.01,73.12L57.7,72.59L58.32,72.76ZM89.17,25.9L88.07,27.14L87.31,27.16L87.63,28.37L87.54,29.18L87.15,29.63L86.62,31.04L85.43,32.5L85.45,33.27L85.01,34.09L83.62,31.94L83.04,32L82.47,31.6L81.97,31.68L82.67,30.59L82.63,30.19L83.65,29.27L84.27,28.23L84.05,27.51L85.02,25.89L85.71,24.98L87.54,25.07L88.57,24.51L89.3,24.76ZM47.21,110.03L45.41,108.9L45.08,107.63L44.82,107.39L43.56,107.13L41.93,105.96L40.75,105.61L40.35,106.04L38.88,106.73L37.42,107.02L36.66,108L35.3,108.51L33.31,108.24L33.21,108.41L32.65,107.82L33.04,107.74L33.78,106.92L34.25,106.96L35.73,106.28L37.21,105.86L38.34,105.24L40.04,103.53L40.39,102.59L41.24,101.92L41.45,101.1L41.8,100.54L42.5,100.31L43.19,99.33L43.23,98.56L44.05,98.3L45.83,98.3L46.65,98.94L48.19,98.98L48.5,98.25L48.36,97.75L48.89,97.35L49.17,96.68L49.65,96.44L50.1,97.78L49.73,98.57L51.44,98.88L50.83,99.68L50.38,100.41L49.34,100.57L48.63,99.36L48.17,99.49L47.55,101.23L47.29,102.57L46.71,103.37L46.09,105.45L46.92,106.17L47.75,107.59L47.18,108.39L47.55,109.15ZM112.85,70.89L115.44,71.73L116.08,72.34L116.05,72.62L114.05,73.32L113.06,72.82L112,73.79L111.89,74.7L111.55,75.34L111.93,75.69L112.17,76.54L112.01,77.49L111.14,78.16L110.69,79.24L110.09,80.08L107.96,81.6L106.8,81.95L106.2,82.5L105.18,84.8L104.38,84.82L103.76,85.22L103.32,86.23L101.8,88.23L100.35,88.31L99.48,89.73L98.6,88.44L97.16,88.09L95.82,87.18L95.16,87.46L94.45,88.24L94.05,87.52L94.51,84.5L94.29,83.9L94.8,82.87L95.69,81.62L95.7,80.56L96.21,79.95L97.2,80.34L99.49,80.38L100.17,78.69L99.83,78.31L100,77.45L100.52,77.41L101.75,76.7L104.09,76.54L104.45,76.24L105.84,75.82L106.32,75.01L107.59,75.11L108.45,74.48L109.06,74.74L109.92,74.28L110.2,73.51L110.03,73.1L111.15,72.48L111.29,71.97L112.15,70.97ZM78.86,54.03L79.92,54.82L80.07,55.6L81.08,56.27L79.85,58.1L79.08,58.72L78.64,59.79L77.88,59.56L76.99,58.95L77.67,58.3L76.37,56.12L76.03,55.37L77.6,53.98ZM96.14,59.94L96.61,62.19L97.1,62.85L98.1,63.02L101.24,63.16L101.49,64.35L102.44,64.64L102.72,65.55L102.7,66.5L102.23,66.58L101.53,67.56L101.53,68.81L100.99,70.03L101.12,71.52L100.41,71.54L99,71.19L97.96,71.27L97.71,71.81L97.92,72.35L97.26,71.87L96.05,71.63L95.71,71.28L94.27,69.55L93.35,69.58L92.89,68.9L91.68,69.74L90.79,69.66L89.92,68.73L88.84,68.7L88.99,68.07L89.54,67.07L90.71,67.37L90.92,66.85L90.26,64.74L91.09,64.12L90.88,63.28L90.38,62.81L91.51,61.8L92.03,61.94L93.57,60.95L94.4,60.88L94.92,60.26L95.58,60.28ZM101.75,76.7L100.52,77.41L100,77.45L99.83,78.31L100.17,78.69L99.49,80.38L97.2,80.34L96.21,79.95L96.22,79.45L95.29,78.24L94.95,77.19L93.8,76.93L93.64,76.36L94.09,74.71L94.46,74.52L94.61,73.36L95.71,71.28L96.05,71.63L97.26,71.87L97.92,72.35L98.98,73.55L99.47,74.59L99.75,75.67ZM18.75,95.91L18.91,96.08L19.47,99.59L18.28,99.56L17.35,101.24L17.76,102.08L17.52,103.2L18.19,103.68L18.04,104.25L16.55,104.9L15.95,104.84L15.8,105.91L15.07,106.05L14.7,105.5L13.29,106.76L11.86,107.26L10.21,107.42L9.41,105.88L9.92,105.09L10.56,104.78L9.98,104.49L9.95,103.9L11.16,102.91L11.78,102.73L12.41,102.69L14.53,100.08L14.94,99.84L15.93,98.22L17.41,96.42ZM43.21,91.44L43.7,90.94L44.32,89.5L44.72,89.28L44.65,88.25L45.27,87.54L45.46,87.38L46.74,87.95L47.95,88.06L48.25,87.82L49.24,88.07L49.38,87.69L50.29,88.12L50.13,89.74L50.83,89.68L50.75,90.6L50.15,91.41L49.61,90.68L49.44,91.2L47.81,91.47L47.86,91.66L45.44,91.85L44.55,91.69L42.92,92.04ZM85.45,33.27L85.43,32.5L86.62,31.04L87.15,29.63L87.54,29.18L87.63,28.37L87.31,27.16L88.07,27.14L89.17,25.9L90.04,26.09L90.73,26.72L91.17,26.68L92.03,25.85L92.2,27.03L91.87,27.46L93.54,28.13L93.94,28.91L94.52,28.7L95.47,29.06L96.09,29.62L97.7,29.9L97.98,30.61L97.39,31.4L96.63,31.78L95.39,32.76L94.87,32.34L93.66,33.11L92.1,34.34L91.26,34.41L90.55,34.82L89.98,34.72L89.77,34.23L88.91,34.14L88.59,33.71L87.99,33.8L86.66,35.1L86.14,35.1L85.57,33.94ZM28.18,30.75L28.62,31.37L28.52,31.79L28.99,32.44L29.45,32.4L29.94,33.03L29.5,35.25L29.26,35.74L29.4,36.64L28.65,38.69L29.03,39.54L28.83,40.38L28.25,41.15L28.51,41.84L28.15,42.43L28.99,43.24L29.82,43.43L30.9,44.13L32.4,44.11L34.32,44.35L35.04,43.97L35,45.51L34.75,46.2L34.96,46.65L34.81,47.64L34.32,48.1L33.34,48.76L33.19,49.92L33.27,51.36L33.08,51.81L33.23,52.83L32.97,53.24L33.31,55.58L33.56,56.54L33.26,58.04L33.67,58.65L33.58,59.56L32.48,59.69L31.81,58.57L31.81,57.52L31.32,57.65L28.12,57.08L27.18,57.32L26.8,56.91L25.12,57.74L24.23,57.57L23.62,56.97L22.41,56.71L21.91,56.4L20.43,56.99L20.28,57.5L19.45,56.71L19.8,55.61L20.34,54.78L20.63,53.28L20.37,52.19L21.25,50.96L21.04,49.11L20.25,47.65L20.28,47.05L21.09,46.08L21.4,44.56L21.04,43.72L20.11,43.39L20.37,42.71L20.33,41.4L20.8,40.88L20.53,39.98L20.69,39.2L20.07,37.58L20.54,36.34L21.39,35.74L21.74,34.02L22.32,32.93L21.91,32.01L23.16,32.35L23.9,31.44L23.4,30L23.65,29.71L24.64,29.56L24.59,28.53L23.96,27.42L24.63,26.95L25.81,27.03L25.88,27.84L26.75,28.17L27.43,28.77L26.57,29.78L26.38,30.74L26.75,31.04ZM86.25,69.32L87.1,70.73L87.49,70.96L87.91,72.09L88,74.01L87.5,74.58L87.71,75.14L87.14,75.96L86.26,76.1L85.67,75.73L84.61,75.56L83.56,76.55L83.36,77.61L83.76,78.87L83.18,79.05L82.77,78.71L80.11,78.63L80.2,77.49L79.8,76.6L79.38,76.48L79.09,77.07L78.79,76.36L78.76,74.8L77.77,74.74L76.75,73.89L75.25,72.05L74.04,71.83L72.61,71.04L72.83,70.09L73,68.2L74.14,68.63L74.76,68.22L75.19,66.8L75.12,65.88L75.57,65.57L75.2,64.34L75.8,63.18L76.31,62.54L78.43,63.6L78.58,63.98L80.77,64.89L80.88,65.3L81.38,64.93L83.7,67.27L83.87,66.98L84.46,67.83L85.01,67.34L85.03,68.04L85.58,69.27ZM16.01,85.15L16.77,84.89L17.77,85.04L18.87,85.45L18.19,87.35L18.09,88.52L18.84,89.39L18.65,90.11L19.16,90.73L18.53,91.85L19.47,93.1L18.59,93.64L17.73,94.48L17.19,95.54L16.69,95.77L15.62,96.99L14.91,97.13L15.17,96.57L14.22,95.86L14.09,95.18L14.62,95.1L15.28,94.25L15.53,92.54L15.95,91.44L16.42,91.2L15.84,89.8L15.23,88.99L15.48,88.45L14.98,87.69L15.21,86.46L14.87,86.35L14.58,85.56ZM78.64,59.79L79.08,58.72L79.85,58.1L80.97,58.68L82.67,59.04L84,59.91L84.71,59.2L86.2,59.23L86.53,58.8L86.78,59.72L87.22,60.35L88.28,60.82L89.55,60.56L90.33,61.14L90.72,61L91.51,61.8L90.38,62.81L90.88,63.28L91.09,64.12L90.26,64.74L90.92,66.85L90.71,67.37L89.54,67.07L88.99,68.07L88.1,68.16L88.14,69.2L87.41,69.08L86.25,69.32L85.58,69.27L85.03,68.04L85.01,67.34L84.46,67.83L83.87,66.98L83.7,67.27L81.38,64.93L80.88,65.3L80.77,64.89L78.58,63.98L78.43,63.6L76.31,62.54L76.65,61.67ZM37.18,61.49L37.72,62.3L37.46,62.94L37.71,64.74L38.64,64.56L38.92,64.11L39.1,65.64L39.41,66.56L40.1,67.35L39.25,67.38L38.8,67.98L38.84,68.7L37.57,69.19L36.21,69.13L35.66,68.76L35.64,66.8L36.08,66.33L35.38,65.16L35.68,64.41L35.11,63.94L35.36,63.04L35.24,62.39L35.77,61.81L35.71,61.09L35.79,60.59ZM75.58,107.53L76.81,107.12L77.36,107.16L77.65,107.67L79.03,108.36L79.61,107.68L79.48,107.29L79.96,106.33L81.5,106.61L81.83,106.19L82.03,104.85L83.25,103.87L83.73,101.84L84.19,101.52L84.61,102.27L84.9,103.6L84.8,105.08L85.65,105.47L86.21,106.5L87.5,107.42L86.99,107.91L86.39,109.45L86.74,109.99L86.79,111.02L87.09,111.75L87.6,112.03L86.86,112.42L85.22,112.19L84.47,111.91L83.53,112.12L82.75,111.83L82.38,113.3L81.92,114.1L81.12,113.54L78.84,114.13L78.28,115.03L77.11,115.85L75.95,115.43L75.46,115.77L74.6,115.43L74.33,114.38L75.09,113L75.96,112.44L76.53,112.63L76.97,111.5L76.23,109.53L76.31,108.3ZM67.15,105.34L67.89,105.32L69.05,106.18L69.56,105.7L70.57,105.61L71,106.13L71.55,106.03L71.87,107.07L72.21,107.24L73.44,106.8L73.74,107.32L74.48,107.11L75.58,107.53L76.31,108.3L76.23,109.53L76.97,111.5L76.53,112.63L75.96,112.44L75.09,113L74.33,114.38L74.6,115.43L73.81,117.51L73.42,117.87L73.07,118.8L72.26,119.4L71.24,118.13L70.68,118.56L69.98,118.55L69.72,118.07L68.96,118.91L68.36,118.93L68.01,119.84L67.6,120.01L67.69,121.44L66.37,121.34L65.81,121.8L65.25,121.65L64.52,123.2L63.34,124.29L63.29,124.67L61.63,124.97L61.64,125.51L60.72,125.57L59.81,125.26L60.07,124.46L60.83,123.42L61.53,121.83L61.37,120.65L61.03,120.1L61.23,119.34L61.89,118.93L61.11,118.52L61.27,117.04L61.96,117L62.62,116.49L62.26,115.21L62.62,114.08L62.57,113.16L63.68,112.78L65.64,112.97L65.77,112.14L66.22,111.38L66.07,111.02L65,110.69L64.46,110.1L65.44,109.27L65.87,107.99L66.65,107.36L66.2,106.49L64.86,105.87L65.41,105.4L66.33,105.56ZM29.89,82.28L29.38,82.77L29.17,83.31L28.01,85.14L27.65,85.38L27.02,87.29L26.41,88.11L26.01,88.13L24.91,89.63L24.1,90.28L22.15,92.16L21.05,94.01L20.65,94.16L20.17,94.06L19.47,93.1L18.53,91.85L19.16,90.73L18.65,90.11L18.84,89.39L18.09,88.52L18.19,87.35L18.87,85.45L19.24,84.6L19.92,84.19L20.13,83.18L20.88,82.26L21.66,81.96L22.97,82.23L23.65,82.09L23.64,81.16L24.53,81.44L24.66,81.9L25.35,82.1L26.26,81.71L27.65,80.84L28.61,81.11L28.99,81.55L30.12,81.03ZM92.63,88.72L92.1,88.18L90.76,87.27L90.54,86.63L90.56,85.4L90.78,84.44L90.46,83.01L89.33,81.66L87.4,79.78L87.41,79.12L86.78,79.29L85.94,78.56L85.04,78.63L84.16,79.07L83.76,78.87L83.36,77.61L83.56,76.55L84.61,75.56L85.67,75.73L86.26,76.1L87.14,75.96L87.71,75.14L87.5,74.58L88,74.01L87.91,72.09L87.49,70.96L87.1,70.73L86.25,69.32L87.41,69.08L88.14,69.2L88.1,68.16L88.99,68.07L88.84,68.7L89.92,68.73L90.79,69.66L91.68,69.74L92.89,68.9L93.35,69.58L94.27,69.55L95.71,71.28L94.61,73.36L94.46,74.52L94.09,74.71L93.64,76.36L93.8,76.93L94.95,77.19L95.29,78.24L96.22,79.45L96.21,79.95L95.7,80.56L95.69,81.62L94.8,82.87L94.29,83.9L94.51,84.5L94.05,87.52L94.45,88.24L93.14,88.24ZM69.4,69.52L69.61,69.36L70.26,69.72L70.11,70.07L72.83,70.09L72.61,71.04L74.04,71.83L75.25,72.05L76.75,73.89L77.77,74.74L78.76,74.8L78.79,76.36L79.09,77.07L79.38,76.48L79.8,76.6L80.2,77.49L80.11,78.63L82.77,78.71L83.18,79.05L83.76,78.87L84.16,79.07L84.06,80.3L84.18,82.04L82.99,81.82L79.88,82.11L78.64,81.89L77.51,82.57L77.35,83.29L76.77,83.88L76.1,85.3L75.41,84.63L74.96,83.7L74.03,83.07L74.38,81.69L73.83,81.76L73.06,80.9L72.69,80.99L72.34,81.73L70.93,82.49L69.39,82.8L69.42,81.99L68.1,81.67L68.06,81.04L68.38,80.34L69.59,80.21L69.93,79.52L69.32,78.92L69.09,77.93L69.58,75.92L69.6,75.02L69.35,73.85L68.78,73.43L69.01,71.52L70.05,70.57L69.57,70.19ZM37.54,86.29L36.72,85.38L36.27,85.31L35.05,84.56L34.78,83.77L33.27,83.05L33.14,82.47L32.47,81.36L32.09,81.37L32.07,80.46L32.67,80.16L32.81,79.44L33.49,79.02L33.54,78.61L34.15,78.73L34.61,79.45L35.4,79.17L36.19,79.32L37.19,78.82L38.14,78.81L39.55,77.1L40.25,76.89L41.01,77.62L41.69,77.24L42.71,77.03L42.93,76.63L43.33,76.93L43.28,77.83L43.52,78.79L42.04,80.44L41.69,81.16L41.13,81.44L41.13,82.2L40.69,82.41L40.86,83.06L39.76,82.64L39.73,84.77L37.96,85.63ZM36.53,39.77L37.21,39.35L37.43,38.47L37.94,37.92L37.89,37.38L39.11,36.87L38.46,35.95L38.86,35.75L38.72,34.83L39.15,33.75L40.22,32.68L40.3,31.83L39.12,31.26L39.33,30.74L40.29,29.75L40.69,28.5L40.16,27.67L40.7,27.66L41.28,26.93L41.48,27.41L42.41,27.67L42.44,29.09L43.67,28.87L44.28,28.15L45.2,28.68L44.42,30.27L45.28,31.35L45.65,31.49L45.59,32.5L45.9,32.92L45.59,33.88L45.69,34.61L45.45,35.73L45.88,36.43L46.55,36.48L47.21,37.36L46.91,38.31L46.87,39.93L45.87,39.78L45.68,39.05L44.78,38.42L43.77,38.32L43.46,37.81L42.23,37.81L42.04,38.73L41.58,39.46L40.86,39.98L40.17,39.69L38.99,40.04L38.52,39.53L37.6,40.04ZM45.87,39.78L45.88,40.7L45.39,41.02L45.47,42.11L44.89,43.6L44.33,44.38L43.93,44.47L43.37,47.21L42.3,49.08L39.62,48.71L39.17,47.86L39.58,46.47L39.31,44.1L39.91,43.86L40.09,42.79L40.9,41.91L39.89,40.89L39.3,40.99L38.99,40.04L40.17,39.69L40.86,39.98L41.58,39.46L42.04,38.73L42.23,37.81L43.46,37.81L43.77,38.32L44.78,38.42L45.68,39.05ZM48.1,65.06L47.26,64.47L45.75,64.52L45.42,63.38L44.89,62.47L44.06,61.77L43.81,60.83L44,59.85L43.51,58.87L43.89,57.85L44.25,57.52L43.35,56.26L43.99,55.72L43.15,55.82L43.3,55.07L43.85,54.5L43.86,53.96L44.54,54.42L45.94,54.24L46.83,53.76L48.08,53.89L49.19,52.23L49.38,52.22L49.76,52.87L49.79,53.59L50.43,54L50.49,54.48L51.13,55.29L50.35,55.59L49.74,56.24L48.11,56.58L48.58,57.78L49.57,58.28L49.08,58.51L48.61,59.5L49.21,60.2L49.01,60.88L49.79,61.03L50.02,61.58L50.48,61.63L50.5,62.49L50.16,63.29L49.06,63.97ZM93.09,40.65L92.33,41.39L91.56,41.64L90.73,41.14L90.65,40.72L89.56,40.25L88.21,40.02L88.53,39.45L87.9,38.85L87.32,37.9L86.03,36.9L85.81,35.14L86.14,35.1L86.66,35.1L87.99,33.8L88.59,33.71L88.91,34.14L89.77,34.23L89.98,34.72L90.55,34.82L91.26,34.41L92.1,34.34L93.66,33.11L94.87,32.34L95.39,32.76L96.63,31.78L97.39,31.4L97.58,32.34L97.42,34.04L96.66,35.52L96.05,36.04L96.04,36.78L95.41,37.3L94.6,37.54L93.01,39.09L93.48,40.09ZM91.35,58.4L91.67,57.62L91.27,57.02L91.54,56.12L92.5,55L92.42,54.4L92.99,53.91L94.74,51.01L95.41,49.48L96.22,48.98L96.15,48.27L97.71,47.1L98.63,47.05L99.82,47.87L100.32,48.67L100.29,49.61L101.21,49.59L101.53,48.88L101.63,50.14L101.11,50.46L100.6,52.1L101.3,52.34L101.41,53.69L100.36,55.54L98.94,55.9L98.43,56.46L97.64,57.88L96.85,58.44L96.14,59.94L95.58,60.28L94.92,60.26L94.4,60.88L93.57,60.95L92.03,61.94L91.51,61.8L90.72,61L90.33,61.14L89.55,60.56L91.08,58.94ZM49.67,76.63L48.7,75.26L48.13,74.85L47.74,73.36L48.51,72.13L49.12,71.71L49.44,70.79L49.96,71.43L50.92,71.86L51.58,71.53L52.07,70.42L51.88,69.9L52.33,69.36L53.68,69.51L54.52,69.08L55.32,68.31L55.63,67.64L56.34,67.06L57.97,67L57.92,67.95L57.28,68.27L56.26,70.86L55.69,70.88L55.2,71.38L54.78,71.14L54.26,72.15L53.41,73.12L53.34,74.07L54.59,74.88L54.25,75.25L53.08,76.31L52.79,77.17L52.96,77.61L52.61,78.78ZM101.24,63.16L98.1,63.02L97.1,62.85L96.61,62.19L96.14,59.94L96.85,58.44L97.64,57.88L98.43,56.46L98.94,55.9L100.36,55.54L101.41,53.69L101.3,52.34L102.26,53.06L102.18,54.83L102.59,55.28L102.63,56.08L103.05,57.01L103.54,57.54L102.94,57.94L102.84,58.68L102.19,59.47L101.89,60.36L101.11,61.03L100.8,62.39ZM99.48,89.73L100.35,88.31L101.8,88.23L103.32,86.23L103.76,85.22L104.38,84.82L105.18,84.8L106.2,82.5L106.8,81.95L107.96,81.6L110.09,80.08L110.69,79.24L112.12,80.88L112.87,80.61L113.35,80.91L115.31,81.25L115.43,81.94L116.5,82.19L117.52,82.97L118.41,82.24L119.44,82.51L120.68,83.11L121.3,82.99L121.38,83.82L122.18,84.1L123.95,84.16L123.17,85.16L123.02,85.75L123.36,87.08L124.85,87.32L124.72,88.33L125.19,89.19L124.14,91.21L124.32,92.15L122.79,92.96L122.66,94.07L122.3,94.93L121.61,94.91L120.82,96.69L119.82,96.78L118.61,97.51L117.28,98.81L116.2,99.61L115.03,100.14L113.2,99.95L111.71,101.32L109.89,102.59L109.82,103.42L108.85,104.46L109.05,104.66L107.76,105.9L107.19,105.92L106.67,106.56L106.03,106.72L105.21,106.09L104.34,106.22L103.53,105.76L102.68,105.63L100.68,104.57L100.52,104.16L100.67,102.88L100.44,102.75L100.29,101.39L99.23,100.08L99.2,99.05L98.89,98.54L99.18,96.96L98.13,96.01L97.88,95.21L97.15,94.57L97.56,92.34L98.96,91.55L98.96,90.31ZM51.5,83.34L51.17,83.24L50.74,82.22L50.67,80.4L50.24,79.92L50.52,79.35L49.54,76.93L49.67,76.63L52.61,78.78L52.96,77.61L52.79,77.17L53.08,76.31L54.25,75.25L54.65,75.51L54.79,76.25L55.77,77.7L56.39,77.92L57.61,77.83L58.33,78.04L58.65,78.58L58.16,79.38L59.22,80.35L58.34,80.7L57.41,81.35L56.84,80.85L55.78,82.14L54.91,82.6L54.64,82.34L53.68,82.32L53.15,83.11L52.69,82.66L52.14,83.22ZM18.75,95.91L17.41,96.42L15.93,98.22L14.94,99.84L14.53,100.08L12.41,102.69L11.78,102.73L12.05,101.09L11.88,100.57L12.92,99.47L12.99,98.58L13.36,97.91L13.19,97.46L13.49,96.69L13.33,95.31L14.09,95.18L14.22,95.86L15.17,96.57L14.91,97.13L15.62,96.99L16.69,95.77L17.19,95.54L17.73,94.48L18.59,93.64L19.47,93.1L20.17,94.06L20.65,94.16L19.73,94.14L19.31,94.59ZM74.45,54.3L75,53.54L74.73,53L74.69,51.43L76.22,49.67L76.45,48.18L76.92,47.24L77.4,47.78L77.5,46.26L78.12,46.9L78.81,46.73L79.13,47.09L79.45,46.69L79.85,47.4L79.85,46.39L80.6,46.69L80.57,47.43L81.26,47.48L80.91,48.1L80.05,48.55L80.06,49.15L81.72,50.52L80.4,52.3L79.88,52.77L80.05,53.44L78.9,53.77L78.86,54.03L77.6,53.98L76.03,55.37ZM24.8,102.43L25.75,101.44L27.19,101.97L28.26,101.08L28.5,101.33L29.46,101.05L30.34,100.44L31.88,100.06L32.49,100.25L32.71,100.73L34.04,100.47L34.56,100.79L36,100.92L36.12,101.37L35.79,101.66L35.52,102.67L34.85,103.37L33.3,104.6L32.55,105.92L32.31,106.82L32.48,107.49L31.76,107.01L30.56,107.38L29.99,107.33L29.43,107.99L27.85,108.39L27.92,109.32L27.42,110.36L27.03,110.29L26.46,111.24L25.34,112.03L25.48,111.23L23.97,111.48L22.28,111.11L22.06,110.06L21.2,109.57L20.9,109.82L20.3,108.88L21.95,107.94L22.31,108.17L22.99,107.15L23.54,106.67L25.06,104.72ZM44.89,43.6L45.58,43.28L46.9,43.59L46.82,44.27L46,44.77L45.73,46.42L45.18,47.48L44.66,47.88L45.1,48.86L44.98,49.94L44.53,50.1L43.81,50.09L43.39,49.65L41.97,50.63L41.57,50.34L41.01,51.18L40.95,52.81L40.1,52.69L39.51,52.29L39.09,51.04L39.64,49.3L39.36,48.85L39.62,48.71L42.3,49.08L43.37,47.21L43.93,44.47L44.33,44.38ZM46.83,53.76L45.94,54.24L44.54,54.42L43.86,53.96L43.85,54.5L43.3,55.07L43.15,55.82L42.78,56.33L41.98,55.88L41.23,55.51L41.23,54.47L40.37,54.19L40.4,53.61L40.95,52.81L41.01,51.18L41.57,50.34L41.97,50.63L43.39,49.65L43.81,50.09L44.53,50.1L45.21,50.61L45.74,51.43L46.22,51.63L46.71,51.09L47.07,51.47L47.08,53.03ZM44.23,123.13L43.96,124.23L42.84,123.73L41.36,123.92L39.18,123.74L38.54,123.07L37.89,123.13L37.37,123.65L36.53,123.27L35.95,124L35.21,124.03L34.85,124.39L34.38,124.07L33.88,123.29L34.27,122.03L35.43,120.26L36.95,119.01L37.15,118.29L37.62,117.98L37.62,117.39L38.07,117.51L39.55,117.3L39.76,118.03L40.1,118.74L40.47,118.36L42.58,119.09L43.33,119.97L43.85,121.35L43.87,122.87ZM66.97,45.68L66.94,46.46L66.25,47.21L65.5,46.76L65.02,47.49L65.26,48.7L64.78,49.13L64.84,51.36L64.42,52.5L63.68,52.7L63.37,52.43L62.32,52.29L61.45,52.57L60.69,53.4L60.17,54.71L59.33,54.29L59.29,53.74L58.2,52.83L58.09,52.1L57.42,51.3L57.35,50.64L56.21,50.16L55.43,50.29L54.62,49.17L54.66,46.95L54.25,47.31L53.29,47.06L52.25,45.96L51.43,46.18L51.26,45.85L50.07,45.77L50.04,45.02L49.59,44.12L49.91,44.04L50.62,42.67L50.56,41.15L51.17,41.69L52.35,41.7L53.03,41.12L53.09,38.35L53.29,37.34L54.16,37.17L55.04,37.47L55.54,37.07L55.95,37.6L55.89,39.11L56.19,39.34L56.16,40.76L56.32,41.66L56.09,41.94L56.37,43.15L56.25,44.21L56.54,44.1L57,42.84L58.18,42.45L58.21,41.58L58.59,41.3L59.56,41.45L60.69,41.24L63.44,40.44L63.9,41.18L64.77,41.5L64.74,41.76L67.37,43.17L66.68,43.48ZM63.6,27.43L62.99,29.08L63.16,29.27L62.55,30.01L62.67,30.53L62.35,31.13L62.68,31.53L62.82,32.54L62.53,32.98L61.83,32.77L61.09,33.42L61.18,34.45L60.05,34.58L60,35.06L59.31,35.31L58.59,36.81L58.23,36.93L57.6,36.68L57.34,36L56.55,35.44L55.98,33.94L55.02,33.88L54.89,32.61L54.33,31.91L54,30.77L54.11,30.1L55.13,28.78L55.66,28.72L56.47,27.82L57.97,25.84L58.13,25.67L59.12,26.65L59.86,26.85L60.27,26.61L61.3,27.87L61.68,27.93L61.91,26.55L62.36,25.34L62.14,24.85L63.39,25.14L63.66,26.51ZM34.73,109.17L36.53,109.03L37.22,109.28L38.32,110.78L38.81,111.57L39.77,112.23L40.99,115.26L40.51,115.92L39.76,118.03L39.55,117.3L38.07,117.51L37.62,117.39L37.67,116.42L37.13,115.54L37.17,113.58L36.87,113.17L35.93,112.78L35.96,112.34L35.45,112.03L35.21,110.67ZM109.05,104.66L108.85,104.46L109.82,103.42L109.89,102.59L111.71,101.32L113.2,99.95L115.03,100.14L116.2,99.61L117.28,98.81L118.61,97.51L119.82,96.78L120.82,96.69L121.61,94.91L122.3,94.93L122.66,94.07L122.79,92.96L124.32,92.15L124.14,91.21L125.19,89.19L124.72,88.33L124.85,87.32L123.36,87.08L123.02,85.75L123.17,85.16L123.95,84.16L122.18,84.1L121.38,83.82L121.3,82.99L121.65,80.84L122.01,79.88L123.15,79.37L124.01,79.11L124.99,79.68L127.3,80.35L128.14,80.83L129.93,79.73L130.49,80.43L131.13,80.43L131.34,79.87L131.95,79.41L131.94,78.54L132.75,77.48L133.26,76.42L132.82,75.97L133.32,75.06L133.94,75.6L134.59,75.34L132.18,91.38L129.72,107.85L128.85,111L128.15,110.02L128.01,110.46L127.57,109.84L126.58,109.32L126.36,108.66L126.07,108.91L125.06,107.54L124.29,106.93L123.72,106.89L122.18,106.02L121.44,105.98L120.36,105.53L120.1,105.74L118.94,105.24L118.03,105.19L115.96,104.68L114.09,103.66L112.24,103.89L109.89,104.3ZM53.88,112.24L53.06,111.82L52.22,112.43L50.78,112.11L48.76,112.17L48.06,111.33L47.91,110.19L47.21,110.03L47.55,109.15L47.18,108.39L47.75,107.59L46.92,106.17L46.09,105.45L46.71,103.37L47.29,102.57L47.55,101.23L48.17,99.49L48.63,99.36L49.34,100.57L50.38,100.41L50.83,99.68L51.84,99.24L52.81,98.23L53.99,98.25L54.49,98.34L55.48,99.56L55.24,101.11L55.51,104.63L55.31,106.01L54.96,106.32L55.28,106.93L56.07,107.23L56.15,108.33L55.97,109.11L55.26,109.47L55.13,110.12L54.28,110.8ZM33.26,19.35L33.1,20.45L32.13,21.49L31.78,22.49L29.96,23.9L29.61,24.84L29.64,26.71L29.48,27.78L29.7,28.11L28.92,29.01L28.18,30.75L26.75,31.04L26.38,30.74L26.57,29.78L27.43,28.77L26.75,28.17L25.88,27.84L25.81,27.03L25.15,26.55L24.73,24.22L24.14,21.99L25.37,21.5L26.38,20.39L26.38,19.69L25.69,18.62L25.59,18.03L26.16,15.92L26.16,14.95L27.19,14.23L27.22,13.72L26.68,12.73L27.29,10.89L27.33,9.61L26.63,8.77L25.85,8.83L25.28,7.8L25.26,6.4L25.05,5.81L25.53,5.72L25.66,6.62L26.21,6.99L26.55,5.71L27.36,5.12L28.02,5.8L29.29,6.4L30.24,5.36L30.66,5.86L32.12,5.15L33.33,3.56L33.96,3.19L34.38,3.5L34.84,3.15L35.96,3.98L36.28,3.6L37,4.55L37.11,5.34L38.05,5.69L38.08,6.02L37.3,6.52L38.16,7.09L37.92,8.15L37.63,8.29L37.69,9.32L37.44,9.09L36.75,10.29L37.12,11.62L36.66,12.35L36.85,13.01L36,13.51L35.61,13.4L35.03,14.18L34.61,15.46L33.57,16.73L33.47,17.8L33.65,18.58ZM20.13,83.18L19.47,82.96L19.06,81.44L18.42,81.05L18.34,80.22L18.67,79.76L18.08,78.94L18.42,77.73L19.24,76.9L19.4,76.4L19.1,75.6L20.01,74.06L20.79,74.67L21.41,74.67L21.78,73.87L22.78,74.32L23.42,73.84L24.2,74.64L25.54,75.73L26.62,76.08L27.67,75.43L29.85,74.82L29.61,75.46L29.59,77.69L30.13,77.74L29.86,78.71L28.61,81.11L27.65,80.84L26.26,81.71L25.35,82.1L24.66,81.9L24.53,81.44L23.64,81.16L23.65,82.09L22.97,82.23L21.66,81.96L20.88,82.26ZM33.23,52.83L33.08,51.81L33.27,51.36L33.19,49.92L33.34,48.76L34.32,48.1L34.6,48.39L35.94,48.19L36.36,47.63L36.84,47.87L37.75,46.79L38.55,47L38.14,47.91L38.37,48.58L39.36,48.85L39.64,49.3L39.09,51.04L39.51,52.29L38.92,53.11L38.47,52.96L36.78,53.08L36.64,52.88L34.8,52.81L34.18,52.98ZM77.12,101.74L78.15,102.17L78.66,102.61L78.09,101.49L77.2,100.89L76.99,100L77.52,99.41L78.54,99.26L78.75,99.49L80.63,97.81L82.09,98.35L83.09,98.56L83.61,99.39L84.19,99.57L83.97,100.37L84.19,101.52L83.73,101.84L83.25,103.87L82.03,104.85L81.83,106.19L81.5,106.61L79.96,106.33L79.48,107.29L79.61,107.68L79.03,108.36L77.65,107.67L77.36,107.16L76.81,107.12L76.09,105.58L76.54,104.48L76.71,103.28L77.63,102.39ZM32.09,81.37L31.41,82.39L31.36,82.96L29.89,82.28L30.12,81.03L28.99,81.55L28.61,81.11L29.86,78.71L30.13,77.74L29.59,77.69L29.61,75.46L29.85,74.82L29.96,73.92L30.29,73.92L31.44,73.19L31.42,72.04L31.67,71.21L31.94,71.22L32.04,71.72L33.05,71.87L33.8,71.7L34,71.06L34.34,71.36L34.57,72.48L35.6,73.46L35.17,74.68L35.27,75.87L35.35,76.63L36.11,77.64L35.68,77.96L35.4,79.17L34.61,79.45L34.15,78.73L33.54,78.61L33.49,79.02L32.81,79.44L32.67,80.16L32.07,80.46ZM29.38,82.77L30.36,83.05L30.83,85.02L31.16,85.59L31.3,86.55L32.55,87.85L32.43,88.56L31.62,89.26L32.08,89.77L32.86,89.47L33.21,90.05L32.11,91.33L33.61,91.27L33.83,91.77L34.99,91.87L35.87,92.54L34.99,93.14L35.04,93.54L34.32,93.75L33.69,94.39L33.02,93.55L33.29,92.51L31.99,92.77L31.77,95.08L30.17,95.06L28.64,94.53L28.86,94L28.56,93.12L28.21,92.95L28.14,92.07L27.78,91.07L28.18,89.08L28.33,86.71L28.54,86.47L29.25,83.78L29.17,83.31ZM19.98,99.6L20.48,100.96L20.52,101.73L20.99,101.79L22.22,102.79L22.66,102.37L23.53,103.18L23.99,102.39L24.8,102.43L25.06,104.72L23.54,106.67L22.99,107.15L22.31,108.17L21.95,107.94L20.3,108.88L20.07,108.67L19.34,109.11L18.85,107.9L17.87,108.46L17.91,107.84L17.43,107.42L16.92,107.55L17.15,106.32L15.8,105.91L15.95,104.84L16.55,104.9L18.04,104.25L18.19,103.68L17.52,103.2L17.76,102.08L17.35,101.24L18.28,99.56L19.47,99.59ZM46.64,80.93L47.05,81.44L48.47,81.84L49.09,82.63L49.21,83.21L49.16,84.14L49.63,86.66L49.22,87.35L49.38,87.69L49.24,88.07L48.25,87.82L47.95,88.06L46.74,87.95L45.46,87.38L45.27,87.54L44.66,86.46L43.85,86.01L43.52,85.44L43.12,83.58L43.2,83.04L43.63,82.8L44.07,81.4L44.68,82.13ZM38.32,110.78L39.55,110.1L40.54,110.11L41.33,110.66L41.69,111.76L42.81,112.13L43.2,111.76L45.68,112.53L46.31,113.1L47.44,112.77L49.77,113.57L51.48,113.19L52.24,113.23L52.91,112.89L53.72,112.84L53.74,113.91L53.51,114.69L53.34,118.54L52.36,119.36L51.47,118.82L50.14,118.53L49.33,118.15L48.33,116.97L47.63,116.64L47.58,117.38L46.6,119.17L46.25,120.27L46.18,121.71L45.48,122.29L45.17,123.22L44.23,123.13L43.87,122.87L43.85,121.35L43.33,119.97L42.58,119.09L40.47,118.36L40.1,118.74L39.76,118.03L40.51,115.92L40.99,115.26L39.77,112.23L38.81,111.57ZM70.13,32.15L69.58,33.2L70.33,34.43L71.03,34.69L71.8,35.39L71.91,36.58L71.42,37.03L70.98,38.1L71.05,38.88L70.38,39.6L70.04,39.51L69,40.6L68.25,40.72L66.82,40.31L65.47,40.18L64.84,40.86L64.77,41.5L63.9,41.18L63.44,40.44L60.69,41.24L60.37,40.35L59.05,39.49L58.58,38.39L58.04,38.12L57.93,37.39L58.23,36.93L58.59,36.81L59.31,35.31L60,35.06L60.05,34.58L61.18,34.45L61.09,33.42L61.83,32.77L62.53,32.98L62.82,32.54L62.68,31.53L62.35,31.13L62.67,30.53L62.55,30.01L63.16,29.27L62.99,29.08L63.6,27.43L65.06,29.36L66.28,29.83L66.99,29.61L67.31,30.4L68.57,30.85L68.5,32.12ZM54.34,61.07L54.07,60.78L53.09,61.72L52.8,62.38L52.54,62.16L51.83,63.26L51.91,63.9L51.25,64.35L51.05,65.41L50.7,65.79L49.61,66.22L48.95,65.79L48.59,65.92L47.98,65.45L48.1,65.06L49.06,63.97L50.16,63.29L50.5,62.49L50.48,61.63L50.02,61.58L49.79,61.03L49.01,60.88L49.21,60.2L48.61,59.5L49.08,58.51L49.57,58.28L48.58,57.78L48.11,56.58L49.74,56.24L50.35,55.59L51.13,55.29L52.01,54.82L52.83,55.67L53.98,55.87L54.23,56.39L55.46,57.51L55.09,58.57L54.67,58.95L55.26,59.96ZM23.42,73.84L22.57,72.93L23.03,72.17L22.91,71.07L23.09,70.2L23.74,69.41L23.66,68.89L22.94,68.94L21.72,68.32L20.23,68.47L19.73,68.13L19.07,68.38L18.84,68.1L17.68,68.07L18.32,67.4L18.85,66.45L18.65,65.07L18.97,64.86L19.87,65.22L20.24,64.52L19.68,63.97L19.69,63.38L20.2,62.28L20.11,61.75L19.06,60.57L19.41,59.58L20.5,58.84L20.42,59.7L21.02,60.82L21.62,60.34L22.95,60.62L24.25,61.35L24.6,62.54L25.05,62.79L25.34,63.57L26.5,64.48L27.38,64.6L27.69,64.96L29.03,64.39L30.78,64.87L30.38,65.32L30.41,66.56L30.17,68.09L30.7,68.78L31.09,70.41L31.67,71.21L31.42,72.04L31.44,73.19L30.29,73.92L29.96,73.92L29.85,74.82L27.67,75.43L26.62,76.08L25.54,75.73L24.2,74.64ZM42.62,65.45L41.87,64.78L41.6,63.34L40.88,62.62L40.11,62.46L39.69,61.55L38.2,62.25L37.71,60.66L37.37,60.52L38.33,60.11L38.86,59.14L38.73,58.44L39.15,58.54L40.39,56.89L40.97,56.6L41.68,57.37L41.98,55.88L42.78,56.33L43.15,55.82L43.99,55.72L43.35,56.26L44.25,57.52L43.89,57.85L43.51,58.87L44,59.85L43.81,60.83L44.06,61.77L44.89,62.47L45.42,63.38L45.75,64.52L45.93,64.91L45.2,65.04L44.62,66.07L43.81,66.06ZM86.38,53.78L85.23,55.13L87.3,55.38L87.36,56.07L88.37,56.89L88.98,56.62L89.99,57.09L90.53,57.92L91.35,58.4L91.08,58.94L89.55,60.56L88.28,60.82L87.22,60.35L86.78,59.72L86.53,58.8L86.2,59.23L84.71,59.2L84,59.91L82.67,59.04L80.97,58.68L79.85,58.1L81.08,56.27L80.07,55.6L79.92,54.82L80.21,54.47L81.14,54.74L81.9,52.73L82.35,52.62L82.98,51.6L84.76,52.23L85.46,52.64ZM50.83,99.68L51.44,98.88L49.73,98.57L50.1,97.78L49.65,96.44L49.25,96.2L49.58,94.04L49.28,93.17L49.59,92.37L49.44,91.2L49.61,90.68L50.15,91.41L50.75,90.6L51.17,90.45L51.14,88.68L51.75,88.44L53.21,88.43L53.71,89.34L54.6,89.48L55.15,89.91L54.89,91.4L55.12,92.59L54.47,93.66L54.07,95.95L54.27,96.96L53.99,98.25L52.81,98.23L51.84,99.24ZM49.65,96.44L49.17,96.68L48.89,97.35L48.36,97.75L48.5,98.25L48.19,98.98L46.65,98.94L45.83,98.3L44.05,98.3L43.23,98.56L43.19,99.33L42.5,100.31L41.8,100.54L41.45,101.1L41.26,100.79L40.11,100.51L39.31,99.23L39.72,98.73L41.14,94.89L41.84,94.12L42.42,92.7L42.92,92.04L44.55,91.69L45.44,91.85L47.86,91.66L47.81,91.47L49.44,91.2L49.59,92.37L49.28,93.17L49.58,94.04L49.25,96.2ZM79.11,25.68L79,25.31L78.14,25.15L77.06,25.95L76.74,25.33L76.55,23.58L76.23,23.07L76.45,22.6L76.11,21.52L76.54,21.07L77.52,22.21L78.19,21.34L78.44,21.56L79,20.86L79.79,20.96L80.43,19.96L81.57,19.45L82.22,19.48L83.37,18.19L84.41,19.45L84.26,20.93L84.58,22.36L83.58,23.99L82.93,24.26L81.73,24.22L81.59,24.98L80.32,24.84ZM49.21,83.21L50.17,83.74L51.04,83.94L51.5,83.34L52.14,83.22L52.69,82.66L53.15,83.11L53.68,82.32L54.64,82.34L54.91,82.6L54.91,83.18L56.15,84.64L57.55,84.86L57.85,86.18L57.99,88.25L58.23,88.69L57.49,88.98L57.28,89.45L57.72,90.52L58.18,90.96L57.7,91.18L57.94,92.37L57.63,92.84L57.54,93.97L56.57,96.46L56.17,97.04L55.61,98.73L55.48,99.56L54.49,98.34L53.99,98.25L54.27,96.96L54.07,95.95L54.47,93.66L55.12,92.59L54.89,91.4L55.15,89.91L54.6,89.48L53.71,89.34L53.21,88.43L51.75,88.44L51.14,88.68L51.17,90.45L50.75,90.6L50.83,89.68L50.13,89.74L50.29,88.12L49.38,87.69L49.22,87.35L49.63,86.66L49.16,84.14ZM69.63,62.89L69.32,62.56L69.73,62.07L69.68,61.42L70.37,59.36L70.26,59.06L70.67,59.18L71.8,59.82L72.25,61.04L73.6,61.47L75.8,63.18L75.2,64.34L75.57,65.57L75.12,65.88L75.19,66.8L74.76,68.22L74.14,68.63L73,68.2L72.83,70.09L70.11,70.07L70.26,69.72L69.61,69.36L70.18,67.66L70.43,67.54L71.04,65.41L71.03,64.64L71.33,63.94L69.95,63.44ZM56.34,67.06L57.05,66.53L57.33,65.34L54.83,62.64L55.06,62.12L54.34,61.07L55.26,59.96L54.67,58.95L55.09,58.57L55.46,57.51L56.07,56.48L58.48,55.48L59.33,54.29L60.17,54.71L60.69,53.4L61.45,52.57L62.32,52.29L63.37,52.43L63.68,52.7L63.98,53.85L64.63,54.51L64.18,55.48L64.1,56.51L63.83,56.84L63.1,56.72L62.72,59.39L62.35,60.64L62.42,61.54L62.01,61.93L62.01,62.54L61.11,63.09L61.28,63.79L60.63,64.38L58.66,65.49L58.52,66.07L57.96,66.43L57.97,67ZM91.56,41.64L91.2,42.51L90.17,43.57L89.6,44.47L89.42,45.65L88.96,45.32L88.21,46.55L87.23,46.61L86.61,45.81L85.66,47.77L86.33,48.1L87.44,50.36L87.88,50.66L87.82,51.17L87.02,51.51L87.64,52.5L86.38,53.78L85.46,52.64L84.76,52.23L82.98,51.6L82.35,52.62L81.9,52.73L81.14,54.74L80.21,54.47L79.92,54.82L78.86,54.03L78.9,53.77L80.05,53.44L79.88,52.77L80.4,52.3L81.72,50.52L80.06,49.15L80.05,48.55L80.91,48.1L81.26,47.48L80.57,47.43L80.6,46.69L81.09,46.03L82.22,45.01L82.2,45.31L83.26,45.81L84.09,44.83L84.69,44.68L86.45,42.91L86.92,42.01L87.86,42.63L88.29,42.19L89.03,42.14L89.55,41.43L90.69,41.36ZM51.13,55.29L50.49,54.48L50.43,54L49.79,53.59L49.76,52.87L49.38,52.22L49.44,51.56L51.11,49.84L51.6,49.54L52.42,49.67L53.26,50.15L54.62,49.17L55.43,50.29L56.21,50.16L57.35,50.64L57.42,51.3L58.09,52.1L58.2,52.83L59.29,53.74L59.33,54.29L58.48,55.48L56.07,56.48L55.46,57.51L54.23,56.39L53.98,55.87L52.83,55.67L52.01,54.82ZM80.99,32.14L79.74,31.14L79.28,30.32L79.89,29.67L79.52,28.65L79.02,28.37L78.48,27.57L77.7,27.42L77.77,26.5L78.08,25.95L79.11,25.68L80.32,24.84L81.59,24.98L81.73,24.22L82.93,24.26L83.58,23.99L84.58,22.36L84.87,23.09L85.81,24L86.47,24.12L87.24,23.77L87.54,25.07L85.71,24.98L85.02,25.89L84.05,27.51L84.27,28.23L83.65,29.27L82.63,30.19L82.67,30.59L81.97,31.68L81.77,32.06ZM77.04,40.05L76.92,39.64L77.48,38.85L78.15,38.67L79.11,38.02L80.34,37.35L80.18,37.95L81.65,39.02L82.24,38.93L83.37,39.56L83.51,39.84L82.78,40.82L81.84,41.3L82.01,42.02L81.34,42.71L80.48,42.8L80.51,44.01L79.55,44.67L79.42,43.73L78.73,43.62L78.29,42.41L78.07,42.6L77.25,41.53L77.3,40.52ZM67.83,59.79L67.04,60.33L66.34,61.76L65.73,62.16L64.83,63.35L64.45,64.6L63.86,64.65L62.04,63.91L61.28,63.79L61.11,63.09L62.01,62.54L62.01,61.93L62.42,61.54L62.35,60.64L62.72,59.39L63.1,56.72L63.83,56.84L64.1,56.51L64.65,56.83L65.67,56.88L65.74,58.04L67.35,58.98ZM70.38,39.6L70.84,40.44L71.99,40.96L71.53,41.9L72.37,42.36L73.01,43.49L74.05,42.87L75.09,41.18L77.04,40.05L77.3,40.52L77.25,41.53L78.07,42.6L78.29,42.41L78.73,43.62L79.42,43.73L79.55,44.67L80.51,44.01L81.02,44.68L81.09,46.03L80.6,46.69L79.85,46.39L79.85,47.4L79.45,46.69L79.13,47.09L78.81,46.73L78.12,46.9L77.5,46.26L77.4,47.78L76.92,47.24L76.45,48.18L75.99,48.39L75.53,47.55L74.79,46.88L74.15,47.6L73.84,48.61L72.51,47.56L71.01,46.85L69.93,45.91L68.83,46.56L68.38,45.69L68.33,44.94L67.49,45.14L66.97,45.68L66.68,43.48L67.37,43.17L64.74,41.76L64.77,41.5L64.84,40.86L65.47,40.18L66.82,40.31L68.25,40.72L69,40.6L70.04,39.51ZM43.28,77.83L43.82,78.09L45.15,78.18L45.36,78.84L46.15,78.96L46.81,80.14L46.64,80.93L44.68,82.13L44.07,81.4L43.63,82.8L43.2,83.04L42.58,82.86L41.89,83.06L40.84,84.31L39.73,84.77L39.76,82.64L40.86,83.06L40.69,82.41L41.13,82.2L41.13,81.44L41.69,81.16L42.04,80.44L43.52,78.79ZM64.45,64.6L64.39,66.14L63.65,67.59L62.49,68.77L61.91,69.94L60.99,69.99L59.93,70.95L59.1,72.58L59.66,73.45L58.97,74.37L58.32,72.76L57.7,72.59L57.01,73.12L56.66,72.64L56.78,71.95L56.4,71.49L55.33,72.51L55.2,71.38L55.69,70.88L56.26,70.86L57.28,68.27L57.92,67.95L57.97,67L57.96,66.43L58.52,66.07L58.66,65.49L60.63,64.38L61.28,63.79L62.04,63.91L63.86,64.65ZM41.45,101.1L41.24,101.92L40.39,102.59L40.04,103.53L38.34,105.24L37.21,105.86L35.73,106.28L34.25,106.96L33.78,106.92L33.04,107.74L32.65,107.82L32.48,107.49L32.31,106.82L32.55,105.92L33.3,104.6L34.85,103.37L35.52,102.67L35.79,101.66L36.12,101.37L38.58,100.67L39.31,99.23L40.11,100.51L41.26,100.79ZM101.53,48.88L101.62,48.24L102.6,48.06L102.99,48.58L103.67,48.74L104.68,48.46L104.49,50L105.33,51.59L105.5,52.94L104.97,53.25L105.01,53.85L104.38,54.55L103.03,54.86L102.59,55.28L102.18,54.83L102.26,53.06L101.3,52.34L100.6,52.1L101.11,50.46L101.63,50.14ZM29.46,101.05L29.17,100.06L28.59,99.32L27.67,99.09L27.73,98.79L26.65,98.57L25.89,98.04L25.21,98.16L24.74,97.21L22.68,97.59L22.53,98.24L21.81,98.37L21.13,99.16L20.54,98.81L19.98,99.6L19.47,99.59L18.91,96.08L18.75,95.91L19.31,94.59L19.73,94.14L20.65,94.16L21.05,94.01L22.15,92.16L24.1,90.28L24.91,89.63L26.01,88.13L26.41,88.11L27.02,87.29L27.65,85.38L28.01,85.14L29.17,83.31L29.25,83.78L28.54,86.47L28.33,86.71L28.18,89.08L27.78,91.07L28.14,92.07L28.21,92.95L28.56,93.12L28.86,94L28.64,94.53L30.17,95.06L31.77,95.08L32.06,95.37L31.3,95.51L31.96,96.24L32.04,96.73L31.45,96.74L31.49,97.69L32.47,97.79L32.88,100.09L32.71,100.73L32.49,100.25L31.88,100.06L30.34,100.44ZM76.03,55.37L76.37,56.12L77.67,58.3L76.99,58.95L77.88,59.56L78.64,59.79L76.65,61.67L76.31,62.54L75.8,63.18L73.6,61.47L72.25,61.04L71.8,59.82L70.67,59.18L71.09,58.58L70.96,57.99L71.96,57.51L72.51,58L72.47,59.11L72.85,59.43L73.56,59.24L74.25,58.51L73.78,56.82L75.87,55.72ZM53.09,38.35L52.75,38.13L52.68,37.19L52.2,35.8L51.35,35.59L50.83,36.14L50.34,36.1L50.11,36.57L49.35,36.38L47.7,34.04L46.39,34.79L45.69,34.61L45.59,33.88L45.9,32.92L45.59,32.5L45.65,31.49L45.28,31.35L44.42,30.27L45.2,28.68L45.5,28.36L46.17,28.67L46.36,29.87L47.93,30.45L48.1,30.85L49.18,30.73L49.95,29.52L50.98,30.03L51.21,30.48L51.83,30.41L52.01,29.52L52.47,29.42L54.11,30.1L54,30.77L54.33,31.91L54.89,32.61L55.02,33.88L54.55,34.43L54.27,35.91L54.7,36.58L55.54,37.07L55.04,37.47L54.16,37.17L53.29,37.34ZM110.69,79.24L111.14,78.16L112.01,77.49L112.17,76.54L111.93,75.69L111.55,75.34L111.89,74.7L112,73.79L113.06,72.82L114.05,73.32L116.05,72.62L116.08,72.34L116.8,72.96L117.33,74.73L117.07,75.3L117.61,75.83L118.88,76.26L119.85,75L121.27,75.51L122.08,75.27L122.98,75.51L123.21,76.08L122.63,76.76L122.21,78.17L123.15,79.37L122.01,79.88L121.65,80.84L121.3,82.99L120.68,83.11L119.44,82.51L118.41,82.24L117.52,82.97L116.5,82.19L115.43,81.94L115.31,81.25L113.35,80.91L112.87,80.61L112.12,80.88ZM112.85,70.89L112.15,70.97L111.29,71.97L111.15,72.48L110.03,73.1L110.2,73.51L109.92,74.28L109.06,74.74L108.45,74.48L107.59,75.11L106.32,75.01L105.84,75.82L104.45,76.24L104.09,76.54L101.75,76.7L99.75,75.67L99.47,74.59L98.98,73.55L97.92,72.35L97.71,71.81L97.96,71.27L99,71.19L100.41,71.54L101.12,71.52L100.99,70.03L101.53,68.81L101.53,67.56L102.23,66.58L102.7,66.5L102.72,65.55L104.52,65.21L105.02,64.74L106.19,64.61L107.42,65.27L107.77,64.81L109.24,65.54L110.79,65.48L111.31,66.36L111.49,67.56L112.07,67.65L112.65,68.23L112.58,68.7L113.3,69.25L112.82,70.19ZM76.63,95.47L75.42,95.49L75.41,94.6L74.37,94.22L73.46,94.63L72.42,94.15L71.87,94.35L71.16,93.93L71.15,93.21L69.36,92.51L68.35,92.37L67.67,91.43L66.78,90.57L67.19,90.6L67.64,89.01L67.89,88.75L68.1,87.45L69.7,87.31L71.14,87.96L71.33,88.76L71.93,88.73L72.37,89.16L72.89,90.83L73.91,91.16L74.57,90.78L76.56,91.4L76.07,92.25L76.84,94.19L76.49,94.44ZM79.11,38.02L77.64,36.58L77.79,35.59L78.47,36.01L78.84,35.26L80.27,34.83L80.24,33.21L80.99,32.14L81.77,32.06L81.97,31.68L82.47,31.6L83.04,32L83.62,31.94L85.01,34.09L85.45,33.27L85.57,33.94L86.14,35.1L85.81,35.14L86.03,36.9L84.26,38.16L84.14,39.02L83.37,39.56L82.24,38.93L81.65,39.02L80.18,37.95L80.34,37.35ZM70.7,97.01L69.83,97.66L70.2,98.8L70.22,99.83L70.62,101.34L70.79,102.11L70.13,102.59L69.46,104.19L68.84,104.61L67.8,104.77L67.01,104.67L67.15,105.34L66.33,105.56L65.41,105.4L64.86,105.87L66.2,106.49L66.65,107.36L65.87,107.99L65.44,109.27L64.46,110.1L65,110.69L66.07,111.02L66.22,111.38L65.77,112.14L65.64,112.97L63.68,112.78L62.57,113.16L61.67,113.23L61.6,112.21L61.19,112.11L60.68,111.07L60.8,109.89L60.44,109.72L59.7,108.09L60.8,106.94L61.27,106.19L61.54,105.12L61.95,104.37L62.69,104.86L63.3,104.88L64.26,104.37L64.52,103.76L64.28,102.6L64.59,101.54L65.09,101.9L66.49,100.82L65.94,98.97L66.11,97.77L66.64,97.13L67.71,96.44L68.92,96.2L69.74,96.25ZM35.04,43.97L35.62,43.06L36.03,41.54L36.02,40.26L36.53,39.77L37.6,40.04L38.52,39.53L38.99,40.04L39.3,40.99L39.89,40.89L40.9,41.91L40.09,42.79L39.91,43.86L39.31,44.1L39.58,46.47L39.17,47.86L39.62,48.71L39.36,48.85L38.37,48.58L38.14,47.91L38.55,47L37.75,46.79L36.84,47.87L36.36,47.63L35.94,48.19L34.6,48.39L34.32,48.1L34.81,47.64L34.96,46.65L34.75,46.2L35,45.51ZM46.9,43.59L48.24,43.93L48.9,43.44L49.59,44.12L50.04,45.02L50.07,45.77L51.26,45.85L51.43,46.18L52.25,45.96L53.29,47.06L54.25,47.31L54.66,46.95L54.62,49.17L53.26,50.15L52.42,49.67L51.6,49.54L51.11,49.84L49.44,51.56L49.38,52.22L49.19,52.23L48.08,53.89L46.83,53.76L47.08,53.03L47.07,51.47L46.71,51.09L46.22,51.63L45.74,51.43L45.21,50.61L44.53,50.1L44.98,49.94L45.1,48.86L44.66,47.88L45.18,47.48L45.73,46.42L46,44.77L46.82,44.27ZM34.89,61.12L35.19,61.67L34.69,64.01L33.3,64.13L33.58,64.54L32.92,65.28L32.91,66.11L32.36,67.1L32.45,68.08L32.21,70.4L31.94,71.22L31.67,71.21L31.09,70.41L30.7,68.78L30.17,68.09L30.41,66.56L30.38,65.32L30.78,64.87L31.1,64.78L31.59,63.91L31.53,63.07L32.04,62.34L31.65,61.38L32.48,59.69L33.58,59.56L33.74,61.32ZM60.69,41.24L59.56,41.45L58.59,41.3L58.21,41.58L58.18,42.45L57,42.84L56.54,44.1L56.25,44.21L56.37,43.15L56.09,41.94L56.32,41.66L56.16,40.76L56.19,39.34L55.89,39.11L55.95,37.6L55.54,37.07L54.7,36.58L54.27,35.91L54.55,34.43L55.02,33.88L55.98,33.94L56.55,35.44L57.34,36L57.6,36.68L58.23,36.93L57.93,37.39L58.04,38.12L58.58,38.39L59.05,39.49L60.37,40.35ZM101.62,48.24L100.68,46.73L99.19,46.03L98.95,46.45L97.99,45.72L97.32,45.88L97.16,45.39L95.69,44.18L95.27,44.36L94.7,43.52L94.33,42.49L93.49,41.58L93.65,40.82L93.09,40.65L93.48,40.09L93.01,39.09L94.6,37.54L95.41,37.3L96.04,36.78L96.05,36.04L96.66,35.52L97.42,34.04L97.58,32.34L97.94,33.75L97.35,35.48L98.05,36.25L98.85,36.66L99.54,36.44L100.43,36.98L100.85,36.79L101.18,37.54L101.95,38.27L101.82,38.67L102.29,39.58L102.23,40.56L103.11,41.37L102.52,42.2L102.63,44.14L103.55,44.61L103.3,45.11L103.31,46.18L103.78,46.89L105.37,46.75L105.67,47.15L105.16,47.51L104.68,48.46L103.67,48.74L102.99,48.58L102.6,48.06ZM37.37,60.52L37.18,61.49L35.79,60.59L35.71,61.09L34.89,61.12L33.74,61.32L33.58,59.56L33.67,58.65L33.26,58.04L33.56,56.54L33.31,55.58L32.97,53.24L33.23,52.83L34.18,52.98L34.8,52.81L36.64,52.88L36.78,53.08L38.47,52.96L38.92,53.11L39.51,52.29L40.1,52.69L40.95,52.81L40.4,53.61L40.37,54.19L41.23,54.47L41.23,55.51L41.98,55.88L41.68,57.37L40.97,56.6L40.39,56.89L39.15,58.54L38.73,58.44L38.86,59.14L38.33,60.11ZM35.87,92.54L36.63,91.86L38.1,91.66L38.63,91.61L39.53,90.96L40.77,91.31L40.91,90.62L41.95,89.89L42.78,90.13L43.21,91.44L42.92,92.04L42.42,92.7L41.84,94.12L41.14,94.89L39.72,98.73L39.31,99.23L38.58,100.67L36.12,101.37L36,100.92L34.56,100.79L34.04,100.47L32.71,100.73L32.88,100.09L32.47,97.79L31.49,97.69L31.45,96.74L32.04,96.73L31.96,96.24L31.3,95.51L32.06,95.37L31.77,95.08L31.99,92.77L33.29,92.51L33.02,93.55L33.69,94.39L34.32,93.75L35.04,93.54L34.99,93.14ZM41.28,26.93L41.69,25.27L42.11,24.63L41.71,23.26L40.85,22.23L40.58,21.04L39.92,20.59L39.76,19.65L39.24,19.36L38.69,19.67L37.34,19.26L36.62,19.45L36.19,19.89L35.36,20.11L34.46,19.88L34.22,19.54L33.26,19.35L33.65,18.58L33.47,17.8L33.57,16.73L34.61,15.46L35.03,14.18L35.61,13.4L36,13.51L36.85,13.01L36.66,12.35L37.12,11.62L36.75,10.29L37.44,9.09L37.69,9.32L37.63,8.29L37.92,8.15L38.16,7.09L37.3,6.52L38.08,6.02L38.05,5.69L37.11,5.34L37,4.55L37.29,4.19L38.6,4.34L38.62,4.85L39.9,4.82L40.01,5.29L40.74,5.41L41.23,4.71L42.1,4.82L42.06,4.36L43.22,3.63L43.59,3.82L44.72,2.5L45.94,1.62L46.51,0.95L46.48,0.45L47.25,0L47.32,0.68L48.6,1.51L48.39,2.26L49.44,2.56L49.54,3.13L48.77,3.79L49.15,4.47L49.84,4.96L49.92,5.66L50.51,6.28L49.48,7.74L49.35,8.73L50.09,9.28L51.19,9.64L50.76,10.79L50.65,11.88L50.17,12.05L49.08,12.94L49.24,13.68L48.61,14.66L48.94,14.95L49.79,17.95L50.2,18.35L51.51,18.94L52.39,18.99L53.52,20.02L53.34,21.54L52.6,23.09L52.76,23.82L53.41,24.7L54.23,24.43L54.69,23.74L55.47,23.2L56.32,23.28L57.97,25.84L56.47,27.82L55.66,28.72L55.13,28.78L54.11,30.1L52.47,29.42L52.01,29.52L51.83,30.41L51.21,30.48L50.98,30.03L49.95,29.52L49.18,30.73L48.1,30.85L47.93,30.45L46.36,29.87L46.17,28.67L45.5,28.36L45.2,28.68L44.28,28.15L43.67,28.87L42.44,29.09L42.41,27.67L41.48,27.41ZM42.41,72.17L42.88,71.62L42.56,71.04L43.19,70.7L44.18,71.01L45.67,72.09L46.77,72.61L46.45,73.49L45.57,74.72L45.54,75.16L44.73,75.97L42.93,76.63L42.71,77.03L41.69,77.24L41.01,77.62L40.25,76.89L41.42,76L42.02,75.1L42.52,73.03ZM70.26,59.06L70.08,58.24L69.25,58.29L69.06,59.01L67.83,59.79L67.35,58.98L65.74,58.04L65.67,56.88L64.65,56.83L64.1,56.51L64.18,55.48L64.63,54.51L63.98,53.85L63.68,52.7L64.42,52.5L64.84,51.36L64.78,49.13L65.26,48.7L65.02,47.49L65.5,46.76L66.25,47.21L66.94,46.46L67.73,47.3L67.31,48.02L67.81,47.98L69.26,48.63L69.63,48.96L68.94,49.94L69.64,50.38L69.4,51.36L68.71,52.08L68.67,53.01L68.13,53.79L68.24,54.19L69.09,53.94L71.29,54.14L72.52,54.54L73.47,54.3L73.53,54.76L74.45,54.3L76.03,55.37L75.87,55.72L73.78,56.82L74.25,58.51L73.56,59.24L72.85,59.43L72.47,59.11L72.51,58L71.96,57.51L70.96,57.99L71.09,58.58L70.67,59.18Z" fill="#B3CFC0" stroke="#007139" stroke-width="0.5"/></svg>