<svg xmlns="http://www.w3.org/2000/svg" width="144" height="144" viewBox="0 0 144 144"><path d="M112.97,85.43L105.55,85.51L104.95,84.7L98.74,84.02L95.88,87.74L96.09,88.97L91.56,90.22L89.33,93.59L87.3,93.78L86.98,99.19L82.17,99.38L79.36,98.69L76.58,100.59L75.44,104.9L72.78,107.82L73.91,109.97L78.78,108.44L80.04,109.37L79.02,112.37L81.67,113.36L78.97,114.94L83.9,118L84.85,121.6L87.63,121.73L86.65,125.85L84.96,127.25L78.13,124.08L72.85,119.59L68.75,118.42L67.52,114.86L63.98,110.22L57.5,105.8L57.05,100.79L57.74,99.38L55.99,95.65L51.01,94.16L46.89,90.95L43.99,91.19L41.63,88.09L39.6,87.45L39.69,85.12L34.31,79.31L31.56,74.4L30.64,75.73L26.17,71.57L25.78,70.09L22.35,69.01L21.05,69.91L16.9,67.75L16.37,65.97L13.08,63.45L13.42,60.59L8.72,58.74L7.92,55.11L4.01,47.03L0,43.67L1.45,38.6L7.03,37.1L8.6,35.41L14.78,37.06L19.38,40L19.84,35.52L21.5,31.08L23.78,27.75L28.43,24.11L39.66,20.53L45.98,16.75L49.07,17.84L49.48,24.08L57.09,25.15L68.17,25.27L72.31,24.05L73.09,22.65L78.32,21.1L79.93,21.91L84.21,20.06L85.49,21.99L87.38,20.62L90.62,22.03L99.87,22.87L102.91,19.34L104.98,22.7L112.24,25.55L136.44,25.97L140.11,26.22L143.37,31.43L144,37.09L139.2,35.13L136.77,36.89L131.52,51.43L132.09,54.79L126.45,66.23L123.98,74.29L113.77,85.32Z" fill="#B3CFC0" stroke="#007139" stroke-width="0.5"/></svg>