<svg xmlns="http://www.w3.org/2000/svg" width="144" height="144" viewBox="0 0 144 144"><path d="M36.96,54.15L37.27,53.44L37.77,53.58L38.55,53.39L39.45,52.82L39.72,52.9L39.73,52.34L39.32,51.76L38.69,51.87L39.22,51.41L39.53,51.42L39.3,50.87L40.07,50.11L40.3,49.67L40.15,49.02L40.66,48.61L40.7,47.4L41.49,46.83L41.35,46.39L41.54,45.69L42.01,45.17L42.71,45.15L43.12,44.68L43.69,42.96L43.11,42.76L43.23,41.93L44.03,40.95L45.02,40.58L46.14,40.8L46.42,40.59L47.29,40.57L47.17,40.31L48.56,40.57L49.45,40.53L50.29,40.37L50.9,40.78L50.91,40.26L51.37,40.29L51.56,39.71L51.85,39.61L52.49,40.06L53.12,39.49L53.6,39.33L54.41,39.73L55.21,39.16L55.61,39.56L55.92,38.77L56.27,39.21L56.78,38.5L56.88,39.04L57.67,38.89L57.48,38.38L58.51,38.04L59.1,37.66L59.43,37.81L59.73,37.5L60.05,37.91L60.58,37.75L61.21,38.14L62.33,38.1L62.53,38.36L63.1,38.16L63.09,37.9L64.21,37.91L65,37.22L65.25,37.25L65.6,36.49L66.05,36.19L66.25,35.49L66.66,34.9L66.45,34.48L66.67,33.97L67.09,33.7L66.96,33.32L67.55,32.4L68.47,31.73L69.23,31.81L69.76,31.56L70.35,31.57L70.6,31.13L71.07,31.21L71.3,29.63L71.9,30.81L71.64,31.79L72.64,32.58L72.85,33.07L73.56,33.19L73.53,33.58L72.77,34.24L72.55,34.71L72.12,34.63L72.15,35.16L71.65,35.27L71.41,35.99L71.5,36.88L70.9,37.76L69.39,38.97L69.33,39.52L67.43,41.09L67.41,41.77L66.82,41.95L66.86,42.31L66.28,42.74L66.35,43.19L65.67,43.09L65.39,43.51L64.87,43.72L64.85,44.25L64.49,44.34L63.55,43.77L62.51,44.04L62.86,44.7L62.21,45.13L61.78,46.17L61.91,47.41L61.23,48.61L61.15,49.36L60.91,49.57L60.84,50.37L60.38,50.93L59.58,51.09L59.1,51.48L58.69,52.27L58.01,53L57.57,52.94L57.69,53.58L57.43,54.65L56.92,54.97L57.25,55.26L56.8,55.54L56.56,56.34L56.69,56.81L56.03,56.68L55.77,56.9L55.79,57.95L55.48,58.01L55.48,58.61L55.15,58.38L54.91,58.79L55.02,59.74L54.67,59.55L54.76,60.06L54.18,60.36L54.34,60.75L53.98,60.85L53.99,61.27L53.35,61.19L53.2,61.59L52.84,61.46L53.08,62.06L52.46,61.98L51.87,62.95L51.32,62.96L50.52,64.26L49.91,64.13L49.62,64.54L48.65,64.43L48.19,65.01L48.47,65.86L47.83,66.2L47.67,67.19L46.82,68.75L46.26,69.09L45.68,69.78L45.86,70.66L45.72,71.11L44.88,71.52L44.5,71.88L44.42,72.46L44.14,72.58L41.94,72.49L41.87,71.61L40.96,71.76L40.56,70.69L39.98,70.35L40.24,69.81L40,69.58L40.55,68.94L41.35,68.44L41.7,68.51L43.53,67.48L43.51,67.26L44.24,66.25L44.65,66.06L45.01,65.36L45.03,63.69L45.27,63.5L45.24,62.86L45.48,62.68L45.47,61.61L45.7,61.25L45.61,60.27L45.24,60.23L44.9,60.77L43.64,61.54L43.35,61.47L43.69,60.27L42.26,60.6L41.44,60.6L41.45,60.16L42.79,59.94L43.31,59.71L43.72,59.19L43.83,58.52L43.76,57.38L44.24,55.89L43.54,56.3L42.85,55.56L43.4,54.57L43.77,54.63L44.48,54.16L46.62,53.95L47.4,53.45L49.04,51.79L48.26,51.65L46.77,52.1L46.14,52.06L45.52,52.43L44.69,52.33L43.72,52.7L43.08,52.71L42.69,53.27L41.69,53.78L40.33,53.4L39.62,53.39L38.33,53.68L37.8,54.17ZM52.32,70.39L52.98,70.71L52.92,70.9L53.55,71.68L53.77,73.48L53.69,74.09L54.14,75.64L54.88,76.78L54.88,77.71L55.05,78.44L55.08,79.52L54.66,80.66L54.76,80.99L54.83,82.66L55.19,83.11L54.92,83.89L53.8,84.66L51.49,84.74L50.09,85.08L49.15,85.74L47.91,86.4L46.62,86.13L46.56,85.89L44.57,85.55L43.99,84.82L44.03,84.27L42.46,84.04L42.23,83.38L41.83,83.04L41.84,82.48L41.41,82.46L40.61,82.9L40.32,83.42L39.93,83.42L40.1,83.05L40.65,79.4L40.78,79.28L42.39,78.83L43.82,77.43L45.2,77.17L46.1,76.68L46.2,75.82L45.83,74.63L46.15,74.02L45.71,73.41L45.87,72.68L48.61,70.95L51,70.81L51.4,70.55ZM41.94,72.49L44.14,72.58L44.42,72.46L44.5,71.88L44.88,71.52L45.72,71.11L45.86,70.66L45.68,69.78L46.26,69.09L46.82,68.75L47.67,67.19L47.83,66.2L48.47,65.86L48.19,65.01L48.65,64.43L49.62,64.54L49.91,64.13L50.52,64.26L51.32,62.96L51.87,62.95L52.46,61.98L53.08,62.06L52.84,61.46L53.2,61.59L53.35,61.19L53.99,61.27L53.98,60.85L54.34,60.75L54.18,60.36L54.76,60.06L54.67,59.55L55.02,59.74L54.91,58.79L55.15,58.38L55.48,58.61L55.48,58.01L55.79,57.95L55.77,56.9L56.03,56.68L56.69,56.81L56.56,56.34L56.8,55.54L57.25,55.26L56.92,54.97L57.43,54.65L57.69,53.58L57.57,52.94L58.01,53L58.69,52.27L59.1,51.48L59.58,51.09L60.38,50.93L60.84,50.37L60.91,49.57L61.15,49.36L61.23,48.61L61.91,47.41L61.78,46.17L62.21,45.13L62.86,44.7L62.51,44.04L63.55,43.77L64.49,44.34L64.85,44.25L64.87,43.72L65.39,43.51L65.67,43.09L66.35,43.19L66.28,42.74L66.86,42.31L66.82,41.95L67.41,41.77L67.43,41.09L69.33,39.52L69.39,38.97L70.9,37.76L71.5,36.88L71.41,35.99L71.65,35.27L72.15,35.16L72.12,34.63L72.55,34.71L72.77,34.24L73.53,33.58L73.74,33.75L74.78,33.73L75.01,33.87L77.07,34.04L78.32,34.83L78.73,36L78.7,36.7L78.35,37.63L78.37,38.51L78.09,39.21L77.71,39.54L77.99,39.72L78.67,39.54L78.85,39.87L79.67,40.08L80.28,39.84L81.15,40.78L81.23,41.97L81.84,42.65L82.28,42.65L83.15,43.54L83.12,44.32L83.4,44.89L83.93,45.02L83.66,45.33L84.6,45.42L85.8,46.42L85.92,47.11L86.48,47.67L87.04,47.94L87.31,48.52L87.7,48.61L88.1,49.36L87.9,49.59L88.02,50.25L88.27,49.97L88.58,50.29L88.46,50.79L88.01,51.38L88.6,51.57L88.42,52.2L87.8,53.05L88.09,53.71L88.44,53.81L89.1,54.61L89.4,54.65L89.66,55.18L90.21,55.13L90.66,55.56L89.53,55.81L89.32,56.27L88.26,57.24L87.74,57.93L87.37,58.92L86.27,59.32L85.76,60L86.11,61.92L85.98,63.19L85.65,64.13L84.56,65.31L84.61,66.25L84.41,66.71L83.54,67.16L83.21,67.1L81.87,65.97L81.18,64.99L80.62,64.6L79.85,64.67L79.41,64.94L78.29,64.57L77.9,64.95L77.3,64.95L77.17,65.21L76.53,65.24L76.03,65.58L75.09,65.47L74.6,65.64L73.94,66.79L72.89,66.32L71.88,67.26L69.29,67.37L68.35,66.83L67.93,66.76L66.17,66.88L64.57,67.25L64.12,67.11L63.82,66.55L63.16,66.54L62.3,66.29L61.74,65.92L59.47,66.23L58.77,65.77L57.55,65.58L57.5,65.08L56.78,65.61L56.62,66.29L55.9,67.3L55.99,67.78L54.73,69.13L54.05,69.1L53.83,69.67L52.88,69.77L53.1,70.39L52.32,70.39L51.4,70.55L51,70.81L48.61,70.95L45.87,72.68L45.71,73.41L46.15,74.02L45.83,74.63L46.2,75.82L46.1,76.68L45.2,77.17L43.82,77.43L42.39,78.83L40.78,79.28L40.65,79.4L40.1,83.05L39.93,83.42L38.46,84.85L38.3,85.73L37.99,85.76L37.72,84.71L38.09,83.97L38.15,83.28L38.56,82.71L38.53,82.05L37.77,81.66L37.82,81.11L36.7,79.55L36.03,78.89L35.59,78.79L35.52,78.05L35.73,77.66L35.63,76.7L35.34,75.82L35.27,75.03L36.02,74.34L36.1,73.88L35.62,72.52L36.27,72.5L36.73,73.03L37.24,72.86L38.11,73.15L38.45,72.62L39.31,72.45L39.59,72.86L40.48,72.57L40.97,72.69ZM71.3,29.63L71.07,31.21L70.6,31.13L70.35,31.57L69.76,31.56L69.23,31.81L68.47,31.73L67.55,32.4L66.96,33.32L67.09,33.7L66.67,33.97L66.45,34.48L66.66,34.9L66.25,35.49L66.05,36.19L65.6,36.49L65.25,37.25L65,37.22L64.21,37.91L63.09,37.9L63.1,38.16L62.53,38.36L62.33,38.1L61.21,38.14L60.58,37.75L60.05,37.91L59.73,37.5L59.43,37.81L59.1,37.66L58.51,38.04L57.48,38.38L57.67,38.89L56.88,39.04L56.78,38.5L56.27,39.21L55.92,38.77L55.61,39.56L55.21,39.16L54.41,39.73L53.6,39.33L53.12,39.49L52.49,40.06L51.85,39.61L51.56,39.71L51.37,40.29L50.91,40.26L50.9,40.78L50.29,40.37L49.45,40.53L50.17,39.69L50.83,39.73L51.64,38.99L52.28,39.17L53.43,38.59L53.78,38.14L54.41,38.09L54.38,37.57L52.86,37.48L53.58,37.33L53.82,36.77L52.97,36.84L52.46,36.48L53,35.9L53.13,34.94L53.78,34.35L53.41,33.35L52.59,32.95L51.65,32.91L51.04,31.88L50.48,32.43L50.07,32.21L50.77,31.57L50.72,31.14L51.19,30.93L51.41,31.28L51.66,30.19L52.14,29.92L52.31,30.27L53.07,30.17L53.53,29.38L54.13,29.33L54.1,28.72L54.88,28.37L55.07,28.66L55.42,28.4L55.56,27.54L55.86,27.74L56.76,26.6L57.77,25.76L58.22,25.61L59.17,25.5L59.15,24.81L59.53,24.86L60.86,23.02L61.41,22.94L61.72,22.62L62.68,22.19L63.37,22.07L63.13,21.66L64.15,20.97L64,20.55L64.98,19.27L64.97,18.83L65.62,18.24L66.01,17.39L66.86,16.69L67.03,16.19L67.37,16.26L67.89,15.36L69.12,15.15L69.51,14.25L70.05,14.33L70.72,13.7L71.34,13.46L71.69,13.84L72.22,13.79L72.43,14.24L72.86,13.87L73.79,13.84L74.66,13.36L75.12,13.56L75.82,12.71L76.68,12.67L77.56,11.93L78.83,11.06L78.75,10.7L79.51,10.46L80.28,9.86L80.94,10.17L81.5,10.95L81.75,11.91L81.64,13.3L81.76,13.71L81.25,14.3L80.47,14.51L80.2,15.15L80.21,15.89L79.78,16.58L78.74,17.37L78.48,18.46L77.63,19.25L76.77,20.94L76.47,21.3L75.01,22.33L74.18,23.85L73.9,24.63L72.86,25.38L72.95,26.21L72.57,26.44L72.18,27.28L71.7,27.75L71.73,28.57ZM54.88,76.78L54.14,75.64L53.69,74.09L53.77,73.48L53.55,71.68L52.92,70.9L52.98,70.71L52.32,70.39L53.1,70.39L52.88,69.77L53.83,69.67L54.05,69.1L54.73,69.13L55.99,67.78L55.9,67.3L56.62,66.29L56.78,65.61L57.5,65.08L57.55,65.58L58.77,65.77L59.47,66.23L61.74,65.92L62.3,66.29L63.16,66.54L63.82,66.55L64.12,67.11L64.57,67.25L66.17,66.88L67.93,66.76L68.35,66.83L69.29,67.37L71.88,67.26L72.89,66.32L73.94,66.79L74.6,65.64L75.09,65.47L76.03,65.58L76.53,65.24L77.17,65.21L77.3,64.95L77.9,64.95L78.29,64.57L79.41,64.94L79.85,64.67L80.62,64.6L81.18,64.99L81.87,65.97L83.21,67.1L83.54,67.16L84.41,66.71L84.61,66.25L85.18,66.79L85.4,68.09L84.97,68.79L85.1,69.35L85.42,69.56L85.35,70.35L84.58,72.89L84.55,74.65L83.92,75.3L82.89,76.72L83.38,77.56L83.36,77.99L82.89,79.77L82.25,80.12L81.85,79.8L80.73,79.5L80.16,78.36L79.39,77.37L78.71,77.1L78.18,76.4L77.74,76.11L76.15,76.03L75.33,76.16L74.21,76.06L73.67,75.83L72.85,77.05L72.13,77.6L71.29,78.61L71.04,79.27L70.5,79.95L69.61,80.17L69.19,80.48L68.21,80.25L67.64,80.49L66.46,80.45L65.87,80.58L65.35,80.33L64.44,80.73L63.85,80.52L62.82,80.94L61.44,81.12L60.96,80.65L60.8,80.05L60.46,79.64L60.38,78.88L59.63,78.59L58.34,78.82L57.76,78.58L57.13,79.31L56.55,78.69L56.38,77.68L55.99,77.56ZM80.94,10.17L80.28,9.86L79.51,10.46L78.75,10.7L78.83,11.06L77.56,11.93L76.68,12.67L75.82,12.71L75.12,13.56L74.66,13.36L73.79,13.84L72.86,13.87L72.43,14.24L72.22,13.79L71.69,13.84L71.34,13.46L70.72,13.7L70.05,14.33L69.51,14.25L69.12,15.15L67.89,15.36L67.37,16.26L67.03,16.19L66.86,16.69L66.01,17.39L65.62,18.24L64.97,18.83L64.98,19.27L64,20.55L64.15,20.97L63.13,21.66L63.37,22.07L62.68,22.19L61.72,22.62L61.41,22.94L60.86,23.02L59.53,24.86L59.15,24.81L59.17,25.5L58.22,25.61L58.41,24.43L58.7,23.48L57.98,23.48L56.82,23.72L56.73,23.37L57.23,23.1L57.47,22.4L57.4,21.68L57.04,21.45L56.42,21.95L55.79,21.96L55.6,22.55L55.09,22.85L54.9,23.32L54.14,23.88L53.36,24.23L52.35,24.49L51.84,25.19L50.67,24.82L49.9,24.22L49.8,23.89L48.02,22.95L48.46,22.39L48.44,21.67L49.02,21.29L49.51,20.38L49.89,20.39L50.43,19.62L49.72,17.23L49.74,16.09L49.44,14.86L50.42,14.78L51.26,15.18L53.02,15.46L53.53,15.12L54.36,15.15L54.97,15.43L55.27,15.13L56.66,14.78L56.93,14.33L55.52,1.69L55.91,1.08L56.71,1.16L56.72,0.86L57.8,0.29L57.89,0L58.55,0.33L59.12,0.31L59.79,0.63L60.13,0.41L60.72,1.15L61.43,1.66L62.08,1.48L63.02,2.15L63.63,2.4L63.9,2.88L64.65,3L65.27,3.34L65.55,4.05L66.13,4.4L67,4.51L67.48,4.79L68.2,4.63L68.69,3.64L69.03,3.32L70.24,3.05L70.45,2.66L71.22,3.09L71.6,3.52L72,3.41L72.11,3.99L73.01,3.72L74.44,4.01L74.8,3.74L75.41,3.97L75.95,4.52L76.26,4.35L76.91,4.58L77.58,4.46L78.35,3.44L78.97,3.36L79.35,2.65L79.54,2.93L80.16,2.73L80.44,3.15L81,3.25L81.76,3.89L82.05,3.75L82.33,4.18L83.53,3.61L84.01,3.53L84.64,3.08L86.36,3.57L86.97,4.15L88.06,4.26L88.65,4.53L87.77,4.52L87.31,4.77L87.23,5.27L86.45,5.99L85.56,6.24L84.67,6.95L84.25,6.76L83.18,7.14L82.57,8.34L82.04,8.53L81.94,9.56L81.68,9.95ZM67.8,111.28L67.47,111.71L67.47,112.6L67.97,112.9L68.68,113.03L68.86,114.19L68.29,115.2L68.28,116.11L66.95,116.55L65.99,117.51L65.71,118.88L65.39,119.59L64.3,120.24L63.44,121.06L63.07,121.94L61.13,123.6L61.05,124.05L60.42,125.13L60.45,125.65L60.85,126.32L60.19,126.85L60.12,128.02L60.44,128.44L60.3,128.96L60.48,129.82L59.92,130.63L59.56,130.73L59.33,131.38L58.3,131.33L57.76,131.54L57.25,132.52L56.99,132.39L55.3,132.55L54.47,133.61L54.41,135.14L54.26,135.65L53.41,135.91L52.93,135.64L52.46,135.68L51.61,135.24L51.1,135.5L51.15,136.65L51.39,137.36L51.2,138.05L50.61,138.41L49.79,138.6L49.46,138.97L49.17,138.83L48.1,139.55L47.68,141.06L47.22,141.62L47.27,142.64L46.9,143.54L46.37,143.89L44.7,143.73L43.63,144L42.58,143.73L42,143.8L41.47,143.36L41.33,142.63L40.83,142.59L39.85,141.86L39.7,140.84L39.22,140.84L38.91,141.19L37.52,141.05L37.09,140.48L36.72,140.5L35.8,139.95L34.32,139.91L33.46,139.59L33.17,139.27L32.09,139.08L31.78,138.8L31.38,138.97L30.16,138.57L29.36,138.76L28.24,138.82L27.64,139.04L27.52,138.2L28.21,137.05L28.79,136.3L28.89,135.03L28.15,134.83L27.91,134.15L27,133.35L26.91,132.27L27.21,131.55L27.16,130.77L26.88,129.97L27.22,128.99L26.8,127.67L26.77,127.19L27.17,125.78L27.91,125.3L28.9,122.41L30.28,120.14L30.45,119.21L30.75,118.51L31.23,117.89L31.19,116.9L32,115.68L31.82,115.19L30.79,113.59L30.85,111.24L31.01,110.41L31.32,109.81L32.06,108.97L32.48,107.96L33.01,107.06L33.75,106.24L34.04,105.68L34.51,103.95L35.25,103.03L36.25,102.45L36.62,102L36.73,101.31L37.12,100.86L37.2,100.15L37,99.66L37.42,99.48L37.7,98.43L37.88,97.14L38.52,96.91L38.69,96.05L39.14,95.14L38.73,94.62L38.73,93.99L38.28,93.43L37.47,93.03L37.54,92.29L37.3,92.21L37.46,91.53L37.84,91.51L38.59,91.97L38.64,92.38L39.88,93.09L40.48,93.63L40.85,93.68L40.96,94.23L41.56,94.01L42.05,94.57L42.05,95L42.56,95.53L43.05,95.71L43.57,95.56L44.48,95.63L45.65,96.37L45.94,96.95L46.89,97.03L47.37,97.53L48.38,97.51L48.61,98.34L48.45,99.64L48.11,100.07L47.74,101.51L47.26,101.84L46.54,104.16L46.24,104.56L45.92,105.48L46.36,105.75L47.21,105.95L47.37,106.47L49.2,107.51L49.58,108.16L50.28,108.02L51.08,108.64L51.42,109.34L51.92,109.86L53.61,109.55L54.04,109.67L54.43,109.33L55.64,108.96L55.74,108.52L56.7,107.69L57.66,107.28L58.31,107.41L59.04,106.87L59.62,107.15L61.35,107.67L62.5,107.43L63.27,107.78L64.57,107.96L65.07,107.89L65.27,108.72L65.74,109.57L66.5,109.71L67.16,109.57L67.04,110.67ZM36.96,54.15L37.8,54.17L38.33,53.68L39.62,53.39L40.33,53.4L41.69,53.78L42.69,53.27L43.08,52.71L43.72,52.7L44.69,52.33L45.52,52.43L46.14,52.06L46.77,52.1L48.26,51.65L49.04,51.79L47.4,53.45L46.62,53.95L44.48,54.16L43.77,54.63L43.4,54.57L42.85,55.56L43.54,56.3L44.24,55.89L43.76,57.38L43.83,58.52L43.72,59.19L43.31,59.71L42.79,59.94L41.45,60.16L41.44,60.6L42.26,60.6L43.69,60.27L43.35,61.47L43.64,61.54L44.9,60.77L45.24,60.23L45.61,60.27L45.7,61.25L45.47,61.61L45.48,62.68L45.24,62.86L45.27,63.5L45.03,63.69L45.01,65.36L44.65,66.06L44.24,66.25L43.51,67.26L43.53,67.48L41.7,68.51L41.35,68.44L40.55,68.94L40,69.58L40.24,69.81L39.98,70.35L40.56,70.69L40.96,71.76L41.87,71.61L41.94,72.49L40.97,72.69L40.48,72.57L39.59,72.86L39.31,72.45L38.45,72.62L38.11,73.15L37.24,72.86L36.73,73.03L36.27,72.5L35.62,72.52L35.05,72.4L34.62,72.03L34.09,71.98L33.66,70.69L33.37,70.63L32.07,71.24L31.64,71.08L31.01,70.43L29.97,70.01L29.09,70.74L28.55,71.56L27.39,71.31L26.52,70.54L25.71,70.71L25.4,70.52L25.35,69.98L24.95,69.76L24.33,69.91L24.05,69.54L24.32,68.95L23.84,68.34L23.37,68.31L22.94,68.7L22.09,69.11L21.76,68.98L21.19,69.51L20.68,69.19L20.07,69.14L19.02,69.43L18.44,68.66L17.52,69.22L16.98,68.54L16.54,68.46L16.36,67.92L15.64,68.33L15.22,67.82L15.21,67.26L15.96,67.17L15.49,66.52L15.07,66.36L15.12,65.66L15.73,65.12L15.93,65.76L16.51,65.6L16.86,64.93L16.54,64.18L16.77,62.91L17.19,62.47L17.67,62.5L17.78,61.84L16.81,61.54L17.13,60.96L17.86,61.35L18.24,60.86L18.97,60.86L19.58,60.61L20.03,60.12L20.81,59.94L21.74,59.5L21.69,59.27L20.99,59.45L21.7,58.73L21.63,57.97L22.74,57.65L23.07,58.12L23.41,57.9L23.88,58.09L24.81,59.02L25.96,59.13L25.88,59.4L27.25,59.73L28.31,60.34L28.4,60.1L29.62,60.24L30.24,60.02L30.94,60.23L32.14,59.91L32.1,59.43L33.19,59.51L33.51,58.55L34.19,58.32L33.94,57.53L34.93,57.23L35.13,55.81L35.79,55.54L35.76,55.05L36.24,54.64L36.8,54.58ZM49.45,40.53L48.56,40.57L47.17,40.31L47.29,40.57L46.42,40.59L46.14,40.8L45.02,40.58L44.03,40.95L43.23,41.93L43.11,42.76L43.69,42.96L43.12,44.68L42.71,45.15L42.01,45.17L41.54,45.69L41.35,46.39L41.49,46.83L40.7,47.4L40.66,48.61L40.15,49.02L40.3,49.67L40.07,50.11L39.3,50.87L39.53,51.42L39.22,51.41L38.69,51.87L39.32,51.76L39.73,52.34L39.72,52.9L39.45,52.82L38.55,53.39L37.77,53.58L37.27,53.44L36.96,54.15L36.8,54.58L36.24,54.64L35.76,55.05L35.79,55.54L35.13,55.81L34.93,57.23L33.94,57.53L34.19,58.32L33.51,58.55L33.19,59.51L32.1,59.43L32.14,59.91L30.94,60.23L30.24,60.02L29.62,60.24L28.4,60.1L28.31,60.34L27.25,59.73L25.88,59.4L25.96,59.13L24.81,59.02L23.88,58.09L23.41,57.9L23.07,58.12L22.74,57.65L21.63,57.97L21.7,58.73L20.99,59.45L20,58.98L18.78,58.13L18.75,57.66L19.08,57.15L18.45,56.87L18.27,56.26L18.63,55.92L18.9,56.11L19.24,55.71L20.03,55.65L20.37,53.73L20.18,53.36L19.65,53.49L19.45,53.06L18.89,52.72L18.81,52.25L19.32,52.2L19.29,51.35L19.68,50.74L19.72,49.85L20.12,49.7L20.14,48.85L20.47,47.68L20.25,46.97L20.65,46.52L20.59,45.29L19.96,44.97L20.4,44.07L20.11,43.71L19.08,43.66L18.91,43.27L18.27,43.13L18.66,42.68L18.42,42.08L18.74,40.64L19.09,40.52L19.18,40.07L19.6,39.84L20.36,39.96L20.66,38.74L19.53,38.01L19.2,38.06L19.52,36.99L19.92,36.64L20.85,36.31L20.73,35.83L21.08,35.21L21.61,35.06L21.6,34.29L21.95,33.8L22.07,33L21.39,33.16L21.25,32.52L22.09,32.44L22.19,31.83L22.8,31.49L23.82,31.75L24.49,31.62L25.23,32.36L25.41,32.83L25.89,32.83L25.77,33.32L26.65,33.02L26.76,33.51L27.4,32.41L28.02,32.66L27.87,33.41L28.4,33.12L28.77,33.28L28.75,33.87L29.2,33.3L29.88,33.93L31.15,34.09L31.67,33.82L31.5,33.42L32.62,33.63L32.98,33.26L33.45,33.27L33.69,32.85L34.49,33.08L34.65,33.53L35.59,33.72L36.02,34.14L36.5,34.03L36.41,34.49L37.3,34.32L37.35,34.59L37.99,34.72L38.41,35.13L39.14,35.08L39.35,35.32L39.8,34.94L40.14,35.36L40.41,35.01L41.13,34.97L41.35,34.38L41.51,34.89L42.31,34.71L42.35,35.07L42.91,34.56L42.91,34.17L43.37,34.34L44.22,33.95L45.15,33.72L45.74,33.96L46.36,33.75L46.95,33.9L47.66,33.76L47.96,33.36L48.69,32.88L48.63,32.43L48.92,32.09L48.97,32.56L50.72,31.14L50.77,31.57L50.07,32.21L50.48,32.43L51.04,31.88L51.65,32.91L52.59,32.95L53.41,33.35L53.78,34.35L53.13,34.94L53,35.9L52.46,36.48L52.97,36.84L53.82,36.77L53.58,37.33L52.86,37.48L54.38,37.57L54.41,38.09L53.78,38.14L53.43,38.59L52.28,39.17L51.64,38.99L50.83,39.73L50.17,39.69ZM39.93,83.42L40.32,83.42L40.61,82.9L41.41,82.46L41.84,82.48L41.83,83.04L42.23,83.38L42.46,84.04L44.03,84.27L43.99,84.82L44.57,85.55L46.56,85.89L46.62,86.13L47.91,86.4L49.15,85.74L50.09,85.08L51.49,84.74L53.8,84.66L54.92,83.89L55.19,83.11L54.83,82.66L54.76,80.99L54.66,80.66L55.08,79.52L55.05,78.44L54.88,77.71L54.88,76.78L55.99,77.56L56.38,77.68L56.55,78.69L57.13,79.31L57.76,78.58L58.34,78.82L59.63,78.59L60.38,78.88L60.46,79.64L60.8,80.05L60.96,80.65L61.44,81.12L62.82,80.94L63.85,80.52L64.44,80.73L65.35,80.33L65.87,80.58L66.46,80.45L67.64,80.49L68.21,80.25L69.19,80.48L69.61,80.17L70.5,79.95L71.04,79.27L71.29,78.61L72.13,77.6L72.85,77.05L73.67,75.83L74.21,76.06L75.33,76.16L76.15,76.03L77.74,76.11L78.18,76.4L78.71,77.1L79.39,77.37L80.16,78.36L80.73,79.5L81.85,79.8L82.25,80.12L82.06,82.25L82.31,83.14L81.6,85.34L80.69,86.39L81,86.77L81.84,88.73L81.62,89.15L82.3,89.66L81.4,90.71L81.18,91.54L81.68,92.84L80.69,93.33L80.4,94.26L80.04,94.81L80.03,95.79L79.82,96.43L81.62,97.79L81.5,98.33L81.11,98.88L79.86,99.39L79.37,100.02L78.54,100.03L77.76,100.28L77.21,100.02L76.3,100.9L76.07,102.05L75.83,102.31L75.55,103.4L74.32,103.92L74.16,104.25L73.49,104.34L72.53,105.01L71.42,105.6L71.14,105.96L71.01,107.59L70.55,108.76L70.12,109.45L70.46,110.37L68.9,110.66L67.8,111.28L67.04,110.67L67.16,109.57L66.5,109.71L65.74,109.57L65.27,108.72L65.07,107.89L64.57,107.96L63.27,107.78L62.5,107.43L61.35,107.67L59.62,107.15L59.04,106.87L58.31,107.41L57.66,107.28L56.7,107.69L55.74,108.52L55.64,108.96L54.43,109.33L54.04,109.67L53.61,109.55L51.92,109.86L51.42,109.34L51.08,108.64L50.28,108.02L49.58,108.16L49.2,107.51L47.37,106.47L47.21,105.95L46.36,105.75L45.92,105.48L46.24,104.56L46.54,104.16L47.26,101.84L47.74,101.51L48.11,100.07L48.45,99.64L48.61,98.34L48.38,97.51L47.37,97.53L46.89,97.03L45.94,96.95L45.65,96.37L44.48,95.63L43.57,95.56L43.05,95.71L42.56,95.53L42.05,95L42.05,94.57L41.56,94.01L40.96,94.23L40.85,93.68L40.48,93.63L39.88,93.09L38.64,92.38L38.59,91.97L37.84,91.51L37.46,91.53L36.95,91.02L37,90.42L37.41,89.91L37.08,89.04L37.67,87.48L38,87.15L38.23,86.32L37.99,85.76L38.3,85.73L38.46,84.85ZM58.22,25.61L57.77,25.76L56.76,26.6L55.86,27.74L55.56,27.54L55.42,28.4L55.07,28.66L54.88,28.37L54.1,28.72L54.13,29.33L53.53,29.38L53.07,30.17L52.31,30.27L52.14,29.92L51.66,30.19L51.41,31.28L51.19,30.93L50.72,31.14L48.97,32.56L48.92,32.09L48.63,32.43L48.69,32.88L47.96,33.36L47.66,33.76L46.95,33.9L46.36,33.75L45.74,33.96L45.15,33.72L44.22,33.95L43.37,34.34L42.91,34.17L42.91,34.56L42.35,35.07L42.31,34.71L41.51,34.89L41.35,34.38L41.13,34.97L40.41,35.01L40.14,35.36L39.8,34.94L39.35,35.32L39.14,35.08L38.41,35.13L37.99,34.72L37.35,34.59L37.3,34.32L36.41,34.49L36.5,34.03L36.02,34.14L35.59,33.72L34.65,33.53L34.49,33.08L33.69,32.85L33.45,33.27L32.98,33.26L32.62,33.63L31.5,33.42L31.67,33.82L31.15,34.09L29.88,33.93L29.2,33.3L28.75,33.87L28.77,33.28L28.4,33.12L27.87,33.41L28.02,32.66L27.4,32.41L26.76,33.51L26.65,33.02L25.77,33.32L25.89,32.83L25.41,32.83L25.23,32.36L24.49,31.62L23.82,31.75L22.8,31.49L22.19,31.83L22.09,32.44L21.25,32.52L20.82,32.44L20.2,31.63L20.52,30.13L21.51,29.13L22.59,28.68L23.02,28.24L22.7,27.69L22.83,27.07L22.65,26.57L22.16,26.3L22.01,25.86L21.46,25.24L21.48,24.54L22.01,23.69L22.96,23.55L23.57,23.06L23.95,22.4L24.82,21.58L24.93,20.74L25.55,20.32L25.36,19.28L25.71,18.49L26.23,18.01L27.05,17.72L27.43,17.32L28.16,17.25L28.67,16.21L29.26,15.8L29.66,15.09L29.74,14.55L30.05,14.3L30.56,12.97L31.26,12.82L31.9,13.41L32.37,13.31L33.24,13.94L34.13,13.95L34.61,14.5L34.88,14.2L35.98,13.82L36.81,13.75L37.27,14.04L37.39,13.79L37.95,13.86L38.67,13.68L39.91,13.97L40.24,14.43L40.3,15.33L41.12,14.92L42.6,14.91L43.37,15.4L44.6,15.13L44.71,15.52L45.08,15.31L45.68,15.75L47.75,15.27L48.26,15.3L49.44,14.86L49.74,16.09L49.72,17.23L50.43,19.62L49.89,20.39L49.51,20.38L49.02,21.29L48.44,21.67L48.46,22.39L48.02,22.95L49.8,23.89L49.9,24.22L50.67,24.82L51.84,25.19L52.35,24.49L53.36,24.23L54.14,23.88L54.9,23.32L55.09,22.85L55.6,22.55L55.79,21.96L56.42,21.95L57.04,21.45L57.4,21.68L57.47,22.4L57.23,23.1L56.73,23.37L56.82,23.72L57.98,23.48L58.7,23.48L58.41,24.43ZM73.53,33.58L73.56,33.19L72.85,33.07L72.64,32.58L71.64,31.79L71.9,30.81L71.3,29.63L71.73,28.57L71.7,27.75L72.18,27.28L72.57,26.44L72.95,26.21L72.86,25.38L73.9,24.63L74.18,23.85L75.01,22.33L76.47,21.3L76.77,20.94L77.63,19.25L78.48,18.46L78.74,17.37L79.78,16.58L80.21,15.89L80.2,15.15L80.47,14.51L81.25,14.3L81.76,13.71L81.64,13.3L81.75,11.91L81.5,10.95L80.94,10.17L81.68,9.95L81.94,9.56L82.04,8.53L82.57,8.34L83.18,7.14L84.25,6.76L84.67,6.95L85.56,6.24L86.45,5.99L87.23,5.27L87.31,4.77L87.77,4.52L88.65,4.53L89.42,4.88L90.91,4.14L91.38,4.47L91.9,4.29L92.25,4.51L92.93,4.49L94.38,5.39L94.81,5.31L95.78,5.96L96.48,6.01L97.09,6.33L98.19,5.88L98.93,6.31L99.61,6.16L100.04,6.44L99.86,6.85L100.03,7.39L100.77,7.66L101.23,7.51L101.78,8.08L102.65,9.33L102.73,10.06L103.49,10.69L104.06,11.73L104.73,12.2L105.71,12.15L106.44,12.28L106.75,12.67L107.57,12.98L108,12.19L108.82,11.96L109.15,11.02L110.22,10.1L110.86,9.36L112.09,9.49L113.1,9.1L114.3,9.43L115.41,9.22L116.29,8.78L116.7,6.83L116.61,5.81L117.71,5.49L118.99,5.67L120.07,6.17L120.63,5.58L121.89,5.34L122.67,4.89L123.44,3.55L123.48,2.97L124.2,2.41L124.65,2.63L126.1,1.34L126.66,1.23L127.72,1.32L128.45,2.46L128.88,2.9L128.68,3.53L128.93,3.92L128.06,4.85L127.28,5.44L126.92,5.5L125.99,6.09L125.55,6.67L125.02,6.9L124.83,7.58L123.93,8.58L123.49,9.6L123.11,9.81L121.67,11.25L121.45,11.83L121.48,12.55L120.43,13.99L120.21,15.23L120.32,15.97L120.19,16.83L120.33,17.37L120.95,17.77L121.66,19.46L121.46,20.25L121.72,20.9L121.77,22.07L121.02,23.29L120.55,24.64L118.98,25.24L118.03,26.82L117.24,26.4L116.09,26.52L114.39,26.39L113.32,26.68L112.28,26.59L111.97,26.82L111.13,26.97L109.91,27.43L109.19,29.68L108.19,30.64L106.45,31.06L106.33,31.65L105.82,32.16L105.18,33.81L104.34,34.38L103.59,34.62L102.62,35.59L101.68,36.25L101.12,36.18L100.88,36.46L99.65,36.96L98.9,38.59L98.8,39.07L97.8,39.43L97.53,39.79L97.58,40.55L97.98,41.84L97.89,42.17L98.1,43.28L97.5,43.88L97.53,44.61L96.88,45.84L96.84,46.26L97.2,46.64L97.6,48.91L97.52,49.82L96.22,50.27L95.08,50.54L94.55,51.47L93.38,52.59L92.96,53.67L92.29,54.45L91.3,55.31L90.66,55.56L90.21,55.13L89.66,55.18L89.4,54.65L89.1,54.61L88.44,53.81L88.09,53.71L87.8,53.05L88.42,52.2L88.6,51.57L88.01,51.38L88.46,50.79L88.58,50.29L88.27,49.97L88.02,50.25L87.9,49.59L88.1,49.36L87.7,48.61L87.31,48.52L87.04,47.94L86.48,47.67L85.92,47.11L85.8,46.42L84.6,45.42L83.66,45.33L83.93,45.02L83.4,44.89L83.12,44.32L83.15,43.54L82.28,42.65L81.84,42.65L81.23,41.97L81.15,40.78L80.28,39.84L79.67,40.08L78.85,39.87L78.67,39.54L77.99,39.72L77.71,39.54L78.09,39.21L78.37,38.51L78.35,37.63L78.7,36.7L78.73,36L78.32,34.83L77.07,34.04L75.01,33.87L74.78,33.73L73.74,33.75Z" fill="#B3CFC0" stroke="#007139" stroke-width="0.5"/></svg>