<svg xmlns="http://www.w3.org/2000/svg" width="144" height="144" viewBox="0 0 144 144"><path d="M58.03,18.24L63.17,19.03L67.27,24.16L72.9,24.12L75.62,30.42L71.54,36.71L72.61,40.27L82.46,44.14L88.37,55.16L82.53,60.25L81.38,63.79L84.03,71.47L89.52,77.11L89.84,80.53L85.51,82.53L91.1,85.35L96.14,83.55L100.15,85.02L111.11,77.01L115.1,77.49L114.63,87.01L132.4,84.62L136.21,89.15L138.2,95.52L142.51,99.69L142.35,105.84L135.71,108.25L136.6,116.36L144,124.94L142.16,129.71L134.78,130.09L129.84,126.66L125.08,127.26L109.11,118.68L102.52,109.33L93.73,107.88L77.03,110.28L74.2,114.22L72.19,111.21L78.31,104.99L78.31,93.62L80.81,85.95L71.39,89.62L65.05,87.72L60.93,90.24L61.92,84.19L51.58,88.25L50.04,92.66L43.94,93.2L33.28,83.66L26.91,81.55L21.39,76.78L21.64,71.85L14.73,67.24L12,69.9L3.66,66.33L0,59.81L16.11,51.57L21.28,41.6L28.94,41.48L28.28,32.31L10.23,32.42L11.57,24.8L17.17,18.8L29.06,18.3L35.08,21.27L39.99,21.26L44.59,17.49L50.68,18.37L55.89,13.91Z" fill="#B3CFC0" stroke="#007139" stroke-width="0.5"/></svg>