<svg xmlns="http://www.w3.org/2000/svg" width="144" height="144" viewBox="0 0 144 144"><path d="M57.4,72.16L58.31,73.79L58.32,74.66L59.36,76.63L59.3,78.25L59.57,79.33L59.26,79.89L59.81,81.67L59.93,83.05L59.04,83.58L59.22,84.38L58.88,84.75L57.64,84.34L57.4,84.65L57.41,85.81L57.72,86.24L57.36,87.37L56.69,87.11L56.27,87.48L54.93,87.19L53.55,87.58L52.64,88.26L51.54,88.3L50.13,88.95L49.45,89.04L48.32,90.14L47.57,90.57L45.6,91.23L45,91.29L44.86,92.4L44.01,92.8L43.56,93.71L42.47,94.85L42.33,94.97L41.85,95.04L41.36,95.78L40.21,95.09L38.87,95.29L38.31,95.06L37.57,95.42L36.47,96.39L36.01,96.06L34.83,96.43L33.79,97.37L33.25,97.33L32.71,98.44L30.99,97.6L30.18,98.49L29.52,98.74L28.63,99.65L26.63,100.07L26.34,100.67L25.59,100.52L22.79,100.84L21.91,100.27L21.1,100.42L20.71,101.09L20.07,100.99L18.03,101.96L17.48,101.49L16.13,101.74L15.75,101.61L15.67,101.3L16.95,100.07L17.17,98.7L18.83,98.36L19.5,97.36L19.71,96.11L19.01,95.24L19.27,94.41L20.14,93.9L20.25,93.45L22.52,92.47L22.75,92.06L24.06,91.31L25.25,89.7L25.6,88.92L25.67,87.8L27.23,87.49L27.47,86.82L28.24,85.98L28.08,85.46L28.47,84.75L28.29,83.72L28.68,83.27L28.94,82.19L27.58,80.73L26.69,79.97L26.63,79.44L25.45,78.64L25.29,77.83L26.48,76.96L26.85,75.76L28.58,74.59L29.45,73.36L31.01,72.94L32.22,72.28L34.18,70.29L34.79,69.53L36.15,68.33L37.98,67.3L39.5,66.81L40.48,66.08L42.55,64.97L43.69,64.57L44.3,65.29L44.06,65.55L44.41,66.4L45.13,66.64L45.68,67.44L46.62,67.17L47.12,67.46L47.98,67.4L48.55,67.83L49.56,67.68L49.65,68.77L50.58,68.48L51.19,69.29L53.44,69.14L53.94,69.98L54.62,70.4L54.45,70.99L55.07,71.47L56.92,71.63ZM57.36,87.37L57.72,86.24L57.41,85.81L57.4,84.65L57.64,84.34L58.88,84.75L59.22,84.38L59.04,83.58L59.93,83.05L59.81,81.67L59.26,79.89L59.57,79.33L59.3,78.25L60.02,78.53L60.8,77.16L61.39,77.48L61.72,76.23L61.25,76.24L62.03,75.46L61.99,75.02L60.84,74.75L61.6,73.85L63.46,74.06L64.44,73.29L64.63,75.05L65.08,75.48L65.45,76.77L66.42,77.37L66.37,78.32L67.27,79.2L68.44,79.47L69.17,80.47L69.7,82.92L70.51,83.56L70.88,86.02L71.13,86.77L70.96,87.32L69.28,87.53L69.31,88.09L67.17,87.92L66.47,88.02L65.76,88.59L65.98,88.04L65.12,87.46L64.14,87.62L64.89,88.63L65.73,88.99L66.63,88.86L68.06,90.14L66.6,91.11L65.96,92.13L65.15,91.25L63.69,91.29L62.32,90.42L61.41,90.65L60.22,89.95L60.6,88.55L59.98,89.15L59.08,89.32L59.15,89.69L58.44,90.05L57.97,89.77L57.87,88.9L56.85,88.14ZM42.47,94.85L43.56,93.71L44.01,92.8L44.86,92.4L45,91.29L45.6,91.23L45.97,92.18L48.14,93.31L49.66,93.81L50.23,94.49L51.69,95.25L52.55,95.03L52.96,95.47L54.17,94.77L54.11,94.09L55.19,92.89L54.84,92.51L55.4,92.17L57.97,89.77L58.44,90.05L58.77,90.27L59.24,89.83L59.2,89.51L60.14,89.11L60.11,90.08L61.38,90.8L62.28,90.63L63.59,91.43L65.04,91.41L65.73,92.25L66.16,92.23L66.78,93.39L65.31,94.84L65.24,95.5L64.26,96.13L64.65,96.62L63.76,97.53L63.64,98.25L62.73,100.2L61.22,101.94L59.78,102.81L59.33,103.54L59.04,103.31L57.96,103.41L57.3,103.85L57.28,104.48L56.53,106.07L56.61,106.45L55.8,107.19L54.45,105.65L53.27,104.55L51.98,104.41L51.32,103.95L49.77,103.87L48.97,102.83L49.09,102.35L48.26,101.05L46.7,100.6L46.57,99.81L46.07,99.1L45.76,98.07L44.11,96.64ZM25.29,77.83L25.45,78.64L26.63,79.44L26.69,79.97L27.58,80.73L28.94,82.19L28.68,83.27L28.29,83.72L28.47,84.75L28.08,85.46L28.24,85.98L27.47,86.82L27.23,87.49L25.67,87.8L25.6,88.92L25.25,89.7L24.06,91.31L22.75,92.06L22.52,92.47L20.25,93.45L20.14,93.9L19.27,94.41L19.01,95.24L19.71,96.11L19.5,97.36L18.83,98.36L17.17,98.7L16.95,100.07L15.67,101.3L15.75,101.61L14.54,102.77L14.06,102.77L12.86,103.96L11.54,104.21L11.17,104.48L10.47,104.44L9.62,105L9.27,104.89L8.16,105.56L5.62,105.64L3.74,106.23L3.01,104.73L2.8,103.57L1.77,102.52L1.41,100.6L1.56,99.9L0.92,98.34L0.18,97.9L0,97.4L0.38,96.49L0.92,95.9L0.65,95.17L1.6,94.22L0.84,93.29L1.35,92.72L0.98,92.49L0.92,91.24L1.55,90.54L1.22,89.7L0.88,89.71L0.65,88.9L1.16,88.49L2.11,88.66L2.72,87.95L3.19,86.86L4.63,85.77L4.68,84.36L5.46,83.44L5.53,81.94L7.5,82.36L10.32,81.67L12.43,81.99L13.96,81.7L17.06,81.73L18.43,81.3L20.52,80.88L21.97,80.34L23.27,79.37L23.31,79.09ZM36.47,96.39L37.57,95.42L38.31,95.06L38.87,95.29L40.21,95.09L41.36,95.78L41.85,95.04L42.33,94.97L41.96,96.17L41.86,97.33L42.32,98.47L41.95,99.64L42.94,100.17L43.34,100.93L44.36,101.86L44.19,103.24L44.33,104.98L44.73,105.06L44.69,106.06L43.57,106.54L43.33,107.08L44.23,108.63L43.23,108.86L42.94,108.32L41.89,107.27L40.7,106.88L40.71,106.07L40.32,105.45L40.32,104.74L40.84,103.87L39.62,102.86L38.72,102.89L37.38,103.56L37.7,102.35L36.4,101.96L36.63,101.59L36.53,100.6L37.58,99.5L37.07,97.79L36.47,97.28ZM49.86,119.07L49.39,119.55L49.21,120.44L47.69,121.5L47.44,122.54L46.41,123.28L45.64,122.84L45.57,122.28L44.56,121.87L43.68,120.61L42.28,119.53L40.95,119.16L40.09,118.62L39.98,117.75L39.37,117.06L38.21,116.4L38.26,115.8L36.77,115.87L38.09,113.81L39,113.1L40.45,113.38L41.47,114.04L43.59,114.64L43.86,114.88L44.96,114.69L45.29,115.27L47.59,115.1L47.97,116.01L48.72,117ZM42.33,94.97L42.47,94.85L44.11,96.64L45.76,98.07L46.07,99.1L46.57,99.81L46.7,100.6L48.26,101.05L49.09,102.35L48.97,102.83L49.77,103.87L51.32,103.95L51.98,104.41L53.27,104.55L54.45,105.65L55.8,107.19L55.78,108.06L55.44,108.62L55.67,109.21L55.44,110.25L55.06,110.76L54.16,110.69L53.8,111.06L53.35,112.9L53.52,113.75L52.8,114.21L52.23,115.75L52.17,116.8L51.73,116.78L51.46,116.47L50.87,114.81L50.45,114.1L49.29,113.45L48.5,113.47L48.05,113.93L47.39,113.32L47,110.05L46.61,109.62L46.42,110.2L44.56,110.02L43.73,109.64L43.23,108.86L44.23,108.63L43.33,107.08L43.57,106.54L44.69,106.06L44.73,105.06L44.33,104.98L44.19,103.24L44.36,101.86L43.34,100.93L42.94,100.17L41.95,99.64L42.32,98.47L41.86,97.33L41.96,96.17ZM58.44,90.05L59.15,89.69L59.08,89.32L59.98,89.15L60.6,88.55L60.22,89.95L61.41,90.65L62.32,90.42L63.69,91.29L65.15,91.25L65.96,92.13L66.16,92.23L65.73,92.25L65.04,91.41L63.59,91.43L62.28,90.63L61.38,90.8L60.11,90.08L60.14,89.11L59.2,89.51L59.24,89.83L58.77,90.27ZM45.6,91.23L47.57,90.57L48.32,90.14L49.45,89.04L50.13,88.95L51.54,88.3L52.64,88.26L53.55,87.58L54.93,87.19L56.27,87.48L56.69,87.11L57.36,87.37L56.85,88.14L57.87,88.9L57.97,89.77L55.4,92.17L54.84,92.51L55.19,92.89L54.11,94.09L54.17,94.77L52.96,95.47L52.55,95.03L51.69,95.25L50.23,94.49L49.66,93.81L48.14,93.31L45.97,92.18ZM43.91,128.21L43.11,129.29L42.15,129.3L40.74,129.73L39.91,130.51L39.05,130.73L38.27,131.24L36.9,130.99L36.15,130.61L35.39,131.05L33.5,129.88L32.56,129.83L30.94,130.76L30.33,131.31L29.29,131.25L29.49,129.15L28.81,128.26L28,127.71L27.35,127.84L27.63,126.63L28.34,126.13L28.82,126.37L29.89,125.67L31.27,125.81L32.65,123.5L33.43,123.89L33.42,124.54L35.99,124.54L35.98,130.26L38.55,130.26L38.56,129.74L39.59,129.75L39.59,129.23L41.14,129.24L41.14,128.72L42.17,128.72L42.17,128.2ZM59.3,78.25L59.36,76.63L58.32,74.66L58.31,73.79L57.4,72.16L58.42,72.42L59.15,71.98L59.8,70.4L63.66,71.29L63.94,70.68L66.3,70.71L66.92,69.9L71.47,67.96L72.4,66.57L79.14,66.54L79.2,66.49L80.75,66.49L80.88,66.69L84.71,66.28L85.45,65.91L85.94,66.32L86.91,66.15L91.74,58.21L92.85,56.94L94.32,56.84L94.66,57.82L95.31,58.29L95.11,60.5L91.96,66.37L85.83,77.71L80.09,88.46L79.85,88.77L78.59,88.85L77.25,88.49L75.42,88.51L74.24,88.1L73.64,88.62L70.93,89.54L70.06,89.57L69.16,90.15L68.92,89.47L68.06,90.14L66.63,88.86L65.73,88.99L64.89,88.63L64.14,87.62L65.12,87.46L65.98,88.04L65.76,88.59L66.47,88.02L67.17,87.92L69.31,88.09L69.28,87.53L70.96,87.32L71.13,86.77L70.88,86.02L70.51,83.56L69.7,82.92L69.17,80.47L68.44,79.47L67.27,79.2L66.37,78.32L66.42,77.37L65.45,76.77L65.08,75.48L64.63,75.05L64.44,73.29L63.46,74.06L61.6,73.85L60.84,74.75L61.99,75.02L62.03,75.46L61.25,76.24L61.72,76.23L61.39,77.48L60.8,77.16L60.02,78.53ZM57.4,72.16L56.92,71.63L55.07,71.47L54.45,70.99L54.62,70.4L53.94,69.98L53.44,69.14L51.19,69.29L50.58,68.48L49.65,68.77L49.56,67.68L48.55,67.83L47.98,67.4L47.12,67.46L46.62,67.17L45.68,67.44L45.13,66.64L44.41,66.4L44.06,65.55L44.3,65.29L43.69,64.57L44.33,64.18L44.86,63.14L46.19,61.76L47.31,60.23L48.56,59.56L50.08,58.01L52.84,56.78L53.15,56.51L54.73,56.33L56.63,55.53L58.7,55.3L60.33,53.9L61.02,53.78L61.79,54.04L62.45,53.84L63.92,52.52L64.9,52.08L68.11,52.03L69.14,51.58L70.69,51.19L72.46,49.7L73.91,49.13L74.47,50.08L74.64,50.97L75,51.34L75.27,52.35L74.38,53.08L74.53,53.65L73.94,55.24L73.6,55.09L73,56.63L73.4,58.24L72.91,58.24L72.5,59.11L72.6,60.28L73.5,61.33L74.74,61.66L75.37,62.16L75.89,63.08L75.91,64.91L77.27,65.06L78.89,66.42L79.2,66.49L79.14,66.54L72.4,66.57L71.47,67.96L66.92,69.9L66.3,70.71L63.94,70.68L63.66,71.29L59.8,70.4L59.15,71.98L58.42,72.42ZM15.75,101.61L16.13,101.74L17.48,101.49L18.03,101.96L20.07,100.99L20.71,101.09L21.1,100.42L21.91,100.27L22.79,100.84L25.59,100.52L26.34,100.67L26.63,100.07L28.63,99.65L29.52,98.74L30.18,98.49L30.99,97.6L32.71,98.44L33.25,97.33L33.79,97.37L34.83,96.43L36.01,96.06L36.47,96.39L36.47,97.28L37.07,97.79L37.58,99.5L36.53,100.6L36.63,101.59L36.4,101.96L37.7,102.35L37.38,103.56L38.72,102.89L39.62,102.86L40.84,103.87L40.32,104.74L40.32,105.45L40.71,106.07L40.7,106.88L41.89,107.27L42.94,108.32L43.23,108.86L43.73,109.64L44.56,110.02L46.42,110.2L46.61,109.62L47,110.05L47.39,113.32L48.05,113.93L48.5,113.47L49.29,113.45L50.45,114.1L50.87,114.81L51.46,116.47L51.73,116.78L51.53,117.92L49.86,119.07L48.72,117L47.97,116.01L47.59,115.1L45.29,115.27L44.96,114.69L43.86,114.88L43.59,114.64L41.47,114.04L40.45,113.38L39,113.1L38.09,113.81L36.77,115.87L35.54,116.23L35.28,116.68L33.84,117.32L32.87,118.17L32.08,116.37L31.47,115.33L29.67,114.82L28.76,114.02L28.38,113.13L27.69,113.37L25.8,113.61L25.38,112.29L24.68,112.25L24.14,111.72L23.51,112.23L22.6,112.2L21.84,112.53L22,111.66L23.28,109.98L22.89,109.16L23.33,108.05L23.1,106.74L22.62,106.55L22.6,105.84L21.89,105.57L21.71,105.02L21.11,104.74L19.88,105.65L19.19,104.98L18.09,104.83L15.83,104.84L15.35,104.42L12.55,104.55L11.17,104.48L11.54,104.21L12.86,103.96L14.06,102.77L14.54,102.77ZM95.11,60.5L95.31,58.29L94.66,57.82L94.32,56.84L92.85,56.94L91.74,58.21L86.91,66.15L85.94,66.32L85.45,65.91L84.71,66.28L80.88,66.69L80.75,66.49L79.2,66.49L78.89,66.42L77.27,65.06L75.91,64.91L75.89,63.08L75.37,62.16L74.74,61.66L73.5,61.33L72.6,60.28L72.5,59.11L72.91,58.24L73.4,58.24L73,56.63L73.6,55.09L73.94,55.24L74.53,53.65L74.38,53.08L75.27,52.35L75,51.34L74.64,50.97L74.47,50.08L73.91,49.13L74.84,48.52L77.37,47.36L78.78,46.22L80.08,45.47L79.82,46.21L80.98,45.68L80.03,45.43L81.27,44.21L82.21,42.3L82.7,40.52L83.51,39.45L83.89,38.1L84.71,36.65L86.12,33.18L85.83,30.64L85.86,29.15L85.38,27.39L83.76,27.25L83.86,26.71L84.63,26.18L85.82,25.72L85.84,25.43L87.6,25.7L89.22,25.77L90.95,25.53L92.21,25.19L93.34,25.21L95.58,24.4L96.36,24.7L95.67,26.52L94.59,27.09L93.9,28.47L94.94,28.77L95.14,29.28L94.74,30.34L95.15,30.56L96.19,28.86L96.03,30.59L96.77,30.26L98.08,30.34L98.52,29.66L98.37,28.78L99.55,28.27L99.78,27.95L101.2,28.24L101.76,26.7L100.73,25.6L101.27,24.93L100.14,24.67L100.35,23.72L99.6,23.19L97.67,23.44L97.16,24L96.5,23.42L97.25,23L98.01,22.04L99.55,21.08L101.99,18.56L102.93,18.93L103.79,18.28L103.96,17.74L104.85,18.08L103.75,18.79L103,19.65L103.52,20.76L104.03,21.27L105.29,21.45L105.59,20.25L107.25,20.2L108.43,19.28L108.75,17.83L108.37,17.38L107.41,17.21L108.59,16.74L109.19,16.14L109.27,15.58L109.8,15.39L110.19,16.48L109.43,16.87L109.65,17.65L110.25,17.91L110.72,17.47L111.34,18.14L111.7,17.7L110.87,17.19L111.45,16.79L112.31,16.75L113.75,15.75L114.46,15.98L114.91,15.37L113.3,15.46L113.21,15.81L112.21,15.86L112.86,15.07L113.6,14.76L113.58,14.2L112.91,14.3L110.87,15.11L110.88,14.76L111.82,13.94L111.66,13.66L110.94,14.06L110.5,14.86L109.13,15.62L108.87,15.55L109.18,14.54L109.77,13.97L111.45,13.39L111.73,13.05L112.9,12.69L114.01,13.04L115.16,13.8L117.84,14.05L117.91,13.65L118.96,14.11L119.75,13.79L120.7,13.97L121.57,14.48L123.42,15.09L124.59,15.86L125.37,17L129.25,17.54L130.48,17.96L132.21,19.15L132.77,18.62L134.44,19.4L136.51,21L137.82,22.39L137.69,23.48L139.54,26.94L141.18,29.82L143.9,34.31L143.79,35.29L144,36.3L143.83,37.21L142.7,39.06L140.51,39.83L140.25,40.32L139.62,40.3L137.46,41.94L137.1,41.96L135.35,43.74L135.26,44.18L134.44,44.63L134.08,44.12L133.33,43.9L132.83,43.32L132.8,44.11L131.93,43.77L131.97,44.9L132.58,44.84L133.39,44.05L134.01,44.18L133.38,45.06L132.14,47.55L132.1,48.82L131.56,47.85L131.02,47.97L130.9,48.6L128.46,49.14L128.45,49.73L129.03,50.05L124.58,51.53L115.9,53.85L113.83,54.64L105.11,57.67L102.9,58.01L97.83,59.23L95.57,59.61ZM43.91,128.21L42.17,128.2L42.17,128.72L41.14,128.72L41.14,129.24L39.59,129.23L39.59,129.75L38.56,129.74L38.55,130.26L35.98,130.26L35.99,124.54L33.42,124.54L33.43,123.89L32.65,123.5L31.27,125.81L29.89,125.67L28.82,126.37L28.34,126.13L29.33,125.57L29.09,125.06L29.64,124.73L30.04,123.69L30.34,124.05L31.11,123.21L31.55,123.21L31.93,122.52L33.2,122.46L34.52,121.86L36.17,121.97L36.88,121.35L37.31,122.52L38.82,122.97L39.92,123.52L40.1,123.97L41.3,124.5L42.43,124.63L42.44,125.11L43.85,125.28L44.83,124.68L46.36,125.07L46.29,126.32L45.78,126.63L44.99,127.83ZM36.77,115.87L38.26,115.8L38.21,116.4L39.37,117.06L39.98,117.75L40.09,118.62L40.95,119.16L42.28,119.53L43.68,120.61L44.56,121.87L45.57,122.28L45.64,122.84L46.41,123.28L46.86,124.46L46.36,125.07L44.83,124.68L43.85,125.28L42.44,125.11L42.43,124.63L41.3,124.5L40.1,123.97L39.92,123.52L38.82,122.97L37.31,122.52L36.88,121.35L36.17,121.97L34.52,121.86L33.2,122.46L31.93,122.52L31.88,121.08L32.64,120.51L32.48,119.31L32.87,118.17L33.84,117.32L35.28,116.68L35.54,116.23Z" fill="#B3CFC0" stroke="#007139" stroke-width="0.5"/></svg>