<svg xmlns="http://www.w3.org/2000/svg" width="144" height="144" viewBox="0 0 144 144"><path d="M140.77,71.53L144,79.71L138.88,86.93L124.82,89.93L121.52,94.82L109.56,99.5L98.2,107.96L97.08,121.35L91.39,131.85L83.95,131.68L71.68,126.23L65.97,128.23L59,123.38L61.3,118.14L52.28,112.61L51.66,108.19L41.66,104.88L36.47,97.42L34.96,88.69L39.28,78.03L49.31,71.63L48.49,59.26L0,59.48L0.29,45.87L8.35,36.55L16.8,34.09L13.64,28.36L30.35,21.85L42.96,20L52.55,12.15L56.59,14.1L53.28,19.78L57.24,25.99L66.28,30.52L75.74,22.49L77.13,15.73L90.26,16.21L88.49,21.23L91.94,28.33L84.85,42.11L95.11,58.97L101.72,51.89L107.97,60.28L115.55,53.63L118.26,56.23L137.77,54.31L142.7,62.61Z" fill="#B3CFC0" stroke="#007139" stroke-width="0.5"/></svg>