<svg xmlns="http://www.w3.org/2000/svg" width="144" height="144" viewBox="0 0 144 144"><path d="M34.51,63.69L36.15,61.98L37.95,62.27L38.3,65.29L38.97,65.88L38.73,66.64L40.76,68.71L42.27,68.98L41.7,69.59L42.71,69.73L43.51,70.93L42.91,72.04L43.84,72.29L44.78,75.97L45.27,75.55L46.24,77.09L45.48,77.87L46.76,78.76L47.54,80.53L47.53,81.56L48.11,81.65L49.05,83.26L48.71,83.55L50.45,85.02L48.69,85.41L46.8,86.85L43.78,88.08L43.29,88.97L41.76,89.34L40.95,90.57L38.84,89.34L38.89,88.82L36.92,87.4L35.7,88.01L35.64,86.44L34.34,85.23L34.66,84.67L32.86,83.25L31.37,81.74L31.65,79.68L30.05,76.89L30.18,76.05L28.59,75.8L26.93,74.83L26.53,75.12L25.48,73.91L24.37,71.32L22.68,69.61L21.94,69.23L24.03,67.78L25.58,66.42L26.12,64.77L26.96,64.16L28.95,61.88L29.18,61.14L30.26,60.83L31.22,62.29L33.2,64.07ZM22.68,69.61L24.37,71.32L25.48,73.91L26.53,75.12L26.93,74.83L28.59,75.8L30.18,76.05L30.05,76.89L31.65,79.68L31.37,81.74L32.86,83.25L32.14,83.07L32.76,86.18L29.69,86.93L29.44,87.62L26.81,85.5L26.35,86.74L27.57,88.38L28.25,90.42L29.85,91.23L29.77,92.19L31.11,92.78L30.1,93.47L29.16,92.34L28.02,92.74L26.87,92.15L26.73,90.72L25.4,90.82L24.2,89.35L24.01,88.15L23.13,87.28L19.45,86.09L18.02,86.18L15.73,84.02L14.98,81.56L14.93,80.33L15.41,79.42L14.29,78.02L14.54,76.55L16.47,75.75L16.76,74.08L18.86,72.61L19.55,71.27L20.39,70.58L22.04,70.64ZM13.36,78.5L13.39,79.72L12.11,80.71L11.19,80.42L10.65,79.54L9.99,79.84L9.13,79.25L7.82,79.55L7.22,80.9L7.48,81.65L6.63,81.82L4.99,80.3L5.73,77.77L6.86,76.66L8.02,74.67L7.86,73.15L8.44,72.17L8.67,70.06L9.88,71.02L10.48,70.05L11.8,69.4L12.86,71.46L11.82,73.59L11.13,77.26L12.64,78.62ZM141.52,39.22L139.51,38.7L138.63,39L137.79,38.34L136.51,39.07L134.69,37.79L131.62,36.54L130.62,37.21L129.58,36.51L128.55,36.73L123.8,36.99L122.08,36.02L121.08,37.39L119.52,37.86L118.6,38.61L115.83,38.26L112.96,38.73L111.69,37.33L110.49,36.83L108.29,37.57L108.05,37.26L106.31,37.68L105.22,36.3L103.75,36.34L102.36,37L100.31,39.29L97.5,39.3L97.21,39.9L95.72,39.98L93.42,39.54L88.25,39.59L87.62,39.09L82.96,39.12L80.89,39.98L79.53,40.22L78.18,42.6L77.15,42.83L76.55,43.7L75.2,44.28L74.97,44.97L73.29,45.48L72.01,46.32L69.63,46.18L69.48,47.27L66.51,48.25L64.03,48.34L62.37,48.86L62.37,49.47L60.92,49.85L60.27,48.82L59.53,49.24L58.67,47.92L56.28,46.12L54.86,46.1L51.43,44.91L50.36,42.45L49.12,40.73L46.74,39.46L46.4,38.72L45.27,38.64L44.9,38.04L45.16,36.4L47.41,35.83L49.62,34.19L50.69,34.03L53.24,34.53L55.4,33.38L57.79,33L62.66,33.07L63.67,32.36L63.93,31.43L64.7,31.41L65.2,32.31L65.85,32.16L66.58,32.99L67.04,32.16L67.51,32.82L68.61,31.57L69.93,32.71L72.03,31.68L72.77,32.04L72.46,30.64L73.75,31.56L73.78,30.8L75.35,31.45L76.96,31.3L79.62,29.35L80.25,29.89L80.32,28.97L81.79,29.86L82.55,28.31L83.86,29.2L86.44,30.02L88.01,29.23L89.48,30.21L91.79,30.28L92.81,31.35L94.41,31.13L95.17,31.55L96.04,31.13L97.67,31.28L99.81,30.95L100.25,30.38L102.42,30.73L102.54,31.42L104.2,31.49L104.57,31.94L105.99,31.48L106.59,31.79L108.24,31.13L110.97,30.49L111.46,30.92L112.88,30.75L113.15,31.36L115.31,30.43L115.5,29.84L117.69,29.14L117.59,28.61L119.38,28.54L119.83,28.13L122.03,28.51L124.58,29.38L125.42,28.82L127.86,28.44L128.87,29.17L129.47,28.31L129.86,29.3L131.35,30.11L131.63,31.24L132.4,31.19L133.88,32.3L134.46,34.69L135.39,34.41L136.4,34.97L137.07,34.23L137.38,35.54L138.8,35.24L139.72,36.43L141.19,37.34L140.98,38.38ZM35.77,35.78L34.55,36.42L33.61,37.7L31.79,38.28L31.7,37.2L30.59,36.11L31.24,34.93L30.41,34.42L30.44,33.22L29.35,33.41L30,32.36L30.68,29.96L30.28,29.39L31.04,28.54L31.38,27.38L32.24,26.24L32.84,26.2L31.59,27.93L31.72,29.54L32.6,31.53L33.45,32.26L34.91,32.53ZM32.86,83.25L34.66,84.67L34.34,85.23L35.64,86.44L35.7,88.01L36.92,87.4L38.89,88.82L38.84,89.34L40.95,90.57L41.38,91.45L44.23,91.54L44.5,92.43L45.67,93.64L46.19,93.07L47.56,93.86L47.67,95.03L49.39,97.06L50.11,97L51.9,98.68L52.19,99.86L53.28,100.85L54.22,102.28L56.39,103.83L59.2,103.8L60.32,104.06L62.55,103.67L59.64,105.23L57.34,104.72L56.17,105.22L55.55,106.4L54.54,107.1L53.75,108.31L52.74,108.7L52.1,109.99L47.95,113.8L46.81,113.59L45.36,114.15L44.69,113.59L44.74,112.67L42.63,111.52L40.84,111.16L39.04,111.74L37.46,111.43L36.42,112.21L36.34,111.5L33.94,111.96L33.68,112.52L31.99,112.36L32.46,111.11L31.03,110.31L30.97,109.85L29.61,110.01L28.95,109.13L27.77,109.04L26.83,107.52L25.14,105.66L24.92,104.06L23.97,102.7L24.18,99.58L23.62,98.06L22.8,97.47L21.89,95.24L21.9,94.21L20.56,93.61L22.86,93.73L25.9,92.95L26.11,92.43L28.02,92.74L29.16,92.34L30.1,93.47L31.11,92.78L29.77,92.19L29.85,91.23L28.25,90.42L27.57,88.38L26.35,86.74L26.81,85.5L29.44,87.62L29.69,86.93L32.76,86.18L32.14,83.07ZM14.17,102.26L13.11,101.72L13.32,100.4L12.16,100.09L9.81,98.8L7.91,98.19L6.02,97.04L5.26,95.98L4.9,93.87L3.91,93.16L5.26,90.64L4.92,90.12L6.06,88.74L5.98,87.92L4.55,87.39L5.55,85.84L6.76,84.83L6.63,84.16L7.73,83.24L7.72,84.52L8.39,85.75L10.87,86.21L11.22,86.73L11.35,88.71L11.79,88.81L13.08,90.48L14.32,90.83L16.28,96.97L17.15,97.9L16.22,99.83L14.21,101.07ZM43.51,70.93L42.71,69.73L41.7,69.59L42.27,68.98L40.76,68.71L38.73,66.64L38.97,65.88L38.3,65.29L37.95,62.27L36.15,61.98L34.51,63.69L34.7,61.85L35.21,60.63L35.11,59.25L36.21,58L35.93,56.65L37.85,56.48L36.85,55.22L38.09,54.72L38.92,53.76L41.39,54.68L42.49,54.06L43.2,54.42L42.91,55.7L43.38,56.59L44.29,56.5L45.86,57.28L48.69,60.22L50.02,61.86L49.59,61.84L50.17,63.75L51.71,64L52.28,64.96L54.48,65.95L55.27,67.73L53.38,68.4L51.82,68.49L51.1,69.38L49.29,68.72L45.62,69.04L43.92,69.48ZM40.95,90.57L41.76,89.34L43.29,88.97L43.78,88.08L46.8,86.85L48.69,85.41L50.45,85.02L48.71,83.55L49.05,83.26L49.54,83.07L49.44,81.84L49.82,80.51L52.41,80.53L54.63,81.12L55.36,82.07L55.63,81.34L57.48,82.47L59.75,82.01L61.33,83.09L61.5,82.22L60.87,81.1L62.16,80.85L64.41,81.5L63.18,79.21L63.4,76.83L64.55,77.3L64.95,78.27L67.37,77.92L68.55,77.45L69.31,76.26L69.98,76.83L72.12,76.44L72.93,76.99L73.35,78.23L75.46,78.6L75.87,79.47L76.7,79.46L77.3,80.21L78.75,80.03L78.36,81.02L78.59,82.61L81.25,83.47L81.83,84.89L82.74,85.08L82.87,86L84.19,85.16L85.83,84.84L86.56,85.34L88.86,85.34L89.28,85.93L90.64,85.97L91.64,85.11L93.43,82.71L93.73,83.67L92.97,84.68L92.2,87.15L91.72,87.27L89.8,90.43L88.12,91.07L87.27,91.86L85.63,92.43L84.8,93.29L82.89,94.41L81.69,94.39L80.18,95.19L79.57,95.02L78.09,96.57L75.59,97.36L75.13,97.11L73.38,98.51L69.61,99.76L69.05,100.43L66.59,100.81L65.74,102.08L63.6,103.43L62.55,103.67L60.32,104.06L59.2,103.8L56.39,103.83L54.22,102.28L53.28,100.85L52.19,99.86L51.9,98.68L50.11,97L49.39,97.06L47.67,95.03L47.56,93.86L46.19,93.07L45.67,93.64L44.5,92.43L44.23,91.54L41.38,91.45ZM46.74,39.46L49.12,40.73L50.36,42.45L51.43,44.91L54.86,46.1L56.28,46.12L58.67,47.92L59.53,49.24L60.27,48.82L60.92,49.85L62.37,49.47L62.37,48.86L64.03,48.34L66.51,48.25L69.48,47.27L69.63,46.18L72.01,46.32L73.29,45.48L74.97,44.97L75.2,44.28L76.55,43.7L77.15,42.83L78.18,42.6L79.53,40.22L80.89,39.98L82.96,39.12L87.62,39.09L88.25,39.59L93.42,39.54L95.72,39.98L97.21,39.9L97.5,39.3L100.31,39.29L102.36,37L103.75,36.34L105.22,36.3L106.31,37.68L108.05,37.26L108.29,37.57L110.49,36.83L111.69,37.33L112.96,38.73L115.83,38.26L118.6,38.61L119.52,37.86L121.08,37.39L122.08,36.02L123.8,36.99L128.55,36.73L129.58,36.51L130.62,37.21L131.62,36.54L134.69,37.79L136.51,39.07L137.79,38.34L138.63,39L139.51,38.7L141.52,39.22L142.58,39.78L144,39.83L143.47,41.7L142.71,42.76L141.93,42.99L141.04,44.8L140.08,45.63L139.64,47.22L138.11,48.06L138.18,49.41L136.22,52.03L134.78,52.97L134.16,54.92L133.22,55.61L131.62,58.09L129.92,59.46L128.07,59.36L127.15,60.24L124.97,61.13L123.47,60.51L121.77,60.63L120.92,60.09L114.45,64.24L114.01,65.02L113.11,65.23L109.88,67.43L108.55,66.98L108.89,65.96L107.9,65.68L106.09,66.56L104.27,66.25L102.86,66.89L101.52,67L101.34,67.51L99.23,66.49L98.03,66.97L95.69,66.09L95.52,66.74L93.49,66.5L91.79,67.7L89.87,66.81L89.8,66.1L88.22,65.41L87.59,66.02L86.07,65.82L85.53,66.34L83.72,66.65L81.54,66.47L80.27,65.55L78.91,65.92L77.66,65.56L74.66,63.8L73.65,64.38L72.57,63.78L71.11,64.06L68.52,62.54L66.3,61.81L65.56,62.12L64.45,61.19L63,61.45L62.34,60.81L61.24,60.72L60.91,59.05L60.19,59.2L59.95,57.94L58.15,57.46L57.76,56.28L56.31,56.37L55.16,54.66L53.02,54.6L51.29,52.74L49.9,52.14L49.19,50.58L46.91,50.22L45.71,48.88L46.54,48.02L46.39,46.34L47.2,45.72L47.46,43.65L46.83,42.5ZM50.02,61.86L48.69,60.22L45.86,57.28L44.29,56.5L43.38,56.59L42.91,55.7L43.2,54.42L43.38,51.28L43.93,51.09L44.23,49.82L45.71,48.88L46.91,50.22L49.19,50.58L49.9,52.14L51.29,52.74L53.02,54.6L55.16,54.66L56.31,56.37L57.76,56.28L58.15,57.46L59.95,57.94L60.19,59.2L60.91,59.05L61.24,60.72L62.34,60.81L63,61.45L60.7,60.73L59.09,62.28L56.57,62.37L56.13,61.72L54.45,62.44L53,61.05L52.08,62.29L51.53,61.78ZM16.76,74.08L16.47,75.75L14.54,76.55L14.29,78.02L13.36,78.5L12.64,78.62L11.13,77.26L11.82,73.59L12.86,71.46L11.8,69.4L13.26,69.93L14.08,71.31L15.61,72.05L15.89,73.41ZM4.55,87.39L5.98,87.92L6.06,88.74L4.92,90.12L5.26,90.64L3.91,93.16L4.9,93.87L5.26,95.98L6.02,97.04L7.91,98.19L9.81,98.8L9.21,99.49L8.27,99.31L5.89,100.1L4.16,101.37L1.68,100.66L1.04,99.51L1.42,97.06L0,94.75L0.72,92.73L1.62,91.66L1.27,89.73L2.09,87.1L2.79,86.17ZM45.16,36.4L44.9,38.04L45.27,38.64L46.4,38.72L46.74,39.46L45.1,39.42L44.54,38.68L43.63,39.13L43.73,41.42L42.67,41.38L41.93,40.64L41.73,42.6L40.91,43.05L39.32,42.7L38.62,41.48L37.57,41.22L36.71,40.21L35.66,41.15L33.81,41.17L32.65,41.58L31.64,40L33.59,38.61L33.61,37.7L34.55,36.42L35.77,35.78L37.92,36.97L39.39,37.4L41.76,38.66L42.91,38.25L44.44,36.59ZM49.05,83.26L48.11,81.65L47.53,81.56L47.54,80.53L46.76,78.76L45.48,77.87L46.24,77.09L45.27,75.55L44.78,75.97L43.84,72.29L42.91,72.04L43.51,70.93L43.92,69.48L45.62,69.04L49.29,68.72L51.1,69.38L51.82,68.49L53.38,68.4L55.27,67.73L54.48,65.95L52.28,64.96L51.71,64L50.17,63.75L49.59,61.84L50.02,61.86L51.53,61.78L52.08,62.29L53.33,63.4L54.66,63.95L55.56,65.27L56.58,65.4L55.94,66.24L57.09,66.33L57.1,65.67L58.03,66.83L60.09,66.92L60.34,67.3L62.75,67.87L62.75,68.52L67.15,70.02L68.08,71.69L70.17,72.34L72.15,72.23L73.56,72.86L74.28,73.96L75.5,74.03L75.95,74.86L77.16,75.01L78.74,74.63L80.37,75.16L81.88,74.85L82.81,75.78L83.82,75.82L86.82,77.13L88.32,77.55L89.76,77.18L91.57,77.37L92.75,77.87L93.8,77.35L96.23,79.1L96.14,80L94.87,80.67L94.26,81.98L93.43,82.71L91.64,85.11L90.64,85.97L89.28,85.93L88.86,85.34L86.56,85.34L85.83,84.84L84.19,85.16L82.87,86L82.74,85.08L81.83,84.89L81.25,83.47L78.59,82.61L78.36,81.02L78.75,80.03L77.3,80.21L76.7,79.46L75.87,79.47L75.46,78.6L73.35,78.23L72.93,76.99L72.12,76.44L69.98,76.83L69.31,76.26L68.55,77.45L67.37,77.92L64.95,78.27L64.55,77.3L63.4,76.83L63.18,79.21L64.41,81.5L62.16,80.85L60.87,81.1L61.5,82.22L61.33,83.09L59.75,82.01L57.48,82.47L55.63,81.34L55.36,82.07L54.63,81.12L52.41,80.53L49.82,80.51L49.44,81.84L49.54,83.07ZM43.2,54.42L42.49,54.06L41.39,54.68L38.92,53.76L38.09,54.72L36.85,55.22L35.69,53.78L35.42,52.82L34.51,52.38L34.4,51.06L33.17,50.46L30.47,49.72L30.05,48.93L27.5,48.3L27.85,47.07L29.42,45.92L33.09,46.46L33.44,44.54L32.96,44.14L32.65,41.58L33.81,41.17L35.66,41.15L36.71,40.21L37.57,41.22L38.62,41.48L39.32,42.7L40.91,43.05L41.73,42.6L41.93,40.64L42.67,41.38L43.73,41.42L43.63,39.13L44.54,38.68L45.1,39.42L46.74,39.46L46.83,42.5L47.46,43.65L47.2,45.72L46.39,46.34L46.54,48.02L45.71,48.88L44.23,49.82L43.93,51.09L43.38,51.28ZM14.29,78.02L15.41,79.42L14.93,80.33L14.98,81.56L15.73,84.02L18.02,86.18L19.45,86.09L23.13,87.28L24.01,88.15L24.2,89.35L25.4,90.82L26.73,90.72L26.87,92.15L28.02,92.74L26.11,92.43L25.9,92.95L22.86,93.73L20.56,93.61L21.9,94.21L21.89,95.24L22.8,97.47L23.62,98.06L24.18,99.58L23.97,102.7L24.92,104.06L25.14,105.66L26.83,107.52L27.77,109.04L28.95,109.13L29.61,110.01L30.97,109.85L31.03,110.31L32.46,111.11L31.99,112.36L33.68,112.52L33.94,111.96L36.34,111.5L36.42,112.21L34.4,112.67L34.08,113.82L32.78,114.24L32.05,115.61L29.38,116.55L29.32,115.33L28.46,115.23L27.1,116.69L23.41,115.05L22.12,117.43L20.48,117.02L19.46,116.03L18.75,116.33L18.04,114.43L18.41,113.94L18.4,112.02L17.2,111.72L17.36,110.86L16.41,110.8L14.98,109.54L14.47,108.51L14.89,106.32L13.84,103.43L14.17,102.26L14.21,101.07L16.22,99.83L17.15,97.9L16.28,96.97L14.32,90.83L13.08,90.48L11.79,88.81L11.35,88.71L11.22,86.73L10.87,86.21L8.39,85.75L7.72,84.52L7.73,83.24L7.48,81.65L7.22,80.9L7.82,79.55L9.13,79.25L9.99,79.84L10.65,79.54L11.19,80.42L12.11,80.71L13.39,79.72L13.36,78.5ZM63,61.45L64.45,61.19L65.56,62.12L66.3,61.81L68.52,62.54L71.11,64.06L72.57,63.78L73.65,64.38L74.66,63.8L77.66,65.56L78.91,65.92L80.27,65.55L81.54,66.47L83.72,66.65L85.53,66.34L86.07,65.82L87.59,66.02L88.22,65.41L89.8,66.1L89.87,66.81L91.79,67.7L93.49,66.5L95.52,66.74L95.69,66.09L98.03,66.97L99.23,66.49L101.34,67.51L101.52,67L102.86,66.89L104.27,66.25L106.09,66.56L107.9,65.68L108.89,65.96L108.55,66.98L109.88,67.43L109.15,68.4L106.61,70.03L106.78,72.2L105.9,73.62L103.59,75.35L102.81,76.21L100.8,77.52L98.26,79.86L96.14,80L96.23,79.1L93.8,77.35L92.75,77.87L91.57,77.37L89.76,77.18L88.32,77.55L86.82,77.13L83.82,75.82L82.81,75.78L81.88,74.85L80.37,75.16L78.74,74.63L77.16,75.01L75.95,74.86L75.5,74.03L74.28,73.96L73.56,72.86L72.15,72.23L70.17,72.34L68.08,71.69L67.15,70.02L62.75,68.52L62.75,67.87L60.34,67.3L60.09,66.92L58.03,66.83L57.1,65.67L57.09,66.33L55.94,66.24L56.58,65.4L55.56,65.27L54.66,63.95L53.33,63.4L52.08,62.29L53,61.05L54.45,62.44L56.13,61.72L56.57,62.37L59.09,62.28L60.7,60.73ZM9.81,98.8L12.16,100.09L13.32,100.4L13.11,101.72L14.17,102.26L13.84,103.43L14.89,106.32L14.47,108.51L14.98,109.54L16.41,110.8L17.36,110.86L17.2,111.72L18.4,112.02L18.41,113.94L18.04,114.43L18.75,116.33L19.46,116.03L20.48,117.02L19.36,117.34L18.64,116.73L17.33,116.94L17.35,117.8L16.13,117.8L15.01,117.03L15,116.41L13.7,115.99L13.57,114.35L12.35,114.04L12.89,113.18L12.05,113.14L10.05,110.81L9.19,110.71L8.04,109.68L6.86,107.65L6.23,107.56L5.15,105.4L4.88,104.13L2.71,102.51L1.68,100.66L4.16,101.37L5.89,100.1L8.27,99.31L9.21,99.49Z" fill="#B3CFC0" stroke="#007139" stroke-width="0.5"/></svg>