<svg xmlns="http://www.w3.org/2000/svg" width="144" height="144" viewBox="0 0 144 144"><path d="M33.31,38.99L33.66,39.45L34.13,39.38L34.23,39.65L35.02,39.13L35.05,39.74L35.33,39.95L35.76,39.93L35.96,40.11L36.32,40.02L36.76,40.37L38.31,40.39L38.62,40.52L38.67,40.83L39.01,41.29L39.73,41.52L39.75,41.26L40.14,41.33L40.42,41.62L40.98,41.52L41.35,41.64L46.82,46.68L46.72,47.03L47.01,47.63L47.44,48.02L47.53,48.34L48.39,49.27L48.37,49.69L48.56,49.94L49.29,50.21L49.81,51.35L50.08,51.28L50.3,52.09L50.14,52.31L50.32,53L50.59,53.4L51.4,53.9L51.33,54.08L52.24,54.84L52.78,55.05L52.65,55.18L53.1,55.54L53.59,55.47L53.73,55.75L53.53,55.91L53.84,56.33L54.1,56.32L54.13,56.64L54.45,56.61L55.07,57L55.84,56.62L56.05,56.78L56.24,56.21L56.76,56.06L57.09,55.73L57.14,55.36L57.69,55.33L58.21,54.91L58.18,54.47L57.86,54.07L58.35,53.96L58.09,53.78L58.06,53.41L58.33,53.47L58.23,53.14L58.61,53.27L58.72,52.95L59.49,52.97L59.36,53.39L59.75,53.66L60.1,52.85L60.49,52.9L60.56,53.17L61.08,53.33L61.25,52.94L61.4,53.37L62.05,53.72L62.51,54.16L63.21,54.54L63.78,54.3L64.77,55.46L64.75,55.97L65.08,56.11L64.86,56.6L65.13,56.68L65.41,56.43L65.61,56.55L65.57,57.35L65.79,57.79L65.84,57.28L66.18,57.18L66.37,57.47L66.18,57.82L66.35,58.02L66.04,58.22L66.62,58.88L66.6,58.48L66.89,58.49L67.3,59.11L67.18,59.55L67.6,59.75L67.74,59.4L68.06,59.61L68.19,59.31L68.46,59.52L68.62,59.21L68.9,59.71L69.31,59.71L69.51,60.05L69.28,60.4L69.99,60.29L70.47,60.37L70.73,60.75L70.49,61.16L70.6,61.7L71.1,62.05L71.34,61.64L71.7,62.41L71.51,62.89L71.81,62.94L71.58,63.22L71.83,63.45L72.06,63.1L72.51,63.28L72.8,64.13L72.81,64.55L72.55,64.73L72.86,64.94L73.24,64.8L73.11,64.44L73.8,64.53L73.47,64.98L73.99,65.04L74.01,65.53L74.26,65.68L74.36,65.37L74.67,65.23L74.7,65.55L74.37,65.73L74.77,66.38L75.55,66.78L75.79,66.69L76.09,67.16L76.58,66.7L76.41,67.45L76.98,67.31L77.23,67.58L76.96,67.87L77.19,68.06L77.81,67.65L77.95,67.16L78.23,67.27L78.06,67.49L78.32,67.79L78.97,67.56L78.99,67.13L79.39,67.29L79.49,67.69L80.16,67.92L80.04,68.1L80.58,68.38L80.5,68.7L81.11,68.92L80.86,69.27L79.85,69.5L79.57,69.32L79.02,69.69L78.34,69.72L77.96,69.95L76.93,69.47L76.5,69.55L76.48,69.79L75.15,70.63L74.68,70.73L74.7,71.22L74.38,71.51L74.23,72.11L74.54,72.68L74.59,73.09L73.47,73.63L73.03,73.69L71.75,73.67L71.49,73.56L70.65,73.76L70.18,73.54L69.87,73.61L69.59,74L69.57,74.41L69.08,74.47L68.27,74.84L68.35,75.38L68.07,75.98L67.59,76.62L67.17,76.81L67,78.41L65.93,79.08L64.8,78.51L64.64,77.87L64.28,77.86L62.78,79.43L62.52,79.85L62.01,79.67L60.8,78.79L60.8,78.59L60.27,78.18L59.95,78.1L59.76,77.69L59.38,78.02L59.1,78L58.89,78.29L57.94,78.59L57.09,78.42L56.78,77.76L55.97,77.29L55.56,77.41L55.19,78.23L55.13,78.64L54.59,78.4L53.89,78.63L53.21,78.68L52.37,77.67L51.92,77.51L51.4,77L50.79,77.43L50.13,77.07L49.22,77.31L48.81,77.21L48.62,76.75L48.41,77.05L48.05,77.13L47.92,76.27L47.5,76.04L46.91,76.3L47.04,75.72L46.54,75.79L46.09,75.29L45.66,75.25L45.28,75.59L44.52,75.64L44.19,75.45L43.63,75.06L41.94,74.69L41.68,74.53L41.15,73.66L40.72,73.74L40.36,73.15L40,73.11L39.69,73.5L39.23,73.46L39.15,72.85L38.82,72.77L38.58,73.16L37.78,72.59L37.82,72.3L38.15,71.99L38.08,71.78L37.65,71.89L36.91,71.29L36.05,71.46L35.54,71.76L35.88,71.17L35.48,70.77L35.15,71.63L34.79,71.73L34.69,71.25L34.35,71.04L34.36,71.57L32.91,71.04L33.12,70.58L32.65,70.33L32.34,70.63L32.53,69.9L31.88,69.24L32.46,69.01L32.56,68.72L32.04,68.65L31.74,68.41L32.21,68.46L32.31,68.28L32.25,67.49L31.69,66.9L31.41,66.78L29.87,66.72L29.18,66.22L28.14,66.28L27.5,65.76L27.91,65.22L27.48,64.72L27.43,64.26L27.81,64.12L27.82,63.76L27.57,63.52L27.29,62.92L26.21,63.03L26.24,62.48L25.98,62.47L25.61,62.82L24.85,62.93L24.53,62.77L24.79,62.5L24.44,62.13L24.29,61.69L24.69,61.19L24.35,60.55L23.78,60.33L23.98,59.74L23.86,59.42L23.44,59.38L23.02,59.12L22.82,58.81L22.52,59.06L22.16,59.01L21.61,59.23L20.96,58.94L20.76,58.6L20.46,58.83L19.96,58.5L19.97,57.97L19.01,57.83L18.81,57.39L18.23,57.31L17.92,57.54L17.51,57.47L16.83,57.82L16.27,57.01L15.78,57.3L15.43,57.14L15.23,56.56L14.88,56.42L14.74,55.99L14.15,55.77L14.49,55.23L14.07,55.03L13.57,54.5L13.47,55.11L13.29,54.72L12.71,54.84L12.17,54.68L12.23,54.6L11.34,54.08L10.34,53.94L9.68,53.76L9.38,53.53L9.29,53.14L9.34,53.28L10.49,52.82L10.89,52.31L10.61,52.19L10.19,52.41L10.38,51.91L10.65,51.72L10.75,52.12L11.28,51.61L11.54,52.23L11.84,51.75L12.45,51.6L12.7,51.86L13.14,51.68L12.91,51.35L13.17,51.11L13,50.88L12.44,51.15L12.21,50.82L11.66,51.56L11.52,51.31L11.48,50.36L11.7,50.11L11.97,50.57L11.94,50.09L12.37,49.93L12.14,49.65L12.85,49.08L12.74,48.95L12.17,49.21L12.15,49.02L12.97,48.74L12.76,48.49L13.1,48.29L13.76,48.35L13.44,48.73L13.82,49.22L13.46,49.67L13.09,49.44L13.19,49.88L12.77,49.86L13.01,50.26L13.45,50.25L13.84,50.77L14.73,50.62L15.14,50.42L14.98,49.76L15.72,49.64L16.33,49.41L16.83,49.41L16.52,48.78L17.57,48.17L18,48.19L17.94,47.73L18.31,47.37L18.72,47.68L18.74,47.47L18.37,46.83L19.42,46.89L20.01,47.28L20.17,47.54L20.15,48.08L20.78,48.2L20.73,47.75L20.96,48.18L21.2,47.94L21.69,48.25L22.22,48.32L22.64,47.83L22.8,47.06L23.18,46.42L23.05,46.18L23.19,44.75L23.63,44.54L23.26,44.35L23.51,43.79L23.38,43.55L23.67,42.95L23.67,42.6L24.13,42.53L24.4,41.89L25.03,41.57L24.93,41.33L25.36,40.71L25.48,41.06L25.81,40.79L26.21,40.9L26.63,40.68L26.73,40.95L27.1,40.95L27.41,40.6L27.35,40.34L27.93,40L28.1,40.25L28.44,39.79L28.88,39.49L29.51,39.95L29.85,40.36L30.26,40.47L30.16,39.99L30.59,40.18L31.35,39.42L30.89,38.74L31.51,39.27L31.66,38.87L32.11,38.7L32.51,38.87L32.85,38.81L33.01,39.15ZM33.12,38.38L33.48,38.34L33.39,38.86ZM9.08,52.99L9.17,52.95L9.22,52.99L9.25,53.01L9.27,53.04L9.29,53.12L9.29,53.14L9.38,53.53L9.68,53.76L10.34,53.94L11.34,54.08L12.23,54.6L12.17,54.68L12.31,55.1L11.91,55.14L11.59,55.41L11.01,55.08L10.49,55.77L9.38,55.77L9.13,56.06L8.66,56.09L8.6,55.78L7.66,55.78L7.53,56.04L7.02,55.93L6.58,55.49L6.37,55.07L5.62,54.96L6.52,54.77L7.17,54.87L6.92,54.36L8.13,53.64L8.61,53.04ZM46.82,46.68L41.35,41.64L40.98,41.52L40.42,41.62L40.14,41.33L39.75,41.26L39.73,41.52L39.01,41.29L38.67,40.83L38.62,40.52L38.31,40.39L36.76,40.37L36.32,40.02L35.96,40.11L35.76,39.93L35.33,39.95L35.05,39.74L35.02,39.13L34.23,39.65L34.13,39.38L33.66,39.45L33.31,38.99L33.32,38.92L33.39,38.86L33.39,38.86L33.48,38.34L33.12,38.38L32.74,38.31L32.62,38.25L32.64,37.85L32.34,37.59L32.25,37.57L32.11,37.42L31.91,37.3L32.02,37.21L32.53,37.3L32.78,37.08L32.83,36.59L32.55,36.43L32.78,36.05L32.66,35.55L32.86,35.31L33.07,34.42L32.98,33.99L33.29,34.01L32.81,35.64L32.87,36.05L33.49,35.42L33.73,35.34L34.05,34.57L34.03,34.24L34.33,34.08L34.26,33.53L34.6,33.65L34.58,33.16L34.93,32.82L34.6,32.88L34.13,32.69L34.62,32.35L34.93,31.66L34.73,31.45L35.26,31.27L34.88,31L35.28,30.7L35.14,30.12L34.62,30.17L35.05,29.83L34.49,29.64L34.61,29.3L35.69,29.27L35.62,28.82L35.26,27.75L35.17,26.96L35.51,26.76L34.63,25.65L34.19,25.62L34.2,25.45L34.59,25.17L34.9,24.55L35.36,24.32L35.47,23.98L36.27,23.77L36.36,23.01L36.83,22.57L37.07,22.77L37.54,22.53L37.68,22.09L37.81,22.29L38.36,22.22L39.34,21.66L40.36,21.61L40.75,22.01L41.15,22.05L41.66,21.84L41.93,22.02L42.46,21.92L42.78,22.21L42.72,22.82L43.07,22.9L42.7,23.32L42.8,23.61L43,23.1L43.01,23.63L43.39,23.51L43.27,24.75L44.14,24.93L45.02,26.08L45.39,26.16L45,25.46L45.27,25.7L45.96,25.59L46.3,25.85L46.75,25.94L47.37,25.83L48.75,25.26L48.61,24.89L47.81,24.92L47.77,24.52L48.11,24.9L48.2,24.64L48.79,24.84L49.14,25.12L49.56,25.04L49.63,25.26L50.07,25.2L49.75,24.81L50.16,24.39L50.13,23.99L49.55,24.07L49.23,22.96L48.87,22.9L48.83,22.57L49.48,22.33L49.25,21.76L49.59,21.79L49.78,22.4L50.06,22.42L50.68,22.87L50.76,22.56L50.25,22.36L50.3,21.5L50.15,21.69L49.53,21.09L49.22,20.92L50,20.2L50.15,19.85L50.77,19.76L51.34,19.35L51.95,18.6L53.07,18.21L53.15,17.98L54.29,18.52L54.5,18.43L54.62,19.04L54.92,19.05L54.85,19.57L55.3,19.77L55.32,20.16L55.65,20.68L56.29,21.36L56.45,21.3L57.06,21.95L57.15,22.52L56.86,22.43L56.63,22.01L56.42,22.07L56.57,22.5L57.09,22.64L56.95,22.99L56.66,22.86L55.99,21.82L55.51,21.55L55.6,22.06L55.46,22.26L56.15,22.19L56.2,22.43L55.25,22.6L54.92,22.38L54.5,22.5L54.84,22.59L54.91,22.93L55.58,23.23L56.31,23.36L56.48,23.68L56.71,23.33L57.52,23.43L57.59,23.25L58.51,23.13L59.15,23.22L59.37,23.05L59.43,23.52L59.88,23.43L60.02,23.07L60.54,23.18L60.31,23.51L59.36,23.85L60.13,23.87L61.01,24.38L61.2,25.06L60.82,24.89L60.74,24.49L60.38,24.32L60.35,24.71L59.93,24.77L59.64,24.51L59.44,24.98L58.99,25.03L59.29,25.29L59.1,25.4L59.59,25.63L59.85,25.98L60.79,25.85L60.85,25.68L61.57,25.71L61.9,25.2L62.4,25.61L62.64,25.55L62.98,25.99L63.9,26.08L64.18,26.22L64.26,25.93L63.74,25.34L63.89,25.79L63.59,25.64L63.16,25.77L63.02,25.35L63.35,25.17L64.16,25.45L64.53,25.17L64.85,25.33L65.34,24.69L65.57,24.79L65.53,25.51L65.98,25.65L66.95,25.5L67.36,25.65L67.62,25.56L67.88,25.77L68.07,25.54L68.36,26.05L68.64,25.84L68.63,25.37L69.84,25.9L69.73,26.32L69.99,26.67L70.55,26.66L70.72,26.95L71.27,26.77L72.13,26.95L72.6,26.65L72.95,27.14L73.31,27.21L73.28,27.56L73.52,27.87L74.36,27.39L74.83,28.02L74.63,28.25L74.91,28.42L75.35,28.21L75.82,28.45L76.16,28.21L76.62,28.58L77.4,28.56L77.82,28.77L77.83,28.13L78.07,28.29L78.52,27.91L79.58,28.04L80.1,27.8L80.88,28.02L80.57,28.46L80.45,28.26L80.12,28.02L79.9,27.91L79.7,28.08L79.4,28.04L79.07,28.81L78.28,28.53L78.84,28.86L79.14,29.16L79.24,29.04L79.31,28.74L79.25,28.65L79.25,28.57L79.27,28.54L79.38,28.48L79.5,28.46L79.64,28.57L79.64,28.89L79.88,28.83L79.79,28.95L79.67,28.97L79.62,28.88L79.62,28.56L79.28,28.54L79.27,28.64L79.32,28.76L79.27,29L79.18,29.16L79.14,29.17L79.05,29.12L78.74,28.82L78.52,28.74L78.11,28.38L78.1,28.98L77.2,28.67L76.94,28.95L76.54,28.77L76.44,29.19L76.06,29.13L75.43,29.51L75.12,29.35L75.35,28.93L75.01,28.77L74.83,29.25L74.33,28.93L73.95,28.41L73.78,28.47L73.91,29.07L73.6,29.54L73.47,29.48L73.46,28.78L73.07,28.66L72.91,29.27L72.49,29.19L71.72,29.4L70.97,29.45L70.73,29.78L70.57,29.46L70.09,29.4L69.79,29.54L69.09,29.28L68.65,28.53L68.44,28.85L67.76,28.74L67.55,28.96L67.55,29.62L67.84,29.94L67.63,30.22L67.24,30.02L66.94,29.53L66.6,29.57L66.57,30.09L66.26,30.17L66.1,29.87L65.68,29.84L65.35,30.07L64.9,30.7L64.59,30.86L64.28,30.66L63.76,30.74L63.82,31.27L63.53,31.43L62.89,31.18L62.82,31.43L62.43,31.48L62.56,31.83L62.09,32.09L62.14,32.86L61.94,32.88L61.91,32.45L61.55,32.27L60.99,33L60.94,32.5L60.48,32.37L59.96,33.07L59.21,32.81L58.81,32.45L58.08,32.96L57.31,33.22L57.35,33.51L56.94,33.74L56.79,34.09L57.1,34.04L57.23,34.43L57.07,34.59L56.76,34.35L56.72,34.76L56.39,34.77L55.7,35.33L55.58,34.97L55.24,35.13L54.57,35.78L54.51,35.41L54.19,35.58L54.44,35.77L53.97,36L53.71,35.5L53.34,35.76L52.98,35.67L52.38,35.78L52.71,35.89L52.73,36.26L52.33,36.11L51.92,36.42L51.41,36.11L51.37,36.53L51.11,36.6L51.26,36.25L51.11,35.96L50.86,36.04L50.85,36.52L50.54,36.53L50.62,36.2L50.2,36.17L50.1,36.56L49.9,36.45L50.04,36.13L49.92,35.73L49.69,35.81L49.82,36.32L49.43,36.06L49.07,36.11L48.97,36.44L48.61,35.69L48,36.16L47.79,35.65L47.37,35.84L47.18,36.17L47.41,36.3L47.12,36.63L47.22,36.95L46.82,37.02L46.82,40.72ZM12.17,54.68L12.71,54.84L13.29,54.72L13.47,55.11L13.57,54.5L14.07,55.03L14.49,55.23L14.15,55.77L14.74,55.99L14.88,56.42L15.23,56.56L15.43,57.14L15.78,57.3L16.27,57.01L16.83,57.82L17.51,57.47L17.92,57.54L18.23,57.31L18.81,57.39L19.01,57.83L19.97,57.97L19.96,58.5L20.46,58.83L20.76,58.6L20.96,58.94L21.61,59.23L22.16,59.01L22.52,59.06L22.82,58.81L23.02,59.12L23.44,59.38L23.86,59.42L23.98,59.74L23.78,60.33L24.35,60.55L24.69,61.19L24.29,61.69L24.44,62.13L24.79,62.5L24.53,62.77L24.85,62.93L25.61,62.82L25.98,62.47L26.24,62.48L26.21,63.03L27.29,62.92L27.57,63.52L27.82,63.76L27.81,64.12L27.43,64.26L27.48,64.72L27.91,65.22L27.5,65.76L28.14,66.28L29.18,66.22L29.87,66.72L31.41,66.78L31.69,66.9L32.25,67.49L32.31,68.28L32.21,68.46L31.74,68.41L32.04,68.65L32.56,68.72L32.46,69.01L31.88,69.24L32.53,69.9L32.34,70.63L32.65,70.33L33.12,70.58L32.91,71.04L34.36,71.57L34.35,71.04L34.69,71.25L34.79,71.73L35.15,71.63L35.48,70.77L35.88,71.17L35.54,71.76L36.05,71.46L36.91,71.29L37.65,71.89L38.08,71.78L38.15,71.99L37.82,72.3L37.78,72.59L38.58,73.16L38.82,72.77L39.15,72.85L39.23,73.46L39.69,73.5L40,73.11L40.36,73.15L40.72,73.74L41.15,73.66L41.68,74.53L41.94,74.69L43.63,75.06L44.19,75.45L41.01,76.36L36.38,77.67L36.22,77.49L35.88,77.71L35.91,76.92L35.05,76.55L34.76,76.63L34.77,76.35L34.44,76.47L34.25,76.28L34.14,75.75L33.57,75.26L33.19,75.22L33.21,74.76L32.46,75.11L32.22,74.52L31.86,74.72L31.45,74.5L31.46,73.87L31.15,73.2L30.57,72.45L30.38,72.46L29.68,73.17L29.15,73.11L28.89,72.74L28.71,73L28.13,72.36L28,71.95L27.33,71.75L26.43,70.91L26,70.85L25.01,70.33L24.59,70.53L24.41,70.99L23.98,71.45L23.64,71.52L23.43,71.31L22.59,71.07L21.94,71.14L21.55,70.99L20.92,70.52L20.54,70.43L20.07,70.07L19.43,70.14L19.36,69.59L18.96,69.55L18.45,69.06L18.32,69.33L16.66,69.19L16.13,69.04L15.98,68.59L15.36,67.85L15.17,68.06L14.26,66.91L14.02,66.86L13.87,66.36L13.58,66.12L13.33,65.54L12.75,65.41L12.58,64.99L12.13,65.03L11.9,65.31L11.66,65.14L11.46,64.44L11.09,64.22L10.73,64.47L10.12,64.23L10.05,64.01L9.64,63.94L9.41,63.53L9.18,63.75L8.89,63.57L8.67,63.79L8.59,64.26L8.09,64.14L7.5,64.29L7.5,66.32L7.02,66.14L6.96,66.35L6.05,66.32L5.72,66.07L5.05,66.37L4.48,66.06L4.07,66.19L3.98,65.88L2.93,65.65L2.34,66.18L1.99,65.99L1.33,66.33L0.32,66.14L0,65.44L0.21,65.19L0.53,65.3L0.54,64.92L0.31,64.67L0.32,64.29L0.77,64.32L0.63,63.86L0.84,63.77L1.01,63.17L0.45,63.08L0.7,62.83L0.94,62.94L0.68,62.3L0.94,61.98L1.3,61.23L1.45,60.56L0.63,60.33L0.02,60.32L0.72,59.98L0.41,59.47L0.39,58.89L0.74,59.16L1.29,58.74L1.88,58.12L2.14,58.24L2.01,57.77L2.33,57.94L2.67,58.56L3.2,58.76L3.27,58.32L3.05,57.39L3.2,57.06L3.72,57.43L3.73,57.15L3.22,56.74L3.03,56.4L3.38,56.33L3.3,55.65L3.15,55.64L3.39,54.8L3.56,55.36L4.11,56.14L4.03,57.01L4.59,57.72L4.67,56.88L4.28,56.35L4.56,56.51L4.36,55.92L4.41,55.59L4.12,55.37L4.64,54.92L4.74,55.03L5.76,55.18L6.18,55.17L6.58,55.49L7.02,55.93L7.53,56.04L7.66,55.78L8.6,55.78L8.66,56.09L9.13,56.06L9.38,55.77L10.49,55.77L11.01,55.08L11.59,55.41L11.91,55.14L12.31,55.1ZM44.19,75.45L44.52,75.64L45.28,75.59L45.66,75.25L46.09,75.29L46.54,75.79L47.04,75.72L46.91,76.3L47.5,76.04L47.92,76.27L48.05,77.13L48.41,77.05L48.62,76.75L48.81,77.21L49.22,77.31L50.13,77.07L50.79,77.43L51.4,77L51.92,77.51L52.37,77.67L53.21,78.68L53.89,78.63L54.59,78.4L55.13,78.64L55.19,78.23L55.56,77.41L55.97,77.29L56.78,77.76L57.09,78.42L57.94,78.59L58.89,78.29L59.1,78L59.38,78.02L59.76,77.69L59.95,78.1L60.27,78.18L60.8,78.59L60.8,78.79L62.01,79.67L62.52,79.85L62.78,79.43L64.28,77.86L64.64,77.87L64.8,78.51L65.93,79.08L67,78.41L67.17,76.81L67.59,76.62L68.07,75.98L68.35,75.38L68.27,74.84L69.08,74.47L69.57,74.41L69.59,74L69.87,73.61L70.18,73.54L70.65,73.76L71.49,73.56L71.75,73.67L73.03,73.69L73.47,73.63L74.59,73.09L74.54,72.68L74.23,72.11L74.38,71.51L74.7,71.22L74.68,70.73L75.15,70.63L76.48,69.79L76.5,69.55L76.93,69.47L77.96,69.95L78.34,69.72L79.02,69.69L79.57,69.32L79.85,69.5L80.86,69.27L81.11,68.92L81.51,69L82,68.41L82.32,68.51L82.66,68.87L82.62,69.25L82.98,69.72L83.3,69.43L83.35,69.88L84.23,69.89L83.99,70.12L84.33,70.46L84.57,70.35L84.51,69.95L84.76,69.81L85.19,69.95L85.31,70.35L85.76,70.5L85.73,70.86L85.92,71.18L86.21,71.25L86.14,71.66L85.87,71.53L85.49,71.89L85.91,72.4L85.97,72.67L86.37,72.78L86.53,73.21L86.47,73.77L86.98,74.45L87.19,74.98L87.5,74.71L88.18,74.45L87.9,74.3L87.99,74.05L88.46,73.86L89.51,74.77L89.91,74.34L90.35,74.7L90.65,75.33L90.83,75.37L91.08,74.95L91.44,75.11L91.56,74.86L92.19,75.49L92.61,76.34L92.38,76.63L92.59,76.8L93.25,76.38L93.47,76.45L93.59,76.86L94.11,76.92L94.38,76.8L94.39,76.45L93.85,76.44L93.86,76.21L94.24,76.03L94.59,76.07L94.8,75.7L95.18,75.74L95.46,76.12L96.01,76.08L96.03,76.59L95.51,76.48L95.34,76.79L94.84,77.09L94.44,77.62L94.37,78.04L94.68,78.14L94.69,77.82L94.99,77.75L95.23,78.07L95.37,78.71L95.39,79.46L95.27,79.95L95.33,80.44L94.86,80.51L94.86,81.3L95.4,81.76L95.81,82.33L95.8,82.55L95.43,82.76L95.29,83.16L94.78,83.14L94.62,83.55L95.2,84.26L95.6,84.33L95.87,83.84L96.23,83.92L95.76,84.58L95.9,84.97L96.48,85.12L96.47,85.47L96.87,85.72L97.2,85.61L97.39,85.16L97.88,84.55L97.76,84.22L97.13,84.32L97.01,84.03L97.57,83.37L98,83.33L98.37,83.75L98.61,83.72L98.67,83.18L99,83.29L98.91,83.61L99.57,83.6L99.84,83.28L100.32,83.53L99.71,83.93L99.84,84.52L99.47,84.91L99.52,85.34L99.91,85.41L100.2,85.23L100.87,85.09L101.29,84.45L101.65,84.55L102.08,85.27L102.48,85.46L102.72,85.15L102.37,84.96L102.25,84.57L102.58,84.44L102.79,84.65L103.22,84.73L104.01,85.7L103.57,85.73L103.57,86.94L103.79,87.27L104.18,87.07L104.19,86.48L104.83,86.13L105.03,86.26L105.19,86.77L105.58,86.78L105.99,87.12L106.41,87.1L106.62,86.49L106.32,86.26L106.68,86.07L106.56,85.38L106.68,85.15L107.09,85.04L107.56,85.62L107.62,86L107.38,86.24L107.16,87.49L107.43,88.1L107.45,88.72L107.6,89.17L107.09,89.72L107.1,90.51L106.75,91.09L106.83,91.74L105.6,98.61L104.44,105.07L103.21,111.95L102.22,117.44L100.93,124.65L99.96,130.05L99.75,130.17L98.76,128.95L98.36,128.6L98.21,128.2L97.74,127.83L96.93,127.78L96.49,127.41L96.55,126.74L96.43,125.94L95.47,125.4L95.03,124.43L93.95,124.05L93.64,124.35L93.03,124.47L92.61,124.89L91.87,125.16L91.43,125.16L91.01,124.43L90.76,124.28L90.26,124.59L89.67,124.45L89.29,124L88.83,123.98L90.74,120.95L93.53,116.53L95.78,112.96L97.86,109.68L98.13,109.18L98,108.53L98.04,107.97L97.6,107.69L97.37,108.28L96.83,108.35L96.69,108.08L96.77,107.57L96.43,107.35L96.27,107.7L95.88,107.54L95.74,106.63L95.49,106.21L95.22,106.17L94.68,106.52L94.25,106.58L93.9,106.26L94.15,106.01L94.61,105.92L94.76,105.54L93.96,105.32L93.5,105.48L93.14,105.83L92.66,105.63L92.53,105.12L92.27,104.81L91.8,105.08L91.52,104.93L91.12,104.35L90.6,104.33L91.08,104.78L90.92,105.14L90.07,105.16L89.93,104.95L90.04,103.98L89.67,104.17L89.35,104.03L89.52,103.34L88.43,103.07L88.01,102.54L87.39,102.54L86.96,102.21L86.75,101.65L86.18,101.51L85.81,101.92L85.58,101.93L84.95,101.31L84.59,101.34L84.47,101.62L84.86,102.45L84.5,102.56L84.34,102.28L83.91,102.15L82.89,102.38L82.68,102.61L82.85,103.2L82.33,103.19L82.28,103.67L81.88,103.67L81.54,103.23L81.29,103.19L80.72,103.86L80.73,103.21L80.33,103.34L80.16,103.72L79.66,103.78L79.28,104.1L78.96,103.99L79.09,103.37L78.68,102.99L78.3,102.31L77.73,102.24L77.69,102.57L77.88,103.24L77.49,103.19L77.34,102.68L77.31,101.85L76.49,101.76L76.04,101.57L75.54,101.19L75.11,101.26L74.69,101.55L74.31,101.32L74.45,100.49L74.06,100.41L73.37,101.19L72.82,101.09L72.18,102.7L71.51,102.72L71.39,103.13L71.62,103.52L71.37,103.7L71.27,103.41L70.38,103.54L69.97,103.13L69.7,103.1L69.08,103.84L68.6,104.15L68.48,104.81L68.11,104.96L67.96,104.4L67.35,104.7L66.73,104.5L66.77,104.84L66.37,104.79L66.3,105.02L65.09,105.27L65.03,104.79L64.66,104.24L64.4,104.51L63.57,104.25L62.28,103.96L61.97,103.54L61.39,103.41L61.37,103.84L61.02,104.18L60.91,104.62L60.6,104.67L60.6,104.2L60.22,103.86L60.01,104.29L59.74,104.4L59.44,103.83L58.98,104.19L58.11,104.58L57.65,104.54L57.17,104.81L57.31,104.29L56.94,104.09L56.62,103.3L56,103.28L55.72,102.79L55.52,103.45L55.25,103.39L55.25,102.82L54.42,102.92L54.49,102.36L54.04,102.01L53.81,101.57L53.81,101.04L54.24,100.98L54.68,100.09L55.18,99.83L55.16,99.5L54.71,99.46L54.82,98.71L54.49,98.52L54.6,97.59L54.58,96.49L54,96.26L54.1,95.51L53.46,95.31L53.16,94.75L52.94,94.77L52.93,95.35L52.54,95.55L52.64,95.18L51.96,95.13L51.78,95.28L51.94,95.72L51.59,95.8L51.41,95.47L50.79,95.14L50.09,95.33L49.93,94.88L49.49,94.55L49.16,94.49L48.64,94.17L48.53,93.9L48.81,93.55L48.97,92.98L49.55,92.5L49.64,92.17L49.18,92.12L49.36,91.64L49.13,91.32L49.21,90.96L48.95,90.95L48.63,90.62L48.55,90.21L47.87,90.13L48.34,89.79L47.97,89.24L47.98,88.59L47.47,88.6L47.35,87.79L46.9,87.83L46.48,87.45L46.15,87.64L45.75,87.59L45.59,86.93L45.43,86.95L45.29,87.74L44.91,87.47L44.62,87.6L43.81,87.22L43.81,86.95L43.41,86.46L43.26,85.82L42.51,85.91L42.62,85.44L42.4,85.23L42.21,85.57L41.84,85.44L41.63,85.04L41.72,84.37L41.45,84.12L41.1,84.8L40.16,84.51L39.5,84.11L38.67,84.13L37.99,83.65L38.19,83.24L37.92,82.56L37.44,82.55L37.57,82.12L37.98,82.36L38.38,81.4L37.97,81.57L37.77,81.44L37.89,80.92L37.41,81.08L37.51,80.67L36.93,80.56L36.53,80.07L37.07,79.7L37.03,79.39L36.64,79.2L36.77,78.76L36.45,78.3L36.38,77.67L41.01,76.36ZM101.21,45.31L101,45.35L100.19,44.81L99.36,44.89L98.96,44.62L98.23,44.41L98,44.07L97.66,43.92L96.88,43.12L96.5,43.08L96.43,42.86L96.64,42.17L96.97,41.93L97,41.51L97.41,41.2L97.27,40.77L97.44,40.08L97.34,39.62L98.17,39.14L98.23,38.91L98.76,38.69L99.07,38.03L98.69,37.89L98.59,37.32L97.99,37.06L97.77,37.47L97.28,37.47L96.99,37.27L96.77,37.79L96.16,37.93L95.42,37.46L95.06,37.83L94.79,37.62L94.82,38.01L94.58,38.24L94.14,37.89L93.54,37.72L93.37,37.42L92.47,37.55L92.51,37.77L91.92,37.89L91.7,37.36L91.43,37.39L91.15,37.12L90.71,37.1L90.02,36.76L89.92,36.26L89.16,34.88L88.36,34.02L88.36,33.67L88.03,33.53L87.69,33.8L87.17,33.62L86.89,33.11L87.24,32.94L87.15,33.45L87.7,33.75L88.05,33.49L87.8,32.97L88.39,33.03L89.07,32.67L89.59,31.7L89.9,31.57L91.09,31.66L91.72,31.25L91.96,30.64L90.79,30.86L90.59,30.69L90.07,31.13L89.94,30.76L91.38,30.17L91.78,30.43L92.16,30.42L92.28,29.91L92.02,29.96L91.92,29.66L92.46,29.59L92.68,29.99L93.38,30.31L93.77,29.92L93.95,29.55L94.32,29.57L94.75,28.01L95.06,27.89L95.19,27.28L95.52,26.76L95.44,26.29L95.14,25.92L96.37,25.7L96.32,26.04L95.9,26.08L95.73,26.52L95.97,26.83L95.88,27.07L96.29,27.09L96.59,26.78L96.73,26.29L96.99,26.37L97.54,25.82L97.46,25.1L97.7,24.89L97.8,24.34L98.14,23.89L98.28,23.32L98.62,22.76L99.23,22.28L99.6,21.75L99.79,21.72L100.46,21.12L101.01,21L101.4,20.21L101.79,20.06L102.01,20.36L101.9,20.87L102.26,21.76L101.3,22.37L101.23,22.91L100.58,23.21L101.23,23.36L102.01,22.65L102.29,21.89L102.81,21.82L102.88,21.99L102.41,22.76L102.83,22.86L103.8,22.24L104.09,21.44L105.34,21.18L105.56,20.78L106.03,20.85L106.15,20.56L106.51,20.51L108.03,21.02L108.69,20.77L108.39,21.3L108.32,21.85L108.68,21.37L108.8,21.9L107.32,22.56L107.13,23.21L106.7,23.89L106.95,23.87L107.19,23.4L108.01,22.89L108.27,22.36L108.94,22.19L109.21,21.83L109.6,21.88L110.06,21.45L110.2,21.13L110.58,20.89L111.21,21.32L111.32,21.56L111.25,22.27L111.66,21.69L111.4,21.18L111.1,21.01L111.84,20.6L112.28,21.07L113.1,20.9L113.24,20.68L112.71,20.54L113.25,20.33L113.22,20.07L113.72,19.52L113.72,19.3L114.12,19.54L114.33,19.18L114.7,19.58L114.91,18.95L115.43,18.99L116.14,18.69L116.4,18.43L116.51,18.76L117.18,18.76L116.87,18.26L116.41,18.05L115.89,17.99L115.25,18.32L114.94,18.27L114.49,18.68L113.97,18.84L113.59,18.62L114.05,17.69L114.62,18.08L115.25,17.85L115.62,17.41L115.76,17.77L116.08,17.96L116.3,17.55L116.81,17.45L117.04,17.7L117.48,16.92L118.61,16.81L118.82,16.4L119.22,16.19L119.03,17.17L119.4,17.35L119.65,17.18L119.87,16.64L119.91,17.11L120.33,17.04L120.5,16.44L120.7,16.82L120.98,16.7L121.25,15.99L121.29,16.3L121.56,16.43L121.9,15.78L121.75,15.3L122.32,14.97L122.67,14.55L123.22,14.32L123.29,14.84L123.61,14.51L124.37,14.09L125.08,14.28L125.27,14.06L126.13,14.06L126.15,14.32L126.46,14.18L127.06,14.22L127.59,14.52L127.87,14.3L128.22,14.31L128.66,13.83L128.52,14.8L128.25,15.07L128.41,15.58L128.34,16.25L129.04,16.2L129.35,15.94L129.6,16.49L129.45,16.76L129.62,17.22L130.45,17.08L130.52,16.69L130.89,16.14L131.14,16.26L131.17,16.9L131.44,16.19L131.23,15.61L131.9,15.52L131.51,15.89L131.62,16.41L131.83,16.4L132.22,15.82L132.19,16.32L131.68,16.54L131.51,16.91L131.79,16.94L131.61,17.23L132.14,17.26L131.63,17.42L131.36,17.25L131.26,17.54L131.56,17.63L131.35,17.97L131.84,17.77L132.54,17.86L132.65,17.53L132.88,17.63L132.94,17.25L133.28,16.88L132.99,16.78L133.15,16.21L133.47,16.2L133.89,16.65L133.9,16.98L134.19,17.3L134.09,16.58L134.33,16.64L134.56,17.37L134.75,17.37L135.01,17.81L135.53,17.78L135.48,18.57L135.94,19.24L136.09,20.08L136.98,20.49L137.38,21.54L137.05,22.15L136.37,22.76L136.36,23.39L135.61,23.39L134.45,24.44L129.48,28.85L129.49,29.95L129.82,29.92L130.08,29.41L130.57,29.42L131.26,29.26L131.32,29.56L132.42,29.85L133.08,29.65L133.49,30.2L133.48,30.6L133.79,30.92L133.7,31.67L133.93,31.88L134.4,31.61L134.87,31.7L135.18,32.39L135.4,32.39L135.9,32.89L136.2,33.01L136.35,33.46L136.9,33.73L137.02,34.07L137.62,34.94L138.07,35.08L138.73,35.62L139.14,36.22L138.77,36.8L138.67,37.65L138.93,38.04L139.05,38.58L139.51,39.33L140.18,39.32L140.43,40.49L140.18,40.94L140.06,41.52L140.8,42.17L141.15,43.23L141.31,43.43L141.35,44.27L141.61,44.67L142.03,45.9L142.4,46.51L142.41,47.15L142.64,47.29L143.1,48.42L143.06,49.31L143.22,49.66L143.61,49.83L143.87,50.22L144,50.89L143.52,51.36L143.86,52.25L140.58,53.12L140.61,52.7L140.4,51.81L139.89,51.22L139.91,50.59L140.22,50.72L140.73,50.27L140.58,49.53L140.69,48.74L140.53,48.67L140.35,48.08L140.46,47.78L140.38,47.2L139.82,46.79L140,46.37L139.85,46L139.96,45.73L139.69,45.06L140,44.41L139.87,44.1L139.56,44.13L139.62,43.63L138.97,43.34L138.79,43.07L138.68,42.4L137.87,42.49L137.62,42.65L137.38,42.43L137.05,41.52L136.86,41.44L136.9,40.79L137.13,40.24L136.71,39.85L137.15,39.01L136.52,38.46L136.56,38.14L136.19,37.9L135.62,38.04L135.36,38.81L134.26,38.95L133.96,39.09L133.64,38.9L133.45,39.49L133.63,39.75L133.28,40.3L133.23,40.6L132.7,40.82L132.02,40.76L131.3,40.85L130.75,40.73L130.76,41.05L130.38,41.32L129.88,42.13L129.41,42.31L129.39,42.64L128.67,42.76L128.85,43.16L128.65,43.25L128.77,43.69L128.36,43.47L127.72,43.38L127.07,42.78L126.52,42.78L126.12,42.53L125.87,41.97L125.41,41.47L125.04,41.61L124.78,40.67L124.62,41.4L124.22,42.17L124.05,42.27L123.93,42.95L123.51,43.39L123.63,43.81L124.18,43.78L124.13,44.5L124.81,44.37L125.01,44.55L124.79,44.97L125.2,45.09L120.87,45.09L114.48,45.09L107.7,45.09L106.79,44.76L106.5,44.89L105.96,44.49L105.31,44.48L104.64,44.83L104.39,45.12L103.95,45.25L103.62,45.04L102.64,45.08L101.74,45.58ZM69.99,60.29L69.28,60.4L69.51,60.05L69.31,59.71L68.9,59.71L68.62,59.21L68.46,59.52L68.19,59.31L68.06,59.61L67.74,59.4L67.6,59.75L67.18,59.55L67.3,59.11L66.89,58.49L66.6,58.48L66.62,58.88L66.04,58.22L66.35,58.02L66.18,57.82L66.37,57.47L66.18,57.18L65.84,57.28L65.79,57.79L65.57,57.35L65.61,56.55L65.41,56.43L65.13,56.68L64.86,56.6L65.08,56.11L64.75,55.97L64.77,55.46L63.78,54.3L63.21,54.54L62.51,54.16L62.05,53.72L61.4,53.37L61.25,52.94L61.08,53.33L60.56,53.17L60.49,52.9L60.1,52.85L59.75,53.66L59.36,53.39L59.49,52.97L58.72,52.95L58.61,53.27L58.23,53.14L58.33,53.47L58.06,53.41L58.09,53.78L58.35,53.96L57.86,54.07L58.18,54.47L58.21,54.91L57.69,55.33L57.14,55.36L57.09,55.73L56.76,56.06L56.24,56.21L56.05,56.78L55.84,56.62L55.07,57L54.45,56.61L54.13,56.64L54.1,56.32L53.84,56.33L53.53,55.91L53.73,55.75L53.59,55.47L53.1,55.54L52.65,55.18L52.78,55.05L52.24,54.84L51.33,54.08L51.4,53.9L50.59,53.4L50.32,53L50.14,52.31L50.3,52.09L50.08,51.28L49.81,51.35L49.29,50.21L48.56,49.94L48.37,49.69L48.39,49.27L47.53,48.34L47.44,48.02L47.01,47.63L46.72,47.03L46.82,46.68L46.82,40.72L46.82,37.02L47.22,36.95L47.12,36.63L47.41,36.3L47.18,36.17L47.37,35.84L47.79,35.65L48,36.16L48.61,35.69L48.97,36.44L49.07,36.11L49.43,36.06L49.82,36.32L49.69,35.81L49.92,35.73L50.04,36.13L49.9,36.45L50.1,36.56L50.2,36.17L50.62,36.2L50.54,36.53L50.85,36.52L50.86,36.04L51.11,35.96L51.26,36.25L51.11,36.6L51.37,36.53L51.41,36.11L51.92,36.42L52.33,36.11L52.73,36.26L52.71,35.89L52.38,35.78L52.98,35.67L53.34,35.76L53.71,35.5L53.97,36L54.44,35.77L54.19,35.58L54.51,35.41L54.57,35.78L55.24,35.13L55.58,34.97L55.7,35.33L56.39,34.77L56.72,34.76L56.76,34.35L57.07,34.59L57.23,34.43L57.1,34.04L56.79,34.09L56.94,33.74L57.35,33.51L57.31,33.22L58.08,32.96L58.81,32.45L59.21,32.81L59.96,33.07L60.48,32.37L60.94,32.5L60.99,33L61.55,32.27L61.91,32.45L61.94,32.88L62.14,32.86L62.09,32.09L62.56,31.83L62.43,31.48L62.82,31.43L62.89,31.18L63.53,31.43L63.82,31.27L63.76,30.74L64.28,30.66L64.59,30.86L64.9,30.7L65.35,30.07L65.68,29.84L66.1,29.87L66.26,30.17L66.57,30.09L66.6,29.57L66.94,29.53L67.24,30.02L67.63,30.22L67.84,29.94L67.55,29.62L67.55,28.96L67.76,28.74L68.44,28.85L68.65,28.53L69.09,29.28L69.79,29.54L70.09,29.4L70.57,29.46L70.73,29.78L70.97,29.45L71.72,29.4L72.49,29.19L72.91,29.27L73.07,28.66L73.46,28.78L73.47,29.48L73.6,29.54L73.91,29.07L73.78,28.47L73.95,28.41L74.33,28.93L74.83,29.25L75.01,28.77L75.35,28.93L75.12,29.35L75.43,29.51L76.06,29.13L76.44,29.19L76.54,28.77L76.94,28.95L77.2,28.67L78.1,28.98L78.11,28.38L78.52,28.74L78.74,28.82L79.05,29.12L79.14,29.17L79.18,29.16L79.27,29L79.32,28.76L79.27,28.64L79.28,28.54L79.62,28.56L79.62,28.88L79.67,28.97L79.79,28.95L79.88,28.83L80.16,28.91L80.33,29.57L80.73,29.48L80.96,29.8L80.68,30.11L79.88,30.15L79.97,30.41L79.34,30.59L78.94,30.49L78.54,31L79.23,30.81L79.65,31.82L78.73,31.9L78.99,31.37L78.81,31.26L78.56,31.61L78.23,31.7L78.43,32.11L79.08,32.69L79.41,32.73L80,33.11L80.21,34.77L79.99,35.06L80.41,34.92L80.29,34.4L80.59,34.38L80.71,33.97L81.04,33.8L80.98,33.47L81.2,32.95L82.35,33.89L82.43,34.27L82.86,34.67L83.22,34.71L82.84,34.25L82.94,33.83L83.27,33.52L83.42,33.78L83.38,34.8L83.14,35.29L83.94,34.58L84.11,34.95L84.39,34.98L84.67,34.16L84.99,34.51L84.84,34.69L85.13,34.9L85.12,34.18L85.66,34.19L85.49,33.92L85.11,34.04L85.13,33.8L86.09,33.19L86.72,33.14L86.78,33.12L86.79,33.1L86.89,33.12L86.89,33.11L87.17,33.62L87.69,33.8L88.03,33.53L88.36,33.67L88.36,34.02L89.16,34.88L89.92,36.26L90.02,36.76L90.71,37.1L91.15,37.12L91.43,37.39L91.7,37.36L91.92,37.89L92.51,37.77L92.47,37.55L93.37,37.42L93.54,37.72L94.14,37.89L94.58,38.24L94.82,38.01L94.79,37.62L95.06,37.83L95.42,37.46L96.16,37.93L96.77,37.79L96.99,37.27L97.28,37.47L97.77,37.47L97.99,37.06L98.59,37.32L98.69,37.89L99.07,38.03L98.76,38.69L98.23,38.91L98.17,39.14L97.34,39.62L97.44,40.08L96.73,40.35L96.43,40.86L95.93,40.93L95.73,40.74L94.98,41.01L94.47,41.04L93.82,41.44L93.32,41.24L92.98,41.41L92.36,41.47L91.99,41.96L91.35,41.88L91.16,42.11L89.95,42.39L89.92,42.61L89.56,42.45L89.16,42.68L88.54,42.31L88.15,42.51L86.64,42.53L86.31,42.33L86.1,42.85L85.86,42.89L85.24,43.5L84.69,43.86L83.72,44L83.4,44.35L82.94,44.32L82.91,44.49L82.37,44.72L81.77,45.38L81.04,45.97L80.24,45.3L80.02,45.44L79.72,45.13L79.05,45.03L78.98,45.19L79.19,46.12L79.05,46.52L79.17,46.96L78.48,47.7L78.46,48.24L78.24,48.86L77.89,49.13L77.9,49.72L77.78,50.18L77.21,51.19L77.21,51.54L76.86,51.57L77,51.84L76.87,52.57L77.1,52.56L77.15,52.92L77.43,53.15L77.48,53.52L77.84,53.9L77.59,54.03L77.09,53.73L77.07,53.18L76.79,53.44L77.03,53.78L76.71,53.66L76.42,54.05L76.46,54.63L75.95,54.97L75.62,55.55L75.24,55.88L74.91,55.92L74.6,55.64L74.18,55.71L73.75,56.19L73.69,56.84L73.27,57.1ZM91.38,30.17L89.94,30.76L89.9,30.42L89.4,30.76L89.37,30.48L89.81,30.22L89.98,29.82L90.73,30.01L90.6,29.28L91.57,29.91ZM81.11,68.92L80.5,68.7L80.58,68.38L80.04,68.1L80.16,67.92L79.49,67.69L79.39,67.29L78.99,67.13L78.97,67.56L78.32,67.79L78.06,67.49L78.23,67.27L77.95,67.16L77.81,67.65L77.19,68.06L76.96,67.87L77.23,67.58L76.98,67.31L76.41,67.45L76.58,66.7L76.09,67.16L75.79,66.69L75.55,66.78L74.77,66.38L74.37,65.73L74.7,65.55L74.67,65.23L74.36,65.37L74.26,65.68L74.01,65.53L73.99,65.04L73.47,64.98L73.8,64.53L73.11,64.44L73.24,64.8L72.86,64.94L72.55,64.73L72.81,64.55L72.8,64.13L72.51,63.28L72.06,63.1L71.83,63.45L71.58,63.22L71.81,62.94L71.51,62.89L71.7,62.41L71.34,61.64L71.1,62.05L70.6,61.7L70.49,61.16L70.73,60.75L70.47,60.37L69.99,60.29L73.27,57.1L73.69,56.84L73.75,56.19L74.18,55.71L74.6,55.64L74.91,55.92L75.24,55.88L75.62,55.55L75.95,54.97L76.46,54.63L76.42,54.05L76.71,53.66L77.03,53.78L76.79,53.44L77.07,53.18L77.09,53.73L77.59,54.03L77.84,53.9L77.48,53.52L77.43,53.15L77.15,52.92L77.1,52.56L76.87,52.57L77,51.84L76.86,51.57L77.21,51.54L77.21,51.19L77.78,50.18L77.9,49.72L77.89,49.13L78.24,48.86L78.46,48.24L78.48,47.7L79.17,46.96L79.05,46.52L79.19,46.12L78.98,45.19L79.05,45.03L79.72,45.13L80.02,45.44L80.24,45.3L81.04,45.97L81.77,45.38L82.37,44.72L82.91,44.49L82.94,44.32L83.4,44.35L83.72,44L84.69,43.86L85.24,43.5L85.86,42.89L86.1,42.85L86.31,42.33L86.64,42.53L88.15,42.51L88.54,42.31L89.16,42.68L89.56,42.45L89.92,42.61L89.95,42.39L91.16,42.11L91.35,41.88L91.99,41.96L92.36,41.47L92.98,41.41L93.32,41.24L93.82,41.44L94.47,41.04L94.98,41.01L95.73,40.74L95.93,40.93L96.43,40.86L96.73,40.35L97.44,40.08L97.27,40.77L97.41,41.2L97,41.51L96.97,41.93L96.64,42.17L96.43,42.86L96.5,43.08L96.88,43.12L97.66,43.92L98,44.07L98.23,44.41L98.96,44.62L99.36,44.89L100.19,44.81L101,45.35L101.21,45.31L101.2,51.39L101.2,54.39L101.81,54.57L101.99,54.25L102.65,53.88L103.28,53.83L103.24,54.42L103.65,54.49L104.07,54.22L104.64,54.1L105.08,54.44L105.87,54.47L106.36,54.36L107.09,54.48L107.37,54.91L107.99,54.35L108.69,54.24L109.16,54.73L109.79,54.7L109.78,54.84L110.44,55.55L110.17,55.78L110.33,56.01L110.82,56.21L110.53,56.65L111.08,57.2L111.27,57.2L111.21,57.7L110.89,57.73L111.07,58.27L111.12,58.85L110.58,59.14L110.69,59.55L111.03,59.63L111.57,60.41L111.5,60.73L111.28,60.55L110.66,60.44L110.37,60.77L110.42,61.11L109.92,61.22L109.07,61.09L109.21,60.53L108.73,60.75L108.53,60.6L108.29,61L107.51,60.3L107.34,59.95L106.4,59.28L105.67,59.77L105.63,60.08L105.19,60.06L104.75,60.43L104.89,60.63L104.61,60.93L104.31,60.81L104,60.29L103.46,60.3L102.96,60.98L102.59,60.93L101.73,61.55L101.65,61.39L100.68,61.53L100.23,61.49L99.93,61.88L99.32,61.52L99,61.59L99.06,61.93L98.34,61.74L98.33,66.07L98.33,71.34L98.39,71.5L98.08,72.12L98.25,72.47L99.02,72.98L99.11,73.22L100.14,74.42L100.58,74.65L101.23,74.6L101.42,75.09L101.69,75.09L102.26,75.4L103,76.19L104.06,76.61L104.14,76.82L104.59,76.98L104.56,77.46L104.82,77.67L104.66,78.21L105.26,78.85L104.75,79.58L104.6,80.13L104.39,80.3L104.71,80.98L105.31,81.44L105.1,81.65L105.82,82.42L105.77,82.99L106.66,83.57L106.65,83.87L107.04,83.92L107.24,84.24L106.96,84.53L107.23,84.71L107.09,85.04L106.68,85.15L106.56,85.38L106.68,86.07L106.32,86.26L106.62,86.49L106.41,87.1L105.99,87.12L105.58,86.78L105.19,86.77L105.03,86.26L104.83,86.13L104.19,86.48L104.18,87.07L103.79,87.27L103.57,86.94L103.57,85.73L104.01,85.7L103.22,84.73L102.79,84.65L102.58,84.44L102.25,84.57L102.37,84.96L102.72,85.15L102.48,85.46L102.08,85.27L101.65,84.55L101.29,84.45L100.87,85.09L100.2,85.23L99.91,85.41L99.52,85.34L99.47,84.91L99.84,84.52L99.71,83.93L100.32,83.53L99.84,83.28L99.57,83.6L98.91,83.61L99,83.29L98.67,83.18L98.61,83.72L98.37,83.75L98,83.33L97.57,83.37L97.01,84.03L97.13,84.32L97.76,84.22L97.88,84.55L97.39,85.16L97.2,85.61L96.87,85.72L96.47,85.47L96.48,85.12L95.9,84.97L95.76,84.58L96.23,83.92L95.87,83.84L95.6,84.33L95.2,84.26L94.62,83.55L94.78,83.14L95.29,83.16L95.43,82.76L95.8,82.55L95.81,82.33L95.4,81.76L94.86,81.3L94.86,80.51L95.33,80.44L95.27,79.95L95.39,79.46L95.37,78.71L95.23,78.07L94.99,77.75L94.69,77.82L94.68,78.14L94.37,78.04L94.44,77.62L94.84,77.09L95.34,76.79L95.51,76.48L96.03,76.59L96.01,76.08L95.46,76.12L95.18,75.74L94.8,75.7L94.59,76.07L94.24,76.03L93.86,76.21L93.85,76.44L94.39,76.45L94.38,76.8L94.11,76.92L93.59,76.86L93.47,76.45L93.25,76.38L92.59,76.8L92.38,76.63L92.61,76.34L92.19,75.49L91.56,74.86L91.44,75.11L91.08,74.95L90.83,75.37L90.65,75.33L90.35,74.7L89.91,74.34L89.51,74.77L88.46,73.86L87.99,74.05L87.9,74.3L88.18,74.45L87.5,74.71L87.19,74.98L86.98,74.45L86.47,73.77L86.53,73.21L86.37,72.78L85.97,72.67L85.91,72.4L85.49,71.89L85.87,71.53L86.14,71.66L86.21,71.25L85.92,71.18L85.73,70.86L85.76,70.5L85.31,70.35L85.19,69.95L84.76,69.81L84.51,69.95L84.57,70.35L84.33,70.46L83.99,70.12L84.23,69.89L83.35,69.88L83.3,69.43L82.98,69.72L82.62,69.25L82.66,68.87L82.32,68.51L82,68.41L81.51,69Z" fill="#B3CFC0" stroke="#007139" stroke-width="0.5"/></svg>