<svg xmlns="http://www.w3.org/2000/svg" width="144" height="144" viewBox="0 0 144 144"><path d="M39.06,75.33L44.43,77.52L51.23,72.57L46.67,59.78L39.07,51.07L41.45,48.42L41.09,44.84L38.75,44.43L37.85,39.93L32.09,39.13L29.25,40.23L28.27,43.92L26,43.34L23.92,37.95L21.88,39.78L23.51,42.87L21.46,48.41L21.81,55.04L19.42,54.4L21.98,31.75L18.89,25.27L15.56,25.85L11.8,19.69L6.09,14.61L0.94,13.71L0,11.95L6.94,1.82L10.81,4.04L25.12,2.72L33.78,6.1L35,10.95L40.37,14.37L42.99,18.35L47.09,16.79L53.18,18.07L54.17,21.13L61.08,26.05L69.68,28.38L73.15,30.3L80.14,20.92L83.3,13.13L81.62,9.86L84.2,5.82L91.02,5.74L94.29,10.21L99.67,10.34L110.78,8.88L109.15,13.56L106.85,13.18L106.87,22.61L104.66,32.73L102.37,38.86L119.36,33.94L121.5,36.57L120.83,39.98L117.4,43.05L117.52,48.87L120.73,52.41L118.56,56.76L121.42,57.64L128.86,50.59L133.78,59.26L132.73,63.86L133.53,71.59L130.71,76.46L131.1,79.98L123.39,90.24L142.24,92.32L144,103.32L143.93,108.86L141.04,115.81L131.21,119.26L131.11,126.81L113.32,127.86L112.46,133.56L109.1,137.33L104.83,136.63L95.83,137.12L93.68,140.19L88.1,142.18L81.46,140.25L71.78,131.87L63.48,129.6L58.35,139.98L56.8,137.17L52.7,136.16L54.63,133.22L54.74,128.81L60.65,124.42L59.97,121.04L55.82,115.01L55.92,112.14L52.71,111.85L49.68,104.21L44.37,101.19L43.93,96.12L40.13,90.28L41.51,88.85L38.26,84.76L39.68,81.89Z" fill="#B3CFC0" stroke="#007139" stroke-width="0.5"/></svg>