<svg xmlns="http://www.w3.org/2000/svg" width="57.138" height="13.564" viewBox="0 0 57.138 13.564">
  <path id="Trazado_2766" data-name="Trazado 2766" d="M920.594,801.241a8.195,8.195,0,0,1-7.765-5.57h-.086l-.2-.969a5.768,5.768,0,0,0-11.3,0l-.2.969h-.086a8.193,8.193,0,0,1-15.523,0h-.086l-.2-.969a5.768,5.768,0,0,0-11.3,0l-2.375-.487a8.2,8.2,0,0,1,15.789-.969h.086l.2.969a5.768,5.768,0,0,0,11.3,0l.2-.969h.086a8.193,8.193,0,0,1,15.523,0h.086l.2.969a5.768,5.768,0,0,0,11.3,0l2.375.487a8.194,8.194,0,0,1-8.025,6.539" transform="translate(-871.481 -787.677)" fill="#c2f284"/>
</svg>
