<svg xmlns="http://www.w3.org/2000/svg" width="144" height="144" viewBox="0 0 144 144"><path d="M42.19,34.8L44.61,34.31L46.22,34.32L47.01,35.18L47.23,37.09L49.45,38.43L51.88,38.2L53.74,39.35L54.38,39.13L56.26,40.34L56.43,39.3L58,40.57L57.92,42L58.65,42.69L59.34,42.01L60.95,42.81L62.14,44.6L62.53,45.64L61.64,46.66L63.29,48.77L62.83,49.26L64.34,50.1L63.44,53.7L63.97,54.89L65.12,55.24L64.89,56.24L66.4,57.22L67.93,57.33L67.84,58.75L69.68,59.38L69.13,61.91L70.05,62.91L69.93,64.1L70.74,65.03L70.27,67.14L70.64,67.77L69.76,69.01L69.84,70.77L70.95,70.57L71.02,71.71L71.89,71.34L72.06,72.66L70.87,73.45L71.3,74.94L69.91,75.85L71,76.9L69.59,77.28L69.27,78.35L68.13,77.75L67.79,79.33L66.5,79.16L64.83,79.81L63.93,78.93L63.21,78.15L62.16,78.59L60.47,77.68L59.14,80.63L56.88,80.58L56.8,77.6L54.79,77L43.82,76.56L44.38,75.23L42.59,75.66L42.02,73.62L39.74,72.33L38.57,73.24L36.89,73.26L35.85,71.92L33.28,68.93L33.87,66.79L33.87,63.49L32.09,61.45L32.92,60L31.56,60.12L30.11,59.29L31.09,57.43L32.82,55.86L33.65,56.39L34.05,55.12L35.3,56.62L35.77,55.24L37.24,54.72L36.74,54.21L37.18,52.24L37.94,53.18L38.95,51.56L38.73,48.88L39.99,49.81L40.2,48.94L39.12,45.24L38.31,44.59L38.27,42.09L38.84,39.99L40.15,40.24L40.09,38.38L38.23,37.8L35.94,37.69L35.74,36.39L38.64,34.24L40.84,34.99ZM104.5,95.71L104.12,92.04L103.13,90.81L101.53,90.63L100.75,92.17L99.9,91.79L99.18,90.07L97.37,90.37L95.59,89.62L93.91,89.68L93.36,85.43L94.83,85.1L94.68,83.8L96.12,82.27L96.4,80.55L98.71,79.06L99.65,77.85L99.22,76.86L99.94,76.7L99.74,75.01L101.49,72.99L103.37,72.15L105.31,70.62L105.31,69.64L106.44,69.58L107.24,67.24L110.14,67.41L111.69,68.27L112.14,67.39L113.11,67.93L113.7,67.06L113.65,65.14L114.29,65.27L115.75,63.53L116.34,64.41L120.94,65.09L120.84,68.26L122.65,68.18L124.45,71.71L125.94,72.97L128.93,72.84L129.23,74.06L127.59,74.68L128.65,75.44L130.24,77.89L129.45,79.03L130.78,80.29L129,80.47L129.69,82.02L128.33,83.93L127.19,84.23L127.41,85.63L124.88,85.9L124.76,87.95L123.12,91.41L121.95,92.2L120.81,94.22L118.93,93.89L118.21,93.15L116.61,94.2L115.01,94.49L114.05,95.7L112.12,96.04L110.44,95.68L109.45,94.53L108.7,95.78L107.25,96.55L106.93,95.65ZM99.22,76.86L99.65,77.85L98.71,79.06L96.4,80.55L96.12,82.27L94.68,83.8L94.83,85.1L93.36,85.43L93.91,89.68L94.12,92.13L91.76,93.36L92.26,95.56L89.85,95.59L89.52,98L88.91,99.06L87.05,98.62L86.83,97.74L84.75,97.19L82.48,94.2L79.92,93.1L77.39,93.28L77.02,92.5L76.27,90.96L76.75,89.68L76.21,88.73L77,87.37L76.22,85.63L76.58,85.08L76.09,81.92L77.03,80.56L78.22,80L79.85,80.49L82.01,79.63L83.61,77.63L84.28,78.12L85.44,77.52L87.1,77.62L88.99,76.9L91,74.26L91.9,73.58L92.34,74.94L91.16,75.74L92.91,77.35L94.93,77.06L95.13,77.97L96.75,78.52L98.72,76.48ZM38.31,44.59L39.12,45.24L40.2,48.94L39.99,49.81L38.73,48.88L38.95,51.56L37.94,53.18L37.18,52.24L36.74,54.21L37.24,54.72L35.77,55.24L35.3,56.62L34.05,55.12L33.65,56.39L32.82,55.86L31.09,57.43L29.9,56.67L30.07,55.55L29.03,54.86L26.52,54.38L24.71,55.49L23.99,51.83L23.46,50.7L24.14,49.24L26.8,47.37L27.75,44.37L28.66,43.59L29.82,43.87L29.39,42.95L31.29,42.73L31.6,43.8L32.48,43.03L33.51,43.63L35.22,42.6L35.79,43.99ZM62.14,44.6L60.95,42.81L59.34,42.01L58.65,42.69L57.92,42L58,40.57L56.43,39.3L56.26,40.34L54.38,39.13L53.74,39.35L51.88,38.2L49.45,38.43L47.23,37.09L47.01,35.18L46.22,34.32L44.61,34.31L46.55,33.54L46.67,34.37L48.06,33.5L50.82,34.61L53.04,37.05L55.49,36.3L57.85,36.54L59.94,37.27L61.15,35.55L60.78,34.61L63.25,34.87L64.15,34.12L64.01,32.72L67.24,32.5L66.15,33.83L68.07,34.25L66.89,36.6L66.32,36.57L65.43,38.21L66.69,38.67L67.23,40.3L65.76,41.66L65.05,43.29L65.48,43.88L63.29,45.45ZM67.72,31.87L66.85,29.65L66.96,27.2L66.58,26.09L66.82,25.64L65.76,22.96L65.18,21.69L67.67,19.9L68.47,20.37L69.25,19.6L70.61,17.15L72,16.38L73.66,16.16L74.12,14.86L75.19,14.36L76.14,17.2L77.31,17.78L77.87,19.59L76.81,21.93L76.74,24.17L75.53,25.52L76.07,26.6L75.9,28.18L74.21,27.9L73.5,28.78L69.48,30.64ZM85.49,21.14L87.28,20.38L88.09,20.82L89.42,19.69L90.2,21.36L91.81,21.37L92.43,22.26L93.2,21.74L94.87,22.68L94.9,24.66L95.64,25.09L99.91,26.15L100.72,25.74L101.87,27.72L101.85,30.3L103.2,31.54L103.69,33.01L105.34,34.63L104.55,34.57L103.29,36.65L102.35,36.13L100.63,37.1L99.33,38.84L98.4,37.92L98.86,37.31L98.11,34.8L97.33,34.42L96.8,35.45L95.25,35.13L93.85,33.92L92.5,34.52L89.65,32.24L87.18,31.51L87.31,30.92L84.9,29.95L80.5,32.1L80.57,32.86L78.07,32.31L78.11,32.77L76.27,32.04L75.8,31.17L76.76,30.82L77.35,29.29L78.92,29.38L79.26,28.42L81.35,28.45L81.92,27.16L81.29,26.1L82.24,26.16L83.51,22.61L84.51,22.65ZM67.23,40.3L66.69,38.67L65.43,38.21L66.32,36.57L66.89,36.6L68.07,34.25L66.15,33.83L67.24,32.5L67.72,31.87L69.48,30.64L73.5,28.78L74.21,27.9L75.9,28.18L77.35,29.29L76.76,30.82L75.8,31.17L76.27,32.04L78.11,32.77L79.24,33.33L78.8,35.56L80.08,36.32L79.4,39.12L79.33,44.29L80.09,45.56L80,48.04L78.46,48.36L77.24,50.06L80.51,50.93L81.34,52.65L81.11,54.14L81.84,55.42L81.98,57.01L79.67,57.57L79.6,58.29L81.07,58.44L80.21,59.57L78.73,59.07L78.34,57.97L76.8,57.35L76.38,55.81L75,55.47L73.85,53.5L74.39,52.87L74.38,50.97L75.6,50.35L74.56,49.38L75.5,48.42L73.2,46.24L72.9,44.85L71.16,43.99L70.27,42.6L68.61,41.93ZM65.76,22.96L66.82,25.64L66.58,26.09L65.77,26.77L65.42,29.1L64.4,28.63L64.28,29.6L62.85,29.55L62.8,30.58L61.72,30.75L61.28,29.91L59.63,30.1L59.77,28.59L58.75,27.66L59.16,26.17L60.73,27.59L62.65,26.82L61.98,24.19L63.68,23.24ZM93.91,89.68L95.59,89.62L97.37,90.37L99.18,90.07L99.9,91.79L100.75,92.17L101.53,90.63L103.13,90.81L104.12,92.04L104.5,95.71L103.33,96.29L100.99,94.67L99.2,96.38L99.83,97.16L99.42,98.71L97.91,99.31L96.12,102.06L94.95,102.92L93.09,102.88L92.53,102.53L91.66,100.26L90.49,99.51L89.52,98L89.85,95.59L92.26,95.56L91.76,93.36L94.12,92.13ZM69.25,19.6L68.47,20.37L67.67,19.9L65.18,21.69L65.76,22.96L63.68,23.24L61.98,24.19L62.65,26.82L60.73,27.59L59.16,26.17L58.75,27.66L58.03,28.01L55.44,27.55L54.15,26.55L52.68,26.31L49.97,29.04L48.53,28.32L47.2,29.11L45.47,28.83L45.76,27.87L44.44,26.63L41.57,27.05L40.63,26.42L39.85,25.37L37.64,24.98L39.31,24.56L40.39,22.99L40.37,20.5L42.64,19.42L44.69,19.93L45.14,18.64L43.3,17.09L47.43,15.85L47.48,15.07L48.96,13.34L50.75,12.62L51.37,10.9L53.36,9.35L53.26,8.58L54.59,8.66L55.51,7.14L57.32,7.59L58.05,10.22L60.68,9.26L62.2,11.27L63.22,11.26L63.77,13.35L63.24,13.93L63.28,15.97L64.94,15.98L65.65,16.59L66.78,15.75L67.87,15.9L68.13,17.58ZM35.94,37.69L38.23,37.8L40.09,38.38L40.15,40.24L38.84,39.99L38.27,42.09L38.31,44.59L35.79,43.99L35.22,42.6L33.51,43.63L32.48,43.03L31.6,43.8L31.29,42.73L29.39,42.95L29.82,43.87L28.66,43.59L27.75,44.37L26.8,47.37L24.14,49.24L23.46,50.7L23.17,49.93L21.01,48.18L19.66,47.58L22.27,44.88L20.07,39.41L19.87,38.42L25.1,36.31L26.1,35.11L26.68,35.84L29.84,37.53L30.07,39.12L35.11,38.8ZM75.19,14.36L74.12,14.86L73.66,16.16L72,16.38L70.61,17.15L69.25,19.6L68.13,17.58L67.87,15.9L68.77,13.68L68.57,10.47L70.34,7.95L71.91,8.09L73.33,6.56L74.31,8L75.26,8.41L76.07,9.98L75.03,10.2L74.6,11.46L76.31,12.01ZM77.02,92.5L77.39,93.28L79.92,93.1L82.48,94.2L84.75,97.19L86.83,97.74L87.05,98.62L88.91,99.06L89.52,98L90.49,99.51L91.66,100.26L92.53,102.53L93.09,102.88L93.56,103.62L92.63,107.45L91.88,108.31L89.4,108.71L88.3,109.37L86.91,111.79L84.82,110.7L84.39,109.82L85.74,108.42L85.74,105.4L84.63,105.81L83.38,104.67L83.01,105.4L81.13,105.48L79.38,106.45L77.62,106.76L77.64,105.28L78.61,103.74L79.75,104.04L81.32,103.02L79.47,101.33L78.32,101.04L77.75,99.96L75.73,98.24L74.02,99.33L72.51,99.13L69.78,97.49L67.28,97.27L65.26,99.19L64.92,100.96L62.19,101.5L62.96,102.76L61.82,102.85L61.2,104.82L59.68,104.67L58.83,106.65L58.05,107.33L58.5,108.52L57.79,109.57L60.42,110.56L59.26,112L59.32,113.07L58.4,113.63L57.29,118.65L58.07,118.94L57.18,120.38L57.09,121.65L55.72,122.71L54.95,124.3L54.57,126.77L53.71,127.58L53.46,129.13L51.21,132.02L51.14,133.02L48.76,134.22L48.45,136.51L49.66,138.46L50.41,143.31L44.38,142.8L44.61,139.5L45.61,137.51L45.98,134.88L48.77,133.02L48.83,132.09L50.41,129.89L51.06,129.64L51.53,125.49L50.88,124.29L50.58,122.25L49.97,121.94L49.98,120.15L51.21,118.74L51.3,116.18L50.88,113.43L50.24,112.6L50.26,110.35L48,109.15L47.87,106.23L47.4,105.02L49.37,102.91L49.44,100.8L50.16,99.54L50.93,96.69L52.59,97.27L54.59,96.03L55.42,94.12L56.21,95.12L57.68,93.57L58.68,93.36L59.36,91.94L58.97,90.84L59.28,89.28L61.65,87.81L61.61,88.84L63,91.33L64.85,90.18L65.68,90.93L64.94,94.28L65.08,96.36L66.03,96.22L66.8,94.91L68.87,95.52L69.38,94.65L70.68,96.33L71.48,95.18L73.24,95.92L74.72,95.72L75.65,92.83ZM43.3,17.09L45.14,18.64L44.69,19.93L42.64,19.42L40.37,20.5L40.39,22.99L39.31,24.56L37.64,24.98L36.5,23.32L35,23.13L35.44,22.58L36.21,18.88L36.17,16.58L36.57,14.98L38.97,13.94L41.23,11.8L40.51,10.45L41.36,9.23L43.98,12.37L43.82,14.23L45.18,14.26L45.47,15.05L43.73,15.75ZM63.93,78.93L64.83,79.81L66.5,79.16L67.79,79.33L68.13,77.75L69.27,78.35L69.59,77.28L71,76.9L69.91,75.85L71.3,74.94L70.87,73.45L72.06,72.66L71.89,71.34L71.02,71.71L70.95,70.57L69.84,70.77L69.76,69.01L70.64,67.77L70.27,67.14L70.74,65.03L69.93,64.1L70.49,62.44L71.77,62.29L72.37,60.85L76.38,62.52L75.58,64.06L76.02,65.49L77.75,67.56L78.16,67.22L78.97,69.47L80.33,68.38L84.29,70.52L86.97,70.76L87.76,71.62L89,71L90.67,71.99L91.6,71.68L91.9,73.58L91,74.26L88.99,76.9L87.1,77.62L85.44,77.52L84.28,78.12L83.61,77.63L82.01,79.63L79.85,80.49L78.22,80L77.03,80.56L76.09,81.92L76.58,85.08L76.22,85.63L77,87.37L76.21,88.73L76.75,89.68L76.27,90.96L77.02,92.5L75.65,92.83L74.72,95.72L73.24,95.92L71.48,95.18L70.68,96.33L69.38,94.65L68.87,95.52L66.8,94.91L66.03,96.22L65.08,96.36L64.94,94.28L65.68,90.93L64.85,90.18L63,91.33L61.61,88.84L61.65,87.81L62.62,85.73L64.74,82.88L64.78,81.3L63.68,80.13ZM103.37,72.15L101.49,72.99L99.74,75.01L99.94,76.7L99.22,76.86L98.72,76.48L96.75,78.52L95.13,77.97L94.93,77.06L92.91,77.35L91.16,75.74L92.34,74.94L91.9,73.58L91.6,71.68L90.67,71.99L89,71L87.76,71.62L86.97,70.76L84.29,70.52L80.33,68.38L78.97,69.47L78.16,67.22L77.75,67.56L76.02,65.49L75.58,64.06L76.38,62.52L72.37,60.85L73.54,56.11L74.6,56.48L75,55.47L76.38,55.81L76.8,57.35L78.34,57.97L78.73,59.07L80.21,59.57L81.07,58.44L79.6,58.29L79.67,57.57L81.98,57.01L83.5,58.97L86.22,58.89L87.45,59.57L91.93,59.49L94.36,59.02L93.52,61.45L95.29,63.85L94.61,64.9L96.33,65.07L97.78,65.91L99.55,65.94L100.25,67.04L101.26,66.07L102.87,68.94L101.73,69.7ZM42.19,34.8L40.84,34.99L38.64,34.24L35.74,36.39L35.94,37.69L35.11,38.8L30.07,39.12L29.84,37.53L26.68,35.84L26.1,35.11L26.22,33.71L30.11,30.96L30.27,28.38L31.08,26.79L35,23.13L36.5,23.32L37.64,24.98L39.85,25.37L40.63,26.42L42.54,29.49L43.68,29.56L43.36,30.55L41.76,31.67L42.26,33.3L43.17,33.15ZM50.41,143.31L49.66,138.46L48.45,136.51L48.76,134.22L51.14,133.02L51.21,132.02L53.46,129.13L53.71,127.58L54.57,126.77L54.95,124.3L55.72,122.71L57.09,121.65L57.18,120.38L58.07,118.94L57.29,118.65L58.4,113.63L59.32,113.07L59.26,112L60.42,110.56L57.79,109.57L58.5,108.52L58.05,107.33L58.83,106.65L59.68,104.67L61.2,104.82L61.82,102.85L62.96,102.76L62.19,101.5L64.92,100.96L65.26,99.19L67.28,97.27L69.78,97.49L72.51,99.13L74.02,99.33L75.73,98.24L77.75,99.96L78.32,101.04L79.47,101.33L81.32,103.02L79.61,103.73L78.18,103.64L78.17,104.36L76.08,106.45L76.15,108.58L75.36,110.15L76.18,111.6L76.47,113.54L75.22,114.54L75.15,115.73L71.56,115.82L70.79,117.38L70.44,119.91L69.09,121.01L68.79,124.41L70.34,126.88L69.77,127.73L67.65,127.98L65.56,125.88L64.01,126.8L64.33,128.26L63.46,129.09L63.28,130.47L63.92,131.56L62.54,132.72L63.36,133.44L62.51,136.27L61.53,137.24L60,137.46L59.39,142.34L58.59,144ZM67.87,15.9L66.78,15.75L65.65,16.59L64.94,15.98L63.28,15.97L63.24,13.93L63.77,13.35L63.22,11.26L64.28,9.74L65.27,10.63L67.44,8.88L68.16,6.93L67.45,5.79L68.16,5.19L70.39,7.19L71.9,5.87L73.33,6.56L71.91,8.09L70.34,7.95L68.57,10.47L68.77,13.68ZM78.11,32.77L78.07,32.31L80.57,32.86L80.5,32.1L84.9,29.95L87.31,30.92L87.18,31.51L89.65,32.24L92.5,34.52L93.85,33.92L95.25,35.13L96.8,35.45L97.33,34.42L98.11,34.8L98.86,37.31L98.4,37.92L97.43,36.69L96.04,37.81L96.45,38.31L95.31,40.58L93.44,39.99L93.16,40.82L90.72,42.67L90.89,45.05L93.17,46.44L93.94,47.54L93.57,49.59L91.7,53.39L94.36,59.02L91.93,59.49L87.45,59.57L86.22,58.89L83.5,58.97L81.98,57.01L81.84,55.42L81.11,54.14L81.34,52.65L80.51,50.93L77.24,50.06L78.46,48.36L80,48.04L80.09,45.56L79.33,44.29L79.4,39.12L80.08,36.32L78.8,35.56L79.24,33.33ZM75.9,28.18L76.07,26.6L75.53,25.52L76.74,24.17L76.81,21.93L77.87,19.59L78.86,20.27L80.64,17.54L80.95,16.15L82.27,16.58L83.53,13.78L84.91,14.44L84.31,16.12L85.11,18.49L84.3,19.91L85.49,21.14L84.51,22.65L83.51,22.61L82.24,26.16L81.29,26.1L81.92,27.16L81.35,28.45L79.26,28.42L78.92,29.38L77.35,29.29ZM63.22,11.26L62.2,11.27L60.68,9.26L58.05,10.22L57.32,7.59L57.88,6.34L56.62,5.97L57.49,3.64L57.49,1.58L61.69,1.03L61.82,2.53L59.83,2.27L59.12,3.37L62.75,3.76L65.35,1.82L68.39,2.35L68.16,5.19L67.45,5.79L68.16,6.93L67.44,8.88L65.27,10.63L64.28,9.74ZM57.32,7.59L55.51,7.14L54.59,8.66L53.26,8.58L53.36,9.35L51.37,10.9L50.75,12.62L48.96,13.34L47.48,15.07L47.43,15.85L43.3,17.09L43.73,15.75L45.47,15.05L45.18,14.26L43.82,14.23L43.98,12.37L41.36,9.23L42.58,7.63L46.93,6.38L49.6,4.9L51.05,2.84L50.3,1.97L51.62,0.41L53.33,0L53.92,0.87L55.82,1.63L57.49,1.58L57.49,3.64L56.62,5.97L57.88,6.34ZM69.93,64.1L70.05,62.91L69.13,61.91L69.68,59.38L67.84,58.75L67.93,57.33L66.4,57.22L64.89,56.24L65.12,55.24L63.97,54.89L63.44,53.7L64.34,50.1L62.83,49.26L63.29,48.77L61.64,46.66L62.53,45.64L62.14,44.6L63.29,45.45L65.48,43.88L65.05,43.29L65.76,41.66L67.23,40.3L68.61,41.93L70.27,42.6L71.16,43.99L72.9,44.85L73.2,46.24L75.5,48.42L74.56,49.38L75.6,50.35L74.38,50.97L74.39,52.87L73.85,53.5L75,55.47L74.6,56.48L73.54,56.11L72.37,60.85L71.77,62.29L70.49,62.44ZM81.32,103.02L79.75,104.04L78.61,103.74L77.64,105.28L77.62,106.76L79.38,106.45L81.13,105.48L83.01,105.4L83.38,104.67L84.63,105.81L85.74,105.4L85.74,108.42L84.39,109.82L84.82,110.7L84.31,111.73L85.15,112.8L83.74,114.58L83.36,116.67L82.31,118.38L79.94,118.15L79.45,118.84L79.7,120.45L78.53,122.14L78.27,125.04L77.21,125L74.89,127.69L72.13,127.67L70.34,126.88L68.79,124.41L69.09,121.01L70.44,119.91L70.79,117.38L71.56,115.82L75.15,115.73L75.22,114.54L76.47,113.54L76.18,111.6L75.36,110.15L76.15,108.58L76.08,106.45L78.17,104.36L78.18,103.64L79.61,103.73ZM44.61,34.31L42.19,34.8L43.17,33.15L42.26,33.3L41.76,31.67L43.36,30.55L43.68,29.56L42.54,29.49L40.63,26.42L41.57,27.05L44.44,26.63L45.76,27.87L45.47,28.83L47.2,29.11L48.53,28.32L49.97,29.04L52.68,26.31L54.15,26.55L55.44,27.55L58.03,28.01L58.75,27.66L59.77,28.59L59.63,30.1L61.28,29.91L61.72,30.75L62.8,30.58L62.85,29.55L64.28,29.6L64.4,28.63L65.42,29.1L65.77,26.77L66.58,26.09L66.96,27.2L66.85,29.65L67.72,31.87L67.24,32.5L64.01,32.72L64.15,34.12L63.25,34.87L60.78,34.61L61.15,35.55L59.94,37.27L57.85,36.54L55.49,36.3L53.04,37.05L50.82,34.61L48.06,33.5L46.67,34.37L46.55,33.54ZM43.82,76.56L54.79,77L56.8,77.6L56.88,80.58L59.14,80.63L60.47,77.68L62.16,78.59L63.21,78.15L63.93,78.93L63.68,80.13L64.78,81.3L64.74,82.88L62.62,85.73L61.65,87.81L59.28,89.28L58.97,90.84L59.36,91.94L58.68,93.36L57.68,93.57L56.21,95.12L55.42,94.12L54.59,96.03L52.59,97.27L50.93,96.69L50.16,99.54L49.44,100.8L49.37,102.91L47.4,105.02L47.87,106.23L48,109.15L50.26,110.35L50.24,112.6L50.88,113.43L51.3,116.18L51.21,118.74L49.98,120.15L49.97,121.94L50.58,122.25L50.88,124.29L51.53,125.49L51.06,129.64L50.41,129.89L48.83,132.09L48.77,133.02L45.98,134.88L45.61,137.51L44.61,139.5L44.38,142.8L22.28,140.95L20.12,139.36L17.93,134.94L17.44,133.5L14.59,130.68L13.22,127.62L13.4,126.01L14.73,123.93L14.51,123.08L15.19,120.59L14.44,116.46L15.33,115.89L15.48,111.6L16.57,109.66L16.64,108.1L17.63,107.63L18.78,105.57L19.56,105.36L19.43,102.71L19.94,102.44L20.2,98.84L20.66,97.68L22.56,95.92L25.48,96.68L27.99,95.58L29.67,94.45L31.59,93.87L33.34,92.24L33.77,90.87L35.46,89.01L39.75,89.62L40.91,89.38L41.67,87.57L43.91,87.04L45.02,84.44L44.75,82.82L43.65,82.19L43.39,80.7L44.76,81.17L44.57,79.43L43.86,78.44ZM77.87,19.59L77.31,17.78L76.14,17.2L75.19,14.36L76.31,12.01L77.32,11.55L78.75,12.92L81.18,13.03L82.09,11.15L82.27,12.77L83.53,13.78L82.27,16.58L80.95,16.15L80.64,17.54L78.86,20.27ZM35.85,71.92L36.89,73.26L38.57,73.24L39.74,72.33L42.02,73.62L42.59,75.66L44.38,75.23L43.82,76.56L43.86,78.44L44.57,79.43L44.76,81.17L43.39,80.7L43.65,82.19L44.75,82.82L45.02,84.44L43.91,87.04L41.67,87.57L40.91,89.38L39.75,89.62L35.46,89.01L33.77,90.87L33.34,92.24L31.59,93.87L29.67,94.45L27.99,95.58L25.48,96.68L22.56,95.92L20.66,97.68L20.2,98.84L19.15,98.06L18.98,95.5L19.4,94.45L20.4,94.26L20.43,92.48L22.69,91.69L22.95,89.06L23.88,89.31L25.56,88.66L24.41,87.54L24.28,85.4L25.84,82.78L26.13,81.19L27.55,79.84L27.54,78.01L28.13,77.74L29.91,75.27L32.74,73.24L35.65,72.42Z" fill="#B3CFC0" stroke="#007139" stroke-width="0.5"/></svg>