<svg xmlns="http://www.w3.org/2000/svg" width="144" height="144" viewBox="0 0 144 144"><path d="M86.86,18.61L86.33,19.04L86.44,19.68L86.13,20.11L84.99,21.19L85.06,21.54L84.35,21.82L84.89,22.55L84.32,22.78L84.22,23.16L83.85,23.44L84.1,23.79L83.6,23.75L83.55,24.17L83.9,24.48L83.52,25.05L83.82,25.47L83,25.78L83.29,26.39L82.4,27.12L82.98,27.49L82.47,27.85L82.42,28.25L81.84,28.66L81.42,29.56L80.37,29.73L79.98,30.3L79.43,30.47L78.68,31.68L78.12,31.75L77.28,32.82L77.27,33.26L75.83,35.12L74.83,35.27L74.13,35.9L73.52,36.16L73.17,36.53L73.19,37.26L72.79,37.31L72.59,38.23L71.75,38.55L71.22,38.33L70.78,38.75L70.01,40.68L69.54,41.36L69.53,42.03L68.51,42.82L68.66,43.17L68.32,43.97L68.64,44.73L68.58,45.29L68.07,45.5L67.67,45.98L67.29,46.88L67.24,47.45L66.64,47.22L66.28,46.82L66.33,46.21L65.79,45.77L65.82,46.91L63.95,46.66L62.57,47.01L61.76,46.11L61.78,45.17L62.03,44.47L61.71,43.27L62.21,43.42L61.85,42.82L61.53,41.53L61.22,41.14L61.1,39.59L60.76,39.03L59.93,38.48L59.66,37.33L59.32,37.37L59.32,36.96L58.81,37.31L57.84,37.39L57.41,37.17L57.67,36.38L58.59,35.89L59.02,35.61L58.79,35.29L58.78,34.56L59.05,34L59.8,32.96L60.58,32.57L61.06,32.53L60.7,32.23L59.71,32.28L59.15,31.73L59.53,31.17L59.29,30.61L59.49,30.11L59.3,29.59L59.11,28.3L58.68,28.2L58.63,27.54L59.39,27.01L60.34,26.07L60.24,25.8L60.87,25.11L61.43,25.17L61.99,24.34L62.08,23.37L62.66,24.34L63.12,24.06L64.25,23.85L64.43,24.4L64.93,24.46L65.62,24.83L65.99,24.29L66.57,24.07L67.77,24.28L68.62,23.91L70,24.27L70.93,24.15L71.89,24.28L71.88,23.95L72.71,23.52L72.87,23.86L73.45,23.52L74.17,23.57L74.09,23.32L74.62,23.13L74.82,23.49L75.09,23.25L74.7,22.93L74.54,22.39L75.26,21.84L75.28,21.56L74.81,20.63L74.01,20.21L73.52,19.38L73.58,19.05L73.27,18.4L72.74,17.86L72.97,17.12L73.81,16.63L73.3,15.97L72.48,15.54L71.62,12.32L71.65,6.54L69.74,5.74L70.65,5.12L70.36,4.89L69.75,4.87L68.98,4.41L68.56,3.89L67.69,3.6L66.34,3.61L66.56,3.16L66.34,2.96L67.15,2.03L68.19,1.38L69.61,0.96L71.61,0.9L72.48,0.37L72.76,0.45L73.43,0.01L75.07,0.1L77.28,0L77.66,0.33L79.44,0.32L80.31,0.44L80.85,0.96L81.82,0.25L82.29,0.47L82.44,0.9L83,1.12L83.01,1.68L83.39,1.82L83.57,2.86L83.22,3.73L83.53,4.38L82.83,5.17L82.52,5.71L82.4,6.39L83,6.13L83.71,6.16L84.21,5.75L84.64,6.17L85.19,6.2L85.52,7.25L87.01,7.05L87.55,6.87L87.86,7.57L88.57,8.2L89.99,8.6L90.47,9.42L90.39,9.8L91.11,10.78L90.78,11.74L90.97,12.01L90.92,12.68L90.61,13.15L90.31,13.13L90.33,13.86L90.52,14L90.05,14.81L89.71,14.82L89.1,15.48L88.87,15.2L88.56,15.54L88.55,16.01L88.11,16.27L88.31,16.68L87.85,16.74L87.45,17.36L86.97,17.51L86.75,18.46ZM66.33,126.4L67.35,128.92L66.55,129.17L66.43,129.51L65.49,129.7L65.06,129.54L64.06,129.48L63.28,129.79L62.82,129.51L62.68,128.96L61.94,128.26L62.17,127.99L61.39,127.38L61.75,127.14L61.35,126.68L60.74,126.52L60.71,125.98L60.02,124.92L59.75,125.03L59.67,124.53L60.19,124.75L60.51,124.14L60.26,123.31L60.44,122.42L61.47,122.44L61.14,121.16L61.37,120.93L61.96,121.13L62.39,120.96L64.32,120.95L63.83,119.32L63.94,117.87L64.52,114.79L64.46,114.42L65.14,114.13L66.07,113.09L66.03,112.54L65.73,111.87L66.9,111.67L67.4,111.85L66.38,107.45L67.07,107.78L68.01,107.45L68.43,107.46L68.92,107.05L69.1,106.63L69.45,106.99L69.12,107.25L69.78,107.28L69.87,107.81L70.39,108.18L71.48,107.66L72.79,107.9L73.51,108.23L73.71,108.67L73.64,109.34L73.05,109.76L72.77,110.65L71.76,111.6L71.39,112.15L71.84,112.06L73.05,112.11L73.68,112.55L73.79,112.89L74.44,113.12L73.47,114.09L73.15,114.8L72.18,115.58L71.65,116.34L71.41,116.23L70.89,116.79L70.92,117.24L70.65,118.07L70.14,118.51L70.15,119.38L69.69,120.3L68.47,120.81L67.88,121.39L68.06,121.85L69.47,124.54L68.68,124.21L67.72,124.74L67.36,124.63L65.62,124.46ZM94.83,42.82L93.63,43.55L93.47,44.07L92.51,44.55L92.05,44.59L92.05,44.97L90.77,45.58L89.94,46.63L89.12,47.02L89.11,47.33L87.94,47.62L87.15,48.6L86.25,48.19L85.77,47.67L85.13,47.43L83.65,47.7L82.74,47.52L82,48.14L81.95,48.47L81.27,48.82L80.75,48.86L80.21,49.42L78.6,49.03L77.71,49.02L76.74,49.44L76,49.45L74.95,49.85L73.84,49.54L73.82,50L72.91,50.59L72.76,50.96L72.08,50.7L71.84,50.28L71.35,50.44L69.47,50.43L69.02,50.64L68.81,50.44L68.52,50.79L67.67,51.29L67.18,51.77L66.83,51.67L67.04,51.34L66.84,50.82L66.84,50.18L67.11,50.19L67.6,49.95L67.67,49.35L68.47,49.32L68.83,49.02L69.08,48.4L69.71,47.98L70.3,47.83L70.3,47.44L71.03,47.18L70.99,46.91L71.62,46.59L71.52,46.31L72.24,45.53L72.51,44.59L73.42,44.23L73.49,43.83L74.55,43.56L74.91,42.94L74.92,42.58L75.32,42.58L75.29,42.13L74.46,41.41L74.32,40.97L74.72,41.01L74.73,40.48L75.19,40.33L75.21,39.82L75.69,39.36L76.78,38.8L76.84,38.38L78.41,36.96L79.32,36.46L80.09,36.7L80.37,36.34L81.54,36.46L81.79,36.9L82.5,37.17L84.17,36.28L84.76,36.31L85.61,37.37L86.24,37.34L86.84,36.93L87.96,35.78L87.82,35.03L88.47,34.12L89.77,34.77L90.93,34.47L91.12,34.15L92.1,33.45L93.34,32.19L93.71,32.24L94.95,31.71L95.11,31.43L95.77,31.13L96.26,30.42L96.95,29.96L97.37,29.23L98.26,28.67L98.74,27.97L98.67,27.38L98.9,27.14L99.18,28.04L99.09,28.95L99.33,29.37L99.24,29.8L98.8,30L98.85,31.32L98.46,31.98L98.23,33.02L98.7,34.07L98.27,34.33L98.07,35.07L97.22,36.03L96.8,36.26L96.6,36.83L96.79,37.19L96.86,38.04L96.43,38.44L96.5,38.92L96.24,39.43L95.85,39.58L95.46,40.45L95.62,41.12L95.36,41.27L95.26,41.89ZM59.8,60.76L59.7,62.15L59.17,62.32L59.52,63.27L57.89,63.36L57.5,63.85L56.41,63.61L55.62,64.24L55.11,64.35L54.27,65.4L54.27,66.59L53.58,66.62L53.5,67L52.59,67.3L51.82,66.78L51.24,66.82L50.54,66.41L50.26,66.57L49.2,65.54L48.72,65.25L48.07,65.24L47.42,64.67L47.23,64.22L46.18,63.39L45.93,62.88L44.86,62.71L44.38,62.45L44.15,61.99L44.93,61.66L45.05,61.34L45.57,61.04L45.92,60.36L46.7,59.64L47.42,58.73L47.87,58.82L48.63,57.71L49.63,57.69L49.8,57.51L50.51,57.75L50.39,58.09L50.74,58.23L50.95,57.92L52.54,57.72L52.97,57.39L54.01,57.07L54.27,57.24L55,56.58L55.51,56.7L55.77,57.34L56.14,57.27L59.02,55.67L59.98,56.77L59.93,57.31L60.29,57.85L59.9,57.91L59.3,58.39L59.18,59.31L59.58,59.96L59.31,60.04ZM67.18,51.77L67.67,51.29L68.52,50.79L68.81,50.44L69.02,50.64L69.47,50.43L71.35,50.44L71.84,50.28L72.08,50.7L72.76,50.96L72.91,50.59L73.82,50L73.84,49.54L74.95,49.85L76,49.45L76.74,49.44L77.71,49.02L78.6,49.03L80.21,49.42L80.75,48.86L81.27,48.82L81.95,48.47L82,48.14L82.74,47.52L83.65,47.7L85.13,47.43L85.77,47.67L86.25,48.19L87.15,48.6L87.94,47.62L89.11,47.33L89.12,47.02L89.94,46.63L90.77,45.58L92.05,44.97L92.05,44.59L92.51,44.55L93.47,44.07L93.63,43.55L94.83,42.82L95.6,43.08L95.28,43.86L95.73,44.38L95.07,44.78L96.05,45.28L96.04,45.8L96.98,46.07L97.28,46.34L96.67,47.33L96.27,47.49L95.9,48.14L95.3,48.56L94.63,50.03L94.5,50.94L94.13,51.17L93.24,52.36L92.73,53.31L92.31,53.78L92.04,54.62L92.07,55.05L91.64,55.85L90.34,56.01L89.36,55.6L88.28,56.45L87.18,56.22L86.49,55.92L85.17,56.4L84.04,57.43L83.57,57.47L82.79,57.24L82.47,57.45L81.73,57.51L81.34,57.89L80.12,57.89L80.05,57.6L79.56,57.47L77.94,56.06L78.1,55.68L77.94,55.15L77.34,55.13L76.8,54.61L76.42,54.69L76.05,53.93L75.17,53.49L74.27,53.43L74.18,53.05L73.75,53.11L73.28,53.88L72.96,53.97L72.64,54.33L71.73,54.53L71.29,54.17L71.02,54.48L70.1,54.47L69.38,54.85L69.16,54.7L68.3,55.11L67.54,54.92L66.63,55.54L66.08,54.51L66.31,53.8L66.08,53.7L66.12,53.14L66.71,52.88ZM58.59,35.89L57.67,36.38L57.41,37.17L57.84,37.39L58.81,37.31L59.32,36.96L59.32,37.37L59.66,37.33L59.93,38.48L60.76,39.03L61.1,39.59L61.22,41.14L61.53,41.53L61.85,42.82L62.21,43.42L61.71,43.27L62.03,44.47L58.99,47.4L58.37,47.63L57.72,48.36L57.51,49.16L57.3,48.42L56.9,48.31L56.62,47.85L55.85,47.71L55.24,46.77L54.8,46.58L54.48,45.76L53.07,43.48L52.42,42.95L52.21,42.42L51.33,42.2L50.68,42.22L50.18,41.96L49.74,40.34L49.16,40.03L48.65,39.04L48.89,39.02L49.47,38.12L49.81,38.21L51.57,37.61L52.08,37.76L53.81,36.83L56.18,36.32L56.73,36.08L57.78,35.96L58.13,35.75ZM51.24,66.82L51.82,66.78L52.59,67.3L53.5,67L53.58,66.62L54.27,66.59L54.27,65.4L55.11,64.35L55.62,64.24L56.41,63.61L57.5,63.85L57.89,63.36L59.52,63.27L59.17,62.32L59.7,62.15L59.67,62.48L60.07,62.67L60.76,62.6L61.2,63.68L60.85,64L60.91,64.48L61.24,64.67L61.2,65.32L61.53,65.43L61.49,65.96L61.77,66.55L61.5,67.18L61.94,67.56L62.13,68.51L62.87,68.41L63.07,69.18L63.66,69.54L63.89,69.97L63.38,70.53L63.3,71.72L63.61,72.29L64.05,72.51L63.93,72.91L64.28,73.59L63.81,74.56L65.15,76.43L65.23,77.23L65.52,77.96L65.12,78.79L65.58,79.32L65.66,80.24L66.08,80.99L66.64,81.26L67.72,80.6L68.05,80.2L68.82,80.28L70.06,79.31L70.7,79.5L71.15,78.77L71.84,78.51L73.89,78.45L74.55,78.19L75.86,78.87L75.65,79.76L76.23,80.59L76.24,81.74L76.43,81.97L75.97,83.07L75.92,83.82L75.34,84.38L74.06,84.61L72.91,85.18L72.11,84.86L71.86,84.59L71.2,84.58L70.29,84.08L70,83.21L70.04,82.53L69.6,82.06L69.8,81.58L68.89,81.2L68.41,81.75L67.73,82.19L67.55,82.53L66.68,82.39L65.8,83L63.98,82.67L63.47,82.81L62.97,82.54L61.16,81.97L59.21,81.7L58.75,81.19L56.31,79.32L55.81,78.49L55.79,77.84L56.31,77.03L56.31,76.23L55.65,76L55.09,76.55L54.42,76.38L51.95,75.92L52.22,75.53L51.86,75.06L51.82,74.4L52.42,73.86L52.44,72.81L52.79,72.28L52.66,71.72L52.81,71.32L52.14,70.68L51.38,70.67L50.75,70.1L50.72,68.54L50.95,67.92L50.97,67.16ZM59.7,62.15L59.8,60.76L66.47,60.75L66.48,60.09L65.95,59.83L66.02,58.75L66.83,58.08L67.27,58.11L67.86,57.58L68.68,57.17L68.9,57.4L69.54,57.34L70.03,56.86L71.13,57.17L72.44,57.93L73.15,58.14L72.62,58.66L72.54,59.07L71.99,59.73L71.67,59.77L71.21,60.4L70.07,60.33L69.51,60.65L69.07,60.65L69.26,61.27L69.86,61.12L70.59,61.36L71.21,62.03L71.88,62.25L72.44,62.78L72.73,62.54L73.45,62.56L73.93,62.86L74.47,62.42L75.62,62.58L75.69,62.91L76.38,62.97L76.76,63.33L77.21,63.18L77.7,63.44L77.85,64.1L78.25,64.22L78.88,63.54L80.01,63.5L80.46,63.93L81.02,63.91L81.31,64.17L81.98,64.27L82.3,64.11L82.91,63.32L83.55,63.33L84.48,63.64L85.36,64.22L85.53,65.27L84.92,65.24L84.82,65.56L84.04,66.2L84.03,66.69L83.65,67.34L83.16,67.67L83.07,68.17L83.22,68.8L82.94,69.65L82.74,69.79L82.22,69.24L81.58,68.9L81.05,68.85L80.87,68.54L80.3,68.73L79.58,68.38L79.18,68.56L78.37,68.11L78.13,67.39L78.41,67.1L78.25,66.56L77.83,66.59L77.9,66.21L76.9,65.98L76.67,66.11L76.01,65.83L75.2,66.04L74.4,66.5L74.34,66.97L73.83,67.38L73.35,68.55L73.02,68.68L72.62,69.5L72.19,69.85L71.76,69.84L70.82,70.17L70.53,70.84L70.18,71.06L70.11,71.5L69.29,71.56L68.72,72.02L68.23,71.81L67.4,71.76L67.16,72L66.67,71.53L65.54,71.76L64.88,72.69L64.39,72.85L64.28,73.59L63.93,72.91L64.05,72.51L63.61,72.29L63.3,71.72L63.38,70.53L63.89,69.97L63.66,69.54L63.07,69.18L62.87,68.41L62.13,68.51L61.94,67.56L61.5,67.18L61.77,66.55L61.49,65.96L61.53,65.43L61.2,65.32L61.24,64.67L60.91,64.48L60.85,64L61.2,63.68L60.76,62.6L60.07,62.67L59.67,62.48ZM75.86,78.87L74.55,78.19L73.89,78.45L71.84,78.51L71.15,78.77L70.7,79.5L70.06,79.31L68.82,80.28L68.05,80.2L67.72,80.6L66.64,81.26L66.08,80.99L65.66,80.24L65.58,79.32L65.12,78.79L65.52,77.96L65.23,77.23L65.15,76.43L63.81,74.56L64.28,73.59L64.39,72.85L64.88,72.69L65.54,71.76L66.67,71.53L67.16,72L67.4,71.76L68.23,71.81L68.72,72.02L69.29,71.56L70.11,71.5L70.18,71.06L70.53,70.84L70.82,70.17L71.76,69.84L72.19,69.85L72.62,69.5L73.02,68.68L73.35,68.55L73.83,67.38L74.34,66.97L74.4,66.5L75.2,66.04L76.01,65.83L76.67,66.11L76.9,65.98L77.9,66.21L77.83,66.59L78.25,66.56L78.41,67.1L78.13,67.39L78.37,68.11L79.18,68.56L79.58,68.38L80.3,68.73L80.87,68.54L81.05,68.85L81.58,68.9L82.22,69.24L82.74,69.79L82.18,69.81L81.58,71.45L81.47,72.37L81.12,72.52L80.68,73.2L80.45,73.89L79.87,74.8L78.93,74.63L78.53,75.62L78.45,76.45L78.22,77.25L77.75,77.5L76.82,77.02L76.44,77.42L76.28,78.41ZM62.08,23.37L61.99,24.34L61.43,25.17L60.87,25.11L60.24,25.8L60.34,26.07L59.39,27.01L58.63,27.54L58.68,28.2L59.11,28.3L59.3,29.59L59.49,30.11L59.29,30.61L59.53,31.17L59.15,31.73L59.71,32.28L60.7,32.23L61.06,32.53L60.58,32.57L59.8,32.96L59.05,34L58.78,34.56L58.79,35.29L59.02,35.61L58.59,35.89L58.13,35.75L57.78,35.96L56.73,36.08L56.18,36.32L53.81,36.83L52.08,37.76L51.57,37.61L49.81,38.21L49.47,38.12L48.89,39.02L48.65,39.04L47.99,38.79L47.5,37.36L46.97,36.94L46.97,36.61L46.52,35.9L47.26,34.85L47.01,33.62L47.32,33.58L47.57,32.89L47.34,31.71L47.69,30.98L47.97,30.92L48.44,30.31L48.58,29.6L48.36,29.47L48.74,29.04L49.12,28.96L49.91,28.34L49.71,27.87L50.28,27.21L51.3,26.68L51.81,26.23L52,24.76L52.23,24.54L51.97,24.06L52.56,23.73L52.72,23.37L53.19,23.23L53.24,22.73L54.4,21.9L54.65,22.03L55.02,21.58L55.91,21.67L56.16,21.41L56.57,21.7L57.31,21.13L57.88,21.11L58.41,21.83L58.84,21.35L59.53,21.51L59.79,21.94L60.2,23.42L61.35,23.65ZM62.03,44.47L61.78,45.17L61.76,46.11L62.57,47.01L63.95,46.66L65.82,46.91L65.79,45.77L66.33,46.21L66.28,46.82L66.64,47.22L67.24,47.45L66.98,48.12L67.51,48.94L67.11,50.19L66.84,50.18L66.84,50.82L67.04,51.34L66.83,51.67L67.18,51.77L66.71,52.88L66.12,53.14L66.08,53.7L66.31,53.8L66.08,54.51L66.63,55.54L67.54,54.92L68.3,55.11L69.16,54.7L69.38,54.85L70.1,54.47L71.02,54.48L71.29,54.17L71.73,54.53L72.64,54.33L72.96,53.97L72.87,54.9L72.61,55.48L73.84,55.9L74.89,55.89L75.45,56.22L75.04,56.38L75.16,56.9L73.15,58.14L72.44,57.93L71.13,57.17L70.03,56.86L69.54,57.34L68.9,57.4L68.68,57.17L67.86,57.58L67.27,58.11L66.83,58.08L66.02,58.75L65.95,59.83L66.48,60.09L66.47,60.75L59.8,60.76L59.31,60.04L59.58,59.96L59.18,59.31L59.3,58.39L59.9,57.91L60.29,57.85L59.93,57.31L59.98,56.77L59.02,55.67L58.76,54.9L58.88,54.32L58.63,54.06L58.55,53.38L58.73,53.28L58.1,52.05L57.62,51.65L57.46,51.14L57.94,50.4L57.51,49.16L57.72,48.36L58.37,47.63L58.99,47.4ZM66.38,107.45L67.4,111.85L66.9,111.67L65.73,111.87L66.03,112.54L66.07,113.09L65.14,114.13L64.46,114.42L64.52,114.79L63.94,117.87L63.83,119.32L64.32,120.95L62.39,120.96L61.96,121.13L61.37,120.93L61.14,121.16L61.47,122.44L60.44,122.42L60.07,120.02L60.29,119.21L60.74,118.56L60.93,117.56L61.38,117.03L61,116.3L60.96,115.72L61.52,115.02L61.1,114.64L61.07,114.19L61.44,113.17L61.37,112.33L61.53,109.17L62.03,108.86L62.48,108.95L62.9,108.71L64.7,108.61L64.75,108.09L65.66,107.38ZM78.76,114.64L77.94,113.44L78.03,113.19L77.58,112.83L76.69,113.12L76.51,112.8L77.21,112.36L76.88,111.81L77.09,111.68L76.78,111.13L77,110.58L76.58,110.26L76.38,109.79L76.32,108.72L76.96,108.9L77.19,108.72L78.33,108.75L79.56,109.85L79.66,110.52L79.19,111.11L79.27,112.13L79.06,113.02L79.15,114.5ZM69.1,106.63L68.92,107.05L68.43,107.46L68.01,107.45L67.07,107.78L66.38,107.45L65.66,107.38L64.75,108.09L64.7,108.61L62.9,108.71L62.48,108.95L62.03,108.86L61.53,109.17L61.53,108.42L60.3,107.02L60.06,106.36L60.14,104.71L60.29,104.25L59.93,103.9L59.42,102.83L59.23,102L58.52,101.23L58.26,99.6L58.77,97.97L58.46,96.99L58.65,96.47L59.42,95.95L59.64,95.57L60.02,96.08L60.49,96.33L61.01,96.08L60.69,96.41L60.8,96.79L60.26,96.83L60.02,97.15L59.19,97.56L58.94,97.49L58.99,98.7L59.19,98.93L58.79,99.27L59.02,99.51L60.1,99.49L61.02,99.69L61.19,99.42L61.64,99.82L63.86,99.92L64.62,100.29L65.98,99.96L65.84,99.38L66.51,99.17L66.65,98.78L67.35,98.21L67.4,97.22L67.18,96.85L67.87,95.41L68.65,94.57L69.21,94.66L70.87,94.01L71.42,94.51L71.95,93.76L72.67,93.6L73.12,93.73L74.48,93.51L75.68,92.32L75.68,92.81L76.03,93.69L76.44,94.23L76.24,95.07L75.17,95.15L74.17,95.85L73.79,96.67L73.77,97.54L72.66,98.41L72.29,98.41L71.55,99.77L71.55,100.67L70.96,101.27L70.63,101.3L70.19,102.08L70.29,102.59L70.64,102.92L70.4,103.18L70.41,103.99L71.71,105.16L71.73,105.7L71.09,105.63L70.44,106.11L70.13,106.54ZM72.96,53.97L73.28,53.88L73.75,53.11L74.18,53.05L74.27,53.43L75.17,53.49L76.05,53.93L76.42,54.69L76.8,54.61L77.34,55.13L77.94,55.15L78.1,55.68L77.94,56.06L79.56,57.47L80.05,57.6L80.12,57.89L81.34,57.89L81.73,57.51L82.47,57.45L82.79,57.24L83.57,57.47L84.04,57.43L85.17,56.4L86.49,55.92L87.18,56.22L88.28,56.45L89.36,55.6L90.34,56.01L91.64,55.85L91.31,56.82L91.75,57.01L91.46,57.26L90.96,58.72L90.99,59.28L89.8,59.41L89.12,59.34L88.29,59.92L87.71,60.96L86.9,61.78L87.07,62.26L86.96,62.81L86.01,62.88L85.74,63.19L86.45,64.17L85.76,64.71L85.53,65.27L85.36,64.22L84.48,63.64L83.55,63.33L82.91,63.32L82.3,64.11L81.98,64.27L81.31,64.17L81.02,63.91L80.46,63.93L80.01,63.5L78.88,63.54L78.25,64.22L77.85,64.1L77.7,63.44L77.21,63.18L76.76,63.33L76.38,62.97L75.69,62.91L75.62,62.58L74.47,62.42L73.93,62.86L73.45,62.56L72.73,62.54L72.44,62.78L71.88,62.25L71.21,62.03L70.59,61.36L69.86,61.12L69.26,61.27L69.07,60.65L69.51,60.65L70.07,60.33L71.21,60.4L71.67,59.77L71.99,59.73L72.54,59.07L72.62,58.66L73.15,58.14L75.16,56.9L75.04,56.38L75.45,56.22L74.89,55.89L73.84,55.9L72.61,55.48L72.87,54.9ZM98.93,23.28L98.55,22.97L97.94,22.97L97.07,22.59L96.34,22.49L95.84,22.86L95.37,22.67L94.65,22.96L94.52,23.23L93.29,23.35L92.66,23.26L91.78,22.65L90.8,21.66L90.32,21.36L89.63,21.56L89.05,21.22L89.58,20.77L90.19,20.52L90.85,20.03L91.59,20.08L91.88,20.38L92.49,20.54L93.09,21L93.68,20.65L94.13,20.65L94.27,20.95L95.35,21.14L95.97,20.75L96.65,20.57L97.31,19.95L98.42,19.62L99.17,19.61L99.38,19.79L99.47,20.65L99.23,21.21L99.77,21.43L99.85,21.86L99.51,22.75ZM63.98,82.67L65.8,83L66.68,82.39L67.55,82.53L67.73,82.19L68.41,81.75L68.89,81.2L69.8,81.58L69.6,82.06L70.04,82.53L70,83.21L70.29,84.08L71.2,84.58L71.86,84.59L72.11,84.86L72.91,85.18L74.06,84.61L75.34,84.38L75.2,85.53L75.42,86.23L75.62,88.03L75.35,88.48L75.82,88.9L75.41,90.2L74.86,90.19L74.41,90.47L74.22,91L72.53,91.11L71.99,91.59L71.54,91.58L71.03,92.06L69.35,91.79L69.43,91.27L69.03,90.68L67.87,89.64L67.41,89.36L67.18,89.89L66.53,90.53L65.95,90.75L65.75,91.08L65.15,91.21L64.8,91.57L64.45,91.68L64.32,90.77L63.68,90.8L63.83,89.53L63.77,87.57L63.89,86.92L63.85,84.34ZM75.68,92.32L74.48,93.51L73.12,93.73L72.67,93.6L71.95,93.76L71.42,94.51L70.87,94.01L69.21,94.66L68.65,94.57L67.87,95.41L67.18,96.85L67.4,97.22L67.35,98.21L66.65,98.78L66.51,99.17L65.84,99.38L65.98,99.96L64.62,100.29L63.86,99.92L61.64,99.82L61.19,99.42L61.02,99.69L60.1,99.49L59.02,99.51L58.79,99.27L59.19,98.93L58.99,98.7L58.94,97.49L59.19,97.56L60.02,97.15L60.26,96.83L60.8,96.79L60.69,96.41L61.01,96.08L63.02,95.67L63.77,95.74L64,96.09L63.89,94.63L64.29,94.34L64.8,91.57L65.15,91.21L65.75,91.08L65.95,90.75L66.53,90.53L67.18,89.89L67.41,89.36L67.87,89.64L69.03,90.68L69.43,91.27L69.35,91.79L71.03,92.06L71.54,91.58L71.99,91.59L72.53,91.11L74.22,91L74.41,90.47L74.86,90.19L74.82,90.58L75.64,91.83ZM69.74,5.74L71.65,6.54L71.62,12.32L72.48,15.54L73.3,15.97L73.81,16.63L72.97,17.12L72.74,17.86L73.27,18.4L73.58,19.05L73.52,19.38L74.01,20.21L74.81,20.63L75.28,21.56L75.26,21.84L74.54,22.39L74.7,22.93L75.09,23.25L74.82,23.49L74.62,23.13L74.09,23.32L74.17,23.57L73.45,23.52L72.87,23.86L72.71,23.52L71.88,23.95L71.89,24.28L70.93,24.15L70,24.27L68.62,23.91L67.77,24.28L66.57,24.07L65.99,24.29L65.62,24.83L64.93,24.46L64.43,24.4L64.25,23.85L63.12,24.06L62.66,24.34L62.08,23.37L61.35,23.65L60.2,23.42L59.79,21.94L59.53,21.51L60.08,21.34L60.71,20.55L61.23,20.43L61.82,19.54L62.55,19.52L63.16,19.83L63.64,19.38L63.46,18.29L64.02,18.21L65.41,18.66L66.1,18.04L65.69,17.73L66.07,17.4L65.92,17.04L66.29,16.61L66.75,16.88L67.38,16.6L68,16.61L68.41,16.91L68.8,16.55L69.55,16.59L69.81,16.21L69.54,15.82L69.61,15.26L69.31,14.7L68.25,14.21L68.16,13.82L67.52,13.6L68.08,13.21L68.32,12.1L68.04,11.28L68.26,10.6L68.13,10.32L67.31,10.09L67.51,9.66L67.54,8.82L67.92,8.71L68.21,8.23L68.34,7.35L68.82,6.83L69.42,7.03L69.71,6.85L69.63,6.41L69.92,6.14ZM66.33,126.4L65.62,124.46L67.36,124.63L67.72,124.74L68.68,124.21L69.47,124.54L68.06,121.85L67.88,121.39L68.47,120.81L69.69,120.3L70.15,119.38L70.14,118.51L70.65,118.07L70.92,117.24L70.89,116.79L71.41,116.23L71.65,116.34L72.18,115.58L73.15,114.8L73.47,114.09L74.44,113.12L74.24,113.44L74.45,113.84L75.1,114.05L75.36,113.07L76.51,112.8L76.69,113.12L77.58,112.83L78.03,113.19L77.94,113.44L78.76,114.64L78.77,114.93L78.28,115.06L78,115.41L78.02,116.19L78.25,116.78L78.11,117.42L77.3,117.32L76.67,117.89L76.16,117.44L75.15,117.81L75.09,118.16L75.57,118.25L75.67,118.9L75.35,120.21L74.82,120.65L75.44,121.24L75.71,122L75.35,122.8L75.72,123.26L75.55,123.62L76.26,124.21L76.71,124.29L77.12,123.89L77.12,124.58L76.24,124.97L76.15,125.53L75.22,125.78L73.82,125.46L72.59,125.74L72.02,126.29L71.64,126.41L70.96,126.19L69.11,126.24L68.45,126.66L68.07,126.35L66.46,126.29ZM84.22,23.16L84.32,22.78L84.89,22.55L84.35,21.82L85.06,21.54L84.99,21.19L86.13,20.11L86.44,19.68L86.33,19.04L86.86,18.61L87.26,18.37L87.9,18.8L88.43,19.5L88.27,21.16L89.05,21.22L89.63,21.56L90.32,21.36L90.8,21.66L91.78,22.65L92.66,23.26L93.29,23.35L94.52,23.23L94.65,22.96L95.37,22.67L95.84,22.86L96.34,22.49L97.07,22.59L97.94,22.97L98.55,22.97L98.93,23.28L98.91,24.54L99.38,25.15L98.9,27.14L98.67,27.38L98.74,27.97L98.26,28.67L97.37,29.23L96.95,29.96L96.26,30.42L95.77,31.13L95.11,31.43L94.95,31.71L93.71,32.24L93.34,32.19L92.1,33.45L91.12,34.15L90.93,34.47L89.77,34.77L88.47,34.12L87.82,35.03L87.96,35.78L86.84,36.93L86.24,37.34L85.61,37.37L84.76,36.31L84.17,36.28L82.5,37.17L81.79,36.9L81.54,36.46L80.37,36.34L80.09,36.7L79.32,36.46L78.41,36.96L76.84,38.38L76.78,38.8L75.69,39.36L75.21,39.82L75.19,40.33L74.73,40.48L74.72,41.01L74.32,40.97L74.46,41.41L75.29,42.13L75.32,42.58L74.92,42.58L74.91,42.94L74.55,43.56L73.49,43.83L73.42,44.23L72.51,44.59L72.24,45.53L71.52,46.31L71.62,46.59L70.99,46.91L71.03,47.18L70.3,47.44L70.3,47.83L69.71,47.98L69.08,48.4L68.83,49.02L68.47,49.32L67.67,49.35L67.6,49.95L67.11,50.19L67.51,48.94L66.98,48.12L67.24,47.45L67.29,46.88L67.67,45.98L68.07,45.5L68.58,45.29L69.17,45.04L69.17,44.55L69.63,43.55L70.31,43.54L72.59,38.48L72.85,38.7L74.03,38.31L75.77,38.31L75.96,37.58L76.45,36.68L77.34,35.57L78.08,35.19L79.22,35.3L79.33,35.48L80.09,35.32L80.89,34.95L81.31,35.12L81.32,34.24L81.77,34.17L82.07,34.45L82.88,34.14L83.65,34.23L84.81,33.89L85.14,34.26L87.41,34.26L87.43,30.17L89.47,30.17L89.47,23.83L88.24,24.21L87.06,23.74L86.53,23.84L85.55,23.27L84.9,23.1ZM66.59,140.64L66.07,140.5L65.39,139.27L65.29,138.58L65,138.37L65.14,137.37L65.38,137.21L66.03,137.43L66.34,138.15L66.93,138.25L67.89,137.92L68.01,138.19L69.22,138.66L70.83,138.58L71.14,137.86L71.14,137.41L72.18,137.68L73.38,137.14L73.33,136.9L73.79,135.58L74.17,135.16L74.23,134.65L74.63,134.16L74.44,133.6L74.66,133.54L75.03,132.11L75.54,131.88L76.28,132L76.76,133.04L81.51,130.07L82.22,129.67L82.37,130.01L82.51,131.29L82.36,132.24L81.29,132.86L81.25,133.58L80.68,133.49L79.34,133.89L79.1,134.23L79.19,135.1L78.94,135.64L79.23,135.93L79.37,136.8L79.26,137.85L79,138.82L78.08,139.51L77.36,140.65L76.72,141.47L76.61,142L75.17,143.03L74.17,143.2L73.99,143.54L72.94,144L72.26,143.65L71.69,143.06L71.54,142.52L71.19,142.66L70.21,142.31L69.79,141.64L68.93,141.12L67.87,140.91L67.44,140.98ZM68.58,45.29L68.64,44.73L68.32,43.97L68.66,43.17L68.51,42.82L69.53,42.03L69.54,41.36L70.01,40.68L70.78,38.75L71.22,38.33L71.75,38.55L72.59,38.23L72.79,37.31L73.19,37.26L73.17,36.53L73.52,36.16L74.13,35.9L74.83,35.27L75.83,35.12L77.27,33.26L77.28,32.82L78.12,31.75L78.68,31.68L79.43,30.47L79.98,30.3L80.37,29.73L81.42,29.56L81.84,28.66L82.42,28.25L82.47,27.85L82.98,27.49L82.4,27.12L83.29,26.39L83,25.78L83.82,25.47L83.52,25.05L83.9,24.48L83.55,24.17L83.6,23.75L84.1,23.79L83.85,23.44L84.22,23.16L84.9,23.1L85.55,23.27L86.53,23.84L87.06,23.74L88.24,24.21L89.47,23.83L89.47,30.17L87.43,30.17L87.41,34.26L85.14,34.26L84.81,33.89L83.65,34.23L82.88,34.14L82.07,34.45L81.77,34.17L81.32,34.24L81.31,35.12L80.89,34.95L80.09,35.32L79.33,35.48L79.22,35.3L78.08,35.19L77.34,35.57L76.45,36.68L75.96,37.58L75.77,38.31L74.03,38.31L72.85,38.7L72.59,38.48L70.31,43.54L69.63,43.55L69.17,44.55L69.17,45.04ZM62.68,128.96L62.82,129.51L63.28,129.79L64.06,129.48L65.06,129.54L65.49,129.7L66.43,129.51L66.55,129.17L67.35,128.92L66.33,126.4L66.46,126.29L68.07,126.35L68.45,126.66L69.11,126.24L70.96,126.19L71.64,126.41L72.02,126.29L72.59,125.74L73.82,125.46L75.22,125.78L76.15,125.53L76.24,124.97L77.12,124.58L77.26,124.31L77.96,124.63L78.34,126.27L78.08,127.06L78.49,128.37L78.45,128.82L78.96,128.61L79.54,128.66L79.91,128.41L80.37,128.74L80.97,128.66L81.24,128.96L81.51,130.07L76.76,133.04L76.28,132L75.54,131.88L75.03,132.11L74.66,133.54L74.44,133.6L74.63,134.16L74.23,134.65L74.17,135.16L73.79,135.58L73.33,136.9L73.38,137.14L72.18,137.68L71.14,137.41L71.14,137.86L70.83,138.58L69.22,138.66L68.01,138.19L67.89,137.92L66.93,138.25L66.34,138.15L66.03,137.43L65.38,137.21L65.14,137.37L65,138.37L65.29,138.58L65.39,139.27L66.07,140.5L66.59,140.64L61.27,140.57L61.01,140.53L61.11,139.96L60.85,139.68L61.81,139.4L61.95,138.99L61.34,138.2L61.34,137.47L61.64,137L62.47,136.8L63.17,135.53L63.93,135.14L64.05,134.6L64.92,134.12L64.86,133.55L64.61,133.29L64.83,132.64L64.67,131.94L64.36,132.09L64.39,131.55L63.75,131.6L63.2,130.72L62.55,130.78L62.72,130.08L62.37,130.01L62.69,129.48ZM59.21,81.7L61.16,81.97L62.97,82.54L63.47,82.81L63.98,82.67L63.85,84.34L63.89,86.92L63.77,87.57L63.83,89.53L63.68,90.8L64.32,90.77L64.45,91.68L64.8,91.57L64.29,94.34L63.89,94.63L64,96.09L63.77,95.74L63.02,95.67L61.01,96.08L60.49,96.33L60.02,96.08L59.64,95.57L59.39,94.88L59.52,93.82L59.33,92.55L58.81,91.96L58.34,91.8L56.2,89.46L55.97,88.35L56.35,86.78L56.94,86.37L56.92,85.97L57.32,85.91L57.73,85.28L57.54,85.09L58.01,84.35L58.01,83.35L58.8,83.1L58.72,82.39L59.32,82.31Z" fill="#B3CFC0" stroke="#007139" stroke-width="0.5"/></svg>