<svg xmlns="http://www.w3.org/2000/svg" width="840" height="751.5" viewBox="0 0 840 751.5">
  <g id="Grupo_2042" data-name="Grupo 2042" transform="translate(-338 -1049)">
    <rect id="Rectángulo_3288" data-name="Rectángulo 3288" width="179" height="48" rx="10" transform="translate(388 1099)" fill="#ffbc4e" opacity="0.15"/>
    <rect id="Rectángulo_3291" data-name="Rectángulo 3291" width="179" height="48" rx="10" transform="translate(388 1192)" fill="#0090ff" opacity="0.15"/>
    <rect id="Rectángulo_3295" data-name="Rectángulo 3295" width="179" height="48" rx="10" transform="translate(424.5 1428.5)" fill="#0090ff" opacity="0.15"/>
    <rect id="Rectángulo_3300" data-name="Rectángulo 3300" width="121" height="48" rx="10" transform="translate(388 1752.5)" fill="#0090ff" opacity="0.15"/>
    <rect id="Rectángulo_3301" data-name="Rectángulo 3301" width="115" height="48" rx="10" transform="translate(519 1752.5)" fill="#0090ff" opacity="0.15"/>
    <rect id="Rectángulo_3302" data-name="Rectángulo 3302" width="129" height="48" rx="10" transform="translate(644 1752.5)" fill="#0090ff" opacity="0.15"/>
    <rect id="Rectángulo_3303" data-name="Rectángulo 3303" width="115" height="48" rx="10" transform="translate(783 1752.5)" fill="#0090ff" opacity="0.15"/>
    <rect id="Rectángulo_3304" data-name="Rectángulo 3304" width="105" height="48" rx="10" transform="translate(908 1752.5)" fill="#0090ff" opacity="0.15"/>
    <rect id="Rectángulo_3305" data-name="Rectángulo 3305" width="118" height="48" rx="10" transform="translate(1023 1752.5)" fill="#e1501b" opacity="0.15"/>
    <rect id="Rectángulo_3296" data-name="Rectángulo 3296" width="179" height="48" rx="10" transform="translate(681.5 1428.5)" fill="#0090ff" opacity="0.15"/>
    <rect id="Rectángulo_3298" data-name="Rectángulo 3298" width="179" height="48" rx="10" transform="translate(681.5 1521.5)" fill="#0090ff" opacity="0.15"/>
    <rect id="Rectángulo_3299" data-name="Rectángulo 3299" width="179" height="48" rx="10" transform="translate(681.5 1637.5)" fill="#0090ff" opacity="0.15"/>
    <rect id="Rectángulo_3297" data-name="Rectángulo 3297" width="179" height="48" rx="10" transform="translate(936.5 1428.5)" fill="#0090ff" opacity="0.15"/>
    <rect id="Rectángulo_3294" data-name="Rectángulo 3294" width="163" height="48" rx="10" transform="translate(719 1192)" fill="rgba(0,0,0,0.8)" opacity="0.08"/>
    <rect id="Rectángulo_3293" data-name="Rectángulo 3293" width="179" height="65" rx="10" transform="translate(595.378 1284)" fill="#0090ff" opacity="0.15"/>
    <rect id="Rectángulo_3289" data-name="Rectángulo 3289" width="140" height="48" rx="10" transform="translate(645 1099)" fill="#6363dc" opacity="0.15"/>
    <rect id="Rectángulo_3290" data-name="Rectángulo 3290" width="140" height="48" rx="10" transform="translate(815 1099)" fill="#09a274" opacity="0.15"/>
    <rect id="Rectángulo_3292" data-name="Rectángulo 3292" width="140" height="48" rx="10" transform="translate(986 1099)" fill="#e1501b" opacity="0.15"/>
    <text id="Registros_biológicos_de_Colombia" data-name="Registros biológicos de Colombia" transform="translate(404 1105)" fill="rgba(0,0,0,0.8)" font-size="14" font-family="Lato-Regular, Lato"><tspan x="-70" y="14">Registros biológicos de </tspan><tspan x="-29" y="32">Colombia</tspan></text>
    <text id="Validación_y_Limpieza_Elementos_Taxonómicos" data-name="Validación y Limpieza Elementos Taxonómicos" transform="translate(404 1199)" fill="rgba(0,0,0,0.8)" font-size="14" font-family="Lato-Regular, Lato"><tspan x="-65" y="14">Validación y Limpieza </tspan><tspan x="-73" y="32">Elementos Taxonómicos</tspan></text>
    <text id="Validación_y_Limpieza_Elementos_Taxonómicos-2" data-name="Validación y Limpieza Elementos Taxonómicos" transform="translate(440.5 1435.5)" fill="rgba(0,0,0,0.8)" font-size="14" font-family="Lato-Regular, Lato"><tspan x="-65" y="14">Validación y Limpieza </tspan><tspan x="-73" y="32">Elementos Taxonómicos</tspan></text>
    <text id="Listas_de_especies" data-name="Listas de especies" transform="translate(449 1782.5)" fill="rgba(0,0,0,0.8)" font-size="14" font-family="Lato-Regular, Lato"><tspan x="-53" y="0">Listas de especies</tspan></text>
    <text id="Cifras_Temáticas" data-name="Cifras Temáticas" transform="translate(577 1782.5)" fill="rgba(0,0,0,0.8)" font-size="14" font-family="Lato-Regular, Lato"><tspan x="-50" y="0">Cifras Temáticas</tspan></text>
    <text id="Cifras_Geográficas" data-name="Cifras Geográficas" transform="translate(709 1782.5)" fill="rgba(0,0,0,0.8)" font-size="14" font-family="Lato-Regular, Lato"><tspan x="-55" y="0">Cifras Geográficas</tspan></text>
    <text id="Cifras_entidades_publicadoras" data-name="Cifras entidades
publicadoras" transform="translate(841 1773.5)" fill="rgba(0,0,0,0.8)" font-size="14" font-family="Lato-Regular, Lato"><tspan x="-49" y="0">Cifras entidades</tspan><tspan x="-39" y="18">publicadoras</tspan></text>
    <text id="Cifras_Grupos_Biológicos" data-name="Cifras Grupos
Biológicos" transform="translate(961 1773.5)" fill="rgba(0,0,0,0.8)" font-size="14" font-family="Lato-Regular, Lato"><tspan x="-42" y="0">Cifras Grupos</tspan><tspan x="-31" y="18">Biológicos</tspan></text>
    <text id="Cifras_Estimadas" data-name="Cifras Estimadas" transform="translate(1083 1782.5)" fill="rgba(0,0,0,0.8)" font-size="14" font-family="Lato-Regular, Lato"><tspan x="-50" y="0">Cifras Estimadas</tspan></text>
    <text id="Validación_y_Limpieza_Elementos_Geográficos" data-name="Validación y Limpieza Elementos Geográficos" transform="translate(697.5 1435.5)" fill="rgba(0,0,0,0.8)" font-size="14" font-family="Lato-Regular, Lato"><tspan x="-65" y="14">Validación y Limpieza </tspan><tspan x="-70" y="32">Elementos Geográficos</tspan></text>
    <text id="Base_de_Datos_para_la_Síntesis_de_Cifras" data-name="Base de Datos para la Síntesis de Cifras" transform="translate(697.5 1528.5)" fill="rgba(0,0,0,0.8)" font-size="14" font-family="Lato-Regular, Lato"><tspan x="-65" y="14">Base de Datos para la </tspan><tspan x="-52" y="32">Síntesis de Cifras</tspan></text>
    <text id="Biodiversidad_En_Cifras" data-name="Biodiversidad En Cifras" transform="translate(697.5 1653)" fill="rgba(0,0,0,0.8)" font-size="14" font-family="Lato-Regular, Lato"><tspan x="-70" y="14">Biodiversidad En Cifras</tspan></text>
    <text id="Caracterización_datos_marinos" data-name="Caracterización datos
marinos" transform="translate(952.5 1435.5)" fill="rgba(0,0,0,0.8)" font-size="14" font-family="Lato-Regular, Lato"><tspan x="-66" y="14">Caracterización datos</tspan><tspan x="-24" y="32">marinos</tspan></text>
    <text id="Estructuración_DwC_" data-name="Estructuración (DwC)" transform="translate(800.5 1222)" fill="rgba(0,0,0,0.8)" font-size="14" font-family="Lato-Regular, Lato"><tspan x="-66" y="0">Estructuración (DwC)</tspan></text>
    <text id="Sub-Consultas_Regionales_stateProvince_y_cruce_geográfico_" data-name="Sub-Consultas Regionales (stateProvince y cruce geográfico)" transform="translate(604.378 1290)" fill="rgba(0,0,0,0.8)" font-size="14" font-family="Lato-Regular, Lato"><tspan x="-79" y="14">Sub-Consultas Regionales </tspan><tspan x="-67" y="32">(stateProvince y cruce </tspan><tspan x="-34" y="50">geográfico)</tspan></text>
    <text id="Listas_de_Referencia" data-name="Listas de Referencia" transform="translate(649 1115)" fill="rgba(0,0,0,0.8)" font-size="14" font-family="Lato-Regular, Lato"><tspan x="-61" y="14">Listas de Referencia</tspan></text>
    <text id="Listas_Externas" data-name="Listas Externas" transform="translate(834 1115)" fill="rgba(0,0,0,0.8)" font-size="14" font-family="Lato-Regular, Lato"><tspan x="-46" y="14">Listas Externas</tspan></text>
    <text id="Fuentes_Auxiliares" data-name="Fuentes Auxiliares" transform="translate(998 1115)" fill="rgba(0,0,0,0.8)" font-size="14" font-family="Lato-Regular, Lato"><tspan x="-56" y="14">Fuentes Auxiliares</tspan></text>
    <text id="l._Consulta" data-name="l. Consulta" transform="translate(338 1066)" fill="#636262" font-size="18" font-family="Inter-Black, Inter" font-weight="800"><tspan x="0" y="0">l. Consulta</tspan></text>
    <text id="ll._Validación_y_Limpieza" data-name="ll. Validación y 
      Limpieza" transform="translate(338 1374)" fill="#636262" font-size="18" font-family="Inter-Black, Inter" font-weight="800"><tspan x="0" y="0">ll. Validación y </tspan><tspan x="0" y="20" xml:space="preserve">      Limpieza</tspan></text>
    <text id="lll._Síntesis" data-name="lll. Síntesis" transform="translate(338 1598)" fill="#636262" font-size="18" font-family="Inter-Black, Inter" font-weight="800"><tspan x="0" y="0">lll. Síntesis</tspan></text>
    <circle id="Elipse_67" data-name="Elipse 67" cx="10" cy="10" r="10" transform="translate(378 1089)" fill="rgba(0,0,0,0.8)"/>
    <circle id="Elipse_68" data-name="Elipse 68" cx="10" cy="10" r="10" transform="translate(635 1089)" fill="rgba(0,0,0,0.8)"/>
    <circle id="Elipse_69" data-name="Elipse 69" cx="10" cy="10" r="10" transform="translate(805 1089)" fill="rgba(0,0,0,0.8)"/>
    <circle id="Elipse_70" data-name="Elipse 70" cx="10" cy="10" r="10" transform="translate(975 1089)" fill="rgba(0,0,0,0.8)"/>
    <text id="A" transform="translate(383 1104)" fill="#fff" font-size="14" font-family="Inter-Black, Inter" font-weight="800"><tspan x="0" y="0">A</tspan></text>
    <text id="B" transform="translate(640 1104)" fill="#fff" font-size="14" font-family="Inter-Black, Inter" font-weight="800"><tspan x="0" y="0">B</tspan></text>
    <text id="C" transform="translate(810 1104)" fill="#fff" font-size="14" font-family="Inter-Black, Inter" font-weight="800"><tspan x="0" y="0">C</tspan></text>
    <text id="D" transform="translate(980 1104)" fill="#fff" font-size="14" font-family="Inter-Black, Inter" font-weight="800"><tspan x="0" y="0">D</tspan></text>
    <path id="Trazado_3201" data-name="Trazado 3201" d="M6772.743-1057.058l6.389,6.389,6.39-6.389" transform="translate(-6145.225 2330.937)" fill="none" stroke="#2476ec" stroke-width="1" stroke-dasharray="2 2"/>
    <path id="Trazado_3203" data-name="Trazado 3203" d="M6785.521-1057.058l-6.389,6.389-6.39-6.389" transform="translate(-6221.744 2475.668)" fill="none" stroke="#2476ec" stroke-width="1" stroke-dasharray="2 2"/>
    <path id="Trazado_3206" data-name="Trazado 3206" d="M6785.521-1057.058l-6.389,6.389-6.39-6.389" transform="translate(-6254.132 2475.668)" fill="none" stroke="#2476ec" stroke-width="1"/>
    <path id="Trazado_3207" data-name="Trazado 3207" d="M6785.521-1057.058l-6.389,6.389-6.39-6.389" transform="translate(-6301.632 2240.175)" fill="none" stroke="#ffbc4e" stroke-width="1"/>
    <path id="Trazado_3209" data-name="Trazado 3209" d="M6785.521-1057.058l-6.389,6.389-6.39-6.389" transform="translate(-6022.16 2240.175)" fill="none" stroke="#6363dc" stroke-width="1"/>
    <path id="Trazado_3219" data-name="Trazado 3219" d="M6785.521-1057.058l-6.389,6.389-6.39-6.389" transform="translate(-6046.16 2569.822)" fill="none" stroke="#2476ec" stroke-width="1"/>
    <path id="Trazado_3222" data-name="Trazado 3222" d="M6785.521-1057.058l-6.389,6.389-6.39-6.389" transform="translate(-6046.16 2685.675)" fill="none" stroke="#868686" stroke-width="1"/>
    <path id="Trazado_3246" data-name="Trazado 3246" d="M6785.521-1057.058l-6.389,6.389-6.39-6.389" transform="translate(-6343.518 2799.217)" fill="none" stroke="#2476ec" stroke-width="1"/>
    <path id="Trazado_3249" data-name="Trazado 3249" d="M6785.521-1057.058l-6.389,6.389-6.39-6.389" transform="translate(-6218.084 2799.217)" fill="none" stroke="#2476ec" stroke-width="1"/>
    <path id="Trazado_3250" data-name="Trazado 3250" d="M6785.521-1057.058l-6.389,6.389-6.39-6.389" transform="translate(-6085.589 2799.217)" fill="none" stroke="#2476ec" stroke-width="1"/>
    <path id="Trazado_3252" data-name="Trazado 3252" d="M6785.521-1057.058l-6.389,6.389-6.39-6.389" transform="translate(-5955.133 2799.217)" fill="none" stroke="#2476ec" stroke-width="1"/>
    <path id="Trazado_3254" data-name="Trazado 3254" d="M6785.521-1057.058l-6.389,6.389-6.39-6.389" transform="translate(-5833.589 2799.217)" fill="none" stroke="#2476ec" stroke-width="1"/>
    <path id="Trazado_3256" data-name="Trazado 3256" d="M6785.521-1057.058l-6.389,6.389-6.39-6.389" transform="translate(-5711.089 2799.217)" fill="none" stroke="#2476ec" stroke-width="1"/>
    <path id="Trazado_3259" data-name="Trazado 3259" d="M6785.521-1057.058l-6.389,6.389-6.39-6.389" transform="translate(94.153 -5002.132) rotate(90)" fill="none" stroke="#e1501b" stroke-width="1"/>
    <path id="Trazado_3210" data-name="Trazado 3210" d="M6785.521-1057.058l-6.389,6.389-6.39-6.389" transform="translate(-5936.104 2240.175)" fill="none" stroke="#09a274" stroke-width="1"/>
    <path id="Trazado_3217" data-name="Trazado 3217" d="M6785.521-1057.058l-6.389,6.389-6.39-6.389" transform="translate(-5970.104 2569.822)" fill="none" stroke="#2476ec" stroke-width="1" stroke-dasharray="2 2"/>
    <path id="Trazado_3223" data-name="Trazado 3223" d="M6785.521-1057.058l-6.389,6.389-6.39-6.389" transform="translate(-5970.104 2685.675)" fill="none" stroke="#2476ec" stroke-width="1" stroke-dasharray="2 2"/>
    <path id="Trazado_3247" data-name="Trazado 3247" d="M6785.521-1057.058l-6.389,6.389-6.39-6.389" transform="translate(-6313.604 2799.217)" fill="none" stroke="#2476ec" stroke-width="1" stroke-dasharray="2 2"/>
    <path id="Trazado_3248" data-name="Trazado 3248" d="M6785.521-1057.058l-6.389,6.389-6.39-6.389" transform="translate(-6188.17 2799.217)" fill="none" stroke="#2476ec" stroke-width="1" stroke-dasharray="2 2"/>
    <path id="Trazado_3251" data-name="Trazado 3251" d="M6785.521-1057.058l-6.389,6.389-6.39-6.389" transform="translate(-6055.676 2799.217)" fill="none" stroke="#2476ec" stroke-width="1" stroke-dasharray="2 2"/>
    <path id="Trazado_3253" data-name="Trazado 3253" d="M6785.521-1057.058l-6.389,6.389-6.39-6.389" transform="translate(-5925.22 2799.217)" fill="none" stroke="#2476ec" stroke-width="1" stroke-dasharray="2 2"/>
    <path id="Trazado_3255" data-name="Trazado 3255" d="M6785.521-1057.058l-6.389,6.389-6.39-6.389" transform="translate(-5803.676 2799.217)" fill="none" stroke="#2476ec" stroke-width="1" stroke-dasharray="2 2"/>
    <path id="Trazado_3257" data-name="Trazado 3257" d="M6785.521-1057.058l-6.389,6.389-6.39-6.389" transform="translate(-5681.176 2799.217)" fill="none" stroke="#2476ec" stroke-width="1" stroke-dasharray="2 2"/>
    <path id="Trazado_3208" data-name="Trazado 3208" d="M6785.521-1057.058l-6.389,6.389-6.39-6.389" transform="translate(-480.496 -5562.632) rotate(90)" fill="none" stroke="#868686" stroke-width="1"/>
    <path id="Trazado_3212" data-name="Trazado 3212" d="M12.778,6.39,6.39,0,0,6.39" transform="translate(678.245 1435.366) rotate(90)" fill="none" stroke="#2476ec" stroke-width="1" stroke-dasharray="2 2"/>
    <path id="Trazado_3214" data-name="Trazado 3214" d="M12.778,6.39,6.39,0,0,6.39" transform="translate(678.245 1456.856) rotate(90)" fill="none" stroke="#2476ec" stroke-width="1"/>
    <path id="Trazado_3215" data-name="Trazado 3215" d="M12.778,0,6.39,6.39,0,0" transform="translate(869.317 1446.611) rotate(90)" fill="none" stroke="#2476ec" stroke-width="1"/>
    <path id="Trazado_3193" data-name="Trazado 3193" d="M6814.345-1041.494v-40.654" transform="translate(-6336.845 2231)" fill="none" stroke="#ffbc4e" stroke-width="1"/>
    <path id="Trazado_3204" data-name="Trazado 3204" d="M6814.345-900.537v-181.611" transform="translate(-6289.345 2325.147)" fill="none" stroke="#2476ec" stroke-width="1"/>
    <path id="Trazado_3195" data-name="Trazado 3195" d="M6814.345-1041.494v-40.654" transform="translate(-6057.373 2231)" fill="none" stroke="#6363dc" stroke-width="1"/>
    <path id="Trazado_3220" data-name="Trazado 3220" d="M6814.345-1041.494v-40.654" transform="translate(-6081.373 2560.647)" fill="none" stroke="#2476ec" stroke-width="1"/>
    <path id="Trazado_3230" data-name="Trazado 3230" d="M6814.345-1052.781v-29.366H7202.28" transform="translate(-6378.73 2801.329)" fill="none" stroke="#2476ec" stroke-width="1"/>
    <path id="Trazado_3231" data-name="Trazado 3231" d="M6814.345-1052.781v-29.366" transform="translate(-6253.296 2801.329)" fill="none" stroke="#2476ec" stroke-width="1"/>
    <path id="Trazado_3234" data-name="Trazado 3234" d="M6814.345-1052.781v-29.366" transform="translate(-6120.802 2801.329)" fill="none" stroke="#2476ec" stroke-width="1"/>
    <path id="Trazado_3241" data-name="Trazado 3241" d="M6814.345-1050.814v-31.333" transform="translate(-6081.373 2769.996)" fill="none" stroke="#2476ec" stroke-width="1"/>
    <path id="Trazado_3243" data-name="Trazado 3243" d="M6814.345-1050.814v-31.333" transform="translate(-6043.345 2769.996)" fill="none" stroke="#2476ec" stroke-width="1"/>
    <path id="Trazado_3244" data-name="Trazado 3244" d="M6814.345-1050.814v-31.333" transform="translate(-6004.845 2769.996)" fill="none" stroke="#2476ec" stroke-width="1"/>
    <path id="Trazado_3240" data-name="Trazado 3240" d="M6814.345-1052.781v-29.366" transform="translate(-5868.802 2801.329)" fill="none" stroke="#2476ec" stroke-width="1"/>
    <path id="Trazado_3236" data-name="Trazado 3236" d="M6814.345-1052.781v-29.366" transform="translate(-5990.345 2801.329)" fill="none" stroke="#2476ec" stroke-width="1"/>
    <path id="Trazado_3238" data-name="Trazado 3238" d="M6814.345-1052.781v-29.366" transform="translate(-5746.301 2801.329)" fill="none" stroke="#2476ec" stroke-width="1"/>
    <path id="Trazado_3221" data-name="Trazado 3221" d="M6814.345-1018.765v-63.382" transform="translate(-6081.345 2653.772)" fill="none" stroke="#868686" stroke-width="1"/>
    <path id="Trazado_3199" data-name="Trazado 3199" d="M6814.345-936.82v-145.327" transform="translate(-366.647 -5597.845) rotate(90)" fill="none" stroke="#868686" stroke-width="1"/>
    <path id="Trazado_3211" data-name="Trazado 3211" d="M6814.345-1010.575v-71.573" transform="translate(-403.902 -5372.59) rotate(90)" fill="none" stroke="#2476ec" stroke-width="1" stroke-dasharray="2 2"/>
    <path id="Trazado_3260" data-name="Trazado 3260" d="M0,840V0" transform="translate(1178 1080) rotate(90)" fill="none" stroke="#868686" stroke-width="1" stroke-dasharray="10 5"/>
    <path id="Trazado_3261" data-name="Trazado 3261" d="M0,840V0" transform="translate(1178 1408) rotate(90)" fill="none" stroke="#868686" stroke-width="1" stroke-dasharray="10 5"/>
    <path id="Trazado_3262" data-name="Trazado 3262" d="M0,840V0" transform="translate(1178 1612.5) rotate(90)" fill="none" stroke="#868686" stroke-width="1" stroke-dasharray="10 5"/>
    <path id="Trazado_3213" data-name="Trazado 3213" d="M6814.345-1010.575v-71.573" transform="translate(-403.902 -5351.1) rotate(90)" fill="none" stroke="#2476ec" stroke-width="1"/>
    <path id="Trazado_3216" data-name="Trazado 3216" d="M0,0V71.572" transform="translate(934.5 1453) rotate(90)" fill="none" stroke="#2476ec" stroke-width="1"/>
    <path id="Trazado_3197" data-name="Trazado 3197" d="M6814.345-1041.494v-40.654" transform="translate(-5971.316 2231)" fill="none" stroke="#09a274" stroke-width="1"/>
    <path id="Trazado_3218" data-name="Trazado 3218" d="M6814.345-1041.494v-40.654" transform="translate(-6005.316 2560.647)" fill="none" stroke="#2476ec" stroke-width="1" stroke-dasharray="2 2"/>
    <path id="Trazado_3229" data-name="Trazado 3229" d="M6814.345-1052.781v-29.366" transform="translate(-6348.816 2801.329)" fill="none" stroke="#2476ec" stroke-width="1" stroke-dasharray="2 2"/>
    <path id="Trazado_3232" data-name="Trazado 3232" d="M6814.345-1052.781v-29.366" transform="translate(-6223.383 2801.329)" fill="none" stroke="#2476ec" stroke-width="1" stroke-dasharray="2 2"/>
    <path id="Trazado_3233" data-name="Trazado 3233" d="M6814.345-1052.781v-29.366" transform="translate(-6090.888 2801.329)" fill="none" stroke="#2476ec" stroke-width="1" stroke-dasharray="2 2"/>
    <path id="Trazado_3239" data-name="Trazado 3239" d="M6814.345-1052.781v-29.366" transform="translate(-5838.888 2801.329)" fill="none" stroke="#2476ec" stroke-width="1" stroke-dasharray="2 2"/>
    <path id="Trazado_3224" data-name="Trazado 3224" d="M6814.345-1018.765v-63.382" transform="translate(-6005.316 2653.772)" fill="none" stroke="#2476ec" stroke-width="1" stroke-dasharray="2 2"/>
    <path id="Trazado_3200" data-name="Trazado 3200" d="M6943-979v18.584h82.908v18.684" transform="translate(-6392 2222)" fill="none" stroke="#2476ec" stroke-width="1" stroke-dasharray="2 2"/>
    <path id="Trazado_3202" data-name="Trazado 3202" d="M7019.519-979v37.031H6943v37.231" transform="translate(-6385.611 2329.737)" fill="none" stroke="#2476ec" stroke-width="1" stroke-dasharray="2 2"/>
    <path id="Trazado_3228" data-name="Trazado 3228" d="M7240-520.241h29.914v29.366" transform="translate(-6416 2239.423)" fill="none" stroke="#2476ec" stroke-width="1" stroke-dasharray="2 2"/>
    <path id="Trazado_3237" data-name="Trazado 3237" d="M7240-520.241h29.914v29.366" transform="translate(-6171.956 2239.423)" fill="none" stroke="#2476ec" stroke-width="1" stroke-dasharray="2 2"/>
    <path id="Trazado_3245" data-name="Trazado 3245" d="M7269.913-516.318H7483.28" transform="translate(-6415.047 2235.5)" fill="none" stroke="#2476ec" stroke-width="1"/>
    <path id="Trazado_3258" data-name="Trazado 3258" d="M7548.472-129.955h11.179v-653.5h-26.6" transform="translate(-6403.651 1906.955)" fill="none" stroke="#e1501b" stroke-width="1"/>
  </g>
</svg>
