<svg id="Componente_12_1" data-name="Componente 12 – 1" xmlns="http://www.w3.org/2000/svg" xmlns:xlink="http://www.w3.org/1999/xlink" width="1920" height="400" viewBox="0 0 1920 400">
  <defs>
    <linearGradient id="linear-gradient" x1="1" y1="0.47" x2="0" y2="0.401" gradientUnits="objectBoundingBox">
      <stop offset="0" stop-color="#005054"/>
      <stop offset="0.533" stop-color="#00634b"/>
      <stop offset="1" stop-color="#09a274"/>
    </linearGradient>
    <clipPath id="clip-path">
      <rect id="Rectángulo_2288" data-name="Rectángulo 2288" width="416.63" height="78.335" fill="#fff"/>
    </clipPath>
  </defs>
  <path id="Trazado_2419" data-name="Trazado 2419" d="M0,0H1920V400H0Z" fill="url(#linear-gradient)"/>
  <g id="Grupo_228" data-name="Grupo 228" transform="translate(835 302.549)">
    <g id="Grupo_227" data-name="Grupo 227" transform="translate(95.233)">
      <path id="Trazado_829" data-name="Trazado 829" d="M170.747-46.077h-.024c-.092,0-.185.024-.3.024-.509,0-.9-.277-.9-1.386V-50.58c0-3.164.022-6.905.043-8.845v-.093a1.68,1.68,0,0,0-1.847-1.916c-.207,0-.531.023-.763.023a.685.685,0,0,0-.715.694.593.593,0,0,0,.646.6h.045a2.853,2.853,0,0,1,.37-.024c.923,0,.923.393.925,1.964,0,1.34-.023,2.979-.023,4.157,0,.3-.023.416-.069.416s-.116-.116-.231-.278a4.643,4.643,0,0,0-3.65-1.662,5.171,5.171,0,0,0-5.241,5.475,5.145,5.145,0,0,0,5.244,5.518,4.808,4.808,0,0,0,3.856-1.94c.046-.046.069-.07.093-.07.069,0,.092.092.116.231a1.892,1.892,0,0,0,2.1,1.639c.3,0,.923-.068.923-.715A.614.614,0,0,0,170.747-46.077Zm-6.444.256c-2.309,0-3.926-1.616-3.927-4.248,0-2.657,1.593-4.273,3.926-4.274a3.941,3.941,0,0,1,3.9,4.272A3.947,3.947,0,0,1,164.3-45.821Z" transform="translate(-116.714 65.356)" fill="#fff"/>
      <path id="Trazado_830" data-name="Trazado 830" d="M182.267-46.167c-.924-.323-1.085-.877-1.085-2.564,0-.877.045-2.078.115-2.841a6.1,6.1,0,0,0,.024-.646c0-2.587-1.457-3.533-3.605-3.533-1.985,0-3.925.994-3.925,1.871a.626.626,0,0,0,.647.624.645.645,0,0,0,.485-.231,3.64,3.64,0,0,1,2.7-1.109c1.871,0,2.4.993,2.4,2.263,0,.116-.023.254-.023.369,0,.161-.092.231-.369.278a37.04,37.04,0,0,0-4.272.947,3.086,3.086,0,0,0-2.471,2.864,3.44,3.44,0,0,0,3.743,3.187,4.27,4.27,0,0,0,3.51-1.78.122.122,0,0,1,.092-.069c.046,0,.069.046.093.116a1.964,1.964,0,0,0,1.71,1.477.624.624,0,0,0,.623-.646A.586.586,0,0,0,182.267-46.167Zm-2.288-3.787c0,3.556-2.193,4.041-3.371,4.042a2.208,2.208,0,0,1-2.471-1.94c0-1.617,1.917-2.078,5.542-2.657h.07c.161,0,.23.069.23.255Z" transform="translate(-116.272 65.537)" fill="#fff"/>
      <path id="Trazado_831" data-name="Trazado 831" d="M189.819-45.909h-.093a6.339,6.339,0,0,1-.646.046c-1.8,0-1.848-1.224-1.848-3.024,0-1.71.068-4.088.068-4.966,0-.277,0-.323.369-.323H189.7a.6.6,0,0,0,.647-.624.594.594,0,0,0-.647-.6h-2.057c-.3,0-.346,0-.347-.254,0,0,.046-1.848.046-2.518a.655.655,0,0,0-.67-.716.654.654,0,0,0-.67.671v.577c0,.808-.024,1.917-.024,2.01,0,.207-.044.23-.253.23h-1.339a.6.6,0,0,0-.647.6.6.6,0,0,0,.647.623h1.362c.162,0,.231.023.231.254v.369c0,1.132-.044,3.949-.044,5.426,0,1.017,0,3.534,2.957,3.534.924,0,1.478-.118,1.478-.717A.573.573,0,0,0,189.819-45.909Z" transform="translate(-115.926 65.437)" fill="#fff"/>
      <path id="Trazado_832" data-name="Trazado 832" d="M201.693-46.172c-.923-.323-1.085-.877-1.085-2.563,0-.878.045-2.078.116-2.841a6.375,6.375,0,0,0,.023-.647c0-2.586-1.456-3.533-3.605-3.533-1.985,0-3.925.994-3.925,1.872a.626.626,0,0,0,.647.623.64.64,0,0,0,.485-.231,3.644,3.644,0,0,1,2.7-1.109c1.871,0,2.4.994,2.4,2.263,0,.116-.022.255-.022.37,0,.161-.093.231-.369.278a36.879,36.879,0,0,0-4.273.947,3.084,3.084,0,0,0-2.47,2.863,3.439,3.439,0,0,0,3.741,3.187,4.268,4.268,0,0,0,3.51-1.78.125.125,0,0,1,.093-.069c.045,0,.068.046.092.116a1.965,1.965,0,0,0,1.71,1.478.624.624,0,0,0,.623-.647A.587.587,0,0,0,201.693-46.172Zm-2.287-3.787c0,3.557-2.194,4.042-3.372,4.043a2.208,2.208,0,0,1-2.471-1.94c0-1.617,1.917-2.079,5.542-2.658h.07c.161,0,.231.07.231.255Z" transform="translate(-115.653 65.537)" fill="#fff"/>
      <path id="Trazado_833" data-name="Trazado 833" d="M209.131-50.516c-.716-.369-1.824-.831-2.471-1.131a1.777,1.777,0,0,1-1.132-1.523c0-.763.67-1.48,1.871-1.48.138,0,2.194,0,2.194,1.847a.593.593,0,0,0,.647.6.569.569,0,0,0,.578-.554V-52.8c-.024-.53-.024-.878-.024-1.2,0-.347,0-.67.024-1.155v-.023a.54.54,0,0,0-.579-.554.519.519,0,0,0-.53.369c-.023.069,0,.277-.116.277a.173.173,0,0,1-.139-.045,3.714,3.714,0,0,0-2.032-.623c-2.057,0-3.141,1.318-3.141,2.656a2.792,2.792,0,0,0,1.872,2.564c2.679,1.108,3.7,1.661,3.7,2.886,0,1.108-1.133,1.778-2.309,1.778-1.318,0-2.472-.761-2.472-1.523,0-.162.046-.277.046-.44a.593.593,0,0,0-.623-.623.606.606,0,0,0-.646.6v.046c.023.553.045.9.045,1.246s-.023.692-.045,1.2v.046a.556.556,0,0,0,.6.553c.277,0,.554-.069.554-.646,0-.069.023-.116.069-.116a.293.293,0,0,1,.162.093,3.627,3.627,0,0,0,2.31.76c2.632,0,3.648-1.71,3.648-2.979A3.308,3.308,0,0,0,209.131-50.516Z" transform="translate(-115.286 65.537)" fill="#fff"/>
      <path id="Trazado_834" data-name="Trazado 834" d="M223.514-46.067c-.138,0-.253.024-.346.024a.855.855,0,0,1-.67-.277c-4.181-3.832-4.782-4.387-4.782-4.548,0-.07.046-.139.185-.231,1.131-.74,2.91-1.941,4.272-2.864a1.1,1.1,0,0,1,.577-.208c.324,0,.139.023.462.023h.023a.608.608,0,0,0,.647-.6.563.563,0,0,0-.67-.6c-.6.023-1.155.024-1.662.024-.531,0-1.04,0-1.617-.023h-.046a.587.587,0,0,0-.623.6c0,.554.554.554.969.554.117,0,.163.023.163.069,0,.023-.024.069-.093.116-3.649,2.519-3.74,2.541-3.994,2.541a.347.347,0,0,1-.393-.369s.044-4.9.044-7.876c0-.508-.162-1.731-2.056-1.73-.808,0-1.223.069-1.223.67a.629.629,0,0,0,.646.646h.53c.578.024.763.278.763.924,0,1.247.024,2.8.025,4.412,0,2.817-.022,5.934-.067,8.36a.364.364,0,0,1-.392.392c-.37,0-.417-.023-.693-.023h-.023a.636.636,0,0,0-.67.647.6.6,0,0,0,.693.6c.53-.024,1.086-.046,1.662-.046.6,0,1.2.022,1.8.045h.023a.619.619,0,0,0,.669-.624.618.618,0,0,0-.669-.623h-.024a5.939,5.939,0,0,1-.647.023.352.352,0,0,1-.392-.392c-.024-1.108-.024-1.848-.024-2.4,0-1.2.023-1.407.369-1.407a.824.824,0,0,1,.692.277c.716.739,2.611,2.493,3.835,3.693a.181.181,0,0,1,.045.093c0,.024,0,.162-.6.162a.541.541,0,0,0-.622.6.587.587,0,0,0,.623.6h.046c.531-.023,1.039-.045,1.547-.045s1.063.022,1.663.044h.023a.617.617,0,0,0,.647-.647A.572.572,0,0,0,223.514-46.067Z" transform="translate(-115.005 65.356)" fill="#fff"/>
      <path id="Trazado_835" data-name="Trazado 835" d="M234.56-47.659a.66.66,0,0,0-.462.207,4.132,4.132,0,0,1-3.348,1.525,3.772,3.772,0,0,1-3.881-4.063c0-.323.046-.415.278-.416.508,0,2.47.023,4.2.023.854,0,1.64,0,2.171-.024,1.178-.046,1.686-.693,1.686-1.548a4.3,4.3,0,0,0-4.551-3.787,5.281,5.281,0,0,0-5.149,5.59,5.161,5.161,0,0,0,5.221,5.449c2.91,0,4.527-1.757,4.527-2.288A.706.706,0,0,0,234.56-47.659Zm-3.882-6.928a2.9,2.9,0,0,1,3.165,2.4c0,.369-.207.624-.761.648-.647.023-1.94.023-3.141.023-2.679,0-2.887,0-2.887-.23A3.739,3.739,0,0,1,230.679-54.586Z" transform="translate(-114.596 65.537)" fill="#fff"/>
      <path id="Trazado_836" data-name="Trazado 836" d="M242.7-45.92h-.093c-.23.023-.439.045-.646.045-1.8,0-1.848-1.224-1.849-3.025,0-1.709.069-4.087.069-4.965,0-.277,0-.323.369-.323h2.032a.6.6,0,0,0,.648-.624.6.6,0,0,0-.648-.6h-2.054c-.3,0-.347,0-.348-.254,0,0,.046-1.847.046-2.518a.654.654,0,0,0-.671-.714.654.654,0,0,0-.67.669v.578c0,.808-.023,1.916-.023,2.009,0,.207-.045.23-.253.23h-1.339a.6.6,0,0,0-.647.6.6.6,0,0,0,.647.624h1.362c.162,0,.231.023.231.254v.369c0,1.132-.045,3.95-.045,5.427,0,1.016,0,3.534,2.957,3.533.925,0,1.479-.116,1.479-.716A.572.572,0,0,0,242.7-45.92Z" transform="translate(-114.242 65.437)" fill="#fff"/>
      <path id="Trazado_837" data-name="Trazado 837" d="M254.1-47.66a.727.727,0,0,0-.6.346,3.635,3.635,0,0,1-2.956,1.34,4.046,4.046,0,0,1-4.019-4.295,4.082,4.082,0,0,1,4.018-4.366,3.034,3.034,0,0,1,2.356.946c.277.323.207.6.23,1.085a.612.612,0,0,0,.648.554.6.6,0,0,0,.669-.578v-.046c-.023-.53-.023-.9-.023-1.246,0-.369,0-.715.023-1.2v-.046a.6.6,0,0,0-.671-.577c-.254,0-.529.115-.553.393-.023.115-.046.253-.116.253-.046,0-.069-.023-.115-.045a5.32,5.32,0,0,0-2.611-.692,5.351,5.351,0,0,0-5.2,5.66,5.25,5.25,0,0,0,5.43,5.449c2.494,0,4.225-1.548,4.225-2.218A.74.74,0,0,0,254.1-47.66Z" transform="translate(-113.97 65.534)" fill="#fff"/>
      <path id="Trazado_838" data-name="Trazado 838" d="M267.726-46.075H267.7c-.324,0-.3.023-.647.023-.278,0-.392-.162-.392-.416,0-1.824-.025-4.48-.047-5.45a3.658,3.658,0,0,0-3.858-3.694,4.325,4.325,0,0,0-3.417,1.571c-.046.046-.069.069-.092.069s-.046-.046-.046-.116c0-.323.022-2.4.022-4.272q0-.693,0-1.317a1.611,1.611,0,0,0-1.569-1.756,5.209,5.209,0,0,0-.578-.045c-.993,0-1.177.3-1.177.693a.63.63,0,0,0,.646.646h.024a4.561,4.561,0,0,1,.508-.023c.6.023.785.347.785.946,0,1.386.024,3.256.025,5.22,0,2.77-.022,5.68-.044,7.552a.348.348,0,0,1-.37.393c-.369,0-.439-.024-.739-.024h-.023a.635.635,0,0,0-.669.648.6.6,0,0,0,.692.6c.531-.023,1.108-.046,1.686-.047s1.2.024,1.8.046h.023a.632.632,0,0,0,.67-.623.627.627,0,0,0-.693-.624,5.673,5.673,0,0,1-.646.024.353.353,0,0,1-.393-.393c0-1.084-.023-2.1-.024-2.955,0-.832.024-1.525.024-1.964a3.372,3.372,0,0,1,3.439-3.025,2.591,2.591,0,0,1,2.657,2.723c.023.44.046,1.525.046,2.726,0,.854-.023,1.731-.023,2.494a.358.358,0,0,1-.369.392c-.369,0-.393-.022-.693-.022h-.023a.635.635,0,0,0-.669.646.6.6,0,0,0,.692.6c.532-.025,1.085-.047,1.663-.047.6,0,1.2.023,1.8.046h.023a.62.62,0,0,0,.67-.624A.619.619,0,0,0,267.726-46.075Z" transform="translate(-113.629 65.354)" fill="#fff"/>
      <path id="Trazado_839" data-name="Trazado 839" d="M143.753-51.257V-62.926a2.312,2.312,0,0,0-2.309-2.309H120.328a2.311,2.311,0,0,0-2.309,2.309v15.361a2.311,2.311,0,0,0,2.309,2.309H130.3l-3.762,3.786a.574.574,0,0,0,0,.811.575.575,0,0,0,.4.166.573.573,0,0,0,.407-.169l3.535-3.558,3.534,3.558a.574.574,0,0,0,.407.169.575.575,0,0,0,.4-.166.574.574,0,0,0,0-.811l-3.76-3.785h9.971a2.312,2.312,0,0,0,2.309-2.309v-2.308l6.661,4.518a.565.565,0,0,0,.321.1.575.575,0,0,0,.475-.251.574.574,0,0,0-.153-.8Zm-1.146-.778-3.917-2.658a.574.574,0,0,0-.8.153.573.573,0,0,0,.153.8l4.561,3.094v3.085a1.165,1.165,0,0,1-1.163,1.164H120.328a1.165,1.165,0,0,1-1.164-1.164V-62.926a1.166,1.166,0,0,1,1.164-1.164h21.116a1.166,1.166,0,0,1,1.163,1.164Z" transform="translate(-118.019 65.235)" fill="#fff"/>
    </g>
    <g id="Grupo_226" data-name="Grupo 226" transform="translate(0 10.322)">
      <path id="Trazado_840" data-name="Trazado 840" d="M205.762-75.5a3.391,3.391,0,0,0,.313-1.52,2.816,2.816,0,0,0-1.171-2.5,5.95,5.95,0,0,0-3.365-.8q-.654,0-1.432.051a9.006,9.006,0,0,0-1.418.2v9.931h1.832v-3.548h.916a9.145,9.145,0,0,0,1.963-.189,4.217,4.217,0,0,0,1.454-.588A2.622,2.622,0,0,0,205.762-75.5Zm-2.319-.131a4.5,4.5,0,0,1-2.036.37h-.887V-78.69c.3-.029.683-.044,1.149-.044a5.663,5.663,0,0,1,.981.081,2.5,2.5,0,0,1,.793.268,1.368,1.368,0,0,1,.523.523,1.664,1.664,0,0,1,.189.829A1.436,1.436,0,0,1,203.444-75.628Z" transform="translate(-198.689 81.423)" fill="#fff"/>
      <path id="Trazado_841" data-name="Trazado 841" d="M212.38-77.1a3.291,3.291,0,0,0-1.155-.808,3.787,3.787,0,0,0-1.476-.283,3.721,3.721,0,0,0-1.469.283,3.364,3.364,0,0,0-1.155.808,3.69,3.69,0,0,0-.757,1.258A4.736,4.736,0,0,0,206.1-74.2a4.8,4.8,0,0,0,.268,1.643,3.757,3.757,0,0,0,.749,1.266,3.354,3.354,0,0,0,1.149.813,3.686,3.686,0,0,0,1.483.291,3.735,3.735,0,0,0,1.49-.291,3.333,3.333,0,0,0,1.156-.813,3.652,3.652,0,0,0,.742-1.266A4.906,4.906,0,0,0,213.4-74.2a4.709,4.709,0,0,0-.27-1.635A3.742,3.742,0,0,0,212.38-77.1Zm-1.273,4.711a1.584,1.584,0,0,1-1.359.669,1.587,1.587,0,0,1-1.36-.669A3.029,3.029,0,0,1,207.9-74.2a2.967,2.967,0,0,1,.487-1.8,1.592,1.592,0,0,1,1.36-.662,1.589,1.589,0,0,1,1.359.662,2.96,2.96,0,0,1,.488,1.8A3.021,3.021,0,0,1,211.107-72.385Z" transform="translate(-197.811 81.676)" fill="#fff"/>
      <path id="Trazado_842" data-name="Trazado 842" d="M214.567-73.771q.32.975.641,1.832t.612,1.527h1.445q.376-1.075.762-2.291t.719-2.493q.334,1.28.734,2.493t.777,2.291h1.429q.305-.668.626-1.527t.641-1.832q.32-.973.641-2.05t.626-2.2H222.4q-.132.611-.306,1.316t-.374,1.439q-.2.735-.4,1.433c-.136.465-.268.89-.395,1.278q-.218-.668-.427-1.381t-.391-1.425q-.183-.713-.341-1.388t-.291-1.273h-1.352q-.131.6-.3,1.273t-.357,1.388q-.19.713-.4,1.425t-.431,1.381c-.135-.388-.272-.813-.409-1.278s-.267-.943-.395-1.433-.247-.97-.365-1.439-.219-.909-.306-1.316H213.3q.305,1.119.626,2.2T214.567-73.771Z" transform="translate(-196.958 81.695)" fill="#fff"/>
      <path id="Trazado_843" data-name="Trazado 843" d="M227.781-70.2a6.728,6.728,0,0,0,.771-.044c.252-.029.487-.065.706-.11a5.873,5.873,0,0,0,.58-.144,2.773,2.773,0,0,0,.4-.153l-.233-1.439a4.777,4.777,0,0,1-.837.247,5.423,5.423,0,0,1-1.17.116,2.461,2.461,0,0,1-1.665-.5,2.007,2.007,0,0,1-.646-1.418H230.7c.009-.1.017-.2.022-.327s.007-.23.007-.328a4.208,4.208,0,0,0-.88-2.907,3.126,3.126,0,0,0-2.449-.975,3.5,3.5,0,0,0-1.309.255,3.276,3.276,0,0,0-1.134.756,3.7,3.7,0,0,0-.793,1.257,4.772,4.772,0,0,0-.3,1.759,5.1,5.1,0,0,0,.233,1.578,3.392,3.392,0,0,0,.712,1.25,3.257,3.257,0,0,0,1.221.829A4.678,4.678,0,0,0,227.781-70.2ZM225.862-75.6a1.815,1.815,0,0,1,.327-.567,1.618,1.618,0,0,1,.517-.4,1.573,1.573,0,0,1,.712-.153,1.514,1.514,0,0,1,.676.139,1.4,1.4,0,0,1,.48.378,1.652,1.652,0,0,1,.3.567,2.336,2.336,0,0,1,.1.69H225.7A3.1,3.1,0,0,1,225.862-75.6Z" transform="translate(-195.706 81.676)" fill="#fff"/>
      <path id="Trazado_844" data-name="Trazado 844" d="M235.509-78.079c-.156-.025-.311-.044-.465-.059s-.291-.021-.407-.021a7.89,7.89,0,0,0-1.693.168,9.675,9.675,0,0,0-1.273.356V-70.4h1.759v-6.092a4.007,4.007,0,0,1,.457-.1,3.612,3.612,0,0,1,.619-.058,4.408,4.408,0,0,1,.894.081,5.808,5.808,0,0,1,.6.152l.305-1.483c-.087-.029-.2-.059-.349-.094S235.663-78.055,235.509-78.079Z" transform="translate(-194.782 81.679)" fill="#fff"/>
      <path id="Trazado_845" data-name="Trazado 845" d="M237.477-71.33a3.257,3.257,0,0,0,1.221.829,4.678,4.678,0,0,0,1.745.3,6.727,6.727,0,0,0,.771-.044c.252-.029.487-.065.706-.11a5.872,5.872,0,0,0,.58-.144,2.77,2.77,0,0,0,.4-.153l-.233-1.439a4.82,4.82,0,0,1-.835.247,5.44,5.44,0,0,1-1.171.116,2.461,2.461,0,0,1-1.665-.5,2.006,2.006,0,0,1-.647-1.418h5.016c.009-.1.017-.2.021-.327s.008-.23.008-.328a4.208,4.208,0,0,0-.88-2.907,3.126,3.126,0,0,0-2.449-.975,3.5,3.5,0,0,0-1.309.255,3.265,3.265,0,0,0-1.134.756,3.7,3.7,0,0,0-.793,1.257,4.8,4.8,0,0,0-.3,1.759,5.1,5.1,0,0,0,.233,1.578A3.392,3.392,0,0,0,237.477-71.33Zm1.047-4.268a1.816,1.816,0,0,1,.327-.567,1.618,1.618,0,0,1,.517-.4,1.573,1.573,0,0,1,.712-.153,1.526,1.526,0,0,1,.677.139,1.4,1.4,0,0,1,.479.378,1.652,1.652,0,0,1,.3.567,2.335,2.335,0,0,1,.1.69h-3.272A3.04,3.04,0,0,1,238.524-75.6Z" transform="translate(-194.206 81.676)" fill="#fff"/>
      <path id="Trazado_846" data-name="Trazado 846" d="M247.823-69.834a10.2,10.2,0,0,0,1.664-.131,10.277,10.277,0,0,0,1.316-.291v-11.05l-1.759.291v3.649a4.4,4.4,0,0,0-.727-.291,3.291,3.291,0,0,0-.974-.131,3.447,3.447,0,0,0-1.439.284,2.944,2.944,0,0,0-1.061.806,3.6,3.6,0,0,0-.662,1.257,5.58,5.58,0,0,0-.225,1.636,4.787,4.787,0,0,0,.268,1.651,3.494,3.494,0,0,0,.771,1.25,3.356,3.356,0,0,0,1.215.792A4.428,4.428,0,0,0,247.823-69.834ZM246.2-75.621a1.576,1.576,0,0,1,1.4-.654,2.419,2.419,0,0,1,.821.138,2.778,2.778,0,0,1,.618.3v4.362c-.126.029-.289.056-.488.081a6.23,6.23,0,0,1-.719.036,1.881,1.881,0,0,1-1.527-.661,2.758,2.758,0,0,1-.553-1.825A3.124,3.124,0,0,1,246.2-75.621Z" transform="translate(-193.327 81.306)" fill="#fff"/>
      <path id="Trazado_847" data-name="Trazado 847" d="M258.089-69.834a4.434,4.434,0,0,0,1.615-.276,3.312,3.312,0,0,0,1.214-.8,3.552,3.552,0,0,0,.771-1.257,4.781,4.781,0,0,0,.268-1.651,5.524,5.524,0,0,0-.225-1.622,3.725,3.725,0,0,0-.646-1.257,2.81,2.81,0,0,0-1.055-.806,3.466,3.466,0,0,0-1.432-.284,3.461,3.461,0,0,0-.982.131,4.133,4.133,0,0,0-.748.291v-3.94l-1.76.291v10.759a10.321,10.321,0,0,0,1.316.291A10.2,10.2,0,0,0,258.089-69.834Zm-1.22-6.019a2.492,2.492,0,0,1,.617-.29,2.508,2.508,0,0,1,.822-.132,1.574,1.574,0,0,1,1.4.654,3.123,3.123,0,0,1,.444,1.774,2.758,2.758,0,0,1-.554,1.825,1.881,1.881,0,0,1-1.526.661,6.236,6.236,0,0,1-.72-.036,4.857,4.857,0,0,1-.487-.081Z" transform="translate(-192.006 81.306)" fill="#fff"/>
      <path id="Trazado_848" data-name="Trazado 848" d="M263.057-69.177a2.873,2.873,0,0,1-1.038-.2l-.319,1.41a2.673,2.673,0,0,0,.6.189,3.783,3.783,0,0,0,.808.087,3.816,3.816,0,0,0,1.077-.138,2.449,2.449,0,0,0,.844-.444,3.367,3.367,0,0,0,.684-.771,7.89,7.89,0,0,0,.6-1.12,55.471,55.471,0,0,0,2.729-7.851h-1.817q-.334,1.367-.739,2.829t-.868,2.756q-.277-.626-.555-1.353t-.526-1.461q-.247-.735-.46-1.447t-.357-1.323h-1.876A38.407,38.407,0,0,0,263.21-74q.767,1.891,1.6,3.49a2.679,2.679,0,0,1-.679,1.011A1.614,1.614,0,0,1,263.057-69.177Z" transform="translate(-191.225 81.695)" fill="#fff"/>
    </g>
  </g>
  <g id="Grupo_1309" data-name="Grupo 1309" transform="translate(305 75.322)">
    <g id="Grupo_1308" data-name="Grupo 1308" transform="translate(0 0)" clip-path="url(#clip-path)">
      <path id="Trazado_2356" data-name="Trazado 2356" d="M143.215,26.989a5.443,5.443,0,0,0,1.295-3.776,5.134,5.134,0,0,0-.884-3.035A7.262,7.262,0,0,0,140.82,18a7.022,7.022,0,0,1-2.486-1.826A4.174,4.174,0,0,1,137.7,13.7a3.569,3.569,0,0,1,.875-2.52,2.941,2.941,0,0,1,2.27-.95,6.335,6.335,0,0,1,2.925.738l.492-1.217a6.7,6.7,0,0,0-1.415-.532,7.623,7.623,0,0,0-2-.245,4.374,4.374,0,0,0-2.241.6,4.191,4.191,0,0,0-1.593,1.692,5.275,5.275,0,0,0-.569,2.485,6.182,6.182,0,0,0,.35,2.2,4.323,4.323,0,0,0,1.074,1.614,9.233,9.233,0,0,0,2.188,1.429,6.811,6.811,0,0,1,2.524,1.838,4.18,4.18,0,0,1,.661,2.486,4.175,4.175,0,0,1-.933,2.8,2.981,2.981,0,0,1-2.382,1.1,9.139,9.139,0,0,1-1.967-.219,6.189,6.189,0,0,1-1.671-.6V27.77a8.454,8.454,0,0,0,3.638.661,4.221,4.221,0,0,0,3.288-1.442" transform="translate(26.919 1.772)" fill="#fff"/>
      <rect id="Rectángulo_2279" data-name="Rectángulo 2279" width="1.23" height="14.047" transform="translate(174.445 15.896)" fill="#fff"/>
      <path id="Trazado_2357" data-name="Trazado 2357" d="M146.376,11.44a.638.638,0,0,0,.557-.328,1.674,1.674,0,0,0,.207-.889,1.679,1.679,0,0,0-.207-.907.633.633,0,0,0-.557-.323.737.737,0,0,0-.617.323,1.492,1.492,0,0,0-.238.907,1.487,1.487,0,0,0,.238.889.741.741,0,0,0,.617.328" transform="translate(28.742 1.776)" fill="#fff"/>
      <path id="Trazado_2358" data-name="Trazado 2358" d="M154.571,26.623a3.924,3.924,0,0,0,.933-2.779,4.258,4.258,0,0,0-.255-1.536,3.686,3.686,0,0,0-.769-1.217,11.751,11.751,0,0,0-1.916-1.466,6.775,6.775,0,0,1-1.865-1.52,2.662,2.662,0,0,1-.439-1.564,2.281,2.281,0,0,1,.647-1.69,2.378,2.378,0,0,1,1.735-.639,3.978,3.978,0,0,1,2.253.711l.635-1.074a4.81,4.81,0,0,0-2.836-.8,3.572,3.572,0,0,0-2.6.992,3.334,3.334,0,0,0-1.023,2.5,3.945,3.945,0,0,0,.293,1.606,4.045,4.045,0,0,0,.812,1.218,11.665,11.665,0,0,0,1.964,1.45,6.254,6.254,0,0,1,1.7,1.457,2.7,2.7,0,0,1,.444,1.571,2.791,2.791,0,0,1-.621,1.9,2.151,2.151,0,0,1-1.709.713,4.538,4.538,0,0,1-1.618-.295,3.4,3.4,0,0,1-1.269-.768v1.438a4.153,4.153,0,0,0,1.127.542,5.2,5.2,0,0,0,1.682.247,3.49,3.49,0,0,0,2.693-1" transform="translate(29.443 2.577)" fill="#fff"/>
      <path id="Trazado_2359" data-name="Trazado 2359" d="M160.613,26.836a3.008,3.008,0,0,1-1.01.157,1.163,1.163,0,0,1-1.087-.519,4.162,4.162,0,0,1-.311-1.942V14.913h2.227V13.825h-2.227v-3.34h-.854l-.4,3.34-1.242.362v.727h1.268v9.968q0,3.251,2.175,3.25a3.556,3.556,0,0,0,1.463-.259Z" transform="translate(30.754 2.071)" fill="#fff"/>
      <path id="Trazado_2360" data-name="Trazado 2360" d="M165.276,13.047a3.355,3.355,0,0,0-3.073,1.9,11.332,11.332,0,0,0-1.069,5.493,9.818,9.818,0,0,0,1.2,5.287,3.807,3.807,0,0,0,3.421,1.9,5.274,5.274,0,0,0,2.836-.842V25.592a5.481,5.481,0,0,1-2.783.868,2.736,2.736,0,0,1-2.551-1.528,9.978,9.978,0,0,1-.867-4.6h6.655V19.2a8.6,8.6,0,0,0-1.011-4.483,3.1,3.1,0,0,0-2.758-1.666m-2.861,6.176q.246-5.062,2.783-5.062a2.127,2.127,0,0,1,1.908,1.372,8.118,8.118,0,0,1,.709,3.69Z" transform="translate(31.826 2.577)" fill="#fff"/>
      <path id="Trazado_2361" data-name="Trazado 2361" d="M183.5,27.366V18.187a7.869,7.869,0,0,0-.738-3.915,2.517,2.517,0,0,0-2.332-1.226,3.051,3.051,0,0,0-1.916.57,4.245,4.245,0,0,0-1.242,1.865,3.58,3.58,0,0,0-.971-1.813,2.606,2.606,0,0,0-1.838-.622,2.953,2.953,0,0,0-2.862,2.227h-.116l-.1-1.954h-1.036V27.366h1.23V19.649a9.815,9.815,0,0,1,.635-4.117,2.125,2.125,0,0,1,2.033-1.268,1.69,1.69,0,0,1,1.566.872,5.491,5.491,0,0,1,.505,2.662v9.568h1.217V19.145a8.265,8.265,0,0,1,.63-3.648,2.135,2.135,0,0,1,2.05-1.233q2.071,0,2.072,3.534v9.568Z" transform="translate(33.645 2.577)" fill="#fff"/>
      <path id="Trazado_2362" data-name="Trazado 2362" d="M191.022,17.8a6.584,6.584,0,0,0-.764-3.655,2.831,2.831,0,0,0-2.5-1.1,5.749,5.749,0,0,0-3.069.907l.532.971a4.607,4.607,0,0,1,2.46-.789,1.719,1.719,0,0,1,1.631.9,6.3,6.3,0,0,1,.492,2.87v1.165l-1.515.078a5.017,5.017,0,0,0-3.379,1.273,4.243,4.243,0,0,0-1.2,3.181,4.671,4.671,0,0,0,.837,2.93,2.625,2.625,0,0,0,2.2,1.1,3.259,3.259,0,0,0,3.056-2.226h.051l.156,1.968h1.009Zm-1.217,3.794a7.689,7.689,0,0,1-.729,3.686,2.274,2.274,0,0,1-2.054,1.3,1.759,1.759,0,0,1-1.477-.711A3.7,3.7,0,0,1,185,23.624a3.435,3.435,0,0,1,.82-2.481,3.678,3.678,0,0,1,2.52-.936l1.463-.078Z" transform="translate(36.285 2.577)" fill="#fff"/>
      <path id="Trazado_2363" data-name="Trazado 2363" d="M203.873,26.359l.1,1.969h1.009V8.182h-1.23v6.3l.051,1.566h-.1a3.942,3.942,0,0,0-1.351-1.5,3.324,3.324,0,0,0-4.813,1.329,11.586,11.586,0,0,0-1.023,5.442q0,7.264,4.092,7.264a3.074,3.074,0,0,0,1.838-.578,4.105,4.105,0,0,0,1.308-1.649Zm-.915-.216a2.485,2.485,0,0,1-2.27,1.368,2.292,2.292,0,0,1-2.2-1.566,11.93,11.93,0,0,1-.686-4.6,12.408,12.408,0,0,1,.66-4.588,2.252,2.252,0,0,1,2.175-1.588,2.5,2.5,0,0,1,2.348,1.485,10.609,10.609,0,0,1,.772,4.664v.8a8.055,8.055,0,0,1-.8,4.018" transform="translate(38.815 1.616)" fill="#fff"/>
      <path id="Trazado_2364" data-name="Trazado 2364" d="M210.818,27.626a5.264,5.264,0,0,0,2.836-.842v-1.19a5.5,5.5,0,0,1-2.784.867,2.736,2.736,0,0,1-2.551-1.528,9.99,9.99,0,0,1-.867-4.6h6.655V19.2a8.6,8.6,0,0,0-1.009-4.485,3.1,3.1,0,0,0-2.758-1.666,3.354,3.354,0,0,0-3.073,1.9A11.336,11.336,0,0,0,206.2,20.44a9.827,9.827,0,0,0,1.2,5.286,3.8,3.8,0,0,0,3.423,1.9m-.557-13.465a2.13,2.13,0,0,1,1.908,1.372,8.12,8.12,0,0,1,.708,3.69h-5.4q.244-5.062,2.783-5.062" transform="translate(40.727 2.577)" fill="#fff"/>
      <rect id="Rectángulo_2280" data-name="Rectángulo 2280" width="1.269" height="18.928" transform="translate(263.132 11.015)" fill="#fff"/>
      <path id="Trazado_2365" data-name="Trazado 2365" d="M225.319,19.65a8.844,8.844,0,0,1,.734-4.157,2.452,2.452,0,0,1,2.309-1.306q2.071,0,2.072,3.5v9.684h1.217V17.656a5.949,5.949,0,0,0-.815-3.514,2.859,2.859,0,0,0-2.448-1.1,3.021,3.021,0,0,0-1.773.583,3.673,3.673,0,0,0-1.269,1.644h-.116l-.1-1.956h-1.036V27.367h1.23Z" transform="translate(44.261 2.577)" fill="#fff"/>
      <path id="Trazado_2366" data-name="Trazado 2366" d="M234.564,9.241a8.636,8.636,0,0,0-.635,3.858v1.061l-1.787.532v.7h1.787V28.351h1.217V15.391h2.2V14.3h-2.2V13.125a13.606,13.606,0,0,1,.156-2.33,2.613,2.613,0,0,1,.479-1.217,1.2,1.2,0,0,1,.958-.375,2.958,2.958,0,0,1,1.243.323l.428-1.14a4.057,4.057,0,0,0-1.644-.323,2.287,2.287,0,0,0-2.2,1.178" transform="translate(45.851 1.592)" fill="#fff"/>
      <path id="Trazado_2367" data-name="Trazado 2367" d="M242.087,27.626a3.534,3.534,0,0,0,3.2-1.881,10.76,10.76,0,0,0,1.123-5.434,10.581,10.581,0,0,0-1.127-5.359,3.492,3.492,0,0,0-3.146-1.9q-4.3,0-4.3,7.263a10.928,10.928,0,0,0,1.1,5.434,3.452,3.452,0,0,0,3.149,1.881M239.826,15.74a2.373,2.373,0,0,1,2.287-1.528q3.016,0,3.017,6.1,0,6.15-3.017,6.15a2.382,2.382,0,0,1-2.266-1.553,11.317,11.317,0,0,1-.724-4.6,11.384,11.384,0,0,1,.7-4.57" transform="translate(46.977 2.577)" fill="#fff"/>
      <path id="Trazado_2368" data-name="Trazado 2368" d="M248.813,19.922a11.15,11.15,0,0,1,.35-2.887A5.25,5.25,0,0,1,250.124,15a1.755,1.755,0,0,1,1.33-.734,2.456,2.456,0,0,1,.958.2l.3-1.231a4.065,4.065,0,0,0-1.23-.181q-1.683,0-2.667,2.732h-.091l-.129-2.46h-1.009V27.367h1.23Z" transform="translate(48.901 2.577)" fill="#fff"/>
      <path id="Trazado_2369" data-name="Trazado 2369" d="M265.563,17.8v9.568h1.217v-9.18a7.854,7.854,0,0,0-.738-3.913,2.515,2.515,0,0,0-2.33-1.226,3.049,3.049,0,0,0-1.916.57,4.236,4.236,0,0,0-1.243,1.865,3.581,3.581,0,0,0-.971-1.813,2.6,2.6,0,0,0-1.838-.622,2.951,2.951,0,0,0-2.861,2.227h-.117l-.1-1.956h-1.036V27.367h1.23V19.65a9.807,9.807,0,0,1,.635-4.117,2.124,2.124,0,0,1,2.032-1.269,1.692,1.692,0,0,1,1.566.872,5.5,5.5,0,0,1,.505,2.663v9.568h1.217V19.145a8.243,8.243,0,0,1,.631-3.646,2.132,2.132,0,0,1,2.049-1.235q2.073,0,2.072,3.535" transform="translate(50.095 2.577)" fill="#fff"/>
      <path id="Trazado_2370" data-name="Trazado 2370" d="M273.087,25.4h.053l.156,1.968h1.01V17.8a6.6,6.6,0,0,0-.764-3.656,2.833,2.833,0,0,0-2.5-1.1,5.734,5.734,0,0,0-3.068.907l.53.971a4.61,4.61,0,0,1,2.461-.79,1.717,1.717,0,0,1,1.631.9,6.291,6.291,0,0,1,.491,2.869v1.165l-1.514.078a5.028,5.028,0,0,0-3.379,1.273,4.239,4.239,0,0,0-1.2,3.181,4.673,4.673,0,0,0,.837,2.93,2.626,2.626,0,0,0,2.206,1.1,3.257,3.257,0,0,0,3.055-2.227M270.3,26.577a1.755,1.755,0,0,1-1.475-.713,3.7,3.7,0,0,1-.545-2.239,3.438,3.438,0,0,1,.82-2.481,3.672,3.672,0,0,1,2.521-.936l1.462-.078v1.463a7.685,7.685,0,0,1-.728,3.685,2.275,2.275,0,0,1-2.055,1.3" transform="translate(52.734 2.577)" fill="#fff"/>
      <path id="Trazado_2371" data-name="Trazado 2371" d="M280.036,14.212a3.838,3.838,0,0,1,1.593.4l.479-1.087a4.451,4.451,0,0,0-2.175-.479,3.478,3.478,0,0,0-3.194,1.881,11.225,11.225,0,0,0-1.079,5.486,10.816,10.816,0,0,0,1.071,5.382,3.445,3.445,0,0,0,3.176,1.83,5.383,5.383,0,0,0,1.074-.129,3.808,3.808,0,0,0,1.049-.363V26.1a5.561,5.561,0,0,1-1.994.414q-3.093,0-3.094-6.124,0-6.176,3.094-6.176" transform="translate(54.447 2.577)" fill="#fff"/>
      <path id="Trazado_2372" data-name="Trazado 2372" d="M283.758,11.44a.638.638,0,0,0,.557-.328,1.674,1.674,0,0,0,.207-.889,1.679,1.679,0,0,0-.207-.907.633.633,0,0,0-.557-.323.737.737,0,0,0-.617.323,1.492,1.492,0,0,0-.237.907,1.487,1.487,0,0,0,.237.889.741.741,0,0,0,.617.328" transform="translate(55.877 1.776)" fill="#fff"/>
      <rect id="Rectángulo_2281" data-name="Rectángulo 2281" width="1.23" height="14.047" transform="translate(338.962 15.896)" fill="#fff"/>
      <path id="Trazado_2373" data-name="Trazado 2373" d="M291.9,10.346a12.954,12.954,0,0,0,1.532-2.085V8.042H291.81a20.985,20.985,0,0,1-2.473,3.975v.272h.608a17.958,17.958,0,0,0,1.951-1.942" transform="translate(57.148 1.588)" fill="#fff"/>
      <path id="Trazado_2374" data-name="Trazado 2374" d="M294.111,14.951a3.492,3.492,0,0,0-3.146-1.9q-4.3,0-4.3,7.264a10.926,10.926,0,0,0,1.1,5.433,3.454,3.454,0,0,0,3.151,1.881,3.534,3.534,0,0,0,3.2-1.881,10.759,10.759,0,0,0,1.122-5.433,10.583,10.583,0,0,0-1.126-5.36M290.939,26.46a2.38,2.38,0,0,1-2.266-1.553,11.291,11.291,0,0,1-.726-4.6,11.383,11.383,0,0,1,.7-4.571,2.375,2.375,0,0,1,2.287-1.528q3.016,0,3.017,6.1,0,6.149-3.017,6.149" transform="translate(56.62 2.577)" fill="#fff"/>
      <path id="Trazado_2375" data-name="Trazado 2375" d="M297.637,19.65a8.845,8.845,0,0,1,.734-4.157,2.452,2.452,0,0,1,2.309-1.306q2.071,0,2.072,3.5v9.684h1.217V17.656a5.949,5.949,0,0,0-.815-3.514,2.86,2.86,0,0,0-2.448-1.1,3.021,3.021,0,0,0-1.773.583,3.663,3.663,0,0,0-1.268,1.644h-.117l-.1-1.956h-1.036V27.367h1.23Z" transform="translate(58.544 2.577)" fill="#fff"/>
      <path id="Trazado_2376" data-name="Trazado 2376" d="M312.781,14.212a3.97,3.97,0,0,1,2.253.713l.635-1.075a4.8,4.8,0,0,0-2.836-.8,3.571,3.571,0,0,0-2.6.993,3.33,3.33,0,0,0-1.023,2.5,3.949,3.949,0,0,0,.293,1.606,4.07,4.07,0,0,0,.812,1.217,11.623,11.623,0,0,0,1.963,1.45,6.265,6.265,0,0,1,1.705,1.459,2.7,2.7,0,0,1,.444,1.571,2.79,2.79,0,0,1-.621,1.9,2.152,2.152,0,0,1-1.709.713,4.574,4.574,0,0,1-1.619-.293,3.4,3.4,0,0,1-1.268-.769v1.437a4.151,4.151,0,0,0,1.127.544,5.231,5.231,0,0,0,1.683.247,3.5,3.5,0,0,0,2.693-1,3.93,3.93,0,0,0,.932-2.779,4.253,4.253,0,0,0-.254-1.536,3.657,3.657,0,0,0-.769-1.217,11.8,11.8,0,0,0-1.916-1.468,6.754,6.754,0,0,1-1.865-1.518,2.661,2.661,0,0,1-.439-1.563,2.286,2.286,0,0,1,.647-1.692,2.377,2.377,0,0,1,1.735-.638" transform="translate(61.073 2.577)" fill="#fff"/>
      <path id="Trazado_2377" data-name="Trazado 2377" d="M323.848,25.744a10.774,10.774,0,0,0,1.121-5.433,10.585,10.585,0,0,0-1.126-5.36,3.492,3.492,0,0,0-3.146-1.9q-4.3,0-4.3,7.264a10.925,10.925,0,0,0,1.1,5.433,3.452,3.452,0,0,0,3.149,1.881,3.538,3.538,0,0,0,3.2-1.881m-3.177.716a2.38,2.38,0,0,1-2.266-1.553,11.3,11.3,0,0,1-.724-4.6,11.385,11.385,0,0,1,.7-4.571,2.375,2.375,0,0,1,2.287-1.528q3.016,0,3.017,6.1,0,6.149-3.017,6.149" transform="translate(62.493 2.577)" fill="#fff"/>
      <path id="Trazado_2378" data-name="Trazado 2378" d="M330.488,14.034a3.394,3.394,0,0,0-3.068,2.1h-.1l.053-1.7V8.182h-1.23V28.328h1.01l.168-1.942h.1a4.172,4.172,0,0,0,1.372,1.644,3.279,3.279,0,0,0,4.79-1.316,11.56,11.56,0,0,0,1.023-5.443q0-7.237-4.117-7.237m2.128,11.924a2.268,2.268,0,0,1-2.128,1.515q-3.12,0-3.12-5.877v-.325a11.015,11.015,0,0,1,.725-4.674,2.447,2.447,0,0,1,2.344-1.424,2.291,2.291,0,0,1,2.2,1.528,11.663,11.663,0,0,1,.686,4.57,11.7,11.7,0,0,1-.708,4.687" transform="translate(64.417 1.616)" fill="#fff"/>
      <path id="Trazado_2379" data-name="Trazado 2379" d="M337.024,15.779h-.091l-.129-2.46h-1.009V27.366h1.23V19.922a11.143,11.143,0,0,1,.35-2.887A5.234,5.234,0,0,1,338.335,15a1.751,1.751,0,0,1,1.331-.734,2.477,2.477,0,0,1,.958.194l.3-1.23a4.028,4.028,0,0,0-1.23-.181q-1.683,0-2.667,2.732" transform="translate(66.324 2.577)" fill="#fff"/>
      <path id="Trazado_2380" data-name="Trazado 2380" d="M349.218,19.2a8.6,8.6,0,0,0-1.009-4.483,3.1,3.1,0,0,0-2.758-1.666,3.354,3.354,0,0,0-3.073,1.9,11.332,11.332,0,0,0-1.069,5.493,9.83,9.83,0,0,0,1.2,5.287,3.81,3.81,0,0,0,3.423,1.9,5.274,5.274,0,0,0,2.836-.842V25.592a5.481,5.481,0,0,1-2.783.868,2.736,2.736,0,0,1-2.551-1.528,9.992,9.992,0,0,1-.868-4.6h6.655Zm-6.628.026q.246-5.062,2.783-5.062a2.128,2.128,0,0,1,1.908,1.372,8.12,8.12,0,0,1,.708,3.69Z" transform="translate(67.413 2.577)" fill="#fff"/>
      <path id="Trazado_2381" data-name="Trazado 2381" d="M142.451,39.3v-.1q2.809-.557,2.809-4.4a4.447,4.447,0,0,0-1.2-3.366,4.793,4.793,0,0,0-3.427-1.139h-3.625V49.213h4.351a3.8,3.8,0,0,0,3.159-1.424,6.238,6.238,0,0,0,1.126-3.963,5.26,5.26,0,0,0-.789-3.09,3.77,3.77,0,0,0-2.408-1.442m-4.169-7.845h2.356a3.3,3.3,0,0,1,2.478.854,3.363,3.363,0,0,1,.837,2.46,4.78,4.78,0,0,1-.759,2.97,2.988,2.988,0,0,1-2.529.98h-2.382Zm2.912,16.6h-2.912V39.878h2.55a3.312,3.312,0,0,1,2.577,1.014,4.2,4.2,0,0,1,.918,2.909q0,4.246-3.133,4.246" transform="translate(27.062 5.982)" fill="#fff"/>
      <path id="Trazado_2382" data-name="Trazado 2382" d="M147.36,30.079a.737.737,0,0,0-.617.323,1.811,1.811,0,0,0,0,1.8.74.74,0,0,0,.617.327.636.636,0,0,0,.557-.327,2.05,2.05,0,0,0,0-1.8.633.633,0,0,0-.557-.323" transform="translate(28.937 5.941)" fill="#fff"/>
      <rect id="Rectángulo_2282" data-name="Rectángulo 2282" width="1.23" height="14.048" transform="translate(175.624 41.147)" fill="#fff"/>
      <path id="Trazado_2383" data-name="Trazado 2383" d="M154.566,34.133q-4.3,0-4.3,7.264a10.94,10.94,0,0,0,1.1,5.433,3.455,3.455,0,0,0,3.151,1.881,3.534,3.534,0,0,0,3.2-1.881,10.759,10.759,0,0,0,1.122-5.433,10.584,10.584,0,0,0-1.126-5.36,3.492,3.492,0,0,0-3.147-1.9m-.025,13.413a2.379,2.379,0,0,1-2.266-1.553,11.291,11.291,0,0,1-.726-4.6,11.383,11.383,0,0,1,.7-4.571,2.375,2.375,0,0,1,2.287-1.528q3.016,0,3.017,6.1,0,6.149-3.017,6.149" transform="translate(29.68 6.742)" fill="#fff"/>
      <path id="Trazado_2384" data-name="Trazado 2384" d="M166.695,35.573l.051,1.566h-.1a3.942,3.942,0,0,0-1.351-1.5,3.323,3.323,0,0,0-4.812,1.329,11.572,11.572,0,0,0-1.024,5.443q0,7.262,4.092,7.263a3.074,3.074,0,0,0,1.838-.578,4.1,4.1,0,0,0,1.308-1.649h.116l.1,1.969h1.01V29.268h-1.23Zm0,7.639a8.052,8.052,0,0,1-.8,4.018,2.485,2.485,0,0,1-2.269,1.369,2.293,2.293,0,0,1-2.2-1.568,11.93,11.93,0,0,1-.686-4.6,12.408,12.408,0,0,1,.66-4.588,2.252,2.252,0,0,1,2.176-1.588,2.5,2.5,0,0,1,2.347,1.485,10.615,10.615,0,0,1,.772,4.666Z" transform="translate(31.495 5.781)" fill="#fff"/>
      <rect id="Rectángulo_2283" data-name="Rectángulo 2283" width="1.23" height="14.048" transform="translate(203.175 41.147)" fill="#fff"/>
      <path id="Trazado_2385" data-name="Trazado 2385" d="M170.367,30.079a.737.737,0,0,0-.617.323,1.811,1.811,0,0,0,0,1.8.74.74,0,0,0,.617.327.636.636,0,0,0,.557-.327,2.05,2.05,0,0,0,0-1.8.633.633,0,0,0-.557-.323" transform="translate(33.481 5.941)" fill="#fff"/>
      <path id="Trazado_2386" data-name="Trazado 2386" d="M176.768,45.314q-.169.828-.259,1.5h-.1q-.336-1.852-.7-3.418l-2.1-9.038h-1.243l3.315,14.048h1.462l3.419-14.048h-1.243q-2.382,10.126-2.551,10.954" transform="translate(34.045 6.786)" fill="#fff"/>
      <path id="Trazado_2387" data-name="Trazado 2387" d="M184.5,34.134a3.354,3.354,0,0,0-3.073,1.9,11.334,11.334,0,0,0-1.071,5.493,9.829,9.829,0,0,0,1.2,5.287,3.806,3.806,0,0,0,3.422,1.9,5.274,5.274,0,0,0,2.836-.842V46.679a5.481,5.481,0,0,1-2.783.868,2.736,2.736,0,0,1-2.551-1.528,9.991,9.991,0,0,1-.868-4.6h6.655v-1.14a8.6,8.6,0,0,0-1.01-4.483,3.1,3.1,0,0,0-2.758-1.666m-2.861,6.176q.246-5.062,2.783-5.062a2.128,2.128,0,0,1,1.908,1.372,8.12,8.12,0,0,1,.708,3.69Z" transform="translate(35.623 6.742)" fill="#fff"/>
      <path id="Trazado_2388" data-name="Trazado 2388" d="M190.8,36.866h-.091l-.129-2.46h-1.01V48.453h1.23V41.009a11.143,11.143,0,0,1,.35-2.887,5.234,5.234,0,0,1,.963-2.037,1.747,1.747,0,0,1,1.329-.734,2.477,2.477,0,0,1,.958.194l.3-1.23a4.028,4.028,0,0,0-1.23-.181q-1.683,0-2.667,2.732" transform="translate(37.442 6.742)" fill="#fff"/>
      <path id="Trazado_2389" data-name="Trazado 2389" d="M198.417,35.3a3.97,3.97,0,0,1,2.253.713l.635-1.075a4.8,4.8,0,0,0-2.836-.8,3.571,3.571,0,0,0-2.6.993,3.33,3.33,0,0,0-1.023,2.5,3.949,3.949,0,0,0,.293,1.606,4.069,4.069,0,0,0,.812,1.217,11.625,11.625,0,0,0,1.963,1.45,6.265,6.265,0,0,1,1.705,1.459,2.7,2.7,0,0,1,.444,1.571,2.79,2.79,0,0,1-.621,1.9,2.152,2.152,0,0,1-1.709.713,4.563,4.563,0,0,1-1.618-.293,3.4,3.4,0,0,1-1.269-.769v1.437a4.152,4.152,0,0,0,1.127.544,5.231,5.231,0,0,0,1.682.247,3.5,3.5,0,0,0,2.693-1,3.93,3.93,0,0,0,.932-2.779,4.254,4.254,0,0,0-.254-1.536,3.638,3.638,0,0,0-.769-1.217,11.8,11.8,0,0,0-1.916-1.468,6.754,6.754,0,0,1-1.865-1.518,2.661,2.661,0,0,1-.439-1.563,2.286,2.286,0,0,1,.647-1.692,2.377,2.377,0,0,1,1.735-.638" transform="translate(38.484 6.742)" fill="#fff"/>
      <rect id="Rectángulo_2284" data-name="Rectángulo 2284" width="1.23" height="14.048" transform="translate(242.598 41.147)" fill="#fff"/>
      <path id="Trazado_2390" data-name="Trazado 2390" d="M203.288,30.079a.737.737,0,0,0-.617.323,1.811,1.811,0,0,0,0,1.8.74.74,0,0,0,.617.327.636.636,0,0,0,.557-.327,2.05,2.05,0,0,0,0-1.8.633.633,0,0,0-.557-.323" transform="translate(39.983 5.941)" fill="#fff"/>
      <path id="Trazado_2391" data-name="Trazado 2391" d="M213.434,35.573l.051,1.566h-.1a3.942,3.942,0,0,0-1.351-1.5,3.324,3.324,0,0,0-4.813,1.329A11.588,11.588,0,0,0,206.2,42.41q0,7.262,4.092,7.263a3.071,3.071,0,0,0,1.838-.578,4.11,4.11,0,0,0,1.309-1.649h.115l.1,1.969h1.009V29.268h-1.229Zm0,7.639a8.038,8.038,0,0,1-.8,4.018,2.486,2.486,0,0,1-2.269,1.369,2.292,2.292,0,0,1-2.2-1.568,11.929,11.929,0,0,1-.686-4.6,12.408,12.408,0,0,1,.66-4.588,2.253,2.253,0,0,1,2.175-1.588,2.5,2.5,0,0,1,2.348,1.485,10.612,10.612,0,0,1,.774,4.666Z" transform="translate(40.726 5.781)" fill="#fff"/>
      <path id="Trazado_2392" data-name="Trazado 2392" d="M219.73,34.133a5.749,5.749,0,0,0-3.069.907l.532.971a4.6,4.6,0,0,1,2.46-.789,1.719,1.719,0,0,1,1.631.9,6.3,6.3,0,0,1,.492,2.87v1.165l-1.515.078a5.017,5.017,0,0,0-3.379,1.273,4.243,4.243,0,0,0-1.2,3.181,4.671,4.671,0,0,0,.837,2.93,2.624,2.624,0,0,0,2.2,1.1,3.259,3.259,0,0,0,3.056-2.226h.051l.156,1.968h1.01V38.885a6.6,6.6,0,0,0-.764-3.655,2.831,2.831,0,0,0-2.5-1.1m2.045,8.545a7.689,7.689,0,0,1-.729,3.686,2.274,2.274,0,0,1-2.054,1.3,1.759,1.759,0,0,1-1.477-.711,3.7,3.7,0,0,1-.544-2.241,3.435,3.435,0,0,1,.82-2.481,3.678,3.678,0,0,1,2.52-.936l1.463-.078Z" transform="translate(42.599 6.742)" fill="#fff"/>
      <path id="Trazado_2393" data-name="Trazado 2393" d="M231.564,35.573l.052,1.566h-.1a3.942,3.942,0,0,0-1.351-1.5,3.323,3.323,0,0,0-4.812,1.329,11.571,11.571,0,0,0-1.024,5.443q0,7.262,4.092,7.263a3.074,3.074,0,0,0,1.838-.578,4.1,4.1,0,0,0,1.308-1.649h.116l.1,1.969h1.009V29.268h-1.23Zm0,7.639a8.053,8.053,0,0,1-.8,4.018A2.486,2.486,0,0,1,228.5,48.6a2.293,2.293,0,0,1-2.2-1.568,11.93,11.93,0,0,1-.686-4.6,12.409,12.409,0,0,1,.66-4.588,2.252,2.252,0,0,1,2.175-1.588,2.5,2.5,0,0,1,2.348,1.485,10.615,10.615,0,0,1,.772,4.666Z" transform="translate(44.307 5.781)" fill="#fff"/>
      <path id="Trazado_2394" data-name="Trazado 2394" d="M245.382,35.573l.05,1.566h-.1a3.942,3.942,0,0,0-1.351-1.5,3.323,3.323,0,0,0-4.812,1.329,11.572,11.572,0,0,0-1.024,5.443q0,7.262,4.092,7.263a3.074,3.074,0,0,0,1.838-.578,4.109,4.109,0,0,0,1.309-1.649h.115l.1,1.969h1.01V29.268h-1.229Zm0,7.639a8.051,8.051,0,0,1-.8,4.018,2.487,2.487,0,0,1-2.27,1.369,2.292,2.292,0,0,1-2.2-1.568,11.929,11.929,0,0,1-.686-4.6,12.408,12.408,0,0,1,.66-4.588,2.252,2.252,0,0,1,2.176-1.588,2.5,2.5,0,0,1,2.347,1.485,10.612,10.612,0,0,1,.774,4.666Z" transform="translate(47.036 5.781)" fill="#fff"/>
      <path id="Trazado_2395" data-name="Trazado 2395" d="M251.963,34.134a3.354,3.354,0,0,0-3.073,1.9,11.334,11.334,0,0,0-1.071,5.493,9.829,9.829,0,0,0,1.2,5.287,3.806,3.806,0,0,0,3.422,1.9,5.274,5.274,0,0,0,2.836-.842V46.679a5.481,5.481,0,0,1-2.783.868,2.736,2.736,0,0,1-2.551-1.528,9.991,9.991,0,0,1-.868-4.6h6.655v-1.14a8.6,8.6,0,0,0-1.009-4.483,3.1,3.1,0,0,0-2.758-1.666M249.1,40.31q.246-5.062,2.783-5.062a2.128,2.128,0,0,1,1.908,1.372,8.12,8.12,0,0,1,.708,3.69Z" transform="translate(48.948 6.742)" fill="#fff"/>
      <path id="Trazado_2396" data-name="Trazado 2396" d="M266.808,31.253a4.478,4.478,0,0,1,2.473.7l.583-1.114a5.63,5.63,0,0,0-3.03-.8,4.962,4.962,0,0,0-4.4,2.589,13.48,13.48,0,0,0-1.609,7.12,16.542,16.542,0,0,0,.738,5.236,7.426,7.426,0,0,0,2.09,3.375,4.684,4.684,0,0,0,3.154,1.165,5.27,5.27,0,0,0,2.654-.583V47.772a5.608,5.608,0,0,1-2.538.532,3.551,3.551,0,0,1-2.524-1.036,6.678,6.678,0,0,1-1.671-2.965,15.755,15.755,0,0,1-.582-4.531,12.9,12.9,0,0,1,1.265-6.262,3.8,3.8,0,0,1,3.4-2.257" transform="translate(51.517 5.932)" fill="#fff"/>
      <path id="Trazado_2397" data-name="Trazado 2397" d="M274.238,34.133q-4.3,0-4.3,7.264a10.926,10.926,0,0,0,1.1,5.433,3.453,3.453,0,0,0,3.151,1.881,3.534,3.534,0,0,0,3.2-1.881,10.759,10.759,0,0,0,1.122-5.433,10.585,10.585,0,0,0-1.126-5.36,3.493,3.493,0,0,0-3.147-1.9m-.025,13.413a2.38,2.38,0,0,1-2.266-1.553,11.292,11.292,0,0,1-.726-4.6,11.382,11.382,0,0,1,.7-4.571,2.375,2.375,0,0,1,2.287-1.528q3.016,0,3.017,6.1,0,6.149-3.017,6.149" transform="translate(53.317 6.742)" fill="#fff"/>
      <rect id="Rectángulo_2285" data-name="Rectángulo 2285" width="1.23" height="20.146" transform="translate(334.923 35.049)" fill="#fff"/>
      <path id="Trazado_2398" data-name="Trazado 2398" d="M287.591,34.133q-4.3,0-4.3,7.264a10.94,10.94,0,0,0,1.1,5.433,3.455,3.455,0,0,0,3.151,1.881,3.534,3.534,0,0,0,3.2-1.881,10.759,10.759,0,0,0,1.122-5.433,10.585,10.585,0,0,0-1.126-5.36,3.492,3.492,0,0,0-3.147-1.9m-.025,13.413a2.379,2.379,0,0,1-2.266-1.553,11.291,11.291,0,0,1-.726-4.6,11.383,11.383,0,0,1,.7-4.571,2.375,2.375,0,0,1,2.287-1.528q3.016,0,3.017,6.1,0,6.149-3.017,6.149" transform="translate(55.954 6.742)" fill="#fff"/>
      <path id="Trazado_2399" data-name="Trazado 2399" d="M303.119,34.133a3.049,3.049,0,0,0-1.916.57,4.236,4.236,0,0,0-1.243,1.865,3.581,3.581,0,0,0-.971-1.813,2.6,2.6,0,0,0-1.838-.622,2.954,2.954,0,0,0-2.862,2.227h-.116l-.1-1.956h-1.036V48.453h1.23V40.736a9.788,9.788,0,0,1,.635-4.117,2.125,2.125,0,0,1,2.032-1.269,1.69,1.69,0,0,1,1.566.872A5.492,5.492,0,0,1,299,38.885v9.568h1.217V40.231a8.263,8.263,0,0,1,.63-3.646,2.134,2.134,0,0,1,2.05-1.235q2.071,0,2.072,3.535v9.568h1.217v-9.18a7.862,7.862,0,0,0-.738-3.915,2.518,2.518,0,0,0-2.33-1.225" transform="translate(57.878 6.742)" fill="#fff"/>
      <path id="Trazado_2400" data-name="Trazado 2400" d="M311.471,35.12a3.394,3.394,0,0,0-3.068,2.1h-.1l.053-1.7V29.268h-1.23V49.414h1.01l.168-1.942h.1a4.173,4.173,0,0,0,1.372,1.644,3.279,3.279,0,0,0,4.79-1.316,11.575,11.575,0,0,0,1.023-5.443q0-7.237-4.117-7.237M313.6,47.044a2.268,2.268,0,0,1-2.128,1.515q-3.12,0-3.12-5.877v-.325a11,11,0,0,1,.725-4.674,2.447,2.447,0,0,1,2.344-1.424,2.291,2.291,0,0,1,2.2,1.528,11.662,11.662,0,0,1,.686,4.57,11.7,11.7,0,0,1-.708,4.687" transform="translate(60.661 5.781)" fill="#fff"/>
      <path id="Trazado_2401" data-name="Trazado 2401" d="M317.479,30.079a.737.737,0,0,0-.617.323,1.811,1.811,0,0,0,0,1.8.74.74,0,0,0,.617.327.636.636,0,0,0,.557-.327,2.05,2.05,0,0,0,0-1.8.633.633,0,0,0-.557-.323" transform="translate(62.538 5.941)" fill="#fff"/>
      <rect id="Rectángulo_2286" data-name="Rectángulo 2286" width="1.23" height="14.048" transform="translate(379.344 41.147)" fill="#fff"/>
      <path id="Trazado_2402" data-name="Trazado 2402" d="M324.266,34.133a5.749,5.749,0,0,0-3.069.907l.532.971a4.607,4.607,0,0,1,2.46-.789,1.719,1.719,0,0,1,1.631.9,6.3,6.3,0,0,1,.492,2.87v1.165l-1.515.078a5.019,5.019,0,0,0-3.379,1.273,4.244,4.244,0,0,0-1.2,3.181,4.678,4.678,0,0,0,.837,2.93,2.626,2.626,0,0,0,2.206,1.1,3.258,3.258,0,0,0,3.055-2.226h.051l.156,1.968h1.009V38.885a6.584,6.584,0,0,0-.764-3.655,2.831,2.831,0,0,0-2.5-1.1m2.045,8.545a7.675,7.675,0,0,1-.729,3.686,2.274,2.274,0,0,1-2.054,1.3,1.761,1.761,0,0,1-1.477-.711,3.7,3.7,0,0,1-.544-2.241,3.435,3.435,0,0,1,.82-2.481,3.678,3.678,0,0,1,2.52-.936l1.463-.078Z" transform="translate(63.247 6.742)" fill="#fff"/>
      <path id="Trazado_2403" data-name="Trazado 2403" d="M74.257,41.935A101.8,101.8,0,0,0,49.538,1.508,106.152,106.152,0,0,0,1.5,29.185c4.747,17.583,14.638,34.66,27.988,47.043A96.765,96.765,0,0,0,71.942,53.417a6.808,6.808,0,0,1-.729-.71h0a12.149,12.149,0,0,0-7.33-3.278c-5.148-.348-11.852,7.319-11.852,7.319v0a21.457,21.457,0,1,1,2.856-23.172v-.007s4.654,9.642,9.68,10.567a12.583,12.583,0,0,0,8.028-1.425h0a6.654,6.654,0,0,1,1.662-.776m-27.9-25.24a5.174,5.174,0,1,1,5.172-5.172,5.174,5.174,0,0,1-5.172,5.172" transform="translate(0.296 0.298)" fill="#fff"/>
      <path id="Trazado_2404" data-name="Trazado 2404" d="M64.057,36.226q1.453-3.32,2.627-6.714a90.9,90.9,0,0,0-7.8-9.184q.916,3.39,1.611,6.841,2.01,4.451,3.559,9.057" transform="translate(11.631 4.015)" fill="#fff"/>
      <path id="Trazado_2405" data-name="Trazado 2405" d="M36.443,2.957Q33,1.34,29.47,0A100.664,100.664,0,0,0,20.2,8.282q3.9-1.092,7.884-1.9,4.117-1.9,8.361-3.424" transform="translate(3.989 0)" fill="#fff"/>
      <path id="Trazado_2406" data-name="Trazado 2406" d="M32.414,64.123q3.454,1.494,6.995,2.69a92.448,92.448,0,0,0,9.658-8.469q-3.433,1.033-6.943,1.823a97.845,97.845,0,0,1-9.709,3.957" transform="translate(6.402 11.524)" fill="#fff"/>
      <path id="Trazado_2407" data-name="Trazado 2407" d="M3,32.361Q1.353,35.91,0,39.542a101.927,101.927,0,0,0,8.881,9.669q-1.223-3.936-2.132-7.974C5.359,38.328,4.107,35.362,3,32.361" transform="translate(0 6.392)" fill="#fff"/>
      <path id="Trazado_2408" data-name="Trazado 2408" d="M15.878,63.014q2.854.289,5.744.4A100.841,100.841,0,0,1,8.584,45.375a94.023,94.023,0,0,0,7.294,17.639" transform="translate(1.695 8.962)" fill="#fff"/>
      <path id="Trazado_2409" data-name="Trazado 2409" d="M62.763,52.116q.305-2.684.448-5.4a98.2,98.2,0,0,1-16.959,12.2,93.011,93.011,0,0,0,16.511-6.8" transform="translate(9.135 9.227)" fill="#fff"/>
      <path id="Trazado_2410" data-name="Trazado 2410" d="M5.165,15.452q-.226,3.134-.255,6.311A108.413,108.413,0,0,1,24.595,8.069a103.857,103.857,0,0,0-19.43,7.383" transform="translate(0.97 1.594)" fill="#fff"/>
      <path id="Trazado_2411" data-name="Trazado 2411" d="M52.691,5.261q-2.953-.248-5.941-.316A105.076,105.076,0,0,1,59.6,23.541a102.349,102.349,0,0,0-6.911-18.28" transform="translate(9.234 0.977)" fill="#fff"/>
      <path id="Trazado_2412" data-name="Trazado 2412" d="M30.748,27.22A10.716,10.716,0,1,0,42.41,36.9,10.718,10.718,0,0,0,30.748,27.22" transform="translate(4.152 5.367)" fill="#fff"/>
      <path id="Trazado_2413" data-name="Trazado 2413" d="M64.149,37.817a3.337,3.337,0,1,0,3.628,3.013,3.336,3.336,0,0,0-3.628-3.013" transform="translate(12.072 7.466)" fill="#fff"/>
      <path id="Trazado_2414" data-name="Trazado 2414" d="M39.387,7.709A2.588,2.588,0,1,0,41.973,10.3a2.59,2.59,0,0,0-2.585-2.589" transform="translate(7.268 1.523)" fill="#fff"/>
      <path id="Trazado_2415" data-name="Trazado 2415" d="M85.065,27.233c-5.571-2.548-7.822-4.03-7.822-7.289,0-2.548,2.074-5.037,6.7-5.037a17.555,17.555,0,0,1,8.119,1.956L93.9,9.692a22.055,22.055,0,0,0-9.779-2.074c-9.838,0-15.7,5.748-15.7,13.215,0,5.926,4.267,10.193,11.142,13.156,5.037,2.194,7.229,4.149,7.229,7.408,0,3.378-2.548,5.689-7.407,5.689a20.428,20.428,0,0,1-9.838-2.548l-.012.051a6.66,6.66,0,0,1-1.575,7.372c2.183,1.277,6.651,2.473,11.069,2.473,10.608,0,16.593-5.807,16.593-13.747,0-5.986-3.26-10.193-10.549-13.453" transform="translate(13.422 1.505)" fill="#fff"/>
      <path id="Trazado_2416" data-name="Trazado 2416" d="M98.157,7.222A4.513,4.513,0,0,0,93.476,11.9a4.711,4.711,0,0,0,9.422,0,4.5,4.5,0,0,0-4.741-4.682" transform="translate(18.463 1.426)" fill="#fff"/>
      <rect id="Rectángulo_2287" data-name="Rectángulo 2287" width="8.771" height="33.008" transform="translate(112.293 22.337)" fill="#fff"/>
      <path id="Trazado_2417" data-name="Trazado 2417" d="M126.874,29.436V29.2c4.858-1.837,7.288-5.689,7.288-9.838a10.084,10.084,0,0,0-4.444-8.593c-3.141-2.193-7.052-2.9-12.563-2.9a65.012,65.012,0,0,0-11.556.948v44.8a71.528,71.528,0,0,0,9.719.593c8.118,0,13.215-1.481,16.3-4.267a12.526,12.526,0,0,0,4.148-9.363c0-5.808-3.794-9.838-8.889-11.142M114.31,14.68a18.1,18.1,0,0,1,3.852-.3c3.911,0,7.289,1.481,7.289,5.985,0,3.734-2.963,6.4-7.941,6.4h-3.2Zm3.5,32.95a18.136,18.136,0,0,1-3.5-.237V33.17h3.26c4.5,0,9.008,1.9,9.008,7.171,0,5.156-4.03,7.289-8.771,7.289" transform="translate(20.857 1.553)" fill="#fff"/>
    </g>
  </g>
  <text id="Acerca_de_" data-name="Acerca de " transform="translate(1006 93.162)" fill="#fbfbfb" font-size="20" font-family="Lato-Bold, Lato" font-weight="700" style="mix-blend-mode: normal;isolation: isolate"><tspan x="0" y="0">Acerca de </tspan></text>
  <text id="SiB_Colombia" data-name="SiB Colombia" transform="translate(1006 127.162)" fill="#fbfbfb" font-size="20" font-family="Lato-Regular, Lato" style="mix-blend-mode: normal;isolation: isolate"><tspan x="0" y="0">SiB Colombia</tspan></text>
  <text id="Preguntas_frecuentes" data-name="Preguntas frecuentes" transform="translate(1006 160.162)" fill="#fbfbfb" font-size="20" font-family="Lato-Regular, Lato" style="mix-blend-mode: normal;isolation: isolate"><tspan x="0" y="0">Preguntas frecuentes</tspan></text>
  <text id="Términos_y_condiciones" data-name="Términos y condiciones" transform="translate(1006 194.162)" fill="#fbfbfb" font-size="20" font-family="Lato-Regular, Lato" style="mix-blend-mode: normal;isolation: isolate"><tspan x="0" y="0">Términos y condiciones</tspan></text>
  <text id="Boletín" transform="translate(1006 228.162)" fill="#fbfbfb" font-size="20" font-family="Lato-Regular, Lato" style="mix-blend-mode: normal;isolation: isolate"><tspan x="0" y="0">Boletín</tspan></text>
  <text id="Contacto" transform="translate(1349 93.162)" fill="#fbfbfb" font-size="20" font-family="Lato-Bold, Lato" font-weight="700" style="mix-blend-mode: normal;isolation: isolate"><tspan x="0" y="0">Contacto</tspan></text>
  <text id="sib_humboldt.org.co" data-name="sib@humboldt.org.co" transform="translate(1349 127.162)" fill="#fbfbfb" font-size="20" font-family="Lato-Regular, Lato" style="mix-blend-mode: normal;isolation: isolate"><tspan x="0" y="0">sib@humboldt.org.co</tspan></text>
  <text id="Calle_28_A_15-09_Bogotá_D.C." data-name="Calle 28 A # 15-09, Bogotá D.C." transform="translate(1349 160.162)" fill="#fbfbfb" font-size="20" font-family="Lato-Regular, Lato" style="mix-blend-mode: normal;isolation: isolate"><tspan x="0" y="0">Calle 28 A # 15-09, Bogotá D.C.</tspan></text>
  <text id="PBX:_571_3202767" data-name="PBX: (+571)3202767" transform="translate(1349 194.162)" fill="#fbfbfb" font-size="20" font-family="Lato-Regular, Lato" style="mix-blend-mode: normal;isolation: isolate"><tspan x="0" y="0">PBX: (+571)3202767</tspan></text>
  <text id="Colombia" transform="translate(1349 228.162)" fill="#fbfbfb" font-size="20" font-family="Lato-Regular, Lato" style="mix-blend-mode: normal;isolation: isolate"><tspan x="0" y="0">Colombia</tspan></text>
  <path id="Trazado_1930" data-name="Trazado 1930" d="M10.343,22.379c-.267,0-6.568-.005-8.238-.456A3.2,3.2,0,0,1-.148,19.658,27.39,27.39,0,0,1-.6,14.492,27.379,27.379,0,0,1-.148,9.327,3.2,3.2,0,0,1,2.105,7.061c1.67-.451,7.97-.456,8.238-.456s6.567.005,8.238.456a3.2,3.2,0,0,1,2.253,2.266,27.379,27.379,0,0,1,.452,5.165,27.391,27.391,0,0,1-.452,5.166,3.2,3.2,0,0,1-2.253,2.265C16.91,22.374,10.61,22.379,10.343,22.379Zm0-14.574a57.238,57.238,0,0,0-7.926.414A2,2,0,0,0,1.012,9.636,26.862,26.862,0,0,0,.6,14.492a26.9,26.9,0,0,0,.412,4.858,2,2,0,0,0,1.4,1.415,57.229,57.229,0,0,0,7.926.415,57.244,57.244,0,0,0,7.926-.414,2,2,0,0,0,1.405-1.415,26.874,26.874,0,0,0,.412-4.857,26.89,26.89,0,0,0-.412-4.857A2,2,0,0,0,18.269,8.22,57.236,57.236,0,0,0,10.343,7.8ZM8.8,17.755a1.179,1.179,0,0,1-1.177-1.177V12.3a1.114,1.114,0,0,1,1.666-.969l3.748,2.132a1.182,1.182,0,0,1,0,2.055L9.386,17.6A1.178,1.178,0,0,1,8.8,17.755Zm.023-5.306v4.088l3.593-2.045Z" transform="translate(1384.6 239.093)" fill="#fff"/>
  <path id="Trazado_1931" data-name="Trazado 1931" d="M50.99,21.186a10.847,10.847,0,0,1-5.866-1.72l.394-1.1a6.818,6.818,0,0,0,.8.047,6.7,6.7,0,0,0,2.923-.675,4.21,4.21,0,0,1-2.385-2.6l-.307-.962.122.023q-.1-.112-.2-.231a4.165,4.165,0,0,1-.913-2.681l.023-.992.4.22a4.216,4.216,0,0,1,.181-3.891l.436-.749.547.672a9.7,9.7,0,0,0,6.294,3.495,4.219,4.219,0,0,1,7.042-3.291,6.648,6.648,0,0,0,1.8-.738l1.357-.8-.48,1.5a4.191,4.191,0,0,1-.286.681l1.846-.818L63.571,8.291a7.871,7.871,0,0,1-1.695,1.831,11.291,11.291,0,0,1-3.083,7.819A10.521,10.521,0,0,1,50.99,21.186Zm-3.145-1.726a9.652,9.652,0,0,0,3.145.526,9.324,9.324,0,0,0,6.936-2.874,10.049,10.049,0,0,0,2.742-7.256l-.015-.324.263-.19q.161-.116.315-.241l-.165.022-.379-1.111q.1-.061.2-.129-.238.063-.48.11l-.326.064-.227-.242a3.033,3.033,0,0,0-2.2-.953,3.019,3.019,0,0,0-2.938,3.7l.18.775L54.1,11.3A10.894,10.894,0,0,1,46.868,8.04a3.026,3.026,0,0,0,1.26,3.214l1.746,1.167-2.1-.068a4.213,4.213,0,0,1-.891-.126A3.048,3.048,0,0,0,49.174,14.3l.04,1.167a4.2,4.2,0,0,1-.8.137,3.017,3.017,0,0,0,2.4,1.258L52.5,16.9l-1.327,1.04A7.9,7.9,0,0,1,47.845,19.461Z" transform="translate(1303.876 240.035)" fill="#fff"/>
  <path id="Trazado_1932" data-name="Trazado 1932" d="M36.457,18.459h-4.8V9.492h-1.87V5.239h1.87v-1.8A3.87,3.87,0,0,1,32.8.427,4.791,4.791,0,0,1,36.144-.6h3.09V3.73H36.688a.969.969,0,0,0-.2.016,1.61,1.61,0,0,0-.029.375V5.239H39.29l-.374,4.215H36.457Zm-3.6-1.2h2.4V8.254h2.56l.161-1.815H35.257V4.121c0-.435,0-1.591,1.43-1.591h1.346V.6h-1.89a3.74,3.74,0,0,0-2.542.716,2.7,2.7,0,0,0-.741,2.119v3h-1.87V8.292h1.87Z" transform="translate(1396.209 242.761)" fill="#fff"/>
  <path id="Trazado_2418" data-name="Trazado 2418" d="M305,8327.624H565.678" transform="translate(524.5 -7983.462)" fill="none" stroke="#09a274" stroke-width="3"/>
</svg>
