<svg xmlns="http://www.w3.org/2000/svg" width="295.717" height="235.285" viewBox="0 0 295.717 235.285">
  <g id="Grupo_1659" data-name="Grupo 1659" transform="translate(-227.5 -491.965)">
    <g id="Grupo_1642" data-name="Grupo 1642">
      <path id="Trazado_2771" data-name="Trazado 2771" d="M195.337,714.25a34.06,34.06,0,1,0-34.06,34.06,34.06,34.06,0,0,0,34.06-34.06" transform="translate(180.106 -100.883)" fill="#c7f789"/>
      <circle id="Elipse_18" data-name="Elipse 18" cx="113.383" cy="113.383" r="113.383" transform="translate(228 499.984)" fill="none" stroke="#fff" stroke-width="1"/>
    </g>
    <g id="Grupo_1649" data-name="Grupo 1649">
      <path id="Trazado_2770" data-name="Trazado 2770" d="M347.637,608.489l-.689-.725,7.311-6.946-7.329-7.7.724-.69,8.019,8.421Z" transform="translate(167.543 -100.468)" fill="#fff"/>
      <path id="Línea_52" data-name="Línea 52" d="M170.01.5H0v-1H170.01Z" transform="translate(352.5 500.368)" fill="#fff"/>
    </g>
    <g id="Grupo_1650" data-name="Grupo 1650">
      <path id="Trazado_2768" data-name="Trazado 2768" d="M347.637,725.357l-.689-.725,7.311-6.946-7.329-7.7.724-.69,8.019,8.421Z" transform="translate(167.543 -105.993)" fill="#fff"/>
      <path id="Línea_51" data-name="Línea 51" d="M147.01.5H0v-1H147.01Z" transform="translate(375.5 611.71)" fill="#fff"/>
    </g>
  </g>
</svg>
