<svg xmlns="http://www.w3.org/2000/svg" xmlns:xlink="http://www.w3.org/1999/xlink" width="360" height="360.555" viewBox="0 0 360 360.555">
  <defs>
    <clipPath id="clip-path">
      <rect id="Rectángulo_3032" data-name="Rectángulo 3032" width="42.474" height="14.57" transform="translate(120.763 383)" fill="none"/>
    </clipPath>
    <clipPath id="clip-path-3">
      <rect id="Rectángulo_3034" data-name="Rectángulo 3034" width="58.744" height="14.57" transform="translate(197.628 383)" fill="none"/>
    </clipPath>
  </defs>
  <g id="Grupo_1520" data-name="Grupo 1520" transform="translate(0 -37.015)">
    <rect id="Rectángulo_2805" data-name="Rectángulo 2805" width="16" height="15.999" transform="translate(0 335.016)" fill="#5151f2"/>
    <rect id="Rectángulo_2806" data-name="Rectángulo 2806" width="16" height="16" transform="translate(0 243.015)" fill="#ffe0bb"/>
    <rect id="Rectángulo_2807" data-name="Rectángulo 2807" width="16" height="15" transform="translate(0 152.015)" fill="#ffe0bb"/>
    <rect id="Rectángulo_2808" data-name="Rectángulo 2808" width="16" height="14.999" transform="translate(0 290.016)" fill="#ffe0bb"/>
    <rect id="Rectángulo_2809" data-name="Rectángulo 2809" width="16" height="15" transform="translate(0 198.015)" fill="#ffe0bb"/>
    <rect id="Rectángulo_2810" data-name="Rectángulo 2810" width="16" height="15" transform="translate(0 106.015)" fill="#ffe0bb"/>
    <rect id="Rectángulo_2811" data-name="Rectángulo 2811" width="16" height="15" transform="translate(0 60.015)" fill="#ffe0bb"/>
    <rect id="Rectángulo_2812" data-name="Rectángulo 2812" width="16" height="15" transform="translate(0 313.015)" fill="#5151f2"/>
    <rect id="Rectángulo_2813" data-name="Rectángulo 2813" width="16" height="15" transform="translate(0 221.016)" fill="#ffe0bb"/>
    <rect id="Rectángulo_2814" data-name="Rectángulo 2814" width="16" height="16" transform="translate(0 129.016)" fill="#ffe0bb"/>
    <rect id="Rectángulo_2815" data-name="Rectángulo 2815" width="16" height="15" transform="translate(0 267.015)" fill="#ffe0bb"/>
    <rect id="Rectángulo_2816" data-name="Rectángulo 2816" width="16" height="15" transform="translate(0 175.016)" fill="#ffe0bb"/>
    <rect id="Rectángulo_2817" data-name="Rectángulo 2817" width="16" height="14.999" transform="translate(0 83.016)" fill="#ffe0bb"/>
    <rect id="Rectángulo_2818" data-name="Rectángulo 2818" width="16" height="15.999" transform="translate(0 37.016)" fill="#ffe0bb"/>
    <rect id="Rectángulo_2819" data-name="Rectángulo 2819" width="15" height="16" transform="translate(184 335.015)" fill="#5151f2"/>
    <rect id="Rectángulo_2820" data-name="Rectángulo 2820" width="15" height="16" transform="translate(184 243.015)" fill="#ffe0bb"/>
    <rect id="Rectángulo_2821" data-name="Rectángulo 2821" width="15" height="15" transform="translate(184 152.015)" fill="#ffe0bb"/>
    <rect id="Rectángulo_2822" data-name="Rectángulo 2822" width="15" height="15" transform="translate(184 290.015)" fill="#ffe0bb"/>
    <rect id="Rectángulo_2823" data-name="Rectángulo 2823" width="15" height="15" transform="translate(184 198.015)" fill="#ffe0bb"/>
    <rect id="Rectángulo_2824" data-name="Rectángulo 2824" width="15" height="15" transform="translate(184 106.015)" fill="#ffe0bb"/>
    <rect id="Rectángulo_2825" data-name="Rectángulo 2825" width="15" height="15" transform="translate(184 60.015)" fill="#ffe0bb"/>
    <rect id="Rectángulo_2826" data-name="Rectángulo 2826" width="15" height="15" transform="translate(184 313.015)" fill="#ffe0bb"/>
    <rect id="Rectángulo_2827" data-name="Rectángulo 2827" width="15" height="15" transform="translate(184 221.015)" fill="#ffe0bb"/>
    <rect id="Rectángulo_2828" data-name="Rectángulo 2828" width="15" height="16" transform="translate(184 129.015)" fill="#ffe0bb"/>
    <rect id="Rectángulo_2829" data-name="Rectángulo 2829" width="15" height="15" transform="translate(184 267.015)" fill="#ffe0bb"/>
    <rect id="Rectángulo_2830" data-name="Rectángulo 2830" width="15" height="15" transform="translate(184 175.015)" fill="#ffe0bb"/>
    <rect id="Rectángulo_2831" data-name="Rectángulo 2831" width="15" height="15" transform="translate(184 83.015)" fill="#ffe0bb"/>
    <rect id="Rectángulo_2832" data-name="Rectángulo 2832" width="15" height="16" transform="translate(184 37.015)" fill="#ffe0bb"/>
    <rect id="Rectángulo_2833" data-name="Rectángulo 2833" width="16" height="16" transform="translate(92 335.015)" fill="#5151f2"/>
    <rect id="Rectángulo_2834" data-name="Rectángulo 2834" width="16" height="16" transform="translate(92 243.015)" fill="#ffe0bb"/>
    <rect id="Rectángulo_2835" data-name="Rectángulo 2835" width="16" height="15" transform="translate(92 152.015)" fill="#ffe0bb"/>
    <rect id="Rectángulo_2836" data-name="Rectángulo 2836" width="16" height="15" transform="translate(92 290.015)" fill="#ffe0bb"/>
    <rect id="Rectángulo_2837" data-name="Rectángulo 2837" width="16" height="15" transform="translate(92 198.015)" fill="#ffe0bb"/>
    <rect id="Rectángulo_2838" data-name="Rectángulo 2838" width="16" height="15" transform="translate(92 106.015)" fill="#ffe0bb"/>
    <rect id="Rectángulo_2839" data-name="Rectángulo 2839" width="16" height="15" transform="translate(92 60.015)" fill="#ffe0bb"/>
    <rect id="Rectángulo_2840" data-name="Rectángulo 2840" width="16" height="15" transform="translate(92 313.015)" fill="#5151f2"/>
    <rect id="Rectángulo_2841" data-name="Rectángulo 2841" width="16" height="15" transform="translate(92 221.015)" fill="#ffe0bb"/>
    <rect id="Rectángulo_2842" data-name="Rectángulo 2842" width="16" height="16" transform="translate(92 129.015)" fill="#ffe0bb"/>
    <rect id="Rectángulo_2843" data-name="Rectángulo 2843" width="16" height="15" transform="translate(92 267.015)" fill="#ffe0bb"/>
    <rect id="Rectángulo_2844" data-name="Rectángulo 2844" width="16" height="15" transform="translate(92 175.015)" fill="#ffe0bb"/>
    <rect id="Rectángulo_2845" data-name="Rectángulo 2845" width="16" height="15" transform="translate(92 83.015)" fill="#ffe0bb"/>
    <rect id="Rectángulo_2846" data-name="Rectángulo 2846" width="16" height="16" transform="translate(92 37.015)" fill="#ffe0bb"/>
    <rect id="Rectángulo_2847" data-name="Rectángulo 2847" width="15" height="16" transform="translate(276 335.015)" fill="#5151f2"/>
    <rect id="Rectángulo_2848" data-name="Rectángulo 2848" width="15" height="16" transform="translate(276 243.015)" fill="#ffe0bb"/>
    <rect id="Rectángulo_2849" data-name="Rectángulo 2849" width="15" height="15" transform="translate(276 152.015)" fill="#ffe0bb"/>
    <rect id="Rectángulo_2850" data-name="Rectángulo 2850" width="15" height="15" transform="translate(276 290.015)" fill="#ffe0bb"/>
    <rect id="Rectángulo_2851" data-name="Rectángulo 2851" width="15" height="15" transform="translate(276 198.015)" fill="#ffe0bb"/>
    <rect id="Rectángulo_2852" data-name="Rectángulo 2852" width="15" height="15" transform="translate(276 106.015)" fill="#ffe0bb"/>
    <rect id="Rectángulo_2853" data-name="Rectángulo 2853" width="15" height="15" transform="translate(276 60.015)" fill="#ffe0bb"/>
    <rect id="Rectángulo_2854" data-name="Rectángulo 2854" width="15" height="15" transform="translate(276 313.015)" fill="#ffe0bb"/>
    <rect id="Rectángulo_2855" data-name="Rectángulo 2855" width="15" height="15" transform="translate(276 221.015)" fill="#ffe0bb"/>
    <rect id="Rectángulo_2856" data-name="Rectángulo 2856" width="15" height="16" transform="translate(276 129.015)" fill="#ffe0bb"/>
    <rect id="Rectángulo_2857" data-name="Rectángulo 2857" width="15" height="15" transform="translate(276 267.015)" fill="#ffe0bb"/>
    <rect id="Rectángulo_2858" data-name="Rectángulo 2858" width="15" height="15" transform="translate(276 175.015)" fill="#ffe0bb"/>
    <rect id="Rectángulo_2859" data-name="Rectángulo 2859" width="15" height="15" transform="translate(276 83.015)" fill="#ffe0bb"/>
    <rect id="Rectángulo_2860" data-name="Rectángulo 2860" width="15" height="16" transform="translate(276 37.015)" fill="#ffe0bb"/>
    <rect id="Rectángulo_2861" data-name="Rectángulo 2861" width="15" height="16" transform="translate(46 335.015)" fill="#5151f2"/>
    <rect id="Rectángulo_2862" data-name="Rectángulo 2862" width="15" height="16" transform="translate(46 243.015)" fill="#ffe0bb"/>
    <rect id="Rectángulo_2863" data-name="Rectángulo 2863" width="15" height="15" transform="translate(46 152.015)" fill="#ffe0bb"/>
    <rect id="Rectángulo_2864" data-name="Rectángulo 2864" width="15" height="15" transform="translate(46 290.015)" fill="#ffe0bb"/>
    <rect id="Rectángulo_2865" data-name="Rectángulo 2865" width="15" height="15" transform="translate(46 198.015)" fill="#ffe0bb"/>
    <rect id="Rectángulo_2866" data-name="Rectángulo 2866" width="15" height="15" transform="translate(46 106.015)" fill="#ffe0bb"/>
    <rect id="Rectángulo_2867" data-name="Rectángulo 2867" width="15" height="15" transform="translate(46 60.015)" fill="#ffe0bb"/>
    <rect id="Rectángulo_2868" data-name="Rectángulo 2868" width="15" height="15" transform="translate(46 313.015)" fill="#5151f2"/>
    <rect id="Rectángulo_2869" data-name="Rectángulo 2869" width="15" height="15" transform="translate(46 221.015)" fill="#ffe0bb"/>
    <rect id="Rectángulo_2870" data-name="Rectángulo 2870" width="15" height="16" transform="translate(46 129.015)" fill="#ffe0bb"/>
    <rect id="Rectángulo_2871" data-name="Rectángulo 2871" width="15" height="15" transform="translate(46 267.015)" fill="#ffe0bb"/>
    <rect id="Rectángulo_2872" data-name="Rectángulo 2872" width="15" height="15" transform="translate(46 175.015)" fill="#ffe0bb"/>
    <rect id="Rectángulo_2873" data-name="Rectángulo 2873" width="15" height="15" transform="translate(46 83.015)" fill="#ffe0bb"/>
    <rect id="Rectángulo_2874" data-name="Rectángulo 2874" width="15" height="16" transform="translate(46 37.015)" fill="#ffe0bb"/>
    <rect id="Rectángulo_2875" data-name="Rectángulo 2875" width="15" height="16" transform="translate(230 335.015)" fill="#5151f2"/>
    <rect id="Rectángulo_2876" data-name="Rectángulo 2876" width="15" height="16" transform="translate(230 243.015)" fill="#ffe0bb"/>
    <rect id="Rectángulo_2877" data-name="Rectángulo 2877" width="15" height="15" transform="translate(230 152.015)" fill="#ffe0bb"/>
    <rect id="Rectángulo_2878" data-name="Rectángulo 2878" width="15" height="15" transform="translate(230 290.015)" fill="#ffe0bb"/>
    <rect id="Rectángulo_2879" data-name="Rectángulo 2879" width="15" height="15" transform="translate(230 198.015)" fill="#ffe0bb"/>
    <rect id="Rectángulo_2880" data-name="Rectángulo 2880" width="15" height="15" transform="translate(230 106.015)" fill="#ffe0bb"/>
    <rect id="Rectángulo_2881" data-name="Rectángulo 2881" width="15" height="15" transform="translate(230 60.015)" fill="#ffe0bb"/>
    <rect id="Rectángulo_2882" data-name="Rectángulo 2882" width="15" height="15" transform="translate(230 313.015)" fill="#ffe0bb"/>
    <rect id="Rectángulo_2883" data-name="Rectángulo 2883" width="15" height="15" transform="translate(230 221.015)" fill="#ffe0bb"/>
    <rect id="Rectángulo_2884" data-name="Rectángulo 2884" width="15" height="16" transform="translate(230 129.015)" fill="#ffe0bb"/>
    <rect id="Rectángulo_2885" data-name="Rectángulo 2885" width="15" height="15" transform="translate(230 267.015)" fill="#ffe0bb"/>
    <rect id="Rectángulo_2886" data-name="Rectángulo 2886" width="15" height="15" transform="translate(230 175.015)" fill="#ffe0bb"/>
    <rect id="Rectángulo_2887" data-name="Rectángulo 2887" width="15" height="15" transform="translate(230 83.015)" fill="#ffe0bb"/>
    <rect id="Rectángulo_2888" data-name="Rectángulo 2888" width="15" height="16" transform="translate(230 37.015)" fill="#ffe0bb"/>
    <rect id="Rectángulo_2889" data-name="Rectángulo 2889" width="15" height="16" transform="translate(138 335.015)" fill="#5151f2"/>
    <rect id="Rectángulo_2890" data-name="Rectángulo 2890" width="15" height="16" transform="translate(138 243.015)" fill="#ffe0bb"/>
    <rect id="Rectángulo_2891" data-name="Rectángulo 2891" width="15" height="15" transform="translate(138 152.015)" fill="#ffe0bb"/>
    <rect id="Rectángulo_2892" data-name="Rectángulo 2892" width="15" height="15" transform="translate(138 290.015)" fill="#ffe0bb"/>
    <rect id="Rectángulo_2893" data-name="Rectángulo 2893" width="15" height="15" transform="translate(138 198.015)" fill="#ffe0bb"/>
    <rect id="Rectángulo_2894" data-name="Rectángulo 2894" width="15" height="15" transform="translate(138 106.015)" fill="#ffe0bb"/>
    <rect id="Rectángulo_2895" data-name="Rectángulo 2895" width="15" height="15" transform="translate(138 60.015)" fill="#ffe0bb"/>
    <rect id="Rectángulo_2896" data-name="Rectángulo 2896" width="15" height="15" transform="translate(138 313.015)" fill="#5151f2"/>
    <rect id="Rectángulo_2897" data-name="Rectángulo 2897" width="15" height="15" transform="translate(138 221.015)" fill="#ffe0bb"/>
    <rect id="Rectángulo_2898" data-name="Rectángulo 2898" width="15" height="16" transform="translate(138 129.015)" fill="#ffe0bb"/>
    <rect id="Rectángulo_2899" data-name="Rectángulo 2899" width="15" height="15" transform="translate(138 267.015)" fill="#ffe0bb"/>
    <rect id="Rectángulo_2900" data-name="Rectángulo 2900" width="15" height="15" transform="translate(138 175.015)" fill="#ffe0bb"/>
    <rect id="Rectángulo_2901" data-name="Rectángulo 2901" width="15" height="15" transform="translate(138 83.015)" fill="#ffe0bb"/>
    <rect id="Rectángulo_2902" data-name="Rectángulo 2902" width="15" height="16" transform="translate(138 37.015)" fill="#ffe0bb"/>
    <rect id="Rectángulo_2903" data-name="Rectángulo 2903" width="15" height="16" transform="translate(23 335.015)" fill="#5151f2"/>
    <rect id="Rectángulo_2904" data-name="Rectángulo 2904" width="15" height="16" transform="translate(23 243.015)" fill="#ffe0bb"/>
    <rect id="Rectángulo_2905" data-name="Rectángulo 2905" width="15" height="15" transform="translate(23 152.015)" fill="#ffe0bb"/>
    <rect id="Rectángulo_2906" data-name="Rectángulo 2906" width="15" height="15" transform="translate(23 290.015)" fill="#ffe0bb"/>
    <rect id="Rectángulo_2907" data-name="Rectángulo 2907" width="15" height="15" transform="translate(23 198.015)" fill="#ffe0bb"/>
    <rect id="Rectángulo_2908" data-name="Rectángulo 2908" width="15" height="15" transform="translate(23 106.015)" fill="#ffe0bb"/>
    <rect id="Rectángulo_2909" data-name="Rectángulo 2909" width="15" height="15" transform="translate(23 60.015)" fill="#ffe0bb"/>
    <rect id="Rectángulo_2910" data-name="Rectángulo 2910" width="15" height="15" transform="translate(23 313.015)" fill="#5151f2"/>
    <rect id="Rectángulo_2911" data-name="Rectángulo 2911" width="15" height="15" transform="translate(23 221.015)" fill="#ffe0bb"/>
    <rect id="Rectángulo_2912" data-name="Rectángulo 2912" width="15" height="16" transform="translate(23 129.015)" fill="#ffe0bb"/>
    <rect id="Rectángulo_2913" data-name="Rectángulo 2913" width="15" height="15" transform="translate(23 267.015)" fill="#ffe0bb"/>
    <rect id="Rectángulo_2914" data-name="Rectángulo 2914" width="15" height="15" transform="translate(23 175.015)" fill="#ffe0bb"/>
    <rect id="Rectángulo_2915" data-name="Rectángulo 2915" width="15" height="15" transform="translate(23 83.015)" fill="#ffe0bb"/>
    <rect id="Rectángulo_2916" data-name="Rectángulo 2916" width="15" height="16" transform="translate(23 37.015)" fill="#ffe0bb"/>
    <rect id="Rectángulo_2917" data-name="Rectángulo 2917" width="16" height="16" transform="translate(206 335.015)" fill="#5151f2"/>
    <rect id="Rectángulo_2918" data-name="Rectángulo 2918" width="16" height="16" transform="translate(206 243.015)" fill="#ffe0bb"/>
    <rect id="Rectángulo_2919" data-name="Rectángulo 2919" width="16" height="15" transform="translate(206 152.015)" fill="#ffe0bb"/>
    <rect id="Rectángulo_2920" data-name="Rectángulo 2920" width="16" height="15" transform="translate(206 290.015)" fill="#ffe0bb"/>
    <rect id="Rectángulo_2921" data-name="Rectángulo 2921" width="16" height="15" transform="translate(206 198.015)" fill="#ffe0bb"/>
    <rect id="Rectángulo_2922" data-name="Rectángulo 2922" width="16" height="15" transform="translate(206 106.015)" fill="#ffe0bb"/>
    <rect id="Rectángulo_2923" data-name="Rectángulo 2923" width="16" height="15" transform="translate(206 60.015)" fill="#ffe0bb"/>
    <rect id="Rectángulo_2924" data-name="Rectángulo 2924" width="16" height="15" transform="translate(206 313.015)" fill="#ffe0bb"/>
    <rect id="Rectángulo_2925" data-name="Rectángulo 2925" width="16" height="15" transform="translate(206 221.015)" fill="#ffe0bb"/>
    <rect id="Rectángulo_2926" data-name="Rectángulo 2926" width="16" height="16" transform="translate(206 129.015)" fill="#ffe0bb"/>
    <rect id="Rectángulo_2927" data-name="Rectángulo 2927" width="16" height="15" transform="translate(206 267.015)" fill="#ffe0bb"/>
    <rect id="Rectángulo_2928" data-name="Rectángulo 2928" width="16" height="15" transform="translate(206 175.015)" fill="#ffe0bb"/>
    <rect id="Rectángulo_2929" data-name="Rectángulo 2929" width="16" height="15" transform="translate(206 83.015)" fill="#ffe0bb"/>
    <rect id="Rectángulo_2930" data-name="Rectángulo 2930" width="16" height="16" transform="translate(206 37.015)" fill="#ffe0bb"/>
    <rect id="Rectángulo_2931" data-name="Rectángulo 2931" width="15" height="16" transform="translate(115 335.015)" fill="#5151f2"/>
    <rect id="Rectángulo_2932" data-name="Rectángulo 2932" width="15" height="16" transform="translate(115 243.015)" fill="#ffe0bb"/>
    <rect id="Rectángulo_2933" data-name="Rectángulo 2933" width="15" height="15" transform="translate(115 152.015)" fill="#ffe0bb"/>
    <rect id="Rectángulo_2934" data-name="Rectángulo 2934" width="15" height="15" transform="translate(115 290.015)" fill="#ffe0bb"/>
    <rect id="Rectángulo_2935" data-name="Rectángulo 2935" width="15" height="15" transform="translate(115 198.015)" fill="#ffe0bb"/>
    <rect id="Rectángulo_2936" data-name="Rectángulo 2936" width="15" height="15" transform="translate(115 106.015)" fill="#ffe0bb"/>
    <rect id="Rectángulo_2937" data-name="Rectángulo 2937" width="15" height="15" transform="translate(115 60.015)" fill="#ffe0bb"/>
    <rect id="Rectángulo_2938" data-name="Rectángulo 2938" width="15" height="15" transform="translate(115 313.015)" fill="#5151f2"/>
    <rect id="Rectángulo_2939" data-name="Rectángulo 2939" width="15" height="15" transform="translate(115 221.015)" fill="#ffe0bb"/>
    <rect id="Rectángulo_2940" data-name="Rectángulo 2940" width="15" height="16" transform="translate(115 129.015)" fill="#ffe0bb"/>
    <rect id="Rectángulo_2941" data-name="Rectángulo 2941" width="15" height="15" transform="translate(115 267.015)" fill="#ffe0bb"/>
    <rect id="Rectángulo_2942" data-name="Rectángulo 2942" width="15" height="15" transform="translate(115 175.015)" fill="#ffe0bb"/>
    <rect id="Rectángulo_2943" data-name="Rectángulo 2943" width="15" height="15" transform="translate(115 83.015)" fill="#ffe0bb"/>
    <rect id="Rectángulo_2944" data-name="Rectángulo 2944" width="15" height="16" transform="translate(115 37.015)" fill="#ffe0bb"/>
    <rect id="Rectángulo_2945" data-name="Rectángulo 2945" width="16" height="16" transform="translate(298 335.015)" fill="#5151f2"/>
    <rect id="Rectángulo_2946" data-name="Rectángulo 2946" width="16" height="16" transform="translate(321 335.015)" fill="#5151f2"/>
    <rect id="Rectángulo_2947" data-name="Rectángulo 2947" width="16" height="15.999" transform="translate(344 335.016)" fill="#5151f2"/>
    <rect id="Rectángulo_2948" data-name="Rectángulo 2948" width="16" height="16" transform="translate(298 243.015)" fill="#ffe0bb"/>
    <rect id="Rectángulo_2949" data-name="Rectángulo 2949" width="16" height="16" transform="translate(321 243.015)" fill="#ffe0bb"/>
    <rect id="Rectángulo_2950" data-name="Rectángulo 2950" width="16" height="16" transform="translate(344 243.015)" fill="#ffe0bb"/>
    <rect id="Rectángulo_2951" data-name="Rectángulo 2951" width="16" height="15" transform="translate(298 152.015)" fill="#ffe0bb"/>
    <rect id="Rectángulo_2952" data-name="Rectángulo 2952" width="16" height="15" transform="translate(321 152.015)" fill="#ffe0bb"/>
    <rect id="Rectángulo_2953" data-name="Rectángulo 2953" width="16" height="15" transform="translate(344 152.015)" fill="#ffe0bb"/>
    <rect id="Rectángulo_2954" data-name="Rectángulo 2954" width="16" height="15" transform="translate(298 290.015)" fill="#ffe0bb"/>
    <rect id="Rectángulo_2955" data-name="Rectángulo 2955" width="16" height="15" transform="translate(321 290.015)" fill="#ffe0bb"/>
    <rect id="Rectángulo_2956" data-name="Rectángulo 2956" width="16" height="14.999" transform="translate(344 290.016)" fill="#ffe0bb"/>
    <rect id="Rectángulo_2957" data-name="Rectángulo 2957" width="16" height="15" transform="translate(298 198.015)" fill="#ffe0bb"/>
    <rect id="Rectángulo_2958" data-name="Rectángulo 2958" width="16" height="15" transform="translate(321 198.015)" fill="#ffe0bb"/>
    <rect id="Rectángulo_2959" data-name="Rectángulo 2959" width="16" height="15" transform="translate(344 198.015)" fill="#ffe0bb"/>
    <rect id="Rectángulo_2960" data-name="Rectángulo 2960" width="16" height="15" transform="translate(298 106.015)" fill="#ffe0bb"/>
    <rect id="Rectángulo_2961" data-name="Rectángulo 2961" width="16" height="15" transform="translate(321 106.015)" fill="#ffe0bb"/>
    <rect id="Rectángulo_2962" data-name="Rectángulo 2962" width="16" height="15" transform="translate(344 106.015)" fill="#ffe0bb"/>
    <rect id="Rectángulo_2963" data-name="Rectángulo 2963" width="16" height="15" transform="translate(298 60.015)" fill="#ffe0bb"/>
    <rect id="Rectángulo_2964" data-name="Rectángulo 2964" width="16" height="15" transform="translate(321 60.015)" fill="#ffe0bb"/>
    <rect id="Rectángulo_2965" data-name="Rectángulo 2965" width="16" height="15" transform="translate(344 60.015)" fill="#ffe0bb"/>
    <rect id="Rectángulo_2966" data-name="Rectángulo 2966" width="16" height="15" transform="translate(298 313.015)" fill="#ffe0bb"/>
    <rect id="Rectángulo_2967" data-name="Rectángulo 2967" width="16" height="15" transform="translate(321 313.015)" fill="#ffe0bb"/>
    <rect id="Rectángulo_2968" data-name="Rectángulo 2968" width="16" height="15" transform="translate(344 313.015)" fill="#ffe0bb"/>
    <rect id="Rectángulo_2969" data-name="Rectángulo 2969" width="16" height="15" transform="translate(298 221.015)" fill="#ffe0bb"/>
    <rect id="Rectángulo_2970" data-name="Rectángulo 2970" width="16" height="15" transform="translate(321 221.015)" fill="#ffe0bb"/>
    <rect id="Rectángulo_2971" data-name="Rectángulo 2971" width="16" height="15" transform="translate(344 221.016)" fill="#ffe0bb"/>
    <rect id="Rectángulo_2972" data-name="Rectángulo 2972" width="16" height="16" transform="translate(298 129.015)" fill="#ffe0bb"/>
    <rect id="Rectángulo_2973" data-name="Rectángulo 2973" width="16" height="16" transform="translate(321 129.015)" fill="#ffe0bb"/>
    <rect id="Rectángulo_2974" data-name="Rectángulo 2974" width="16" height="16" transform="translate(344 129.016)" fill="#ffe0bb"/>
    <rect id="Rectángulo_2975" data-name="Rectángulo 2975" width="16" height="15" transform="translate(298 267.015)" fill="#ffe0bb"/>
    <rect id="Rectángulo_2976" data-name="Rectángulo 2976" width="16" height="15" transform="translate(321 267.015)" fill="#ffe0bb"/>
    <rect id="Rectángulo_2977" data-name="Rectángulo 2977" width="16" height="15" transform="translate(344 267.015)" fill="#ffe0bb"/>
    <rect id="Rectángulo_2978" data-name="Rectángulo 2978" width="16" height="15" transform="translate(298 175.015)" fill="#ffe0bb"/>
    <rect id="Rectángulo_2979" data-name="Rectángulo 2979" width="16" height="15" transform="translate(321 175.015)" fill="#ffe0bb"/>
    <rect id="Rectángulo_2980" data-name="Rectángulo 2980" width="16" height="15" transform="translate(344 175.016)" fill="#ffe0bb"/>
    <rect id="Rectángulo_2981" data-name="Rectángulo 2981" width="16" height="15" transform="translate(298 83.015)" fill="#ffe0bb"/>
    <rect id="Rectángulo_2982" data-name="Rectángulo 2982" width="16" height="15" transform="translate(321 83.015)" fill="#ffe0bb"/>
    <rect id="Rectángulo_2983" data-name="Rectángulo 2983" width="16" height="14.999" transform="translate(344 83.016)" fill="#ffe0bb"/>
    <rect id="Rectángulo_2984" data-name="Rectángulo 2984" width="16" height="16" transform="translate(298 37.015)" fill="#ffe0bb"/>
    <rect id="Rectángulo_2985" data-name="Rectángulo 2985" width="16" height="16" transform="translate(321 37.015)" fill="#ffe0bb"/>
    <rect id="Rectángulo_2986" data-name="Rectángulo 2986" width="16" height="15.999" transform="translate(344 37.016)" fill="#ffe0bb"/>
    <rect id="Rectángulo_2987" data-name="Rectángulo 2987" width="15" height="16" transform="translate(69 335.015)" fill="#5151f2"/>
    <rect id="Rectángulo_2988" data-name="Rectángulo 2988" width="15" height="16" transform="translate(69 243.015)" fill="#ffe0bb"/>
    <rect id="Rectángulo_2989" data-name="Rectángulo 2989" width="15" height="15" transform="translate(69 152.015)" fill="#ffe0bb"/>
    <rect id="Rectángulo_2990" data-name="Rectángulo 2990" width="15" height="15" transform="translate(69 290.015)" fill="#ffe0bb"/>
    <rect id="Rectángulo_2991" data-name="Rectángulo 2991" width="15" height="15" transform="translate(69 198.015)" fill="#ffe0bb"/>
    <rect id="Rectángulo_2992" data-name="Rectángulo 2992" width="15" height="15" transform="translate(69 106.015)" fill="#ffe0bb"/>
    <rect id="Rectángulo_2993" data-name="Rectángulo 2993" width="15" height="15" transform="translate(69 60.015)" fill="#ffe0bb"/>
    <rect id="Rectángulo_2994" data-name="Rectángulo 2994" width="15" height="15" transform="translate(69 313.015)" fill="#5151f2"/>
    <rect id="Rectángulo_2995" data-name="Rectángulo 2995" width="15" height="15" transform="translate(69 221.015)" fill="#ffe0bb"/>
    <rect id="Rectángulo_2996" data-name="Rectángulo 2996" width="15" height="16" transform="translate(69 129.015)" fill="#ffe0bb"/>
    <rect id="Rectángulo_2997" data-name="Rectángulo 2997" width="15" height="15" transform="translate(69 267.015)" fill="#ffe0bb"/>
    <rect id="Rectángulo_2998" data-name="Rectángulo 2998" width="15" height="15" transform="translate(69 175.015)" fill="#ffe0bb"/>
    <rect id="Rectángulo_2999" data-name="Rectángulo 2999" width="15" height="15" transform="translate(69 83.015)" fill="#ffe0bb"/>
    <rect id="Rectángulo_3000" data-name="Rectángulo 3000" width="15" height="16" transform="translate(69 37.015)" fill="#ffe0bb"/>
    <rect id="Rectángulo_3001" data-name="Rectángulo 3001" width="15" height="16" transform="translate(253 335.015)" fill="#5151f2"/>
    <rect id="Rectángulo_3002" data-name="Rectángulo 3002" width="15" height="16" transform="translate(253 243.015)" fill="#ffe0bb"/>
    <rect id="Rectángulo_3003" data-name="Rectángulo 3003" width="15" height="15" transform="translate(253 152.015)" fill="#ffe0bb"/>
    <rect id="Rectángulo_3004" data-name="Rectángulo 3004" width="15" height="15" transform="translate(253 290.015)" fill="#ffe0bb"/>
    <rect id="Rectángulo_3005" data-name="Rectángulo 3005" width="15" height="15" transform="translate(253 198.015)" fill="#ffe0bb"/>
    <rect id="Rectángulo_3006" data-name="Rectángulo 3006" width="15" height="15" transform="translate(253 106.015)" fill="#ffe0bb"/>
    <rect id="Rectángulo_3007" data-name="Rectángulo 3007" width="15" height="15" transform="translate(253 60.015)" fill="#ffe0bb"/>
    <rect id="Rectángulo_3008" data-name="Rectángulo 3008" width="15" height="15" transform="translate(253 313.015)" fill="#ffe0bb"/>
    <rect id="Rectángulo_3009" data-name="Rectángulo 3009" width="15" height="15" transform="translate(253 221.015)" fill="#ffe0bb"/>
    <rect id="Rectángulo_3010" data-name="Rectángulo 3010" width="15" height="16" transform="translate(253 129.015)" fill="#ffe0bb"/>
    <rect id="Rectángulo_3011" data-name="Rectángulo 3011" width="15" height="15" transform="translate(253 267.015)" fill="#ffe0bb"/>
    <rect id="Rectángulo_3012" data-name="Rectángulo 3012" width="15" height="15" transform="translate(253 175.015)" fill="#ffe0bb"/>
    <rect id="Rectángulo_3013" data-name="Rectángulo 3013" width="15" height="15" transform="translate(253 83.015)" fill="#ffe0bb"/>
    <rect id="Rectángulo_3014" data-name="Rectángulo 3014" width="15" height="16" transform="translate(253 37.015)" fill="#ffe0bb"/>
    <rect id="Rectángulo_3015" data-name="Rectángulo 3015" width="15" height="16" transform="translate(161 335.015)" fill="#5151f2"/>
    <rect id="Rectángulo_3016" data-name="Rectángulo 3016" width="15" height="16" transform="translate(161 243.015)" fill="#ffe0bb"/>
    <rect id="Rectángulo_3017" data-name="Rectángulo 3017" width="15" height="15" transform="translate(161 152.015)" fill="#ffe0bb"/>
    <rect id="Rectángulo_3018" data-name="Rectángulo 3018" width="15" height="15" transform="translate(161 290.015)" fill="#ffe0bb"/>
    <rect id="Rectángulo_3019" data-name="Rectángulo 3019" width="15" height="15" transform="translate(161 198.015)" fill="#ffe0bb"/>
    <rect id="Rectángulo_3020" data-name="Rectángulo 3020" width="15" height="15" transform="translate(161 106.015)" fill="#ffe0bb"/>
    <rect id="Rectángulo_3021" data-name="Rectángulo 3021" width="15" height="15" transform="translate(161 60.015)" fill="#ffe0bb"/>
    <rect id="Rectángulo_3022" data-name="Rectángulo 3022" width="15" height="15" transform="translate(161 313.015)" fill="#5151f2"/>
    <rect id="Rectángulo_3023" data-name="Rectángulo 3023" width="15" height="15" transform="translate(161 221.015)" fill="#ffe0bb"/>
    <rect id="Rectángulo_3024" data-name="Rectángulo 3024" width="15" height="16" transform="translate(161 129.015)" fill="#ffe0bb"/>
    <rect id="Rectángulo_3025" data-name="Rectángulo 3025" width="15" height="15" transform="translate(161 267.015)" fill="#ffe0bb"/>
    <rect id="Rectángulo_3026" data-name="Rectángulo 3026" width="15" height="15" transform="translate(161 175.015)" fill="#ffe0bb"/>
    <rect id="Rectángulo_3027" data-name="Rectángulo 3027" width="15" height="15" transform="translate(161 83.015)" fill="#ffe0bb"/>
    <rect id="Rectángulo_3028" data-name="Rectángulo 3028" width="15" height="16" transform="translate(161 37.015)" fill="#ffe0bb"/>
    <rect id="Rectángulo_3029" data-name="Rectángulo 3029" width="8" height="8" transform="translate(105 385.015)" fill="#5151f2"/>
    <rect id="Rectángulo_3030" data-name="Rectángulo 3030" width="8" height="8" transform="translate(182 385.015)" fill="#ffe0bb"/>
    <g id="Grupo_1519" data-name="Grupo 1519">
      <g id="Grupo_1521" data-name="Grupo 1521">
        <g id="Grupo_1505" data-name="Grupo 1505" style="mix-blend-mode: normal;isolation: isolate">
          <g id="Grupo_1504" data-name="Grupo 1504">
            <g id="Grupo_1503" data-name="Grupo 1503" clip-path="url(#clip-path)">
              <g id="Grupo_1502" data-name="Grupo 1502" style="mix-blend-mode: normal;isolation: isolate">
                <g id="Grupo_1501" data-name="Grupo 1501">
                  <g id="Grupo_1500" data-name="Grupo 1500" clip-path="url(#clip-path)">
                    <text id="Nariño" transform="translate(120.762 395.015)" font-size="14" font-family="Lato-Regular, Lato"><tspan x="0" y="0">Nariño</tspan></text>
                  </g>
                </g>
              </g>
            </g>
          </g>
        </g>
        <g id="Grupo_1511" data-name="Grupo 1511" style="mix-blend-mode: normal;isolation: isolate">
          <g id="Grupo_1510" data-name="Grupo 1510">
            <g id="Grupo_1509" data-name="Grupo 1509" clip-path="url(#clip-path-3)">
              <g id="Grupo_1508" data-name="Grupo 1508" style="mix-blend-mode: normal;isolation: isolate">
                <g id="Grupo_1507" data-name="Grupo 1507">
                  <g id="Grupo_1506" data-name="Grupo 1506" clip-path="url(#clip-path-3)">
                    <text id="Colombia" transform="translate(197.628 395.015)" font-size="14" font-family="Lato-Regular, Lato"><tspan x="0" y="0">Colombia</tspan></text>
                  </g>
                </g>
              </g>
            </g>
          </g>
        </g>
      </g>
    </g>
  </g>
</svg>
