<svg xmlns="http://www.w3.org/2000/svg" width="345.965" height="37.508" viewBox="0 0 345.965 37.508">
  <g id="Grupo_2205" data-name="Grupo 2205" transform="translate(-481.398 -699.35)">
    <rect id="Rectángulo_3433" data-name="Rectángulo 3433" width="137.337" height="15" transform="translate(481.398 703.813)" fill="#ffd150"/>
    <rect id="Rectángulo_3435" data-name="Rectángulo 3435" width="131.064" height="15" transform="translate(618.018 703.813)" fill="#ffd150"/>
    <rect id="Rectángulo_3436" data-name="Rectángulo 3436" width="78.282" height="15" transform="translate(749.081 703.813)" fill="#ff9739"/>
    <text id="_0" data-name="0" transform="translate(490.398 733.857)" fill="#1a1a1a" font-size="12" font-family="Inter-Regular, Inter"><tspan x="-3" y="0">0</tspan></text>
    <text id="_0-2" data-name="0" transform="translate(526.398 733.857)" fill="#1a1a1a" font-size="12" font-family="Inter-Regular, Inter"><tspan x="-3" y="0">0</tspan></text>
    <text id="_0-3" data-name="0" transform="translate(562.398 733.857)" fill="#1a1a1a" font-size="12" font-family="Inter-Regular, Inter"><tspan x="-3" y="0">0</tspan></text>
    <text id="_0-4" data-name="0" transform="translate(598.398 733.857)" fill="#1a1a1a" font-size="12" font-family="Inter-Regular, Inter"><tspan x="-3" y="0">0</tspan></text>
    <text id="_0-5" data-name="0" transform="translate(642.398 733.857)" fill="#1a1a1a" font-size="12" font-family="Inter-Regular, Inter"><tspan x="-3" y="0">0</tspan></text>
    <text id="_0-6" data-name="0" transform="translate(686.398 733.857)" fill="#1a1a1a" font-size="12" font-family="Inter-Regular, Inter"><tspan x="-3" y="0">0</tspan></text>
    <text id="_0-7" data-name="0" transform="translate(730.398 733.857)" fill="#1a1a1a" font-size="12" font-family="Inter-Regular, Inter"><tspan x="-3" y="0">0</tspan></text>
    <text id="_0-8" data-name="0" transform="translate(774.398 733.857)" fill="#1a1a1a" font-size="12" font-family="Inter-Regular, Inter"><tspan x="-3" y="0">0</tspan></text>
    <text id="_0-9" data-name="0" transform="translate(818.398 733.857)" fill="#1a1a1a" font-size="12" font-family="Inter-Regular, Inter"><tspan x="-3" y="0">0</tspan></text>
    <path id="Trazado_3439" data-name="Trazado 3439" d="M325.718,194.781v22.9" transform="translate(292.299 504.568)" fill="none" stroke="#707070" stroke-width="1"/>
    <path id="Trazado_3441" data-name="Trazado 3441" d="M325.718,194.781v3" transform="translate(164.68 524.031)" fill="none" stroke="#c1c1c1" stroke-width="0.5"/>
    <path id="Trazado_3442" data-name="Trazado 3442" d="M325.718,194.781v3" transform="translate(200.68 524.031)" fill="none" stroke="#c1c1c1" stroke-width="0.5"/>
    <path id="Trazado_3443" data-name="Trazado 3443" d="M325.718,194.781v3" transform="translate(236.68 524.031)" fill="none" stroke="#c1c1c1" stroke-width="0.5"/>
    <path id="Trazado_3444" data-name="Trazado 3444" d="M325.718,194.781v3" transform="translate(272.68 524.031)" fill="none" stroke="#c1c1c1" stroke-width="0.5"/>
    <path id="Trazado_3445" data-name="Trazado 3445" d="M325.718,194.781v3" transform="translate(316.68 524.031)" fill="none" stroke="#c1c1c1" stroke-width="0.5"/>
    <path id="Trazado_3446" data-name="Trazado 3446" d="M325.718,194.781v3" transform="translate(360.68 524.031)" fill="none" stroke="#c1c1c1" stroke-width="0.5"/>
    <path id="Trazado_3447" data-name="Trazado 3447" d="M325.718,194.781v3" transform="translate(404.68 524.031)" fill="none" stroke="#c1c1c1" stroke-width="0.5"/>
    <path id="Trazado_3448" data-name="Trazado 3448" d="M325.718,194.781v3" transform="translate(448.68 524.031)" fill="none" stroke="#c1c1c1" stroke-width="0.5"/>
    <path id="Trazado_3450" data-name="Trazado 3450" d="M325.718,194.781v3" transform="translate(492.68 524.031)" fill="none" stroke="#c1c1c1" stroke-width="0.5"/>
    <path id="Trazado_3440" data-name="Trazado 3440" d="M325.718,194.781v22.9" transform="translate(423.363 504.568)" fill="none" stroke="#707070" stroke-width="1"/>
  </g>
</svg>
