<svg id="Grupo_1495" data-name="Grupo 1495" xmlns="http://www.w3.org/2000/svg" xmlns:xlink="http://www.w3.org/1999/xlink" width="586" height="347.863" viewBox="0 0 586 347.863">
  <defs>
    <clipPath id="clip-path">
      <rect id="Rectángulo_2730" data-name="Rectángulo 2730" width="586" height="347.863" fill="none"/>
    </clipPath>
    <clipPath id="clip-path-3">
      <rect id="Rectángulo_2684" data-name="Rectángulo 2684" width="554.705" height="90.825" fill="none"/>
    </clipPath>
    <clipPath id="clip-path-4">
      <rect id="Rectángulo_2685" data-name="Rectángulo 2685" width="559.347" height="78.109" fill="none"/>
    </clipPath>
    <clipPath id="clip-path-5">
      <rect id="Rectángulo_2686" data-name="Rectángulo 2686" width="556.253" height="66.303" fill="none"/>
    </clipPath>
    <clipPath id="clip-path-6">
      <rect id="Rectángulo_2687" data-name="Rectángulo 2687" width="553.164" height="49.045" fill="none"/>
    </clipPath>
    <clipPath id="clip-path-7">
      <rect id="Rectángulo_2688" data-name="Rectángulo 2688" width="544.631" height="50.862" fill="none"/>
    </clipPath>
    <clipPath id="clip-path-8">
      <rect id="Rectángulo_2689" data-name="Rectángulo 2689" width="544.631" height="39.055" fill="none"/>
    </clipPath>
    <clipPath id="clip-path-9">
      <rect id="Rectángulo_2690" data-name="Rectángulo 2690" width="548.038" height="39.958" fill="none"/>
    </clipPath>
    <clipPath id="clip-path-10">
      <rect id="Rectángulo_2691" data-name="Rectángulo 2691" width="547.727" height="9.991" fill="none"/>
    </clipPath>
    <clipPath id="clip-path-11">
      <rect id="Rectángulo_2692" data-name="Rectángulo 2692" width="547.746" height="11.807" fill="none"/>
    </clipPath>
    <clipPath id="clip-path-12">
      <rect id="Rectángulo_2693" data-name="Rectángulo 2693" width="547.855" height="21.796" fill="none"/>
    </clipPath>
    <clipPath id="clip-path-13">
      <rect id="Rectángulo_2695" data-name="Rectángulo 2695" width="546.947" height="7.648" fill="none"/>
    </clipPath>
    <clipPath id="clip-path-14">
      <rect id="Rectángulo_2696" data-name="Rectángulo 2696" width="545.408" height="22.706" fill="none"/>
    </clipPath>
    <clipPath id="clip-path-15">
      <rect id="Rectángulo_2697" data-name="Rectángulo 2697" width="554.676" height="19.429" fill="none"/>
    </clipPath>
    <clipPath id="clip-path-16">
      <rect id="Rectángulo_2698" data-name="Rectángulo 2698" width="552.473" height="44.646" fill="none"/>
    </clipPath>
    <clipPath id="clip-path-17">
      <rect id="Rectángulo_2699" data-name="Rectángulo 2699" width="549.288" height="48.138" fill="none"/>
    </clipPath>
    <clipPath id="clip-path-18">
      <rect id="Rectángulo_2700" data-name="Rectángulo 2700" width="551.844" height="100.812" fill="none"/>
    </clipPath>
    <clipPath id="clip-path-19">
      <rect id="Rectángulo_2701" data-name="Rectángulo 2701" width="543.506" height="77.654" fill="none"/>
    </clipPath>
    <clipPath id="clip-path-20">
      <rect id="Rectángulo_2702" data-name="Rectángulo 2702" width="546.996" height="69.933" fill="none"/>
    </clipPath>
    <clipPath id="clip-path-21">
      <rect id="Rectángulo_2703" data-name="Rectángulo 2703" width="543.211" height="55.492" fill="none"/>
    </clipPath>
  </defs>
  <g id="Grupo_1494" data-name="Grupo 1494" clip-path="url(#clip-path)">
    <g id="Grupo_1493" data-name="Grupo 1493">
      <g id="Grupo_1492" data-name="Grupo 1492" clip-path="url(#clip-path)">
        <g id="Grupo_1437" data-name="Grupo 1437" transform="translate(8.112 0.909)" opacity="0.8">
          <g id="Grupo_1436" data-name="Grupo 1436">
            <g id="Grupo_1435" data-name="Grupo 1435" clip-path="url(#clip-path-3)">
              <path id="Trazado_2521" data-name="Trazado 2521" d="M10.508,91.826l-.021-1.817A1035.985,1035.985,0,0,0,223.089,64.6c27.455-6.251,46.756-11.819,67.192-17.715,19.259-5.557,39.175-11.3,66.638-17.707A1111.041,1111.041,0,0,1,565.141,1l.052,1.815A1109.9,1109.9,0,0,0,357.22,30.954c-27.428,6.4-47.326,12.139-66.57,17.69-20.454,5.9-39.774,11.475-67.266,17.733A1037.316,1037.316,0,0,1,10.508,91.826" transform="translate(-10.486 -1.001)" fill="#5151f2"/>
            </g>
          </g>
        </g>
        <g id="Grupo_1440" data-name="Grupo 1440" transform="translate(8.506 15.895)" opacity="0.8">
          <g id="Grupo_1439" data-name="Grupo 1439">
            <g id="Grupo_1438" data-name="Grupo 1438" clip-path="url(#clip-path-4)">
              <path id="Trazado_2522" data-name="Trazado 2522" d="M11,95.61l-.008-1.817A1160.259,1160.259,0,0,0,202.738,76.547c33.571-5.846,56.8-11.4,81.384-17.274,13.305-3.18,27.064-6.469,43.137-9.968A1494.715,1494.715,0,0,1,570.277,17.5l.065,1.815a1493.436,1493.436,0,0,0-242.8,31.775c-16.06,3.5-29.812,6.784-43.112,9.963-24.608,5.883-47.852,11.439-81.465,17.291A1161.517,1161.517,0,0,1,11,95.61" transform="translate(-10.995 -17.501)" fill="#5151f2"/>
            </g>
          </g>
        </g>
        <g id="Grupo_1443" data-name="Grupo 1443" transform="translate(8.495 31.789)" opacity="0.8">
          <g id="Grupo_1442" data-name="Grupo 1442">
            <g id="Grupo_1441" data-name="Grupo 1441" clip-path="url(#clip-path-5)">
              <path id="Trazado_2523" data-name="Trazado 2523" d="M11.011,101.3l-.029-2.725c48.658-.7,98.34-3.753,147.665-9.077,45.136-4.872,80.479-10.608,121.4-17.25,41.9-6.8,68.185-11.826,89.3-15.865,25.543-4.886,44-8.415,74.736-12.3A1198.04,1198.04,0,0,1,567.191,35l.044,2.725a1196.094,1196.094,0,0,0-122.9,9.074c-30.673,3.873-49.1,7.4-74.611,12.276-21.129,4.041-47.425,9.07-89.357,15.875C239.415,81.6,204.049,87.336,158.86,92.215,109.473,97.545,59.73,100.6,11.011,101.3" transform="translate(-10.981 -35)" fill="#5151f2"/>
            </g>
          </g>
        </g>
        <g id="Grupo_1446" data-name="Grupo 1446" transform="translate(9.271 51.318)" opacity="0.8">
          <g id="Grupo_1445" data-name="Grupo 1445">
            <g id="Grupo_1444" data-name="Grupo 1444" clip-path="url(#clip-path-6)">
              <path id="Trazado_2524" data-name="Trazado 2524" d="M12.009,105.546l-.024-1.817c53.531-1,108.173-4.059,162.406-9.08,46.615-4.316,80.193-8.891,109.819-12.927,6.366-.868,12.528-1.707,18.573-2.51,83-11.027,171.248-18.668,262.307-22.712l.059,1.815C474.127,62.358,385.914,70,302.957,81.017c-6.043.8-12.2,1.643-18.568,2.51-29.64,4.038-63.233,8.615-109.876,12.934-54.266,5.024-108.94,8.082-162.5,9.085" transform="translate(-11.984 -56.501)" fill="#5151f2"/>
            </g>
          </g>
        </g>
        <g id="Grupo_1449" data-name="Grupo 1449" transform="translate(18.174 68.119)" opacity="0.8">
          <g id="Grupo_1448" data-name="Grupo 1448">
            <g id="Grupo_1447" data-name="Grupo 1447" clip-path="url(#clip-path-7)">
              <path id="Trazado_2525" data-name="Trazado 2525" d="M23.5,125.863l-.012-1.817c34.434-.325,69.556-1.853,104.392-4.539,21.888-1.688,49.182-4.208,141.533-16.345,43.784-5.754,64.315-8.685,79.306-10.824,12.35-1.763,20.51-2.927,34.42-4.618A1821.768,1821.768,0,0,1,568.1,75l.024,1.817A1820.191,1820.191,0,0,0,383.3,89.528c-13.9,1.688-22.048,2.852-34.391,4.613-14.995,2.141-35.53,5.071-79.321,10.826-92.383,12.141-119.7,14.663-141.6,16.352-34.864,2.688-70.016,4.218-104.481,4.543" transform="translate(-23.492 -75)" fill="#00afff"/>
            </g>
          </g>
        </g>
        <g id="Grupo_1452" data-name="Grupo 1452" transform="translate(18.167 83.56)" opacity="0.8">
          <g id="Grupo_1451" data-name="Grupo 1451">
            <g id="Grupo_1450" data-name="Grupo 1450" clip-path="url(#clip-path-8)">
              <path id="Trazado_2526" data-name="Trazado 2526" d="M23.51,131.055l-.026-1.817c52.8-1.052,106.661-3.8,160.094-8.172,42.843-3.5,73.031-7.054,102.225-10.486,18.785-2.209,38.21-4.492,60.992-6.77C418.819,96.608,493.279,92.634,568.1,92l.01,1.817c-74.785.634-149.2,4.6-221.189,11.8-22.77,2.277-42.19,4.561-60.97,6.768-29.2,3.434-59.4,6.985-102.271,10.489C130.225,127.251,76.335,130,23.51,131.055" transform="translate(-23.483 -92)" fill="#00afff"/>
            </g>
          </g>
        </g>
        <g id="Grupo_1455" data-name="Grupo 1455" transform="translate(17.262 98.55)" opacity="0.8">
          <g id="Grupo_1454" data-name="Grupo 1454">
            <g id="Grupo_1453" data-name="Grupo 1453" clip-path="url(#clip-path-9)">
              <path id="Trazado_2527" data-name="Trazado 2527" d="M22.6,148.462l-.289-15.437c50.155-1.292,101.392-3.124,152.287-5.445,50.879-2.322,88.427-4.541,118.6-6.325,5.52-.326,10.82-.639,15.938-.937,82.991-4.839,170.75-8.814,260.842-11.814l.374,15.433c-90,3-177.664,6.968-260.563,11.8-5.115.3-10.413.612-15.928.937-30.2,1.786-67.793,4.008-118.748,6.332S72.832,147.169,22.6,148.462" transform="translate(-22.313 -108.504)" fill="#00afff"/>
            </g>
          </g>
        </g>
        <g id="Grupo_1458" data-name="Grupo 1458" transform="translate(18.169 130.789)" opacity="0.8">
          <g id="Grupo_1457" data-name="Grupo 1457">
            <g id="Grupo_1456" data-name="Grupo 1456" clip-path="url(#clip-path-10)">
              <path id="Trazado_2528" data-name="Trazado 2528" d="M23.508,153.991l-.021-1.817c97.493-1.573,196.139-3.1,293.194-4.541,83.7-1.242,171.71-2.5,254.514-3.633l.018,1.817c-82.8,1.134-170.813,2.391-254.513,3.633-97.055,1.44-195.7,2.968-293.193,4.541" transform="translate(-23.486 -144)" fill="#00afff"/>
            </g>
          </g>
        </g>
        <g id="Grupo_1461" data-name="Grupo 1461" transform="translate(18.158 148.046)" opacity="0.8">
          <g id="Grupo_1460" data-name="Grupo 1460">
            <g id="Grupo_1459" data-name="Grupo 1459" clip-path="url(#clip-path-11)">
              <path id="Trazado_2529" data-name="Trazado 2529" d="M23.515,174.807l-.043-3.633c97.494-1.573,196.139-3.1,293.195-4.541,83.7-1.242,171.711-2.5,254.515-3.633l.036,3.633c-82.8,1.134-170.813,2.391-254.512,3.633-97.055,1.44-195.7,2.968-293.192,4.541" transform="translate(-23.473 -163)" fill="#4ad3ac"/>
            </g>
          </g>
        </g>
        <g id="Grupo_1464" data-name="Grupo 1464" transform="translate(18.099 165.758)" opacity="0.8">
          <g id="Grupo_1463" data-name="Grupo 1463">
            <g id="Grupo_1462" data-name="Grupo 1462" clip-path="url(#clip-path-12)">
              <path id="Trazado_2530" data-name="Trazado 2530" d="M23.557,204.3,23.4,190.675c97.5-1.573,196.143-3.1,293.2-4.541,83.7-1.242,171.713-2.5,254.519-3.633l.135,13.622c-82.8,1.135-170.81,2.391-254.508,3.633-97.053,1.441-195.7,2.968-293.186,4.541" transform="translate(-23.396 -182.501)" fill="#ffd150"/>
            </g>
          </g>
        </g>
        <g id="Grupo_1467" data-name="Grupo 1467" transform="translate(18.173 188.119)" opacity="0.8">
          <g id="Grupo_1466" data-name="Grupo 1466">
            <g id="Grupo_1465" data-name="Grupo 1465" clip-path="url(#clip-path-13)">
              <path id="Trazado_2539" data-name="Trazado 2539" d="M.755,0,2.572,0,1.708,546.963l-1.817,0Z" transform="translate(-0.009 2.572) rotate(-89.48)" fill="#ffd150"/>
            </g>
          </g>
        </g>
        <g id="Grupo_1470" data-name="Grupo 1470" transform="translate(18.947 189.826)" opacity="0.8">
          <g id="Grupo_1469" data-name="Grupo 1469">
            <g id="Grupo_1468" data-name="Grupo 1468" clip-path="url(#clip-path-14)">
              <path id="Trazado_2531" data-name="Trazado 2531" d="M569.868,231.706c-36.085-.857-73.049-2.081-109.863-3.634-28.226-1.191-46.667-2.162-77.218-3.769-13.607-.717-29.524-1.555-49.657-2.589-65.272-3.349-98.027-5.029-129.958-6.358-58.385-2.429-118.5-3.955-178.679-4.54L24.5,209c60.192.585,120.322,2.113,178.722,4.542,31.936,1.329,64.7,3.008,129.958,6.357,20.147,1.035,36.065,1.873,49.672,2.589,30.546,1.608,48.984,2.579,77.205,3.769,36.806,1.552,73.761,2.775,109.838,3.632Z" transform="translate(-24.492 -209)" fill="#ffd150"/>
            </g>
          </g>
        </g>
        <g id="Grupo_1473" data-name="Grupo 1473" transform="translate(15.084 206.629)" opacity="0.8">
          <g id="Grupo_1472" data-name="Grupo 1472">
            <g id="Grupo_1471" data-name="Grupo 1471" clip-path="url(#clip-path-15)">
              <path id="Trazado_2532" data-name="Trazado 2532" d="M527.082,246.929c-39.049,0-78.465-.727-117.7-2.173-43.955-1.62-74.929-3.681-107.722-5.863-20.132-1.339-40.95-2.725-66.344-4.129-70.543-3.9-143.153-6.038-215.817-6.357l0-.908c72.675.319,145.3,2.458,215.851,6.359,25.4,1.4,46.218,2.789,66.351,4.129,32.787,2.182,63.757,4.242,107.7,5.861,55.07,2.031,110.5,2.644,164.759,1.817l.011.908q-23.417.356-47.092.356" transform="translate(-19.498 -227.5)" fill="#ffe0bb"/>
            </g>
          </g>
        </g>
        <g id="Grupo_1476" data-name="Grupo 1476" transform="translate(18.504 207.991)" opacity="0.8">
          <g id="Grupo_1475" data-name="Grupo 1475">
            <g id="Grupo_1474" data-name="Grupo 1474" clip-path="url(#clip-path-16)">
              <path id="Trazado_2533" data-name="Trazado 2533" d="M553.611,273.646c-39.33,0-79.05-1.268-118.391-3.785-27.3-1.747-42.965-3.351-64.645-5.573-19.6-2.007-43.991-4.506-86.3-8.059-39.9-3.35-85.134-7.147-142.943-9.979-39.089-1.915-78.591-3.134-117.408-3.627L24.044,229c38.937.494,78.559,1.718,117.766,3.639,57.982,2.84,103.3,6.645,143.287,10,42.4,3.559,66.847,6.064,86.486,8.076,21.57,2.21,37.155,3.806,64.267,5.539,46.7,2.99,93.946,4.209,140.417,3.624l.124,13.624q-11.361.142-22.781.142" transform="translate(-23.919 -229)" fill="#ffe0bb"/>
            </g>
          </g>
        </g>
        <g id="Grupo_1479" data-name="Grupo 1479" transform="translate(19.317 221.161)" opacity="0.8">
          <g id="Grupo_1478" data-name="Grupo 1478">
            <g id="Grupo_1477" data-name="Grupo 1477" clip-path="url(#clip-path-17)">
              <path id="Trazado_2534" data-name="Trazado 2534" d="M574.237,291.638c-47.887-.777-96.837-3.529-145.488-8.177-32.574-3.113-50.931-5.738-72.189-8.778-22.4-3.2-47.789-6.835-96.464-12.113-56.243-6.1-109.589-10.681-158.556-13.621-25.468-1.529-51.229-2.751-76.57-3.632l.046-1.817c25.352.882,51.125,2.1,76.6,3.634,48.989,2.942,102.355,7.527,158.619,13.627,48.7,5.28,74.1,8.913,96.509,12.119,21.24,3.037,39.584,5.661,72.127,8.77,48.617,4.645,97.531,7.4,145.384,8.172Z" transform="translate(-24.971 -243.5)" fill="#ffe0bb"/>
            </g>
          </g>
        </g>
        <g id="Grupo_1482" data-name="Grupo 1482" transform="translate(16.542 245.685)" opacity="0.8">
          <g id="Grupo_1481" data-name="Grupo 1481">
            <g id="Grupo_1480" data-name="Grupo 1480" clip-path="url(#clip-path-18)">
              <path id="Trazado_2535" data-name="Trazado 2535" d="M572.87,371.313A1081.561,1081.561,0,0,1,386.346,348.5c-19.974-4.272-32.247-7.5-47.784-11.592-18.41-4.846-41.322-10.876-86.874-21.117-75.4-16.949-111.334-22.608-144.879-26.247-28.408-3.08-57.15-4.9-85.427-5.421l.182-13.622c28.571.522,57.611,2.365,86.312,5.478,33.892,3.676,70.137,9.379,145.994,26.432,45.731,10.281,68.741,16.337,87.23,21.2,15.409,4.056,27.581,7.261,47.324,11.482a1071.74,1071.74,0,0,0,184.8,22.6Z" transform="translate(-21.383 -270.501)" fill="#f26330"/>
            </g>
          </g>
        </g>
        <g id="Grupo_1485" data-name="Grupo 1485" transform="translate(20.457 241.599)" opacity="0.8">
          <g id="Grupo_1484" data-name="Grupo 1484">
            <g id="Grupo_1483" data-name="Grupo 1483" clip-path="url(#clip-path-19)">
              <path id="Trazado_2536" data-name="Trazado 2536" d="M569.929,343.656c-20.277-.317-40.851-1.233-61.152-2.727-28.246-2.077-90.237-8.617-188.072-29.077-19.716-4.123-31.651-6.877-43.192-9.541-5.9-1.363-11.478-2.65-17.93-4.084-43.9-9.754-119.992-22.948-233.139-30.412L26.53,266c113.231,7.469,189.391,20.677,233.34,30.441,6.458,1.434,12.036,2.722,17.941,4.085,11.534,2.662,23.462,5.416,43.165,9.537,97.759,20.443,159.684,26.977,187.9,29.052,20.276,1.491,40.825,2.407,61.076,2.723Z" transform="translate(-26.444 -266.002)" fill="#f26330"/>
            </g>
          </g>
        </g>
        <g id="Grupo_1488" data-name="Grupo 1488" transform="translate(20.445 237.967)" opacity="0.8">
          <g id="Grupo_1487" data-name="Grupo 1487">
            <g id="Grupo_1486" data-name="Grupo 1486" clip-path="url(#clip-path-20)">
              <path id="Trazado_2537" data-name="Trazado 2537" d="M573.409,331.936c-40.981-.481-82.385-2.927-123.065-7.27-40.028-4.273-80.979-10.558-118.422-18.175-21.341-4.341-36.86-8.067-43.486-9.658l-1.4-.338c-46.666-11.156-131.909-21.845-260.6-32.681L26.539,262c130.55,10.991,213.422,21.386,260.8,32.714l1.406.337c6.62,1.589,22.123,5.311,43.441,9.648,37.4,7.608,78.31,13.887,118.3,18.155,40.638,4.338,82,6.782,122.939,7.262Z" transform="translate(-26.429 -262.003)" fill="#f26330"/>
            </g>
          </g>
        </g>
        <g id="Grupo_1491" data-name="Grupo 1491" transform="translate(21.151 233.881)" opacity="0.8">
          <g id="Grupo_1490" data-name="Grupo 1490">
            <g id="Grupo_1489" data-name="Grupo 1489" clip-path="url(#clip-path-21)">
              <path id="Trazado_2538" data-name="Trazado 2538" d="M557.04,313c-4.531,0-9.078-.031-13.61-.093-42.569-.579-76.832-3.774-121.626-9.093-37.044-4.4-57.553-7.346-77.385-10.2-20.576-2.955-40.01-5.747-75.778-9.786-25.3-2.857-43.536-4.609-71.143-7.263-55.255-5.311-112.5-10.2-170.157-14.529l.246-4.533c57.677,4.331,114.95,9.222,170.226,14.536,27.624,2.655,45.872,4.41,71.2,7.269,35.817,4.044,55.274,6.839,75.877,9.8,19.813,2.846,40.3,5.788,77.3,10.184,44.687,5.308,78.857,8.494,121.283,9.071,9.032.123,18.125.123,27.03,0l.046,4.541c-4.468.062-8.982.093-13.512.093" transform="translate(-27.341 -257.505)" fill="#f26330"/>
            </g>
          </g>
        </g>
      </g>
    </g>
    <rect id="Rectángulo_2705" data-name="Rectángulo 2705" width="23.982" height="12.715" transform="translate(0 88.556)" fill="#5151f2"/>
    <rect id="Rectángulo_2706" data-name="Rectángulo 2706" width="23.982" height="25.431" transform="translate(0.387 116.257)" fill="#00afff"/>
    <rect id="Rectángulo_2707" data-name="Rectángulo 2707" width="23.982" height="6.358" transform="translate(0.387 154.404)" fill="#4ad3ac"/>
    <rect id="Rectángulo_2708" data-name="Rectángulo 2708" width="23.982" height="19.073" transform="translate(0.387 173.477)" fill="#ffd150"/>
    <rect id="Rectángulo_2709" data-name="Rectángulo 2709" width="23.982" height="19.073" transform="translate(0.387 205.267)" fill="#ffe0bb"/>
    <rect id="Rectángulo_2710" data-name="Rectángulo 2710" width="23.982" height="26.34" transform="translate(0.387 233.423)" fill="#f26330"/>
    <rect id="Rectángulo_2711" data-name="Rectángulo 2711" width="23.982" height="2.726" transform="translate(562.018 -0.001)" fill="#5151f2"/>
    <rect id="Rectángulo_2712" data-name="Rectángulo 2712" width="23.982" height="2.726" transform="translate(562.018 15.439)" fill="#5151f2"/>
    <rect id="Rectángulo_2713" data-name="Rectángulo 2713" width="23.982" height="2.725" transform="translate(562.018 50.862)" fill="#5151f2"/>
    <rect id="Rectángulo_2714" data-name="Rectángulo 2714" width="23.982" height="2.725" transform="translate(562.018 68.119)" fill="#00afff"/>
    <rect id="Rectángulo_2715" data-name="Rectángulo 2715" width="23.982" height="2.725" transform="translate(562.018 82.652)" fill="#00afff"/>
    <rect id="Rectángulo_2716" data-name="Rectángulo 2716" width="23.982" height="2.726" transform="translate(562.018 130.788)" fill="#00afff"/>
    <rect id="Rectángulo_2717" data-name="Rectángulo 2717" width="23.982" height="5.45" transform="translate(562.018 147.138)" fill="#4ad3ac"/>
    <rect id="Rectángulo_2718" data-name="Rectángulo 2718" width="23.982" height="5.45" transform="translate(562.018 284.285)" fill="#f26330"/>
    <rect id="Rectángulo_2719" data-name="Rectángulo 2719" width="23.982" height="3.633" transform="translate(562.018 193.459)" fill="#ffd150"/>
    <rect id="Rectángulo_2720" data-name="Rectángulo 2720" width="23.982" height="3.633" transform="translate(562.018 209.808)" fill="#ffd150"/>
    <rect id="Rectángulo_2721" data-name="Rectángulo 2721" width="23.982" height="3.633" transform="translate(562.018 223.432)" fill="#ffe0bb"/>
    <rect id="Rectángulo_2722" data-name="Rectángulo 2722" width="23.982" height="3.633" transform="translate(562.018 266.12)" fill="#ffe0bb"/>
    <rect id="Rectángulo_2723" data-name="Rectángulo 2723" width="23.982" height="3.633" transform="translate(562.018 304.267)" fill="#f26330"/>
    <rect id="Rectángulo_2724" data-name="Rectángulo 2724" width="23.982" height="3.634" transform="translate(562.018 316.981)" fill="#f26330"/>
    <rect id="Rectángulo_2725" data-name="Rectángulo 2725" width="23.982" height="15.439" transform="translate(562.018 164.396)" fill="#ffd150"/>
    <rect id="Rectángulo_2726" data-name="Rectángulo 2726" width="23.982" height="15.44" transform="translate(562.018 332.423)" fill="#f26330"/>
    <rect id="Rectángulo_2727" data-name="Rectángulo 2727" width="23.982" height="15.439" transform="translate(562.018 237.965)" fill="#ffe0bb"/>
    <rect id="Rectángulo_2728" data-name="Rectángulo 2728" width="23.982" height="16.349" transform="translate(562.018 98.092)" fill="#00afff"/>
    <rect id="Rectángulo_2729" data-name="Rectángulo 2729" width="23.982" height="5.45" transform="translate(562.018 30.881)" fill="#5151f2"/>
  </g>
</svg>
