<svg xmlns="http://www.w3.org/2000/svg" width="30" height="30" viewBox="0 0 30 30">
  <g id="Icon_feather-search" data-name="Icon feather-search" transform="translate(-3 -3)">
    <path id="Trazado_3063" data-name="Trazado 3063" d="M16.5,3a13.5,13.5,0,0,1,9.546,23.046A13.5,13.5,0,1,1,6.954,6.954,13.412,13.412,0,0,1,16.5,3Zm0,24A10.5,10.5,0,1,0,6,16.5,10.512,10.512,0,0,0,16.5,27Z"/>
    <path id="Trazado_3064" data-name="Trazado 3064" d="M31.5,33a1.5,1.5,0,0,1-1.061-.439l-6.525-6.525a1.5,1.5,0,0,1,2.121-2.121l6.525,6.525A1.5,1.5,0,0,1,31.5,33Z"/>
  </g>
</svg>
