<svg xmlns="http://www.w3.org/2000/svg" xmlns:xlink="http://www.w3.org/1999/xlink" width="226.821" height="60.223" viewBox="0 0 226.821 60.223">
  <defs>
    <clipPath id="clip-path">
      <rect id="Rectángulo_2380" data-name="Rectángulo 2380" width="226.821" height="60.223" transform="translate(0 0)" fill="none"/>
    </clipPath>
  </defs>
  <g id="Grupo_1370" data-name="Grupo 1370" transform="translate(0 0)">
    <g id="Grupo_1369" data-name="Grupo 1369" clip-path="url(#clip-path)">
      <path id="Trazado_2476" data-name="Trazado 2476" d="M151.74,26.276a2.8,2.8,0,0,1-2.1.8H147.2a.142.142,0,0,1-.16-.16V16.036a.142.142,0,0,1,.16-.16h2.3a2.976,2.976,0,0,1,2.16.76,2.883,2.883,0,0,1,.784,2.168,2.476,2.476,0,0,1-1.328,2.448c-.022.011-.032.021-.032.032a.043.043,0,0,0,.016.032,2.894,2.894,0,0,1,1.408,2.72,3.019,3.019,0,0,1-.768,2.24m-3.568-9.343v3.855a.057.057,0,0,0,.064.065H149.5a1.751,1.751,0,0,0,1.344-.513,2.028,2.028,0,0,0,.48-1.44,2.17,2.17,0,0,0-.48-1.5,1.712,1.712,0,0,0-1.344-.536h-1.264a.057.057,0,0,0-.064.065m2.72,8.567a2.393,2.393,0,0,0,.479-1.592,2.455,2.455,0,0,0-.479-1.616,1.635,1.635,0,0,0-1.328-.576h-1.328a.056.056,0,0,0-.064.064V26a.056.056,0,0,0,.064.064h1.328a1.645,1.645,0,0,0,1.328-.568" fill="#fff"/>
      <path id="Trazado_2477" data-name="Trazado 2477" d="M154.083,17.252a.893.893,0,0,1,.649-1.536.858.858,0,0,1,.631.248.96.96,0,0,1,0,1.288.841.841,0,0,1-.631.256.862.862,0,0,1-.649-.256m.088,9.664V19.141a.142.142,0,0,1,.16-.161h.817a.142.142,0,0,1,.16.161v7.775a.142.142,0,0,1-.16.16h-.817a.142.142,0,0,1-.16-.16" fill="#fff"/>
      <path id="Trazado_2478" data-name="Trazado 2478" d="M157.876,26.532a2.387,2.387,0,0,1-.68-1.776v-3.44a2.407,2.407,0,0,1,.688-1.776,2.783,2.783,0,0,1,3.664,0,2.4,2.4,0,0,1,.688,1.776v3.44a2.369,2.369,0,0,1-.688,1.776,2.517,2.517,0,0,1-1.84.672,2.492,2.492,0,0,1-1.832-.672m2.832-.752a1.542,1.542,0,0,0,.393-1.1v-3.3a1.572,1.572,0,0,0-.393-1.112,1.3,1.3,0,0,0-1-.425,1.279,1.279,0,0,0-.992.425,1.6,1.6,0,0,0-.384,1.112v3.3a1.564,1.564,0,0,0,.384,1.1,1.292,1.292,0,0,0,.992.416,1.316,1.316,0,0,0,1-.416" fill="#fff"/>
      <path id="Trazado_2479" data-name="Trazado 2479" d="M167.851,15.876h.817a.142.142,0,0,1,.16.16v10.88a.142.142,0,0,1-.16.16h-.817a.142.142,0,0,1-.16-.16v-.352a.053.053,0,0,0-.023-.047c-.016-.011-.036-.006-.056.015a1.984,1.984,0,0,1-1.536.672,2.081,2.081,0,0,1-1.632-.68,2.549,2.549,0,0,1-.608-1.768V21.3a2.534,2.534,0,0,1,.608-1.783,2.1,2.1,0,0,1,1.632-.665,1.936,1.936,0,0,1,1.536.688c.02.021.04.027.056.017a.058.058,0,0,0,.023-.049V16.036a.142.142,0,0,1,.16-.16m-.536,9.912a1.586,1.586,0,0,0,.376-1.1V21.38a1.614,1.614,0,0,0-.376-1.112,1.232,1.232,0,0,0-.968-.424,1.3,1.3,0,0,0-1,.424,1.576,1.576,0,0,0-.391,1.112v3.312a1.549,1.549,0,0,0,.391,1.1,1.3,1.3,0,0,0,1,.424,1.232,1.232,0,0,0,.968-.424" fill="#fff"/>
      <path id="Trazado_2480" data-name="Trazado 2480" d="M170.82,17.252a.893.893,0,0,1,.648-1.536.856.856,0,0,1,.631.248.96.96,0,0,1,0,1.288.84.84,0,0,1-.631.256.859.859,0,0,1-.648-.256m.088,9.664V19.141a.141.141,0,0,1,.16-.161h.816a.142.142,0,0,1,.16.161v7.775a.142.142,0,0,1-.16.16h-.816a.142.142,0,0,1-.16-.16" fill="#fff"/>
      <path id="Trazado_2481" data-name="Trazado 2481" d="M175.515,26.932l-1.984-7.776-.016-.065q0-.111.144-.111h.928a.164.164,0,0,1,.176.143l1.376,6.065c.011.031.022.048.032.048s.021-.017.031-.048l1.361-6.065a.164.164,0,0,1,.176-.143l.928.015a.145.145,0,0,1,.119.048.118.118,0,0,1,.009.128l-1.968,7.761a.153.153,0,0,1-.176.144h-.96a.164.164,0,0,1-.176-.144" fill="#fff"/>
      <path id="Trazado_2482" data-name="Trazado 2482" d="M184.731,23.459h-3.648a.057.057,0,0,0-.064.065v1.168a1.589,1.589,0,0,0,.376,1.1,1.252,1.252,0,0,0,.984.423,1.286,1.286,0,0,0,.872-.311,1.456,1.456,0,0,0,.472-.809.18.18,0,0,1,.176-.143l.8.032a.152.152,0,0,1,.111.048.132.132,0,0,1,.032.128,2.291,2.291,0,0,1-.776,1.5,2.512,2.512,0,0,1-1.688.552,2.471,2.471,0,0,1-1.816-.672,2.389,2.389,0,0,1-.68-1.777V21.3a2.392,2.392,0,0,1,.68-1.767,2.786,2.786,0,0,1,3.648,0,2.388,2.388,0,0,1,.68,1.767v2a.141.141,0,0,1-.16.16M181.4,20.268a1.61,1.61,0,0,0-.376,1.111v1.073a.057.057,0,0,0,.064.064h2.625a.056.056,0,0,0,.063-.064V21.379a1.59,1.59,0,0,0-.384-1.111,1.3,1.3,0,0,0-1.008-.425,1.253,1.253,0,0,0-.984.425" fill="#fff"/>
      <path id="Trazado_2483" data-name="Trazado 2483" d="M190,19.076a.172.172,0,0,1,.08.208l-.192.832q-.017.144-.192.1a1.072,1.072,0,0,0-.48-.1.9.9,0,0,0-.193.016,1.175,1.175,0,0,0-.943.6,2.487,2.487,0,0,0-.368,1.384v4.8a.142.142,0,0,1-.16.16h-.816a.142.142,0,0,1-.16-.16V19.14a.141.141,0,0,1,.16-.16h.816a.142.142,0,0,1,.16.16v.96q0,.048.024.048a.084.084,0,0,0,.056-.032,1.594,1.594,0,0,1,1.52-1.216,1.3,1.3,0,0,1,.688.176" fill="#fff"/>
      <path id="Trazado_2484" data-name="Trazado 2484" d="M191.587,26.588a1.89,1.89,0,0,1-.664-1.512v-.112a.142.142,0,0,1,.16-.16h.768a.142.142,0,0,1,.16.16v.1a1.135,1.135,0,0,0,.376.863,1.381,1.381,0,0,0,.984.352,1.252,1.252,0,0,0,.928-.352,1.214,1.214,0,0,0,.351-.9,1.081,1.081,0,0,0-.223-.7,1.693,1.693,0,0,0-.52-.439q-.3-.161-.888-.416a7.561,7.561,0,0,1-1.032-.5,2.24,2.24,0,0,1-.7-.7,2.4,2.4,0,0,1,.336-2.777,2.758,2.758,0,0,1,3.432.016,2.125,2.125,0,0,1,.64,1.616v.048a.141.141,0,0,1-.16.16h-.736a.142.142,0,0,1-.16-.16v-.1a1.2,1.2,0,0,0-.36-.9,1.281,1.281,0,0,0-.936-.352,1.211,1.211,0,0,0-.92.361,1.235,1.235,0,0,0-.344.887,1.023,1.023,0,0,0,.208.649,1.661,1.661,0,0,0,.512.431c.2.113.485.248.848.409a9.331,9.331,0,0,1,1.08.544,2.449,2.449,0,0,1,.744.719,1.988,1.988,0,0,1,.32,1.153,2.031,2.031,0,0,1-.656,1.584,2.555,2.555,0,0,1-1.776.591,2.624,2.624,0,0,1-1.768-.568" fill="#fff"/>
      <path id="Trazado_2485" data-name="Trazado 2485" d="M197.267,17.252a.893.893,0,0,1,.649-1.536.858.858,0,0,1,.631.248.96.96,0,0,1,0,1.288.841.841,0,0,1-.631.256.862.862,0,0,1-.649-.256m.088,9.664V19.141a.142.142,0,0,1,.16-.161h.817a.142.142,0,0,1,.16.161v7.775a.142.142,0,0,1-.16.16h-.817a.142.142,0,0,1-.16-.16" fill="#fff"/>
      <path id="Trazado_2486" data-name="Trazado 2486" d="M204.4,15.876h.817a.142.142,0,0,1,.16.16v10.88a.142.142,0,0,1-.16.16H204.4a.142.142,0,0,1-.16-.16v-.352a.053.053,0,0,0-.023-.047c-.016-.011-.036-.006-.056.015a1.984,1.984,0,0,1-1.536.672,2.081,2.081,0,0,1-1.632-.68,2.549,2.549,0,0,1-.608-1.768V21.3a2.534,2.534,0,0,1,.608-1.783,2.1,2.1,0,0,1,1.632-.665,1.936,1.936,0,0,1,1.536.688c.02.021.04.027.056.017a.058.058,0,0,0,.023-.049V16.036a.142.142,0,0,1,.16-.16m-.536,9.912a1.586,1.586,0,0,0,.376-1.1V21.38a1.614,1.614,0,0,0-.376-1.112,1.232,1.232,0,0,0-.968-.424,1.3,1.3,0,0,0-1,.424,1.576,1.576,0,0,0-.391,1.112v3.312a1.549,1.549,0,0,0,.391,1.1,1.3,1.3,0,0,0,1,.424,1.232,1.232,0,0,0,.968-.424" fill="#fff"/>
      <path id="Trazado_2487" data-name="Trazado 2487" d="M211.483,19.58a2.749,2.749,0,0,1,.672,1.944v5.392a.142.142,0,0,1-.16.16h-.815a.142.142,0,0,1-.161-.16v-.48c0-.021-.007-.035-.024-.04s-.034,0-.056.024a2.082,2.082,0,0,1-1.776.784,2.412,2.412,0,0,1-1.527-.5,2.135,2.135,0,0,1-.649-1.784,2.411,2.411,0,0,1,.784-1.992,3.19,3.19,0,0,1,2.064-.632h1.12a.057.057,0,0,0,.064-.064V21.6a2.053,2.053,0,0,0-.368-1.28,1.185,1.185,0,0,0-.992-.48,1.17,1.17,0,0,0-.824.32,1.3,1.3,0,0,0-.407.816.142.142,0,0,1-.16.161l-.9-.017a.148.148,0,0,1-.12-.048.124.124,0,0,1-.024-.112,2.163,2.163,0,0,1,.768-1.528,2.533,2.533,0,0,1,1.7-.584,2.324,2.324,0,0,1,1.792.728m-.944,6.208a1.487,1.487,0,0,0,.48-1.176V23.268a.056.056,0,0,0-.064-.064h-1.136a1.74,1.74,0,0,0-1.216.408,1.555,1.555,0,0,0-.448,1.208,1.421,1.421,0,0,0,.344,1.048,1.22,1.22,0,0,0,.9.344,1.655,1.655,0,0,0,1.136-.424" fill="#fff"/>
      <path id="Trazado_2488" data-name="Trazado 2488" d="M217.771,15.876h.816a.142.142,0,0,1,.16.16v10.88a.142.142,0,0,1-.16.16h-.816a.142.142,0,0,1-.16-.16v-.352a.052.052,0,0,0-.024-.047c-.016-.011-.035-.006-.056.015a1.981,1.981,0,0,1-1.536.672,2.081,2.081,0,0,1-1.632-.68,2.554,2.554,0,0,1-.608-1.768V21.3a2.538,2.538,0,0,1,.608-1.783,2.1,2.1,0,0,1,1.632-.665,1.933,1.933,0,0,1,1.536.688c.021.021.04.027.056.017a.056.056,0,0,0,.024-.049V16.036a.142.142,0,0,1,.16-.16m-.536,9.912a1.591,1.591,0,0,0,.376-1.1V21.38a1.619,1.619,0,0,0-.376-1.112,1.234,1.234,0,0,0-.968-.424,1.3,1.3,0,0,0-1,.424,1.576,1.576,0,0,0-.392,1.112v3.312a1.549,1.549,0,0,0,.392,1.1,1.3,1.3,0,0,0,1,.424,1.234,1.234,0,0,0,.968-.424" fill="#fff"/>
      <path id="Trazado_2489" data-name="Trazado 2489" d="M155.985,44.447a.3.3,0,0,1-.22.091h-5.747a.115.115,0,0,0-.129.13v1.17a1.973,1.973,0,0,0,.441,1.326,1.433,1.433,0,0,0,1.145.52,1.506,1.506,0,0,0,1.027-.377,1.754,1.754,0,0,0,.558-.975.327.327,0,0,1,.338-.26l2.315.1a.305.305,0,0,1,.221.091.267.267,0,0,1,.064.247,4.034,4.034,0,0,1-1.325,2.795,5.653,5.653,0,0,1-6.566-.156,3.972,3.972,0,0,1-1.235-3.081V40.794a3.993,3.993,0,0,1,1.235-3.055,5.479,5.479,0,0,1,6.735,0,3.992,3.992,0,0,1,1.234,3.055v3.432a.3.3,0,0,1-.091.221M150.33,39.7a1.975,1.975,0,0,0-.441,1.326V42.2a.114.114,0,0,0,.129.13h2.938a.115.115,0,0,0,.131-.13v-1.17a1.963,1.963,0,0,0-.443-1.339,1.473,1.473,0,0,0-1.169-.507,1.433,1.433,0,0,0-1.145.52" fill="#fff"/>
      <path id="Trazado_2490" data-name="Trazado 2490" d="M166.411,37.713a5.166,5.166,0,0,1,.871,3.211v8.841a.3.3,0,0,1-.091.22.3.3,0,0,1-.221.091h-2.392a.3.3,0,0,1-.221-.091.3.3,0,0,1-.091-.22V41.158a2.385,2.385,0,0,0-.39-1.456,1.315,1.315,0,0,0-1.118-.519,1.382,1.382,0,0,0-1.17.546,2.427,2.427,0,0,0-.416,1.507v8.529a.311.311,0,0,1-.312.311h-2.392a.311.311,0,0,1-.312-.311V37.1a.3.3,0,0,1,.091-.222.3.3,0,0,1,.221-.091h2.392a.3.3,0,0,1,.221.091.306.306,0,0,1,.091.222v.519c0,.052.021.083.065.091s.091-.021.143-.091a3.068,3.068,0,0,1,2.47-1.04,3.035,3.035,0,0,1,2.561,1.131" fill="#fff"/>
      <path id="Trazado_2491" data-name="Trazado 2491" d="M175.8,49.141a4.016,4.016,0,0,1-1.235-3.095V40.794A3.989,3.989,0,0,1,175.8,37.74a4.724,4.724,0,0,1,3.367-1.158,4.844,4.844,0,0,1,3.38,1.13,3.711,3.711,0,0,1,1.248,2.874v.365a.311.311,0,0,1-.312.311l-2.392.1a.276.276,0,0,1-.312-.313v-.26a1.6,1.6,0,0,0-.455-1.131,1.525,1.525,0,0,0-1.157-.48,1.431,1.431,0,0,0-1.144.52,1.973,1.973,0,0,0-.442,1.325v4.81a1.972,1.972,0,0,0,.442,1.326,1.432,1.432,0,0,0,1.144.521,1.522,1.522,0,0,0,1.157-.481,1.627,1.627,0,0,0,.455-1.158v-.26a.311.311,0,0,1,.312-.311l2.392.025a.311.311,0,0,1,.312.313v.468a3.684,3.684,0,0,1-1.248,2.9,4.915,4.915,0,0,1-3.38,1.106,4.758,4.758,0,0,1-3.367-1.144" fill="#fff"/>
      <path id="Trazado_2492" data-name="Trazado 2492" d="M186,34.45a1.846,1.846,0,0,1,1.327-3.172,1.754,1.754,0,0,1,1.313.52,1.822,1.822,0,0,1,.507,1.326,1.8,1.8,0,0,1-.521,1.326,1.76,1.76,0,0,1-1.3.519A1.8,1.8,0,0,1,186,34.45m-.064,15.535a.3.3,0,0,1-.092-.221V37.1a.312.312,0,0,1,.313-.312h2.391a.3.3,0,0,1,.222.091.3.3,0,0,1,.091.221V49.764a.3.3,0,0,1-.091.221.3.3,0,0,1-.222.091h-2.391a.3.3,0,0,1-.221-.091" fill="#fff"/>
      <path id="Trazado_2493" data-name="Trazado 2493" d="M196.934,36.881a.3.3,0,0,1,.092.222v1.533a.311.311,0,0,1-.313.312H195.1a.115.115,0,0,0-.13.13V49.765a.311.311,0,0,1-.311.311h-2.367a.3.3,0,0,1-.22-.091.292.292,0,0,1-.091-.22V39.078a.115.115,0,0,0-.131-.13h-.832a.3.3,0,0,1-.221-.09.306.306,0,0,1-.091-.222V37.1a.307.307,0,0,1,.091-.222.3.3,0,0,1,.221-.091h.832a.115.115,0,0,0,.131-.13v-.65a4.289,4.289,0,0,1,1.065-3.3,4.917,4.917,0,0,1,3.407-.935h.208a.309.309,0,0,1,.311.311l-.052,1.769a.311.311,0,0,1-.311.311h-.13a1.41,1.41,0,0,0-1.145.507,2.429,2.429,0,0,0-.364,1.47v.519a.115.115,0,0,0,.13.13h1.612a.3.3,0,0,1,.221.091" fill="#fff"/>
      <path id="Trazado_2494" data-name="Trazado 2494" d="M205.423,36.894a.341.341,0,0,1,.155.39l-.416,2.418q-.025.312-.363.181a2.528,2.528,0,0,0-.677-.1,1.976,1.976,0,0,0-.571.078,1.656,1.656,0,0,0-1.184.818,3.121,3.121,0,0,0-.455,1.7v7.359a.311.311,0,0,1-.311.311h-2.393a.309.309,0,0,1-.311-.311V37.1a.306.306,0,0,1,.09-.222.3.3,0,0,1,.221-.09H201.6a.3.3,0,0,1,.22.09.3.3,0,0,1,.091.222V38.3c0,.07.018.109.053.118s.061-.022.077-.091a2.38,2.38,0,0,1,2.288-1.691,1.954,1.954,0,0,1,1.093.261" fill="#fff"/>
      <path id="Trazado_2495" data-name="Trazado 2495" d="M214.783,37.778a4.115,4.115,0,0,1,1.274,3.146v8.841a.3.3,0,0,1-.091.22.3.3,0,0,1-.221.091h-2.392a.3.3,0,0,1-.221-.091.3.3,0,0,1-.09-.22v-.494a.106.106,0,0,0-.053-.1c-.034-.017-.069,0-.1.052a3.294,3.294,0,0,1-2.652,1.066,4.251,4.251,0,0,1-2.613-.844,3.629,3.629,0,0,1-1.131-3.082,3.833,3.833,0,0,1,1.365-3.328,6.207,6.207,0,0,1,3.705-.988h1.352a.115.115,0,0,0,.131-.13v-.676a2.255,2.255,0,0,0-.469-1.495,1.461,1.461,0,0,0-1.17-.558,1.26,1.26,0,0,0-.91.35,1.557,1.557,0,0,0-.442.949.3.3,0,0,1-.337.312h-2.523a.252.252,0,0,1-.286-.312,3.929,3.929,0,0,1,1.392-2.834,4.723,4.723,0,0,1,3.159-1.066,4.666,4.666,0,0,1,3.327,1.2m-2.34,9.516a1.69,1.69,0,0,0,.6-1.378V44.435a.116.116,0,0,0-.131-.131h-1.352a2.082,2.082,0,0,0-1.429.481,1.752,1.752,0,0,0-.546,1.391A1.6,1.6,0,0,0,210,47.385a1.462,1.462,0,0,0,1.065.4,2.094,2.094,0,0,0,1.378-.494" fill="#fff"/>
      <path id="Trazado_2496" data-name="Trazado 2496" d="M219.021,49.244a3.26,3.26,0,0,1-1.223-2.678v-.182a.312.312,0,0,1,.313-.312h2.236a.311.311,0,0,1,.312.312v.131a1.317,1.317,0,0,0,.481,1.039,1.741,1.741,0,0,0,1.183.416,1.443,1.443,0,0,0,1.066-.39,1.338,1.338,0,0,0,.39-.988,1.209,1.209,0,0,0-.338-.871,2.448,2.448,0,0,0-.729-.533q-.389-.181-1.4-.6a7.47,7.47,0,0,1-2.432-1.456,3.418,3.418,0,0,1-.948-2.626,3.611,3.611,0,0,1,1.156-2.847,5.306,5.306,0,0,1,6.345.052,3.734,3.734,0,0,1,1.183,2.9.3.3,0,0,1-.091.221.3.3,0,0,1-.221.091h-2.184a.3.3,0,0,1-.221-.091.3.3,0,0,1-.091-.221v-.156a1.386,1.386,0,0,0-.43-1.04A1.488,1.488,0,0,0,222.3,39a1.409,1.409,0,0,0-1.078.429,1.446,1.446,0,0,0-.4,1.027,1.18,1.18,0,0,0,.311.832,2.424,2.424,0,0,0,.7.533q.389.2,1.3.585a14.66,14.66,0,0,1,1.833.871,4.13,4.13,0,0,1,1.3,1.222,3.327,3.327,0,0,1,.559,1.963,3.39,3.39,0,0,1-1.222,2.756,5.9,5.9,0,0,1-6.578.026" fill="#fff"/>
      <path id="Trazado_2497" data-name="Trazado 2497" d="M1.38,22.666A77.835,77.835,0,0,0,22.9,58.831,74.384,74.384,0,0,0,55.533,41.294a5.066,5.066,0,0,1-.561-.545,9.333,9.333,0,0,0-5.635-2.519c-3.958-.268-9.111,5.626-9.111,5.626a16.5,16.5,0,1,1,2.2-17.814s3.578,7.413,7.44,8.123a9.682,9.682,0,0,0,6.172-1.1,5.042,5.042,0,0,1,1.278-.6,78.249,78.249,0,0,0-19-31.079A81.612,81.612,0,0,0,1.38,22.666M39.845,9.088a3.978,3.978,0,1,1-3.98-3.976h0A3.978,3.978,0,0,1,39.844,9.09" fill="#fff"/>
      <path id="Trazado_2498" data-name="Trazado 2498" d="M54.213,18.709q.7,2.6,1.239,5.259Q57,27.39,58.188,30.931q1.117-2.552,2.02-5.163a69.442,69.442,0,0,0-5.995-7.059" fill="#fff"/>
      <path id="Trazado_2499" data-name="Trazado 2499" d="M31.084,2.273Q28.433,1.03,25.723,0a77.553,77.553,0,0,0-7.129,6.367q3-.84,6.061-1.463,3.167-1.455,6.429-2.632" fill="#fff"/>
      <path id="Trazado_2500" data-name="Trazado 2500" d="M29.841,58.155Q32.5,59.3,35.218,60.222a71.093,71.093,0,0,0,7.425-6.51q-2.639.795-5.338,1.4a74.9,74.9,0,0,1-7.464,3.042" fill="#fff"/>
      <path id="Trazado_2501" data-name="Trazado 2501" d="M2.3,29.791Q1.037,32.52,0,35.312a78.346,78.346,0,0,0,6.827,7.433q-.939-3.027-1.638-6.13-1.6-3.35-2.889-6.824" fill="#fff"/>
      <path id="Trazado_2502" data-name="Trazado 2502" d="M13.511,55.333q2.195.222,4.417.3A77.48,77.48,0,0,1,7.9,41.773a72.262,72.262,0,0,0,5.607,13.56" fill="#fff"/>
      <path id="Trazado_2503" data-name="Trazado 2503" d="M55.274,47.162q.236-2.062.344-4.151a75.518,75.518,0,0,1-13.036,9.377,71.508,71.508,0,0,0,12.692-5.226" fill="#fff"/>
      <path id="Trazado_2504" data-name="Trazado 2504" d="M4.717,13.1q-.176,2.409-.2,4.851A83.3,83.3,0,0,1,19.652,7.429,79.932,79.932,0,0,0,4.714,13.1" fill="#fff"/>
      <path id="Trazado_2505" data-name="Trazado 2505" d="M47.609,4.8q-2.27-.19-4.569-.243a80.753,80.753,0,0,1,9.881,14.3A78.819,78.819,0,0,0,47.609,4.8" fill="#fff"/>
      <path id="Trazado_2506" data-name="Trazado 2506" d="M19.391,34.018a8.238,8.238,0,1,1,8.966,7.438h-.005a8.24,8.24,0,0,1-8.962-7.439" fill="#fff"/>
      <path id="Trazado_2507" data-name="Trazado 2507" d="M56.279,37.6a2.565,2.565,0,1,1,2.793,2.318A2.565,2.565,0,0,1,56.279,37.6v0" fill="#fff"/>
      <path id="Trazado_2508" data-name="Trazado 2508" d="M33.877,9.087a1.99,1.99,0,1,1,1.991,1.989,1.99,1.99,0,0,1-1.991-1.989" fill="#fff"/>
      <path id="Trazado_2509" data-name="Trazado 2509" d="M75.716,22.093c-4.283-1.959-6.015-3.1-6.015-5.6,0-1.959,1.6-3.872,5.148-3.872a13.5,13.5,0,0,1,6.242,1.5L82.5,8.608a16.968,16.968,0,0,0-7.518-1.595c-7.563,0-12.073,4.42-12.073,10.159,0,4.556,3.281,7.836,8.564,10.114,3.874,1.686,5.559,3.189,5.559,5.695,0,2.6-1.96,4.374-5.695,4.374A15.718,15.718,0,0,1,63.778,35.4l-.008.039A5.126,5.126,0,0,1,62.56,41.1,18.99,18.99,0,0,0,71.069,43c8.154,0,12.756-4.465,12.756-10.569,0-4.6-2.506-7.836-8.109-10.342" fill="#fff"/>
      <path id="Trazado_2510" data-name="Trazado 2510" d="M89.658,6.648a3.6,3.6,0,1,0,3.645,3.6,3.469,3.469,0,0,0-3.331-3.6c-.1,0-.209,0-.314,0" fill="#fff"/>
      <rect id="Rectángulo_2376" data-name="Rectángulo 2376" width="6.743" height="25.376" transform="translate(86.329 17.172)" fill="#fff"/>
      <path id="Trazado_2511" data-name="Trazado 2511" d="M113.571,23.825v-.182a8.014,8.014,0,0,0,5.6-7.563,7.748,7.748,0,0,0-3.416-6.6c-2.414-1.686-5.421-2.233-9.658-2.233a50.014,50.014,0,0,0-8.885.729V42.412a55.247,55.247,0,0,0,7.473.456c6.24,0,10.158-1.139,12.527-3.28a9.631,9.631,0,0,0,3.189-7.2,8.638,8.638,0,0,0-6.834-8.565M103.914,12.48a13.932,13.932,0,0,1,2.961-.227c3.007,0,5.6,1.139,5.6,4.6,0,2.87-2.278,4.92-6.1,4.92h-2.46ZM106.6,37.81a13.984,13.984,0,0,1-2.688-.182V26.694h2.5c3.464,0,6.927,1.458,6.927,5.513,0,3.963-3.1,5.6-6.743,5.6" fill="#fff"/>
      <path id="Trazado_2512" data-name="Trazado 2512" d="M70.679,47.535a2.642,2.642,0,0,0-2.361,1.57,8.978,8.978,0,0,0-.876,4.347,10.9,10.9,0,0,0,.4,3.147A4.636,4.636,0,0,0,69,58.658a2.463,2.463,0,0,0,1.752.72,3.9,3.9,0,0,0,1.763-.369v.81a3.67,3.67,0,0,1-1.843.4,3.255,3.255,0,0,1-2.189-.81,5.153,5.153,0,0,1-1.452-2.343,11.515,11.515,0,0,1-.5-3.632,9.334,9.334,0,0,1,1.119-4.946,3.443,3.443,0,0,1,3.053-1.8,3.915,3.915,0,0,1,2.1.557l-.4.773a3.108,3.108,0,0,0-1.718-.485" fill="#fff"/>
      <path id="Trazado_2513" data-name="Trazado 2513" d="M79.35,55.142a7.464,7.464,0,0,1-.778,3.772,2.451,2.451,0,0,1-2.225,1.308,2.4,2.4,0,0,1-2.189-1.308,7.613,7.613,0,0,1-.76-3.772q0-5.044,2.985-5.044a2.425,2.425,0,0,1,2.186,1.322,7.351,7.351,0,0,1,.781,3.722m-5.061,0a7.828,7.828,0,0,0,.5,3.192,1.653,1.653,0,0,0,1.573,1.079q2.1,0,2.1-4.271,0-4.234-2.1-4.235a1.646,1.646,0,0,0-1.586,1.061,7.912,7.912,0,0,0-.49,3.174" fill="#fff"/>
      <rect id="Rectángulo_2377" data-name="Rectángulo 2377" width="0.854" height="13.991" transform="translate(80.957 46.052)" fill="#fff"/>
      <path id="Trazado_2514" data-name="Trazado 2514" d="M89.395,55.142a7.441,7.441,0,0,1-.779,3.772,2.452,2.452,0,0,1-2.224,1.308A2.4,2.4,0,0,1,84.2,58.914a7.6,7.6,0,0,1-.761-3.772q0-5.044,2.986-5.044a2.424,2.424,0,0,1,2.185,1.322,7.35,7.35,0,0,1,.783,3.722m-5.063,0a7.828,7.828,0,0,0,.5,3.192,1.653,1.653,0,0,0,1.574,1.079q2.1,0,2.1-4.271,0-4.234-2.1-4.235a1.646,1.646,0,0,0-1.586,1.061,7.894,7.894,0,0,0-.49,3.174" fill="#fff"/>
      <path id="Trazado_2515" data-name="Trazado 2515" d="M99.276,60.042V53.4q0-2.456-1.438-2.455a1.482,1.482,0,0,0-1.425.86,5.759,5.759,0,0,0-.437,2.531v5.709h-.845V53.4a3.784,3.784,0,0,0-.35-1.848,1.168,1.168,0,0,0-1.088-.607,1.476,1.476,0,0,0-1.412.881,6.836,6.836,0,0,0-.44,2.859v5.36h-.854v-9.76h.72l.07,1.358h.083A2.053,2.053,0,0,1,93.847,50.1a1.809,1.809,0,0,1,1.277.433,2.488,2.488,0,0,1,.674,1.258,2.939,2.939,0,0,1,.864-1.295,2.112,2.112,0,0,1,1.33-.4,1.75,1.75,0,0,1,1.618.85,5.464,5.464,0,0,1,.514,2.72v6.375Z" fill="#fff"/>
      <path id="Trazado_2516" data-name="Trazado 2516" d="M105.083,50.116q2.86,0,2.861,5.027a8.048,8.048,0,0,1-.711,3.78A2.279,2.279,0,0,1,104.2,60a2.236,2.236,0,0,1-.29-.165,2.884,2.884,0,0,1-.952-1.142h-.072l-.118,1.349h-.7V46.052h.853v4.34l-.035,1.178h.072a2.355,2.355,0,0,1,2.129-1.457m-.035.792a1.7,1.7,0,0,0-1.628.989,7.635,7.635,0,0,0-.5,3.246v.225q0,4.081,2.166,4.082a1.576,1.576,0,0,0,1.48-1.051,8.145,8.145,0,0,0,.49-3.255,8.112,8.112,0,0,0-.477-3.175,1.593,1.593,0,0,0-1.529-1.06" fill="#fff"/>
      <rect id="Rectángulo_2378" data-name="Rectángulo 2378" width="0.854" height="9.756" transform="translate(109.548 50.287)" fill="#fff"/>
      <path id="Trazado_2517" data-name="Trazado 2517" d="M116.146,60.042l-.109-1.366H116a2.263,2.263,0,0,1-2.123,1.546,1.834,1.834,0,0,1-1.531-.76,3.264,3.264,0,0,1-.581-2.037,2.939,2.939,0,0,1,.836-2.207,3.479,3.479,0,0,1,2.347-.886L116,54.278v-.809a4.371,4.371,0,0,0-.342-1.991,1.189,1.189,0,0,0-1.133-.625,3.2,3.2,0,0,0-1.708.548l-.369-.674a3.991,3.991,0,0,1,2.132-.63,1.966,1.966,0,0,1,1.735.76,4.587,4.587,0,0,1,.531,2.54v6.645Zm-2.078-.548a1.571,1.571,0,0,0,1.425-.9A5.27,5.27,0,0,0,116,56.035V55.016l-1.016.054a2.544,2.544,0,0,0-1.749.652,2.378,2.378,0,0,0-.571,1.722A2.571,2.571,0,0,0,113.042,59a1.22,1.22,0,0,0,1.025.494" fill="#fff"/>
      <path id="Trazado_2518" data-name="Trazado 2518" d="M110.675,46.752a.7.7,0,1,1-.7-.7.7.7,0,0,1,.7.7" fill="#fff"/>
      <rect id="Rectángulo_2379" data-name="Rectángulo 2379" width="0.713" height="38.347" transform="translate(133.653 10.914)" fill="#fff"/>
    </g>
  </g>
</svg>
