<?xml version="1.0" encoding="UTF-8"?>
<svg id="Capa_2" xmlns="http://www.w3.org/2000/svg" viewBox="0 0 274.66 69.55">
  <defs>
    <style>
      .cls-1 {
        fill: #fff;
      }
    </style>
  </defs>
  <g id="Fondo">
    <g>
      <g>
        <path class="cls-1" d="M1.6,26.18c4.22,15.61,13.02,30.77,24.9,41.77,13.83-3.31,27.25-10.53,37.77-20.25-.23-.19-.45-.4-.65-.63h0s-2.55-2.64-6.52-2.91c-4.58-.31-10.54,6.5-10.54,6.5h0c-3.5,4.16-8.75,6.81-14.62,6.81-10.54,0-19.08-8.53-19.08-19.05s8.55-19.05,19.08-19.05c2.26,0,4.43.39,6.45,1.11,4.7,1.68,8.54,5.16,10.71,9.6h0s4.14,8.56,8.61,9.38c3.88.71,7.14-1.27,7.14-1.27h0c.45-.29.95-.52,1.48-.69-4.26-13.39-12.12-26.04-21.99-35.89C28.46,5.69,13.11,14.53,1.6,26.18ZM46.1,10.5c0,2.54-2.06,4.59-4.6,4.59s-4.6-2.06-4.6-4.59,2.06-4.6,4.6-4.6,4.6,2.06,4.6,4.6Z"/>
        <g>
          <path class="cls-1" d="M62.73,21.61c.54,2.01,1.02,4.03,1.43,6.07,1.19,2.63,2.25,5.32,3.17,8.04.86-1.96,1.64-3.95,2.34-5.96-2.11-2.85-4.43-5.57-6.94-8.15Z"/>
          <path class="cls-1" d="M35.97,2.63c-2.05-.96-4.12-1.84-6.2-2.63-2.88,2.26-5.63,4.72-8.25,7.35,2.31-.65,4.65-1.21,7.01-1.69,2.44-1.12,4.93-2.14,7.44-3.04Z"/>
          <path class="cls-1" d="M34.53,67.17c2.05.88,4.13,1.68,6.22,2.39,3.01-2.28,5.89-4.8,8.59-7.52-2.04.61-4.1,1.15-6.18,1.62-2.82,1.33-5.71,2.5-8.64,3.51Z"/>
          <path class="cls-1" d="M2.66,34.41c-.97,2.1-1.87,4.23-2.66,6.38,2.42,3,5.07,5.87,7.9,8.58-.72-2.33-1.36-4.69-1.9-7.08-1.24-2.58-2.35-5.22-3.34-7.88Z"/>
        </g>
        <g>
          <path class="cls-1" d="M15.63,63.91c1.69.17,3.4.29,5.11.35-4.42-4.84-8.32-10.26-11.6-16.01,1.65,5.46,3.81,10.74,6.49,15.66Z"/>
          <path class="cls-1" d="M63.96,54.47c.18-1.59.31-3.19.4-4.79-4.58,4.11-9.67,7.75-15.08,10.83,5.11-1.56,10.05-3.58,14.69-6.04Z"/>
          <path class="cls-1" d="M5.46,15.13c-.13,1.86-.21,3.72-.23,5.6,5.31-4.65,11.23-8.75,17.51-12.16-6.01,1.62-11.83,3.82-17.29,6.56Z"/>
          <path class="cls-1" d="M55.09,5.54c-1.75-.15-3.51-.24-5.29-.28,4.36,5.03,8.22,10.6,11.43,16.51-1.54-5.64-3.61-11.1-6.15-16.23Z"/>
        </g>
        <g>
          <path class="cls-1" d="M22.43,39.29c-.49-5.23,3.37-9.87,8.61-10.36,5.24-.49,9.89,3.37,10.37,8.6.49,5.23-3.37,9.86-8.61,10.35-5.24.49-9.88-3.36-10.37-8.59Z"/>
          <path class="cls-1" d="M65.12,43.43c-.15-1.63,1.05-3.07,2.68-3.22,1.63-.15,3.08,1.05,3.23,2.68.15,1.63-1.05,3.07-2.68,3.22-1.63.15-3.08-1.05-3.23-2.68Z"/>
          <path class="cls-1" d="M39.2,10.5c0-1.27,1.03-2.3,2.3-2.3s2.3,1.03,2.3,2.3-1.03,2.3-2.3,2.3-2.3-1.03-2.3-2.3Z"/>
        </g>
      </g>
      <polygon class="cls-1" points="88.62 65.7 87.79 65.7 87.79 34.78 87.79 3.85 88.62 3.85 88.62 34.78 88.62 65.7"/>
      <g>
        <path class="cls-1" d="M111.82,5.31c1,0,1.87.1,2.61.3.74.2,1.34.49,1.83.88.48.38.83.85,1.07,1.41.23.55.35,1.18.35,1.89,0,.46-.08.91-.24,1.34-.16.43-.39.83-.7,1.19-.3.36-.67.68-1.12.95-.44.27-.95.47-1.52.61,1.38.2,2.44.66,3.18,1.37s1.11,1.66,1.11,2.82c0,.75-.13,1.42-.4,2.01s-.65,1.1-1.15,1.51-1.13.73-1.86.95c-.74.22-1.57.33-2.51.33h-5.7V5.31h5.05ZM108.05,6.32v7.21h3.8c.81,0,1.5-.1,2.08-.31s1.05-.48,1.42-.82c.37-.34.64-.72.81-1.15.17-.43.26-.87.26-1.33,0-1.18-.38-2.08-1.12-2.69-.75-.61-1.91-.91-3.47-.91h-3.77ZM112.45,21.86c1.54,0,2.7-.33,3.49-1s1.19-1.6,1.19-2.81c0-.55-.11-1.05-.32-1.5-.21-.44-.52-.82-.91-1.13-.4-.31-.89-.55-1.46-.71-.58-.17-1.24-.25-1.97-.25h-4.42v7.4h4.41Z"/>
        <path class="cls-1" d="M123.15,6.27c0,.15-.03.29-.09.42-.06.13-.14.24-.24.34-.1.1-.22.18-.35.24-.13.06-.27.09-.42.09s-.29-.03-.42-.09c-.13-.06-.25-.14-.35-.24s-.18-.21-.24-.34c-.06-.13-.09-.27-.09-.42s.03-.29.09-.43.14-.25.24-.35c.1-.1.21-.18.35-.24.13-.06.27-.09.42-.09s.29.03.42.09c.13.06.25.14.35.24s.18.22.24.35c.06.14.09.28.09.43ZM122.64,10.53v12.35h-1.18v-12.35h1.18Z"/>
        <path class="cls-1" d="M131.47,10.33c.89,0,1.68.15,2.38.45.7.3,1.29.73,1.77,1.29s.85,1.22,1.1,2c.25.78.38,1.66.38,2.63s-.13,1.84-.38,2.62c-.25.78-.62,1.44-1.1,2-.48.55-1.07.98-1.77,1.28s-1.49.45-2.38.45-1.68-.15-2.38-.45-1.29-.72-1.77-1.28c-.48-.55-.85-1.22-1.11-2-.25-.78-.38-1.65-.38-2.62s.13-1.84.38-2.63c.25-.78.62-1.45,1.11-2,.48-.55,1.08-.98,1.77-1.29.7-.3,1.49-.45,2.38-.45ZM131.47,22.11c.74,0,1.38-.13,1.93-.38.55-.25,1.01-.61,1.38-1.09s.64-1.04.83-1.71c.18-.67.27-1.41.27-2.24s-.09-1.56-.27-2.23c-.18-.67-.46-1.24-.83-1.72-.37-.48-.83-.84-1.38-1.1-.55-.26-1.19-.38-1.93-.38s-1.38.13-1.93.38c-.55.26-1.01.62-1.38,1.1-.37.48-.65,1.05-.83,1.72-.19.67-.28,1.42-.28,2.23s.09,1.57.28,2.24c.19.67.46,1.23.83,1.71s.83.83,1.38,1.09c.55.25,1.19.38,1.93.38Z"/>
        <path class="cls-1" d="M149.76,4.82v18.06h-.65c-.22,0-.34-.11-.37-.32l-.12-1.95c-.55.75-1.18,1.34-1.91,1.78s-1.55.66-2.46.66c-1.52,0-2.71-.53-3.55-1.58-.84-1.05-1.27-2.63-1.27-4.73,0-.9.12-1.74.35-2.53.24-.78.58-1.46,1.04-2.04s1.02-1.03,1.68-1.36,1.43-.5,2.3-.5,1.56.15,2.17.46c.61.31,1.15.76,1.6,1.37v-7.32h1.18ZM148.58,13.18c-.47-.71-1-1.21-1.57-1.5s-1.23-.43-1.97-.43-1.37.13-1.91.4c-.55.26-1,.64-1.37,1.12s-.65,1.06-.83,1.74c-.19.67-.28,1.42-.28,2.23,0,1.84.34,3.19,1.01,4.05.67.87,1.65,1.3,2.92,1.3.81,0,1.55-.21,2.22-.63.67-.42,1.26-1.01,1.77-1.77v-6.49Z"/>
        <path class="cls-1" d="M155.39,6.27c0,.15-.03.29-.09.42-.06.13-.14.24-.24.34-.1.1-.22.18-.35.24-.13.06-.27.09-.42.09s-.29-.03-.42-.09c-.13-.06-.25-.14-.35-.24s-.18-.21-.24-.34c-.06-.13-.09-.27-.09-.42s.03-.29.09-.43.14-.25.24-.35c.1-.1.21-.18.35-.24.13-.06.27-.09.42-.09s.29.03.42.09c.13.06.25.14.35.24s.18.22.24.35c.06.14.09.28.09.43ZM154.88,10.53v12.35h-1.18v-12.35h1.18Z"/>
        <path class="cls-1" d="M168.73,10.53l-5.21,12.35h-1.04l-5.21-12.35h.93c.12,0,.21.03.29.09.07.06.12.13.15.21l4.08,9.74c.12.36.22.72.3,1.08.08-.36.18-.72.31-1.08l4.1-9.74c.04-.09.1-.16.17-.22.07-.05.16-.08.25-.08h.89Z"/>
        <path class="cls-1" d="M171.11,16.21v.24c0,.93.11,1.74.32,2.45s.52,1.29.92,1.77c.4.48.88.83,1.44,1.07s1.19.36,1.89.36c.62,0,1.16-.07,1.61-.2.46-.14.84-.29,1.15-.46.31-.17.56-.32.74-.46.18-.14.31-.21.4-.21.11,0,.19.04.25.12l.32.4c-.2.25-.46.48-.79.7s-.69.4-1.09.55c-.4.15-.83.28-1.29.37-.46.09-.92.14-1.38.14-.84,0-1.61-.15-2.31-.44-.7-.29-1.29-.72-1.79-1.28-.5-.56-.88-1.25-1.15-2.07-.27-.81-.4-1.75-.4-2.8,0-.88.13-1.7.38-2.45.25-.75.62-1.39,1.09-1.94s1.06-.97,1.75-1.27c.69-.31,1.47-.46,2.35-.46.7,0,1.34.12,1.94.36s1.11.59,1.55,1.05.78,1.02,1.04,1.69c.25.67.38,1.44.38,2.31,0,.18-.03.31-.07.37-.05.07-.13.1-.25.1h-8.99ZM179.35,15.46c0-.66-.09-1.26-.28-1.78-.19-.53-.45-.97-.79-1.33-.34-.36-.74-.64-1.21-.84-.47-.19-.98-.29-1.55-.29-.64,0-1.21.1-1.71.3s-.94.48-1.31.86-.66.82-.89,1.34c-.22.52-.37,1.1-.45,1.75h8.18Z"/>
        <path class="cls-1" d="M184.49,13.51c.19-.5.41-.95.65-1.35.24-.39.53-.73.84-1,.32-.27.67-.48,1.07-.63.39-.14.83-.22,1.31-.22.26,0,.51.02.76.07.25.04.47.13.66.24l-.1.82c-.04.13-.12.2-.24.2-.1,0-.25-.03-.45-.09-.2-.06-.47-.09-.8-.09-.48,0-.9.07-1.27.22-.37.15-.7.36-.99.65-.29.29-.55.65-.77,1.07-.22.43-.42.92-.6,1.47v7.99h-1.19v-12.35h.63c.14,0,.24.03.3.09.06.06.09.16.11.3l.09,2.59Z"/>
        <path class="cls-1" d="M198.52,12.05c-.07.12-.16.17-.29.17-.09,0-.21-.05-.35-.16s-.33-.22-.56-.35c-.24-.13-.53-.24-.88-.35-.35-.1-.77-.15-1.27-.15-.45,0-.85.06-1.22.19-.37.13-.68.3-.94.51s-.46.47-.6.75-.21.59-.21.9c0,.39.1.71.3.97.2.26.46.48.78.66.32.18.68.34,1.1.47.41.13.83.27,1.26.4.43.13.85.28,1.26.44.41.16.78.36,1.1.6.32.24.58.53.78.88.2.35.3.77.3,1.27,0,.54-.1,1.04-.29,1.5-.19.46-.47.87-.84,1.2-.37.34-.82.61-1.36.81-.54.2-1.15.3-1.85.3-.87,0-1.62-.14-2.25-.42-.63-.28-1.19-.64-1.69-1.09l.27-.42c.04-.07.09-.12.14-.15s.13-.05.22-.05c.11,0,.24.07.39.2.15.13.36.28.61.43.26.15.57.3.95.43.38.13.84.2,1.4.2.52,0,.98-.07,1.38-.22.4-.14.73-.34.99-.59.26-.25.46-.54.6-.88.14-.34.21-.69.21-1.06,0-.41-.1-.76-.3-1.03-.2-.27-.46-.5-.78-.7-.32-.19-.69-.35-1.1-.48-.41-.13-.83-.27-1.26-.4-.43-.13-.85-.28-1.26-.43s-.78-.36-1.1-.6c-.32-.24-.58-.53-.78-.88-.2-.34-.3-.77-.3-1.29,0-.44.1-.86.29-1.27s.46-.76.81-1.07c.35-.31.78-.55,1.29-.73.5-.18,1.07-.27,1.7-.27.75,0,1.42.11,2,.32.58.21,1.11.55,1.59.99l-.25.41Z"/>
        <path class="cls-1" d="M203.83,6.27c0,.15-.03.29-.09.42-.06.13-.14.24-.24.34-.1.1-.22.18-.35.24-.13.06-.27.09-.42.09s-.29-.03-.42-.09c-.13-.06-.25-.14-.35-.24s-.18-.21-.24-.34c-.06-.13-.09-.27-.09-.42s.03-.29.09-.43.14-.25.24-.35c.1-.1.21-.18.35-.24.13-.06.27-.09.42-.09s.29.03.42.09c.13.06.25.14.35.24s.18.22.24.35c.06.14.09.28.09.43ZM203.32,10.53v12.35h-1.18v-12.35h1.18Z"/>
        <path class="cls-1" d="M216.86,4.82v18.06h-.65c-.22,0-.34-.11-.37-.32l-.12-1.95c-.55.75-1.18,1.34-1.91,1.78s-1.55.66-2.46.66c-1.52,0-2.71-.53-3.55-1.58-.84-1.05-1.27-2.63-1.27-4.73,0-.9.12-1.74.35-2.53.24-.78.58-1.46,1.04-2.04s1.02-1.03,1.68-1.36,1.43-.5,2.3-.5,1.56.15,2.17.46c.61.31,1.15.76,1.6,1.37v-7.32h1.18ZM215.68,13.18c-.47-.71-1-1.21-1.57-1.5s-1.23-.43-1.97-.43-1.37.13-1.91.4c-.55.26-1,.64-1.37,1.12s-.65,1.06-.83,1.74c-.19.67-.28,1.42-.28,2.23,0,1.84.34,3.19,1.01,4.05.67.87,1.65,1.3,2.92,1.3.81,0,1.55-.21,2.22-.63.67-.42,1.26-1.01,1.77-1.77v-6.49Z"/>
        <path class="cls-1" d="M220.31,12.28c.64-.65,1.32-1.13,2.04-1.46s1.52-.5,2.42-.5c.66,0,1.24.11,1.74.32.5.21.91.51,1.23.91.33.39.57.87.74,1.43.17.56.25,1.18.25,1.87v8.04h-.47c-.25,0-.4-.12-.46-.35l-.17-1.59c-.34.33-.68.63-1.01.89-.33.27-.69.49-1.05.67-.36.18-.76.32-1.18.42s-.88.15-1.39.15c-.42,0-.83-.06-1.23-.19-.4-.12-.75-.31-1.06-.57-.31-.26-.56-.58-.75-.99-.19-.4-.28-.88-.28-1.45,0-.52.15-1.01.45-1.45.3-.45.77-.84,1.4-1.17s1.45-.6,2.45-.79c1-.2,2.2-.31,3.59-.35v-1.29c0-1.14-.25-2.02-.74-2.64-.49-.62-1.22-.92-2.19-.92-.6,0-1.1.08-1.52.25-.42.17-.77.35-1.06.55-.29.2-.53.38-.71.55-.18.17-.33.25-.46.25-.09,0-.17-.02-.22-.06-.06-.04-.11-.1-.15-.16l-.21-.36ZM227.57,16.91c-1.18.04-2.19.13-3.04.28-.85.14-1.55.34-2.1.59-.55.25-.96.54-1.22.89-.26.34-.4.73-.4,1.17,0,.41.07.77.2,1.07.14.3.32.55.55.74.23.19.49.34.79.43.3.09.61.14.93.14.48,0,.92-.05,1.32-.15s.77-.25,1.12-.43c.34-.19.66-.41.96-.66.3-.26.59-.53.88-.83v-3.23Z"/>
        <path class="cls-1" d="M242.01,4.82v18.06h-.65c-.22,0-.34-.11-.37-.32l-.12-1.95c-.55.75-1.18,1.34-1.91,1.78s-1.55.66-2.46.66c-1.52,0-2.71-.53-3.55-1.58-.84-1.05-1.27-2.63-1.27-4.73,0-.9.12-1.74.35-2.53.24-.78.58-1.46,1.04-2.04s1.02-1.03,1.68-1.36,1.43-.5,2.3-.5,1.56.15,2.17.46c.61.31,1.15.76,1.6,1.37v-7.32h1.18ZM240.83,13.18c-.47-.71-1-1.21-1.57-1.5s-1.23-.43-1.97-.43-1.37.13-1.91.4c-.55.26-1,.64-1.37,1.12s-.65,1.06-.83,1.74c-.19.67-.28,1.42-.28,2.23,0,1.84.34,3.19,1.01,4.05.67.87,1.65,1.3,2.92,1.3.81,0,1.55-.21,2.22-.63.67-.42,1.26-1.01,1.77-1.77v-6.49Z"/>
        <path class="cls-1" d="M252.69,16.21v.24c0,.93.11,1.74.32,2.45s.52,1.29.92,1.77c.4.48.88.83,1.44,1.07s1.19.36,1.89.36c.62,0,1.16-.07,1.61-.2.46-.14.84-.29,1.15-.46.31-.17.56-.32.74-.46.18-.14.31-.21.4-.21.11,0,.19.04.25.12l.32.4c-.2.25-.46.48-.79.7s-.69.4-1.09.55c-.4.15-.83.28-1.29.37-.46.09-.92.14-1.38.14-.84,0-1.61-.15-2.31-.44-.7-.29-1.29-.72-1.79-1.28-.5-.56-.88-1.25-1.15-2.07-.27-.81-.4-1.75-.4-2.8,0-.88.13-1.7.38-2.45.25-.75.62-1.39,1.09-1.94s1.06-.97,1.75-1.27c.69-.31,1.47-.46,2.35-.46.7,0,1.34.12,1.94.36s1.11.59,1.55,1.05.78,1.02,1.04,1.69c.25.67.38,1.44.38,2.31,0,.18-.03.31-.07.37-.05.07-.13.1-.25.1h-8.99ZM260.94,15.46c0-.66-.09-1.26-.28-1.78-.19-.53-.45-.97-.79-1.33-.34-.36-.74-.64-1.21-.84-.47-.19-.98-.29-1.55-.29-.64,0-1.21.1-1.71.3s-.94.48-1.31.86-.66.82-.89,1.34c-.22.52-.37,1.1-.45,1.75h8.18Z"/>
        <path class="cls-1" d="M266.07,12.69c.57-.71,1.23-1.28,1.98-1.71.75-.43,1.58-.65,2.5-.65.68,0,1.28.11,1.79.32.52.21.95.53,1.28.93.34.41.6.89.77,1.46s.26,1.22.26,1.94v7.89h-1.19v-7.89c0-1.16-.26-2.07-.79-2.72-.53-.66-1.34-.99-2.42-.99-.8,0-1.55.21-2.25.62-.7.41-1.32.98-1.87,1.71v9.28h-1.19v-12.35h.66c.21,0,.33.1.36.31l.11,1.85Z"/>
      </g>
      <g>
        <path class="cls-1" d="M129.44,54.65c.2,0,.4.04.6.11.2.08.39.2.57.39l3.34,3.51c-1.46,1.91-3.29,3.35-5.49,4.32-2.2.97-4.8,1.46-7.8,1.46-2.76,0-5.23-.47-7.41-1.41-2.18-.94-4.03-2.23-5.55-3.88-1.52-1.65-2.68-3.61-3.5-5.88-.81-2.27-1.22-4.73-1.22-7.38s.44-5.19,1.32-7.46c.88-2.27,2.12-4.22,3.71-5.86,1.59-1.64,3.5-2.92,5.73-3.83,2.22-.91,4.67-1.37,7.34-1.37,1.36,0,2.64.12,3.85.36,1.2.24,2.33.57,3.37,1,1.04.42,2.01.93,2.89,1.53.88.6,1.66,1.25,2.34,1.94l-2.84,3.81c-.18.23-.4.44-.65.63-.25.19-.6.29-1.05.29-.3,0-.58-.07-.85-.2-.27-.13-.55-.29-.85-.49s-.63-.4-.98-.62c-.36-.22-.78-.43-1.27-.62-.49-.19-1.06-.35-1.72-.49-.66-.13-1.42-.2-2.3-.2-1.39,0-2.67.26-3.82.77-1.15.51-2.15,1.27-2.99,2.25-.84.99-1.49,2.2-1.94,3.64-.46,1.44-.68,3.07-.68,4.92s.25,3.51.76,4.96c.51,1.44,1.2,2.66,2.07,3.65s1.89,1.74,3.05,2.25,2.41.77,3.73.77c.76,0,1.46-.04,2.09-.11.63-.08,1.22-.2,1.77-.37.55-.17,1.06-.41,1.54-.7.48-.29.97-.66,1.47-1.11.2-.17.42-.3.65-.41.23-.11.47-.16.72-.16Z"/>
        <path class="cls-1" d="M144.87,31.14c0,.61-.12,1.19-.37,1.73-.25.54-.59,1.01-1.02,1.42-.43.41-.93.73-1.51.97-.57.24-1.18.36-1.83.36s-1.22-.12-1.77-.36c-.55-.24-1.03-.56-1.46-.97-.42-.41-.75-.88-1-1.42-.24-.54-.36-1.12-.36-1.73s.12-1.22.36-1.77c.24-.55.57-1.03,1-1.44.42-.41.91-.74,1.46-.97s1.14-.35,1.77-.35,1.26.12,1.83.35c.57.23,1.07.56,1.51.97.43.42.77.9,1.02,1.44.25.55.37,1.14.37,1.77ZM144.07,38.21v25.82h-7.72v-25.82h7.72Z"/>
        <path class="cls-1" d="M150.85,64.03v-20.52l-1.69-.35c-.58-.13-1.05-.34-1.41-.62-.36-.28-.54-.7-.54-1.25v-3.04h3.63v-1.47c0-1.48.24-2.81.71-4.01.47-1.19,1.15-2.22,2.04-3.06.89-.85,1.97-1.5,3.25-1.97,1.28-.46,2.73-.7,4.36-.7.63,0,1.21.04,1.74.11s1.09.2,1.67.36l-.15,3.76c-.02.27-.08.49-.2.66s-.27.32-.46.42c-.19.11-.39.19-.61.24s-.43.07-.65.07c-.68,0-1.29.07-1.82.2-.53.13-.98.37-1.33.71-.36.34-.63.79-.81,1.34-.18.56-.27,1.26-.27,2.1v1.22h6.05v5.28h-5.8v20.49h-7.72Z"/>
        <path class="cls-1" d="M173.83,42.2c.8-1.39,1.71-2.49,2.75-3.29s2.23-1.19,3.57-1.19c1.16,0,2.11.27,2.84.82l-.5,5.68c-.08.37-.22.61-.41.75-.19.13-.45.2-.78.2-.13,0-.31,0-.52-.03s-.44-.04-.67-.06c-.23-.02-.47-.05-.71-.07-.24-.03-.46-.04-.66-.04-1.13,0-2.03.3-2.7.9-.67.6-1.24,1.43-1.71,2.49v15.69h-7.72v-25.82h4.58c.38,0,.7.03.96.1.26.07.47.17.65.31.17.14.31.33.4.56.09.23.17.51.24.85l.4,2.17Z"/>
        <path class="cls-1" d="M184.23,41.8c1.56-1.38,3.29-2.4,5.19-3.08s3.94-1.01,6.11-1.01c1.56,0,2.97.25,4.22.76,1.25.51,2.32,1.21,3.19,2.12.87.91,1.54,1.98,2,3.22.46,1.25.7,2.61.7,4.08v16.13h-3.54c-.73,0-1.28-.1-1.66-.3-.37-.2-.68-.61-.93-1.25l-.55-1.42c-.65.55-1.27,1.03-1.87,1.44s-1.22.77-1.86,1.06c-.64.29-1.32.51-2.04.65-.72.14-1.52.21-2.4.21-1.18,0-2.25-.15-3.21-.46-.96-.31-1.78-.76-2.45-1.36-.67-.6-1.19-1.34-1.56-2.23-.37-.89-.55-1.91-.55-3.08,0-.93.23-1.87.7-2.83.46-.95,1.27-1.83,2.42-2.61s2.69-1.45,4.63-1.98,4.39-.83,7.34-.9v-1.1c0-1.51-.31-2.6-.93-3.27-.62-.67-1.51-1.01-2.65-1.01-.91,0-1.66.1-2.24.3s-1.1.42-1.56.67c-.46.25-.9.47-1.33.67-.43.2-.95.3-1.54.3-.53,0-.98-.13-1.34-.4s-.66-.58-.9-.95l-1.39-2.42ZM198.13,53.53c-1.54.07-2.81.2-3.81.4s-1.78.45-2.37.75-.98.64-1.21,1.02c-.22.38-.34.8-.34,1.25,0,.88.24,1.5.72,1.85.48.36,1.19.54,2.12.54,1,0,1.87-.17,2.61-.52s1.5-.91,2.27-1.69v-3.59Z"/>
        <path class="cls-1" d="M226.44,43.87c-.2.32-.41.54-.64.67-.22.13-.51.2-.86.2s-.73-.08-1.1-.24c-.37-.16-.76-.33-1.18-.51-.42-.18-.9-.35-1.43-.51-.53-.16-1.14-.24-1.82-.24-.98,0-1.73.19-2.25.56-.52.37-.78.89-.78,1.56,0,.48.17.88.51,1.19.34.32.79.59,1.36.83.56.24,1.2.47,1.92.68.71.22,1.44.46,2.19.72s1.48.58,2.19.93c.71.36,1.35.8,1.92,1.32.56.52,1.02,1.16,1.36,1.91.34.75.51,1.64.51,2.69,0,1.28-.23,2.46-.7,3.54-.46,1.08-1.16,2.01-2.08,2.79-.92.78-2.06,1.39-3.41,1.82-1.35.43-2.91.65-4.67.65-.88,0-1.76-.08-2.64-.25-.88-.17-1.73-.39-2.55-.67-.82-.28-1.58-.62-2.28-1.01-.7-.39-1.29-.81-1.79-1.26l1.79-2.84c.2-.33.45-.59.76-.78.31-.19.7-.29,1.18-.29.45,0,.85.1,1.21.3.36.2.74.42,1.16.65s.9.45,1.46.65c.56.2,1.26.3,2.1.3.6,0,1.1-.06,1.52-.19.42-.12.75-.29,1-.51s.43-.46.55-.72c.12-.26.17-.54.17-.82,0-.51-.17-.94-.52-1.27s-.81-.62-1.37-.86c-.56-.24-1.21-.46-1.93-.67s-1.46-.44-2.2-.71c-.75-.27-1.48-.58-2.2-.96-.72-.37-1.37-.85-1.93-1.42-.56-.57-1.02-1.27-1.37-2.1s-.52-1.83-.52-3.01c0-1.1.21-2.14.63-3.12.42-.99,1.06-1.85,1.9-2.6s1.91-1.34,3.19-1.78c1.28-.44,2.77-.66,4.48-.66.93,0,1.83.08,2.7.25.87.17,1.69.4,2.45.7s1.46.65,2.09,1.06c.63.41,1.19.85,1.67,1.33l-1.74,2.71Z"/>
      </g>
    </g>
  </g>
</svg>