<?xml version="1.0" encoding="UTF-8"?>
<svg id="Capa_2" xmlns="http://www.w3.org/2000/svg" viewBox="0 0 2294.65 431.44">
  <defs>
    <style>
      .cls-1 {
        fill: #fff;
      }
    </style>
  </defs>
  <g id="Negativo_monotono">
    <g>
      <g>
        <path class="cls-1" d="M944.17,137.6c0,8.56-2.38,15.5-7.13,20.8-4.75,5.3-10.79,7.94-18.11,7.94-8.32,0-15-1.21-20.04-3.64v-7.56c2.47,1.38,5.54,2.47,9.2,3.28,3.66.81,7.27,1.21,10.84,1.21,5.32,0,9.7-2.02,13.12-6.06,3.42-4.04,5.13-9.17,5.13-15.4,0-5.75-1.21-10.32-3.64-13.69-2.42-3.38-7.06-6.75-13.9-10.13-5.37-2.71-9.39-5.32-12.05-7.87-2.66-2.54-4.63-5.51-5.92-8.89-1.28-3.38-1.93-7.42-1.93-12.12,0-5.13,1.05-9.7,3.14-13.69,2.09-3.99,5.02-7.08,8.77-9.32,3.76-2.19,7.87-3.3,12.34-3.3,4.04,0,7.7.45,11.03,1.35,3.28.9,5.89,1.88,7.8,2.92l-2.71,6.7c-5.28-2.71-10.65-4.06-16.12-4.06-5.13,0-9.32,1.76-12.5,5.23-3.23,3.52-4.83,8.13-4.83,13.88s1.16,10.39,3.49,13.62c2.33,3.23,6.89,6.58,13.69,10.05,7.04,3.42,12.17,7.44,15.45,12.03,3.23,4.59,4.87,10.15,4.87,16.71Z"/>
        <path class="cls-1" d="M959.78,66.08c0-2.14.43-3.8,1.31-4.99.88-1.19,2.02-1.78,3.4-1.78,1.28,0,2.31.59,3.07,1.78.76,1.19,1.14,2.85,1.14,4.99s-.38,3.66-1.14,4.9c-.76,1.19-1.78,1.81-3.07,1.81-1.38,0-2.52-.62-3.4-1.81-.88-1.24-1.31-2.85-1.31-4.9ZM967.56,164.92h-6.77v-77.37h6.77v77.37Z"/>
        <path class="cls-1" d="M1018.61,145.52c0,6.51-1.71,11.62-5.13,15.31-3.42,3.68-8.37,5.51-14.83,5.51-3.52,0-6.61-.45-9.27-1.35-2.66-.9-4.73-1.9-6.2-2.99v-7.92c1.76,1.76,4.09,3.19,6.99,4.23,2.9,1.09,5.87,1.62,8.91,1.62,3.99,0,7.13-1.31,9.41-3.92,2.28-2.61,3.42-6.11,3.42-10.48,0-3.42-.83-6.32-2.45-8.65-1.66-2.38-4.78-5.04-9.39-8.03-5.28-3.33-8.87-5.99-10.81-7.99-1.9-2-3.42-4.23-4.47-6.7-1.09-2.47-1.62-5.42-1.62-8.84,0-5.56,1.88-10.17,5.63-13.79,3.76-3.66,8.53-5.47,14.33-5.47,6.23,0,11.43,1.47,15.62,4.42l-3.49,5.92c-3.9-2.61-8.03-3.92-12.41-3.92-3.99,0-7.18,1.19-9.56,3.52-2.38,2.38-3.57,5.47-3.57,9.32,0,3.42.81,6.3,2.42,8.6,1.62,2.31,5.04,5.09,10.27,8.37,5.13,3.38,8.65,6.08,10.55,8.08,1.9,2.04,3.33,4.28,4.23,6.7.95,2.47,1.4,5.28,1.4,8.46Z"/>
        <path class="cls-1" d="M1048.42,160.07c2.09,0,3.95-.29,5.56-.86v5.7c-2.09.95-4.78,1.43-8.06,1.43-7.99,0-11.98-5.97-11.98-17.9v-54.91h-6.99v-3.99l6.85-2,2.21-18.4h4.71v18.4h12.26v5.99h-12.26v52.98c0,5.23.57,8.79,1.71,10.7,1.14,1.9,3.14,2.85,5.99,2.85Z"/>
        <path class="cls-1" d="M1088.21,166.34c-8.18,0-14.48-3.47-18.85-10.46-4.42-6.94-6.61-16.66-6.61-29.12,0-13.22,1.95-23.29,5.89-30.26,3.9-6.96,9.56-10.46,16.92-10.46,6.42,0,11.48,3.07,15.19,9.17,3.71,6.11,5.56,14.33,5.56,24.7v6.28h-36.65c.1,11.27,1.69,19.7,4.78,25.31,3.09,5.61,7.77,8.41,14.05,8.41,4.85,0,9.96-1.59,15.33-4.78v6.56c-4.94,3.09-10.15,4.63-15.62,4.63ZM1085.14,92.18c-9.32,0-14.43,9.29-15.33,27.88h29.73c0-8.51-1.31-15.28-3.9-20.32-2.59-5.04-6.08-7.56-10.51-7.56Z"/>
        <path class="cls-1" d="M1189.25,164.92v-52.7c0-12.98-3.8-19.47-11.41-19.47-5.23,0-9.01,2.28-11.29,6.8-2.33,4.56-3.47,11.24-3.47,20.08v45.28h-6.7v-52.7c0-6.56-.93-11.43-2.78-14.67-1.85-3.19-4.73-4.8-8.63-4.8-5.13,0-8.87,2.33-11.2,6.99-2.33,4.66-3.49,12.22-3.49,22.68v42.5h-6.77v-77.37h5.7l.57,10.77h.64c3.09-8.18,8.34-12.26,15.76-12.26,4.28,0,7.65,1.14,10.13,3.42,2.47,2.28,4.25,5.61,5.35,9.98,1.85-4.75,4.14-8.18,6.85-10.27,2.71-2.09,6.23-3.14,10.55-3.14,5.85,0,10.13,2.23,12.84,6.75,2.71,4.47,4.06,11.67,4.06,21.56v50.56h-6.7Z"/>
        <path class="cls-1" d="M1246.37,164.92l-.86-10.84h-.29c-3.71,8.18-9.32,12.26-16.83,12.26-5.04,0-9.1-2-12.15-6.04-3.09-3.99-4.61-9.39-4.61-16.14,0-7.37,2.21-13.19,6.63-17.52,4.42-4.28,10.62-6.63,18.61-7.01l8.34-.43v-6.42c0-7.23-.9-12.48-2.71-15.81-1.81-3.28-4.8-4.94-8.98-4.94-4.42,0-8.94,1.45-13.55,4.35l-2.92-5.35c5.37-3.33,11.01-4.99,16.9-4.99,6.37,0,10.96,2.02,13.76,6.04,2.8,4.02,4.21,10.72,4.21,20.13v52.7h-5.56ZM1229.89,160.57c4.85,0,8.6-2.4,11.31-7.15,2.66-4.8,4.02-11.55,4.02-20.3v-8.06l-8.06.43c-6.23.33-10.86,2.07-13.88,5.16-3.02,3.14-4.52,7.68-4.52,13.67,0,5.61,1,9.72,2.99,12.34,2,2.61,4.71,3.92,8.13,3.92Z"/>
        <path class="cls-1" d="M1318.67,166.34c-15.02,0-22.53-13.33-22.53-40,0-13.12,1.88-23.1,5.63-29.97,3.76-6.87,9.29-10.32,16.61-10.32,3.47,0,6.75,1,9.89,2.99,3.09,2,5.59,4.75,7.44,8.27h.57l-.29-8.63v-34.73h6.77v110.95h-5.56l-.57-10.84h-.64c-1.85,3.95-4.25,6.99-7.2,9.08-2.95,2.12-6.32,3.19-10.13,3.19ZM1319.1,160.42c5.42,0,9.6-2.5,12.5-7.53,2.95-4.99,4.4-12.38,4.4-22.13v-4.42c0-11.69-1.43-20.25-4.25-25.69-2.83-5.44-7.13-8.18-12.93-8.18s-9.56,2.92-11.98,8.75c-2.42,5.82-3.64,14.24-3.64,25.27s1.26,19.56,3.78,25.31c2.52,5.75,6.56,8.63,12.12,8.63Z"/>
        <path class="cls-1" d="M1385.41,166.34c-8.18,0-14.48-3.47-18.85-10.46-4.42-6.94-6.61-16.66-6.61-29.12,0-13.22,1.95-23.29,5.89-30.26,3.9-6.96,9.56-10.46,16.92-10.46,6.42,0,11.48,3.07,15.19,9.17,3.71,6.11,5.56,14.33,5.56,24.7v6.28h-36.65c.1,11.27,1.69,19.7,4.78,25.31,3.09,5.61,7.77,8.41,14.05,8.41,4.85,0,9.96-1.59,15.33-4.78v6.56c-4.94,3.09-10.15,4.63-15.62,4.63ZM1382.35,92.18c-9.32,0-14.43,9.29-15.33,27.88h29.73c0-8.51-1.31-15.28-3.9-20.32-2.59-5.04-6.08-7.56-10.51-7.56Z"/>
        <path class="cls-1" d="M1449.23,164.92V60.66h6.99v104.25h-6.99Z"/>
        <path class="cls-1" d="M1512.91,164.92v-53.34c0-12.84-3.8-19.25-11.41-19.25-5.8,0-10.05,2.4-12.72,7.2-2.71,4.8-4.04,12.43-4.04,22.89v42.5h-6.77v-77.37h5.7l.57,10.77h.64c1.62-3.9,3.95-6.92,6.99-9.06,3.04-2.14,6.3-3.21,9.77-3.21,5.99,0,10.48,2.02,13.48,6.04,2.99,4.02,4.49,10.46,4.49,19.35v53.48h-6.7Z"/>
        <path class="cls-1" d="M1559.76,93.54h-12.12v71.38h-6.7v-71.38h-9.84v-3.85l9.84-2.92v-5.85c0-9.84,1.16-16.92,3.49-21.25,2.33-4.33,6.37-6.49,12.12-6.49,3.33,0,6.35.59,9.06,1.78l-2.35,6.28c-2.52-1.19-4.8-1.78-6.85-1.78-2.33,0-4.09.69-5.28,2.07-1.19,1.38-2.07,3.61-2.64,6.7-.57,3.09-.86,7.37-.86,12.84v6.49h12.12v5.99Z"/>
        <path class="cls-1" d="M1615.88,126.05c0,13.03-2.07,22.98-6.18,29.93-4.11,6.89-9.98,10.36-17.64,10.36s-13.36-3.47-17.35-10.36c-4.04-6.94-6.04-16.9-6.04-29.93,0-26.67,7.89-40,23.67-40,7.42,0,13.19,3.49,17.33,10.48,4.14,6.99,6.2,16.83,6.2,29.52ZM1575.73,126.05c0,11.17,1.33,19.61,3.99,25.31,2.66,5.7,6.82,8.56,12.48,8.56,11.08,0,16.61-11.29,16.61-33.87s-5.54-33.59-16.61-33.59c-5.8,0-10.01,2.8-12.6,8.41-2.59,5.61-3.87,14-3.87,25.17Z"/>
        <path class="cls-1" d="M1654.38,86.05c2.42,0,4.68.33,6.77,1l-1.64,6.77c-1.71-.71-3.47-1.07-5.28-1.07-2.61,0-5.06,1.35-7.32,4.04-2.26,2.69-4.02,6.42-5.3,11.22s-1.93,10.1-1.93,15.9v41h-6.77v-77.37h5.56l.71,13.55h.5c3.61-10.03,8.51-15.05,14.69-15.05Z"/>
        <path class="cls-1" d="M1738.53,164.92v-52.7c0-12.98-3.8-19.47-11.41-19.47-5.23,0-9.01,2.28-11.29,6.8-2.33,4.56-3.47,11.24-3.47,20.08v45.28h-6.7v-52.7c0-6.56-.93-11.43-2.78-14.67-1.85-3.19-4.73-4.8-8.63-4.8-5.13,0-8.87,2.33-11.2,6.99-2.33,4.66-3.49,12.22-3.49,22.68v42.5h-6.77v-77.37h5.7l.57,10.77h.64c3.09-8.18,8.34-12.26,15.76-12.26,4.28,0,7.65,1.14,10.13,3.42,2.47,2.28,4.25,5.61,5.35,9.98,1.85-4.75,4.14-8.18,6.85-10.27,2.71-2.09,6.23-3.14,10.55-3.14,5.85,0,10.13,2.23,12.84,6.75,2.71,4.47,4.06,11.67,4.06,21.56v50.56h-6.7Z"/>
        <path class="cls-1" d="M1795.64,164.92l-.86-10.84h-.29c-3.71,8.18-9.32,12.26-16.83,12.26-5.04,0-9.1-2-12.15-6.04-3.09-3.99-4.61-9.39-4.61-16.14,0-7.37,2.21-13.19,6.63-17.52,4.42-4.28,10.62-6.63,18.61-7.01l8.34-.43v-6.42c0-7.23-.9-12.48-2.71-15.81-1.81-3.28-4.8-4.94-8.98-4.94-4.42,0-8.94,1.45-13.55,4.35l-2.92-5.35c5.37-3.33,11.01-4.99,16.9-4.99,6.37,0,10.96,2.02,13.76,6.04,2.8,4.02,4.21,10.72,4.21,20.13v52.7h-5.56ZM1779.17,160.57c4.85,0,8.6-2.4,11.31-7.15,2.66-4.8,4.02-11.55,4.02-20.3v-8.06l-8.06.43c-6.23.33-10.86,2.07-13.88,5.16-3.02,3.14-4.52,7.68-4.52,13.67,0,5.61,1,9.72,2.99,12.34,2,2.61,4.71,3.92,8.13,3.92Z"/>
        <path class="cls-1" d="M1841.49,166.34c-7.75,0-13.6-3.35-17.49-10.08-3.95-6.73-5.89-16.61-5.89-29.64s1.97-23.27,5.94-30.21c3.97-6.89,9.84-10.36,17.59-10.36,4.8,0,8.79.88,11.98,2.64l-2.64,5.99c-3.19-1.47-6.11-2.21-8.77-2.21-11.36,0-17.04,11.34-17.04,34.01s5.68,33.73,17.04,33.73c3.38,0,7.04-.76,10.98-2.28v5.7c-1.57.86-3.49,1.52-5.78,2-2.28.48-4.25.71-5.92.71Z"/>
        <path class="cls-1" d="M1865.88,66.08c0-2.14.43-3.8,1.31-4.99.88-1.19,2.02-1.78,3.4-1.78,1.28,0,2.31.59,3.07,1.78.76,1.19,1.14,2.85,1.14,4.99s-.38,3.66-1.14,4.9c-.76,1.19-1.78,1.81-3.07,1.81-1.38,0-2.52-.62-3.4-1.81-.88-1.24-1.31-2.85-1.31-4.9ZM1873.65,164.92h-6.77v-77.37h6.77v77.37Z"/>
        <path class="cls-1" d="M1937.9,126.05c0,13.03-2.07,22.98-6.18,29.93-4.11,6.89-9.98,10.36-17.64,10.36s-13.36-3.47-17.35-10.36c-4.04-6.94-6.04-16.9-6.04-29.93,0-26.67,7.89-40,23.67-40,7.42,0,13.19,3.49,17.33,10.48,4.14,6.99,6.2,16.83,6.2,29.52ZM1897.75,126.05c0,11.17,1.33,19.61,3.99,25.31,2.66,5.7,6.82,8.56,12.48,8.56,11.08,0,16.61-11.29,16.61-33.87s-5.54-33.59-16.61-33.59c-5.8,0-10.01,2.8-12.6,8.41-2.59,5.61-3.87,14-3.87,25.17ZM1908.31,76.42v-1.5c6.04-7.89,10.58-15.19,13.62-21.89h8.91v1.21c-1.85,3.33-4.68,7.15-8.44,11.48-3.8,4.33-7.37,7.89-10.74,10.7h-3.35Z"/>
        <path class="cls-1" d="M1989.88,164.92v-53.34c0-12.84-3.8-19.25-11.41-19.25-5.8,0-10.05,2.4-12.72,7.2-2.71,4.8-4.04,12.43-4.04,22.89v42.5h-6.77v-77.37h5.7l.57,10.77h.64c1.62-3.9,3.95-6.92,6.99-9.06,3.04-2.14,6.3-3.21,9.77-3.21,5.99,0,10.48,2.02,13.48,6.04,2.99,4.02,4.49,10.46,4.49,19.35v53.48h-6.7Z"/>
        <path class="cls-1" d="M2074.81,145.52c0,6.51-1.71,11.62-5.13,15.31-3.42,3.68-8.37,5.51-14.83,5.51-3.52,0-6.61-.45-9.27-1.35-2.66-.9-4.73-1.9-6.2-2.99v-7.92c1.76,1.76,4.09,3.19,6.99,4.23,2.9,1.09,5.87,1.62,8.91,1.62,3.99,0,7.13-1.31,9.41-3.92,2.28-2.61,3.42-6.11,3.42-10.48,0-3.42-.83-6.32-2.45-8.65-1.66-2.38-4.78-5.04-9.39-8.03-5.28-3.33-8.87-5.99-10.81-7.99-1.9-2-3.42-4.23-4.47-6.7-1.09-2.47-1.62-5.42-1.62-8.84,0-5.56,1.88-10.17,5.63-13.79,3.76-3.66,8.53-5.47,14.33-5.47,6.23,0,11.43,1.47,15.62,4.42l-3.49,5.92c-3.9-2.61-8.03-3.92-12.41-3.92-3.99,0-7.18,1.19-9.56,3.52-2.38,2.38-3.57,5.47-3.57,9.32,0,3.42.81,6.3,2.42,8.6,1.62,2.31,5.04,5.09,10.27,8.37,5.13,3.38,8.65,6.08,10.55,8.08,1.9,2.04,3.33,4.28,4.23,6.7.95,2.47,1.4,5.28,1.4,8.46Z"/>
        <path class="cls-1" d="M2133.99,126.05c0,13.03-2.07,22.98-6.18,29.93-4.11,6.89-9.98,10.36-17.64,10.36s-13.36-3.47-17.35-10.36c-4.04-6.94-6.04-16.9-6.04-29.93,0-26.67,7.89-40,23.67-40,7.42,0,13.19,3.49,17.33,10.48,4.14,6.99,6.2,16.83,6.2,29.52ZM2093.85,126.05c0,11.17,1.33,19.61,3.99,25.31,2.66,5.7,6.82,8.56,12.48,8.56,11.08,0,16.61-11.29,16.61-33.87s-5.54-33.59-16.61-33.59c-5.8,0-10.01,2.8-12.6,8.41-2.59,5.61-3.87,14-3.87,25.17Z"/>
        <path class="cls-1" d="M2175,86.19c15.12,0,22.68,13.29,22.68,39.86,0,13.12-1.88,23.13-5.63,29.97-3.76,6.89-9.17,10.32-16.26,10.32-3.71,0-7.08-1.02-10.13-3.07-3.04-2.04-5.56-5.06-7.56-9.06h-.57l-.93,10.7h-5.56V53.96h6.77v34.44l-.29,9.34h.57c4.09-7.7,9.72-11.55,16.9-11.55ZM2174.71,92.47c-5.94,0-10.24,2.61-12.91,7.84-2.66,5.23-3.99,13.81-3.99,25.74v1.78c0,21.58,5.73,32.37,17.18,32.37,5.23,0,9.13-2.78,11.72-8.34,2.59-5.56,3.9-14.17,3.9-25.81s-1.26-19.56-3.78-25.17c-2.52-5.61-6.56-8.41-12.12-8.41Z"/>
        <path class="cls-1" d="M2236.18,86.05c2.42,0,4.68.33,6.77,1l-1.64,6.77c-1.71-.71-3.47-1.07-5.28-1.07-2.61,0-5.06,1.35-7.32,4.04-2.26,2.69-4.02,6.42-5.3,11.22-1.28,4.8-1.93,10.1-1.93,15.9v41h-6.77v-77.37h5.56l.71,13.55h.5c3.61-10.03,8.51-15.05,14.69-15.05Z"/>
        <path class="cls-1" d="M2276.54,166.34c-8.18,0-14.48-3.47-18.85-10.46-4.42-6.94-6.61-16.66-6.61-29.12,0-13.22,1.95-23.29,5.89-30.26,3.9-6.96,9.56-10.46,16.92-10.46,6.42,0,11.48,3.07,15.19,9.17,3.71,6.11,5.56,14.33,5.56,24.7v6.28h-36.65c.1,11.27,1.69,19.7,4.78,25.31,3.09,5.61,7.77,8.41,14.05,8.41,4.85,0,9.96-1.59,15.33-4.78v6.56c-4.94,3.09-10.15,4.63-15.62,4.63ZM2273.47,92.18c-9.32,0-14.43,9.29-15.33,27.88h29.73c0-8.51-1.31-15.28-3.9-20.32-2.59-5.04-6.08-7.56-10.51-7.56Z"/>
        <path class="cls-1" d="M903.66,199.74h19.97c8.18,0,14.45,2.09,18.87,6.28,4.37,4.18,6.58,10.36,6.58,18.54,0,14.12-5.16,22.2-15.47,24.24v.57c5.94,1.24,10.36,3.9,13.26,7.94,2.9,4.09,4.35,9.75,4.35,17.02,0,9.32-2.07,16.59-6.2,21.82-4.14,5.23-9.94,7.84-17.4,7.84h-23.96v-104.25ZM910.65,246.16h13.12c6.51,0,11.17-1.78,13.93-5.4,2.8-3.57,4.18-9.03,4.18-16.35,0-5.89-1.52-10.41-4.61-13.55-3.04-3.14-7.61-4.71-13.64-4.71h-12.98v40ZM910.65,252.58v44.99h16.04c11.5,0,17.26-7.8,17.26-23.39,0-6.94-1.69-12.26-5.06-16.02-3.38-3.71-8.11-5.59-14.19-5.59h-14.05Z"/>
        <path class="cls-1" d="M966.27,205.16c0-2.14.43-3.8,1.31-4.99.88-1.19,2.02-1.78,3.4-1.78,1.28,0,2.31.59,3.07,1.78.76,1.19,1.14,2.85,1.14,4.99s-.38,3.66-1.14,4.9c-.76,1.19-1.78,1.81-3.07,1.81-1.38,0-2.52-.62-3.4-1.81-.88-1.24-1.31-2.85-1.31-4.9ZM974.04,303.99h-6.77v-77.37h6.77v77.37Z"/>
        <path class="cls-1" d="M1038.29,265.13c0,13.03-2.07,22.98-6.18,29.93-4.11,6.89-9.98,10.36-17.64,10.36s-13.36-3.47-17.35-10.36c-4.04-6.94-6.04-16.9-6.04-29.93,0-26.67,7.89-40,23.67-40,7.42,0,13.19,3.49,17.33,10.48,4.14,6.99,6.2,16.83,6.2,29.52ZM998.14,265.13c0,11.17,1.33,19.61,3.99,25.31,2.66,5.7,6.82,8.56,12.48,8.56,11.08,0,16.61-11.29,16.61-33.87s-5.54-33.59-16.61-33.59c-5.8,0-10.01,2.8-12.6,8.41-2.59,5.61-3.87,14-3.87,25.17Z"/>
        <path class="cls-1" d="M1074.23,305.42c-15.02,0-22.53-13.33-22.53-40,0-13.12,1.88-23.1,5.63-29.97,3.76-6.87,9.29-10.32,16.61-10.32,3.47,0,6.75,1,9.89,2.99,3.09,2,5.59,4.75,7.44,8.27h.57l-.29-8.63v-34.73h6.77v110.95h-5.56l-.57-10.84h-.64c-1.85,3.95-4.25,6.99-7.2,9.08-2.95,2.12-6.32,3.19-10.13,3.19ZM1074.66,299.5c5.42,0,9.6-2.5,12.5-7.53,2.95-4.99,4.4-12.38,4.4-22.13v-4.42c0-11.69-1.43-20.25-4.25-25.69-2.83-5.44-7.13-8.18-12.93-8.18s-9.56,2.92-11.98,8.75c-2.42,5.82-3.64,14.24-3.64,25.27s1.26,19.56,3.78,25.31c2.52,5.75,6.56,8.63,12.12,8.63Z"/>
        <path class="cls-1" d="M1118.01,205.16c0-2.14.43-3.8,1.31-4.99.88-1.19,2.02-1.78,3.4-1.78,1.28,0,2.31.59,3.07,1.78.76,1.19,1.14,2.85,1.14,4.99s-.38,3.66-1.14,4.9c-.76,1.19-1.78,1.81-3.07,1.81-1.38,0-2.52-.62-3.4-1.81-.88-1.24-1.31-2.85-1.31-4.9ZM1125.78,303.99h-6.77v-77.37h6.77v77.37Z"/>
        <path class="cls-1" d="M1155.09,303.99l-18.25-77.37h6.85l11.55,49.77c1.33,5.75,2.61,12.03,3.85,18.83h.57c.33-2.47.81-5.23,1.43-8.27.62-3.04,5.3-23.15,14.05-60.33h6.85l-18.83,77.37h-8.06Z"/>
        <path class="cls-1" d="M1214.99,305.42c-8.18,0-14.48-3.47-18.85-10.46-4.42-6.94-6.61-16.66-6.61-29.12,0-13.22,1.95-23.29,5.89-30.26,3.9-6.96,9.56-10.46,16.92-10.46,6.42,0,11.48,3.07,15.19,9.17,3.71,6.11,5.56,14.33,5.56,24.7v6.28h-36.65c.1,11.27,1.69,19.7,4.78,25.31,3.09,5.61,7.77,8.41,14.05,8.41,4.85,0,9.96-1.59,15.33-4.78v6.56c-4.94,3.09-10.15,4.63-15.62,4.63ZM1211.92,231.26c-9.32,0-14.43,9.29-15.33,27.88h29.73c0-8.51-1.31-15.28-3.9-20.32-2.59-5.04-6.08-7.56-10.51-7.56Z"/>
        <path class="cls-1" d="M1271.75,225.13c2.42,0,4.68.33,6.77,1l-1.64,6.77c-1.71-.71-3.47-1.07-5.28-1.07-2.61,0-5.06,1.35-7.32,4.04-2.26,2.69-4.02,6.42-5.3,11.22-1.28,4.8-1.93,10.1-1.93,15.9v41h-6.77v-77.37h5.56l.71,13.55h.5c3.61-10.03,8.51-15.05,14.69-15.05Z"/>
        <path class="cls-1" d="M1320.52,284.6c0,6.51-1.71,11.62-5.13,15.31-3.42,3.68-8.37,5.51-14.83,5.51-3.52,0-6.61-.45-9.27-1.35-2.66-.9-4.73-1.9-6.2-2.99v-7.92c1.76,1.76,4.09,3.19,6.99,4.23,2.9,1.09,5.87,1.62,8.91,1.62,3.99,0,7.13-1.31,9.41-3.92,2.28-2.61,3.42-6.11,3.42-10.48,0-3.42-.83-6.32-2.45-8.65-1.66-2.38-4.78-5.04-9.39-8.03-5.28-3.33-8.87-5.99-10.81-7.99-1.9-2-3.42-4.23-4.47-6.7-1.09-2.47-1.62-5.42-1.62-8.84,0-5.56,1.88-10.17,5.63-13.79,3.76-3.66,8.53-5.47,14.33-5.47,6.23,0,11.43,1.47,15.62,4.42l-3.49,5.92c-3.9-2.61-8.03-3.92-12.41-3.92-3.99,0-7.18,1.19-9.56,3.52-2.38,2.38-3.57,5.47-3.57,9.32,0,3.42.81,6.3,2.42,8.6,1.62,2.31,5.04,5.09,10.27,8.37,5.13,3.38,8.65,6.08,10.55,8.08,1.9,2.04,3.33,4.28,4.23,6.7.95,2.47,1.4,5.28,1.4,8.46Z"/>
        <path class="cls-1" d="M1335.14,205.16c0-2.14.43-3.8,1.31-4.99.88-1.19,2.02-1.78,3.4-1.78,1.28,0,2.31.59,3.07,1.78.76,1.19,1.14,2.85,1.14,4.99s-.38,3.66-1.14,4.9c-.76,1.19-1.78,1.81-3.07,1.81-1.38,0-2.52-.62-3.4-1.81-.88-1.24-1.31-2.85-1.31-4.9ZM1342.91,303.99h-6.77v-77.37h6.77v77.37Z"/>
        <path class="cls-1" d="M1382.49,305.42c-15.02,0-22.53-13.33-22.53-40,0-13.12,1.88-23.1,5.63-29.97,3.76-6.87,9.29-10.32,16.61-10.32,3.47,0,6.75,1,9.89,2.99,3.09,2,5.59,4.75,7.44,8.27h.57l-.29-8.63v-34.73h6.77v110.95h-5.56l-.57-10.84h-.64c-1.85,3.95-4.25,6.99-7.2,9.08-2.95,2.12-6.32,3.19-10.13,3.19ZM1382.92,299.5c5.42,0,9.6-2.5,12.5-7.53,2.95-4.99,4.4-12.38,4.4-22.13v-4.42c0-11.69-1.43-20.25-4.25-25.69-2.83-5.44-7.13-8.18-12.93-8.18s-9.56,2.92-11.98,8.75c-2.42,5.82-3.64,14.24-3.64,25.27s1.26,19.56,3.78,25.31c2.52,5.75,6.56,8.63,12.12,8.63Z"/>
        <path class="cls-1" d="M1457.22,303.99l-.86-10.84h-.29c-3.71,8.18-9.32,12.26-16.83,12.26-5.04,0-9.1-2-12.15-6.04-3.09-3.99-4.61-9.39-4.61-16.14,0-7.37,2.21-13.19,6.63-17.52,4.42-4.28,10.62-6.63,18.61-7.01l8.34-.43v-6.42c0-7.23-.9-12.48-2.71-15.81-1.81-3.28-4.8-4.94-8.98-4.94-4.42,0-8.94,1.45-13.55,4.35l-2.92-5.35c5.37-3.33,11.01-4.99,16.9-4.99,6.37,0,10.96,2.02,13.76,6.04,2.8,4.02,4.21,10.72,4.21,20.13v52.7h-5.56ZM1440.75,299.64c4.85,0,8.6-2.4,11.31-7.15,2.66-4.8,4.02-11.55,4.02-20.3v-8.06l-8.06.43c-6.23.33-10.86,2.07-13.88,5.16-3.02,3.14-4.52,7.68-4.52,13.67,0,5.61,1,9.72,2.99,12.34,2,2.61,4.71,3.92,8.13,3.92Z"/>
        <path class="cls-1" d="M1502.07,305.42c-15.02,0-22.53-13.33-22.53-40,0-13.12,1.88-23.1,5.63-29.97,3.76-6.87,9.29-10.32,16.61-10.32,3.47,0,6.75,1,9.89,2.99,3.09,2,5.59,4.75,7.44,8.27h.57l-.29-8.63v-34.73h6.77v110.95h-5.56l-.57-10.84h-.64c-1.85,3.95-4.25,6.99-7.2,9.08-2.95,2.12-6.32,3.19-10.13,3.19ZM1502.5,299.5c5.42,0,9.6-2.5,12.5-7.53,2.95-4.99,4.4-12.38,4.4-22.13v-4.42c0-11.69-1.43-20.25-4.25-25.69-2.83-5.44-7.13-8.18-12.93-8.18s-9.56,2.92-11.98,8.75c-2.42,5.82-3.64,14.24-3.64,25.27s1.26,19.56,3.78,25.31c2.52,5.75,6.56,8.63,12.12,8.63Z"/>
        <path class="cls-1" d="M1593.2,305.42c-15.02,0-22.53-13.33-22.53-40,0-13.12,1.88-23.1,5.63-29.97,3.76-6.87,9.29-10.32,16.61-10.32,3.47,0,6.75,1,9.89,2.99,3.09,2,5.59,4.75,7.44,8.27h.57l-.29-8.63v-34.73h6.77v110.95h-5.56l-.57-10.84h-.64c-1.85,3.95-4.25,6.99-7.2,9.08-2.95,2.12-6.32,3.19-10.13,3.19ZM1593.63,299.5c5.42,0,9.6-2.5,12.5-7.53,2.95-4.99,4.4-12.38,4.4-22.13v-4.42c0-11.69-1.43-20.25-4.25-25.69-2.83-5.44-7.13-8.18-12.93-8.18s-9.56,2.92-11.98,8.75c-2.42,5.82-3.64,14.24-3.64,25.27s1.26,19.56,3.78,25.31c2.52,5.75,6.56,8.63,12.12,8.63Z"/>
        <path class="cls-1" d="M1659.94,305.42c-8.18,0-14.48-3.47-18.85-10.46-4.42-6.94-6.61-16.66-6.61-29.12,0-13.22,1.95-23.29,5.89-30.26,3.9-6.96,9.56-10.46,16.92-10.46,6.42,0,11.48,3.07,15.19,9.17,3.71,6.11,5.56,14.33,5.56,24.7v6.28h-36.65c.1,11.27,1.69,19.7,4.78,25.31,3.09,5.61,7.77,8.41,14.05,8.41,4.85,0,9.96-1.59,15.33-4.78v6.56c-4.94,3.09-10.15,4.63-15.62,4.63ZM1656.88,231.26c-9.32,0-14.43,9.29-15.33,27.88h29.73c0-8.51-1.31-15.28-3.9-20.32-2.59-5.04-6.08-7.56-10.51-7.56Z"/>
        <path class="cls-1" d="M1753.21,204.8c-7.84,0-14.09,4.16-18.71,12.43-4.66,8.32-6.96,19.8-6.96,34.49,0,9.56,1.07,17.87,3.21,24.96,2.14,7.08,5.21,12.53,9.2,16.33,3.99,3.8,8.63,5.7,13.9,5.7s10.08-.97,13.98-2.92v6.42c-3.71,2.14-8.58,3.21-14.62,3.21-6.61,0-12.41-2.14-17.38-6.42-4.97-4.28-8.79-10.46-11.5-18.59-2.71-8.08-4.06-17.71-4.06-28.83,0-16.64,2.97-29.71,8.87-39.22,5.94-9.51,14-14.26,24.22-14.26,6.37,0,11.93,1.47,16.69,4.42l-3.21,6.13c-3.99-2.57-8.53-3.85-13.62-3.85Z"/>
        <path class="cls-1" d="M1827.59,265.13c0,13.03-2.07,22.98-6.18,29.93-4.11,6.89-9.98,10.36-17.64,10.36s-13.36-3.47-17.35-10.36c-4.04-6.94-6.04-16.9-6.04-29.93,0-26.67,7.89-40,23.67-40,7.42,0,13.19,3.49,17.33,10.48,4.14,6.99,6.2,16.83,6.2,29.52ZM1787.44,265.13c0,11.17,1.33,19.61,3.99,25.31,2.66,5.7,6.82,8.56,12.48,8.56,11.08,0,16.61-11.29,16.61-33.87s-5.54-33.59-16.61-33.59c-5.8,0-10.01,2.8-12.6,8.41-2.59,5.61-3.87,14-3.87,25.17Z"/>
        <path class="cls-1" d="M1851.4,303.99h-6.77v-110.95h6.77v110.95Z"/>
        <path class="cls-1" d="M1915.65,265.13c0,13.03-2.07,22.98-6.18,29.93-4.11,6.89-9.98,10.36-17.64,10.36s-13.36-3.47-17.35-10.36c-4.04-6.94-6.04-16.9-6.04-29.93,0-26.67,7.89-40,23.67-40,7.42,0,13.19,3.49,17.33,10.48,4.14,6.99,6.2,16.83,6.2,29.52ZM1875.5,265.13c0,11.17,1.33,19.61,3.99,25.31,2.66,5.7,6.82,8.56,12.48,8.56,11.08,0,16.61-11.29,16.61-33.87s-5.54-33.59-16.61-33.59c-5.8,0-10.01,2.8-12.6,8.41-2.59,5.61-3.87,14-3.87,25.17Z"/>
        <path class="cls-1" d="M1998.44,303.99v-52.7c0-12.98-3.8-19.47-11.41-19.47-5.23,0-9.01,2.28-11.29,6.8-2.33,4.56-3.47,11.24-3.47,20.08v45.28h-6.7v-52.7c0-6.56-.93-11.43-2.78-14.67-1.85-3.19-4.73-4.8-8.63-4.8-5.13,0-8.87,2.33-11.2,6.99-2.33,4.66-3.49,12.22-3.49,22.68v42.5h-6.77v-77.37h5.7l.57,10.77h.64c3.09-8.18,8.34-12.26,15.76-12.26,4.28,0,7.65,1.14,10.13,3.42,2.47,2.28,4.25,5.61,5.35,9.98,1.85-4.75,4.14-8.18,6.85-10.27,2.71-2.09,6.23-3.14,10.55-3.14,5.85,0,10.13,2.23,12.84,6.75,2.71,4.47,4.06,11.67,4.06,21.56v50.56h-6.7Z"/>
        <path class="cls-1" d="M2049.56,225.27c15.12,0,22.68,13.29,22.68,39.86,0,13.12-1.88,23.13-5.63,29.97-3.76,6.89-9.17,10.32-16.26,10.32-3.71,0-7.08-1.02-10.13-3.07-3.04-2.04-5.56-5.06-7.56-9.06h-.57l-.93,10.7h-5.56v-110.95h6.77v34.44l-.29,9.34h.57c4.09-7.7,9.72-11.55,16.9-11.55ZM2049.28,231.54c-5.94,0-10.24,2.61-12.91,7.84-2.66,5.23-3.99,13.81-3.99,25.74v1.78c0,21.58,5.73,32.37,17.18,32.37,5.23,0,9.13-2.78,11.72-8.34,2.59-5.56,3.9-14.17,3.9-25.81s-1.26-19.56-3.78-25.17c-2.52-5.61-6.56-8.41-12.12-8.41Z"/>
        <path class="cls-1" d="M2088.28,205.16c0-2.14.43-3.8,1.31-4.99.88-1.19,2.02-1.78,3.4-1.78,1.28,0,2.31.59,3.07,1.78.76,1.19,1.14,2.85,1.14,4.99s-.38,3.66-1.14,4.9c-.76,1.19-1.78,1.81-3.07,1.81-1.38,0-2.52-.62-3.4-1.81-.88-1.24-1.31-2.85-1.31-4.9ZM2096.06,303.99h-6.77v-77.37h6.77v77.37Z"/>
        <path class="cls-1" d="M2146.68,303.99l-.86-10.84h-.29c-3.71,8.18-9.32,12.26-16.83,12.26-5.04,0-9.1-2-12.15-6.04-3.09-3.99-4.61-9.39-4.61-16.14,0-7.37,2.21-13.19,6.63-17.52,4.42-4.28,10.62-6.63,18.61-7.01l8.34-.43v-6.42c0-7.23-.9-12.48-2.71-15.81-1.81-3.28-4.8-4.94-8.98-4.94-4.42,0-8.94,1.45-13.55,4.35l-2.92-5.35c5.37-3.33,11.01-4.99,16.9-4.99,6.37,0,10.96,2.02,13.76,6.04,2.8,4.02,4.21,10.72,4.21,20.13v52.7h-5.56ZM2130.21,299.64c4.85,0,8.6-2.4,11.31-7.15,2.66-4.8,4.02-11.55,4.02-20.3v-8.06l-8.06.43c-6.23.33-10.86,2.07-13.88,5.16-3.02,3.14-4.52,7.68-4.52,13.67,0,5.61,1,9.72,2.99,12.34,2,2.61,4.71,3.92,8.13,3.92Z"/>
      </g>
      <g>
        <g>
          <path class="cls-1" d="M9.88,162.38c26.14,96.84,80.62,190.9,154.15,259.1,85.64-20.52,168.71-65.3,233.84-125.64-1.43-1.2-2.78-2.5-4.02-3.91h0s-15.78-16.38-40.37-18.04c-28.36-1.92-65.28,40.31-65.28,40.31h0c-21.68,25.8-54.18,42.22-90.53,42.22-65.26,0-118.16-52.9-118.16-118.16s52.9-118.16,118.16-118.16c14.01,0,27.45,2.44,39.93,6.92,29.11,10.45,52.9,32,66.33,59.55v-.04s25.63,53.11,53.32,58.2c24.01,4.42,44.22-7.85,44.22-7.85h0c2.8-1.81,5.87-3.25,9.15-4.27-26.39-83.09-75.05-161.53-136.14-222.66C176.18,35.29,81.19,90.14,9.88,162.38ZM285.44,65.1c0,15.73-12.75,28.49-28.48,28.49s-28.51-12.76-28.51-28.49,12.76-28.5,28.51-28.5,28.48,12.76,28.48,28.5Z"/>
          <g>
            <path class="cls-1" d="M388.39,134.07c3.37,12.44,6.33,25.02,8.87,37.68,7.38,16.34,13.93,33.01,19.6,49.88,5.34-12.19,10.18-24.53,14.47-36.98-13.06-17.68-27.45-34.57-42.95-50.58Z"/>
            <path class="cls-1" d="M222.69,16.29c-12.66-5.94-25.48-11.38-38.41-16.29-17.82,14.01-34.88,29.29-51.07,45.62,14.32-4.01,28.81-7.52,43.42-10.48,15.12-6.95,30.5-13.25,46.05-18.85Z"/>
            <path class="cls-1" d="M213.78,416.63c12.69,5.49,25.54,10.44,38.53,14.81,18.65-14.15,36.44-29.79,53.19-46.64-12.61,3.8-25.37,7.15-38.24,10.04-17.48,8.24-35.35,15.52-53.48,21.79Z"/>
            <path class="cls-1" d="M16.5,213.43c-6.03,13.03-11.55,26.23-16.5,39.55,14.98,18.62,31.36,36.43,48.91,53.25-4.49-14.45-8.41-29.11-11.73-43.92-7.66-16.02-14.55-32.35-20.67-48.88Z"/>
          </g>
          <g>
            <path class="cls-1" d="M96.79,396.42c10.48,1.06,21.03,1.79,31.64,2.18-27.38-30.04-51.48-63.61-71.81-99.33,10.21,33.88,23.62,66.6,40.17,97.15Z"/>
            <path class="cls-1" d="M395.99,337.85c1.12-9.85,1.95-19.77,2.47-29.74-28.39,25.49-59.9,48.1-93.4,67.18,31.65-9.66,62.25-22.19,90.93-37.44Z"/>
            <path class="cls-1" d="M33.79,93.88c-.83,11.51-1.29,23.11-1.4,34.76,32.89-28.86,69.53-54.28,108.41-75.42-37.21,10.07-73.26,23.71-107.01,40.66Z"/>
            <path class="cls-1" d="M341.06,34.35c-10.84-.91-21.76-1.49-32.72-1.74,26.99,31.2,50.9,65.75,70.78,102.42-9.55-34.96-22.36-68.85-38.06-100.68Z"/>
          </g>
          <g>
            <path class="cls-1" d="M138.91,243.71c-3.01-32.46,20.86-61.23,53.31-64.23,32.46-3.01,61.22,20.88,64.23,53.34,3.01,32.44-20.87,61.19-53.33,64.2-32.45,3.01-61.2-20.86-64.21-53.3Z"/>
            <path class="cls-1" d="M403.19,269.39c-.94-10.11,6.5-19.05,16.61-19.99,10.1-.94,19.04,6.49,19.98,16.59.94,10.12-6.49,19.07-16.59,20-10.11.94-19.06-6.49-20-16.61Z"/>
            <path class="cls-1" d="M242.7,65.1c0-7.86,6.38-14.26,14.27-14.26s14.24,6.39,14.24,14.26-6.39,14.25-14.24,14.25-14.27-6.39-14.27-14.25Z"/>
          </g>
        </g>
        <g>
          <path class="cls-1" d="M542.43,158.28c-30.68-14.03-43.08-22.19-43.08-40.15,0-14.03,11.42-27.74,36.88-27.74,20.56,0,35.9,6.2,44.72,10.77l10.12-39.49c-11.75-5.88-30.03-11.42-53.85-11.42-54.18,0-86.49,31.66-86.49,72.78,0,32.64,23.5,56.14,61.36,72.46,27.74,12.08,39.82,22.85,39.82,40.8s-14.03,31.33-40.8,31.33c-20.24,0-41.13-6.2-54.18-14.03l-.07.28c1.78,4.32,2.77,9.04,2.77,13.99,0,10.48-4.41,19.92-11.44,26.62,12.02,7.03,36.63,13.62,60.96,13.62,58.42,0,91.39-31.99,91.39-75.72,0-32.96-17.95-56.14-58.1-74.09Z"/>
          <path class="cls-1" d="M642.3,47.63c-15.01,0-25.78,10.77-25.78,25.79s10.44,25.78,25.78,25.78,26.11-10.12,26.11-25.78-10.44-25.79-26.11-25.79Z"/>
          <rect class="cls-1" x="618.47" y="123.03" width="48.31" height="181.8"/>
          <path class="cls-1" d="M813.65,170.68v-1.3c26.76-10.12,40.14-31.33,40.14-54.18,0-20.56-9.46-37.21-24.48-47.33-17.3-12.08-38.84-15.99-69.19-15.99-24.48,0-49.29,2.28-63.65,5.22v246.75c11.75,1.63,29.7,3.26,53.53,3.26,44.71,0,72.78-8.16,89.76-23.5,14.69-13.06,22.85-31.99,22.85-51.57,0-31.99-20.89-54.18-48.96-61.36ZM744.45,89.41c4.24-.98,10.77-1.63,21.22-1.63,21.54,0,40.15,8.16,40.15,32.96,0,20.56-16.32,35.25-43.74,35.25h-17.63v-66.58ZM763.71,270.88c-8.49,0-14.36-.32-19.26-1.3v-78.33h17.95c24.81,0,49.61,10.44,49.61,39.49s-22.19,40.14-48.31,40.14Z"/>
        </g>
      </g>
    </g>
  </g>
</svg>