<svg xmlns="http://www.w3.org/2000/svg" width="397.374" height="314.379" viewBox="0 0 397.374 314.379">
  <g id="Grupo_2092" data-name="Grupo 2092" transform="translate(0.801)">
    <g id="Grupo_2086" data-name="Grupo 2086" transform="translate(0 29.794)">
      <path id="Trazado_3277" data-name="Trazado 3277" d="M506.459,637.643c.4-1.136.8-2.273,1.017-2.905l-2.32-3.245c-.05-.07-.085-.162-.152-.207a11.739,11.739,0,0,1-4.974-7.08c-.15-.554-1.465-.792-2.893-1.5a7.739,7.739,0,0,1,2.026-1.295c2.2-.48,2.02-2.138,1.652-3.563-.337-1.3-1.556-2.408-1.764-3.7-.154-.958.69-2.076,1.09-3.123l.114-.04c0,.2,0,.405,0,.607,1.284,3.231,4.4,4.07,8.488,2.484a24.671,24.671,0,0,1,4.5-.97c1.52-.277,3.332-.046,4.528-.806,3.888-2.469,7.63-5.19,11.274-8.012,2.112-1.636,3.741-3.938,5.944-5.405,1.679-1.118,3.918-1.4,5.909-2.046,1.9,1.12,4.243,1.836,4.126,4.747-.007.176.7.58,1.032.536,1.465-.2,2.924-.467,4.364-.8,1.528-.356,3.032-.815,4.611-1.247.312,3.174.6,6.082.884,8.99.659,2.116,2.043.6,3.386.216a6.954,6.954,0,0,1,.241,1.71c-.29,2.708-2.064,5.246-.888,8.132a1.07,1.07,0,0,1-.181.983c-3.418,2.244-4.238,7.513-9.236,7.934a1.917,1.917,0,0,0-1.207.782c-2.172,3.131-5.306,4.462-8.856,5.552-1.989.611-3.6,2.571-5.263,4.051a2.132,2.132,0,0,0-.5,1.84c1.058,3.251-.682,5.762-2.156,8.272a3.512,3.512,0,0,1-5.539.629c-2.152-2.477-5.107-3.608-7.822-4.739-3.557-1.483-5.674-3.523-6.276-7.252-.05-.309-.351-.578-.524-.849Z" transform="translate(-497.137 -366.068)" fill="#b3cfc0" stroke="#00634b" stroke-width="0.8"/>
      <path id="Trazado_3278" data-name="Trazado 3278" d="M599.38,574.258c-1.344.383-2.727,1.9-3.387-.216-.286-2.908-.572-5.816-.884-8.99-1.579.432-3.083.891-4.611,1.247-1.44.336-2.9.608-4.364.8-.33.044-1.04-.36-1.032-.536.117-2.911-2.229-3.627-4.126-4.746,1.917-4.4,3.909-8.775,5.718-13.223.947-2.328,2.007-3.311,4.777-2.409,2.3.748,5,1.649,7.281-.5l13.9-2.063c2.3-1.837,4.474-4,4.631-7.846.068-1.684,1.886-3.778,3.479-4.78a5.91,5.91,0,0,0,2.872-3.554c.563-1.756.485-4.617,3.811-3.678.883,1.635,1.513,4.419,2.7,4.68,2.946.649,3.472,3.582,5.68,4.685l-3.524,1.41c.65,1.2,1.283,2.4,1.961,3.584a8.97,8.97,0,0,0,.928,1.235c1.688,2.023,1.4,3.619-.86,5.046a11.346,11.346,0,0,0-2.582,2.534c-.269.332-.289,1.394-.1,1.49,2.886,1.468,2.619,4.1,2.572,6.656l-5.151-3.476c-1.105,1.8-1.105,1.8-5.405,1.053l-1.307,4.016c-3.44-1.477-5.11.564-6.283,2.773l-5.679-1.378q-.6,2.019-1.216,4.071a8.606,8.606,0,0,0-2.553-.387c-.452.069-.927.807-1.155,1.345A35.236,35.236,0,0,1,604,567.065C602.579,569.531,600.933,571.868,599.38,574.258Z" transform="translate(-537.215 -331.048)" fill="#b3cfc0" stroke="#00634b" stroke-width="0.8"/>
      <path id="Trazado_3279" data-name="Trazado 3279" d="M680.5,550.428c.047-2.56.314-5.187-2.572-6.656-.188-.1-.169-1.158.1-1.49a11.348,11.348,0,0,1,2.582-2.534c2.256-1.427,2.548-3.023.86-5.046a8.958,8.958,0,0,1-.928-1.235c-.678-1.181-1.31-2.387-1.961-3.584l3.524-1.409.911.571,2.718-3.857c.052-.567-.194-1.816.29-2.247.733-.653,2.307-1.321,2.938-.959,2.565,1.467,3.249-.372,4.431-1.9,1.694-2.194,3.633-4.2,5.428-6.241a18.264,18.264,0,0,1,2.19,1.748c.484.56.745,1.308,1.208,1.891,1.127,1.42,4.762,1.609,5.409.185a3.518,3.518,0,0,1,4.137-2.214c1.307,1.347,2.534,2.786,3.941,4.019,1.758,1.542,3.664,2.916,5.507,4.362-.481,1.3-.883,2.638-1.478,3.883a3.641,3.641,0,0,1-1.4,1.341c-2.6,1.589-4.922,3.34-4.868,6.811a17.093,17.093,0,0,0-.281,2.174c-.007.71.5,1.679.188,2.091-1.514,2.015-3.225,3.881-4.866,5.8a31.42,31.42,0,0,0-3.46-.667c-2.739-.229-5.486-.392-8.234-.461a2.19,2.19,0,0,0-1.6.818,9.373,9.373,0,0,1-2.126,2.78c-.467,2.712-.631,2.846-3.47,1.741.238-2.6-2.865-4.2-4.525-2.231-.909,1.075-1.2,2.668-1.8,4.075Z" transform="translate(-583.504 -326.392)" fill="#b3cfc0" stroke="#00634b" stroke-width="0.8"/>
      <path id="Trazado_3280" data-name="Trazado 3280" d="M746.128,521.124c-.053-3.47,2.273-5.222,4.868-6.811a3.642,3.642,0,0,0,1.4-1.341c.6-1.245,1-2.583,1.478-3.883l.786-3.925a2.5,2.5,0,0,1,2.031-1.6c3.066-.045,6.209.634,9.182.156,2.27-.365,5.217-1.53,6.275-3.292,1.744-2.906,4.305-4.9,6.28-7.475.678,1.584,1.3,3.193,2.047,4.745,1.042,2.17,2.6,2.622,4.512,1.316a26.677,26.677,0,0,0,9.676-11.281c.979-2.193,2.094-4.624,5.149-4.734l.106.019c-1.264,4.964-3.385,9.505-7.214,12.985A48.076,48.076,0,0,1,785.887,501c-2.581,1.622-4.606,3.545-5.42,6.594a2.776,2.776,0,0,1-1.272,1.726c-3.016,1.213-3.518,2.4-2.28,5.377.712,1.715-.109,3.475-1.689,3.641-2.492.262-3.8,1.089-4.113,3.623a5.124,5.124,0,0,0,2.135,5.188,3.484,3.484,0,0,1,.353.507c-1.818,2.072-3.77,4.03-6.574,4.958l-3.649-5.127,2.38-3.979c-2.159-2.747-4.307-2.448-6.8-1.092-1.347.733-3.013.88-5.076,1.437-.372,1.185-1.81,1.651-3.5.62A42.587,42.587,0,0,1,746.128,521.124Z" transform="translate(-616.162 -311.651)" fill="#b3cfc0" stroke="#00634b" stroke-width="0.8"/>
      <path id="Trazado_3281" data-name="Trazado 3281" d="M737.728,556.037a42.64,42.64,0,0,0,4.252,3.342c1.693,1.032,3.131.566,3.5-.62,2.063-.557,3.729-.7,5.076-1.436,2.493-1.356,4.641-1.655,6.8,1.092-.745,1.246-1.559,2.608-2.38,3.979l3.649,5.127c-.63,1.545-.844,3.64-1.988,4.509-1.822,1.384-1.48,4.643-4.651,4.865-.769.054-1.2,2.259-2.145,3.019-2.831,2.27-6,2.687-9.748,2.634-2.653-.037-5.178-1.347-7.892-.622-1.018.272-2.255-.276-3.651-.49a29.916,29.916,0,0,0,1.828-4.265,8.057,8.057,0,0,0-.026-3.315c-.437-2.409,1.184-3.25,2.688-3.891-.1-1.423-.187-2.645-.275-3.865,1.64-1.917,3.351-3.784,4.865-5.8.31-.412-.2-1.381-.188-2.091A17.085,17.085,0,0,1,737.728,556.037Z" transform="translate(-607.761 -346.564)" fill="#b3cfc0" stroke="#00634b" stroke-width="0.8"/>
      <path id="Trazado_3282" data-name="Trazado 3282" d="M817.96,434.246q.181,1.028.362,2.056l-7.344-.9c-.7-.085-1.591-.489-2.06-.2-1.966,1.207-3.8,2.62-5.66,3.936.314.981.555,1.717.785,2.456.5,1.613-.716,5.146-2.267,5.628-2.872.893-2.585,2.542-2.168,4.967.211,1.229,1.514,3.909-1.543,4.448-1.507-2.034-3.022-4.061-4.515-6.1a10.236,10.236,0,0,1-1.443-2.221,36.442,36.442,0,0,1-1.02-3.946c-3.774,4.423-4.635,4.544-6.142,1.321.533-1.6,1.1-3.192,1.591-4.8.607-1.97.132-4.225,2.072-5.87.765-.648.764-2.2,1.112-3.34l8.146-6.609q1.431-1.161,2.864-2.32a41.05,41.05,0,0,0,3.92-2.745c1.157-1.014,1.995-1.327,2.832.25a15.275,15.275,0,0,0,1.005,1.472c1.286,1.185,2.31,2.587,4.409,2.728a3.914,3.914,0,0,1,2.7,2.112A77.145,77.145,0,0,1,817.96,434.246Z" transform="translate(-634.719 -281.129)" fill="#b3cfc0" stroke="#00634b" stroke-width="0.8"/>
      <path id="Trazado_3283" data-name="Trazado 3283" d="M809.1,471.243c3.056-.539,1.753-3.219,1.542-4.448-.418-2.425-.7-4.074,2.168-4.966,1.551-.482,2.768-4.015,2.267-5.628-.23-.74-.471-1.476-.785-2.456,1.855-1.316,3.694-2.729,5.66-3.936.469-.288,1.362.116,2.06.2l7.344.9c2.1,2.254,3.969,4.29,1.24,7.629-1.2,1.466-1.168,3.988-1.525,6.06a8.353,8.353,0,0,0,.336,2.49c-3.056.11-4.171,2.541-5.149,4.734a26.677,26.677,0,0,1-9.676,11.281c-1.912,1.306-3.47.854-4.512-1.316-.745-1.552-1.369-3.162-2.047-4.746l.494-1.052c0-.194,0-.387,0-.581a2.934,2.934,0,0,0-.032-.473Z" transform="translate(-645.748 -295.734)" fill="#b3cfc0" stroke="#00634b" stroke-width="0.8"/>
      <path id="Trazado_3284" data-name="Trazado 3284" d="M774.985,204.039c-.182.746-.3,1.514-.557,2.236-.679,1.946-1.211,3.747,1.786,4.144.521.069.98.619,1.478.953-1.332,2.157-6.262.715-4.266,5.039l-10.6,2.027,2.7,3.772c-3.656,1.253-7.565.459-8.643-1.785a39.949,39.949,0,0,0-2.2-4.63,3.9,3.9,0,0,0-2.426-1.382c-1.979-.341-4.008-.4-6.016-.572l-4.142-3.617.527-1.047,14.031-3.439c-.181-2.057.287-4.721-.749-6.52-1.318-2.289-.95-4.106-.311-6.2l1.567-.036c1.455,1.665,2.881,3.355,4.384,4.975a2.43,2.43,0,0,0,1.51.834c2.248-.006,4.495-.165,6.805-.271.208,1.771.481,4.087.775,6.581Z" transform="translate(-614.238 -173.01)" fill="#b3cfc0" stroke="#00634b" stroke-width="0.8"/>
      <path id="Trazado_3285" data-name="Trazado 3285" d="M759.126,310.1l1.707,2.155c-.207.3-1.059.987-.956,1.474a49.894,49.894,0,0,0,1.952,6.936c.5,1.369.58,2.457-.511,3.489-1.323-.205-2.652-.375-3.965-.628-.921-.177-1.889-.81-2.714-.641a45.782,45.782,0,0,0-5.2,1.624c0,2.033.328,3.754-.071,5.285-.742,2.841-.832,6.119-3.621,7.989a31.8,31.8,0,0,1-4.363,2.082c-3.115.414-3.115.414-3.107-4.112-1.753-.24-3.545-.385-5.291-.752-1.648-.346-3.545-1.054-2.99-3.087.291-1.066,2-1.747,3.067-2.6,2.1-1.352,4.263-2.613,6.262-4.1a17.863,17.863,0,0,0,2.214-2.7,19.026,19.026,0,0,1,2.856-2.92,27.471,27.471,0,0,0,8.5-10.509c1.3.326,2.585.71,3.9.954A14.361,14.361,0,0,0,759.126,310.1Z" transform="translate(-608.403 -228.512)" fill="#b3cfc0" stroke="#00634b" stroke-width="0.8"/>
      <path id="Trazado_3286" data-name="Trazado 3286" d="M744.836,352.484A31.757,31.757,0,0,0,749.2,350.4c2.789-1.87,2.879-5.149,3.621-7.989.4-1.531.071-3.252.071-5.285a45.794,45.794,0,0,1,5.2-1.624c.825-.169,1.794.464,2.714.641,1.313.253,2.642.423,3.965.628a6.684,6.684,0,0,0-.5,1.72c-.027,2.349-1.075,3.708-3.393,3.723-.233,6.867-3.036,12.5-7.105,17.627q-.818,2.838-1.636,5.677c-.547.727-1.088,1.459-1.644,2.18-2.022,2.619-5.027,2.34-6.7-.507a8.376,8.376,0,0,0-2.038-1.752L737.12,360.8a12.571,12.571,0,0,1,.872-2.371,19.851,19.851,0,0,1,1.887-2.309l2.242,2.365Z" transform="translate(-611.856 -241.129)" fill="#b3cfc0" stroke="#00634b" stroke-width="0.8"/>
      <path id="Trazado_3287" data-name="Trazado 3287" d="M759.781,290.376a14.349,14.349,0,0,1-2.33-.066c-1.313-.244-2.6-.628-3.9-.954-1.161-.534-2.354-1.571-3.476-1.5a4.518,4.518,0,0,1-4.535-2.823c-1.911-3.736-4.257-5.99-8.688-3.974l-4.154-.073c-1.662-1.125-1.911-2.374-.569-4a17.864,17.864,0,0,0,2.585-3.931,22.377,22.377,0,0,0,1.017-4.175l1.109-1.061c3.121,1.254,6.082,3.165,9.726,2.223.427-.111.975.218,1.459.366,1.849.566,3.7,1.142,5.542,1.714v3.917l-1.876.517,1.932,2.67c.729-.418,1.485-.8,2.192-1.267s1.34-.986,1.983-1.466l1.544,1.257c1.109,1.519,2.783,2.74,1.73,5.157-.216.5,1.268,1.734,2.188,2.913Z" transform="translate(-609.059 -208.785)" fill="#b3cfc0" stroke="#00634b" stroke-width="0.8"/>
      <path id="Trazado_3288" data-name="Trazado 3288" d="M778.053,263.433l-1.544-1.257c-.643.48-1.288,1.011-1.983,1.466s-1.463.85-2.192,1.267l-1.932-2.67,1.876-.517V257.8c.2-.475.7-1.12.549-1.4-1.346-2.409.045-3.759,1.679-5.243a35.508,35.508,0,0,0,4.482-4.911c.422-.561.068-1.706.069-2.584l-2.7-3.772,10.6-2.027a2.244,2.244,0,0,1,1.447,2.881,27.922,27.922,0,0,0-.224,3.691l-1.3.195-1.973,5.115c2.974,2.159,2.418,3.91.208,7.276C783.185,259.954,779.366,260.233,778.053,263.433Z" transform="translate(-627.766 -194.471)" fill="#b3cfc0" stroke="#00634b" stroke-width="0.8"/>
      <path id="Trazado_3289" data-name="Trazado 3289" d="M788.782,195.88l-4.344,1.058c-.294-2.494-.567-4.81-.775-6.581-2.311.106-4.558.266-6.805.271a2.429,2.429,0,0,1-1.51-.834c-1.5-1.62-2.929-3.31-4.384-4.974.825-1.256,1.4-2.826,2.525-3.7,2.455-1.921,5.185-3.491,7.8-5.2,1.68.447,3.97-.53,4.772,2.107.06.2,1.474-.015,2.259-.037,3.17,1.3,3.321,2.139,1.809,5.324-.52,1.095-.133,2.635-.1,3.971a19.23,19.23,0,0,1,.152,3.529A48.09,48.09,0,0,1,788.782,195.88Z" transform="translate(-628.035 -164.852)" fill="#b3cfc0" stroke="#00634b" stroke-width="0.8"/>
      <path id="Trazado_3290" data-name="Trazado 3290" d="M816.284,406.55a15.256,15.256,0,0,1-1.005-1.473c-.837-1.577-1.676-1.264-2.832-.25a40.927,40.927,0,0,1-3.922,2.745c.207-1.836.067-3.808.72-5.469.66-1.677.174-2.372-1.138-3.042s-2.657-1.337-3.963-2.046c-2.091-1.136-3.715-2.489-2.446-5.241.18-.39-.028-.96-.056-1.447l.077-.03c1.5.6,3.68.794,4.347,1.9,1.318,2.183,2.575,2.974,4.914,1.924.214-.1.612.215.927.337l.753.567c1.459-1.5,3.111-2.718,3.755-5.006.662-2.351,6.191-3.464,7.717-1.834-.48,1.141-1.673,2.617-1.321,3.366,2.178,4.633.122,7.926-2.918,11.072C818.658,403.9,817.485,405.239,816.284,406.55Z" transform="translate(-642.512 -265.957)" fill="#b3cfc0" stroke="#00634b" stroke-width="0.8"/>
      <path id="Trazado_3291" data-name="Trazado 3291" d="M830.053,407.257c1.2-1.311,2.374-2.648,3.608-3.926,3.04-3.146,5.1-6.44,2.918-11.072-.352-.75.841-2.226,1.32-3.366,2.676,1.561,4.709,3.6,5.155,6.848.044.32.21.783.449.893,3.175,1.441,2.492,4.8,3.159,7.238.385,1.4-1.366,3.646-2.577,5.177-1.919,2.427-4.437,4.4-3.26,8.129.21.664-.838,1.726-1.3,2.6a76.791,76.791,0,0,0-2.359-7.684,3.913,3.913,0,0,0-2.7-2.112C832.363,409.844,831.339,408.442,830.053,407.257Z" transform="translate(-656.281 -266.664)" fill="#b3cfc0" stroke="#00634b" stroke-width="0.8"/>
      <path id="Trazado_3292" data-name="Trazado 3292" d="M784.208,416.778c-.348,1.14-.348,2.692-1.112,3.34-1.941,1.644-1.465,3.9-2.072,5.87-.5,1.612-1.058,3.2-1.591,4.8-1.115.208-5.541-1.65-5.886-2.507a2.488,2.488,0,0,1-.135-.976c.08-2.672.178-5.344.272-8.015.709-1.874.952-4.036,3.331-4.817.383-.126.682-.911.778-1.436.28-1.537.437-3.1.643-4.645.779-1.033,2.277-2.125,2.2-3.088-.2-2.5,1.766-5.389-1.034-7.537-.07-.054.239-.6.371-.919a10.581,10.581,0,0,0,1.552-2.047c.97-2.237,1.8-4.536,2.678-6.812l4.21,2.582-.077.03c-3.675,1.711-4.213,5.557-5.029,8.685-1.052,4.034-1.042,8.405-1.015,12.628C782.3,413.524,780.839,416.286,784.208,416.778Z" transform="translate(-629.204 -266.234)" fill="#b3cfc0" stroke="#00634b" stroke-width="0.8"/>
      <path id="Trazado_3293" data-name="Trazado 3293" d="M780.608,385.2c-.882,2.275-1.708,4.575-2.678,6.812a10.581,10.581,0,0,1-1.552,2.047l-5.544-.242.7-3.642-5.639-2.344,1.636-5.677c2.319,3.354,3.985,3.377,7.613,1.155,1.3-.8,3.447-.27,5.2-.187A11.108,11.108,0,0,1,780.608,385.2Z" transform="translate(-625.612 -263.444)" fill="#b3cfc0" stroke="#00634b" stroke-width="0.8"/>
      <path id="Trazado_3294" data-name="Trazado 3294" d="M791.178,167.854c-.784.022-2.2.235-2.259.037-.8-2.638-3.092-1.66-4.771-2.107-.872-2.607-4.049-4.3-3.049-7.663.027-.091-.174-.311-.314-.382-1.276-.642-2.563-1.263-3.847-1.89,1.627-1.144,2.846-1.641,5.123-.407,2.661,1.443,5.629,3.342,9.1,2.536C794.031,161.267,791.8,164.561,791.178,167.854Z" transform="translate(-630.89 -154.724)" fill="#b3cfc0" stroke="#00634b" stroke-width="0.8"/>
      <path id="Trazado_3295" data-name="Trazado 3295" d="M822.418,401.478l-.753-.567Z" transform="translate(-652.271 -272.409)" fill="#b3cfc0" stroke="#00634b" stroke-width="0.8"/>
      <path id="Trazado_3296" data-name="Trazado 3296" d="M607.359,482.316c-3.326-.939-3.248,1.922-3.811,3.678a5.91,5.91,0,0,1-2.872,3.554c-1.593,1-3.411,3.1-3.479,4.78-.157,3.847-2.327,6.009-4.631,7.846l-13.9,2.063c-.02-1.975,0-3.952-.07-5.925-.079-2.312-.233-4.622-.365-7.142-2.841,1.346-4.046.726-5.23-1.781a7.271,7.271,0,0,0-2.357-3.107c-2.754-1.685-5.229-4.786-9.123-2.6-.049.028-.157-.077-.24-.081-2.771-.126-2.1-2.643-2.715-4.052-.249-.139-.321-.212-.4-.216-2-.118-3.664-.182-5.256-2.217-1.394-1.784-2.835-2.888-2.206-5.457.227-.927-.781-2.156-1.226-3.248a16.314,16.314,0,0,0-3.006,1.555,8.355,8.355,0,0,1-7.515,1.871,64.157,64.157,0,0,1,2.837-6.315c.989-1.717,2.641-3.062,3.575-4.8.748-1.393.86-3.128,1.371-5.179,1.3-.217,1.319-3.412,4.026-3.143.456.045,1.339-1,1.491-1.67.594-2.594.96-5.239,1.444-7.859.084-.455.295-1.248.5-1.264,3.015-.253,3.675-3.208,5.555-4.738a15.478,15.478,0,0,1,1.476,3.242c.629,3.085,3.3,6.375,6.134,6.667,2.313.238,3.779.867,3.321,3.853l2.678-.677a17.226,17.226,0,0,1,3.014,2.436c1.47,1.848,2.681,3.9,4.038,5.844a1.763,1.763,0,0,0,.873.487c1.344.452,2.687.915,4.053,1.291.953.263,1.941.4,2.918.577,1.64.291,3.283.564,5.259.9l1.362-4.208c2.455,1.363,5.783.893,7.549,3.783a14.032,14.032,0,0,0,2.84,3.007,2.69,2.69,0,0,0,1.892.772c2.431-.5,3.583.438,3.3,2.94-.1.87-.246,1.735-.378,2.647h5.157a30.305,30.305,0,0,1-2.108,4.886C611.492,477.859,610.878,481.315,607.359,482.316Z" transform="translate(-517.131 -289.599)" fill="#b3cfc0" stroke="#00634b" stroke-width="0.8"/>
      <path id="Trazado_3297" data-name="Trazado 3297" d="M576.633,407.923c1.721-2.483,3.294-5.1,6.34-6.268.446-.171,1.111-.9,1.026-1.147-.751-2.2.856-3.283,1.936-4.706,1.015-1.337,2.507-2.575,1.927-4.616,3.1-1.283,3.431-5.717,7.161-6.277,1.585,1.425,3.047,2.9,2.563,5.348-.007.036,1.089.29,1.67.443q1.96,1.49,3.919,2.98a57.422,57.422,0,0,0,4.665,3.505c2.157,1.317,4.462,2.393,6.854,3.652,1.781-1.4,3.278-.13,4.866,1.324l-.968,1.553c-1.682.227-3.709-.057-4.968.795-2.109,1.428-2.729,3.719-.619,5.876-.922.357-1.526.543-2.085.82s-1.084.648-1.667,1c-.107,3.635-.569,4.061-4.488,4.084-.605,0-1.644-.157-1.75.082-1.4,3.165-4.543,2.506-6.989,3.4a34.607,34.607,0,0,0-4.5,2.477l-.152,2.861-2.678.676c.458-2.986-1.008-3.615-3.321-3.853-2.838-.292-5.5-3.582-6.134-6.667a15.469,15.469,0,0,0-1.476-3.243Q577.2,409.977,576.633,407.923Z" transform="translate(-535.138 -264.759)" fill="#b3cfc0" stroke="#00634b" stroke-width="0.8"/>
      <path id="Trazado_3298" data-name="Trazado 3298" d="M661.673,257.159c1.148-1.543,2.3-3.082,3.443-4.629s2.289-3.13,3.433-4.7c3.239-.775,7,.311,9.62-2.744.261-.3.965-.28,1.47-.318,3.912-.295,7.869-.914,11.294,1.892.281.23,1.1-.2,1.672-.323a7.632,7.632,0,0,0,.919,4.664c.177.278-.279.938-.4,1.433-.715,2.95-1.453,5.9.3,8.455l2.931,2.092a21.1,21.1,0,0,1-6.752,1.456c-2.144.068-3.958.316-5.476-1.237-3.649-3.734-7.685-2.678-11.752-1.07-2.355.932-6.959-.038-8.209-1.819C663.395,259.22,662.508,258.208,661.673,257.159Z" transform="translate(-575.79 -197.64)" fill="#b3cfc0" stroke="#00634b" stroke-width="0.8"/>
      <path id="Trazado_3299" data-name="Trazado 3299" d="M669.986,209.726c.623-1.117,1.558-2.176,1.778-3.367.2-1.1.057-2.8-.653-3.452-3.02-2.782-2.881-5.539.7-7.687.147-.088.394-.085.468-.2,2.179-3.471,4.894-4.772,8.954-2.884.7.325,2.593-1.078,3.45-2.093,2.316-2.742,5.378-3.3,8.29-1.175q.8,3.631,1.606,7.263c-1.11.9-2.986,1.11-2.786,3.223.029.311-.673.691-1.037,1.038-1.778,1.695-3.622,3.328-5.315,5.1-1.321,1.386-2.43,2.853-4.741,2.071-.563-.191-1.395.376-2.091.626-3.05,1.1-5.71,3.353-9.216,3.09q.092-.534.182-1.068Z" transform="translate(-579.281 -170.425)" fill="#b3cfc0" stroke="#00634b" stroke-width="0.8"/>
      <path id="Trazado_3300" data-name="Trazado 3300" d="M697.989,230.557c-.57.123-1.391.553-1.672.323-3.425-2.806-7.382-2.187-11.294-1.892-.505.038-1.209.013-1.47.318-2.62,3.055-6.381,1.969-9.62,2.744l-1-1.443c2.91-2.66,5.809-5.332,8.74-7.968a4.629,4.629,0,0,1,1.63-1,28.546,28.546,0,0,0,2.869-.622c1.013-.442,1.839-1.63,2.831-1.742,3.386-.383,4.194-2.8,4.908-5.459.528-1.968,2.543-2.12,3.922-2.329.733-.111,1.766,1.75,2.916,2.994l1.983-.147c1.729,2.243,4.556,2.456,6.831,3.688q-.263.524-.527,1.047c-2.878-.472-4.795.6-5.945,3.351a5.231,5.231,0,0,1-2.249,2.7C698.293,226.234,698.519,228.539,697.989,230.557Z" transform="translate(-581.174 -181.856)" fill="#b3cfc0" stroke="#00634b" stroke-width="0.8"/>
      <path id="Trazado_3301" data-name="Trazado 3301" d="M660.2,268.751c.835,1.049,1.722,2.061,2.491,3.156,1.25,1.78,5.854,2.75,8.209,1.819,4.067-1.609,8.1-2.664,11.752,1.069,1.517,1.553,3.332,1.305,5.476,1.237a21.107,21.107,0,0,0,6.751-1.455c2.176.206,3.139-.857,3.7-2.925.25-.926,1.578-1.561,2.417-2.328a22.382,22.382,0,0,1-1.017,4.175,17.872,17.872,0,0,1-2.585,3.931c-1.342,1.63-1.092,2.878.57,4-1.376.968-3.537,1.041-3.738,3.385-.024.28-.953.809-1.234.689-2.627-1.125-5.877-.318-8.05-3.1-1.188-1.523-3.266-3.135-5.032-3.242-2.752-.167-5.555.47-8.441.347-3.148-.135-6.307,1.142-9.537-.082-.723-.275-1.769.3-2.667.484q-.332-.557-.666-1.113.509-4.7,1.019-9.4C659.81,269.185,660.006,268.968,660.2,268.751Z" transform="translate(-574.319 -209.232)" fill="#b3cfc0" stroke="#00634b" stroke-width="0.8"/>
      <path id="Trazado_3302" data-name="Trazado 3302" d="M731.167,160.524c-.35,1.73-.783,3.449-1.024,5.194a2.063,2.063,0,0,0,1.817,2.563c2.165.527,1.143,2.707,1.774,4.055.354.756.715,1.508,1.073,2.263l-3.59,3.165c-2.866-1.249-4.029,1.373-5.822,2.562-3.432-.767-6.556-.494-8.836,2.623q-.8-3.631-1.606-7.263c3.021.5,2.605-2.354,3.584-3.775,1.444-2.095,2.672-4.34,3.969-6.535a16.5,16.5,0,0,0,.876-1.8c.133-.3.113-.7.305-.946s.614-.536.848-.474C727.057,162.812,728.358,158.564,731.167,160.524Z" transform="translate(-601.261 -157.247)" fill="#b3cfc0" stroke="#00634b" stroke-width="0.8"/>
      <path id="Trazado_3303" data-name="Trazado 3303" d="M670.537,230.017l-.41.484Z" transform="translate(-579.831 -190.716)" fill="#b3cfc0" stroke="#00634b" stroke-width="0.8"/>
      <path id="Trazado_3304" data-name="Trazado 3304" d="M700.615,203.382l1.89-4.773c-3.433-.767-6.557-.494-8.837,2.622-1.11.9-2.986,1.11-2.786,3.223.029.311-.673.691-1.037,1.038-1.779,1.695-3.622,3.328-5.315,5.1-1.321,1.386-2.43,2.853-4.741,2.071-.563-.191-1.395.376-2.091.626-3.05,1.1-5.71,3.353-9.215,3.09l-.832,1.042-.062.529c.021-.176.041-.352.062-.529l-.584.548q.236,1.052.472,2.1,1.295,2.1,2.592,4.2c2.91-2.66,5.81-5.332,8.74-7.968a4.629,4.629,0,0,1,1.63-1,28.535,28.535,0,0,0,2.869-.622c1.013-.442,1.839-1.63,2.831-1.742,3.386-.383,4.194-2.8,4.908-5.459.528-1.968,2.543-2.12,3.922-2.329.733-.111,1.766,1.75,2.916,2.994l1.982-.147,2.615-1.568Z" transform="translate(-578.369 -175.53)" fill="#b3cfc0" stroke="#00634b" stroke-width="0.8"/>
      <path id="Trazado_3305" data-name="Trazado 3305" d="M561.355,527.2c-.079-2.312-.233-4.622-.365-7.142-2.842,1.346-4.046.726-5.23-1.781a7.272,7.272,0,0,0-2.357-3.107c-2.754-1.685-5.229-4.786-9.123-2.6-.049.028-.157-.077-.24-.081-2.771-.126-2.105-2.643-2.715-4.052-.249-.139-.321-.212-.4-.216-2-.119-3.664-.182-5.256-2.217-1.394-1.784-2.835-2.888-2.206-5.457.227-.927-.781-2.156-1.226-3.248a16.337,16.337,0,0,0-3.006,1.554,8.353,8.353,0,0,1-7.515,1.871c-2.912,2.069-5.815,4.141-3.684,8.31-3.114,1.257-5.263,5.272-4.45,8.271a10.322,10.322,0,0,1-.646,7.82c-1.285,2.569-4.266,4.5-3.39,8.02.042.168-.482.444-.689.711-1.232,1.6-1.271,6.573-.079,8.251-3.288,3.487-3.495,4.611-1.687,8.006,1.436,2.7.3,5.579.166,8.314-.076,1.544-1.77,3.01-2.736,4.51l-.555.537a1.78,1.78,0,0,0-.5-.037h-.131c.051,0,.1.013.152.017-.051,0-.1-.011-.153-.017h0c-.113-.011-.226-.021-.338-.036l-.115.04h.114c0,.189,0,.379,0,.567,1.284,3.232,4.4,4.07,8.489,2.484a24.65,24.65,0,0,1,4.5-.97c1.52-.277,3.332-.046,4.528-.806,3.888-2.469,7.63-5.19,11.274-8.012,2.112-1.636,3.741-3.938,5.944-5.4,1.679-1.119,3.918-1.4,5.909-2.046,1.917-4.4,3.91-8.775,5.718-13.222.947-2.328,2.007-3.311,4.777-2.409,2.3.748,5,1.649,7.281-.5C561.4,531.15,561.422,529.173,561.355,527.2Z" transform="translate(-499.888 -318.486)" fill="#b3cfc0" stroke="#00634b" stroke-width="0.8"/>
      <path id="Trazado_3306" data-name="Trazado 3306" d="M670,497.261c3.519-1,4.132-4.457,5.778-6.993a30.267,30.267,0,0,0,2.108-4.887l3.015-1.987a2.48,2.48,0,0,0,1.046.6c.628.148,1.814.172,1.929-.1.86-2.03,1.511-4.149,2.235-6.237a5.477,5.477,0,0,1,.711-1.827c.906-1.028,2.673-1.812,2.827-2.878.29-2.008,1.89-1.986,2.954-2.674a35.546,35.546,0,0,1,4.523-2.14c.615,2.206-.106,5.184,3.33,5.758.172,2.848,3.122,2.642,4.534,4.126.995,1.395,1.888,2.878,3.012,4.16,1.145,1.306,2.515,2.414,3.787,3.609.855,3.408.389,4.436-2.344,5.948-.623.345-.946,1.229-1.407,1.866a3.518,3.518,0,0,0-4.137,2.214c-.647,1.423-4.281,1.235-5.409-.185-.463-.583-.724-1.331-1.208-1.891a18.271,18.271,0,0,0-2.19-1.748c-1.8,2.041-3.734,4.047-5.428,6.241-1.182,1.531-1.866,3.369-4.431,1.9-.632-.362-2.205.306-2.938.959-.484.431-.239,1.68-.29,2.247l-2.719,3.857-.911-.571c-2.208-1.1-2.735-4.036-5.68-4.686C671.512,501.68,670.882,498.9,670,497.261Z" transform="translate(-579.77 -304.545)" fill="#b3cfc0" stroke="#00634b" stroke-width="0.8"/>
      <path id="Trazado_3307" data-name="Trazado 3307" d="M742.878,501.993c.461-.636.784-1.521,1.407-1.866,2.732-1.512,3.2-2.54,2.344-5.948,1.814-3.2,2.319-7.831,7.748-7.1.125.017.286-.177.42-.284,2.089-1.666,3.979-1.407,5.71.5l-.6,2.849,1.237.908,2.5-2.995c.307.41.711,1.542,1.444,1.825,3.052,1.18,6,2.93,9.528,2.239a13.5,13.5,0,0,1,2.728.01,2.927,2.927,0,0,1,.032.473l.008.026-.929.265.929.265-.008.026-.494,1.052c-1.975,2.573-4.536,4.57-6.28,7.476-1.058,1.762-4,2.927-6.275,3.292-2.972.478-6.115-.2-9.182-.156a2.5,2.5,0,0,0-2.031,1.6l-.786,3.925c-1.843-1.446-3.749-2.82-5.507-4.362C745.412,504.779,744.185,503.341,742.878,501.993Z" transform="translate(-614.609 -312.936)" fill="#b3cfc0" stroke="#00634b" stroke-width="0.8"/>
      <path id="Trazado_3308" data-name="Trazado 3308" d="M774.549,474.1a13.513,13.513,0,0,0-2.728-.01c-3.526.691-6.476-1.06-9.527-2.239-.732-.283-1.137-1.415-1.444-1.825l-2.5,2.995-1.237-.908.6-2.849c-1.731-1.908-3.62-2.168-5.71-.5-.135.107-.295.3-.42.284-5.429-.731-5.934,3.9-7.748,7.1-1.272-1.195-2.642-2.3-3.787-3.609-1.124-1.281-2.017-2.765-3.012-4.16,3.134-.461,5.1-4.228,4.062-8.042,2.677-1.2,5.868-.691,8.386-2.88,2.044-1.777,2.612-3.209.581-5.292.945-1.7,1.673-3.588,4.2-3.45.66.036,1.35-.486,2.027-.752-.093,2.671-.191,5.343-.271,8.015a2.485,2.485,0,0,0,.135.976c.345.856,4.771,2.715,5.886,2.507,1.507,3.223,2.368,3.1,6.142-1.321a36.421,36.421,0,0,0,1.02,3.946,10.229,10.229,0,0,0,1.443,2.221c1.492,2.044,3.008,4.071,4.515,6.1Q774.857,472.254,774.549,474.1Z" transform="translate(-611.817 -294.9)" fill="#b3cfc0" stroke="#00634b" stroke-width="0.8"/>
      <path id="Trazado_3309" data-name="Trazado 3309" d="M792.059,419.17c-3.369-.492-1.909-3.254-1.919-4.859-.027-4.223-.037-8.594,1.015-12.628.816-3.128,1.354-6.975,5.029-8.685.028.487.237,1.056.056,1.447-1.269,2.751.355,4.1,2.446,5.241,1.306.709,2.639,1.37,3.963,2.046s1.8,1.364,1.138,3.042c-.653,1.66-.513,3.633-.72,5.469l-2.862,2.32Z" transform="translate(-637.055 -268.626)" fill="#b3cfc0" stroke="#00634b" stroke-width="0.8"/>
      <path id="Trazado_3310" data-name="Trazado 3310" d="M808.965,498.943c0,.194,0,.387,0,.581l.007-.025v-.53Z" transform="translate(-646.2 -319.271)" fill="#b3cfc0" stroke="#00634b" stroke-width="0.8"/>
      <path id="Trazado_3311" data-name="Trazado 3311" d="M730.551,248.8c-.839.767-2.167,1.4-2.417,2.328-.558,2.068-1.521,3.131-3.7,2.925l-2.93-2.092c-1.749-2.552-1.012-5.505-.3-8.455.12-.495.577-1.155.4-1.433a7.633,7.633,0,0,1-.919-4.664c.53-2.018.3-4.323,2.855-5.434a5.231,5.231,0,0,0,2.249-2.7c1.151-2.749,3.068-3.822,5.945-3.351l4.143,3.617L733.106,234a32.958,32.958,0,0,0,2.564,3.165c2.443,2.471,2.229,3.713-.648,5.663-1.662,1.126-4.378,1.829-3.362,4.908Z" transform="translate(-603.877 -188.706)" fill="#b3cfc0" stroke="#00634b" stroke-width="0.8"/>
      <path id="Trazado_3312" data-name="Trazado 3312" d="M741.745,251.148c-1.016-3.079,1.7-3.781,3.362-4.908,2.877-1.95,3.091-3.191.648-5.663a32.97,32.97,0,0,1-2.564-3.165l2.778-4.465c2.009.173,4.037.231,6.016.572a3.9,3.9,0,0,1,2.426,1.382,39.926,39.926,0,0,1,2.2,4.63c1.077,2.244,4.987,3.037,8.643,1.785,0,.877.352,2.023-.07,2.584a35.509,35.509,0,0,1-4.482,4.911c-1.634,1.484-3.025,2.834-1.679,5.243.154.277-.35.922-.549,1.4-1.847-.572-3.693-1.148-5.542-1.714-.484-.149-1.032-.477-1.459-.366C747.827,254.313,744.866,252.4,741.745,251.148Z" transform="translate(-613.961 -192.117)" fill="#b3cfc0" stroke="#00634b" stroke-width="0.8"/>
      <path id="Trazado_3313" data-name="Trazado 3313" d="M730.025,203.093l2.615-1.568c2.46.971,4.193-.941,6.22-1.633.448-.153,1.075-1.1.951-1.407-.947-2.374.519-5.194-1.39-7.354l3.59-3.165c2.5.636,4.729,2.515,7.559,1.688q.128.482.256.964c-.639,2.1-1.006,3.915.311,6.2,1.035,1.8.568,4.463.748,6.52l-14.031,3.439C734.581,205.549,731.754,205.337,730.025,203.093Z" transform="translate(-608.465 -170.615)" fill="#b3cfc0" stroke="#00634b" stroke-width="0.8"/>
      <path id="Trazado_3314" data-name="Trazado 3314" d="M732.624,321.027c-.2-.732-.2-1.642-.649-2.164-1.845-2.149-2.189-4.318-.656-6.777a1.675,1.675,0,0,0-.064-1.463c-.676-1.086-1.505-2.077-2.275-3.105l5.165-8.512c-.555-.385-1.65-.819-1.632-1.2a5.368,5.368,0,0,1,1.036-2.452c.655-1.006,1.467-1.909,2.212-2.856,4.431-2.015,6.777.239,8.688,3.974a4.518,4.518,0,0,0,4.535,2.823c1.122-.073,2.315.964,3.476,1.5a27.469,27.469,0,0,1-8.5,10.509,19.026,19.026,0,0,0-2.856,2.92,17.862,17.862,0,0,1-2.214,2.7C736.887,318.414,734.722,319.674,732.624,321.027Z" transform="translate(-607.965 -220.223)" fill="#b3cfc0" stroke="#00634b" stroke-width="0.8"/>
      <path id="Trazado_3315" data-name="Trazado 3315" d="M704.507,376.023a8.989,8.989,0,0,1,7.314,3.264c1.835,2.029,3.7,1.673,5.8.89l4.641,4.64-1.06,1.073H717l-4.913,13.988,2.809,1.052c-.776,2.3-1.386,4.361-2.169,6.358-1.275,3.25,1.12,5.349,2.308,7.833a7.274,7.274,0,0,0,.3,1.449c.621,1.457,1.3,2.888,2.24,4.935l-4.65-1.136c-.945-3.993-5.879-4.147-6.979-6.854-2.065-.184-3.756-.059-5.234-.56-1.021-.346-1.717-1.594-2.614-2.374-1.825-1.588-2.351-3.392-1.081-5.566.775-1.326,1.541-2.657,2.311-3.986a6.816,6.816,0,0,0,2.1-.616c4.835-3.433,8.951-7.433,10.02-13.227l-2.179-2.781-2.162,2.266-6.31-5.433c1.116-1.258,2.268-2.486,3.323-3.793A3.859,3.859,0,0,0,704.507,376.023Z" transform="translate(-592.352 -260.504)" fill="#b3cfc0" stroke="#00634b" stroke-width="0.8"/>
      <path id="Trazado_3316" data-name="Trazado 3316" d="M702.3,291.016c-.745.947-1.558,1.85-2.212,2.856a5.37,5.37,0,0,0-1.036,2.452c-.018.381,1.077.814,1.632,1.2l-5.165,8.512c-3.1.942-6.176,1.98-9.31,2.79a26.1,26.1,0,0,1-5.63.783c-.73.025-2.076-.675-2.129-1.156A2.579,2.579,0,0,0,675,306.283c-2.271,1.107-3.183-.995-4.929-1.223.2-1.07.366-1.981.545-2.89.083-.418.419-1.031.256-1.214-1.772-1.984-3.294-4.8-5.53-5.612a10.816,10.816,0,0,1-6.358-5l.462-.924c.9-.183,1.942-.758,2.666-.483,3.23,1.224,6.39-.053,9.537.082,2.886.123,5.689-.514,8.441-.347,1.766.107,3.844,1.719,5.032,3.242,2.173,2.784,5.423,1.977,8.05,3.1.28.12,1.209-.409,1.233-.689.2-2.344,2.361-2.417,3.738-3.385Z" transform="translate(-574.507 -218.742)" fill="#b3cfc0" stroke="#00634b" stroke-width="0.8"/>
      <path id="Trazado_3317" data-name="Trazado 3317" d="M735.636,394.94a17.454,17.454,0,0,1,1.457,2.981c1.125,4.069,4.4,6.742,6.693,10,1.212,1.721,4.135,2.425,6.425,3.14a29.51,29.51,0,0,0,5.811.658c-.206,1.55-.363,3.109-.642,4.646-.1.525-.4,1.31-.778,1.436-2.38.78-2.622,2.942-3.331,4.817-.677.266-1.367.788-2.027.752-2.529-.138-3.257,1.754-4.2,3.45-2.8,3.306-6.553,2.646-8.862-1.561-2.18-3.974-3.64-4.21-6.707-1.084-1.189-2.485-3.583-4.583-2.309-7.833.783-2,1.394-4.062,2.169-6.358l-2.809-1.052,4.913-13.988Z" transform="translate(-606.792 -269.554)" fill="#b3cfc0" stroke="#00634b" stroke-width="0.8"/>
      <path id="Trazado_3318" data-name="Trazado 3318" d="M675.319,422.684c-.77,1.329-1.537,2.66-2.311,3.986-1.27,2.174-.743,3.978,1.081,5.566.9.78,1.593,2.028,2.614,2.374,1.478.5,3.169.376,5.234.56,1.1,2.707,6.034,2.861,6.978,6.854q-1.609,1.863-3.216,3.726a35.533,35.533,0,0,0-4.523,2.14c-1.065.687-2.665.666-2.954,2.674-.154,1.066-1.921,1.85-2.827,2.878a5.484,5.484,0,0,0-.711,1.827c-.724,2.088-1.375,4.207-2.235,6.237-.115.272-1.3.248-1.929.1a2.48,2.48,0,0,1-1.046-.6l-3.015,1.987H661.3c.132-.912.28-1.777.378-2.647.28-2.5-.872-3.442-3.3-2.94a2.69,2.69,0,0,1-1.892-.772,14.029,14.029,0,0,1-2.84-3.007c-1.765-2.891-5.093-2.42-7.549-3.783.393-1.539.835-3.068,1.162-4.621.295-1.4.425-2.832.7-4.235.127-.642.813-1.559.6-1.821-1.471-1.8-.19-3.722.312-5.035.632-1.65.517-4.461,3.4-4.689,2.857,1.219,4.1-1.11,5.811-2.559a59.234,59.234,0,0,1,7.254-5.509c.624-.379,2.191.845,3.354,1.245.211.073.568-.277.858-.431a5.186,5.186,0,0,0,1.418.489C672.411,422.739,673.866,422.69,675.319,422.684Z" transform="translate(-568.344 -282.158)" fill="#b3cfc0" stroke="#00634b" stroke-width="0.8"/>
      <path id="Trazado_3319" data-name="Trazado 3319" d="M632.562,429.267c-2.879.228-2.763,3.039-3.4,4.689-.5,1.313-1.783,3.237-.312,5.035.215.263-.471,1.179-.6,1.821-.278,1.4-.408,2.836-.7,4.235-.327,1.553-.77,3.082-1.162,4.621l-1.361,4.208c-1.976-.338-3.619-.611-5.259-.9-.977-.173-1.965-.315-2.918-.577-1.366-.376-2.708-.84-4.053-1.291a1.764,1.764,0,0,1-.873-.487c-1.357-1.942-2.568-4-4.038-5.844a17.231,17.231,0,0,0-3.014-2.436c.058-1.107.117-2.214.152-2.861a34.614,34.614,0,0,1,4.5-2.477c2.446-.9,5.592-.239,6.989-3.4.105-.239,1.145-.079,1.75-.082,3.918-.023,4.38-.45,4.488-4.084.583-.357,1.1-.726,1.667-1s1.164-.463,2.085-.82c-2.11-2.157-1.49-4.448.619-5.876,1.258-.852,3.286-.568,4.968-.8,1.484,2.822-.168,5.02-1.647,7.362Z" transform="translate(-548.64 -281.981)" fill="#b3cfc0" stroke="#00634b" stroke-width="0.8"/>
      <path id="Trazado_3320" data-name="Trazado 3320" d="M624.833,318.885c-.574,2.507,1.439,3.939,2.509,5.72.255.424,1.512.555,2.182.368,3.1-.868,4.347.192,4.828,3.276.3,1.9,1.186,4.273,2.621,5.318,2.553,1.858,1.948,4.463,1.59,6.31-.278,1.433-2.755,3.076-4.514,3.471-5.888,1.32-10.377,4.005-12.334,10.016-.289.886-.686,1.737-1.033,2.605l-4.721,3.169c-.581-.152-1.678-.407-1.67-.443.483-2.445-.978-3.923-2.563-5.348-.051-1.356-.2-2.716-.132-4.066.175-3.522.46-7,2.039-10.3.525-1.1-.363-2.905.209-3.936a23.008,23.008,0,0,1,4.63-6.129c1.662-1.465,1.865-3.258,2.051-4.982.192-1.778.59-2.851,2.409-3.377C623.668,320.35,624.206,319.464,624.833,318.885Z" transform="translate(-551.844 -233.198)" fill="#b3cfc0" stroke="#00634b" stroke-width="0.8"/>
      <path id="Trazado_3321" data-name="Trazado 3321" d="M619.976,383.451l4.721-3.169q7.442-2.4,14.881-4.813c.57-.186,1.161-.806,1.636-.709,3.211.659,4.094-1.9,5.444-3.8.854-1.2,1.538-1.629,3.145-.744a6.11,6.11,0,0,0,4.355.059c2.136-.7,2.808.432,3.4,1.964.468,1.2.852,2.439,1.509,4.344,1.768-.75,3.421-1.481,5.1-2.153,1.265-.507,2.56-.938,3.843-1.4a3.858,3.858,0,0,1-.389,1.425c-1.055,1.307-2.207,2.535-3.323,3.793-.634,1.316-1.272,2.632-1.9,3.951a6.581,6.581,0,0,1-.684,1.47c-3.412,4.009-5.338,8.5-4.659,13.876-.29.154-.646.5-.858.431-1.163-.4-2.729-1.624-3.354-1.245a59.234,59.234,0,0,0-7.254,5.509c-1.714,1.448-2.953,3.777-5.811,2.559l-2.116-.971c1.479-2.342,3.131-4.54,1.647-7.362l.968-1.553c-1.588-1.455-3.085-2.723-4.866-1.324-2.392-1.259-4.7-2.334-6.854-3.652a57.446,57.446,0,0,1-4.665-3.505Q621.937,384.94,619.976,383.451Z" transform="translate(-555.858 -257.511)" fill="#b3cfc0" stroke="#00634b" stroke-width="0.8"/>
      <path id="Trazado_3322" data-name="Trazado 3322" d="M765.347,158.98c.027-.091-.174-.311-.314-.382-1.276-.642-2.563-1.263-3.847-1.89-1.136.593-1.995,1.282-3.646.751-3.152-1.015-6.505-1.594-9.693.323a16.707,16.707,0,0,1-2.8,1.076c-.35,1.73-.784,3.449-1.024,5.194a2.063,2.063,0,0,0,1.818,2.563c2.165.527,1.143,2.707,1.774,4.055.354.756.715,1.508,1.073,2.263,2.5.636,4.729,2.515,7.559,1.689q.129.482.256.964l1.567-.035c.825-1.256,1.4-2.826,2.525-3.7,2.455-1.921,5.185-3.491,7.8-5.2C767.524,164.035,764.346,162.343,765.347,158.98Z" transform="translate(-615.138 -155.582)" fill="#b3cfc0" stroke="#00634b" stroke-width="0.8"/>
      <path id="Trazado_3323" data-name="Trazado 3323" d="M739.05,193.728c1.909,2.16.443,4.98,1.389,7.354.124.312-.5,1.254-.951,1.407-2.027.692-3.761,2.6-6.22,1.633l-1.929-3.058,1.89-4.773C735.021,195.1,736.184,192.479,739.05,193.728Z" transform="translate(-609.093 -173.212)" fill="#b3cfc0" stroke="#00634b" stroke-width="0.8"/>
      <path id="Trazado_3324" data-name="Trazado 3324" d="M721.97,457.955q1.607-1.863,3.216-3.726l4.651,1.136c-.936-2.047-1.62-3.478-2.24-4.935a7.274,7.274,0,0,1-.3-1.449c3.068-3.126,4.527-2.89,6.707,1.084,2.309,4.207,6.058,4.867,8.862,1.561,2.031,2.083,1.463,3.514-.581,5.292-2.518,2.19-5.709,1.682-8.386,2.88,1.036,3.814-.928,7.581-4.062,8.041-1.412-1.483-4.363-1.277-4.534-4.126C721.863,463.139,722.585,460.161,721.97,457.955Z" transform="translate(-604.614 -294.363)" fill="#b3cfc0" stroke="#00634b" stroke-width="0.8"/>
      <path id="Trazado_3325" data-name="Trazado 3325" d="M808.13,498.992v.53l-.929-.265Z" transform="translate(-645.357 -319.294)" fill="#b3cfc0" stroke="#00634b" stroke-width="0.8"/>
      <path id="Trazado_3326" data-name="Trazado 3326" d="M690.054,327.543c-1.753-.24-3.545-.385-5.291-.752-1.648-.346-3.545-1.054-2.99-3.087.291-1.066,2-1.746,3.067-2.6a5.826,5.826,0,0,0-.649-2.164c-1.845-2.149-2.189-4.318-.656-6.777a1.675,1.675,0,0,0-.064-1.463c-.676-1.086-1.505-2.077-2.275-3.105-3.1.942-6.176,1.98-9.31,2.79a26.093,26.093,0,0,1-5.63.783c-.73.025-2.076-.675-2.129-1.156a2.579,2.579,0,0,0-3.449-2.17c-2.271,1.106-3.183-1-4.929-1.223.2-1.07.366-1.981.545-2.89.083-.418.419-1.031.256-1.214-1.772-1.984-3.294-4.8-5.53-5.612a10.815,10.815,0,0,1-6.358-5c-3.366,1.969-4.208,3.743-3.581,7.541a3.481,3.481,0,0,1-3.417,3.913,4.158,4.158,0,0,0-4.494,2.63c-.574,2.507,1.439,3.939,2.509,5.72.255.424,1.512.555,2.182.368,3.1-.868,4.347.192,4.828,3.276.3,1.9,1.186,4.273,2.621,5.318,2.553,1.858,1.948,4.463,1.59,6.31-.278,1.433-2.756,3.076-4.514,3.471-5.888,1.32-10.377,4.005-12.334,10.016-.289.886-.686,1.737-1.033,2.6q7.442-2.4,14.881-4.813c.57-.186,1.161-.806,1.636-.709,3.211.659,4.094-1.9,5.444-3.8.854-1.2,1.538-1.629,3.145-.744a6.11,6.11,0,0,0,4.355.059c2.136-.7,2.808.432,3.4,1.964.468,1.2.852,2.439,1.509,4.344,1.768-.75,3.421-1.481,5.1-2.154,1.265-.506,2.56-.937,3.843-1.4a8.991,8.991,0,0,1,7.314,3.264c1.835,2.029,3.7,1.673,5.8.891a12.58,12.58,0,0,1,.872-2.371,19.86,19.86,0,0,1,1.887-2.309l2.242,2.365,2.714-6C690.048,332.069,690.048,332.069,690.054,327.543Z" transform="translate(-560.182 -220.299)" fill="#b3cfc0" stroke="#00634b" stroke-width="0.8"/>
      <path id="Trazado_3327" data-name="Trazado 3327" d="M690.892,405.329c-.679-5.375,1.247-9.867,4.659-13.876a6.581,6.581,0,0,0,.684-1.47c.629-1.32,1.267-2.635,1.9-3.951l6.31,5.433,2.162-2.266,2.179,2.781c-1.068,5.794-5.185,9.794-10.02,13.227a6.817,6.817,0,0,1-2.1.616c-1.453.006-2.908.055-4.358,0A5.188,5.188,0,0,1,690.892,405.329Z" transform="translate(-589.693 -265.296)" fill="#b3cfc0" stroke="#00634b" stroke-width="0.8"/>
      <path id="Trazado_3328" data-name="Trazado 3328" d="M765.531,400.109c-.07-.054.239-.6.371-.919l-5.544-.242.7-3.642-5.639-2.344c-.548.727-1.088,1.459-1.644,2.18-2.022,2.619-5.026,2.34-6.7-.507a8.364,8.364,0,0,0-2.038-1.751l-1.06,1.073a17.46,17.46,0,0,1,1.457,2.981c1.125,4.069,4.4,6.742,6.693,10,1.212,1.722,4.135,2.425,6.426,3.14a29.518,29.518,0,0,0,5.811.658c.779-1.032,2.277-2.124,2.2-3.087C766.362,405.15,768.331,402.257,765.531,400.109Z" transform="translate(-615.135 -268.572)" fill="#b3cfc0" stroke="#00634b" stroke-width="0.8"/>
    </g>
    <g id="Grupo_2091" data-name="Grupo 2091" transform="translate(231.919 0)">
      <g id="Grupo_2087" data-name="Grupo 2087" transform="translate(0 72.455)">
        <rect id="Rectángulo_3361" data-name="Rectángulo 3361" width="0.642" height="0.642" transform="matrix(0.801, -0.599, 0.599, 0.801, 68.857, 0.385)" fill="#fff"/>
        <path id="Trazado_3329" data-name="Trazado 3329" d="M4977.1,135.051l-.551-.331.665-1.108.552.33Zm1.829-3.048-.551-.33.667-1.108.551.33Zm1.829-3.048-.55-.33.665-1.108.55.331Zm1.829-3.048-.55-.33.451-.752.433-.324.385.514-.333.249Zm2.53-2.248-.386-.514,1.036-.774.383.514Zm2.846-2.13-.385-.514,1.035-.774.385.514Z" transform="translate(-4921.566 -118.501)" fill="#fff"/>
        <path id="Trazado_3330" data-name="Trazado 3330" d="M4965.779,223.57h-.824v-.642h.46l.237-.395.55.33Z" transform="translate(-4911.833 -204.374)" fill="#fff"/>
        <path id="Trazado_3331" data-name="Trazado 3331" d="M4777.764,225.634h-1.286v-.642h1.286Zm-3.537,0h-1.285v-.642h1.285Zm-3.535,0h-1.286v-.642h1.286Zm-3.537,0h-1.285v-.642h1.285Zm-3.536,0h-1.286v-.642h1.286Zm-3.536,0H4758.8v-.642h1.286Zm-3.536,0h-1.286v-.642h1.286Zm-3.537,0h-1.285v-.642h1.285Zm-3.536,0h-1.286v-.642h1.286Zm-3.537,0h-1.285v-.642h1.285Z" transform="translate(-4726.892 -206.438)" fill="#fff"/>
        <path id="Trazado_3332" data-name="Trazado 3332" d="M4725.277,225.955h-.642v-.963h.962v.642h-.32Z" transform="translate(-4710.086 -206.438)" fill="#fff"/>
        <path id="Trazado_3333" data-name="Trazado 3333" d="M4713.446,257.216l-.462-.445.922-.958.462.446Zm2.05-3.088h-.642V252.8h.642Zm0-3.656h-.642v-1.329h.642Zm0-3.656h-.642v-1.33h.642Z" transform="translate(-4700.306 -223.642)" fill="#fff"/>
        <path id="Trazado_3334" data-name="Trazado 3334" d="M4698.374,327.235h-.778v-.642h.506l.351-.364.462.445Z" transform="translate(-4687.388 -291.425)" fill="#fff"/>
        <path id="Trazado_3335" data-name="Trazado 3335" d="M4658.684,329.139h-1.275V328.5h1.275Zm-3.506,0H4653.9V328.5h1.275Z" transform="translate(-4650.708 -293.329)" fill="#fff"/>
        <path id="Trazado_3336" data-name="Trazado 3336" d="M4634.642,329.46H4634V328.5h.963v.642h-.321Z" transform="translate(-4634 -293.329)" fill="#fff"/>
        <path id="Trazado_3337" data-name="Trazado 3337" d="M4634.642,358.689H4634V357.3h.642Zm0-3.823H4634v-1.39h.642Zm0-3.823H4634v-1.39h.642Z" transform="translate(-4634 -311.089)" fill="#fff"/>
        <path id="Trazado_3338" data-name="Trazado 3338" d="M4634.963,422.068H4634V421.1h.642v.321h.321Z" transform="translate(-4634 -371.072)" fill="#fff"/>
        <path id="Trazado_3339" data-name="Trazado 3339" d="M4707.243,420.475h-1.265v-.642h1.265Zm-3.479,0H4702.5v-.642h1.264Zm-3.479,0h-1.266v-.642h1.266Zm-3.479,0h-1.266v-.642h1.266Zm-3.479,0h-1.265v-.642h1.265Zm-3.479,0h-1.266v-.642h1.266Zm-3.479,0H4685.1v-.642h1.265Zm-3.479,0h-1.267v-.642h1.267Zm-3.479,0h-1.265v-.642h1.265Zm-3.479,0h-1.265v-.642h1.265Zm-3.479,0h-1.266v-.642h1.266Zm-3.479,0h-1.265v-.642h1.265Zm-3.479,0h-1.265v-.642h1.265Zm-3.479,0h-1.266v-.642h1.266Zm-3.479,0h-1.266v-.642h1.266Zm-3.479,0h-1.266v-.642h1.266Zm54.413-.049-.031-.641,1.264-.062.031.641Zm3.475-.172-.032-.641,1.265-.062.031.641Zm3.475-.172-.031-.641,1.264-.062.031.641Zm3.477-.172-.032-.641,1.263-.063.032.641Z" transform="translate(-4650.616 -369.48)" fill="#fff"/>
        <rect id="Rectángulo_3362" data-name="Rectángulo 3362" width="0.642" height="0.642" transform="translate(72.724 49.619) rotate(-2.826)" fill="#fff"/>
      </g>
      <g id="Grupo_2088" data-name="Grupo 2088" transform="translate(32.932)">
        <rect id="Rectángulo_3363" data-name="Rectángulo 3363" width="0.642" height="0.642" transform="translate(93.011 32.692) rotate(-69.074)" fill="#fff"/>
        <path id="Trazado_3340" data-name="Trazado 3340" d="M5425.782-249.852l-.6-.229.469-1.227.6.229Zm1.292-3.374-.6-.229.469-1.227.6.229Zm1.29-3.374-.6-.229.468-1.227.6.229Zm1.291-3.374-.6-.229.47-1.227.6.229Zm1.29-3.374-.6-.229.47-1.227.6.229Zm1.291-3.374-.6-.229.469-1.227.6.229Z" transform="translate(-5331.121 280.026)" fill="#fff"/>
        <path id="Trazado_3341" data-name="Trazado 3341" d="M5473.293-285.781l-.6-.229.044-.118-.124.012-.06-.639,1.153-.107Z" transform="translate(-5370.888 295.713)" fill="#fff"/>
        <path id="Trazado_3342" data-name="Trazado 3342" d="M5280.1-283.329h-1.207v-.642l1.224,0,.06.639Zm-3.4,0h-1.255v-.642h1.255Zm-3.45,0h-1.254v-.642h1.254Zm-3.448,0h-1.254v-.642h1.254Zm-3.45,0h-1.254v-.642h1.254Zm-3.449,0h-1.254v-.642h1.254Zm-3.449,0h-1.254v-.642h1.254Zm22.91-.21-.06-.639,1.249-.116.059.639Zm3.434-.319-.059-.639,1.248-.116.059.639Zm3.435-.319-.059-.639,1.249-.116.06.639Z" transform="translate(-5190.937 294.092)" fill="#fff"/>
        <path id="Trazado_3343" data-name="Trazado 3343" d="M5237.775-277.908l-.6-.238.32-.8h.859v.642h-.426Z" transform="translate(-5173.293 289.066)" fill="#fff"/>
        <rect id="Rectángulo_3364" data-name="Rectángulo 3364" width="1.548" height="0.642" transform="matrix(0.371, -0.929, 0.929, 0.371, 62.306, 14.873)" fill="#fff"/>
        <path id="Trazado_3344" data-name="Trazado 3344" d="M5218.321-232.63h-.859v-.642h.425l.157-.394.6.238Z" transform="translate(-5156.742 251.055)" fill="#fff"/>
        <path id="Trazado_3345" data-name="Trazado 3345" d="M5061.37-237.814h-1.353v-.642h1.353Zm-3.721,0h-1.354v-.642h1.354Zm-3.722,0h-1.353v-.642h1.353Zm-3.721,0h-1.353v-.642h1.353Zm-3.722,0h-1.353v-.642h1.353Zm-3.721,0h-1.354v-.642h1.354Zm-3.722,0h-1.354v-.642h1.354Zm-3.73-.621-.965-.949.451-.458.965.949Z" transform="translate(-5003.018 256.24)" fill="#fff"/>
        <path id="Trazado_3346" data-name="Trazado 3346" d="M5020.93-254.244l-.554-.544v-.777h.643v.508l.361.356Z" transform="translate(-4991.291 269.439)" fill="#fff"/>
        <path id="Trazado_3347" data-name="Trazado 3347" d="M5021.019-313.532h-.643v-1.291h.643Zm0-3.551h-.643v-1.291h.643Zm0-3.55h-.643v-1.291h.643Z" transform="translate(-4991.291 325.146)" fill="#fff"/>
        <path id="Trazado_3348" data-name="Trazado 3348" d="M5019.339-341.037h-.641v-.321h-.321V-342h.962Z" transform="translate(-4989.612 342)" fill="#fff"/>
        <path id="Trazado_3349" data-name="Trazado 3349" d="M4968.941-341.358h-1.1V-342h1.1Zm-3.028,0h-1.1V-342h1.1Zm-3.028,0h-1.1V-342h1.1Z" transform="translate(-4942.104 342)" fill="#fff"/>
        <path id="Trazado_3350" data-name="Trazado 3350" d="M4944.421-341.037h-.643V-342h.964v.642h-.321Z" transform="translate(-4926.987 342)" fill="#fff"/>
        <path id="Trazado_3351" data-name="Trazado 3351" d="M4944.42-320.615h-.642v-1.05h.642Zm0-2.888h-.642v-1.05h.642Z" transform="translate(-4926.987 327.353)" fill="#fff"/>
        <path id="Trazado_3352" data-name="Trazado 3352" d="M4942.742-287.611h-.963v-.642h.321v-.321h.642Z" transform="translate(-4925.31 297.15)" fill="#fff"/>
        <path id="Trazado_3353" data-name="Trazado 3353" d="M4881.754-285.932h-1.338v-.642h1.338Zm-3.677,0h-1.338v-.642h1.338Zm-3.677,0h-1.337v-.642h1.337Z" transform="translate(-4867.624 295.471)" fill="#fff"/>
        <path id="Trazado_3354" data-name="Trazado 3354" d="M4853.128-285.611h-.642v-.963h.962v.642h-.32Z" transform="translate(-4850.35 295.471)" fill="#fff"/>
        <path id="Trazado_3355" data-name="Trazado 3355" d="M4853.127-242.191h-.642v-1.232h.642Zm0-3.388h-.642v-1.232h.642Zm0-3.388h-.642V-250.2h.642Zm0-3.388h-.642v-1.232h.642Zm0-3.388h-.642v-1.232h.642Zm0-3.388h-.642v-1.232h.642Zm0-3.388h-.642v-1.232h.642Zm0-3.388h-.642v-1.232h.642Z" transform="translate(-4850.35 279.157)" fill="#fff"/>
        <path id="Trazado_3356" data-name="Trazado 3356" d="M4850.682-96.944l-.451-.458.362-.356v-.507h.642v.777Z" transform="translate(-4848.457 137.388)" fill="#fff"/>
        <path id="Trazado_3357" data-name="Trazado 3357" d="M4839.815-84.085h-.642v-.777l.554-.544.45.458-.362.356Z" transform="translate(-4839.173 126.593)" fill="#fff"/>
        <path id="Trazado_3358" data-name="Trazado 3358" d="M4840.136-71.9h-.963v-.963h.642v.321h.321Z" transform="translate(-4839.173 116.059)" fill="#fff"/>
        <path id="Trazado_3359" data-name="Trazado 3359" d="M4864.017-80.557h-.183v-.373l-.174-.177.938-.922.451.458Zm-2.575,0h-1.366V-81.2h1.366Zm10.467-1.977h-1.367v-.642h1.367Zm-3.758,0h-1.366v-.642h1.366Z" transform="translate(-4856.72 124.72)" fill="#fff"/>
        <path id="Trazado_3360" data-name="Trazado 3360" d="M4949.658-84.213h-.962v-.642h.321v-.321h.642Z" transform="translate(-4931.116 126.399)" fill="#fff"/>
        <rect id="Rectángulo_3365" data-name="Rectángulo 3365" width="0.642" height="1.171" transform="translate(17.9 38.004)" fill="#fff"/>
        <path id="Trazado_3361" data-name="Trazado 3361" d="M4951.337-123.029h-.643v-.963h.963v.642h-.32Z" transform="translate(-4932.794 158.985)" fill="#fff"/>
        <path id="Trazado_3362" data-name="Trazado 3362" d="M4971.554-123.35h-1.013v-.642h1.013Zm-2.789,0h-1.014v-.642h1.014Z" transform="translate(-4947.113 158.985)" fill="#fff"/>
        <path id="Trazado_3363" data-name="Trazado 3363" d="M5003.461-125.029h-.963v-.642h.322v-.321h.641Z" transform="translate(-4976.283 160.664)" fill="#fff"/>
        <rect id="Rectángulo_3366" data-name="Rectángulo 3366" width="0.642" height="0.94" transform="translate(26.536 32.088)" fill="#fff"/>
        <path id="Trazado_3364" data-name="Trazado 3364" d="M5005.14-157.372h-.643v-.963h.963v.642h-.321Z" transform="translate(-4977.96 187.816)" fill="#fff"/>
        <path id="Trazado_3365" data-name="Trazado 3365" d="M5029.876-157.521l-.28-.172h-.827v-.642h1.009l.435.268Zm-3.45-.172h-1.338v-.642h1.338Z" transform="translate(-4995.247 187.815)" fill="#fff"/>
        <path id="Trazado_3366" data-name="Trazado 3366" d="M5067.891-147.708l-.118-.5-.433-.267.336-.547.661.406.179.754Z" transform="translate(-5030.716 179.993)" fill="#fff"/>
        <path id="Trazado_3367" data-name="Trazado 3367" d="M5077.2-105.038l-.592-.248.469-1.12.592.248Zm1.29-3.079-.592-.248.469-1.12.592.248Zm-.517-3.227-.28-1.181.624-.148.281,1.181Zm-.771-3.248-.28-1.181.624-.148.28,1.181Zm-.772-3.248-.28-1.181.625-.148.28,1.181Zm-.772-3.248-.279-1.181.625-.148.28,1.181Zm-.771-3.248-.281-1.181.625-.148.281,1.181Zm-.772-3.248-.28-1.181.625-.148.28,1.181Z" transform="translate(-5036.167 163.114)" fill="#fff"/>
        <path id="Trazado_3368" data-name="Trazado 3368" d="M5084.451,31.917l-.357-.705.306-.729.592.248-.19.456.223.441Z" transform="translate(-5044.781 29.305)" fill="#fff"/>
        <rect id="Rectángulo_3367" data-name="Rectángulo 3367" width="0.642" height="0.642" transform="translate(40.908 63.673) rotate(-26.79)" fill="#fff"/>
      </g>
      <path id="Trazado_3369" data-name="Trazado 3369" d="M5175.792,226.737l.079.824.116.173-.015.535-.18.881.231.231-.318.166.138.181-.037.477-.137.043-.065.368.05.491-.578.455.2.7-.16.275.029.657.138.26-.086.412-.311.368-.253.809-.151.318.086.2.694-.21.188.289.492.166.246.246.339-.014.492-.426.3-.036.4.231.029.318.3.477v.318l-.333.614.079.289-.166.246.231.5-.2.426-.108.462-.332.715-.2.246-.434.253-.773.766v.246l-.361.347-.058.26.167.441-.737.824-.65.535-.643.058L5173,244l-.13-.224.535-.535-.281-.578-1.034.318-.209.246-.136-.26-.362.072-.086.275-.427-.289-.6.079-.043.21-.433.2-.166.275-.578.275-.484.455.1.491-.1.181-.708.123-.628.412-.239.361-.209-.108-.347.065-.4.535-.932.072-.542-.361-.266-.7.014-1.011.318-1.076.325-.838.123-.715-.036-.506.116-.564.463-1.279.5-.961.31-.3.629.058.239-.137.064-.275.311-.368-.144-.426.035-.686.326-.47.483-1.011.159-.91.419-.766.368-.426.347-.108.889-.636-.4-.506.051-.889.152-.224.361-.173-.065-.759.137-.383-.123-.874.3-.361.722-.036.281-.2h.5l.512-.874.47-.21,1.669-.029Z" transform="translate(-5079.179 -135.388)" fill="#c7f789"/>
      <g id="Grupo_2090" data-name="Grupo 2090" transform="translate(43.86 21.844)">
        <path id="Trazado_3336-2" data-name="Trazado 3336" d="M4912.365-203.1a5.554,5.554,0,0,0-.766-.407.536.536,0,0,1-.395-.434.483.483,0,0,0-.523-.438.483.483,0,0,0-.295.136,5.379,5.379,0,0,0-.419.368,2.461,2.461,0,0,1-.455.412c-.337.176-.452.518-.665.785-.074.4.007.837-.25,1.2a5.514,5.514,0,0,1-.531.614.928.928,0,0,0-.119,1.193c-.091.378-.162.691-.244,1a1.256,1.256,0,0,1-.153.394c-.257.362-.242.563.138.784.161.094.293.143.254.375a4.523,4.523,0,0,0,.025.508,7.46,7.46,0,0,0-.075.973,1,1,0,0,1-.133.617c-.176.307-.341.62-.512.932q.014.353.026.708a1.674,1.674,0,0,0,.168.369.832.832,0,0,0,.353.3.412.412,0,0,0,.338-.151,5.146,5.146,0,0,0,.512-.785c.266-.515.5-1.042.755-1.564l.135-.826a.576.576,0,0,0,.027-.114,1.5,1.5,0,0,1,.5-1.248.948.948,0,0,0,.278-.56,6.944,6.944,0,0,0,0-.781.535.535,0,0,1,.148-.252c.075-.091.237-.166.242-.255.026-.465.008-.932.021-1.4,0-.166-.021-.281-.205-.312-.157-.025-.163-.116-.091-.234a.819.819,0,0,0,.233,0,3.77,3.77,0,0,0,.368-.156l-.177-.26.137-.087q-.022-.166-.043-.333l-.1-.12c.042-.078.065-.181.129-.231a1.481,1.481,0,0,1,1.188-.421.365.365,0,0,0,.241-.115c.019-.017-.023-.157-.07-.186m-1.562,1.48.011-.11-.011.11" transform="translate(-4907.249 204.626)" fill="#b3cfc0"/>
        <g id="Grupo_2089" data-name="Grupo 2089" transform="translate(7.866 0)">
          <path id="Trazado_3370" data-name="Trazado 3370" d="M5048.375,347.255l.058-.4.138-.289-.348.094-.317.347.151.412Z" transform="translate(-5033.194 -257.889)" fill="#b3cfc0"/>
          <path id="Trazado_3371" data-name="Trazado 3371" d="M5109.5-64.78l.174-.564-.4-.629-.21-1.091-.187-.274-.115-.506-.211-.3-.129-.564-.2-.347-.051-.578-.318-.744-.462-.614.188-.4-.05-.621-.405-.108-.259-.39-.253-.78.239-.563-.036-.289-.3-.441-.419-.2-.513-.751-.216-.137-1.027-1.091-.606.029.028-.578-.231-.455-.716-.108-.426-.152-.246-.231-.585.029-.274.188v-.34l1.85-1.748,1.842-1.756h.4v-.4l.325-.224.2-.578-.217-.563-.628-.426.036-.325-.3-.535-.137-.715-.152-.181-.2-.52-.881.108-.39-.332-.138-.708-.246-.527-.13-.917-.2-.578-.679-1.1-.037-.686.073-.4-.036-.643-.246-.535-.333-.246-.3-.686.325-1.17.065-.751-.08-.52.13-.744.268-.795-.383-.917.137-.484-.231-.491.064-.289.326-.549.469-.383.976-.571.376-.73-.173-.578.13-1.351.13-.535,1.423-1.56-.014-.181-.419-.441-.145-.585.195-.614-.744-.52-1.04-.137h-.485l-.491-.2-.975.52-.217.332-.354.188-.527-.094-.542-.2-.947.21-.419.246-.462.065-.658-.065-.469.065-.745.361-.448-.181-.225.137-.6.058-.961-.181-.368-.217-.426-.043-.549.065-.166-.217-.888-.029-.383-.079-.318.549-.375.2-.239.318-.708.094-.317-.462-.707.311-.051-.029-1.5-1.929-1.5-1.929-1.488-1.907-1.488-1.907-.846.108-.665.26-.368-.029-.527-.462-.91-.123-.318-.231-.13-.289-.644.058-.52-.289-.26.014-1.358.275-.383.311-.513.152-.282.2-.4.058-.376-.137-.238-.274-.5.152-1.005-.123-.462.108-.585-.217-.261.188-.268-.188-.368.079-.541-.051-.181-.166-.347-.043v.224l-.462-.043-.123-.26-.311.014-.585.231-.116.137-.708.065-.333.087-.217.014-.657-.318-1.026-2.023.079-.874-.593-.26-1.047.152-.578-.217-.2-.564-.3-.325.13-.535-.145-.3-.065-1.069.383-1.091-.252-.614.86-.8-.036-.628.071-.535-.064-.744-.116-.275-.022-.737-1.921-2.182-.326-.079-1.025-4.183-.225-.036-.246-.3-.375.181-.615.123-.383-.426.131-.282-.116-.614-.268-.354-.456.166-.187.34-.383.094-.542.419-.513.123-.332-.123-.419.029.174-.188.346-.939.427-.874.412-.361-.014-.209.527-.787.3-.108.152-.4.448-.643.259-.773.462-.4.072-.289-.187-.022-.268-.3.051-.665.635-1.654-.115-.556.079-.491.246-.39.535-.665.167-.339.809-1.315.513-.975.564-1.568.4-.881.318-.354.275-.824.4-.369.188.029.708-.282.831.108,1.2-2.218,1.2-2.218,2.8-.7.426-.181,1.56-.376.094-.267-.274.065.347-.3.563-.65.44-.173.651-.621.094-.246-.145-.563-.845-1.712-.4-.325-.644-.079-.281-.188-.448-.014-.419-.4-.672-.173-.917-.029-.282.123.447-.014.231.137-.209.253h-.239l-.108.267-.217-.3-.282.448-.483.311v-.5l-.926.607.282.282.318.607-.4.065-.238.311-.4.058-.08-.325.21-.542-.722.152-.91.051-.117.123.311.325.037.578-.412.932-.332.419-.086.527-.377.094-.123.239-1.126.621-.115-.13-.376.065-.232.3-.3-.029-.4.2-1.026.26-.824.65-.072.3-.282.217-.708.08-.643.592-.57.311-.275.246-.585.376-.145.311-1.155.773-.917.079-.5-.065-.707.065-1,.014-1.119-.051-1.481-.694-1.222.108-.267.152-.1.325-.462.5.188.824-.071.665-.564.571-.874.159-.976-.051-.5-.166-1.358-.607-.874-.217-.449.217-.635.665-.31.188-.477.592-1.229.744-.383.152-.2.029-.122.527-.326.231-.649.231-.513.455v.274l-.5.188.3.679.044.419-.2.043-.095-.4-.469.708.333.3.064.6-.151.217-.274.051-.253-.238-.26.838-.571.513.007.123.644-.39.4-.419.412-.166-.115.354.2.34-.332.108-.1.246-.209-.043.181.311-.1.123.332.152.065.542-.318.2-.21.368-.266.816-.015.4-.354.542-.261.152.362.029.4.159.3.477.043.419-.094.354-.563,1.076-.448.159-.744-.08-.563-.123-.781.123-.3.275-.794.3-.463.354v.311l-.512.426-.094.744-.55.6-.2.585-.658.4-.2.34-.563.231-.382.556-.557.26-.448.354-.484.26-.267.354-.773.26-.86.188-.448.477-.086.231h.217l.7.383.339.542.318.708-.195.614.325,1.105-.066.657h.087l-.036,1.033-.116.274-.715.188-.462-.022-.274-.123-.123-.614.123-.383.571.159-.144-.311.252.065-.137-.5-.311.123.376-.347-.434.029-.274.354-.153-.571.153-.058-.318-.448.116-.311-.261-.123-.649-.181-.2-.506-.513-.665-.845-.542-.2-.455-.317-.2-.578-.737-.267.6-.44.643.195.506.462.419.318,1.2.679.614.347.925.217,1.012-.152.383.065.311-.644.318-.665.477-.593.831-.715.86-.166.549-.4.2-.477-1-.513-.339-.253.029-.116.282.283,1.149-1,.325-.52.946-.209.629-.021.339.354.549.873.766.333.137.246.325.065.274.253.246-.065.246-.253.152-.094.52.282.036.773.535.188.2.339.845-.065.26.3.079.086-.383.368-.123.347.123.065.383.513.7.05.325-.166.289-.051.845-.411.116.129.109-.079.708-.174.246-.512-.3-.094.643.326.614.071.339.4.607.129-.26.383.889-.065.2.129.47.369.693.2.181-.23.592-.564.448-.332.506-.462-.109-.412.21-.332.022-.245.773.281.123.571-.072.058.4.339.014-.224.4.08.578.152.065.159.441-.231-.166-.116.917.37-.123-.246.549.057.426.2.7-.087.629.332,1.069.347.368.225.4-.123.072-.311-.332-.015.455.194.368-.144.224-.116.9.116.152-.289.166-.015.722-.643.7-.066.224.232.217-.3.152.116.231-.629-.051.044-.455-.231.686.5-.014-.411.274.094.3.584-.318.564.029-.188.412-.383.246.006.744.579.766.259-.2.253-.9.477-.217.3.311-.123.607.116.058-.9.339.051.2.39.152-.26.26.513.123.426-.166.686-.094.722-.26-.433.491-.095.426-.368-.058-.224.484-.059.578.188-.072.029.332-.4.4-.722.274-.6.795.152.058-.123.657-.311.123-.08.209-.3-.014-.874.795.347.318-.08.181-.333.051-.7.961-.333.274.283.058-.4.2-.115-.21-.347.564.2-.108.361.094-.549.939h.419l-.563.448-.282.058-.216.231.433.072-.73.26-.115.809-.6-.563-.116.607-.166-.274-.043.441-.369-.072-.13-.094-.463.607-.447.369-.051-.369-.268-.607h-.346l-.368.152-.065.339-.613.607-.051-.289-.3.26-.065.5.1.318-.317-.578-.21-.2-.05-.289-.318.014-.347.455-.707.4-.188.506-.325.527-.058.289.216.838.347.079-.108.607-.62.123-.173-.079-.051,1.055.412-.108.281.441-.036.549.3.029.022.917-.131.2-1.3-.094-.2-.072-1.113-.152-.195.3-1.1,1.279.013.318.889.759.1.289.383-.029-.03.2.673.65.686.535.34.535h.253l.447.592.99.152.86.816.318.412.758.152.382.412.752.592.375.2.881.621.694.181.318-.029.838-.289.585-.123.4.094.116.246-.2.542.021.231.375.368.925.347.253.347-.087.412.065.412.47.773.115.275.4.123.411-.181.694.275.368.043.492-.181h.5l.3.52,1.011.058.116.231.462.181.463-.108.542.217-.224-.354.282-.072.787.072.318.108.333.469.86-.412.527.014-.029-1.142.694.036.253-.339.513.217.9.123.239.441.3-.051.679.311.167.556.31.2.181.361.455.477.563.426,1.041.267.729-.267.5.665.954.4.252.289.376-.029.6.152.318.166.556-.672.918.339,1,.715.3.426.21-.065.418.3.426-.26.036-.289.615.672.3.52.014.412.333-.036.13.325.354-.174.528.34.281.665.2-.137.7.412-.013.354.281.123.174.845.151.412-.209.289.462.325.259.441.3.137-.087.5-.477-.029.375.289.073.549.678.332.448.094.455.224.369-.376.216.744.152.1.39-.116-.049.3.4-.065.455.881.758.2.1-.354.282.354.4-.029.556.332.087.369.231.029.064.347.188.275-.2.217.267.043.145.332.3.217.115.39-.1.217.311.166-.043.152-.368.368-.23.787.729.152.282.412.462-.029.528.3-.043-.318.477.014.087.166.158-.455.3.412.4.246.043.4.347.137-.094,1.069.152.332.014.325.282.043-.3.289-.268.535-.4.209.144.318.448.426-.093.289.476-.072-.05.3.2-.3.427.3.382-.209.015.47.317.361-.131.311,1.322-.629.312.318.123-.426.26.173.136.376.181-.072.2-.629.578.137.267.152.585-.043.687.043.152.448.282.116.628-.224.4-.26.5.029.231.3.05-.47.477-.383.3-.376.542.289.239-.08.311.123-.08-.52.491-.1.318-.946.246.072.2-.267.4-.231.144.137.05.5.7-.043,1.04.318-.014.6.144.043.137-.469.527.361.253.52v.238l.527-.2.246-.275.253.043v.325l.333-.34.4.246.2-.246.318.014-.007-.426.534-.224.593.181-.159-.773.722.455.47-.152.3.072.268.4.4.094.362.332.5.166.051.441.26-.014.166.188-.166.275.253.3.332-.217-.152-.347.217.029.448.347.311-.116.216.455.268.029.578-.123.441.108-.058.166-.418.246.231.137.577-.152.253.224-.022.549.166.079.239-.275.209.275-.079.484.333-.152.144-.332.231.152.073.744-1.452,2.413-1.452,2.413-1.265,2.066-1.264,2.066.209.051.434.361.513-.014.65.26.578-.231.462-.5.268.087.644.014.4.159.3.5.216.7.246.412.455.441.275.354.88.961.456-2.449.448-2.442.456-2.449.448-2.449.512-2.767.513-2.774.513-2.767.311-1.633.52-3.107v-.65l.21-.412.036-.383.2-.636-.2-.881.311-.715-.282-.549-.108-.607-.354-.455-.333-.275-.246-.672-.665-.867.368-.867-.115-.564-.247-.715-.794-.368-.448-.47-.383-.123-.484-.441-.361.014-.846-.91-.448-.939.115-3.4.015-2.16.462-.26.448.029.123-.116,1.026-.079.513-.181.152-.3.621-.152.151.224.781-.455.317-.383h.231l.824.715.065.152.65-.152.195.3.55-.014.129-.253.535.014V-59.8l-.383-.253-.072-.231.188-.26-.08-.535.159-.318-.311-.426.1-.274-.281-.152-.037-.542-.8-.426-.36-.079-.253.123-.593.072-.354-.181-.693.029-.694-.166-.418.123v-.181l-.441-.051-.564.311-.151-.079-.006-2.7-.007-2.7.462.014.383-.253.86.043.758-.318.846.123.534.2,2.63.094,2.63.087,2.622.094,2.63.094-.015-.26-.268.029.1-.246-.2-.152-.26.065.064-.339-.448-.166.318-.412.129-.441.2-.361.758.267.318.339.274.65.521.462.773.318.246-.065.715-.4.6-.722.26-.181.817-1.293.939-.759.636.2.607.78.635,1.654.326.246.513.715.216.592.181.78.231.527.166.672.05.759-.079.426.13,1.033,1.886-.332ZM5039.068-83.9l-1.034.318-.209.246-.137-.26-.36.072-.087.274-.426-.289-.6.079-.044.209-.433.2-.166.274-.579.274-.483.455.1.491-.1.181-.708.123-.629.412-.238.361-.21-.108-.347.065-.4.534-.932.072-.542-.361-.267-.7.014-1.011.318-1.076.325-.838.123-.715-.036-.506.115-.564.463-1.279.5-.961.311-.3.628.058.239-.137.065-.274.311-.369-.144-.426.036-.686.325-.47.484-1.011.159-.91.419-.766.368-.426.347-.108.888-.636-.4-.506.05-.889.152-.224.361-.173-.065-.759.138-.383-.123-.874.3-.361.723-.036.282-.2h.5l.514-.874.469-.209,1.669-.029.665.072.08.824.116.173-.015.535-.181.881.231.231-.317.166.138.181-.037.477-.137.043-.065.369.05.491-.578.455.2.7-.16.274.029.657.138.26-.087.412-.311.368-.253.809-.152.318.087.2.693-.209.188.289.491.166.245.246.339-.014.492-.426.3-.036.4.231.029.318.3.477v.318l-.333.614.08.289-.166.246.231.5-.2.426-.108.462-.333.715-.2.246-.434.253-.773.766v.246l-.36.347-.058.26.166.441-.737.824-.65.535-.643.058-.521-.137-.13-.224.536-.535Z" transform="translate(-4996.846 169.338)" fill="#b3cfc0"/>
          <path id="Trazado_3372" data-name="Trazado 3372" d="M4961.149-202.311c-.042-.029-.151.037-.229.06-.223.023-.292-.131-.339-.3-.068-.248-.129-.5-.194-.749v-.072l.294-.3.083-.09-.024,0,0-.025-.118-.3a.226.226,0,0,1-.057-.016l-.079.051-.081.014-.022-.112h-.058l-.07,0-.114-.006c-.151,0-.265-.043-.222-.232a.086.086,0,0,1,0-.055l-.161-.315-.034-.152-.375-.076-.235-.074a.16.16,0,0,0-.057-.005l.065-.544.048-.063.017-.059-.146-.168a.04.04,0,0,1-.029,0l-.079.045-.243.068-.182,0-.231.068a.514.514,0,0,1-.093.119.558.558,0,0,0-.107.782.549.549,0,0,0,.125.121l.068.009.234.277a1.791,1.791,0,0,1,.41-.1c.225,0,.129.189.15.307l-.037.237.016.247-.354.432a.368.368,0,0,0,.119.039.374.374,0,0,1-.119-.039l-.122.025-.133-.041a.055.055,0,0,1-.051-.007l-.226.005-.077-.1-.3-.077-.539.439-.124.242c.086-.043.2-.073.289-.116-.087.043-.2.073-.289.116l-.018.156-.117.08a1.766,1.766,0,0,0-.456,1.151,1.573,1.573,0,0,1-.182.926c-.11.215-.171.478.119.652a.229.229,0,0,1,.1.134c.05.259.09.52.134.781l0,.486c.021.087.017.2.071.253a.817.817,0,0,0,.341.192c.054.014.137-.085.208-.134l-.007,0,.069-.059.78-.186.112-.009a1.122,1.122,0,0,1,.41-.6,1.124,1.124,0,0,0-.408.6l.351-.244.75-.657.119.006c.33.014.622-.034.7-.429a.415.415,0,0,1,.072-.132,1.187,1.187,0,0,0,.211-.984,1.794,1.794,0,0,1,.01-.58c0-.043.074-.094.125-.115.129-.054.263-.093.4-.139a2.66,2.66,0,0,0,.229-.405.259.259,0,0,0-.078-.231Zm-1.608-2.331c.047.053.108.1.156.155C4959.649-204.54,4959.588-204.588,4959.541-204.642Z" transform="translate(-4956.254 205.91)" fill="#b3cfc0"/>
        </g>
      </g>
    </g>
  </g>
</svg>
