<svg xmlns="http://www.w3.org/2000/svg" width="144" height="144" viewBox="0 0 144 144"><path d="M97.3,55.93L98.12,56.78L97.65,57.63L97.62,59.07L98.72,59.49L97.9,60.94L96.76,60.75L96.52,61.47L95.5,62.01L94.13,63.86L94.22,62.86L92.29,63.22L91.36,61.67L92.4,59.11L92.95,58.59L92.21,54.94L93.41,55.37L94.94,53.98L95.19,53.21L96.67,51.97L96.51,54.16L96.15,54.92ZM73.25,115.79L73.2,117.11L70.54,118.51L70.73,119.2L69.62,120.25L68.96,119.22L68.55,117.45L69.15,115.9L68.82,113.69L67.85,113.21L67.6,111.81L68.96,112.9L69.73,112.35L70.49,112.97L70.95,114.25L72.57,114.83ZM56.72,140.13L54.76,142.8L53.34,143.46L53.41,142.24L52.36,142.1L50.89,143.8L49.66,144L50.25,142.93L49.51,142.37L47.74,142.28L47.17,141.91L46.02,142.32L45.03,142.11L46.73,140.86L47.76,139.04L48.92,139.54L50.47,139.56L50.81,138.86L51.66,139.44L52.98,139.12L53.67,137.46L54.2,137.38L54.56,136.08L56.7,135.17L57.82,134.4L58.2,136.1L57.42,136.95L57.33,139.22ZM105.06,86L103.72,87.46L101.42,88.63L99,88.44L98.37,87.34L96.64,86.74L96.72,86.22L95.56,85.02L98.36,84.89L99.35,85.32L99.29,84.56L97.49,83.25L98.38,82L99.96,80.73L100.06,79.8L101.21,78.11L102.27,78.91L102.49,80.02L102.85,81.42L102.51,82.36L103.3,82.78L103.05,83.81L105.24,85.29ZM66.96,126.89L66.8,128.8L65.83,130.85L64.16,132L62.56,131.04L63.64,128.42L65.1,127.19ZM92.4,91.38L91.07,91.62L90.77,92.33L89.01,93.75L88.34,93.48L87.48,92.11L87.55,90.2L85.91,89.62L85.85,87.23L86.47,86.9L86.28,85.77L86.63,84.74L87.6,84.4L88.33,83.46L90.37,84.46L90.94,85.15L90.78,86.37L89.93,87.42L90.13,88.6L91.71,89.08L92.53,90.33ZM65.5,56.44L66.82,57.04L68.15,56.87L68.09,57.57L69.11,58.05L69.76,58.63L60.22,70.95L64.65,74.44L64.06,75.06L62.87,73.78L61.45,73.94L61.06,74.59L60.03,73.78L58.08,73.53L57.98,75.51L57.54,75.97L56.43,76.29L55.34,75.13L54.79,75.26L54.11,74.02L52.11,74.52L52.14,73.01L51.49,73.28L50.74,75.52L50.29,74.56L45.77,74.29L42.16,76.59L41.43,76.55L41.17,77.38L39.89,77.49L39.94,78.61L37.73,79.44L37.29,79.3L38.12,78.09L38.18,77.22L39.81,75.46L41.46,74.15L42.18,72.85L45.81,70.57L46.57,70.4L48.79,68.56L49.76,66.97L49.36,63.58L46.95,60.91L46.88,58.79L46.39,56.95L47.29,55.11L48.25,56.31L49.49,56.53L51.39,54.99L53.48,53.84L54.11,53.93L53.64,55.2L54.89,54.16L54.97,53.44L56.84,53.4L57.67,54.05L59.26,52.7L60.97,52.88L62.44,53.42L62.38,54.27L65.09,55.23ZM88.72,72.09L87.45,73.43L85.7,76.63L83.61,74.76L82.81,74.8L82.42,72.96L81.62,71.68L80.64,71.44L81.6,68.92L80.85,68.14L78.95,67.79L78.1,68.59L76.02,68.64L74.92,70.09L72.2,68.52L72.14,66.66L72.55,64.42L70.63,65.22L70.5,62.69L70.82,61.13L70.43,59.53L69.76,58.63L71.34,59.27L72.5,58.81L75,59.52L76.03,60.81L78.36,62.21L79.29,63.79L81.1,63.89L81.31,65.31L84.02,66.52L85.23,68.63L86.16,69.69L87.41,70.19ZM36.87,113.7L37.07,114.57L37.97,115.5L39.18,115.87L39.87,114.99L41.19,114.5L42.21,114.94L44.18,113.56L45.61,113.88L46.61,113.14L48.22,113.46L48.65,115.12L50.36,115.95L50.41,116.64L51.85,116.2L53.77,114.55L54.8,114.19L56.23,114.52L56.39,115.26L56.34,116.37L57.43,117.61L58.71,118.14L58.5,119.42L57.68,120.34L57.44,121.41L58.34,124.5L59.35,125.02L58.64,125.99L57.39,126.68L56.83,127.68L57.23,128.98L56.42,130.44L54.02,129.87L51.09,127.67L51.52,125.89L52.62,125.92L54.44,125.15L54.94,125.71L56.66,124.28L56.02,123.18L54.66,121.9L55.1,120.37L54.42,119.14L51.79,118.51L50.62,119.3L50.12,117.96L47.35,118.97L47.06,117.89L45.67,117.66L44.77,115.49L44.05,115.31L41.5,115.88L38.28,117.6L37.08,116.67L36.81,118.24L37.39,118.89L36.07,120.02L36.61,120.4L35.91,121.54L36.83,124L35.34,124.77L35.31,125.92L33.7,127.04L32.59,130.31L32.04,131L32.22,132L31.07,134.03L31.35,135.27L30.72,135.24L28.48,136.58L27.2,136.51L26.79,134.3L28.79,132.82L29.63,131.26L28.8,130.05L29.77,128.65L28.34,127.11L27.33,124.97L27.56,122.81L25.32,121.8L24.84,122.5L23.02,122.96L22.39,124.5L21.38,124.04L20.34,124.38L19.23,122.85L19.29,122.09L16.86,121.3L16.09,119.3L16.25,118.76L14.78,117.52L15.26,114.88L14.48,114.97L13.16,114.16L12.16,112.38L11.92,110.62L12.98,109.92L14.53,112.02L16.07,112.35L17.67,113.5L18.76,113.86L18.25,115.32L18.96,119.18L20.98,119.97L22.93,119.9L23.85,120.38L25.1,120.19L25.94,119.22L27.48,120.06L28.2,121.4L28.83,121.32L29.54,122.62L30.47,122.57L31.44,121.77L32.04,118.4L31.32,118.25L30.43,116.86L31.36,115.91L31.24,114.81L32.72,115.17L32.81,114.48L34.45,113.18L35.07,112.19L35.99,113.54ZM85.91,89.62L87.55,90.2L87.48,92.11L88.34,93.48L89.01,93.75L89.49,94.76L88.21,95.72L86.85,96.63L85.49,96.62L84.88,93.4ZM109.33,45.44L108.04,45.49L107.88,45.99L105.97,47.19L105.46,49.09L106.29,49.63L106,50.44L104.21,49.11L102.67,47.5L102.71,46.92L104.37,47.13L106.04,44.98L107.56,44.05L108.35,44.21ZM122.68,96.79L123.33,97.24L123.34,99.05L122.57,99.59L122.04,101.01L121.36,100.61L120.46,98.88L119.82,96.76L118.8,94.91L116.51,93.37L117.71,92.59L118.9,91.69L119.86,92.95L121.22,93.58L122.01,96.56ZM130.84,83.78L131.48,84.5L131.3,86.56L131.59,88.14L130.95,89.35L129.99,89.74L129.19,91.85L128.3,92.33L127.24,91.94L126.07,93.26L124.92,93.8L124.64,91.82L123.86,92.2L122.85,91.62L122.65,90.33L120.95,90.38L121.56,88.51L123.11,86.59L123.52,85.37L123.68,84.11L124.46,84.19L125.64,83.51L125.57,82.07L126.38,82.86L128.69,82.77L129.05,83.76ZM105.06,86L105.24,85.29L103.05,83.81L103.3,82.78L102.51,82.36L102.85,81.42L102.49,80.02L103.99,79.93L104.53,78.83L105.1,79.15L106.53,79.76L108.21,78.68L107.61,82.29L108.5,84.4L107.06,85L106.79,86.47L106.85,86.87ZM117.06,68.52L117.73,67.45L119.07,67.68L120.41,67.36L120.9,69.77L121.55,68.21L122.09,67.87L123.06,68.49L124.92,68.35L125.7,67.8L127.12,67.74L128.3,71.47L127.7,72.36L128,74.47L127.31,77.55L126.17,79.45L124.06,79.3L123.63,79.96L122.93,78.44L120.32,78L119.41,79.47L118.02,78.93L117.27,77.47L115.66,77.94L116.68,76.25L116.88,74.67L116.64,73.01L117.22,71.27L116.3,70.23L116.42,69.16ZM101.38,105.6L99.46,105.14L99.01,107.01L98.22,107.5L97.71,108.83L96.81,109.55L97.07,110.64L95.03,111.02L95.73,112.27L94.76,114.29L93.49,114.58L92.05,116.98L91.96,118.35L91.3,119.62L91.35,120.94L92.9,121.51L93.13,124.1L92.84,125.36L93.23,126.83L95.33,128.14L96.63,128.1L96.63,128.6L93.81,129.16L92.41,128.63L92.35,128.02L91.16,127.08L90.64,126.05L89.48,125.46L88.47,124.04L87.36,123.59L88.13,119.9L87.55,119.26L88.09,118.43L87.5,117.48L88.28,116.95L89.18,115.08L89.31,112.34L89.69,110.48L88.75,108.67L87.98,108.62L88.08,108L89.34,107.82L89.44,107.31L92.09,105.78L93.08,107L92.95,109.43L94.46,109.73L94.56,107.9L95.51,108.1L97.34,104.17L98.66,104.09L100.43,103.48ZM98.12,56.78L97.3,55.93L98.12,54.91L98.34,53.48L97.88,53L98.7,51.22L100.31,51.15L102.72,49.13L103.26,48.89L104.6,49.59L105.3,50.45L106,50.44L108.38,52.57L107.54,53.19L106.73,53.02L104.46,53.74L103.43,53.63L102.93,52.85L101.16,53.46L100.35,54.41L99.75,55.96ZM82.63,103.14L82.01,104.9L80.82,105.97L80.12,107.18L80.23,108.2L79.3,108.42L77.75,107.93L77.52,108.43L76.8,108.05L75.32,108.96L74.24,108.14L74.1,106.49L73.62,106.36L73.52,104.64L73.16,103L74.18,99.9L74.95,99.14L75.66,99.83L75.76,102.46L76.69,102.99L78.52,102.48L79.44,102.76L82.23,102.84ZM67.48,121.65L67.52,122.02L66.52,123.86L66.89,125.04L66.48,125.62L65.94,124.81L64.46,125.61L62.16,125.08L60.74,124.39L61.63,122.48L62.92,121.11L64.13,119.05L65.87,119.92ZM36.87,113.7L35.99,113.54L35.07,112.19L34.45,113.18L32.81,114.48L32.72,115.17L31.24,114.81L31.36,115.91L30.43,116.86L31.32,118.25L32.04,118.4L31.44,121.77L30.47,122.57L29.54,122.62L28.83,121.32L28.2,121.4L27.48,120.06L25.94,119.22L25.1,120.19L23.85,120.38L22.93,119.9L20.98,119.97L18.96,119.18L18.25,115.32L18.76,113.86L17.67,113.5L16.07,112.35L14.53,112.02L12.98,109.92L15.09,108.44L16.39,107.18L16.97,104.87L18.14,103.61L19.91,103.51L21.18,102.28L20.86,101.44L19.51,100.1L19.09,98.6L19.66,96.89L18.95,94.74L19.17,93.24L18.82,92.15L21.72,89.42L23.54,89.53L24.49,88.15L26.57,87.6L27.76,86.92L29.25,84.84L30.72,84.13L31.49,84.26L33.44,83.32L34.44,82.11L36.05,81.58L36.38,80.92L36.54,82.48L37.46,83.09L36.23,83.86L36.82,84.04L37.03,85.33L37.66,85.9L37.29,88.53L38.73,87.97L39.06,89.27L38.77,90.55L39.14,91.43L41.68,91.32L45.35,92.73L46.69,94.64L48.44,93.81L50.16,94.37L50.38,96.49L54.13,99.56L51.9,104.46L51.12,107.23L43.25,113.96L40.4,113.88L39.49,114.27ZM130.84,83.78L129.05,83.76L128.69,82.77L126.38,82.86L125.57,82.07L125.64,83.51L124.46,84.19L123.68,84.11L123.52,85.37L120.33,85.76L118.98,84.19L118.61,84.4L118.79,83.31L116.07,81.06L115.91,80.51L115.66,77.94L117.27,77.47L118.02,78.93L119.41,79.47L120.32,78L122.93,78.44L123.63,79.96L124.06,79.3L126.17,79.45L127.31,77.55L128,74.47L129.97,74.35L130.61,73.15L130.64,74.69L132.08,77.44L131.8,78.85L130.89,79.64L130.87,81.65L131.51,82.87ZM89.44,107.31L89.34,107.82L88.08,108L87.98,108.62L86.91,108.3L85.16,107.01L83.55,106.22L84.04,104.94L86.59,105L87.33,104.65L88.17,102.63L89.16,102.75L90.01,104.54L89.47,105.21ZM73.52,104.64L73.62,106.36L74.1,106.49L74.24,108.14L75.32,108.96L76.8,108.05L77.52,108.43L75.66,110.25L75.01,113.08L73.88,112.36L74.1,111.64L72.37,110.92L69.51,111.05L69.07,111.61L68.12,110.99L68.25,109.72L67.03,109.4L66.28,107.86L67.45,107.6L69.09,108.68L70.24,107.58L71.11,105.15L72.09,104.57ZM93.49,114.58L94.76,114.29L95.73,112.27L95.03,111.02L97.07,110.64L96.81,109.55L97.71,108.83L98.22,107.5L99.01,107.01L99.46,105.14L101.38,105.6L102.65,105.63L103.44,105.08L105.81,104.19L106.59,104.41L106.74,104.72L105.98,105.96L106.95,108.52L108.07,108.94L108.76,110.73L107.94,111.04L107.8,112.37L109.13,112.98L109.25,113.75L108.62,114.7L108.65,116.21L109.57,116.69L109.17,118.23L108.89,119.41L107.61,119.45L107.31,120.13L105.95,120.96L105.33,119.99L103.91,119.09L101.23,119.18L100.12,118.37L99.49,118.65L97,117.92L95.7,116.07L93.65,115.76ZM96.72,86.22L96.64,86.74L98.37,87.34L99,88.44L101.42,88.63L103.72,87.46L105.06,86L106.85,86.87L108.21,87.91L108.92,89.55L107.57,89.51L107.55,88.91L106.35,88.48L106.38,89.34L105.07,91.21L102.82,90.86L102.38,91.48L102.54,92.91L101.6,94.2L101.85,94.9L100.8,95.26L99.71,95.03L96.52,93.74L96.13,93.16L95.15,93.57L94.88,92.26L95.62,89.54L94.96,88.44L94.52,88.19L94.53,86.25L95.48,85.96ZM78.99,85.34L79.15,87.36L78.03,89.24L76.2,92.54L76.3,93.71L75.57,94.83L75.76,95.76L74.32,95.84L73.16,95.28L72.18,96.1L70.5,96.12L69.25,96.71L68.78,94.97L65.31,94.17L64.64,94.7L64.11,94.21L61.72,94.2L61.37,93.77L61.89,92.22L60.44,91.49L59.34,91.41L58.35,90.35L58.3,89.21L58.99,89L58.26,87.99L57.88,85.69L58.02,84.25L58.64,83.25L58.03,82.41L58.58,81.74L59.91,82.72L61.22,82.99L62.15,82.15L62.14,80.81L64.19,81.23L64,77.62L66.63,78.52L67.01,79.04L69.44,78.93L69.6,80.45L71.33,79.55L73.1,81.19L74.27,80.83L74.04,81.94L74.28,83.62L75.12,83.34L76.16,83.75L76.13,84.73L78.09,84.76ZM73.25,115.79L72.57,114.83L70.95,114.25L70.49,112.97L69.73,112.35L68.96,112.9L67.6,111.81L64.11,109.62L64.26,108.34L66.28,107.86L67.03,109.4L68.25,109.72L68.12,110.99L69.07,111.61L69.51,111.05L72.37,110.92L74.1,111.64L73.88,112.36L75.01,113.08ZM38.28,117.6L41.5,115.88L44.05,115.31L44.77,115.49L45.67,117.66L47.06,117.89L47.35,118.97L50.12,117.96L50.62,119.3L51.79,118.51L54.42,119.14L55.1,120.37L54.66,121.9L56.02,123.18L56.66,124.28L54.94,125.71L54.44,125.15L52.62,125.92L51.52,125.89L49.91,126.73L48.66,126.25L48.08,124.31L47.13,123.86L46.64,121.71L45.77,121.79L45.98,122.57L44.54,122.52L43.39,123.56L41.93,124.01L40.75,123.83L39.02,122.61L38.61,121.24L39.29,120.02L39.12,118.94ZM98.6,31.88L97.86,33.87L96.43,34.82L95.72,36.25L97.15,37.37L96.46,38.49L98.29,39.08L98.8,40.6L96.85,40.69L96.88,39.8L95.74,39.7L94.53,41.11L92.87,42.03L91.39,42.41L90.37,43.16L89.9,41.45L88.8,41.63L87.81,40.49L86.91,42L83.92,42.14L83.38,41.52L84.25,40.63L83.89,39.8L82.37,38.3L82.89,37.14L84.24,36.43L84.92,35.31L86.04,36.35L86.93,34.72L86.27,32.96L87.15,32.26L87.59,31.15L88.66,30.35L90.78,31.13L91.7,30.74L94.39,31.74L95.55,31.11L96.14,31.66ZM96.63,128.1L95.33,128.14L93.23,126.83L92.84,125.36L93.13,124.1L92.9,121.51L91.35,120.94L91.3,119.62L91.96,118.35L92.05,116.98L93.49,114.58L93.65,115.76L95.7,116.07L97,117.92L99.49,118.65L100.12,118.37L101.23,119.18L103.91,119.09L105.33,119.99L105.95,120.96L105.98,121.57L104.15,122.92L103.67,125.09L102.45,126.17L101.97,127.46L100.79,128.93L99.8,126.96L99.6,125.41L97.8,126.11L97.49,127.78ZM118.9,91.69L117.71,92.59L118.59,90.57L118.6,87.01L118.61,84.4L118.98,84.19L120.33,85.76L123.52,85.37L123.11,86.59L121.56,88.51L120.95,90.38L119.84,91.39ZM52.98,139.12L51.66,139.44L50.81,138.86L50.47,139.56L48.92,139.54L47.76,139.04L46.73,140.86L45.03,142.11L43.82,143.21L43.3,142.73L42.16,140.06L41.32,139.48L40.82,137.87L39.31,137.35L38.15,137.46L38.16,136.62L40.24,135.85L42.59,136.86L42.84,136.42L44.98,135.77L47.81,136.08L49.7,135.4L50.25,137.55L51.17,137.86ZM94.13,63.86L95.5,62.01L96.52,61.47L96.76,60.75L97.9,60.94L98.72,59.49L99.53,58.97L100.28,60.36L101.12,60.74L101.17,61.86L99.89,62.19L99.32,64.64L96.95,65.66L96.84,66.33L95.99,65.76L95.79,66.38L94.55,66.6L94.05,65.89L94.63,65.3L93.59,64.23ZM86.28,85.77L86.47,86.9L85.85,87.23L85.91,89.62L84.88,93.4L83.64,93.34L83.94,91.88L83.14,91.34L79.73,90.19L78.03,89.24L79.15,87.36L78.99,85.34L80.01,83.73L79.64,83.28L79.83,81.42L80.36,80.55L81.75,81.16L81.55,82.05L83.6,82.92L83.79,83.88L84.68,85.21ZM87.36,123.59L88.47,124.04L89.48,125.46L90.64,126.05L91.16,127.08L89.76,126.57L88.64,127.86L88.27,130.23L89.24,131.39L88.59,131.91L88.49,133.2L89.16,133.21L90.66,135.58L89.35,137.01L88.02,137.08L87,137.61L85.89,136.49L85.68,135.46L84.82,135.03L84.44,135.58L83.12,135.24L82.25,135.53L80.84,134.27L81.17,136.06L80.72,136.7L80.38,138.65L79.66,139.35L78.55,141.44L76.95,140.39L76.4,140.57L76.15,138.96L74.49,137.77L73.68,137.56L74.99,134.62L74.67,133.25L75.38,132.54L77.49,133.29L79.52,128.54L79.71,126.45L77.79,123.48L78.45,123.99L79.22,123.33L81.65,123.69L82.12,122.03L85.05,122.46L86.39,123.65ZM92.21,54.94L92.95,58.59L92.4,59.11L91.36,61.67L92.29,63.22L94.22,62.86L94.13,63.86L93.59,64.23L94.63,65.3L94.05,65.89L94.55,66.6L94.81,67.89L94.66,69.52L95.19,70.6L96.18,71.28L95.64,71.57L95.26,73.01L91.12,74.56L90.54,73.53L89.66,73.33L88.72,72.09L87.41,70.19L86.16,69.69L85.23,68.63L84.02,66.52L81.31,65.31L81.1,63.89L79.29,63.79L78.36,62.21L76.03,60.81L75,59.52L72.5,58.81L71.34,59.27L69.76,58.63L69.11,58.05L70.67,58.16L71.27,57.71L72.56,57.99L73.88,57.67L74.57,58.34L75.57,57.85L75.82,57.03L76.43,57.67L76.37,58.63L77.38,58.14L78.99,59.03L80.86,59.47L81.1,60.29L82.85,61.13L83.52,60.58L86.12,62.82L86.21,64.58L88,65.28L89.87,65.07L89.73,63.8L90.86,61.1L90.7,59.58L91.79,58.78L92.28,56.69L91.86,55.28ZM108.21,78.68L106.53,79.76L105.1,79.15L106.25,76.75L107,75.8L106.81,75.08L108.43,73.28L108.24,72.73L109.04,71.91L109.04,69.93L110.16,67.75L109.7,67.06L110.47,66.1L110.6,64.94L113.77,65.51L114.03,66.35L115.67,66.96L116.34,68.35L117.06,68.52L116.42,69.16L116.3,70.23L116.57,71.67L115.47,73.38L113.1,73.79L111.67,74.85L111.45,76.29L110.49,77.91L108.12,77.23ZM73.2,117.11L73.25,115.79L75.01,113.08L75.66,110.25L77.52,108.43L77.75,107.93L79.3,108.42L78.95,109.3L80.37,110.47L80,112.03L81.25,112.9L80.63,114.42L80.88,115.18L80.29,116.28L78.59,114.78L77.3,116.27L75.52,116.31L73.66,117.57ZM79.3,108.42L80.23,108.2L80.12,107.18L80.82,105.97L82.01,104.9L83.55,106.22L85.16,107.01L84.74,108.42L83.13,109.54L82.31,109.15L82.29,110.35L81.26,110.81L80.37,110.47L78.95,109.3ZM56.42,130.44L57.23,128.98L56.83,127.68L57.39,126.68L59.34,127.44L59.3,127.85L61.09,128.23L62.56,131.04L61.47,131.54L60.35,132.65L59.46,131.91L58.39,132.02L57.42,133.06L57.03,132.39ZM66.96,126.89L65.1,127.19L66.48,125.62L66.89,125.04L66.52,123.86L67.52,122.02L67.96,123.19L69.95,124.28L67.32,126.05ZM75.76,95.76L75.57,94.83L76.3,93.71L76.2,92.54L78.03,89.24L79.73,90.19L83.14,91.34L83.94,91.88L83.64,93.34L84.56,96.54L83.37,97.06L83.51,97.8L82.28,98L77.97,95.26L76.86,95.63L75.89,96.66ZM57.82,134.4L56.7,135.17L54.56,136.08L54.2,137.38L53.67,137.46L52.98,139.12L51.17,137.86L50.25,137.55L49.7,135.4L47.81,136.08L46.37,135.26L47.26,134.48L48.11,134.95L49.18,134.41L52.02,135.79L54.4,134.12L53.78,133.29L54.43,133.17L55.8,131.95L57.03,132.39L57.42,133.06ZM97.49,83.25L99.29,84.56L99.35,85.32L98.36,84.89L95.56,85.02L96.72,86.22L95.48,85.96L94.53,86.25L93.48,86L92.68,84.67L92.93,83.67L97,83.55ZM32.22,132L32.04,131L32.59,130.31L33.7,127.04L35.31,125.92L35.34,124.77L36.1,124.97L36.39,126.52L37.17,127.81L36.17,129.98L37.51,130.91L39.32,130.84L40.45,129.36L41.12,127.61L43.65,129.23L43.58,130.84L44.64,131.34L46.88,130.94L48.19,133.05L47.26,134.48L46.37,135.26L47.81,136.08L44.98,135.77L42.84,136.42L42.59,136.86L40.24,135.85L38.16,136.62L37.58,136.1L36.76,134.01L34.98,134.08ZM56.39,115.26L56.23,114.52L54.8,114.19L53.77,114.55L51.85,116.2L50.41,116.64L50.36,115.95L48.65,115.12L48.22,113.46L46.61,113.14L45.61,113.88L44.18,113.56L42.21,114.94L41.19,114.5L39.87,114.99L39.18,115.87L37.97,115.5L37.07,114.57L36.87,113.7L39.49,114.27L40.4,113.88L43.25,113.96L51.12,107.23L51.9,104.46L54.13,99.56L50.38,96.49L51,96.01L51.92,96.5L54.66,93.57L55.65,94.17L55.4,97.02L55.68,97.92L56.78,97.45L57.62,99.52L61.33,102.44L59.68,105.45L58.67,106.67L57.35,109.59L58.75,109.65L57.97,110.67L58.87,112.61L57.99,114.33ZM67.6,111.81L67.85,113.21L68.82,113.69L69.15,115.9L68.55,117.45L68.96,119.22L69.62,120.25L67.48,121.65L65.87,119.92L64.13,119.05L64.62,118.23L62.96,118.22L61.24,116.6L61.17,115.23L61.63,113.88L61.46,111.86L60.77,110.49L59.06,109.37L60.18,106.55L62.23,104.07L62.69,105.03L62.83,106.8L62.15,108.41L63,109.02L62.96,109.91L64.11,109.62ZM91.86,55.28L92.28,56.69L91.79,58.78L90.7,59.58L90.86,61.1L89.73,63.8L89.87,65.07L88,65.28L86.21,64.58L86.12,62.82L83.52,60.58L82.85,61.13L81.1,60.29L80.86,59.47L78.99,59.03L77.38,58.14L76.37,58.63L76.43,57.67L75.82,57.03L76.11,56.49L78.02,55.59L80.59,50.9L79.69,49.1L80.02,47.84L79.48,46.8L79.77,45.68L79.04,45.45L79.64,44.29L78.19,43.87L79.41,43.66L79.69,42.83L81.08,43.05L81.38,44.28L81,45.69L81.5,46.87L81.11,47.71L82.17,47.93L83.62,46.87L84.83,47.13L85.39,49.99L86.42,50.99L86.8,53.58L88.75,54.72L91.04,55.44ZM101.21,78.11L100.06,79.8L99.96,80.73L98.38,82L97.49,83.25L97,83.55L92.93,83.67L91.47,83.28L91.05,82.2L89.81,81.42L89.83,79.6L90.62,78.93L91.65,76.58L91.12,74.56L95.26,73.01L96.25,74.16L98.2,75.1L98.93,76.1L101.08,77.61ZM122.04,101.01L122.57,99.59L123.34,99.05L123.33,97.24L122.68,96.79L124.44,95.57L124.92,93.8L126.07,93.26L127.24,91.94L128.3,92.33L128.09,93.29L128.65,94.87L127.88,95.99L128.48,97.97L125.91,98.65L124.75,100.12L123.65,100.74ZM115.91,80.51L116.07,81.06L118.79,83.31L118.61,84.4L118.6,87.01L117.18,86.68L117.25,86.05L114.94,86.48L114.63,84L115.63,82.86ZM97.3,55.93L96.15,54.92L96.51,54.16L96.67,51.97L96.11,50.71L95.08,50.65L95.08,48.95L94.35,48.48L95.8,45.94L94.98,45.1L96.31,42.8L96.85,40.69L98.8,40.6L99.76,41.01L101.54,43.05L100.86,45.93L100.33,46.4L101.37,47.78L102.59,48.08L102.72,49.13L100.31,51.15L98.7,51.22L97.88,53L98.34,53.48L98.12,54.91ZM101.38,105.6L100.43,103.48L98.66,104.09L97.34,104.17L97.25,103.74L96.59,103.12L97.58,100.79L97.05,98.33L97.53,97.23L98.35,96.83L99.71,95.03L100.8,95.26L101.85,94.9L101.6,94.2L102.54,92.91L102.38,91.48L102.82,90.86L105.07,91.21L106.38,89.34L106.35,88.48L107.55,88.91L107.57,89.51L108.92,89.55L109.36,90.83L110.61,91.52L111.2,93.25L110.32,93.37L109.29,95.17L109.11,96.3L107.73,97L108.57,97.39L108.87,98.42L108.72,99.96L106.9,101.99L106.5,102.91L106.59,104.41L105.81,104.19L103.44,105.08L102.65,105.63ZM106.85,86.87L106.79,86.47L108.13,85.69L109.17,86.36L110.97,86.32L111.44,84.87L113.84,83.69L114.63,84L114.94,86.48L115.3,87.91L114.92,89.4L115.23,91.3L114.95,92.53L112.68,93.74L112.54,94.76L112.07,94.66L111.2,93.25L110.61,91.52L109.36,90.83L108.92,89.55L108.21,87.91ZM97.34,104.17L95.51,108.1L94.56,107.9L94.46,109.73L92.95,109.43L93.08,107L92.09,105.78L91.98,103L93.35,102.94L94.72,104.05L95.82,103.37L97.25,103.74ZM87.98,108.62L88.75,108.67L89.69,110.48L89.31,112.34L89.18,115.08L88.28,116.95L87.5,117.48L88.09,118.43L87.55,119.26L86.03,119.06L84.8,118.09L83.81,118.81L82.77,118.36L82.28,116.64L80.77,118.59L79.66,117.92L80.29,116.28L80.88,115.18L80.63,114.42L81.25,112.9L80,112.03L80.37,110.47L81.26,110.81L82.29,110.35L82.31,109.15L83.13,109.54L84.74,108.42L85.16,107.01L86.91,108.3ZM109.17,118.23L109.57,116.69L108.65,116.21L108.62,114.7L109.25,113.75L109.13,112.98L107.8,112.37L107.94,111.04L108.76,110.73L108.07,108.94L106.95,108.52L105.98,105.96L106.74,104.72L107.47,104.88L108.37,103.93L110.32,104.18L112.15,103.1L112.27,97.64L112.52,97.39L111.85,95.11L112.07,94.66L112.54,94.76L113.36,95.48L114.4,95.53L114.79,96.76L115.76,97.62L116.94,97.81L116.89,98.85L117.57,99.86L116.82,100.78L117.12,104.03L117.55,104.81L117.2,105.7L116.21,106.25L115.67,108.06L115.83,110.2L116.36,110.54L116.14,111.86L116.38,113.31L114.65,114.34L112.95,114.05L111.35,117.98ZM84.88,93.4L85.49,96.62L84.31,98.15L83.51,97.8L83.37,97.06L84.56,96.54L83.64,93.34ZM82.01,104.9L82.63,103.14L82.9,102.18L84.13,101.73L85.64,101.88L88.17,102.63L87.33,104.65L86.59,105L84.04,104.94L83.55,106.22ZM92.09,105.78L89.44,107.31L89.47,105.21L90.01,104.54L89.16,102.75L89.98,100.53L91.16,99.33L91.99,99.21L92.74,97.56L94.17,97.31L94.67,98.35L92.44,100.59L91.98,103ZM102.49,80.02L102.27,78.91L101.21,78.11L101.08,77.61L98.93,76.1L98.2,75.1L96.25,74.16L95.26,73.01L95.64,71.57L96.18,71.28L95.19,70.6L94.66,69.52L94.81,67.89L94.55,66.6L95.79,66.38L95.99,65.76L96.84,66.33L96.95,65.66L99.32,64.64L99.89,62.19L101.17,61.86L101.78,61.3L103.78,61.35L104.43,63.29L104.91,61.91L106.7,62.89L106.87,63.63L106.35,64.97L106.47,66.33L106.1,68L104.67,70.51L103.85,70.85L102.44,70.65L101.99,71.46L103.4,73.18L104.28,73.36L103.83,74.41L105.02,75.3L106.24,74.9L106.25,76.75L105.1,79.15L104.53,78.83L103.99,79.93ZM88.21,95.72L89.49,94.76L91.5,94.28L92.42,93.73L93.26,95.78L92.74,97.56L91.99,99.21L91.16,99.33L90.74,98.41L89.96,98.15L89.81,97.25ZM56.72,140.13L57.33,139.22L57.42,136.95L58.2,136.1L57.82,134.4L57.42,133.06L58.39,132.02L59.46,131.91L60.35,132.65L61.47,131.54L62.56,131.04L64.16,132L64.48,133L65.52,133.37L66.25,134.46L65.15,136.94L64.55,139.17L64.53,141.65L63.52,143.66L62.52,142.79L61.99,141.6L60.77,141.05L59.44,139.65L58.89,140.28ZM37.29,79.3L37.73,79.44L39.94,78.61L39.89,77.49L41.17,77.38L41.43,76.55L42.16,76.59L45.77,74.29L46.43,75.4L46.66,76.8L45.68,78.91L45.19,79.23L46.39,81.13L47.63,81.58L48.96,83.47L49.87,83.16L50.81,85.27L51.69,85.69L51.39,86.89L52.2,87.28L52.5,89.21L53.32,89.8L54.77,89.28L55.67,90.5L54.46,91.51L55.39,92.8L57.29,93.37L56.8,94.14L55.65,94.17L54.66,93.57L51.92,96.5L51,96.01L50.38,96.49L50.16,94.37L48.44,93.81L46.69,94.64L45.35,92.73L41.68,91.32L39.14,91.43L38.77,90.55L39.06,89.27L38.73,87.97L37.29,88.53L37.66,85.9L37.03,85.33L36.82,84.04L36.23,83.86L37.46,83.09L36.54,82.48L36.38,80.92ZM65.5,56.44L65.09,55.23L62.38,54.27L62.44,53.42L60.97,52.88L59.26,52.7L57.67,54.05L56.84,53.4L54.97,53.44L54.89,54.16L53.64,55.2L54.11,53.93L53.48,53.84L51.39,54.99L49.49,56.53L48.25,56.31L47.29,55.11L47.5,53.44L47.23,51.91L47.82,50.04L48.43,46.5L48.94,42.23L47.68,39.83L48.08,38.29L49.86,37.68L50.72,36.17L51.64,36.11L52.2,34.17L52.74,33.69L52.96,31.99L53.69,31.65L53.45,30.09L54.64,28.88L53.62,26.82L53.89,25.97L52.74,24.72L54.65,22.09L53.9,19.88L53.23,18.88L53.29,16.57L52.54,15.38L52.71,12.6L52.23,11.51L50.93,10.27L50.33,7.46L50.64,4.42L51.24,3.61L53.15,2.31L54.14,0.85L55.97,0L56.31,1.67L55.89,2.48L55.2,2.19L56.58,4.09L56.62,4.81L57.95,5.62L57.47,5.95L58.5,6.75L58.19,7.1L59.17,8.03L58.76,9.4L58.99,10.43L59.85,10.35L60.58,11.5L61.43,11.44L62.01,12.88L61.71,13.73L62.12,14.83L60.97,15.46L60.81,16.17L59.82,16.68L58.89,18.36L57.8,18.63L57.41,20.2L58.2,21.24L58.02,21.79L56.76,22.15L57.31,23.33L56.86,25.31L56.87,26.62L56.58,28.25L56.98,28.55L56.69,29.95L57.36,30.28L57.83,32.02L58.95,33.02L56.01,36.42L56.22,37.18L56.21,41.03L55.95,42.75L57.51,43.33L57.54,43.92L58.85,44.11L60.16,44.89L60.7,46.37L61.92,46.07L62.95,47.47L63.48,47.5L63.25,48.89L64.8,50.17L65.7,50.07L67.66,51.57ZM96.67,51.97L95.19,53.21L94.94,53.98L93.41,55.37L92.21,54.94L91.86,55.28L91.04,55.44L88.75,54.72L86.8,53.58L86.42,50.99L85.39,49.99L84.83,47.13L83.62,46.87L82.17,47.93L81.11,47.71L81.5,46.87L81,45.69L81.38,44.28L81.08,43.05L79.69,42.83L79.41,43.66L78.19,43.87L77.57,43.2L76.76,43.69L74.22,40.07L73.44,38.08L71.88,37.58L71.36,37.86L70.55,37.03L69.85,35.36L68.99,35.1L69,34.32L68.21,32.89L66.32,32.53L65.13,31.76L64.08,32.14L62.82,31.47L63.15,30.15L62.8,29.48L61.61,29.66L60.66,27.95L59.26,28.67L58.39,27.69L57.21,27.47L56.87,26.62L56.86,25.31L57.31,23.33L64.29,23.42L66.32,24.91L66.27,26.03L67.85,26.41L68.77,27.06L68.56,27.69L69.87,28.49L71.14,30.06L70.9,31.07L71.58,32.26L72.76,32.62L74.02,33.66L75.67,33.78L77.39,34.3L78.25,34.15L78.76,33.3L80.61,35.54L82.68,35.27L84.92,35.31L84.24,36.43L82.89,37.14L82.37,38.3L83.89,39.8L84.25,40.63L83.38,41.52L83.92,42.14L86.91,42L87.81,40.49L88.8,41.63L89.9,41.45L90.37,43.16L91.39,42.41L92.87,42.03L94.53,41.11L95.74,39.7L96.88,39.8L96.85,40.69L96.31,42.8L94.98,45.1L95.8,45.94L94.35,48.48L95.08,48.95L95.08,50.65L96.11,50.71ZM69.11,58.05L68.09,57.57L68.15,56.87L66.82,57.04L65.5,56.44L67.66,51.57L65.7,50.07L64.8,50.17L63.25,48.89L63.48,47.5L62.95,47.47L61.92,46.07L60.7,46.37L60.16,44.89L58.85,44.11L57.54,43.92L57.51,43.33L55.95,42.75L56.21,41.03L56.22,37.18L56.01,36.42L58.95,33.02L57.83,32.02L57.36,30.28L56.69,29.95L56.98,28.55L56.58,28.25L56.87,26.62L57.21,27.47L58.39,27.69L59.26,28.67L60.66,27.95L61.61,29.66L62.8,29.48L63.15,30.15L62.82,31.47L64.08,32.14L65.13,31.76L66.32,32.53L68.21,32.89L69,34.32L68.99,35.1L69.85,35.36L70.55,37.03L71.36,37.86L71.88,37.58L73.44,38.08L74.22,40.07L76.76,43.69L77.57,43.2L78.19,43.87L79.64,44.29L79.04,45.45L79.77,45.68L79.48,46.8L80.02,47.84L79.69,49.1L80.59,50.9L78.02,55.59L76.11,56.49L75.82,57.03L75.57,57.85L74.57,58.34L73.88,57.67L72.56,57.99L71.27,57.71L70.67,58.16ZM106.79,86.47L107.06,85L108.5,84.4L107.61,82.29L108.21,78.68L108.12,77.23L110.49,77.91L111.45,76.29L111.67,74.85L113.1,73.79L115.47,73.38L116.57,71.67L116.3,70.23L117.22,71.27L116.64,73.01L116.88,74.67L116.68,76.25L115.66,77.94L115.91,80.51L115.63,82.86L114.63,84L113.84,83.69L111.44,84.87L110.97,86.32L109.17,86.36L108.13,85.69ZM69.62,120.25L70.73,119.2L70.54,118.51L73.2,117.11L73.66,117.57L72.28,120.39L71.26,120.9L70.56,122.23L70.69,123.28L69.95,124.28L67.96,123.19L67.52,122.02L67.48,121.65ZM89.01,93.75L90.77,92.33L91.07,91.62L92.4,91.38L93.68,89.99L94.26,90.14L94.56,88.38L94.96,88.44L95.62,89.54L94.88,92.26L95.15,93.57L96.13,93.16L96.52,93.74L99.71,95.03L98.35,96.83L97.53,97.23L97.05,98.33L94.67,98.35L94.17,97.31L92.74,97.56L93.26,95.78L92.42,93.73L91.5,94.28L89.49,94.76ZM106.74,104.72L106.59,104.41L106.5,102.91L106.9,101.99L108.72,99.96L108.87,98.42L108.57,97.39L107.73,97L109.11,96.3L109.29,95.17L110.32,93.37L111.2,93.25L112.07,94.66L111.85,95.11L112.52,97.39L112.27,97.64L112.15,103.1L110.32,104.18L108.37,103.93L107.47,104.88ZM117.71,92.59L116.51,93.37L115.55,92.47L114.95,92.53L115.23,91.3L114.92,89.4L115.3,87.91L114.94,86.48L117.25,86.05L117.18,86.68L118.6,87.01L118.59,90.57ZM122.68,96.79L122.01,96.56L121.22,93.58L119.86,92.95L118.9,91.69L119.84,91.39L120.95,90.38L122.65,90.33L122.85,91.62L123.86,92.2L124.64,91.82L124.92,93.8L124.44,95.57ZM57.54,75.97L57.98,75.51L58.08,73.53L60.03,73.78L61.06,74.59L61.45,73.94L62.87,73.78L64.06,75.06L64.65,74.44L60.22,70.95L69.76,58.63L70.43,59.53L70.82,61.13L70.5,62.69L70.63,65.22L72.55,64.42L72.14,66.66L72.2,68.52L74.92,70.09L75.9,70.4L77.09,70.03L77.66,70.39L78.95,70.12L79.35,70.86L80.46,70.96L80.35,72.56L81.32,72.52L81.89,74.32L81.03,77.23L80.36,80.55L79.83,81.42L79.64,83.28L80.01,83.73L78.99,85.34L78.09,84.76L76.13,84.73L76.16,83.75L75.12,83.34L74.28,83.62L74.04,81.94L74.27,80.83L73.1,81.19L71.33,79.55L69.6,80.45L69.44,78.93L67.01,79.04L66.63,78.52L64,77.62L64.19,81.23L62.14,80.81L62.15,82.15L61.22,82.99L59.91,82.72L58.58,81.74L58.48,80.77L57.39,79.95L57.3,79.01L56.46,78.6L56.85,76.8ZM110.6,64.94L110.47,66.1L109.7,67.06L110.16,67.75L109.04,69.93L109.04,71.91L108.24,72.73L108.43,73.28L106.81,75.08L107,75.8L106.25,76.75L106.24,74.9L105.02,75.3L103.83,74.41L104.28,73.36L103.4,73.18L101.99,71.46L102.44,70.65L103.85,70.85L104.67,70.51L106.1,68L106.47,66.33L106.35,64.97L106.87,63.63L106.7,62.89L108.33,63.12L108.64,64.43L109.97,64.46ZM74.18,99.9L73.16,103L73.52,104.64L72.09,104.57L71.11,105.15L70.24,107.58L69.09,108.68L67.45,107.6L66.28,107.86L64.26,108.34L64.11,109.62L62.96,109.91L63,109.02L62.15,108.41L62.83,106.8L62.69,105.03L62.23,104.07L62.5,101.87L63.74,100.35L62.86,98.6L61.79,98.41L63.44,98.1L64.85,95.79L65.84,96.43L67.18,95.94L68.69,96.79L69.2,98.46L70.1,98.41L72.96,100.09ZM45.77,74.29L50.29,74.56L50.74,75.52L51.49,73.28L52.14,73.01L52.11,74.52L54.11,74.02L54.79,75.26L55.34,75.13L56.43,76.29L57.54,75.97L56.85,76.8L56.46,78.6L57.3,79.01L57.39,79.95L58.48,80.77L58.58,81.74L58.03,82.41L58.64,83.25L58.02,84.25L57.88,85.69L58.26,87.99L58.99,89L58.3,89.21L58.35,90.35L59.34,91.41L60.44,91.49L61.89,92.22L61.37,93.77L61.72,94.2L64.11,94.21L64.64,94.7L65.31,94.17L68.78,94.97L69.25,96.71L70.5,96.12L72.18,96.1L73.16,95.28L74.32,95.84L75.76,95.76L75.89,96.66L76.86,95.63L77.97,95.26L82.28,98L83.51,97.8L84.31,98.15L82.9,102.18L82.63,103.14L82.23,102.84L79.44,102.76L78.52,102.48L76.69,102.99L75.76,102.46L75.66,99.83L74.95,99.14L74.18,99.9L72.96,100.09L70.1,98.41L69.2,98.46L68.69,96.79L67.18,95.94L65.84,96.43L64.85,95.79L63.44,98.1L61.79,98.41L61.36,97.09L59.89,96.52L59.53,95.92L58.33,96.13L57.67,95.36L56.55,95.44L56.8,94.14L57.29,93.37L55.39,92.8L54.46,91.51L55.67,90.5L54.77,89.28L53.32,89.8L52.5,89.21L52.2,87.28L51.39,86.89L51.69,85.69L50.81,85.27L49.87,83.16L48.96,83.47L47.63,81.58L46.39,81.13L45.19,79.23L45.68,78.91L46.66,76.8L46.43,75.4ZM85.49,96.62L86.85,96.63L88.21,95.72L89.81,97.25L89.96,98.15L90.74,98.41L91.16,99.33L89.98,100.53L89.16,102.75L88.17,102.63L85.64,101.88L84.13,101.73L82.9,102.18L84.31,98.15ZM87.55,119.26L88.13,119.9L87.36,123.59L86.39,123.65L85.05,122.46L82.12,122.03L81.65,123.69L79.22,123.33L78.45,123.99L77.79,123.48L76.87,122.73L74.85,122.13L73.8,121.15L72.28,120.39L73.66,117.57L75.52,116.31L77.3,116.27L78.59,114.78L80.29,116.28L79.66,117.92L80.77,118.59L82.28,116.64L82.77,118.36L83.81,118.81L84.8,118.09L86.03,119.06ZM51.52,125.89L51.09,127.67L54.02,129.87L56.42,130.44L57.03,132.39L55.8,131.95L54.43,133.17L53.78,133.29L54.4,134.12L52.02,135.79L49.18,134.41L48.11,134.95L47.26,134.48L48.19,133.05L46.88,130.94L44.64,131.34L43.58,130.84L43.65,129.23L41.12,127.61L40.45,129.36L39.32,130.84L37.51,130.91L36.17,129.98L37.17,127.81L36.39,126.52L36.1,124.97L35.34,124.77L36.83,124L35.91,121.54L36.61,120.4L36.07,120.02L37.39,118.89L36.81,118.24L37.08,116.67L38.28,117.6L39.12,118.94L39.29,120.02L38.61,121.24L39.02,122.61L40.75,123.83L41.93,124.01L43.39,123.56L44.54,122.52L45.98,122.57L45.77,121.79L46.64,121.71L47.13,123.86L48.08,124.31L48.66,126.25L49.91,126.73ZM109.33,45.44L108.35,44.21L107.56,44.05L106.04,44.98L104.37,47.13L102.71,46.92L102.67,47.5L104.21,49.11L106,50.44L105.3,50.45L104.6,49.59L103.26,48.89L102.72,49.13L102.59,48.08L101.37,47.78L100.33,46.4L100.86,45.93L101.54,43.05L99.76,41.01L98.8,40.6L98.29,39.08L96.46,38.49L97.15,37.37L95.72,36.25L96.43,34.82L97.86,33.87L98.6,31.88L99.44,30.89L102.63,31.44L101.91,32.41L102.73,36.45L105.01,37.44L105.68,38.46L107.72,39.68L107.3,42.11L109.48,45.08ZM98.72,59.49L97.62,59.07L97.65,57.63L98.12,56.78L99.75,55.96L100.35,54.41L101.16,53.46L102.93,52.85L103.43,53.63L104.46,53.74L106.73,53.02L107.54,53.19L108.38,52.57L108.71,52.16L109.19,52.52L109.34,53.92L109.91,54.94L111.35,55.95L110.78,56.2L110.62,57.93L109.92,58.57L110.44,59.72L109.19,61.31L108.33,63.12L106.7,62.89L104.91,61.91L104.43,63.29L103.78,61.35L101.78,61.3L101.17,61.86L101.12,60.74L100.28,60.36L99.53,58.97ZM97.05,98.33L97.58,100.79L96.59,103.12L97.25,103.74L95.82,103.37L94.72,104.05L93.35,102.94L91.98,103L92.44,100.59L94.67,98.35ZM65.1,127.19L63.64,128.42L62.56,131.04L61.09,128.23L59.3,127.85L59.34,127.44L57.39,126.68L58.64,125.99L59.35,125.02L58.34,124.5L57.44,121.41L57.68,120.34L58.5,119.42L58.71,118.14L57.43,117.61L56.34,116.37L56.39,115.26L57.99,114.33L58.87,112.61L57.97,110.67L58.75,109.65L57.35,109.59L58.67,106.67L59.68,105.45L61.33,102.44L57.62,99.52L56.78,97.45L55.68,97.92L55.4,97.02L55.65,94.17L56.8,94.14L56.55,95.44L57.67,95.36L58.33,96.13L59.53,95.92L59.89,96.52L61.36,97.09L61.79,98.41L62.86,98.6L63.74,100.35L62.5,101.87L62.23,104.07L60.18,106.55L59.06,109.37L60.77,110.49L61.46,111.86L61.63,113.88L61.17,115.23L61.24,116.6L62.96,118.22L64.62,118.23L64.13,119.05L62.92,121.11L61.63,122.48L60.74,124.39L62.16,125.08L64.46,125.61L65.94,124.81L66.48,125.62ZM106,50.44L106.29,49.63L105.46,49.09L105.97,47.19L107.88,45.99L108.04,45.49L109.33,45.44L109.48,45.08L110.23,45.64L109.9,46.28L111.02,46.71L110.86,48.73L111.17,49.7L109.07,51.31L108.71,52.16L108.38,52.57ZM92.4,91.38L92.53,90.33L91.71,89.08L90.13,88.6L89.93,87.42L90.78,86.37L90.94,85.15L90.37,84.46L88.33,83.46L89.13,81.35L89.81,81.42L91.05,82.2L91.47,83.28L92.93,83.67L92.68,84.67L93.48,86L94.53,86.25L94.52,88.19L94.96,88.44L94.56,88.38L94.26,90.14L93.68,89.99ZM88.33,83.46L87.6,84.4L86.63,84.74L86.28,85.77L84.68,85.21L83.79,83.88L83.6,82.92L81.55,82.05L81.75,81.16L80.36,80.55L81.03,77.23L81.89,74.32L81.32,72.52L80.35,72.56L80.46,70.96L79.35,70.86L78.95,70.12L77.66,70.39L77.09,70.03L75.9,70.4L74.92,70.09L76.02,68.64L78.1,68.59L78.95,67.79L80.85,68.14L81.6,68.92L80.64,71.44L81.62,71.68L82.42,72.96L82.81,74.8L83.61,74.76L85.7,76.63L87.45,73.43L88.72,72.09L89.66,73.33L90.54,73.53L91.12,74.56L91.65,76.58L90.62,78.93L89.83,79.6L89.81,81.42L89.13,81.35Z" fill="#B3CFC0" stroke="#007139" stroke-width="0.5"/></svg>