<svg xmlns="http://www.w3.org/2000/svg" width="144" height="144" viewBox="0 0 144 144"><path d="M44.42,36.84L43.98,36.29L43.76,35.43L44.09,34.58L44.37,34.31L43.62,33.75L44.16,33.61L45.07,33.84L45.5,33.61L45.73,33.88L46.15,33.48L46.5,33.8L47.52,33.86L47.64,33.55L48.71,33.55L48.64,33.89L49.34,34.51L49.39,35.17L49.05,35.36L48.96,36.24L49.37,36.24L50.15,37.05L50.58,36.94L50.77,37.23L51.39,37.27L51.85,37.71L53.52,38.28L54.47,38.18L55.1,38.71L56.63,39.1L57.24,39.37L58.59,39.18L59.05,39.41L59.68,39.23L60.32,39.28L60.73,39.01L61.28,38.96L62.07,39.37L62.44,39.42L65.63,42.78L65.63,46.72L65.2,46.65L64.75,46.2L64.07,46.24L63.78,45.86L63.37,45.88L63.54,45.57L63.01,45.41L62.66,45.85L62.16,45.72L61.33,46.18L61.06,45.84L60.08,45.96L59.91,45.45L59.39,45.38L57.9,45.43L56.6,44.85L55.38,44.73L54.12,44.34L53.05,44.29L51.07,43.8L50.61,43.62L49.96,43.68L49.18,43.51L48.17,43.53L47.15,43.2L46.67,43.26L45.22,43.05L44.94,43.19L44.14,43.07L43.62,42.55L43.47,41.92L43.7,41.58L43.56,39.87L45.08,39.11L45.65,38.17L45.54,37.38L44.8,36.68ZM44.42,36.84L44.8,36.68L45.54,37.38L45.65,38.17L45.08,39.11L43.56,39.87L43.7,41.58L43.47,41.92L43.62,42.55L44.14,43.07L44.94,43.19L45.22,43.05L46.67,43.26L47.15,43.2L48.17,43.53L49.18,43.51L49.96,43.68L50.61,43.62L51.07,43.8L53.05,44.29L54.12,44.34L55.38,44.73L56.6,44.85L56.56,45.19L56.03,46.08L56.07,46.49L55.76,47.18L55.5,48.6L55.66,48.96L55.05,49.23L55.06,49.72L54.62,50.09L53.45,50.15L53.02,50.03L52.41,49.41L51.97,49.41L51.68,48.96L50.79,49.12L50.38,48.9L50.18,49.45L49.6,49.29L48.32,49.18L46.19,48.01L45.9,47.59L44.95,47.25L43.23,46.86L42.77,47.04L41.94,46.88L41.69,46.47L41.12,46.07L40.1,46.02L39.37,44.92L38.61,44.87L38.07,44.51L36.83,44.81L36.02,44.26L36.19,44.11L36.28,43.34L34.83,42L34.11,41.43L33.74,41.39L33.56,41.74L33.45,41.23L33.87,40.63L34.2,40.62L34.61,40.16L34.76,40.42L35.45,40.19L36.01,40.89L36.46,40.56L36.86,39.85L37.3,38.7L37.77,38.89L38.03,38.71L38.67,38.94L39.31,38.49L39.62,38L40.87,37.67L41.31,37.98L41.76,36.74L42.19,36.89L42.71,36.78L44.02,37.06ZM78.04,28.06L74.78,28.08L75.05,28.4L74.86,28.82L75.13,29.19L75.23,29.83L75.56,30.41L75.41,31L75.38,30.3L74.82,30.37L74.51,29.66L73.18,29.3L72.98,29.07L73.16,28.6L72.41,27.85L72.08,27.91L71.31,27.45L69.64,26.82L69.48,27.18L68.87,27.03L68.74,26.48L70.2,16.72L70.37,17.02L70.14,17.95L71.15,19.82L71.54,20.03L71.54,20.47L72.02,20.75L72.29,21.17L73.01,21.42L73.37,21.83L73.6,22.9L74.04,23.32L73.94,23.62L74.45,24.3L74.51,24.72L75.03,24.79L75.84,25.76L76.02,26.5L76.74,26.92L77.09,27.42L77.72,27.45ZM68.74,26.48L68.87,27.03L69.48,27.18L69.64,26.82L71.31,27.45L72.08,27.91L72.41,27.85L73.16,28.6L72.98,29.07L73.18,29.3L74.51,29.66L74.82,30.37L75.38,30.3L75.41,31L75.56,30.41L75.23,29.83L75.13,29.19L74.86,28.82L75.05,28.4L74.78,28.08L78.04,28.06L79.2,28.37L78.7,28.61L79.28,28.95L79.4,29.41L80.11,29.44L79.65,30.17L80.68,30.42L80.88,30.71L80.5,31.28L80.99,31.22L80.78,31.8L81.88,32.16L81.89,32.68L81.27,34.2L80.54,34.43L79.83,33.76L79.56,33.95L79.69,34.69L79.32,34.97L79,34.56L78.27,34.45L78.35,35.01L77.9,34.9L77.9,34.49L77.45,34.16L77.18,34.33L77.54,34.98L77.02,35.53L76.83,35.12L76.51,35.13L76.89,36.46L76.69,36.86L76.44,36.68L75.64,36.87L75.33,37.67L74.98,38.13L74.21,38.6L72.97,38.32L72.34,37.94L71.95,37.3L71.61,37.34L71.66,38.15L71.18,38.27L71.29,37.64L70.67,37.85L70.54,37.67L70.74,37.34L70.29,36.97L70.49,36.48L70.33,36.18L70.04,36.57L69.67,36.31L70.02,35.82L69.3,35.56L69.79,34.97L69.09,34.83L68.62,35.28L68.12,35.17L67.97,34.81L67.5,34.66ZM44.95,47.25L45.9,47.59L46.19,48.01L48.32,49.18L49.6,49.29L50.18,49.45L50.38,48.9L50.79,49.12L51.68,48.96L51.97,49.41L52.41,49.41L53.02,50.03L53.45,50.15L54.62,50.09L55.06,49.72L55.96,49.91L56.37,50.17L56.69,49.81L57.41,49.68L57.63,49.3L58.82,55.13L57.59,55.31L56.73,54.8L54.9,54.58L54.12,54.66L53.89,54.4L53.07,54.6L51.98,54.3L51.81,53.95L51.07,53.58L50.96,53.25L50.13,53.38L49.46,52.91L48.66,52.94L48.2,52.61L47.69,52.58L47.34,52.28L46.65,52.21L45.48,51.81L45.3,51.58L45.16,51.02L44.44,49.97L45.06,49.05L45.57,48.61L45.33,48.12L44.84,47.89ZM44.16,51.35L44.61,51.95L45.05,52.89L44.58,53.25L43.76,53.05L43.58,53.73L43.19,53.92L42.74,54.62L42.48,54.09L41.35,53.46L40.74,53L39.62,53.46L39.37,54.14L38.97,54.35L37.87,53.71L37.31,53.6L36.13,53.78L35.8,53.97L35.85,54.8L34.67,55.36L33.18,54.99L33.06,53.99L32.16,53.32L31.81,53.3L31.41,52.53L30.69,52.79L29.98,52.86L29.22,52.31L28.47,52.31L27.64,52.73L27.23,51.88L26.62,51.56L26.06,51.54L25.81,51.98L26.02,52.27L26.01,53.27L25.66,53.64L23.77,54.9L22.45,54.77L21.82,55.01L21.33,54.8L20.9,54.93L20.87,54.53L20.49,54.1L19.94,53.83L20.34,53.55L20.09,52.9L21.19,52.3L21.64,51.78L21.6,51.51L22.23,51.34L22.27,50.96L22.61,50.78L22.97,51.21L23.72,51.07L23.83,50.69L23.33,50.27L23.45,49.89L22.94,48.82L23.21,48.47L23.69,48.66L24.29,47.98L24.56,47.12L25.22,46.99L25.09,46.25L25.7,45.97L26.1,45.1L26.24,44.5L26.68,43.88L27.24,43.76L27.32,44.51L27.73,45.24L28.3,45.81L28.7,46.61L29.96,47.07L30.71,47.12L34.11,47.73L35.52,48.05L39.17,48.64L40.17,48.36L40.65,48.62L41.17,49.2L41.6,49.21L41.9,49.84L42.37,50.28L43.16,50.65ZM67.5,34.66L67.97,34.81L68.12,35.17L68.62,35.28L69.09,34.83L69.79,34.97L69.3,35.56L70.02,35.82L69.67,36.31L70.04,36.57L70.33,36.18L70.49,36.48L70.29,36.97L70.74,37.34L70.54,37.67L70.06,37.37L69.48,37.57L68.62,38.16L68.03,38.11L67.57,37.65L66.74,37.67L66.6,37.21L65.69,37.67L65.51,37.56L64.35,37.61L63.78,37.41L63.21,37.54L62.78,37.99L62.33,37.9L62.09,38.15L61.32,38.45L60.48,38.39L59.66,38.47L59.46,38.7L58.7,38.55L57.88,38.79L57.35,38.69L56.91,38.35L56.28,38.45L55.29,37.04L54.73,36.76L53.88,35.78L53.39,34.88L52.99,34.61L52.71,34.01L51.81,34.3L51.3,33.28L50.99,33.15L51.07,32.67L50.7,32.29L50.81,30.3L51.38,31.01L51.6,31.83L51.6,32.75L52.7,33.33L53.61,33.66L54.09,33.59L54.53,33.93L55.17,33.49L55.49,33.48L56.09,32.81L56.66,32.61L58.96,32.25L59.98,32.82L62.4,33.28L63.4,33.55L64.97,34.38L65.53,35.13L66.67,35.74L67.05,36.28ZM48.71,33.55L47.64,33.55L47.52,33.86L46.5,33.8L46.15,33.48L45.73,33.88L45.5,33.61L45.07,33.84L44.16,33.61L43.62,33.75L43.36,33.25L42.89,33.03L42.94,32.22L42.43,30.45L42.55,30.01L42.24,29.91L41.85,29.28L42.02,28.47L42.9,27.49L43.62,27.44L43.93,26.97L44.32,27.23L44.4,28.32L44.76,29.2L45.22,29.69L45.95,29.4L46.45,29.02L46.52,30.01L47.2,30.84L47.83,29.72L48.54,29.43L48.75,29.91L49.53,30.88L49.75,31.54L48.99,32.47ZM33.18,54.99L34.67,55.36L35.85,54.8L35.8,53.97L36.13,53.78L37.31,53.6L37.87,53.71L38.97,54.35L38.83,54.94L38.45,55.03L38.67,55.78L39.71,56.45L40.15,56.36L40.95,56.57L41.49,57.37L41.83,57.1L43.58,57.07L43.76,57.25L44.25,58.56L44.24,59.26L44.39,60.25L44.26,62.36L43.54,62.35L43.32,62.53L42.42,62.7L42.23,62.88L41.3,62.89L40.6,62.73L39.24,62.71L37.1,61.88L36.36,61.87L36.51,61.07L35.65,59.9L35.03,59.66L34.63,58.82L34.22,58.48L33.8,58.59L33.89,58L33.79,57.38L33.38,56.77L33.69,56.15L33.1,55.4ZM38.97,54.35L39.37,54.14L39.62,53.46L40.74,53L41.35,53.46L42.48,54.09L42.74,54.62L43.48,56.19L43.58,57.07L41.83,57.1L41.49,57.37L40.95,56.57L40.15,56.36L39.71,56.45L38.67,55.78L38.45,55.03L38.83,54.94ZM56.35,68.79L55.99,70.14L55.44,70.46L54.96,70.33L54.49,69.67L53.9,69.77L53.55,69.55L53.44,70L52.91,70.13L52.5,70.71L50.09,70.38L49.74,70.64L50,71.06L51.44,71.65L51.73,72.23L51.71,73.08L51.37,72.84L51.03,73.05L50.49,72.98L50.42,72.37L50.16,72.05L49.38,71.71L48.79,71.24L48.84,70.92L48.2,70.67L47.81,70.1L47,70.03L46.81,69.79L46.1,69.64L44.28,68.21L45.03,66.25L45.78,65.08L46.54,64.39L46.5,63.87L47.29,62.59L47.88,62.58L48.16,62.18L48.14,61.1L48.78,61.36L49.12,62.04L49.98,62.92L50.25,63.71L50.68,64.23L50.74,64.86L51.37,64.93L52.87,66.55L54.19,66.21L55.1,66.83L55.19,67.31L55.94,67.5ZM39.24,62.71L40.6,62.73L41.3,62.89L42.23,62.88L42.42,62.7L43.32,62.53L43.54,62.35L44.26,62.36L44.39,60.25L44.24,59.26L44.25,58.56L45.56,57.54L46.02,57.72L46.23,58.39L46.55,58.73L46.68,59.3L47.06,59.8L47.32,59.73L47.73,60.45L48.08,60.66L48.14,61.1L48.16,62.18L47.88,62.58L47.29,62.59L46.5,63.87L46.54,64.39L45.78,65.08L45.03,66.25L44.28,68.21L43.86,68.14L42.45,66.87L42.77,66.47L42.38,66.1L40.98,66L40.19,65.7L40.22,65.09L39.79,65.03L39.9,64.35L39.74,64.09L39.73,63.07ZM33.56,41.74L33.74,41.39L34.11,41.43L34.83,42L36.28,43.34L36.19,44.11L36.02,44.26L36.83,44.81L38.07,44.51L38.61,44.87L39.37,44.92L40.1,46.02L41.12,46.07L41.69,46.47L41.94,46.88L42.77,47.04L43.23,46.86L44.95,47.25L44.84,47.89L45.33,48.12L45.57,48.61L45.06,49.05L44.44,49.97L45.16,51.02L45.3,51.58L44.16,51.35L43.16,50.65L42.37,50.28L41.9,49.84L41.6,49.21L41.17,49.2L40.65,48.62L40.17,48.36L39.17,48.64L35.52,48.05L34.11,47.73L30.71,47.12L29.96,47.07L28.7,46.61L28.3,45.81L27.73,45.24L27.32,44.51L27.24,43.76L27.93,43.96L28.25,43.61L28.82,43.62L29.1,44.07L29.68,44.27L30.18,44.24L30.18,43.94L31.09,43.78L31.11,43.57L31.76,42.97L32.16,42.12L32.78,41.95L33.5,42.01ZM144,68.42L144,79.77L144,86.13L143.62,86.09L143.05,86.49L142.57,86.39L141.84,85.36L141.64,85.4L141.71,86.11L141.24,86.5L140.04,85.28L139.87,85.72L139.13,85.81L138.75,86.64L137.91,86.89L137.57,86.74L137.57,86.31L137.1,86L136.51,86.67L135.89,86.54L135.68,86.3L135.69,85.43L135.55,84.84L135.18,84.53L134.53,84.68L134.62,85.72L133.95,86.99L133.57,86.99L133.51,85.97L133.14,85.73L132.61,85.92L132.73,86.49L132.35,87.53L132.01,87.43L131.27,86.7L130.62,86.44L129.54,85.5L129.4,85.69L129.56,86.58L129.51,87.07L128.96,87.21L128.53,86.57L127.17,86.24L126.5,86.99L125.44,86.51L125.06,86.73L125.54,87.26L125.18,87.61L124.18,87.45L123.59,87.67L123.23,88.25L122.53,88.45L121.84,88.33L121.73,88.02L122.31,86.92L122.16,86.48L121.43,86.52L121.36,87.32L120.97,87.77L120.74,87.74L119.66,86.94L119.18,86.05L118.66,85.58L118.22,85.74L118.52,86.49L118.56,87.29L117.75,88.54L117.41,88.38L117.6,87.04L117.38,86.53L116.35,86.24L115.12,86.48L116.11,86.55L116.31,87.04L115.93,87.81L114.83,87.61L112.83,88.16L111.76,87.96L110.85,88.28L110.23,89.15L109.82,88.32L109.25,88.09L108.55,88.15L107.78,88.54L107.2,88.52L106.54,88.27L105.94,87.85L105.33,86.38L104.79,85.89L104.35,86.08L104.23,86.71L103.61,86.71L103.03,86.46L102.45,86.42L101.9,87L101.77,87.84L101.9,88.73L102.53,89.25L102.62,89.82L102.12,90.31L101.5,90.11L101.08,89.78L100.31,88.5L99.84,88.28L99.4,88.61L99.63,89.33L99.34,89.96L98.53,90.18L98.1,89.4L97.71,89.21L97,89.32L96.14,89.91L95.61,90.8L94.97,91.58L94.34,91.97L93.25,91.45L92.82,90.91L92.21,90.92L91.58,91.4L90.71,91.49L89.74,90.5L89.33,90.39L89.27,89.89L88.84,90.02L88.83,89.68L88.14,89.41L88.05,88.95L87.75,89.02L87.12,88.2L86.6,88.19L86.35,87.87L86.12,88.15L85.74,88L85.55,87.19L84.96,87.37L84.72,87.18L84.64,86.62L84.95,86.32L84.16,85.98L83.65,85.17L83.45,85.09L83.11,84.37L82.15,83.8L81.9,83.32L81.15,82.78L80.48,82.11L79.73,82.04L79.67,81.18L79.27,81.06L79.12,82.18L79.27,82.38L78.65,82.94L78.27,84.14L78.45,84.68L77.44,85.54L77.3,85.4L76.51,85.64L76.26,85.92L75.93,85.28L75.6,85.11L75.49,84.41L75.77,84.08L75.34,83.47L75.47,83L75.88,82.81L76.13,82.5L75.78,82.07L75.98,81.43L75.57,81.25L75.62,80.45L75.83,79.83L75.66,79.52L75.95,79.15L75.76,78.83L76.09,78.3L75.79,77.99L75.72,77.16L75.31,76.95L75.47,76.6L76.34,75.81L76.17,74.96L76.15,73.83L75.94,73.42L76.08,72.78L76.72,72.29L76.72,71.85L77.97,71.84L78.26,71.69L78.52,72.01L78.9,71.86L79.81,71.91L80.33,71.47L80.91,71.28L81.22,71.43L81.15,71.85L81.73,71.97L82.43,71.54L82.49,71.16L82.84,71.55L83.26,71.32L83.23,70.56L83.54,70.39L83.62,70.85L84.59,70.74L84.54,70.31L85.06,70.62L85.37,70.08L85.7,70.1L85.39,69.67L86.55,69.4L86.98,69.46L86.98,69.08L87.6,68.71L87.59,69.37L87.93,69.67L88.51,69.35L88.88,69.66L89.12,69.36L89.44,69.79L89.88,69.84L89.8,69.08L90.18,69.41L90.75,69.32L90.95,68.5L91.39,68.74L91.5,68.39L92.25,67.99L92.51,68.28L92.54,67.78L92.85,67.52L93.38,67.51L93.31,66.79L93.66,66.66L93.5,66.32L94.18,66.23L94.37,65.43L94.75,66.23L95.2,66.39L95.43,67.15L95.95,67.38L96.22,67.91L97,67.86L98.6,68.11L99.84,67.95L101.03,68.22L101.9,69.1L102.29,71.36L102.87,71.5L103.42,71.18L103.89,71.15L104.77,70.35L105.06,70.45L105.86,69.97L106.65,70.21L107.03,69.43L107.49,69.43L107.54,69.07L108.57,68.7L109.99,68.02L110.23,67.61L110.78,67.78L111.02,67.3L111.52,67.25L111.78,66.97L112.56,67.22L112.85,66.86L113.47,66.51L113.89,66.76L114.16,66.53L114.81,66.73L115.51,66.28L115.49,66.69L116.15,67.01L117.14,66.67L117.86,65.79L118.54,66.12L118.86,65.71L119.53,65.5L119.44,65.32L120.16,64.81L120.53,65.08L120.8,64.93L121.05,64.21L121.23,64.36L122.08,63.95L122.6,63.52L124.08,63.96L124.61,63.6L125.53,63.93L126.02,64.32L126.4,64.3L127.1,64.73L127.71,64.86L128.65,64.41L129.72,64.35L129.83,63.99L130.24,63.77L131.57,63.54L131.7,63.91L133.31,63.67L134.41,63.83L134.5,64.21L134.74,63.94L135.15,64.11L135.07,64.49L135.57,64.88L136.61,65.18L137.01,64.94L137.04,64.54L137.42,64.75L137.63,64.31L138.74,64.72L139.33,64.72L139.39,64.39L140.19,64.85L140.16,65.18L140.85,65.4L140.75,66.25L141.39,66.66L141.52,67.16L141.98,67.49L142.45,67.18L142.83,67.34L143.21,67.17L143.2,67.61L143.62,67.86ZM32.88,64.69L33.42,64.82L34.12,65.51L34.5,66.77L34.32,67.33L34.76,68.01L34.91,68.53L35.9,68.76L36.27,69.1L35.45,70.57L35.71,71.53L35.29,72.61L35.55,73.05L34.85,73.96L34.28,73.29L34.31,72.66L33.29,72.56L32.7,73.68L33.78,76.75L34.97,80.12L34.89,80.68L34.52,81.11L34.76,81.9L34.56,82.33L35.1,82.81L34.79,83.47L34.39,83.61L34.37,84.37L34.11,85.33L33.61,85.56L33.59,85.96L33.28,86.06L33.26,86.67L32.64,86.92L32.97,88.12L33.92,88.25L34,88.68L34.51,88.7L34.73,89.24L35.47,89.39L35.62,89.69L35.29,90.09L35.72,90.34L35.72,91.23L35.94,91.48L35.2,91.9L34.66,92.47L35.11,92.77L35.68,92.63L36.28,93.29L35.99,93.78L36.18,94.24L36.65,94.66L36.58,95.03L36.12,94.96L36.31,96.03L36.02,96.39L36.17,97.04L35.85,97.8L35.44,97.67L34.95,97.18L34.98,96.57L34.73,96.4L34.1,96.57L33.77,95.73L32.95,95.53L33.14,95.21L33.03,94.68L33.29,94.64L32.73,93.92L32.77,93.47L32.29,93.35L32.29,92.51L32.44,92.21L31.84,91.91L31.84,91.58L31.19,91.12L30.99,90.47L30.25,90.05L30.13,89.43L29.88,89.3L29.36,88.49L29.32,88.2L28.69,87.6L28.06,87.4L27.9,86.37L28.29,85.54L28.21,84.76L27.74,84.31L27.83,84.04L27.19,82.76L26.93,81.86L26.46,80.89L26.58,80.34L26.29,78.78L25.71,78.02L25.58,77.47L25.65,76.28L25.13,75.44L24.85,74.63L25.11,74.02L24.78,73.15L24.92,72.77L24.55,71.18L24.01,70.63L23.73,69.33L23.54,68.92L24.15,68.17L23.98,66.78L24.32,66.25L23.93,65.76L23.64,64.68L24.32,63.68L24.47,62.93L24.35,62.53L24.8,62.02L25.2,60.72L24.52,59.41L25.02,58.03L25.4,57.59L26,57.71L26.12,58.37L25.73,59.36L25.82,59.69L26.39,60.52L26.21,61.8L26.93,61.88L27.84,61.3L27.83,60.86L28.18,60.52L28.48,60.91L29.56,60.71L29.78,60.9L29.66,61.55L30.22,63.1L29.84,63.71L30.14,64.02L31.32,63.91L32.16,63.97L32.25,64.32ZM55.49,104.69L55.14,104.82L55.48,106.27L55.02,106.47L54.86,105.92L54.46,105.59L53.52,105.72L53.16,106.04L53.25,106.58L52.79,106.52L52.96,106.05L52.64,105.37L52.59,104.78L52.32,104.62L52.03,104.99L51.31,105.34L50.73,105.85L50.2,105.43L50.4,105.07L50.16,104.53L49.82,104.87L49.06,105.03L48.55,105.55L48.58,105.9L49.16,106.22L49.05,106.67L48.62,106.75L48.42,107.1L48.67,107.92L48.5,108.34L48.02,108.49L47.62,108.11L47.63,117.8L47.63,124.29L47.63,133.41L40.28,126.63L33.31,120.21L32.78,120.18L32.33,119.9L31.35,119.96L30.88,120.15L30.77,119.8L30.14,119.38L29.45,119.38L29.11,119.21L29.08,119.88L28.34,119.87L27.19,119.29L26.28,118.09L26.16,117.27L25.36,116.93L23.41,116.89L22.89,116.81L21.28,116.89L21.04,116.81L20.45,116.1L20.14,115.97L19.21,116.19L18.68,115.72L17.96,115.57L17.54,115.79L16.81,115.23L16.96,114.6L16.75,113.64L16.43,113.6L16.47,114.01L15.77,114.2L15.69,114.57L15.31,114.56L14.68,115.01L14.4,114.29L13.18,114.48L12.64,114.09L12.23,113.08L12.68,112.98L12.79,111.92L12.7,111.58L11.98,111.33L11.45,111.92L10.8,111.55L10.74,111.24L10.05,111.22L10.15,110.64L10.49,110.61L10.49,110.1L10.18,109.69L9.24,109.4L8.65,109.01L8.9,108.49L8.31,108.51L8,109.26L7.62,109.1L7.53,108.65L7.09,108.95L6.75,108.73L6.99,108.12L7.17,106.75L7.65,105.67L7.93,105.66L8.32,105.07L8.7,103.82L9.21,103.23L9.66,103.23L9.66,102.42L10.08,101.34L10.04,100.86L10.61,100.66L10.25,99.96L9.65,99.69L9.43,99.19L9.57,98.96L9.35,98.43L10.05,97.54L10.67,97.15L10.55,96.78L10.83,96.36L11.45,96L11.48,95.72L11.94,95.81L12.39,95.33L12.95,95.51L13.58,96.06L13.58,96.49L13.89,96.93L14.44,97.31L14.96,97.31L15.52,99.11L15.53,99.54L15.9,99.62L16.06,100.08L16.41,100.16L16.52,99.81L17.53,99.11L18.06,99.34L19.49,98.78L19.76,98.51L20.43,98.36L20.82,98.81L22.04,98.42L23.36,98.53L24,98.3L24.59,97.88L25.09,98.66L25.68,98.71L25.89,98.15L26.59,98.02L27,98.3L27.4,97.8L27.85,97.85L28.46,98.19L28.95,97.96L29.87,98.33L30.61,98L31.17,98.51L31.64,98.14L31.94,98.22L32.28,98.74L32.78,98.71L32.61,98.14L33.17,98.2L33.89,97.91L34.3,98.55L35,98.55L35.42,98.99L35.56,99.65L35.82,99.82L36.31,99.27L36.8,99.32L36.92,98.95L37.29,98.97L37.44,98.99L47.34,96.35L49.81,95.73L51.28,95.19L51.63,95.7L51.91,96.55L52.71,97.33L53.08,97.32L53.03,97.85L53.45,98.34L53.46,99.37L52.94,99.83L53.41,100.46L53.79,100.62L54,100.35L54.52,100.25L55.22,101.12L55.27,102.01L55.66,102.1L55.19,103.09L55.34,103.32L55.08,103.95L55.34,104.02ZM19.94,53.83L20.49,54.1L20.87,54.53L20.9,54.93L21.33,54.8L21.82,55.01L22.45,54.77L23.77,54.9L25.66,53.64L26.01,53.27L26.02,52.27L26.18,52.26L26.5,52.97L26.37,53.32L26.74,53.87L26.25,54.81L26.37,55.15L25.84,55.29L25.99,55.97L25.69,56.09L25.79,56.6L25.3,56.93L25.4,57.59L25.02,58.03L24.52,59.41L25.2,60.72L24.8,62.02L24.35,62.53L24.47,62.93L24.32,63.68L23.64,64.68L23.93,65.76L24.32,66.25L23.98,66.78L24.15,68.17L23.54,68.92L23.73,69.33L24.01,70.63L24.55,71.18L24.92,72.77L24.78,73.15L25.11,74.02L24.85,74.63L25.13,75.44L25.65,76.28L25.58,77.47L25.71,78.02L26.29,78.78L26.58,80.34L26.46,80.89L26.93,81.86L27.19,82.76L27.83,84.04L27.74,84.31L28.21,84.76L28.29,85.54L27.9,86.37L28.06,87.4L28.69,87.6L29.32,88.2L29.36,88.49L29.88,89.3L30.13,89.43L30.25,90.05L30.99,90.47L31.19,91.12L31.84,91.58L31.84,91.91L32.44,92.21L32.29,92.51L32.29,93.35L32.77,93.47L32.73,93.92L33.29,94.64L33.03,94.68L33.14,95.21L32.95,95.53L33.77,95.73L34.1,96.57L34.73,96.4L34.98,96.57L34.95,97.18L35.44,97.67L35.85,97.8L36.06,97.87L36.11,98.47L37.02,98.55L37.29,98.97L36.92,98.95L36.8,99.32L36.31,99.27L35.82,99.82L35.56,99.65L35.42,98.99L35,98.55L34.3,98.55L33.89,97.91L33.17,98.2L32.61,98.14L32.78,98.71L32.28,98.74L31.94,98.22L31.64,98.14L31.17,98.51L30.61,98L29.87,98.33L28.95,97.96L28.46,98.19L27.85,97.85L27.4,97.8L27,98.3L26.59,98.02L25.89,98.15L25.68,98.71L25.09,98.66L24.59,97.88L24,98.3L23.36,98.53L22.04,98.42L20.82,98.81L20.43,98.36L19.76,98.51L19.49,98.78L18.06,99.34L17.53,99.11L16.52,99.81L16.41,100.16L16.06,100.08L15.9,99.62L15.53,99.54L15.52,99.11L14.96,97.31L14.44,97.31L13.89,96.93L13.58,96.49L13.58,96.06L12.95,95.51L12.39,95.33L12.92,94.24L12.76,93.94L11.8,93.57L11.86,93.15L10.99,92.91L10.97,92.63L11.38,92.13L11.27,91.66L11.73,90.93L10.77,90.85L10.72,90.26L10.41,89.86L10.22,89.05L9.9,89.02L9.93,88.31L9.71,88.02L10.08,87.63L9.66,86.33L9.65,85.88L8.95,85.71L6.35,86.49L6.06,86.47L5.71,85.99L5.63,85.29L5.13,84.9L5.32,84.48L4.95,84.04L4.01,84.6L3.54,85.14L3.22,84.84L2.26,84.85L1.4,85.27L0.78,86.08L0.34,85.26L0,85.09L0.77,84.28L1.09,83.53L0.99,83.33L1.82,82.78L2.33,82.71L2.58,81.95L3.15,81.77L3.95,80.31L4.35,79.71L5.22,79.62L5.28,78.96L6.1,78.2L6.25,77.79L6.82,77.6L6.82,77.14L7.63,76.56L7.8,75.82L8.22,75.33L8.78,75.24L9.65,74.75L9.86,74.06L9.91,73.11L10.23,72.73L11.06,71.3L11.78,70.95L11.41,70.5L11.77,69.71L11.37,68.59L10.91,67.92L11.57,67.53L11.49,67.01L12.05,66.52L12.15,66.19L11.72,65.56L11.93,65.13L11.78,64.49L11.25,64.19L12.25,62.72L12.27,62.48L13.04,61.93L13.08,62.1L13.75,62.04L14.24,61.27L14.73,60.77L15.21,59.99L15.09,59.7L15.56,59.02L15.83,57.86L16.73,56.77L17.08,56.9L17.58,56.75L17.96,55.81L18.45,55.51L18.45,55.2L18.95,55.21L19.37,54.59L19.25,54.01L19.8,54.12ZM26.02,52.27L25.81,51.98L26.06,51.54L26.62,51.56L27.23,51.88L27.64,52.73L28.47,52.31L29.22,52.31L29.98,52.86L30.69,52.79L31.41,52.53L31.81,53.3L32.16,53.32L33.06,53.99L33.18,54.99L33.1,55.4L33.69,56.15L33.38,56.77L33.79,57.38L33.89,58L33.8,58.59L34.22,58.48L34.63,58.82L35.03,59.66L35.65,59.9L36.51,61.07L36.36,61.87L37.1,61.88L39.24,62.71L39.73,63.07L39.74,64.09L39.9,64.35L39.79,65.03L39.16,65.04L37.84,64.74L37.29,64.28L36.05,63.72L35.22,63.03L34.52,63.32L33.65,62.93L33.45,63.44L33.56,63.8L32.88,64.69L32.25,64.32L32.16,63.97L31.32,63.91L30.14,64.02L29.84,63.71L30.22,63.1L29.66,61.55L29.78,60.9L29.56,60.71L28.48,60.91L28.18,60.52L27.83,60.86L27.84,61.3L26.93,61.88L26.21,61.8L26.39,60.52L25.82,59.69L25.73,59.36L26.12,58.37L26,57.71L25.4,57.59L25.3,56.93L25.79,56.6L25.69,56.09L25.99,55.97L25.84,55.29L26.37,55.15L26.25,54.81L26.74,53.87L26.37,53.32L26.5,52.97L26.18,52.26ZM76.26,85.92L76.51,85.64L77.3,85.4L77.44,85.54L78.45,84.68L78.27,84.14L78.65,82.94L79.27,82.38L79.12,82.18L79.27,81.06L79.67,81.18L79.73,82.04L80.48,82.11L81.15,82.78L81.9,83.32L82.15,83.8L83.11,84.37L83.45,85.09L83.65,85.17L84.16,85.98L84.95,86.32L84.64,86.62L84.72,87.18L84.96,87.37L85.55,87.19L85.74,88L86.12,88.15L86.35,87.87L86.6,88.19L87.12,88.2L87.75,89.02L88.05,88.95L88.14,89.41L88.83,89.68L88.84,90.02L89.27,89.89L89.33,90.39L89.74,90.5L90.71,91.49L91.58,91.4L92.21,90.92L92.82,90.91L93.25,91.45L92.97,91.64L91.99,91.66L92.19,92.31L92.15,93.07L91.39,93.46L90.48,93.28L89.71,92.83L89.41,93L89.52,93.49L89.04,93.73L88.5,93.61L88.2,94.2L88.84,94.52L88.55,94.93L87.95,94.95L87.61,95.21L87.8,96.19L87.74,97.23L87.21,97.26L87.14,96.15L86.88,95.83L86.19,95.68L85.37,96.82L85.5,97.4L85.14,97.75L84.73,97.59L84.61,96.28L84.04,95.83L83.39,95.94L83.15,96.2L82.64,97.26L82.02,97.77L81.08,97.69L80.06,97.1L79.8,96.38L79.03,96.14L77.83,96.8L77.11,97.49L76.68,97.53L75.98,98.06L75.5,97.91L75.09,98.16L75.19,98.93L74.98,99.31L74.35,99.49L78.68,89.05L78.14,88.98L77.75,88.54L77.22,88.78L77.39,87.8L76.91,87.06L76.04,86.57ZM144,68.42L143.62,67.86L143.2,67.61L143.21,67.17L142.83,67.34L142.45,67.18L141.98,67.49L141.52,67.16L141.39,66.66L140.75,66.25L140.85,65.4L140.16,65.18L140.19,64.85L139.39,64.39L139.33,64.72L138.74,64.72L137.63,64.31L137.42,64.75L137.04,64.54L137.01,64.94L136.61,65.18L135.57,64.88L135.07,64.49L135.15,64.11L134.74,63.94L134.5,64.21L134.41,63.83L133.31,63.67L131.7,63.91L131.57,63.54L130.24,63.77L129.83,63.99L129.72,64.35L128.65,64.41L127.71,64.86L127.1,64.73L126.4,64.3L126.02,64.32L125.53,63.93L124.61,63.6L124.08,63.96L122.6,63.52L122.08,63.95L121.23,64.36L121.05,64.21L120.8,64.93L120.53,65.08L120.16,64.81L119.44,65.32L119.53,65.5L118.86,65.71L118.54,66.12L117.86,65.79L117.14,66.67L116.15,67.01L115.49,66.69L115.51,66.28L114.81,66.73L114.16,66.53L113.89,66.76L113.47,66.51L112.85,66.86L112.56,67.22L111.78,66.97L111.52,67.25L111.02,67.3L110.78,67.78L110.23,67.61L109.99,68.02L108.57,68.7L107.54,69.07L107.49,69.43L107.03,69.43L106.65,70.21L105.86,69.97L105.06,70.45L104.77,70.35L103.89,71.15L103.42,71.18L102.87,71.5L102.29,71.36L101.9,69.1L101.03,68.22L99.84,67.95L98.6,68.11L97,67.86L96.22,67.91L95.95,67.38L95.43,67.15L95.2,66.39L94.75,66.23L94.37,65.43L94.96,65.02L94.87,64.71L95.34,64.73L95.16,64.02L95.4,64.21L95.5,63.44L95.03,63.26L95.79,62.54L96.04,62.81L96.51,62.08L96.21,60.93L95.8,60.61L96.43,60.38L96.8,59.96L97.29,60.18L97.49,59.79L97.32,59.18L97.59,58.77L98.15,58.91L97.96,57.93L98.63,57.99L98.62,57.75L98.09,57.66L98,57.28L98.35,57.05L98.36,55.71L98.89,55.96L98.66,55.54L99.07,55.44L98.48,55.13L98.44,54.3L98.76,54.15L98.94,53.66L98.52,53.41L98.52,53.1L99.08,53.14L98.85,52.5L98.55,52.43L99.36,52.21L99.37,52.05L98.51,51.48L99.27,50.92L99.01,50.74L99.22,50.42L99.64,50.42L99.55,49.85L99.73,49.4L100.63,49.45L100.6,48.53L99.82,48.48L99.68,48.19L100.66,48.02L100.91,48.15L101.57,47.91L101.33,48.71L101.68,48.77L101.68,48.06L101.96,47.42L102.41,47.05L101.96,46.45L102.01,46.09L102.4,45.83L103.31,45.84L102.8,45.25L103.09,44.54L103.63,44.13L102.88,43.94L103.35,43.64L104.23,43.72L104.43,43.12L104.27,42.65L103.62,42.47L103.82,41.99L104.89,42.64L105.07,42.45L104.96,41.75L105.13,41.15L105.49,41.03L105.42,40.33L105.62,39.92L105.43,39.72L105.11,40.14L104.21,40.4L103.92,40.71L102.13,40.14L102.21,39.66L101.29,38.99L101.11,38.68L101.43,38.23L101.84,38.31L102.46,37.33L102.77,36.11L102.91,34.87L103.14,34.84L103.13,33.58L103.33,32.27L103.52,32.22L103.52,31.46L104.1,30.77L105.06,29.37L105.83,29.37L106.26,29.16L106.8,29.61L107.42,30.26L108.63,29.79L109.59,29.96L110.45,29.53L110.62,29.01L111.16,28.85L111.17,28.48L111.88,27.88L112.13,27.49L112.56,27.32L113.08,26.76L113.21,26.16L113.62,25.68L114.47,25.35L115.13,24.33L115.99,23.74L116.5,22.75L116.92,22.36L117.49,22.33L117.86,22.56L118.36,22.5L119.43,22.76L120.33,22.21L121.47,21.73L122,21.37L122.57,21.31L123.19,20.95L123.79,20.41L124.56,20.11L125.23,19.08L125.74,18.85L127.34,18.72L127.81,18.16L128.82,17.79L130.09,17.47L130.99,17.11L132.45,15.92L132.84,16.13L133.88,15.92L134.52,15.53L134.95,15.48L135.28,14.96L136.19,14.17L136.7,14.31L137.97,13.64L138.99,13.66L140.59,12.71L141.29,11.99L142.67,11.51L142.91,11.16L143.99,10.59L144,17.06L144,25.73L144,37.7L144,45.3L144,57.43ZM65.63,46.72L65.63,42.78L62.44,39.42L63.44,39.22L64.41,38.81L65.14,39.02L65.37,38.73L66.49,38.92L66.97,38.8L66.94,38.48L67.42,38.52L68.03,38.11L68.62,38.16L69.48,37.57L70.06,37.37L70.54,37.67L70.67,37.85L71.29,37.64L71.18,38.27L71.66,38.15L71.61,37.34L71.95,37.3L72.34,37.94L72.97,38.32L74.21,38.6L74.98,38.13L75.33,37.67L75.64,36.87L76.44,36.68L76.69,36.86L76.89,36.46L76.51,35.13L76.83,35.12L77.02,35.53L77.54,34.98L77.18,34.33L77.45,34.16L77.9,34.49L77.9,34.9L78.35,35.01L78.27,34.45L79,34.56L79.32,34.97L79.69,34.69L79.56,33.95L79.83,33.76L80.54,34.43L81.27,34.2L81.89,32.68L82.41,32.83L82.83,33.33L83.58,33.51L83.85,33.33L83.84,32.6L84.28,32.4L84.94,32.43L85.55,32.94L86.12,32.89L86.89,32.47L87.87,33.02L88.26,32.77L88.07,32.28L88.35,31.83L88.81,31.67L88.96,31.02L89.37,31.13L89.63,31.56L90.27,31.6L91.12,32.02L91.57,32.06L92.06,32.39L92.53,32.07L93.2,31.17L93.92,31.25L93.97,32.28L94.4,32.38L94.98,31.85L96.22,31.48L96.79,30.7L96.83,30.33L97.43,30.45L97.93,29.98L98.19,29.01L98.83,28.65L100.01,28.58L100.23,28.16L100.77,27.97L101.68,28.05L102.1,28.23L102.8,28.14L103.61,27.74L105.12,28.05L106.9,29.01L106.8,29.61L106.26,29.16L105.83,29.37L105.06,29.37L104.1,30.77L103.52,31.46L103.52,32.22L103.33,32.27L103.13,33.58L103.14,34.84L102.91,34.87L102.77,36.11L102.46,37.33L101.84,38.31L101.43,38.23L101.11,38.68L101.29,38.99L102.21,39.66L102.13,40.14L103.92,40.71L104.21,40.4L105.11,40.14L105.43,39.72L105.62,39.92L105.42,40.33L105.49,41.03L105.13,41.15L104.96,41.75L105.07,42.45L104.89,42.64L103.82,41.99L103.62,42.47L104.27,42.65L104.43,43.12L104.23,43.72L103.35,43.64L102.88,43.94L103.63,44.13L103.09,44.54L102.8,45.25L103.31,45.84L102.4,45.83L102.01,46.09L101.96,46.45L102.41,47.05L101.96,47.42L101.68,48.06L101.68,48.77L101.33,48.71L101.57,47.91L100.91,48.15L100.66,48.02L99.68,48.19L99.82,48.48L100.6,48.53L100.63,49.45L99.73,49.4L99.55,49.85L99.64,50.42L99.22,50.42L99.01,50.74L99.27,50.92L98.51,51.48L99.37,52.05L99.36,52.21L98.55,52.43L98.85,52.5L99.08,53.14L98.52,53.1L98.52,53.41L96.41,54.25L95.57,54.12L95.41,54.75L94.26,55.53L93.71,55.72L93.66,55.46L93.18,55.45L92.77,55.01L91.68,54.61L91.21,54.61L90.99,54.3L90.4,54.66L88.92,54.13L88.72,54.52L87.92,54.37L87.77,54.68L87.34,54.35L87.2,53.94L86.74,53.68L85.67,53.94L85.58,53.71L85.25,54.14L84.85,54L84.27,54.2L83.79,54.16L83.66,54.52L83.12,54.4L82.74,54.82L81.47,55.1L81.42,55.45L80.14,56.19L79.92,56.48L78.95,56.64L78.59,56.93L77.55,56.84L76.98,56.62L76.75,56.96L76.09,57.23L73.21,57.16L72.34,57.87L71.79,57.8L71.18,57.29L71.11,56.46L70.92,56.2L70.36,56.11L70.38,56.34L69.38,56.1L68.89,55.67L68.96,55.27L68.63,55.09L68.31,54.07L68,53.92L68.2,53.57L67.25,53.47L66.96,54.01L66.28,54.52L66.11,54.36L65.64,54.24L65.41,53.84L65.52,53.34L64.82,53.13L65.12,52.69L64.91,52.16L65.72,51.89L66.22,51.44L67.13,50.97L66.96,50.52L67.29,50.22L67.46,50.41L67.82,50.01L68.16,48.92L68.11,48.27L68.53,48.55L68.47,47.95L68.93,47.85L69.22,47.43L68.49,47.28L68.43,46.91L67.66,46.89L67.05,46.58ZM51.71,73.08L51.73,72.23L51.44,71.65L50,71.06L49.74,70.64L50.09,70.38L52.5,70.71L52.91,70.13L53.44,70L53.55,69.55L53.9,69.77L54.49,69.67L54.96,70.33L55.44,70.46L55.99,70.14L56.35,68.79L56.94,67.2L56.9,66.33L57.35,65.56L57.93,65.19L57.83,64.69L58.16,63.69L58.9,63.15L59.63,63.25L59.81,63.59L60.38,63.65L61.82,64.27L62.11,64.96L62.6,65.12L62.71,65.82L63.48,65.78L63.41,66.07L64.05,66.36L63.62,66.84L63.9,67.3L64.34,67.54L64.47,68.22L64.69,68.32L65.14,67.98L65.53,68.53L65.99,68.52L66.73,69.02L67.49,68.86L67.81,69.53L67.72,69.84L68.67,70.15L68.85,71.22L69.37,71.34L69.85,71.12L69.85,71.51L70.31,71.58L70.36,71.99L70.77,71.67L70.95,71.88L71.31,71.63L72.06,72.17L72.05,71.82L72.69,72.26L72.83,72.75L73.08,72.14L74.01,72.25L74.08,72.12L76.11,71.97L76.25,71.59L76.72,71.85L76.72,72.29L76.08,72.78L75.94,73.42L76.15,73.83L76.17,74.96L76.34,75.81L75.47,76.6L75.31,76.95L75.72,77.16L75.79,77.99L76.09,78.3L75.76,78.83L75.95,79.15L75.66,79.52L75.83,79.83L75.62,80.45L75.57,81.25L75.98,81.43L75.78,82.07L76.13,82.5L75.88,82.81L75.29,82.06L74.83,82.49L73.64,81.52L73.68,81.14L73.36,80.98L72.77,81.11L70.28,81.04L69.83,80.92L68.86,80.28L67.5,78.97L67,78.26L62.62,80.72L58.72,83.59L58.13,84.2L58.09,84.52L57.64,84.42L56.42,84.44L55.73,83.84L55.93,83.19L55.83,82.71L56.2,82.11L56.28,81.37L55.83,80.44L55.35,80.28L54.59,79.47L54.27,79.43L53.37,78.6L52.84,78.27L54.41,77.12L54.59,76.4L54.94,75.82L53.97,75.01L53.1,74.47L52.53,74.56L52.15,74.32L51.89,73.17ZM75.88,82.81L75.47,83L75.34,83.47L75.77,84.08L75.49,84.41L75.6,85.11L75.93,85.28L76.26,85.92L76.04,86.57L76.91,87.06L77.39,87.8L77.22,88.78L77.75,88.54L78.14,88.98L78.68,89.05L74.35,99.49L73.81,99.88L73.73,100.44L74.01,100.6L74.55,100.32L74.88,101.34L74.48,101.74L73.66,101.13L73.27,101.49L73.24,101.88L73.55,102.2L72.68,102.23L71.73,102.91L70.87,103.68L70.75,102.93L70.56,102.74L70.08,103.18L69.57,103.23L69.13,103.61L68.05,102.88L67.65,103.2L67.15,103.29L67.03,102.84L66.43,102.85L65.48,102.12L64.76,101.41L64.42,100.54L64.09,100.33L64.08,100.8L63.69,101.02L63.39,100.74L63.05,100.84L62.94,100.51L62.06,100.35L61.18,99.67L61.03,100.06L60.41,99.88L59.97,99.4L59.96,99.09L59.55,99.04L59.5,98.14L59.29,97.91L59.29,96.95L58.97,96.39L59.16,96.21L59.5,94.22L59,93.81L58.98,93.35L59.33,92.54L59,91.4L57.71,91.26L57.58,90.98L57.05,90.89L57.09,90.49L56.56,89.91L56.14,89.94L55.83,89.6L55.48,89.6L55.05,89.22L54.79,88.64L54.36,88.66L54.26,88.08L53.93,87.6L53.35,87.73L53.47,87.12L52.82,87.22L52.77,87.02L53.13,85.89L54.11,84.84L54.21,84.39L55.47,84.21L56.42,84.44L57.64,84.42L58.09,84.52L58.13,84.2L58.72,83.59L62.62,80.72L67,78.26L67.5,78.97L68.86,80.28L69.83,80.92L70.28,81.04L72.77,81.11L73.36,80.98L73.68,81.14L73.64,81.52L74.83,82.49L75.29,82.06ZM62.44,39.42L62.07,39.37L61.28,38.96L60.73,39.01L60.32,39.28L59.68,39.23L59.05,39.41L58.59,39.18L57.24,39.37L56.63,39.1L55.1,38.71L54.47,38.18L53.52,38.28L51.85,37.71L51.39,37.27L50.77,37.23L50.58,36.94L50.15,37.05L49.37,36.24L48.96,36.24L49.05,35.36L49.39,35.17L49.34,34.51L48.64,33.89L48.71,33.55L48.99,32.47L49.75,31.54L49.53,30.88L48.75,29.91L48.54,29.43L48.96,28.83L49.06,27.68L49.66,26.97L49.66,27.27L50.07,27.62L50.2,28.06L50.78,28.58L50.62,29.44L50.81,30.3L50.7,32.29L51.07,32.67L50.99,33.15L51.3,33.28L51.81,34.3L52.71,34.01L52.99,34.61L53.39,34.88L53.88,35.78L54.73,36.76L55.29,37.04L56.28,38.45L56.91,38.35L57.35,38.69L57.88,38.79L58.7,38.55L59.46,38.7L59.66,38.47L60.48,38.39L61.32,38.45L62.09,38.15L62.33,37.9L62.78,37.99L63.21,37.54L63.78,37.41L64.35,37.61L65.51,37.56L65.69,37.67L66.6,37.21L66.74,37.67L67.57,37.65L68.03,38.11L67.42,38.52L66.94,38.48L66.97,38.8L66.49,38.92L65.37,38.73L65.14,39.02L64.41,38.81L63.44,39.22ZM56.6,44.85L57.9,45.43L59.39,45.38L59.91,45.45L60.08,45.96L61.06,45.84L61.33,46.18L62.16,45.72L62.66,45.85L63.01,45.41L63.54,45.57L63.37,45.88L63.78,45.86L64.07,46.24L64.75,46.2L65.2,46.65L65.63,46.72L67.05,46.58L67.66,46.89L68.43,46.91L68.49,47.28L69.22,47.43L68.93,47.85L68.47,47.95L68.53,48.55L68.11,48.27L68.16,48.92L67.82,50.01L67.46,50.41L67.29,50.22L66.96,50.52L67.13,50.97L66.22,51.44L65.72,51.89L64.91,52.16L65.12,52.69L64.82,53.13L65.52,53.34L65.41,53.84L65.64,54.24L66.11,54.36L66.21,55.17L65.65,55.26L65.38,55.76L64.33,55.87L63.77,55.4L62.8,55.21L62.53,55.48L61.42,55.11L59.49,55.37L58.82,55.13L57.63,49.3L57.41,49.68L56.69,49.81L56.37,50.17L55.96,49.91L55.06,49.72L55.05,49.23L55.66,48.96L55.5,48.6L55.76,47.18L56.07,46.49L56.03,46.08L56.56,45.19ZM44.28,68.21L46.1,69.64L46.81,69.79L47,70.03L47.81,70.1L48.2,70.67L48.84,70.92L48.79,71.24L49.38,71.71L50.16,72.05L50.42,72.37L50.49,72.98L51.03,73.05L51.37,72.84L51.71,73.08L51.89,73.17L52.15,74.32L52.53,74.56L53.1,74.47L53.97,75.01L54.94,75.82L54.59,76.4L54.41,77.12L53.81,77.09L52.13,76.15L51.48,75.97L51.06,76.52L50.3,76.14L50.2,75.63L49.08,75.53L48.56,75.6L48.54,75.38L47.87,75.36L47.75,75.12L47,75.31L46.87,75.08L46.29,75.33L44.81,74.6L44.33,74.24L43.7,74.1L43.6,74.43L43.14,73.69L42.42,72.83L41.91,72.47L40.31,73.91L40.25,73.71L38.94,74.05L38.56,74.7L38.04,75.14L37.39,75.06L37.07,75.43L36,75.54L35.85,76.12L35.32,76.42L34.8,76.32L33.78,76.75L32.7,73.68L33.29,72.56L34.31,72.66L34.28,73.29L34.85,73.96L35.55,73.05L35.29,72.61L35.71,71.53L35.45,70.57L36.27,69.1L35.9,68.76L34.91,68.53L34.76,68.01L34.32,67.33L34.5,66.77L34.12,65.51L33.42,64.82L32.88,64.69L33.56,63.8L33.45,63.44L33.65,62.93L34.52,63.32L35.22,63.03L36.05,63.72L37.29,64.28L37.84,64.74L39.16,65.04L39.79,65.03L40.22,65.09L40.19,65.7L40.98,66L42.38,66.1L42.77,66.47L42.45,66.87L43.86,68.14ZM48.54,29.43L47.83,29.72L47.2,30.84L46.52,30.01L46.45,29.02L45.95,29.4L45.22,29.69L44.76,29.2L44.4,28.32L44.32,27.23L44.74,26.65L44.77,25.99L44.98,25.45L45.5,24.99L46.52,24.83L46.55,24.44L46.96,24.3L47.47,23.79L48.25,23.77L48.93,23.21L49.67,23.71L50.46,23.91L50.96,24.59L50.66,24.93L50.66,25.61L49.89,26.04L49.66,26.97L49.06,27.68L48.96,28.83ZM45.3,51.58L45.48,51.81L46.65,52.21L47.34,52.28L47.69,52.58L48.2,52.61L48.66,52.94L49.46,52.91L50.13,53.38L50.96,53.25L51.07,53.58L51.81,53.95L51.98,54.3L53.07,54.6L53.89,54.4L54.12,54.66L54.9,54.58L56.73,54.8L57.59,55.31L58.82,55.13L59.49,55.37L61.42,55.11L62.53,55.48L62.8,55.21L63.77,55.4L64.33,55.87L65.38,55.76L65.65,55.26L66.21,55.17L66.11,54.36L66.28,54.52L66.96,54.01L67.25,53.47L68.2,53.57L68,53.92L68.31,54.07L68.63,55.09L68.96,55.27L68.89,55.67L69.38,56.1L70.38,56.34L70.36,56.11L70.92,56.2L71.11,56.46L71.18,57.29L71.79,57.8L72.34,57.87L73.21,57.16L76.09,57.23L76.75,56.96L76.98,56.62L77.55,56.84L78.59,56.93L78.95,56.64L79.92,56.48L80.14,56.19L81.42,55.45L81.47,55.1L82.74,54.82L83.12,54.4L83.66,54.52L83.79,54.16L84.27,54.2L84.85,54L85.25,54.14L85.58,53.71L85.67,53.94L86.74,53.68L87.2,53.94L87.34,54.35L87.77,54.68L87.92,54.37L88.72,54.52L88.92,54.13L90.4,54.66L90.99,54.3L91.21,54.61L91.68,54.61L92.77,55.01L93.18,55.45L93.66,55.46L93.71,55.72L94.26,55.53L95.41,54.75L95.57,54.12L96.41,54.25L98.52,53.41L98.94,53.66L98.76,54.15L98.44,54.3L98.48,55.13L99.07,55.44L98.66,55.54L98.89,55.96L98.36,55.71L98.35,57.05L98,57.28L98.09,57.66L98.62,57.75L98.63,57.99L97.96,57.93L98.15,58.91L97.59,58.77L97.32,59.18L97.49,59.79L97.29,60.18L96.8,59.96L96.43,60.38L95.8,60.61L96.21,60.93L96.51,62.08L96.04,62.81L95.79,62.54L95.03,63.26L95.5,63.44L95.4,64.21L95.16,64.02L95.34,64.73L94.87,64.71L94.96,65.02L94.37,65.43L94.18,66.23L93.5,66.32L93.66,66.66L93.31,66.79L93.38,67.51L92.85,67.52L92.54,67.78L92.51,68.28L92.25,67.99L91.5,68.39L91.39,68.74L90.95,68.5L90.75,69.32L90.18,69.41L89.8,69.08L89.88,69.84L89.44,69.79L89.12,69.36L88.88,69.66L88.51,69.35L87.93,69.67L87.59,69.37L87.6,68.71L86.98,69.08L86.98,69.46L86.55,69.4L85.39,69.67L85.7,70.1L85.37,70.08L85.06,70.62L84.54,70.31L84.59,70.74L83.62,70.85L83.54,70.39L83.23,70.56L83.26,71.32L82.84,71.55L82.49,71.16L82.43,71.54L81.73,71.97L81.15,71.85L81.22,71.43L80.91,71.28L80.33,71.47L79.81,71.91L78.9,71.86L78.52,72.01L78.26,71.69L77.97,71.84L76.72,71.85L76.25,71.59L76.11,71.97L74.08,72.12L74.01,72.25L73.08,72.14L72.83,72.75L72.69,72.26L72.05,71.82L72.06,72.17L71.31,71.63L70.95,71.88L70.77,71.67L70.36,71.99L70.31,71.58L69.85,71.51L69.85,71.12L69.37,71.34L68.85,71.22L68.67,70.15L67.72,69.84L67.81,69.53L67.49,68.86L66.73,69.02L65.99,68.52L65.53,68.53L65.14,67.98L64.69,68.32L64.47,68.22L64.34,67.54L63.9,67.3L63.62,66.84L64.05,66.36L63.41,66.07L63.48,65.78L62.71,65.82L62.6,65.12L62.11,64.96L61.82,64.27L60.38,63.65L59.81,63.59L59.63,63.25L58.9,63.15L58.16,63.69L57.83,64.69L57.93,65.19L57.35,65.56L56.9,66.33L56.94,67.2L56.35,68.79L55.94,67.5L55.19,67.31L55.1,66.83L54.19,66.21L52.87,66.55L51.37,64.93L50.74,64.86L50.68,64.23L50.25,63.71L49.98,62.92L49.12,62.04L48.78,61.36L48.14,61.1L48.08,60.66L47.73,60.45L47.32,59.73L47.06,59.8L46.68,59.3L46.55,58.73L46.23,58.39L46.02,57.72L45.56,57.54L44.25,58.56L43.76,57.25L43.58,57.07L43.48,56.19L42.74,54.62L43.19,53.92L43.58,53.73L43.76,53.05L44.58,53.25L45.05,52.89L44.61,51.95L44.16,51.35ZM35.85,97.8L36.17,97.04L36.02,96.39L36.31,96.03L36.12,94.96L36.58,95.03L36.65,94.66L36.18,94.24L35.99,93.78L36.28,93.29L35.68,92.63L35.11,92.77L34.66,92.47L35.2,91.9L35.94,91.48L35.72,91.23L35.72,90.34L35.29,90.09L35.62,89.69L35.47,89.39L34.73,89.24L34.51,88.7L34,88.68L33.92,88.25L32.97,88.12L32.64,86.92L33.26,86.67L33.28,86.06L33.59,85.96L33.61,85.56L34.11,85.33L34.37,84.37L34.39,83.61L34.79,83.47L35.1,82.81L34.56,82.33L34.76,81.9L34.52,81.11L34.89,80.68L34.97,80.12L33.78,76.75L34.8,76.32L35.32,76.42L35.85,76.12L36,75.54L37.07,75.43L37.39,75.06L38.04,75.14L38.56,74.7L38.94,74.05L40.25,73.71L40.31,73.91L41.91,72.47L42.42,72.83L43.14,73.69L43.6,74.43L43.7,74.1L44.33,74.24L44.81,74.6L46.29,75.33L46.87,75.08L47,75.31L47.75,75.12L47.87,75.36L48.54,75.38L48.56,75.6L49.08,75.53L50.2,75.63L50.3,76.14L51.06,76.52L51.48,75.97L52.13,76.15L53.81,77.09L54.41,77.12L52.84,78.27L53.37,78.6L54.27,79.43L54.59,79.47L55.35,80.28L55.83,80.44L56.28,81.37L56.2,82.11L55.83,82.71L55.93,83.19L55.73,83.84L56.42,84.44L55.47,84.21L54.21,84.39L54.11,84.84L53.13,85.89L52.77,87.02L52.82,87.22L53.47,87.12L53.35,87.73L53.93,87.6L54.26,88.08L54.36,88.66L54.79,88.64L55.05,89.22L55.48,89.6L55.83,89.6L56.14,89.94L56.56,89.91L57.09,90.49L57.05,90.89L57.58,90.98L57.71,91.26L59,91.4L59.33,92.54L58.98,93.35L59,93.81L59.5,94.22L59.16,96.21L58.97,96.39L59.29,96.95L59.29,97.91L59.5,98.14L59.55,99.04L59.96,99.09L59.97,99.4L60.41,99.88L61.03,100.06L61.18,99.67L62.06,100.35L62.94,100.51L63.05,100.84L63.39,100.74L63.69,101.02L64.08,100.8L64.09,100.33L64.42,100.54L64.76,101.41L65.48,102.12L66.43,102.85L67.03,102.84L67.15,103.29L67.65,103.2L68.05,102.88L69.13,103.61L69.57,103.23L68.56,104.42L67.92,104.85L67.76,103.9L67.14,103.88L66.92,104.35L67.58,104.84L66.87,105.01L66.35,105.45L65.9,105.28L66.04,104.31L65.67,104.13L65.23,104.59L64.7,104.81L64.07,104.7L64.27,104.22L64.03,103.99L63.74,104.57L63.21,104.58L62.65,104.87L62.18,104.86L62.33,105.21L63.06,105.16L63.27,105.89L62.93,106.11L62.57,105.79L62.06,105.73L60.99,106.55L60.23,105.71L59.66,105.72L59.84,106.25L59.55,106.82L58.87,107L58.78,106.54L59.26,106.09L59.14,105.52L58.85,105.34L58.19,105.53L58.17,106.79L57.95,106.99L57.37,106.84L57.67,106.33L57.57,105.98L56.79,105.77L56.47,105.89L56.23,106.91L55.69,106.62L56.07,105.77L55.74,104.74L55.49,104.69L55.34,104.02L55.08,103.95L55.34,103.32L55.19,103.09L55.66,102.1L55.27,102.01L55.22,101.12L54.52,100.25L54,100.35L53.79,100.62L53.41,100.46L52.94,99.83L53.46,99.37L53.45,98.34L53.03,97.85L53.08,97.32L52.71,97.33L51.91,96.55L51.63,95.7L51.28,95.19L49.81,95.73L47.34,96.35L37.44,98.99L37.29,98.97L37.02,98.55L36.11,98.47L36.06,97.87Z" fill="#B3CFC0" stroke="#007139" stroke-width="0.5"/></svg>