<svg xmlns="http://www.w3.org/2000/svg" width="144" height="144" viewBox="0 0 144 144"><path d="M106.7,91.85L106.88,90.68L106.9,89.6L107.44,87.82L108.62,86.73L108.74,85.73L107.59,84.97L105.82,85.4L105.48,84.75L106.69,84.26L107.8,82.97L109.9,82.49L109.88,84.24L111.58,86.03L111.95,84.91L112.3,85.59L113.64,86.48L114.53,88.31L115.29,88.82L116.82,88.65L117.17,89.92L120.24,91.64L121.61,91.11L121.67,91.85L122.4,92.64L123.59,93.08L123.72,93.71L123.11,94.17L122.87,95.99L123.42,97.54L123.22,99.29L123.9,100.56L124.9,100.69L124.99,101.8L125.73,102.32L126.67,101.95L127.47,103.57L127.38,104.69L126.71,104.83L126.05,105.84L124.64,106.2L124.25,106.74L124.61,107.98L124.18,108.08L123.47,109.72L121.84,110.57L121.51,111.8L121.91,112.06L121.82,113.18L122.79,114.71L120.49,115.47L119.28,113.73L118.92,113.79L118.37,112.6L117.77,112.81L116.78,111.78L116.29,110.53L115.48,110.52L113.84,108.97L112.9,108.62L111.6,108.88L111.54,108.2L109.41,106.79L110.77,105L110.71,103.66L111.04,102.78L110.91,101.64L111.45,101.2L110.18,100.16L109.95,99.18L110.32,96.95L109.36,95.57L108.48,95.4L106.89,92.78ZM127.92,73.62L124.81,77.38L122.63,77.33L122.28,76.92L124.04,74.18L124.67,72.43L125.49,72.48L125.07,73.71L126.33,74.19L127.29,73.29ZM87.19,106.61L87.63,107.05L87.38,108.21L86.62,109.87L87.24,110.58L86.56,110.71L86.63,112.62L87.41,112.69L88.11,112.8L87.14,113.53L86.68,114.48L86.2,112.93L85.02,112.22L84.95,110.79L84.17,109.99L84.87,107.43L85.42,107.58L86.27,106.14ZM97.86,84.72L97.26,86.19L97.73,88.03L97.58,89.32L98.06,90.81L97.54,91.88L96.55,92.78L95.66,92.99L93.88,91.51L95.26,87.5L95.73,85.49L96.07,84.93ZM124.04,74.18L122.28,76.92L120.74,77.33L120.27,76.5L118.79,76.89L117.73,76.61L119.16,75.88L119.41,74.42L119.24,72.62L120.09,71.67L120.75,71.59L121.74,72.45L121.76,73.39L122.51,73.55L122.86,73.02ZM75.47,66.1L75.79,67.21L76.83,67.49L76.19,69.68L77.12,69.8L76.07,70.98L76.42,71.23L76.01,72.49L74.52,73.08L74.17,73.78L74.9,74.04L74.2,75.32L74.59,76.54L74.17,78.36L73.48,79.08L71.96,79.51L71.57,78.72L70.67,78.83L69.9,78.26L68.44,77.96L67.81,78.33L66.54,77.96L64.91,79.33L64.01,80.93L64.58,81.83L64.44,84.25L64.1,85L65.78,87.83L65.32,88.84L64.4,88.67L63.82,89.04L62.93,88.84L62.5,89.32L61.07,89.74L60.47,91.61L49.07,95.83L48.6,94.71L48.81,93.87L47.8,93.03L47.8,92.53L46.85,92.36L46.82,92.89L43.52,93.79L43.39,94.51L42.61,94.95L41.86,94.47L40.75,94.85L41.29,95.78L40.29,95.59L39.95,94.64L40.46,92.83L39.83,92.38L38.96,93.42L37.97,93.12L37.42,92.39L36.73,92.87L36.41,92.09L35.5,92.67L36.89,83.3L36.94,82.45L37.59,82.02L37.45,81.1L38.88,80.39L39.62,80.61L40.97,79.76L43.49,79.22L44.69,78.26L45.56,79L45.91,78.67L47.09,78.81L47.35,80.12L48.98,81.05L49.41,81.85L50.66,81.4L50.85,80.17L50.5,77.89L50.71,76.62L50.45,75.33L50.85,73.26L50.8,71.63L50.48,70.39L51.24,68.85L51.18,65.45L52.14,64.43L53.01,62.71L52.2,61.05L53.04,59.11L52.65,59.06L53.68,57.71L53.98,58.89L53.88,59.96L54.36,60.92L55.65,60.94L55.97,60.44L57,60.4L58.25,59.13L59.36,59.49L60.6,59L62.63,58.81L63.48,58.14L66.12,59.38L66.64,59.36L68.8,57.73L70.09,56.04L71.32,55.77L72.6,56.07L73.52,54.77L75.89,53.47L76.76,53.64L78.83,51.8L79.72,51.43L80.03,52.09L77.82,53.31L78.15,54.08L77.6,54.47L76.81,54.19L75.14,54.54L73.87,55.27L74.36,56.82L74.1,57.67L73.34,57.63L72.99,59.04L72.05,59.73L71.91,60.98L71.18,61.2L70.08,60.36L69.41,61.2L70.63,62.93L71.83,62.97L73.62,65.09L73.75,65.98L74.5,66.3ZM128.21,66.12L129.16,66.68L128.4,68.89L127.86,68.71L127.14,69.36L126.57,69.24L125.23,70.01L124.23,69.21L124.2,67.56L125.78,68.04L126.41,67.25L125.12,67.14L124.99,66.14L124.16,65.41L124.55,65.01L125.7,66.04L126.75,66.05L127,66.65ZM123.59,93.08L122.4,92.64L121.67,91.85L121.61,91.11L120.24,91.64L117.17,89.92L116.82,88.65L115.29,88.82L114.53,88.31L113.64,86.48L114.55,85.21L115.06,83.39L115.45,83.27L115.47,81.47L114.17,79.52L113.37,78.78L113.58,77.31L114.28,77.15L114.53,76.33L117.73,76.61L118.79,76.89L120.27,76.5L120.74,77.33L122.28,76.92L122.63,77.33L122.81,78.26L124.39,78.73L125.12,79.62L125.97,79.96L126.93,81.14L127.4,83.12L128.65,84.35L129.08,85.77L130.35,85.59L130.5,84.58L131.78,85.24L132.15,86.16L133.27,86.7L132.84,87.49L131.43,87.42L131.52,86.8L130.86,86.23L130.4,86.62L130.17,87.83L130.9,88.73L130.29,90.58L128.9,91.2L127.82,92.23L126.62,91.89L124.83,92.94ZM128.21,66.12L127,66.65L126.75,66.05L125.7,66.04L124.55,65.01L124.16,65.41L124.99,66.14L125.12,67.14L126.41,67.25L125.78,68.04L124.2,67.56L124.04,66.71L122.74,64.94L123.39,63.98L124.85,63.15L125.95,62.74L127.04,62.95L127.59,63.47L130.06,63.65L129.63,64.72L128.72,65.31ZM106.88,90.68L106.7,91.85L105.61,92.49L102.9,94.49L101.76,94.89L100.79,94.51L99.39,94.69L99.62,93.91L99.25,92.35L98.06,90.81L97.58,89.32L97.73,88.03L98.65,88.38L102.19,88.99L102.76,89.68L105.09,90.36L105.83,90.07ZM99.95,107.59L99.31,108.87L98.3,108.93L97.09,109.46L95.74,110.84L94.92,110.38L94.28,109.46L94.25,108.42L93.42,107.11L94.82,106.93L95.84,107.26L96.08,107.86L98.55,107.71L98.8,107.27ZM95.54,111.08L96.71,111.41L97.52,112.18L97.94,113.33L98.95,114.14L101.04,114.07L101.91,114.51L102.42,113.91L103.94,113.76L105.32,115.03L107.37,115.67L108.63,116.57L108.9,117.17L110.24,116.63L111.05,117.61L111.3,119.21L112.93,119.92L113.53,120.58L114.98,121.25L115.52,122.33L117.85,124.24L118.15,124.79L117.54,127.29L116.19,126.76L115.11,125.63L114.25,124.08L112.78,123.24L111.34,123.23L109.65,122.89L108.3,122.93L107.58,121.74L106.61,121.86L106.42,120.52L105.97,119.72L105.5,119.91L103.14,117.97L101.51,117.07L99.67,117.32L99.76,116.48L98.26,115.02L96.35,115.46L95.13,115.26L94.56,114.29L94.45,112.24ZM84.17,109.99L84.95,110.79L85.02,112.22L86.2,112.93L86.68,114.48L86.68,115.04L85.14,113.78L84.41,113.7L82.81,114.76L82.08,114.41L82.42,113.84L81.95,112.65L81.14,112.07L80.8,111.19L81.61,111.23L81.12,109.48L82.37,109.8L82.9,109.25L83.42,109.91ZM81.12,109.48L81.61,111.23L80.8,111.19L81.14,112.07L81.95,112.65L82.42,113.84L82.08,114.41L81.71,114.2L79.18,114.92L78.29,116.26L75.36,116.71L73.85,116.16L72.64,116.13L71.5,115.6L69.29,115.3L67.35,113.32L65.03,111.86L62.69,110.77L61.59,110.78L60.53,109.77L60.48,108.88L59.6,108.36L58.55,108.52L57.59,109.11L54.94,107.8L55.26,106.85L55.03,105.36L54.15,104.11L59.35,102.5L72.27,99.53L73.06,100.79L74.09,101.3L76.07,101.49L77.01,102.9L77.95,102.67L78.28,103.57L79.59,104.47L79.38,105.15L77.71,106.22L77.6,106.66L79.15,107.54L80.13,108.97ZM91.35,50.28L91.52,51.38L90.37,53.58L90.85,54.5L92.39,55.43L92,56.16L92.15,57.16L93.35,57.98L94.44,57.68L95.58,58.53L96.31,58.47L96.3,59.15L97.18,59.76L97.54,61.12L96.61,61.63L97.88,62.56L98.18,62.16L99.08,62.7L99.4,64.68L98.97,65.12L99.65,66.02L99.36,67.05L98.01,66.51L95.46,66.97L93.62,68.65L92.23,67.85L91.85,67.15L92.31,65.33L91.2,63.02L90.04,62.84L89.72,62.02L88.23,60.93L88.19,59.73L89.08,58.63L89.19,56.81L89.61,56.12L88.9,55.95L88.66,54.72L88.16,54.08L87.27,54.32L86.28,53.36L84.94,53.83L85.36,52.37L85.45,51.03L86.56,51.16L87.4,50.7L86.65,49.77L86.85,48.84L87.47,48.36L88.12,48.2L89.19,49.21ZM113.64,86.48L112.3,85.59L111.95,84.91L111.58,86.03L109.88,84.24L109.9,82.49L110.89,81.89L111.09,81.31L110.3,79.89L110.61,79.8L110.61,78.18L110.45,77.53L111,76.39L110.6,75.55L110.96,74.93L110.5,74.11L109.15,73.36L109.93,72.18L110.38,72.29L110.94,73.78L112.02,73.88L111.97,74.45L113.03,75.64L113.61,75.31L113.89,76.1L114.53,76.33L114.28,77.15L113.58,77.31L113.37,78.78L114.17,79.52L115.47,81.47L115.45,83.27L115.06,83.39L114.55,85.21ZM87.47,48.36L86.85,48.84L85.74,47.6L84.81,47.1L84.44,47.46L83.81,46.74L82.51,47.03L79.78,47.05L78.82,47.59L77.61,47.12L75.75,45.49L75.91,44.97L75.02,43.91L75.58,42.68L74.97,42.55L74.53,41.35L73.26,39.44L73.96,38.07L73.07,37.12L70,37.16L69.7,35.73L68.21,36.61L68.21,37.33L67.52,37.92L65.61,36.61L64.97,37.32L63.85,37.26L63.43,36.63L61.95,37.06L62.31,37.57L61.48,37.6L61.19,36.82L59.45,37.05L58.57,36.48L58.93,36.1L57.4,35.6L55.78,35.52L56.18,28.44L57.06,23.53L57.24,15.94L57.09,14.27L56.63,12.95L56.89,11.43L56.24,9.24L55.26,8.69L55.8,6.4L55.55,5.51L53.36,1.8L53.14,0.99L56.71,0.43L57.24,0L58.27,0.13L58.78,1.35L58.6,2.39L60.1,2.42L59.99,4.09L61.07,5.24L61.43,8.27L62.42,10.44L61.6,11.02L61.39,12.17L63.48,12.75L63.47,13.47L64.18,14.28L63.89,15.48L64.71,15.87L64.98,16.62L66.34,18.03L68.04,21.77L68.8,22.13L70.27,23.9L70.43,25.56L71.88,27.38L72.35,28.35L72.25,29.59L71.68,29.66L71.7,30.86L70.8,32.35L72.21,34.84L75.21,35.95L76.65,37.33L77.46,39.4L78.93,39.88L81.26,40.99L82.68,42.2L84.18,42.87L86.44,43.21L87.39,42.99L88.55,40.87L89.8,40.88L90.55,40.25L91.04,40.55L92.97,40.81L93.11,40.47L92.46,38.59L92.55,36.58L92.03,35.9L92.01,34.85L92.59,34.38L92.17,33.56L91.96,31.95L93.52,31.15L94.75,29.8L95.36,30.17L96.91,29.97L98.01,30.36L98.86,30.25L98.88,28.96L99.84,27.39L99.35,25.84L100.63,24.6L101.66,24.66L103.76,25.54L105.14,26.46L105.88,25.97L106.81,26.07L107.57,27.11L109.09,28.59L109.49,29.92L110.04,30.27L109.4,31.08L110.06,32.86L109.97,34.59L108.38,36.41L108.13,37.78L107.49,38.5L107.26,39.49L109.78,41.2L109.64,43L109.85,44.35L107.51,44.78L106.41,44.4L106.04,42.98L105.66,42.74L104.56,43.46L102.68,43.1L100.97,44.29L99.04,44.62L98.5,44.96L97.98,46.21L98.02,47.04L97.31,48.16L95.8,47.58L94.04,46.29L91.83,46.08L90.14,46.63L89.41,47.87L88.1,47.87ZM105.2,71.62L104.69,72.61L105.15,74.19L104.05,75.78L103,76.18L103.03,76.82L101.2,76.67L100.88,77.01L99.13,76.25L98.8,75.6L99.24,75.13L99.69,73.02L101.91,70.35L102.03,69.53L101.46,67.92L101.99,67.51L104.57,66.84L104.9,67.26L104.25,68.14L104.63,69.78L104.16,70.68ZM91.35,50.28L89.19,49.21L88.12,48.2L87.47,48.36L88.1,47.87L89.41,47.87L90.14,46.63L91.83,46.08L94.04,46.29L95.8,47.58L97.31,48.16L98.02,47.04L97.98,46.21L98.5,44.96L99.04,44.62L100.97,44.29L102.68,43.1L104.56,43.46L103.75,46.71L103.06,47.8L103.68,49.29L105.27,50.26L106.99,49.91L107.05,50.54L108.54,51.29L110.03,52.81L110.84,52.8L110.78,53.66L109.93,54.49L110.84,56.9L110.02,59.26L108.64,62.12L108.07,62.86L107.12,62.92L107.53,62.26L106.62,61.23L105.7,61.1L104.74,61.87L104.02,61.95L103.56,60.73L104.14,60.2L104.76,58.42L104.2,57.63L104.09,56.31L103.35,55.3L102.97,53.28L101.72,54.17L98.82,53.9L98.08,54.05L96.73,53.58L96.35,52.99L96.37,51.8L93.47,50.49L93.1,49.66ZM122.63,77.33L124.81,77.38L127.92,73.62L128.48,72.79L129.49,72.29L132.17,72.45L133.36,73.34L133.53,73.35L133.55,74.43L134.19,77.74L133.35,79.62L134.03,83.56L135.07,84.49L133.44,86.06L133.27,86.7L132.15,86.16L131.78,85.24L130.5,84.58L130.35,85.59L129.08,85.77L128.65,84.35L127.4,83.12L126.93,81.14L125.97,79.96L125.12,79.62L124.39,78.73L122.81,78.26ZM109.15,73.36L110.5,74.11L110.96,74.93L110.6,75.55L111,76.39L110.45,77.53L110.61,78.18L109.71,79.02L108.99,80.18L107.95,81.1L106.94,81.09L105.98,82.31L104.27,83.81L103.58,83.39L103.58,81.32L102.17,80.23L101.25,80.23L100.16,81.86L99.35,81.51L98.93,79.67L99.29,78.67L98.79,77.78L99.13,76.25L100.88,77.01L101.2,76.67L103.03,76.82L103,76.18L104.05,75.78L105.15,74.19L104.69,72.61L105.2,71.62L108.31,72.62ZM109.41,106.79L111.54,108.2L111.6,108.88L112.9,108.62L113.84,108.97L115.48,110.52L116.29,110.53L116.78,111.78L117.77,112.81L118.37,112.6L118.92,113.79L119.28,113.73L120.49,115.47L119.25,120.28L117.63,119.77L116.04,117.6L115.58,116.1L115.77,114.14L114.99,113.04L114.9,111.48L112.7,112.18L107.22,111.19L106.01,111.84L104.69,111.56L104.41,111.05L102.09,111.48L101.37,110.55L99.83,109.66L99.31,108.87L99.95,107.59L100.47,106.85L99.44,103.35L99.7,103.04L100.3,102.91L100.68,101.61L101.37,100.97L102.57,101.02L103.81,102.74L106.05,102.8L106.16,104.05L107.5,106.07L108.06,107.59L109.15,107.4ZM87.19,106.61L86.27,106.14L85.42,107.58L84.87,107.43L84.17,109.99L83.42,109.91L82.9,109.25L82.37,109.8L81.12,109.48L80.13,108.97L79.15,107.54L77.6,106.66L77.71,106.22L79.38,105.15L79.59,104.47L80.7,102.75L81.74,101.93L83.59,103.37L83.95,104.31L85.37,105.31L86.04,104.8L86.52,103.56L87.26,103.31L88.04,104.02L88.9,104.15L90.47,103.77L91.07,104.75L90.03,105.75L88.44,105.73ZM93.88,91.51L95.66,92.99L96.55,92.78L97.54,91.88L98.06,90.81L99.25,92.35L99.62,93.91L99.39,94.69L99.78,96.34L99.46,97.13L98.23,97.7L97.39,97.16L96.05,97.29L95.26,98.24L93.79,98.63L92.81,97.37L92.48,96L92.83,95.78L93.23,93.79L93.57,92.64ZM93.42,107.11L94.25,108.42L94.28,109.46L94.92,110.38L93.79,110.86L92.6,110.63L92.29,109.8L91.27,108.47L91.23,107.94L92.59,106.59L92.53,105.95ZM99.95,107.59L98.8,107.27L98.55,107.71L96.08,107.86L95.84,107.26L94.82,106.93L93.42,107.11L92.53,105.95L92.21,104.85L93.56,105.1L93.92,104.62L95.82,104.32L98.31,102.88L99.7,103.04L99.44,103.35L100.47,106.85ZM101.37,100.97L100.68,101.61L100.3,102.91L99.7,103.04L98.31,102.88L97.17,101.6L97.06,100.33L96.44,100.59L94.89,100.35L94.44,99.95L93.79,98.63L95.26,98.24L96.05,97.29L97.39,97.16L98.23,97.7L99.46,97.13L99.64,98.7L100.83,99.21ZM86.68,114.48L87.14,113.53L88.11,112.8L87.41,112.69L89.07,112.66L89.37,113.17L90.96,113.34L92.08,114.08L92.63,112.72L92.41,111.69L93.48,111.55L93.79,110.86L94.92,110.38L95.74,110.84L95.54,111.08L94.45,112.24L94.56,114.29L93.73,115.07L93.1,116.71L92.65,116.32L91.65,116.69L91.11,117.39L91.54,118.08L89.55,120.54L89.62,121.43L90.71,121.04L92.35,121.45L94.8,120.71L97.13,119.53L99.33,119.51L100.52,120.31L102.08,122.31L102.58,123.38L102.57,124.94L103.86,125.22L104.13,125.95L105.59,126.99L105.18,127.51L117.54,127.29L118.21,128.15L119.46,128.85L121.18,129.11L121.76,129.57L121.97,131.44L121.04,131.94L121.04,133.84L121.66,134.89L121.96,136.45L122.83,137.62L122.41,138.55L122.6,139.59L123.6,140.1L122.99,140.9L123.62,142L122.13,143.3L121.32,142.86L119.79,143.08L118.79,142.27L117.59,142.4L116.61,143.58L115.87,143.89L113.97,144L112.94,143.48L112.26,143.85L110.68,143.78L108.94,142.39L107.41,142.19L106.08,141.54L104.96,142.33L103.84,141.31L102.8,142.1L98.64,141.36L97.23,141.27L96.43,141.59L96.24,141L96.86,140.2L96.96,138.32L96.51,137.42L97.06,135.76L96.66,134.14L97.37,132.25L97.44,131.36L98.8,130.13L99.21,128.85L99.38,126.67L98.6,125.32L97.69,125.75L96.79,125.62L95.13,126.16L94.13,126L92.58,124.64L91.82,124.55L91.45,123.88L89.47,122.84L87.84,122.69L87.3,121.67L87.24,120.69L85.85,120.43L85.87,119.62L86.79,118.28L88.09,117.42L87.18,117.36L87.95,116.12L86.68,115.04ZM128.4,68.89L129.16,66.68L128.21,66.12L128.72,65.31L129.63,64.72L130.06,63.65L130.69,63.67L131.5,65.4L132.86,65.03L135.3,63.35L135.63,63.23L136.72,64.33L138.14,64.84L139.41,66.28L138.98,68.01L137.98,69.32L138.34,71.24L137.89,71.99L136.09,71.96L134.53,73.35L133.53,73.35L133.36,73.34L132.07,71.78L130.77,71.45L130.41,70.64L129.58,70.94ZM109.9,82.49L107.8,82.97L106.69,84.26L105.48,84.75L105.82,85.4L106.29,86.28L106.22,88.96L106.88,90.68L105.83,90.07L105.43,89.07L104.04,87.59L103.28,86.35L101.04,85.34L100.92,83.86L100.16,81.86L101.25,80.23L102.17,80.23L103.58,81.32L103.58,83.39L104.27,83.81L105.98,82.31L106.94,81.09L107.95,81.1L108.99,80.18L109.71,79.02L110.61,78.18L110.61,79.8L110.3,79.89L111.09,81.31L110.89,81.89ZM76.83,67.49L75.79,67.21L75.47,66.1L76.26,65.79L76.62,64.85L77.39,64.25L77.39,63.64L78.67,63.06L80.2,64.08L80.87,64.1L80.99,65.44L80.67,66.11L82.81,66.9L82.9,68.04L84.96,68.9L86.4,70.4L87.38,70.6L89.87,68.66L92.05,68.49L92.58,69.5L93.38,69.72L93.22,70.75L92.42,72.53L95.45,75.53L95.96,76.59L95.03,77.53L93.23,77.72L92.93,77L91.83,75.92L91.19,74.24L91.23,73.22L89.15,71.61L88.03,71.35L87.31,71.72L85.99,71.57L86.2,72.04L85.32,72.81L84.27,73.17L83.42,72.74L82.93,71.17L82.46,71.76L82.37,70.61L81.71,71.21L80.45,71.2L79.96,70.18L79,69.31L79.6,68.44L78.41,67.44ZM53.14,0.99L53.36,1.8L55.55,5.51L55.8,6.4L55.26,8.69L56.24,9.24L56.89,11.43L56.63,12.95L57.09,14.27L57.24,15.94L57.06,23.53L56.18,28.44L55.78,35.52L55.93,36.79L55.38,37.62L55.97,39.08L55.39,40.12L54.2,40.18L53.76,38.74L53.99,37.12L54.38,36.57L54.34,35.22L53.86,34.43L53.72,33.06L54.23,30.58L54.01,27.22L53.56,24.79L54.44,23.38L53.81,22.23L54.32,21.36L53.61,19.59L54.01,17.33L54.75,16L54.32,14.97L54.83,14.5L54.18,13.77L53.82,14.2L52.11,13.86L52.25,10.48L50.66,8.54L50.04,6.05L49.31,5.24L48.03,2.87L47.82,1.52L50.26,1.66L50.96,1.27ZM124.2,67.56L124.23,69.21L125.23,70.01L123.5,70.36L123.08,68.49L121.86,67.8L121.77,69.22L120.47,70.21L119.96,71.51L119.09,68.71L118.6,68.35L118.1,66.5L116.62,65.33L115.83,65.25L116.01,63.93L114.39,63.57L115.54,62.91L117.23,62.38L119.12,62.45L119.75,61.87L120.32,62.57L120.46,63.64L123.48,63.32L124.78,62.61L124.85,63.15L123.39,63.98L122.74,64.94L124.04,66.71ZM104.56,43.46L105.66,42.74L106.04,42.98L106.41,44.4L107.51,44.78L109.85,44.35L109.64,43L109.78,41.2L107.26,39.49L107.49,38.5L108.13,37.78L108.38,36.41L109.97,34.59L110.04,35.55L109.56,36.48L109.3,37.89L108.39,38.65L108.5,39.27L110.15,40.14L110.33,40.69L111.8,41.09L112.14,41.93L113.07,42.74L115.44,43.1L116.52,45.34L116.07,46.35L115.49,46.46L115.58,47.52L115.15,47.3L113.9,47.87L114.01,49.36L113.22,50.48L111.72,51.02L110.84,52.8L110.03,52.81L108.54,51.29L107.05,50.54L106.99,49.91L105.27,50.26L103.68,49.29L103.06,47.8L103.75,46.71ZM97.86,84.72L96.07,84.93L95.73,85.49L94.4,83.85L95.1,83.37L94.86,82.45L93.69,82.26L93.63,80.93L94.08,78.88L95.03,77.53L95.96,76.59L97.5,75.33L98,73.92L99.69,73.02L99.24,75.13L98.8,75.6L99.13,76.25L98.79,77.78L99.29,78.67L98.93,79.67L99.35,81.51L99.2,82.39L97.88,83.73ZM75.47,66.1L74.5,66.3L73.75,65.98L73.62,65.09L71.83,62.97L70.63,62.93L69.41,61.2L70.08,60.36L71.18,61.2L71.91,60.98L72.05,59.73L72.99,59.04L73.34,57.63L74.1,57.67L74.36,56.82L73.87,55.27L75.14,54.54L76.81,54.19L77.6,54.47L78.15,54.08L77.82,53.31L80.03,52.09L79.72,51.43L80.97,50.77L82.18,51.15L83.18,50.47L83.61,50.63L84.3,52.75L84.35,53.68L84.94,53.83L86.28,53.36L87.27,54.32L88.16,54.08L88.66,54.72L88.9,55.95L89.61,56.12L89.19,56.81L89.08,58.63L88.19,59.73L88.23,60.93L89.72,62.02L90.04,62.84L91.2,63.02L92.31,65.33L91.85,67.15L92.23,67.85L93.62,68.65L95.46,66.97L98.01,66.51L99.36,67.05L100.52,68.06L101.46,67.92L102.03,69.53L101.91,70.35L99.69,73.02L98,73.92L97.5,75.33L95.96,76.59L95.45,75.53L92.42,72.53L93.22,70.75L93.38,69.72L92.58,69.5L92.05,68.49L89.87,68.66L87.38,70.6L86.4,70.4L84.96,68.9L82.9,68.04L82.81,66.9L80.67,66.11L80.99,65.44L80.87,64.1L80.2,64.08L78.67,63.06L77.39,63.64L77.39,64.25L76.62,64.85L76.26,65.79ZM79.72,51.43L78.83,51.8L76.76,53.64L75.89,53.47L73.52,54.77L72.6,56.07L71.32,55.77L70.09,56.04L68.8,57.73L66.64,59.36L66.12,59.38L63.48,58.14L62.63,58.81L60.6,59L59.36,59.49L58.25,59.13L57,60.4L55.97,60.44L55.65,60.94L54.36,60.92L53.88,59.96L53.98,58.89L53.68,57.71L52.65,59.06L51.41,57.87L50.92,56.89L51.14,55.74L50.53,54.46L50.43,53.25L50.96,52.11L50.23,52.14L49.97,48.76L49.56,48L50.01,47.26L49.65,46.47L50.11,46.12L50.53,44.09L49.83,43.22L50.74,41.8L50.32,41.27L50.74,40.68L52.03,40.79L52.83,40.32L54.2,40.18L55.39,40.12L55.97,39.08L55.38,37.62L55.93,36.79L55.78,35.52L57.4,35.6L58.93,36.1L58.57,36.48L59.45,37.05L61.19,36.82L61.48,37.6L62.31,37.57L61.95,37.06L63.43,36.63L63.85,37.26L64.97,37.32L65.61,36.61L67.52,37.92L68.21,37.33L68.21,36.61L69.7,35.73L70,37.16L73.07,37.12L73.96,38.07L73.26,39.44L74.53,41.35L74.97,42.55L75.58,42.68L75.02,43.91L75.91,44.97L75.75,45.49L77.61,47.12L78.82,47.59L79.78,47.05L82.51,47.03L83.81,46.74L84.44,47.46L84.81,47.1L85.74,47.6L86.85,48.84L86.65,49.77L87.4,50.7L86.56,51.16L85.45,51.03L85.36,52.37L84.94,53.83L84.35,53.68L84.3,52.75L83.61,50.63L83.18,50.47L82.18,51.15L80.97,50.77ZM79.59,104.47L78.28,103.57L77.95,102.67L77.01,102.9L76.07,101.49L74.09,101.3L73.06,100.79L72.27,99.53L71.27,98.25L70.13,98.05L70.75,96.94L69.85,95.44L70.1,94.68L69.41,94.14L68.49,92.03L69.03,91.26L70.31,90.96L70.71,90.11L71.6,89.42L73.83,88.43L73.09,86.81L72.63,86.82L72.65,84.73L73.42,84.99L74.51,83.98L75.25,82.62L76.25,81.96L76.63,80.9L76.87,82.21L76.23,84.62L76.21,85.73L75.62,85.84L76.04,86.87L77.36,86.89L77.33,89.7L78.5,89.45L79.87,90.24L81.56,92.17L81.9,93.96L83.15,94.28L84.3,94.07L84.41,95.8L84.73,96.89L84.35,98.31L84.09,99.51L82.58,100.48L81.83,100.55L82.34,101.53L81.74,101.93L80.7,102.75ZM43.25,30.36L41.58,29.78L40.82,28.39L41.26,28.18L40.93,27.32L40.13,27.55L37.97,26.85L37.16,25.38L36.06,25.15L36.1,24.56L35.22,24.6L34.49,23.99L34.18,23.03L33.13,22.95L32.23,21.97L32.9,19.84L31.9,18.98L32.14,15.51L33.09,14.16L32.61,14.15L32.95,12.24L32.64,11.81L34.31,10.98L34.59,11.41L35.64,10.83L35.59,10.04L36.89,8.36L38,7.92L39.13,6.23L39.3,5.33L41.18,4.86L42.58,4.94L44.09,2.82L46.86,1.61L47.1,5.3L47.32,6.47L48.12,7.67L48.19,8.93L45.88,10.02L45.98,11.49L45.72,12.62L46.3,13.35L45.72,15.98L44.03,18.58L41.57,23.8L41.31,24.98L40.69,25.44ZM105.82,85.4L107.59,84.97L108.74,85.73L108.62,86.73L107.44,87.82L106.9,89.6L106.88,90.68L106.22,88.96L106.29,86.28ZM47.82,1.52L48.03,2.87L49.31,5.24L50.04,6.05L50.66,8.54L52.25,10.48L52.11,13.86L53.82,14.2L54.18,13.77L54.83,14.5L54.32,14.97L54.75,16L54.01,17.33L53.61,19.59L54.32,21.36L53.81,22.23L54.44,23.38L53.56,24.79L54.01,27.22L54.23,30.58L53.72,33.06L53.86,34.43L54.34,35.22L54.38,36.57L53.99,37.12L53.76,38.74L54.2,40.18L52.83,40.32L52.03,40.79L50.74,40.68L50.32,41.27L48.69,40.84L48.74,39.55L47.77,39.8L47.21,39.49L47.28,38.61L46.2,38.6L46.26,37.38L45.32,36.86L45.86,35.73L45.47,34.68L43.98,33.75L43.94,32.64L43.29,32.45L43.25,30.36L40.69,25.44L41.31,24.98L41.57,23.8L44.03,18.58L45.72,15.98L46.3,13.35L45.72,12.62L45.98,11.49L45.88,10.02L48.19,8.93L48.12,7.67L47.32,6.47L47.1,5.3L46.86,1.61ZM98.31,102.88L95.82,104.32L93.92,104.62L93.56,105.1L92.21,104.85L91.98,104.68L92.79,101.56L93.1,100.97L94.44,99.95L94.89,100.35L96.44,100.59L97.06,100.33L97.17,101.6ZM36.06,25.15L37.16,25.38L37.97,26.85L36.58,27.89L36.02,30.84L36.63,31.33L35.75,32.25L35.82,33.31L34.29,34.23L34.84,36.7L35.47,36.98L34.52,38.73L35,40.22L34.44,40.5L33.38,43.84L34.05,45.56L34.28,47.6L33.58,48.85L32.93,48.7L31.72,48.52L30.48,49.01L29.95,48.58L29.78,45.65L30.87,44.65L29.51,42.59L28.41,42.4L27.68,41.74L27.71,42.42L26.81,43.8L25.55,44.03L25.48,40.47L25.19,39.29L26.55,39.61L25.05,38.83L24.38,36.52L24.34,35.43L23.59,35.26L22.9,32.16L23.67,29.06L24.04,29.9L24.91,29.4L25.4,29.66L25.33,30.9L26.27,31.4L27.85,32.72L28.35,32.2L27.79,31.22L28.3,30.74L29.55,31.62L30.29,30.92L31.25,30.91L33.27,29.93L32.4,29.4L33.56,28.57L34.06,27.54L34.75,27.51L35.58,26.35ZM99.36,67.05L99.65,66.02L98.97,65.12L99.4,64.68L99.08,62.7L98.18,62.16L97.88,62.56L96.61,61.63L97.54,61.12L97.18,59.76L96.3,59.15L96.31,58.47L95.58,58.53L94.44,57.68L93.35,57.98L92.15,57.16L92,56.16L92.39,55.43L90.85,54.5L90.37,53.58L91.52,51.38L91.35,50.28L93.1,49.66L93.47,50.49L96.37,51.8L96.35,52.99L96.73,53.58L98.08,54.05L98.82,53.9L101.72,54.17L102.97,53.28L103.35,55.3L104.09,56.31L104.2,57.63L104.76,58.42L104.14,60.2L103.56,60.73L104.02,61.95L104.74,61.87L105.7,61.1L106.62,61.23L107.53,62.26L107.12,62.92L106.33,64.75L105.02,65.98L104.57,66.84L101.99,67.51L101.46,67.92L100.52,68.06ZM94.56,114.29L95.13,115.26L96.35,115.46L98.26,115.02L99.76,116.48L99.67,117.32L101.51,117.07L103.14,117.97L105.5,119.91L105.97,119.72L106.42,120.52L106.61,121.86L107.58,121.74L108.3,122.93L109.65,122.89L111.34,123.23L112.78,123.24L114.25,124.08L115.11,125.63L116.19,126.76L117.54,127.29L105.18,127.51L105.59,126.99L104.13,125.95L103.86,125.22L102.57,124.94L102.58,123.38L102.08,122.31L100.52,120.31L99.33,119.51L97.13,119.53L94.8,120.71L92.35,121.45L90.71,121.04L89.62,121.43L89.55,120.54L91.54,118.08L91.11,117.39L91.65,116.69L92.65,116.32L93.1,116.71L93.73,115.07ZM93.57,92.64L93.23,93.79L92.38,92.61L91.2,91.96L90.54,90.64L91.37,88.33L91.37,86.79L90.96,86.44L91.01,85.96L91.67,85.56L91.97,86.78L92.67,88.09L92.72,89.25L93.25,90.42L93.08,91.84ZM95.74,110.84L97.09,109.46L98.3,108.93L99.31,108.87L99.83,109.66L101.37,110.55L102.09,111.48L104.41,111.05L104.69,111.56L106.01,111.84L107.22,111.19L112.7,112.18L114.9,111.48L114.99,113.04L115.77,114.14L115.58,116.1L116.04,117.6L117.63,119.77L119.25,120.28L118.15,124.79L117.85,124.24L115.52,122.33L114.98,121.25L113.53,120.58L112.93,119.92L111.3,119.21L111.05,117.61L110.24,116.63L108.9,117.17L108.63,116.57L107.37,115.67L105.32,115.03L103.94,113.76L102.42,113.91L101.91,114.51L101.04,114.07L98.95,114.14L97.94,113.33L97.52,112.18L96.71,111.41L95.54,111.08ZM87.41,112.69L86.63,112.62L86.56,110.71L87.24,110.58L86.62,109.87L87.38,108.21L87.63,107.05L87.19,106.61L88.44,105.73L90.03,105.75L91.07,104.75L92.21,104.85L92.53,105.95L92.59,106.59L91.23,107.94L91.27,108.47L92.29,109.8L92.6,110.63L93.79,110.86L93.48,111.55L92.41,111.69L92.63,112.72L92.08,114.08L90.96,113.34L89.37,113.17L89.07,112.66ZM49.07,95.83L60.47,91.61L61.07,89.74L62.5,89.32L62.93,88.84L63.82,89.04L64.4,88.67L65.32,88.84L65.78,87.83L64.1,85L64.44,84.25L64.58,81.83L64.01,80.93L64.91,79.33L66.54,77.96L67.81,78.33L68.44,77.96L69.9,78.26L70.67,78.83L71.57,78.72L71.96,79.51L73.48,79.08L74.17,78.36L74.59,76.54L74.2,75.32L74.9,74.04L75.32,74.43L75.79,76.07L77.03,75.69L77.28,76.19L76.76,77.04L77.28,77.64L77.05,78.36L77.91,78.28L77.17,78.92L77.42,79.29L76.38,79.8L76.63,80.9L76.25,81.96L75.25,82.62L74.51,83.98L73.42,84.99L72.65,84.73L72.63,86.82L73.09,86.81L73.83,88.43L71.6,89.42L70.71,90.11L70.31,90.96L69.03,91.26L68.49,92.03L69.41,94.14L70.1,94.68L69.85,95.44L70.75,96.94L70.13,98.05L71.27,98.25L72.27,99.53L59.35,102.5L54.15,104.11L52.78,103.59L52,102.58L51.54,102.6L49.66,100.79L49.75,100.17L50.92,99.28L51.49,99.49L50.64,97.48L49.6,97.43L49.78,96.98ZM52.65,59.06L53.04,59.11L52.2,61.05L53.01,62.71L52.14,64.43L51.18,65.45L49.33,66.49L49.31,67.34L47.79,68.73L47.56,67.99L46.43,68.3L46.75,69.33L46.31,70.68L45.43,71.77L45.54,72.37L44.01,73.16L43.3,74.08L42.37,73.91L41.62,72.35L41.76,70.93L42.24,70.01L44.36,67.94L44.03,67.32L42.41,65.68L42.41,64.76L43.93,64.38L44.38,63.97L44.1,62.94L42.76,61.04L42.47,59.26L41.79,58.09L40.95,57.3L39.8,56.98L37.88,55.71L39.02,54.93L39.23,53.32L38.43,51.98L37.63,51.28L38.17,51.03L38.51,49.93L38.15,48.1L36.3,46.19L35.1,45.72L34,44.22L34.04,42.84L35.07,40.61L35,40.22L34.52,38.73L35.47,36.98L34.84,36.7L34.29,34.23L35.82,33.31L35.75,32.25L36.63,31.33L36.02,30.84L36.58,27.89L37.97,26.85L40.13,27.55L40.93,27.32L41.26,28.18L40.82,28.39L41.58,29.78L43.25,30.36L43.29,32.45L43.94,32.64L43.98,33.75L45.47,34.68L45.86,35.73L45.32,36.86L46.26,37.38L46.2,38.6L47.28,38.61L47.21,39.49L47.77,39.8L48.74,39.55L48.69,40.84L50.32,41.27L50.74,41.8L49.83,43.22L50.53,44.09L50.11,46.12L49.65,46.47L50.01,47.26L49.56,48L49.97,48.76L50.23,52.14L50.96,52.11L50.43,53.25L50.53,54.46L51.14,55.74L50.92,56.89L51.41,57.87ZM95.73,85.49L95.26,87.5L93.88,91.51L93.57,92.64L93.08,91.84L93.25,90.42L92.72,89.25L92.67,88.09L91.97,86.78L91.67,85.56L91.01,85.96L89.35,85.18L89.05,83.51L87.53,82.6L86.58,82.77L85.15,82.16L85.07,81.63L84.05,80.76L83.62,79.84L81.98,79.94L81.27,78.76L79.86,78.21L79.74,77.3L79.04,76.54L77.03,75.69L75.79,76.07L75.32,74.43L74.9,74.04L74.17,73.78L74.52,73.08L76.01,72.49L76.42,71.23L76.07,70.98L77.12,69.8L76.19,69.68L76.83,67.49L78.41,67.44L79.6,68.44L79,69.31L79.96,70.18L80.45,71.2L81.71,71.21L82.37,70.61L82.46,71.76L82.93,71.17L83.42,72.74L84.27,73.17L85.32,72.81L86.2,72.04L85.99,71.57L87.31,71.72L88.03,71.35L89.15,71.61L91.23,73.22L91.19,74.24L91.83,75.92L92.93,77L93.23,77.72L95.03,77.53L94.08,78.88L93.63,80.93L93.69,82.26L94.86,82.45L95.1,83.37L94.4,83.85ZM97.73,88.03L97.26,86.19L97.86,84.72L97.88,83.73L99.2,82.39L99.35,81.51L100.16,81.86L100.92,83.86L101.04,85.34L103.28,86.35L104.04,87.59L105.43,89.07L105.83,90.07L105.09,90.36L102.76,89.68L102.19,88.99L98.65,88.38ZM127.92,73.62L127.29,73.29L126.33,74.19L125.07,73.71L125.49,72.48L124.67,72.43L125.53,71.02L125.23,70.01L126.57,69.24L127.14,69.36L127.86,68.71L128.4,68.89L129.58,70.94L130.41,70.64L130.77,71.45L132.07,71.78L133.36,73.34L132.17,72.45L129.49,72.29L128.48,72.79ZM120.09,71.67L119.24,72.62L119.41,74.42L119.16,75.88L117.73,76.61L114.53,76.33L113.89,76.1L113.61,75.31L113.03,75.64L111.97,74.45L112.02,73.88L110.94,73.78L110.38,72.29L113.04,70.65L112.65,69.97L113.03,68.79L112.95,67.03L113.22,65.98L112.81,64.53L113.07,63.87L112.39,63.27L113.23,62.79L114.39,63.57L116.01,63.93L115.83,65.25L116.62,65.33L118.1,66.5L118.6,68.35L119.09,68.71L119.96,71.51ZM130.06,63.65L127.59,63.47L127.04,62.95L125.95,62.74L124.85,63.15L124.78,62.61L125.73,60.94L128.14,60.06L129.04,60.54L129.89,60.06L131.06,60.21L131.6,59.6L133.09,59.18L134.26,60.83L134.76,62.51L135.3,63.35L132.86,65.03L131.5,65.4L130.69,63.67ZM124.67,72.43L124.04,74.18L122.86,73.02L122.51,73.55L121.76,73.39L121.74,72.45L120.75,71.59L120.09,71.67L119.96,71.51L120.47,70.21L121.77,69.22L121.86,67.8L123.08,68.49L123.5,70.36L125.23,70.01L125.53,71.02ZM91.96,31.95L92.17,33.56L92.59,34.38L92.01,34.85L92.03,35.9L92.55,36.58L92.46,38.59L93.11,40.47L92.97,40.81L91.04,40.55L90.55,40.25L89.8,40.88L88.55,40.87L87.39,42.99L86.44,43.21L84.18,42.87L82.68,42.2L81.26,40.99L78.93,39.88L77.46,39.4L76.65,37.33L75.21,35.95L72.21,34.84L70.8,32.35L71.7,30.86L71.68,29.66L72.25,29.59L72.35,28.35L71.88,27.38L70.43,25.56L70.27,23.9L68.8,22.13L68.04,21.77L66.34,18.03L64.98,16.62L64.71,15.87L63.89,15.48L64.18,14.28L63.47,13.47L63.48,12.75L61.39,12.17L61.6,11.02L62.42,10.44L61.43,8.27L61.07,5.24L59.99,4.09L60.1,2.42L61.09,2.19L61.96,2.86L62.62,4.43L63.52,4.08L64.9,2.15L65.86,2.41L68.79,1.37L69.3,2.63L70.63,3.58L71.55,2.62L72.35,5.52L72.4,8.62L71.72,10.69L71.75,12.45L72.21,14.06L72.22,16.83L73.14,17.75L73.68,19.68L74.35,20.48L74.33,22.54L75.74,25.72L76.54,26.19L76.58,27.99L76.23,29.05L76.49,30.5L77.3,31.41L78.18,31.3L79.44,31.81L80.71,33.16L83.62,34.05L85.81,32.83L88.03,32.52L89.09,31.91L91.69,32.14ZM84.35,98.31L84.73,96.89L84.41,95.8L84.3,94.07L83.15,94.28L81.9,93.96L81.56,92.17L79.87,90.24L78.5,89.45L77.33,89.7L77.36,86.89L76.04,86.87L75.62,85.84L76.21,85.73L76.23,84.62L76.87,82.21L76.63,80.9L76.38,79.8L77.42,79.29L77.17,78.92L77.91,78.28L77.05,78.36L77.28,77.64L76.76,77.04L77.28,76.19L77.03,75.69L79.04,76.54L79.74,77.3L79.86,78.21L81.27,78.76L81.98,79.94L83.62,79.84L84.05,80.76L85.07,81.63L85.15,82.16L86.58,82.77L87.53,82.6L89.05,83.51L89.35,85.18L91.01,85.96L90.96,86.44L90.5,87.34L89.16,88.26L88.71,89.03L88.25,90.91L88.36,93.05L88.09,94.78L87.65,95.6L86.43,96.78L85.76,98.6L84.79,98.73ZM91.07,104.75L90.47,103.77L88.9,104.15L88.04,104.02L87.26,103.31L86.52,103.56L86.04,104.8L85.37,105.31L83.95,104.31L83.59,103.37L81.74,101.93L82.34,101.53L81.83,100.55L82.58,100.48L84.09,99.51L84.35,98.31L84.79,98.73L85.76,98.6L85.97,99.94L87.13,100.85L89.22,102.1L91.36,101.08L93.1,100.97L92.79,101.56L91.98,104.68L92.21,104.85ZM110.38,72.29L109.93,72.18L109.15,73.36L108.31,72.62L105.2,71.62L104.16,70.68L104.63,69.78L104.25,68.14L104.9,67.26L104.57,66.84L105.02,65.98L106.33,64.75L107.12,62.92L108.07,62.86L108.64,62.12L112.39,63.27L113.07,63.87L112.81,64.53L113.22,65.98L112.95,67.03L113.03,68.79L112.65,69.97L113.04,70.65ZM106.7,91.85L106.89,92.78L108.48,95.4L109.36,95.57L110.32,96.95L109.95,99.18L110.18,100.16L111.45,101.2L110.91,101.64L111.04,102.78L110.71,103.66L110.77,105L109.41,106.79L109.15,107.4L108.06,107.59L107.5,106.07L106.16,104.05L106.05,102.8L103.81,102.74L102.57,101.02L102.87,99.41L104.44,97.37L106.13,96.55L106.51,95.97L106.21,93.7L105.61,92.49ZM51.18,65.45L51.24,68.85L50.48,70.39L50.8,71.63L50.85,73.26L50.45,75.33L50.71,76.62L50.5,77.89L50.85,80.17L50.66,81.4L49.41,81.85L48.98,81.05L47.35,80.12L47.09,78.81L45.91,78.67L45.56,79L44.69,78.26L43.49,79.22L40.97,79.76L39.62,80.61L38.88,80.39L37.45,81.1L37.59,82.02L36.94,82.45L36.89,83.3L35.5,92.67L35.21,91.23L33.51,90.18L33.34,89.24L30.65,89.33L30.31,89.59L28.55,88.86L28.23,88.21L26.87,87.2L27.01,86.45L26.02,84.92L24.62,83.74L23.53,83.44L23.46,82.72L22.45,81.51L21.76,81.57L20.8,80.92L19.97,79.88L18.81,80.04L18.76,78.99L18.06,79.09L17.6,77.85L16.58,77.51L16.27,76.46L15.38,76.08L16.6,75.4L17.32,74.31L16.34,75.05L15.1,74.71L14.52,74.91L13.17,73.46L12.97,71.96L13.39,71.76L12.88,70.38L12.24,70.1L11.14,70.71L10.44,69.58L9.35,69.46L8.05,67.6L7.25,67.27L5.98,67.31L4.59,65.11L5.06,64.94L4.67,63.58L6.61,62.51L7.76,61.58L9.39,58.86L11.98,56.47L13.9,54.22L14.2,54.33L15.82,53.31L16.9,52.96L18.43,53.04L18.44,53.59L17.53,53.83L16.62,55.49L17.74,54.37L18.31,54.75L19.74,53.75L19.86,53.3L20.33,53.62L21.79,52.89L22.22,53.3L21.33,54.22L20.28,54.34L19.99,53.55L19.64,54.54L18.71,54.6L18.69,55.36L20.43,56.03L19.97,55.26L21.23,54.84L22.1,57.08L22.09,57.61L21.25,58.15L22.06,58.52L22.52,57.99L22.64,55.18L23.73,56.65L24.15,55.6L24.95,57.32L25.24,57.16L24.45,55.91L24.97,55.45L26.18,55.66L26.53,56.32L26.72,55.16L27.64,55.32L29.79,55.12L30.25,56.53L31.34,56.38L31.86,57.82L32.22,57.2L32.13,55.26L33.47,54.64L33.03,54.44L32.99,52.47L33.72,51.31L33.34,51.21L32.93,48.7L33.58,48.85L34.28,47.6L34.05,45.56L33.38,43.84L34.44,40.5L35,40.22L35.07,40.61L34.04,42.84L34,44.22L35.1,45.72L36.3,46.19L38.15,48.1L38.51,49.93L38.17,51.03L37.63,51.28L38.43,51.98L39.23,53.32L39.02,54.93L37.88,55.71L39.8,56.98L40.95,57.3L41.79,58.09L42.47,59.26L42.76,61.04L44.1,62.94L44.38,63.97L43.93,64.38L42.41,64.76L42.41,65.68L44.03,67.32L44.36,67.94L42.24,70.01L41.76,70.93L41.62,72.35L42.37,73.91L43.3,74.08L44.01,73.16L45.54,72.37L45.43,71.77L46.31,70.68L46.75,69.33L46.43,68.3L47.56,67.99L47.79,68.73L49.31,67.34L49.33,66.49ZM32.14,15.51L31.9,18.98L32.9,19.84L32.23,21.97L33.13,22.95L34.18,23.03L34.49,23.99L35.22,24.6L36.1,24.56L36.06,25.15L35.58,26.35L34.75,27.51L34.06,27.54L33.56,28.57L32.4,29.4L33.27,29.93L31.25,30.91L30.29,30.92L29.55,31.62L28.3,30.74L27.79,31.22L28.35,32.2L27.85,32.72L26.27,31.4L25.33,30.9L25.4,29.66L24.91,29.4L24.04,29.9L23.67,29.06L24.8,27.12L25.36,27.42L26.08,26.16L26.15,24.56L28.39,22.19L28,21.65L28.39,19.27L29.91,17.36L31.52,14.79ZM93.23,93.79L92.83,95.78L92.48,96L92.81,97.37L93.79,98.63L94.44,99.95L93.1,100.97L91.36,101.08L89.22,102.1L87.13,100.85L85.97,99.94L85.76,98.6L86.43,96.78L87.65,95.6L88.09,94.78L88.36,93.05L88.25,90.91L88.71,89.03L89.16,88.26L90.5,87.34L90.96,86.44L91.37,86.79L91.37,88.33L90.54,90.64L91.2,91.96L92.38,92.61ZM99.39,94.69L100.79,94.51L101.76,94.89L102.9,94.49L105.61,92.49L106.21,93.7L106.51,95.97L106.13,96.55L104.44,97.37L102.87,99.41L102.57,101.02L101.37,100.97L100.83,99.21L99.64,98.7L99.46,97.13L99.78,96.34Z" fill="#B3CFC0" stroke="#007139" stroke-width="0.5"/></svg>