<svg xmlns="http://www.w3.org/2000/svg" width="144" height="144" viewBox="0 0 144 144"><path d="M109.9,10.7L112.99,14.86L114.56,13.1L115.66,14.62L115.22,21.83L117.29,23.3L115.47,26.19L117.51,28.62L120.19,28.65L120.56,35.38L115.07,35.8L109.98,41.9L109.05,46.71L109.72,49.46L104.51,50.12L104.05,53.93L99.63,56.15L95.73,56.35L95.76,58.45L97.85,60.84L96.25,67.74L98.41,69.95L97.81,72.41L101.13,76.25L100.83,79.55L97.37,81.87L97.9,83.98L96.1,84.89L95.18,91.09L93.8,91L94.24,94.91L85.09,94.15L81.13,95.75L77.36,105.67L72.6,109.85L72.19,111.44L75.04,117.01L72.91,118.24L73.86,120.96L66.85,121.99L64.62,119.62L63.37,120.33L60.75,113.69L57.66,112.27L54.75,112.46L51.75,109.96L49.47,114.86L46.11,118.27L47.42,129.73L46.27,132.09L31.14,144L38.28,136.04L40.21,129.74L44.63,120.8L44.18,118.17L48.29,106.82L50.18,105.44L53.93,106.97L53.44,102.55L50.89,98.48L29.11,97.96L23.44,95.72L28.97,89.86L29.99,85.15L34.88,82.1L34.08,79.06L35.31,77.72L34.24,74.9L37.31,67.88L36.43,66.97L37.92,60.95L38.03,52.29L39.47,48.95L43.33,46.18L43.55,43.35L46.99,38.49L51.34,38.26L52.12,45.07L49.32,48.32L57.51,45.18L60.01,42.67L56.01,36.67L55.61,30.98L57.98,29.92L59.57,25.6L63.38,21.87L65.63,22.82L65.89,18.19L64.37,16.51L67.5,14.1L69.75,11L60.63,9.8L63.8,5.02L69.66,3.64L72.95,5.27L76.82,5.14L79.16,6.25L87.31,6.15L89.19,5.16L91.11,6.77L94.32,5.5L95.65,6.66L102.37,4.29L103.63,1.52L106.33,0L109.41,0.38L107.8,8.69Z" fill="#B3CFC0" stroke="#007139" stroke-width="0.5"/></svg>