<svg xmlns="http://www.w3.org/2000/svg" width="144" height="144" viewBox="0 0 144 144"><path d="M142.35,35.64L144,38.63L137.75,40.45L131.79,47.35L131.57,57.42L127.08,57.44L127.07,80.3L124.34,79.95L117.44,72.6L117.95,68.61L108.69,76.7L107.04,82.29L108.01,90.52L104.59,101.78L100.41,107.13L97.68,115.23L87.39,115.73L77.68,113.35L74.01,115.8L68.46,112.21L62.36,119.89L49.45,122.11L50.71,130.87L43.17,126.61L43.26,121.96L31.92,120.61L29.8,114.3L18.51,115.18L12.24,112.71L3.56,113.33L0.11,115.71L0,42.48L5.11,45.72L10.11,40.93L8.1,32.75L12.99,30.49L14.19,26.54L9.14,20.78L13.32,16.6L24.44,13.13L24.12,22.48L29.01,23.04L32.28,19.01L42.96,14.16L45.96,23.87L45.62,30.01L48.93,29.01L50.13,22.29L59.29,21.23L62.72,28.29L67.28,24.45L64.35,15.86L69.65,14.37L72,20.68L69.3,31.01L73.07,32.62L74.9,24.15L78.28,22.76L85.4,25.18L82.96,30.36L89.48,31.81L89.67,21.12L98.43,21.13L95.35,32.9L101.08,31.53L103.8,26.66L101.7,23.28L107.22,22.37L112.94,29.28L121.93,22.47L125.55,22.29L132.08,27.26L134.35,38.43L136.41,35.1Z" fill="#B3CFC0" stroke="#007139" stroke-width="0.5"/></svg>