<svg xmlns="http://www.w3.org/2000/svg" width="144" height="144" viewBox="0 0 144 144"><path d="M72.82,111.9L72.25,111.94L71.37,111.69L70.95,111.73L70.91,112.5L70.55,112.76L69.94,112.47L69.56,112.53L68.75,111.98L68.84,111.66L67.99,111.52L66.84,111.69L66.93,112.01L66.53,112.34L66.57,112.6L66.08,112.7L64.77,113.03L64.69,112.47L64.35,111.81L64.15,111.76L63.83,111.29L63.99,111.1L63.81,109.96L63.51,109.74L63.51,109.07L63.58,107.15L63.17,106.42L63.12,105.65L63.34,105.41L63.21,104.84L63.34,104.4L63.95,104.33L64.51,104.47L65.22,104.32L65.78,105.24L65.91,105.99L66.63,106.65L67.72,106.8L68.14,107.08L69.46,106.83L70.93,107.41L71.27,107.84L71.61,107.32L72.14,107.5L72.51,108.35L72.35,108.58L73.34,110.02L72.81,110.21L72.57,110.86L72.77,111.31ZM75.68,123.92L76.23,124.02L77.11,124.75L78.41,124.59L78.74,124.85L79.49,124.82L80.11,125.22L81.09,125.08L81.43,125.75L81.79,125.9L81.1,126.11L80.75,126.84L80.07,127.65L79.96,128.36L79.6,128.91L78.61,129.36L78.34,129.37L77.63,129.81L77.12,129.94L76.49,130.37L75.93,130.43L75.39,131.13L75.34,132.47L74.75,132.65L74.07,133.05L73.79,133.45L73.08,133.79L72.64,133.24L71.97,132.95L71.85,133.11L71.35,132.5L70.7,132.65L70.37,131.94L70.38,131.47L69.88,131.29L69.84,130.94L70.17,129.7L70.23,128.58L70.06,127.89L70.14,127.22L70.51,127.08L70.54,126.62L70.81,126L70.79,125.65L71.35,125.28L72.04,125.55L72.75,125.23L72.95,124.9L72.66,124.53L72.71,123.92L73.18,123.56L73.26,123.1L72.96,122.56L73.17,122.15L73.52,122.1L74.27,122.57L74.4,123.06L74.99,123.89ZM47.93,88.46L48.46,88.75L48.74,89.15L49.26,89.38L49.38,89.83L49.84,90.51L50.14,91.48L49.81,92.14L49.89,92.55L50.33,92.6L51.05,92.96L51.19,93.48L51.15,94L50.82,95.16L50.95,95.47L50.55,96.33L50.44,97.41L50.1,97.87L50.04,98.76L49.91,98.87L49.13,98.78L48.74,98.65L48.43,97.93L48.34,97.33L47.72,97.38L47.33,96.8L46.78,96.81L46.07,95.98L45.09,95.54L44.81,95.19L44.8,94.25L45.08,93.9L44.88,93.46L44.5,93.36L44.54,92.5L43.91,92.21L44.23,91.58L44.74,91.36L45.39,91.29L45.8,90.99L46,90.44L46.71,90.42L47.23,90.16L47.71,89.58ZM93.41,103.83L93.4,104.27L93.01,104.22L92.26,104.75L91.5,104.74L90.94,105.09L91.02,105.36L90.21,105.45L90.16,105.83L89.47,106.02L89.12,106.4L88.51,106.33L88.24,106.56L88.05,107.26L87.65,106.77L87.32,105.87L86.83,106.39L86.8,106.89L86.27,107.57L85.79,107.47L85.81,106.24L86.18,106.46L86.44,106.12L86.28,105.69L86.52,105.2L86.29,104.41L86.53,104.1L87.22,103.9L86.76,103L86.87,102.72L87.93,102.97L88.26,103.19L89.21,103.48L90.98,102.55L91.46,102.48L92.1,103.05L92.05,103.18L92.64,103.78ZM65.15,119.9L64.77,119.99L64.38,120.43L63.93,120.63L63.46,120.61L62.33,119.62L62.15,119.77L61.15,119.84L61.65,118.77L61.92,118.42L62.32,118.44L62.31,117.19L61.97,116.98L62.96,116.43L63.58,116.81L63.9,116.32L64.87,116.18L65.1,116.6L65.1,117.56L64.57,117.91L65,118.16L65.57,119.19ZM96.43,66.23L96.19,66.8L96.37,67.24L96.33,67.74L96.62,68.57L97.59,68.65L98.43,69.64L98.84,70.87L98.81,71.22L99.11,71.53L98.93,72.4L99.34,72.63L99.63,74.31L99.02,75.23L98.73,76.29L98.86,76.98L99.47,77.5L99.56,78.57L98.94,79.57L98.88,80.38L98.3,80.42L98.09,81.29L97.81,81.41L98.01,81.79L97.85,82.11L98.28,82.35L98.27,82.77L97.65,83.28L98.16,83.82L98.09,84.47L97.83,84.91L97.41,85.1L97.02,85.58L96.61,85.54L96.59,85.85L96.97,86.22L96.79,87.43L96.54,87.82L96.02,88.11L96.03,88.71L95.52,88.58L95.26,88.11L94.47,87.65L94.2,87.1L93.38,86.65L92.92,86.07L92.22,85.79L91.77,85.12L91.11,85.73L91.16,86.24L90.86,86.72L91.34,87.41L91.51,88.07L91.95,88.03L91.78,88.7L90.18,87.87L88.97,87.44L88.88,87.21L88.32,87.3L87.82,87.27L87.08,86.88L86.9,86.46L85.7,85.5L85.37,84.61L85.53,83.88L85.41,83.36L85.83,82.17L86.02,81.77L86.88,81.49L87.21,80.69L87.95,80.41L89.34,79.67L90.21,78.32L90.21,77.86L90.49,77.35L90.44,75.61L91.23,74.85L91.42,74.4L91.43,73.7L91.82,73.03L92,72.38L92.56,71.86L93.1,70.63L94.42,69.5L94.56,69L94.86,68.72L95.11,68.12L95.52,67.83L95.69,67.36L95.37,66.45L95.7,66.04ZM58.28,131.1L58.69,131.94L58.61,132.31L59.13,133.27L59.09,133.66L59.38,134.17L59.24,134.57L58.73,134.78L58.58,135.54L58.42,135.37L56.81,134.92L56.5,135.14L56.52,136.54L56.39,136.96L56.75,137.47L56.82,139.35L56.48,139.44L56.24,140.18L56.33,140.59L55.8,141.24L55.4,141.4L54.71,140.91L54.4,140.29L53.44,140.24L52.23,139.83L52.01,139.07L51.58,138.91L51.42,138.12L51.18,137.97L51.26,137.25L51.05,136.69L51.43,136.48L51.22,136L51.32,135.58L51.05,135.19L50.61,134.98L50.04,134.32L48.79,133.68L48.48,133.25L48.81,132.84L50.19,133.58L51.4,133.54L51.91,133.31L51.74,132.75L53.07,132.17L53.4,132.4L54.07,132.29L54.5,132.73L54.63,132.49L55.38,132.44L55.63,132.02L56.33,131.86L56.54,131.58L55.97,131.26L55.96,130.07L56.27,129.52L56.74,129.16L56.99,130.09L57.94,130.69ZM64.15,111.76L64.35,111.81L64.69,112.47L64.77,113.03L65.06,114.9L64.8,115.33L65.03,115.95L64.87,116.18L63.9,116.32L63.58,116.81L62.96,116.43L61.97,116.98L61.82,116.04L61.35,115.59L61.33,114.78L61.11,114.7L61.17,114.21L61.63,113.8L61.96,113.77L62.54,113.26L63.03,113.62L63.78,113.3L64,112.9ZM82.83,81.26L82.78,82L82.3,82.41L82.12,82.93L82.2,84.55L81.84,84.6L81.76,85.04L81.44,85.29L81.03,84.95L80.94,85.64L80.43,85.64L80.19,86.15L79.78,86.49L79.34,86.58L78.8,86.28L78.18,86.67L77.43,86.93L77.2,87.65L75.86,87.58L75.22,87.15L74.8,87.44L73.97,87.33L73.59,87.67L72.98,87.9L72.62,87.69L72.84,87.17L72.55,86.57L72.59,86.16L73.27,85.57L73.48,84.83L73.35,84.41L73.91,83.94L74.29,84.06L74.51,83.27L74.89,82.76L75.46,82.81L76.07,82.14L76.48,82.09L76.73,82.38L77.34,82.33L77.76,81.76L78.05,81.77L78.17,81.11L78.68,81.13L78.78,80.67L79.23,80.52L80.04,80.14L80.38,79.67L80.75,79.78L81.74,79.46L81.92,79.91L82.5,80.14L82.8,80.7ZM96.43,66.23L95.7,66.04L95.37,66.45L95.69,67.36L95.52,67.83L95.11,68.12L94.86,68.72L94.56,69L94.42,69.5L93.1,70.63L92.56,71.86L92,72.38L91.82,73.03L91.43,73.7L91.42,74.4L91.23,74.85L90.44,75.61L90.49,77.35L90.21,77.86L90.21,78.32L89.34,79.67L87.95,80.41L87.21,80.69L86.88,81.49L86.02,81.77L85.83,82.17L85.3,81.6L84.63,81.61L83.59,81.04L83.7,80.79L83.54,78.84L83.39,77.74L83.78,77.07L83.57,76.68L82.97,76.85L82.32,76.31L82.2,75.08L82.39,74.18L82.01,73.23L80.91,72.81L80.42,72.11L79.85,71.57L79.7,70.76L79.83,70.03L79.74,69.37L80.38,68.76L80.62,68.67L80.9,68.02L81.46,67.96L81.92,68.27L82.44,67.77L83.92,67.47L84.18,67.76L84.97,66.94L84.92,66.33L85.12,65.89L85.08,65.43L85.3,64.99L85.66,64.78L85.74,64.3L86.03,64.06L86.02,63.39L86.15,62.88L86.54,62.48L86.93,62.57L88.02,62.43L88.22,61.94L88.68,61.92L89.81,61.47L90.3,60.8L90.96,60.54L91.75,60.69L91.61,61.17L92.24,61.91L92.89,62.24L93.11,61.8L93.47,62.06L94.48,61.5L95.01,60.71L95.22,61.05L95.93,61.02L96.1,60.47L96.69,59.48L96.9,59.99L96.79,60.23L97.11,61.25L97.33,61.35L97.27,62.41L96.69,63.19L97.26,63.89L97.16,64.75L96.76,65.12L96.78,65.99ZM49.91,98.87L50.04,98.76L50.1,97.87L50.44,97.41L50.55,96.33L50.95,95.47L50.82,95.16L51.15,94L51.19,93.48L51.98,93.77L52.6,93.72L53.36,94.12L54.4,93.95L54.8,92.88L55.12,92.64L55.45,92.81L55.83,93.4L55.87,93.85L56.2,93.76L56.47,93L57.44,92.32L57.61,91.78L57.94,91.47L58.42,91.52L58.27,92.04L58.42,92.81L58.85,93.15L59.12,93.5L59.39,94.73L59.86,95.45L59.91,96.31L59.73,97.45L59.54,98.44L58.92,98.59L58.95,99.37L58.71,100.31L58.86,100.83L58.79,101.46L59.03,101.67L58.98,102.78L58.51,103.32L57.99,103.14L57.72,103.3L57.27,102.79L56.2,102.7L55.61,102.98L55.45,103.36L54.83,102.71L53.92,102.32L54,101.39L53.86,100.78L53.02,100.59L52.86,100.15L52.84,99.43L52.08,99.56L51.87,99.28L51.29,99.14L50.92,99.43L50.22,99.45L49.93,99.28ZM55.45,103.36L55.61,102.98L56.2,102.7L57.27,102.79L57.72,103.3L57.99,103.14L58.51,103.32L57.99,103.9L58.01,104.37L57.71,104.56L57.91,105.17L57.42,106.15L58.07,106.7L57.84,107.54L58.4,108.1L58.01,108.67L58.19,109.07L58.04,109.43L57.62,109.47L57.5,109.58L56.96,109.37L56.67,109.67L55.51,109.98L55.12,110.71L54.67,110.86L53.12,110.14L52.95,109.84L52.37,109.97L52.39,109.56L51.6,108.8L51.35,108L51.69,107.29L51.6,107.04L51.95,106.65L52.01,105.5L52.77,105.44L53.24,105.13L53.89,105.45L54.58,105.1L54.72,104.66L55.21,104.25L55.17,103.91ZM32.32,41.95L31.66,41.46L31.23,41.79L30.24,41.47L30.15,42.19L30.29,42.27L29.99,43L30.14,43.37L29.63,44.32L29.6,44.84L28.97,45.3L28.8,46.07L28.37,46.14L28.02,45.89L26.84,45.56L25.91,45.4L25.57,44.69L24.8,44.82L24.4,45.37L23.35,44.88L22.8,44.38L22.38,44.23L22.39,43.83L22.12,43.19L21.77,43.13L21.6,42.66L20.72,41.7L20.39,41.56L20.64,40.52L21.03,40.43L20.92,40.01L21.69,40.08L23.08,39.64L23.4,39.38L24.3,40.09L25.11,39.71L25.66,39.71L26.21,39.09L26.47,39.21L26.97,38.74L27.29,39.03L27.65,38.61L28.39,38.43L28.72,38.53L29.14,38.09L29.47,38.05L33.95,33.48L33.95,34.09L33.76,34.2L33.79,35.04L34.05,35.29L33.86,35.75L34.46,36.1L34.28,37.27L34.34,38.43L34.03,38.6L34.19,39.58L34.11,40.21L33.63,40.34L33.1,40.97L32.93,41.59ZM40.98,11.69L40.09,11.87L39.82,11.59L39.31,12.75L38.88,12.87L38.27,13.81L38.23,14.45L38.82,14.75L38.35,15.15L38.54,15.35L38.45,15.84L38.63,16.16L38.02,17.23L37.93,17.86L37.54,18.03L36.93,17.83L36.42,17.4L36.25,17.6L35.09,17.56L34.87,17.17L35.22,16.86L34.73,16.62L34.46,17.14L33.74,17.79L33.6,17.74L32.93,17.57L32.74,17.88L31.84,18.35L31.81,17.81L31.29,17.19L31.62,16.94L31.35,16.39L31.66,15.83L31.21,15.45L30.69,15.28L30.91,14.95L29.77,14.12L29.38,13.45L28.53,13.19L27.92,12.22L28.14,10.98L28.56,11.33L28.95,11.31L29.85,10.2L30.09,10.12L30.75,9.02L31.24,8.83L31.2,8.41L31.44,8.15L31.26,7.53L31.5,7.54L31.87,8.28L32.28,8.12L32.46,7.72L32.87,7.72L33.02,6.93L33.75,6.11L33.49,5.64L33.05,5.69L32.31,5.42L32,4.69L31.54,4.45L31.94,3.93L32.11,3.28L31.41,2.32L31.67,2L33.29,1.17L34.19,0.49L34.42,0L35.76,3.34L35.42,3.78L35,3.95L34.17,4.98L34.32,5.22L35,5.35L36.31,6.41L36.32,6.67L36.81,7.57L37.25,9.81L38.36,9.12L39.88,9.42L39.84,9.61L40.52,9.84L40.42,10.52L41.12,10.94ZM97.82,130.4L97.53,130.69L95.77,130.89L94.85,131.48L94.07,131.68L93.16,131.66L93.2,132.08L92.85,132.24L92.52,133.02L91.68,133.36L90.86,133.94L90.22,133.72L89.99,133.88L89.18,133.44L88.69,133.84L87.48,133.69L87.19,134.21L86.65,134.13L86.22,134.53L85.87,134.38L85.46,134.51L84.86,134.04L84.62,134.07L83.43,133.34L83.12,133.3L85.31,131.94L84.71,131.75L84.51,132.12L84.23,132.09L83.63,131.52L82.72,131.09L83.41,130.87L83.94,130.98L85.24,130.83L86.05,130.64L86.43,130.41L87.03,130.33L87.37,129.77L88.79,129.85L88.95,130.15L89.65,130.4L90.52,130.31L91,130.56L92.66,130.66L92.85,130.5L93.9,131.06L95.14,130.46L95.21,130.07L96.1,130.12L96.53,129.94L97.03,130.01ZM61.96,113.77L61.63,113.8L61.17,114.21L60.02,114.86L59.63,115.52L58.92,115.48L58.59,115.68L57.52,115.7L57.52,115.02L57.95,114.28L58.06,112.93L57.72,111.79L57.96,111.13L57.85,110.55L57.45,110.53L57.34,109.97L57.5,109.58L57.62,109.47L58.03,110.01L58.56,110.35L59.09,110.49L59.53,111.18L60.1,111.46L60.55,112.19L61.36,112.41L61.82,112.27L62.22,112.76L61.91,113.27ZM81.98,98.71L82.59,98.76L82.8,99.06L83.37,99.19L83.85,99.54L83.77,99.92L83.22,100.11L82.87,101.22L82.78,101.69L81.86,102.23L80.94,102.91L80.98,103.21L80.35,103.05L80.06,103.26L80.19,103.54L79.65,103.77L78.96,103.25L78.57,103.32L77.59,103.97L77.25,104.35L76.16,104.66L76.13,104.13L75.79,103.36L75.54,103.42L75.41,103.02L74.82,102.45L74.32,101.73L75.56,101.45L76.49,101.47L76.75,101.29L76.76,100.87L77.29,100.81L77.66,100.51L77.99,99.56L78.78,99.04L79.21,99.02L79.5,98.51L80.35,98.79L80.93,98.79L81.28,99.43L81.85,99.38ZM69.56,97.84L68.8,98.2L68.8,98.47L68.1,98.93L67.59,98.49L67.62,98.75L67.05,98.99L66.79,98.9L66.19,99.28L65.97,98.96L66.14,98.27L65.79,97.42L65.1,96.97L65.05,96.33L64.86,96.03L64.3,95.8L64.07,95.43L64.15,94.59L63.49,93.98L63.19,93.4L63.11,92.73L63.36,92.07L63.24,90.66L63.35,90.12L63.01,88.47L62.81,86.64L64.13,88.23L64.83,88.46L64.89,88.87L65.28,88.51L65.23,87.95L65.68,87.8L65.95,87.27L66.18,87.25L66.62,86.75L66.94,87.15L67.01,87.61L67.37,87.26L67.68,88L67.9,88.07L68.12,88.72L67.86,89.02L67.98,89.7L67.56,90.6L67.91,90.74L68.01,91.49L68.65,91.77L68.48,92.03L67.74,91.96L66.68,92.03L65.87,92.58L65.48,93.34L66.13,93.5L66.82,94.51L67.15,94.66L67.77,95.34L67.73,96.03L68.28,96.41L68.34,97.05L68.83,97.39L69.08,97.29ZM71.27,107.84L70.93,107.41L69.46,106.83L68.14,107.08L67.72,106.8L66.63,106.65L65.91,105.99L65.78,105.24L65.22,104.32L65.52,103.35L65.48,102.99L66.88,103.88L67.12,103.91L67.57,102.7L67.98,102.58L68.42,101.75L68.77,102.16L69.38,102.28L69.52,103.11L69.94,103.89L70.85,103.68L70.8,103.89L71.57,104.83L71.2,105.77L70.72,105.86ZM55.96,130.07L55.97,131.26L56.54,131.58L56.33,131.86L55.63,132.02L55.38,132.44L54.63,132.49L54.5,132.73L54.07,132.29L53.4,132.4L53.07,132.17L51.74,132.75L51.91,133.31L51.4,133.54L50.19,133.58L48.81,132.84L48.48,133.25L47.92,132.78L48.2,131.98L48.91,131.19L48.59,130.55L48.99,129.89L48.82,129.66L49.37,129.45L49.87,129.89L50.7,130.09L51.49,129.47L52.39,129.01L52.69,128.61L53.37,128.22L53.7,128.5L53.84,129.05L54.32,129.63L54.72,129.77L54.8,130.08L55.5,129.6ZM51.35,108L51.6,108.8L52.39,109.56L52.37,109.97L52.95,109.84L53.12,110.14L54.67,110.86L55.12,110.71L55.51,109.98L56.67,109.67L56.96,109.37L57.5,109.58L57.34,109.97L57.45,110.53L57.85,110.55L57.96,111.13L57.72,111.79L58.06,112.93L57.88,112.81L57.06,113.02L55.87,112.79L55.47,113.28L55.38,113.76L54.87,114.22L54.78,114.76L54.43,114.7L54.15,115.05L53.77,114.84L52.89,115.53L52.93,116.03L52.55,116.42L51.67,116.58L51.2,116.11L51.31,115.73L51.04,115.18L50.74,114.02L50.83,112.78L50.21,112.43L50.28,112.15L49.87,111.67L50.11,111.07L49.96,110.6L49.58,110.39L49.54,108.99L50.41,108.81L50.65,108.43ZM53.37,128.22L52.69,128.61L52.39,129.01L51.49,129.47L50.7,130.09L49.87,129.89L49.37,129.45L48.82,129.66L48.18,129.55L48.56,128.93L48.03,128.53L48.15,127.5L47.42,126.86L47.43,126.08L47.9,125.42L48.12,124.81L48.45,124.51L49,124.58L49.19,124.2L49.19,123.49L49.01,122.94L49.29,122.69L49.91,122.81L50.26,123.25L50.59,123.26L51.02,123.83L51.23,123.56L51.87,123.5L52.61,123.96L53.02,123.84L53.59,123.37L53.94,123.43L53.9,124.05L54.16,125.21L54.63,125.57L55.06,125.53L55.03,126.17L55.32,126.46L55.6,126.78L55.39,127.57L54,127.72ZM73.38,76.16L72.2,76.24L72.39,76.66L72,77.97L71.43,78.14L70.72,78.62L70.49,78.37L69.91,78.59L70.05,78.15L69.71,77.95L69.78,77.54L69.29,77.24L68.76,77.34L68.32,76.62L68.27,75.77L67.99,75.5L67.69,75.88L66.89,76.41L66.73,76.72L65.62,77.06L65.18,76.43L65.15,75.94L64.64,75.59L64.44,74.72L64.96,74.36L65.31,73.57L65.45,72.71L65.8,72.38L66.47,72.42L66.78,72.05L67.54,71.54L67.87,70.78L69.28,69.95L70.93,69.6L71.41,68.89L71.84,68.61L73.03,68.95L74.5,67.84L74.72,67.75L74.62,68.31L73.66,69.19L73.48,69.61L73.53,70.75L73.31,70.9L72.97,72.06L72.3,72.69L72.14,73.67L72.49,74.39L72.55,75.68ZM58.42,91.52L57.94,91.47L57.61,91.78L57.44,92.32L56.47,93L56.18,92.13L56.25,91.73L55.21,91.61L54.65,90.8L54.44,90.88L53.97,90.25L53.5,90.11L53.2,89.65L52.97,89.46L52.68,88.5L52.22,88.17L52.31,87.5L52.1,86.37L52.33,85.64L52.95,85.4L53.34,84.78L52.84,83.74L52.91,82.92L52.84,81.75L53.16,81.58L53.49,80.81L53.28,80.31L53.41,79.64L53.72,79.49L54.06,79.78L54.93,79.72L55.06,79.33L55.44,79.36L55.3,80L55.35,80.59L55.59,81.25L56.19,81.67L56.61,81.62L56.92,82.37L56.93,82.88L57.92,83.57L58.03,84.37L57.14,85.21L57.07,85.57L57.49,86.13L56.84,87.22L57.25,87.69L57.37,88.18L57.87,88.83L57.18,89.31L57.28,89.94L57.81,90.24ZM93.11,61.8L92.89,62.24L92.24,61.91L91.61,61.17L91.75,60.69L90.96,60.54L90.3,60.8L89.81,61.47L88.68,61.92L88.22,61.94L88.02,62.43L86.93,62.57L86.54,62.48L86.15,62.88L86.02,63.39L85.73,63.59L85.6,63.28L85.17,63.14L85.3,62.78L84.83,62.02L84.2,61.86L83.97,61.59L84.2,61.28L84.2,60.47L83.88,59.6L83.03,59.45L82.51,59.18L82.53,58.74L82.12,58.27L82.4,57.6L82,57.11L82.19,56.7L81.48,56.12L81.53,55.97L79.13,55.89L78.98,55.38L78.15,54.55L77.95,53.94L77.73,53.9L77.73,52.47L77.41,52.34L76.99,51.38L76.28,51.21L75.57,51.24L75.4,51.75L74.71,51.8L74.72,50.31L74.32,49.7L74.29,48.93L74.58,48.45L74.43,48.2L74.38,47.36L74.04,47.08L73.59,47.37L72.97,47.29L72.8,47.54L73.01,47.1L73.04,46.31L73.24,45.83L73.79,45.47L74.1,44.74L73.59,44.09L73.56,43.79L73.9,43.46L75.17,44.13L75.55,43.89L75.66,43.25L76.1,43.13L76.02,42.65L76.69,42.25L77.3,42.24L78.21,42L78.66,41.48L78.63,41.04L78.99,40.42L79,39.83L79.18,39.64L79.35,40.48L79.85,40.46L80.32,40.15L80.74,40.63L80.71,41.05L82.03,41.28L82.26,41.13L81.94,40.53L82.34,40.49L82.38,39.92L82.75,39.91L83.17,39.57L83.45,38.48L83.95,38.83L84.44,38.3L84.63,38.62L85.37,39.01L85.53,39.59L85.83,39.95L85.75,40.46L86.07,41.14L85.55,42.1L85.73,42.36L85.22,42.83L85.85,43.51L85.69,44.36L85.96,44.75L86.79,45.14L86.91,44.67L87.27,44.99L88.01,44.69L88.22,45.44L89.16,45.59L90.03,46.03L90.46,45.94L90.92,46.18L91.47,46.07L91.67,46.89L91.46,47.02L91.67,47.61L91.43,47.7L91.42,48.23L91.74,48.82L91.69,49.65L91.19,50.27L91.36,50.63L91.1,50.78L91.43,51.16L91.22,51.53L91.39,51.82L91.11,52.78L91.71,53.42L92.03,54.02L91.51,54.32L91.13,54.3L90.98,54.82L90.26,54.89L90.14,55.09L90.23,55.91L89.54,56.71L88.9,56.87L88.47,56.38L88.23,55.86L87.69,55.52L87.53,55.72L89.79,57.86L90.64,58.42L91.38,57.78L91.62,57.84L92.39,60.53L93.05,60.83ZM49.13,98.78L49.91,98.87L49.93,99.28L50.22,99.45L50.92,99.43L51.29,99.14L51.87,99.28L52.08,99.56L52.84,99.43L52.86,100.15L53.02,100.59L53.86,100.78L54,101.39L53.92,102.32L54.83,102.71L55.45,103.36L55.17,103.91L55.21,104.25L54.72,104.66L54.58,105.1L53.89,105.45L53.24,105.13L52.77,105.44L52.01,105.5L51.32,105.06L51.13,104.58L50.86,104.7L50.18,104.2L49.76,104.13L49.93,102.71L49.73,101.73L49.1,101.23L48.93,100.83L48.3,100.99L47.94,100.6L48.01,100.02L49.02,99.06ZM65.15,119.9L65.57,119.19L65,118.16L64.57,117.91L65.1,117.56L65.1,116.6L64.87,116.18L65.03,115.95L64.8,115.33L65.06,114.9L65.29,114.86L65.68,115.32L66.6,115.14L66.84,115.43L67.81,114.99L68.46,115.15L69.28,115.66L68.74,116.29L68.56,116.87L68.84,117.26L68.81,117.67L69.12,118L69.24,118.9L68.38,119.58L67.98,119.73L67.99,120.38L67.49,120.75L66.83,120.05L66.03,120.08L65.81,120.26ZM82.83,81.26L82.8,80.7L82.5,80.14L81.92,79.91L81.74,79.46L80.75,79.78L80.38,79.67L80.04,80.14L79.23,80.52L78.1,80.48L77.91,80.09L78.25,78.67L78.59,78.5L78.57,77.34L78.82,76.84L78.74,75.87L78.9,75.19L79.25,74.84L79.18,73.99L79.39,73.65L79.11,72.95L79.26,71.77L79.13,71.27L79.31,70.6L79.51,70.54L79.74,69.37L79.83,70.03L79.7,70.76L79.85,71.57L80.42,72.11L80.91,72.81L82.01,73.23L82.39,74.18L82.2,75.08L82.32,76.31L82.97,76.85L83.57,76.68L83.78,77.07L83.39,77.74L83.54,78.84L83.7,80.79L83.59,81.04ZM51.05,92.96L50.33,92.6L49.89,92.55L49.81,92.14L50.14,91.48L49.84,90.51L49.38,89.83L49.26,89.38L48.74,89.15L48.46,88.75L47.93,88.46L48.13,88.42L47.84,87.39L48.09,87.2L47.73,87.03L47.24,86.5L47.26,86.15L46.79,86L46.27,85.24L46.28,84.53L46.51,84.4L47.3,84.35L47.69,83.86L47.28,82.87L47.57,82.45L48.04,82.44L48.58,82.1L48.98,82.22L49.74,81.59L50.08,81.56L51,80.91L51.52,81.08L52.16,80.66L52.55,79.5L52.97,79.04L53.41,79.64L53.28,80.31L53.49,80.81L53.16,81.58L52.84,81.75L52.91,82.92L52.84,83.74L53.34,84.78L52.95,85.4L52.33,85.64L52.1,86.37L52.31,87.5L52.22,88.17L52.68,88.5L52.97,89.46L53.2,89.65L52.68,90.3L52.56,90.78L52.03,91.1L51.52,92.06L51.62,92.78ZM104.56,103.38L105.29,103.6L105.47,104.56L106.01,104.67L106.17,104.93L106.04,105.62L106.31,105.92L107,106.3L107.73,106.25L108.45,106.95L108.17,107.16L108.04,108.4L107.93,110.21L107.58,110.1L106,107.81L105.47,107.71L104.9,109.49L104.72,109.86L103.9,109.71L103.32,109.81L102.97,108.85L102.44,108.75L101.89,107.11L101.39,106.82L101.47,105.66L101.89,105.29L101.67,104.87L101.82,104.32L101.13,104.65L100.46,104.63L101.16,102.77L100.32,103.14L99.86,102.88L99.92,102.46L99.42,101.64L100.39,101.09L100.65,100.62L100.87,100.93L101.46,100.9L101.95,102.03L102.75,102.16L102.9,102.67L103.76,102.8L103.94,103.43ZM68.88,136.23L68.87,136.8L69.09,137.51L69.05,138.55L69.33,138.96L69.33,139.67L68.96,139.97L68.22,139.87L67.37,139.28L66.93,139.54L66.27,139.33L65.73,139.56L65.14,139.39L64.36,139.81L63.33,138.63L63.97,138.58L64.44,137.47L64.66,137.39L64.9,136.55L65.05,136.53L65.22,137.25L65.92,137.66L66.98,137.18L67.33,137.18L68.26,136.31ZM20.39,41.56L20.72,41.7L21.6,42.66L21.77,43.13L22.12,43.19L22.39,43.83L22.38,44.23L22.8,44.38L23.35,44.88L24.4,45.37L24.8,44.82L25.57,44.69L25.91,45.4L26.84,45.56L28.02,45.89L28.37,46.14L28.8,46.07L28.97,45.3L29.6,44.84L29.63,44.32L30.14,43.37L29.99,43L30.29,42.27L30.15,42.19L30.24,41.47L31.23,41.79L31.66,41.46L32.32,41.95L32.29,42.83L31.94,43.26L31.62,44.01L31.53,44.74L31.65,45.85L31.53,46.63L30.99,46.97L31.23,48.22L30.2,47.71L29.44,47.63L29.17,47.81L28.63,47.65L28.01,48L27.6,47.8L26.84,47.8L26.22,47.55L25.88,47.63L25.21,48.39L24.51,48.37L23.48,47.92L23.22,48.14L22.84,48.02L22.49,48.27L21.47,47.91L20.88,47.25L19.86,47.19L18.45,46.61L18.05,46.09L17.72,45.58L17.8,45.2L17.55,44.76L17.46,44.14L17.67,43.79L17.61,43.17L18.28,42.65L18.35,42.12L18.81,41.9L19.28,41.4L19.95,41.73ZM81.79,125.9L81.43,125.75L81.09,125.08L81.19,124.93L80.69,123.35L80.92,122.35L80.93,121.71L80.74,121.49L80.47,121.81L79.8,121.93L79.03,120.29L78.59,119.73L79.04,119.38L78.7,118.41L78.33,118.32L77.96,118.55L77.4,117.91L77.46,117.58L76.88,117.44L77.14,116.44L76.71,115.46L77.09,114.96L78.2,114.77L78.33,113.84L78.55,113.99L78.66,114.78L79.66,115.24L80.29,115.11L80.05,114.6L80.14,113.85L80.53,114.39L80.38,114.84L81.01,115.88L80.62,116.35L81.03,116.57L81.76,117.49L82.68,117.75L82.83,117.49L83.45,117.67L83.64,117.93L83.63,118.64L84.04,119.06L84.2,119.48L84.93,119.83L85.34,120.36L85.19,120.88L85.48,121.48L85.2,121.75L85.69,122.42L86.51,123.11L86.32,123.48L86.46,123.8L86.22,124.76L85.96,125.13L85.23,125.37L84.15,125.19L84.21,125.64L83.73,126.06L83.25,126.21L83.04,126.98L82.66,127.51L81.89,127.69L81.93,127.19L81.69,126.73L81.86,126.57ZM77.2,87.65L77.43,86.93L78.18,86.67L78.8,86.28L79.34,86.58L79.78,86.49L80.19,86.15L80.43,85.64L80.94,85.64L81.15,85.68L81.19,86.25L81.81,86.65L82.12,86.46L82.64,86.52L83.36,86.83L83.23,87.09L82.17,87.54L82.56,88.24L82.19,88.76L82.24,89.46L81.99,89.49L82.18,90.68L81.9,91.28L80.98,91.67L80.41,91.38L80.34,91L79.45,90.64L78.33,89.5L77.84,89.54L77.95,89.06L77.82,88.67L77.1,88.12ZM92.03,54.02L91.71,53.42L91.11,52.78L91.39,51.82L91.22,51.53L91.43,51.16L91.1,50.78L91.36,50.63L91.19,50.27L91.69,49.65L91.74,48.82L91.42,48.23L91.43,47.7L91.67,47.61L91.46,47.02L91.67,46.89L91.47,46.07L90.92,46.18L90.46,45.94L90.03,46.03L89.16,45.59L88.22,45.44L88.01,44.69L87.27,44.99L86.91,44.67L86.79,45.14L85.96,44.75L85.69,44.36L85.85,43.51L85.22,42.83L85.73,42.36L85.55,42.1L86.07,41.14L85.75,40.46L85.83,39.95L85.53,39.59L85.37,39.01L84.63,38.62L84.44,38.3L83.95,38.83L83.45,38.48L83.17,39.57L82.75,39.91L82.38,39.92L82.34,40.49L81.94,40.53L82.26,41.13L82.03,41.28L80.71,41.05L80.74,40.63L80.32,40.15L79.85,40.46L79.35,40.48L79.18,39.64L79.22,39.15L78.96,38.76L80.08,38.72L80.4,38.29L80.79,38.2L81,37.6L81.33,37.32L81.88,36.52L82.44,36.48L82.8,36.15L83.05,35.21L82.61,34.94L82.74,34.67L83.34,34.3L83.76,33.69L84.25,34.16L84.78,34.18L85.18,34.68L85.45,34.45L87.38,34.29L87.58,34.84L88.7,34.2L88.92,33.6L89.48,33.9L89.52,34.31L90.54,34.53L90.86,34.76L91.09,34.43L91.72,34.32L92.31,33.58L92.74,33.39L93.28,33.4L94.26,32.77L94.7,33.22L95.84,33.41L96.44,32.37L96.44,35.48L95.57,35.33L94.91,37.08L95.31,37.04L95.79,37.82L96.26,38.33L96.66,39.17L97.13,39.36L97.23,39.86L96.94,40.06L96.99,40.44L96.02,40.6L95.54,41.53L95.59,41.74L95.11,42.26L95.25,42.57L95.74,42.78L96.21,43.59L96.02,44.46L100.14,46.22L100.54,46.09L100.89,45.54L101.84,48.01L101.51,48.49L101.54,49.2L100.89,49.68L99.83,49.91L99.38,50.39L98.92,50.16L99,49.82L97.88,49.3L97.41,49.86L96.8,49.81L96.97,50.23L96.41,50.57L96.65,50.92L95.95,51.52L95.93,51.82L95.56,51.77L95.55,52.2L94.6,52.5L93.99,52.31L93.97,52.89L93.33,52.96L93.24,53.56L92.74,53.71L92.71,54.13ZM18.05,46.09L18.45,46.61L19.86,47.19L20.88,47.25L21.47,47.91L22.49,48.27L22.84,48.02L23.22,48.14L23.48,47.92L24.51,48.37L25.21,48.39L25.88,47.63L26.22,47.55L26.84,47.8L27.6,47.8L28.01,48L28.63,47.65L29.17,47.81L29.44,47.63L30.2,47.71L31.23,48.22L31.44,49.49L31.24,50.61L31.03,51.01L31.17,51.53L30.36,52.8L30.51,53.13L30.25,53.78L30.42,53.96L30.76,55.07L30.67,55.25L29.72,55.42L29.23,56.1L28.39,56.14L28.01,57.03L27.65,57.51L27.74,57.98L27.47,58.05L26.68,58.88L25.94,59.26L25.4,58.84L24.89,58.71L24.57,58.14L24.8,57.94L24.5,57.7L24.13,56.55L22.88,55.81L21.97,54.12L22.12,53.76L21.67,53.19L21.27,53.3L20.71,52.98L19.95,53.01L19.85,52.65L19.33,52.12L19.22,52.42L19,52.03L19.23,51.92L18.55,51.5L18.89,51.39L18.92,51.04L18.42,50.48L17.68,50.44L17.89,50.21L17.56,49.33L18.16,48.61L17.67,47.99L17.78,46.62L17.66,46.24ZM91.44,97.46L90.17,97.57L90,98.56L89.54,98.77L89.02,98.17L88.99,97.6L88.75,97.41L87.83,97.61L87.46,97.1L87.22,97.06L87.56,96.81L87.76,96.31L88.99,96.13L89.13,95.51L89.73,95.72L90.48,95.74L90.49,96.14L91.5,97.16ZM85.96,125.13L86.22,124.76L86.46,123.8L86.32,123.48L86.51,123.11L85.69,122.42L85.2,121.75L85.48,121.48L85.19,120.88L85.34,120.36L84.93,119.83L84.2,119.48L84.04,119.06L83.63,118.64L83.64,117.93L83.45,117.67L82.83,117.49L82.68,117.75L81.76,117.49L82.03,116.65L81.76,116.51L82.28,115.78L82.93,115.56L83.4,115.12L83.39,114.67L83.67,114.81L84.14,115.49L84.88,115.39L85.12,115.91L85.28,115.72L85.96,115.64L86.4,116.42L86.4,117.13L86.88,117.24L87.2,117.72L87.9,118.17L88.31,118.09L88.57,118.53L89.35,119L90.02,119.88L88.68,120.09L88.68,120.66L88.05,120.82L87.91,121.22L88.29,122.06L88.28,122.42L89.14,122.73L89.4,123.44L89.71,123.49L90.57,123.19L90.19,123.56L89.83,124.29L89.08,124.39L88.66,124.27L88.33,124.67L87.24,124.76L86.89,125.41L86.01,125.6ZM86.87,102.72L86.76,103L87.22,103.9L86.53,104.1L86.29,104.41L86.52,105.2L86.28,105.69L86.44,106.12L86.18,106.46L85.81,106.24L85.79,107.47L85.32,108L84.53,107.81L84.26,107.16L83.84,106.87L83.65,106.38L82.85,106.44L82.67,106.02L82.17,105.99L82.21,105.31L81.64,105.54L80.69,105.18L80.21,104.39L80.34,103.63L80.19,103.54L80.06,103.26L80.35,103.05L80.98,103.21L80.94,102.91L81.86,102.23L82.78,101.69L82.87,101.22L84.04,101.02L84.74,101.19L84.83,101.45L85.42,101.74L85.8,102.46L86.3,102.42ZM58.06,112.93L57.95,114.28L57.52,115.02L57.52,115.7L57.49,116.23L57.07,117.56L57.19,118.06L57.73,118.52L58.1,119.47L58.47,120.01L58.38,120.61L57.77,121.65L57.03,121.92L55.79,121.62L55.23,121.02L54.59,121.2L53.85,120.7L53.76,120.08L54.02,119.9L53.91,118.96L54.06,118.6L53.89,118L53.13,117.99L52.73,117.72L52.47,117.86L51.58,116.94L51.67,116.58L52.55,116.42L52.93,116.03L52.89,115.53L53.77,114.84L54.15,115.05L54.43,114.7L54.78,114.76L54.87,114.22L55.38,113.76L55.47,113.28L55.87,112.79L57.06,113.02L57.88,112.81ZM72.14,107.5L71.61,107.32L71.27,107.84L70.72,105.86L71.2,105.77L71.57,104.83L70.8,103.89L70.85,103.68L71.2,103.47L71.2,103.12L71.75,102.61L72.18,102.58L72.67,101.94L72.56,102.31L72.69,103.56L72.99,104.17L72.73,104.33L73.04,105.08L73.87,105.88L74.21,105.91L73.56,106.57L72.83,106.53L72.86,106.94L72.59,107.07L72.52,107.65ZM42.51,71.98L43.14,72.46L43.61,72.39L44.23,72.81L45.05,72.92L45.71,72.54L45.91,72.03L46.8,72.55L47.32,72.47L47.62,71.73L48.42,71.46L48.98,71.09L49.8,71.28L50.35,71.7L50.97,71.65L51.49,72.24L51.86,72.15L52.16,72.73L52.9,72.76L52.77,74.07L53.03,74.65L52.82,75.12L52.63,76.4L52.68,77.45L52.49,78.05L52.25,78.18L51.51,78.23L51.23,78.58L50.85,79.57L50.3,79.82L50.17,80.12L49.25,80.61L48.85,80.44L48.49,80.73L47.11,79.93L46.43,79.85L46.31,79.58L45.42,79.36L45.16,79.18L44.47,79.92L42.7,79.92L41.84,79.77L41.58,80.34L41.62,80.72L42.23,81.54L41.43,82.04L40.48,81.83L40.12,82.22L39.57,82.39L39.15,83.49L39.32,84.31L39.12,84.62L39.65,84.53L39.9,85.03L39.68,85.43L40.15,86.19L40.12,86.38L39.46,86.85L39.14,87.41L38.5,87.61L37.87,87.15L37.76,86.6L37.15,86.3L36.41,86.27L36.28,85.99L35.45,85.31L35.17,85.24L34.64,84.48L33.9,84.21L33.47,84.68L33.35,86.06L33.56,86.85L33.55,87.97L33.86,88.37L33.73,88.91L33.24,89.13L33.1,88.94L32.2,88.61L30.99,88.54L29.97,88.03L29.48,88.41L29.02,89.23L29.02,89.65L28.28,90.03L28.21,90.67L27.64,90.94L27.38,90.79L27.26,90.21L26.64,90.08L25.94,88.72L26.8,88.43L27.34,87.85L27.7,87.13L27.53,86.36L27.92,85.59L27.9,84.4L28.31,83.93L28.19,83.61L28.4,82.99L28.99,82.93L29.84,82.19L30.33,81.33L29.83,79.76L29.34,80.1L29.03,79.79L29.07,78.65L28.89,78.11L28.8,77.57L29.39,76.62L29.35,76.15L29.58,75.72L29.24,75.38L29.6,74.91L29.56,74.35L29.87,73.76L30.24,73.64L30.47,73.02L30.51,72.44L31.11,72.72L31.45,72.6L31.98,72.54L32.55,72.7L33.71,70.92L33.56,70.29L34.06,70.4L35.15,70.42L36.05,70.83L36.59,70.73L37.38,70.96L37.89,71.3L38.4,71.87L39.87,71.85L40.6,72.2L41.19,71.82L42.3,72.04ZM81.98,98.71L81.85,99.38L81.28,99.43L80.93,98.79L80.35,98.79L79.5,98.51L79.21,99.02L78.78,99.04L77.99,99.56L77.66,100.51L77.29,100.81L76.76,100.87L76.75,101.29L76.49,101.47L75.56,101.45L74.32,101.73L73.47,101.82L73.25,101.22L72.69,100.78L72.72,100.42L74.13,100.73L73.77,100.19L73.6,99.44L73.77,99.07L73.7,98.56L73.94,98.37L74.36,98.45L74.51,97.66L75.18,97.19L75.52,97.38L75.72,97.86L76.19,97.97L76.49,98.31L76.43,97.37L77.48,97.07L78.92,97.2L80.21,96.88L80.96,96.52L81.58,96.06L82.09,95.97L82.72,96.14L83.39,96.55L83.84,96.53L84.21,96.8L83.91,97.1L83.33,97.06L83.09,97.6L82.48,97.9L82.52,98.09ZM63.21,104.84L63.34,105.41L63.12,105.65L63.17,106.42L63.58,107.15L63.51,109.07L62.41,108.72L61.57,109.42L60.94,109.41L60.77,109.59L60.28,108.79L59.38,109.04L58.96,109.66L59.09,110.49L58.56,110.35L58.03,110.01L57.62,109.47L58.04,109.43L58.19,109.07L58.01,108.67L58.4,108.1L57.84,107.54L58.07,106.7L57.42,106.15L57.91,105.17L57.71,104.56L58.01,104.37L57.99,103.9L58.51,103.32L58.98,102.78L59.76,102.34L59.72,103.37L60.38,103.39L60.5,102.92L60.4,102.32L60.63,102.39L61.63,102.83L61.79,103.27L62.35,103.45L62.49,103.93L62.77,103.97L63.02,104.71ZM101.84,48.01L100.89,45.54L100.92,45.29L101.46,44.86L101.47,44.35L101.03,43.98L101.27,43.6L101.71,43.78L101.83,43.34L101.29,43.17L100.89,42.49L101.01,42.02L100.81,41.34L101.01,40.79L100.68,40.65L100.85,40.06L100.3,39.01L100.54,38.48L100.44,37.64L100.98,37.27L100.59,36.52L100.91,36.15L101.55,36.12L101.73,36.61L101.36,36.75L101.65,37.69L102.82,38.06L103.22,38.77L103.65,38.8L104.14,39.41L104.57,39.32L105.28,39.43L105.26,39.83L105.89,39.75L106.08,39.46L106.61,39.74L107.03,40.37L107.34,40.16L107.99,40.64L108.33,40.04L108.61,40.07L108.83,39.43L109.29,39.37L109.35,39.12L110.08,38.57L110.49,38.58L111.01,37.88L111.53,38.61L111.93,38.74L112.08,40.1L112.47,40.25L112.72,40.67L112.55,41.39L112.59,42.23L112.41,42.67L112.43,43.3L112.73,43.89L112.82,44.8L112.5,45.62L112.97,45.67L113.02,46.96L113.17,47.82L113.63,48.57L114.08,48.5L114.57,48.87L114.51,49.79L113.92,50.08L112.84,50.02L112.27,50.25L111.7,50.91L111.01,51.28L110.8,52.48L110.95,52.79L110.62,54.15L110.63,55.14L110.77,55.76L110.72,56.58L110.48,56.79L109.8,56.93L109.7,57.78L109.9,58.13L109.48,58.69L109.47,58.98L110.26,60.16L111,60.38L110.22,60.89L109.75,61.73L109.07,62.12L108.15,62.12L107.66,61.36L107.58,60.92L107.26,60.74L106.61,60.76L106.3,60.01L106.07,60.11L105.09,59.98L104.92,59.7L104.48,59.95L103.5,59.15L103.12,59.26L102.86,59.04L102.76,57.87L102,57.66L101.85,56.88L102.14,56.21L101.66,55.55L100.94,54.9L100.88,54.48L100.45,54.13L100.27,53.69L100.95,52.66L101.52,52.54L102.16,51.33L102.33,50.63L102.62,50.13L102.51,48.7L102.81,48.51L102.65,47.99ZM69.56,97.84L69.08,97.29L68.83,97.39L68.34,97.05L68.28,96.41L67.73,96.03L67.77,95.34L67.15,94.66L66.82,94.51L66.13,93.5L65.48,93.34L65.87,92.58L66.68,92.03L67.74,91.96L68.48,92.03L68.65,91.77L69.49,92.18L70.44,91.61L71.2,92.07L70.63,92.88L71.18,93.71L71.51,93.51L72.31,94.41L71.68,94.83L71.5,95.14L71.83,95.99L71.86,96.39L72.38,96.56L72.79,97.12L73.12,97.16L73.77,97.95L73.94,98.37L73.7,98.56L71.82,98.7L70.87,98.69L70.55,98.87L70.43,98.54ZM68.75,111.98L69.56,112.53L69.94,112.47L70.55,112.76L70.91,112.5L70.95,111.73L71.37,111.69L72.25,111.94L72.82,111.9L72.84,112.5L73.27,112.79L73.19,113.27L72.71,113.14L72.32,113.42L71.5,113.61L71.58,113.9L71.18,114.32L70.95,114.23L70.63,114.58L70.4,114.38L70.41,115L70,115.5L69.46,115.44L69.28,115.66L68.46,115.15L68.43,113.82L68.17,113.79L67.84,113.06L67.98,112.75ZM63.93,120.63L64.38,120.43L64.77,119.99L65.15,119.9L65.81,120.26L66.03,120.08L66.83,120.05L67.49,120.75L67.12,120.77L66.57,121.26L66.45,122.14L67.01,123.03L67.05,124.2L67.31,125L67.08,125.36L67.08,125.88L67.51,126.85L67.17,127.61L67.26,128.11L67.2,128.81L67.32,129.58L67.06,130.14L66.4,129.71L66.19,129.29L66.29,128.91L65.96,128.62L65.9,128.21L65.35,128.13L64.88,127.53L63.96,126.98L62.86,126.8L62.59,126.59L62.31,125.97L61.44,125.09L60.79,124.78L61.15,123.99L60.7,123.78L60.64,123.5L61.19,122.97L61.69,122.82L62.6,122.84L63.86,122.42L64.03,122.1L63.84,121.8L64.58,121.15L64.55,120.78ZM47.93,88.46L47.71,89.58L47.23,90.16L46.71,90.42L46,90.44L45.8,90.99L45.39,91.29L44.74,91.36L44.23,91.58L43.91,92.21L44.54,92.5L44.5,93.36L44.88,93.46L45.08,93.9L44.8,94.25L44.81,95.19L43.43,95.65L43.01,96.06L42.16,96.07L41.28,97.44L40.63,97.54L40.24,97.31L39.32,97.97L39.25,98.41L38.41,98.79L37.57,98.44L37.26,97.89L37.35,97.05L36.8,96.8L36.52,95.67L35.87,95.15L35.14,95.44L34.79,95.41L34.8,95.72L33.62,96.72L32.97,97.46L32.68,99.02L32.04,99.48L31.52,99.18L31.49,98.52L31.11,97.99L30.8,98.11L30.36,97.86L29.91,97.17L30.26,96.79L30.16,95.99L29.87,95.43L29.17,95.36L28.7,96.09L28.21,96.28L28.44,95.09L27.72,94.04L27.82,93.5L28.06,92.87L27.78,92L27.64,90.94L28.21,90.67L28.28,90.03L29.02,89.65L29.02,89.23L29.48,88.41L29.97,88.03L30.99,88.54L32.2,88.61L33.1,88.94L33.24,89.13L33.73,88.91L33.86,88.37L33.55,87.97L33.56,86.85L33.35,86.06L33.47,84.68L33.9,84.21L34.64,84.48L35.17,85.24L35.45,85.31L36.28,85.99L36.41,86.27L37.15,86.3L37.76,86.6L37.87,87.15L38.5,87.61L39.14,87.41L39.46,86.85L40.12,86.38L40.15,86.19L39.68,85.43L39.9,85.03L39.65,84.53L39.12,84.62L39.32,84.31L39.15,83.49L39.57,82.39L40.12,82.22L40.48,81.83L41.43,82.04L42.23,81.54L41.96,82.45L41.4,82.95L41.36,83.39L41.89,83.84L42.39,84.56L43.49,84.49L43.45,84.83L44.09,84.97L44.63,85.41L45.08,85.57L46.11,84.42L46.51,84.4L46.28,84.53L46.27,85.24L46.79,86L47.26,86.15L47.24,86.5L47.73,87.03L48.09,87.2L47.84,87.39L48.13,88.42ZM51.19,93.48L51.05,92.96L51.62,92.78L51.52,92.06L52.03,91.1L52.56,90.78L52.68,90.3L53.2,89.65L53.5,90.11L53.97,90.25L54.44,90.88L54.65,90.8L55.21,91.61L56.25,91.73L56.18,92.13L56.47,93L56.2,93.76L55.87,93.85L55.83,93.4L55.45,92.81L55.12,92.64L54.8,92.88L54.4,93.95L53.36,94.12L52.6,93.72L51.98,93.77ZM74.32,101.73L74.82,102.45L75.41,103.02L75.54,103.42L75.79,103.36L76.13,104.13L76.16,104.66L76.33,104.93L76.04,105.35L75.66,105.39L75.71,105.8L75.35,106.09L75.3,106.74L74.54,106.4L74.21,105.91L73.87,105.88L73.04,105.08L72.73,104.33L72.99,104.17L72.69,103.56L72.56,102.31L72.67,101.94L73.47,101.82ZM85.37,84.61L85.7,85.5L86.9,86.46L87.08,86.88L87.82,87.27L88.32,87.3L87.97,87.85L88.13,88.08L87.57,89.09L88.08,89.8L88.42,89.98L87.86,90.62L87.59,91.3L87.8,91.48L87.57,91.82L87.79,92.46L86.83,92.71L86.38,93.24L86.5,94.2L86.12,94.8L86.18,95.47L85.35,95.5L84.7,95.94L84.7,95.27L84.16,94.57L83.39,94.17L82.67,93.18L82.1,93.19L81.25,92.87L81.22,92.41L80.74,92.33L80.98,91.67L81.9,91.28L82.18,90.68L81.99,89.49L82.24,89.46L82.19,88.76L82.56,88.24L82.17,87.54L83.23,87.09L83.36,86.83L83.57,86.84L84.53,85.29ZM89.35,119L88.57,118.53L88.31,118.09L87.9,118.17L87.2,117.72L86.88,117.24L86.4,117.13L86.4,116.42L85.96,115.64L85.86,115.32L85.27,114.8L84.68,114.65L84.37,113.88L83.74,113.77L83.21,113.04L84.07,113.31L84.28,112.83L85.18,112.55L85.64,113.11L86.11,112.7L86.23,112.8L86.85,112.31L87.51,110.61L87.86,110.24L87.93,110.84L88.63,111.93L89.69,113.34L89.44,113.77L90.28,114.02L90.3,114.5L89.88,115.66L89.91,116.59L89.73,116.91L89.8,117.57L89.58,117.52L89.27,118.35ZM85.83,82.17L85.41,83.36L85.53,83.88L85.37,84.61L84.53,85.29L83.57,86.84L83.36,86.83L82.64,86.52L82.12,86.46L81.81,86.65L81.19,86.25L81.15,85.68L80.94,85.64L81.03,84.95L81.44,85.29L81.76,85.04L81.84,84.6L82.2,84.55L82.12,82.93L82.3,82.41L82.78,82L82.83,81.26L83.59,81.04L84.63,81.61L85.3,81.6ZM72.77,111.31L72.57,110.86L72.81,110.21L73.34,110.02L72.35,108.58L72.51,108.35L72.14,107.5L72.52,107.65L72.59,107.07L72.86,106.94L72.83,106.53L73.56,106.57L74.21,105.91L74.54,106.4L75.3,106.74L75.35,106.09L75.71,105.8L75.66,105.39L76.04,105.35L76.43,105.93L76.9,106.19L76.7,106.48L76.86,107.43L76.51,107.96L76.83,108.55L76.69,108.83L77.17,110.17L77.2,110.72L76.88,110.99L75.96,110.91L75.68,111.38L75.05,111.5L74.95,111.1L73.6,111.73L73.16,111.66ZM85.79,107.47L86.27,107.57L86.8,106.89L86.83,106.39L87.32,105.87L87.65,106.77L88.05,107.26L88.05,107.59L87.7,107.62L87.09,107.35L87.11,107.86L86.84,107.97L86.96,108.94L86.82,109.16L87.99,110.05L87.86,110.24L87.51,110.61L86.85,112.31L86.23,112.8L86.11,112.7L85.05,111.41L85.19,110.85L84.73,109.78L85.04,109.52L84.87,109.25L85.04,108.62L84.84,108.56L85.32,108ZM63.51,109.07L63.51,109.74L63.81,109.96L63.99,111.1L63.83,111.29L64.15,111.76L64,112.9L63.78,113.3L63.03,113.62L62.54,113.26L61.96,113.77L61.91,113.27L62.22,112.76L61.82,112.27L61.36,112.41L60.55,112.19L60.1,111.46L59.53,111.18L59.09,110.49L58.96,109.66L59.38,109.04L60.28,108.79L60.77,109.59L60.94,109.41L61.57,109.42L62.41,108.72ZM56.74,129.16L56.27,129.52L55.96,130.07L55.5,129.6L54.8,130.08L54.72,129.77L54.32,129.63L53.84,129.05L53.7,128.5L53.37,128.22L54,127.72L55.39,127.57L55.6,126.78L55.32,126.46L56.27,126.5L56.86,126.94L56.69,127.78ZM66.08,112.7L66.57,112.6L66.53,112.34L66.93,112.01L66.84,111.69L67.99,111.52L68.84,111.66L68.75,111.98L67.98,112.75L67.84,113.06L67,113.46L66.9,113.18L66.18,112.96ZM74.5,67.84L73.03,68.95L71.84,68.61L71.41,68.89L70.93,69.6L69.28,69.95L67.87,70.78L67.54,71.54L66.78,72.05L66.47,72.42L65.8,72.38L65.45,72.71L65.31,73.57L64.96,74.36L64.44,74.72L63.77,74.59L63.07,74.86L62.67,74.81L62.1,75.04L61.73,75.54L61.21,75.66L60.87,75.95L60.81,76.32L59.97,75.8L59.94,74.92L58.19,73.98L57.49,74.06L57.17,74.41L56.99,73.95L56.51,73.62L56.7,72.18L55.94,71.57L56.48,71.28L56.73,70.82L56.16,68.98L55.43,69.06L55.05,69.88L54.74,69.96L54.89,70.32L54.37,70.61L53.78,70.5L53.42,70.78L53.67,70.93L53.63,71.64L53.17,72.09L52.9,72.76L52.16,72.73L51.86,72.15L51.49,72.24L50.97,71.65L50.35,71.7L49.8,71.28L48.98,71.09L48.42,71.46L47.62,71.73L47.32,72.47L46.8,72.55L45.91,72.03L45.71,72.54L45.05,72.92L44.23,72.81L43.61,72.39L43.14,72.46L42.51,71.98L38.9,66.38L38,64.87L36.85,63.24L36.36,62.71L36.07,62.12L35.77,61.91L41.91,62.42L51.18,63.2L57.91,63.77L57.9,63.48L58.39,62.76L58.31,62.01L58.57,61.24L59.05,60.87L58.68,60.52L58.77,59.78L59.7,59.64L60.3,59.05L60.28,58.5L60.49,57.78L60.82,57.33L60.32,56.89L61.16,56.18L60.76,55.52L60.88,54.68L61.41,54.17L61.21,53.28L61.77,52.76L62.16,52.72L63.43,54L64.02,54.02L64.72,53.84L64.85,53.44L65.85,53.53L66.17,53.81L67.26,53.94L67.99,53.65L68.29,54.22L68.91,54.59L69.24,55.03L69.39,56.4L69.59,56.54L69.85,57.42L70.47,57.73L70.23,58.82L70.43,59.83L70.02,60.54L70.05,61.25L69.39,62.38L70.61,62.78L71.45,62.41L71.61,62.7L71.56,63.77L71.34,63.99L71.35,64.68L70.95,65.55L71.02,65.8L71.75,65.97L72.2,65.66L72.7,65.57L72.87,66.14L73.21,66.27L73.37,66.74L73.89,67.3L74.32,67.47ZM55.4,141.4L55.8,141.24L56.33,140.59L56.24,140.18L56.48,139.44L56.82,139.35L56.75,137.47L56.39,136.96L56.52,136.54L56.5,135.14L56.81,134.92L58.42,135.37L58.58,135.54L58.73,134.78L59.24,134.57L59.38,134.17L59.51,134.23L60.39,134.25L60.88,134.9L61.2,134.66L61.79,135.28L61.78,135.88L61.52,136.16L61.44,136.75L62.17,136.9L62.67,137.96L62.07,138.45L61.23,138.63L60.91,139.08L60.49,138.93L59.5,140.02L59.09,140.12L58.44,141.08L57.71,140.93L57.26,140.36L56.98,141.02L56.33,141.31ZM59.38,134.17L59.09,133.66L59.13,133.27L58.61,132.31L58.69,131.94L58.28,131.1L58.28,130.49L58.78,130.14L58.97,129.64L58.96,128.99L59.28,128.28L58.79,127.61L58.91,127.26L59.16,126.89L59.28,127.76L59.95,127.55L60.47,127.22L61.5,125.26L61.44,125.09L62.31,125.97L62.59,126.59L62.86,126.8L63.96,126.98L64.88,127.53L65.35,128.13L64.91,128.26L64.45,129.19L63.48,129.48L63.37,129.96L62.06,130.91L62.11,131.62L61.8,131.57L61.66,131.99L61.38,132.03L60.98,132.74L60.19,132.98L59.66,133.31L59.79,133.87L59.51,134.23ZM75.68,123.92L74.99,123.89L74.4,123.06L74.27,122.57L73.52,122.1L73.17,122.15L72.96,122.56L72.2,122.29L71.86,121.51L73.04,120.75L73.02,120.31L73.9,119.8L74.02,118.75L74.5,118.1L74.47,117.36L75.32,117.02L76.16,117.13L76.88,117.44L77.46,117.58L77.4,117.91L77.96,118.55L77.22,119.73L76.83,120.02L76.28,119.74L75.55,120.62L75.52,120.93L75.9,121.72L75.94,122.31L75.58,123.53ZM64.77,113.03L66.08,112.7L66.18,112.96L66.9,113.18L67,113.46L66.65,113.61L67,114.36L67.51,114.61L67.81,114.99L66.84,115.43L66.6,115.14L65.68,115.32L65.29,114.86L65.06,114.9ZM66.4,129.71L67.06,130.14L67.32,129.58L67.2,128.81L67.26,128.11L67.6,127.72L68.08,127.78L68.78,128.64L68.88,129.4L69.24,130.43L69.39,130.53L69.34,131.27L69.19,131.35L68.6,130.87L68.09,130.76L68.1,131.66L68.24,131.84L68.07,132.45L68.08,133.09L67.46,133.56L67.18,133.31L67.06,132.55L67.3,132.17L67.11,131.61L67.38,130.65L66.47,129.86L66.32,129.92ZM81.09,125.08L80.11,125.22L79.49,124.82L78.74,124.85L78.41,124.59L77.11,124.75L76.23,124.02L75.68,123.92L75.58,123.53L75.94,122.31L75.9,121.72L75.52,120.93L75.55,120.62L76.28,119.74L76.83,120.02L77.22,119.73L77.96,118.55L78.33,118.32L78.7,118.41L79.04,119.38L78.59,119.73L79.03,120.29L79.8,121.93L80.47,121.81L80.74,121.49L80.93,121.71L80.92,122.35L80.69,123.35L81.19,124.93ZM58.85,93.15L58.42,92.81L58.27,92.04L58.42,91.52L57.81,90.24L57.28,89.94L57.18,89.31L57.87,88.83L57.37,88.18L57.25,87.69L56.84,87.22L57.74,87.09L57.95,87.38L58.66,87.12L58.98,87.24L59.46,87.02L59.97,87.15L61.26,87.07L61.64,87.08L61.9,86.48L62.51,86.31L62.81,86.64L63.01,88.47L63.35,90.12L63.24,90.66L63.36,92.07L63.11,92.73L62.65,92.66L62.48,92.92L61.71,92.88L60.98,92.2L60.35,92.15L60.21,92.44L59.48,92.64L58.98,92.49ZM104.56,103.38L103.94,103.43L103.76,102.8L102.9,102.67L102.75,102.16L101.95,102.03L101.46,100.9L100.87,100.93L100.65,100.62L100.26,100L100.43,99.75L99.52,98.64L99.37,98.2L98.98,97.83L98.47,97.74L98.53,96.7L101.06,94.27L102.23,95.05L102.68,94.55L102.79,93.92L103.47,93.37L103.84,93.64L104.15,93.39L104.73,93.52L105.22,93.99L105.61,93.75L105.97,94.07L107.11,93.9L107.34,94.08L108.05,93.87L108.44,93.03L108.44,92.63L109.26,92.55L110.42,93.19L111,93.28L110.75,93.74L110.35,93.84L109.83,94.37L109.37,95.28L109.06,95.65L108.14,96.13L108.18,96.49L108.5,96.74L108.51,97.33L108.22,97.86L108.14,98.44L107.88,98.77L107.78,99.62L107.37,100.7L107.34,101.09L106.16,100.89L106.17,100.25L105.61,100.18L104.54,99.75L103.78,100.02L103.28,99.64L102.9,99.64L103.13,100.05L103.25,101.36L103.86,101.21L104.47,101.54L104.21,102.38L104.41,102.74L104.36,103.25ZM80.14,113.85L80.05,114.6L80.29,115.11L79.66,115.24L78.66,114.78L78.55,113.99L78.33,113.84L78.05,112.66L77.81,112.57L77.99,112.09L78.51,111.8L78.6,111.5L79.41,111.49L79.2,110.95L79.32,110.51L79.28,110.19L80.2,109.73L80.5,108.9L81.11,109.08L82.21,110.77L82.57,111.19L82.74,111.72L82.36,111.82L82.41,112.74L81.79,112.81L81.67,113.15L80.73,113.56L80.04,113.45ZM72.96,122.56L73.26,123.1L73.18,123.56L72.71,123.92L72.66,124.53L72.95,124.9L72.75,125.23L72.04,125.55L71.35,125.28L70.79,125.65L70.62,125.04L70.17,124.22L70.25,123.61L69.9,122.97L69.86,122.34L70.13,122.06L70.12,121.6L69.77,121.31L69.44,121.36L69.03,121.04L69.62,120.9L70.02,121.13L70.76,121.01L71,121.45L71.86,121.51L72.2,122.29ZM28.89,78.11L29.07,78.65L29.03,79.79L29.34,80.1L29.83,79.76L30.33,81.33L29.84,82.19L28.99,82.93L28.4,82.99L28.19,83.61L28.31,83.93L27.9,84.4L27.92,85.59L27.53,86.36L27.7,87.13L27.34,87.85L26.8,88.43L25.94,88.72L26.64,90.08L27.26,90.21L27.38,90.79L27.64,90.94L27.78,92L28.06,92.87L27.82,93.5L26.61,93.07L25.85,93.16L25.18,92.94L24.81,93.01L24.18,92.81L23.25,92.92L23,92.38L22.23,92.28L21.84,92.76L21.16,93.1L20.51,93.22L19.55,93.04L18.87,92.67L17.74,92.46L16.84,92.53L16.41,92.42L15.78,91.91L15.54,91.5L15.84,90.74L15.69,90.24L15.99,89.91L15.51,89.75L15.52,89.37L14.82,88.33L14.42,88.34L14.27,87.5L13.74,87.5L13.62,87.29L14.08,86.32L13.83,85.91L14.31,85.35L14.97,84.55L15.31,84.4L15.64,84.67L16.17,84.64L16.37,85.08L16.99,85.36L17.15,84.92L17.67,85.07L17.6,84.57L17.13,84.28L18.72,83.85L19.04,83.33L18.94,82.78L18.67,82.55L18.44,80.38L18.2,80.37L18,79.83L17.27,79.96L17.65,79.37L17.21,79.39L17.1,78.68L16.69,78.72L17.42,78L22.3,77.19L23.23,77.34L23.59,76.99L23.81,77.27L24.4,77.51L24.83,77.88L25.55,77.56L26.04,77.56L26.57,78.21L27.06,77.81L27.38,78.93L27.95,79.04ZM24.89,58.71L25.4,58.84L25.94,59.26L26.68,58.88L27.47,58.05L27.74,57.98L27.65,57.51L28.01,57.03L28.39,56.14L29.23,56.1L29.72,55.42L30.67,55.25L30.76,55.07L31.15,55.31L31.08,55.65L31.68,55.83L31.91,56.49L32.4,56.69L32.82,57.36L32.72,58.11L33.12,58.24L33.43,59.17L33.85,59.49L33.98,60.18L34.45,60.94L34.86,61.03L35.4,61.69L35.77,61.91L36.07,62.12L36.36,62.71L36.85,63.24L38,64.87L38.9,66.38L42.51,71.98L42.3,72.04L41.19,71.82L40.6,72.2L39.87,71.85L38.4,71.87L37.89,71.3L37.38,70.96L36.59,70.73L36.05,70.83L35.15,70.42L34.06,70.4L33.56,70.29L33.71,70.92L32.55,72.7L31.98,72.54L31.45,72.6L31.03,72.11L30.86,71.23L30.51,70.54L30.67,70.13L30.32,69.71L30.13,68.89L29.95,68.72L29.59,67.59L28.91,67.44L28.22,66.79L27.99,66.16L27.58,65.52L26.92,65.61L25.97,65.1L24.2,59.55L23.28,58.73ZM83.12,133.3L83.43,133.34L84.62,134.07L84.86,134.04L85.46,134.51L85.87,134.38L86.22,134.53L86.65,134.13L87.19,134.21L87.48,133.69L88.69,133.84L89.18,133.44L89.99,133.88L89.67,134.11L89.26,133.94L88.76,134.69L89.18,135.82L88.9,136.33L89.25,136.54L89.09,137.05L88.58,137.53L88.21,137.64L87.49,138.41L87.41,139.09L87.16,139.49L86.76,139.36L86.05,139.46L84.52,139.95L84.34,140.3L83.74,140.5L83.34,141.04L82.88,141.97L82.53,142.27L82.34,142.73L81.46,144L81.24,143.77L81.32,143.21L81,142.31L81.18,141.63L81.17,140.99L81.84,139.91L82.37,139.45L82.32,138.83L82.42,137.92L82.61,137.34L82.44,137.06L81.78,136.63L81.64,136.33L82.08,134.99L82,134.33L82.11,133.54L81.96,133.13L82.44,132.87ZM28.14,10.98L27.92,12.22L28.53,13.19L29.38,13.45L29.77,14.12L30.91,14.95L30.69,15.28L31.21,15.45L31.66,15.83L31.35,16.39L31.62,16.94L31.29,17.19L31.81,17.81L31.84,18.35L32.74,17.88L32.93,17.57L33.6,17.74L33.33,18.61L33.29,19.7L33.13,20.17L33.66,20.46L33.89,21.17L33.44,21.42L33.17,20.99L32.75,20.89L31.78,21.34L31.65,21.01L30.86,20.3L29.18,20.13L28.12,19.82L27.41,20.06L26.56,21.25L26.15,21.34L25.96,22.5L25.4,23.01L24.67,23.08L24.61,23.38L23.78,23.79L23.3,23.69L23.44,24.16L23.27,24.92L22.01,24.59L21.55,24.71L21.19,25.46L20.64,25.54L20.45,25.21L19.59,25.26L19.51,25.4L20.26,23.46L20.35,22.41L20.06,21.92L20.2,20.58L20.04,19.64L19.54,18.96L18.94,18.94L18.68,18.34L18.51,17.41L17.78,16.15L16.91,15.42L16.35,15.16L14.56,14.57L13.6,14.04L13.67,13.75L12.87,14.12L12.8,13.29L14.36,12.14L14.75,11.65L14.92,10.49L16.53,10.41L18.51,10.14L20.63,9.63L21.99,9.39L23.51,8.97L24.66,8.48L25.3,7.68L25.14,6.9L25.54,6.42L25.71,7.54L26.54,7.65L26.62,8.96L26.5,9.53L27.92,9.97L27.68,10.68ZM100.89,45.54L100.54,46.09L100.14,46.22L96.02,44.46L96.21,43.59L95.74,42.78L95.25,42.57L95.11,42.26L95.59,41.74L95.54,41.53L96.02,40.6L96.99,40.44L96.94,40.06L97.23,39.86L97.13,39.36L96.66,39.17L96.26,38.33L95.79,37.82L95.31,37.04L94.91,37.08L95.57,35.33L96.44,35.48L96.44,32.37L97.25,31.7L98.25,29.59L98.39,29.08L98.33,28.34L98.62,28.13L99.73,28.1L100.13,28.25L100.66,28.91L100.61,29.51L101.19,29.87L101.58,30.8L102.32,31.45L102.74,31.09L103.74,31.67L104.22,31.66L104.51,32.42L104.79,32.38L104.96,32.73L105.63,32.76L106.33,33.27L106.6,34.02L107.32,34.38L107.65,34.13L108.12,34.25L108.33,35.01L108.82,35.21L109.23,35.13L109.5,35.49L109.77,36.35L110.26,36.73L110.52,37.45L111.01,37.88L110.49,38.58L110.08,38.57L109.35,39.12L109.29,39.37L108.83,39.43L108.61,40.07L108.33,40.04L107.99,40.64L107.34,40.16L107.03,40.37L106.61,39.74L106.08,39.46L105.89,39.75L105.26,39.83L105.28,39.43L104.57,39.32L104.14,39.41L103.65,38.8L103.22,38.77L102.82,38.06L101.65,37.69L101.36,36.75L101.73,36.61L101.55,36.12L100.91,36.15L100.59,36.52L100.98,37.27L100.44,37.64L100.54,38.48L100.3,39.01L100.85,40.06L100.68,40.65L101.01,40.79L100.81,41.34L101.01,42.02L100.89,42.49L101.29,43.17L101.83,43.34L101.71,43.78L101.27,43.6L101.03,43.98L101.47,44.35L101.46,44.86L100.92,45.29ZM59.73,97.45L59.91,96.31L59.86,95.45L59.39,94.73L59.12,93.5L58.85,93.15L58.98,92.49L59.48,92.64L60.21,92.44L60.35,92.15L60.98,92.2L61.71,92.88L62.48,92.92L62.65,92.66L63.11,92.73L63.19,93.4L62.91,93.97L61.99,94.23L61.47,94.77L61.21,95.31L61.46,95.99L61.68,97.04L61.56,97.18L60.2,97.45ZM82.85,106.44L83.65,106.38L83.84,106.87L84.26,107.16L84.53,107.81L85.32,108L84.84,108.56L85.04,108.62L84.87,109.25L85.04,109.52L84.73,109.78L85.19,110.85L85.05,111.41L86.11,112.7L85.64,113.11L85.18,112.55L84.28,112.83L84.07,113.31L83.21,113.04L82.7,112.68L82.41,112.74L82.36,111.82L82.74,111.72L82.57,111.19L82.21,110.77L81.11,109.08L81.22,108.65L81.93,108.72L82.46,108.21L83.23,107.93L83.46,107.59ZM57.92,83.57L56.93,82.88L56.92,82.37L56.61,81.62L56.19,81.67L55.59,81.25L55.35,80.59L55.3,80L55.44,79.36L55.06,79.33L54.93,79.72L54.06,79.78L53.72,79.49L53.41,79.64L52.97,79.04L52.4,78.76L52.25,78.18L52.49,78.05L52.68,77.45L52.63,76.4L52.82,75.12L53.03,74.65L52.77,74.07L52.9,72.76L53.17,72.09L53.63,71.64L53.67,70.93L53.42,70.78L53.78,70.5L54.37,70.61L54.89,70.32L54.74,69.96L55.05,69.88L55.43,69.06L56.16,68.98L56.73,70.82L56.48,71.28L55.94,71.57L56.7,72.18L56.51,73.62L56.99,73.95L57.17,74.41L57.49,74.06L58.19,73.98L59.94,74.92L59.97,75.8L60.81,76.32L60.23,76.55L60.2,77.01L59.33,77.55L59.54,77.85L59.34,78.64L58.85,79.12L58.69,79.88L58.76,80.3L58.47,80.85L58.67,81.24L58.4,82.3L58.51,82.81L58.25,83.33ZM58.28,131.1L57.94,130.69L56.99,130.09L56.74,129.16L56.69,127.78L56.86,126.94L56.27,126.5L55.32,126.46L55.03,126.17L55.06,125.53L55.03,125.42L55.66,124.13L56.28,123.69L56.18,124.07L56.36,124.51L56.23,125.45L56.72,125.96L56.9,126.39L57.34,126.46L57.85,127.35L58.91,127.26L58.79,127.61L59.28,128.28L58.96,128.99L58.97,129.64L58.78,130.14L58.28,130.49ZM108.04,108.4L108.17,107.16L108.45,106.95L107.73,106.25L107,106.3L106.31,105.92L106.04,105.62L106.17,104.93L106.01,104.67L105.47,104.56L105.29,103.6L104.56,103.38L104.36,103.25L104.41,102.74L104.21,102.38L104.47,101.54L103.86,101.21L103.25,101.36L103.13,100.05L102.9,99.64L103.28,99.64L103.78,100.02L104.54,99.75L105.61,100.18L106.17,100.25L106.16,100.89L107.34,101.09L107.37,100.7L107.78,99.62L107.88,98.77L108.14,98.44L108.22,97.86L108.51,97.33L108.5,96.74L108.18,96.49L108.14,96.13L109.06,95.65L109.37,95.28L109.83,94.37L110.35,93.84L110.75,93.74L111,93.28L111.68,92.61L111.99,92.6L112.53,92.12L113.66,90.72L115.5,88.44L115.83,88.95L116.2,89.15L116.83,89.15L117.22,89.92L117.71,90.49L118.04,91.14L117.78,91.78L118.07,91.95L117.97,92.64L119.04,93.46L119.34,93.53L119.01,93.94L118.5,94.21L118.19,94.74L117.47,95.14L117.3,95.45L117.55,96.21L117.39,97.27L117.89,98.79L117.9,99.3L117.49,99.99L117.79,101.05L118.74,101.99L118.96,102.58L118.79,102.95L118.07,103.45L116.82,103.53L116,104.41L115.59,106.04L114.67,106.93L114.25,107.07L113.5,107.82L112.12,108.64L111.63,108.62L111.43,108.87L110.36,109.02L110.22,108.92L109.47,109.29L109.02,109.04L109.19,108.71L108.84,108.32ZM104.72,109.86L104.9,109.49L105.47,107.71L106,107.81L107.58,110.1L107.93,110.21L108.04,108.4L108.84,108.32L109.19,108.71L109.02,109.04L109.47,109.29L110.22,108.92L110.36,109.02L111.43,108.87L111.63,108.62L112.12,108.64L111.37,109.95L110.5,110.87L110.59,111.24L110.44,111.85L109.86,112.93L109.53,113.19L108.92,114.58L109.24,115.2L110.04,116.17L110.98,116.59L110.75,117.45L110.36,117.98L109.69,117.97L109.62,118.14L108.88,118.18L108.31,118.45L107.25,118.21L107.04,117.81L106.58,117.75L106.42,118.17L106,118.53L105.11,118.55L104.84,119.11L105.03,119.25L104.66,119.78L104.39,119.83L104.46,120.34L103.9,120.26L103.17,119.92L102.41,120.1L102.24,119.56L102.3,118.42L102.57,117.86L102.41,117.43L101.91,117.43L101.55,116.74L101.13,116.4L101.06,115.74L100.4,115.45L100.37,114.32L100.78,113.44L101.23,113.14L101.41,112.5L102.17,111.52L103.01,111.28L103.62,111.26L104.34,110.64ZM102.41,120.1L103.17,119.92L103.9,120.26L104.46,120.34L104.39,119.83L104.66,119.78L105.03,119.25L104.84,119.11L105.11,118.55L106,118.53L106.42,118.17L106.58,117.75L107.04,117.81L107.25,118.21L108.31,118.45L108.88,118.18L109.62,118.14L109.69,117.97L110.36,117.98L110.75,117.45L110.57,118.41L110.94,119.76L110.68,120.38L110.29,120.55L109.64,120.42L109.26,120.63L108.87,121.26L109.06,122.11L109.53,122.77L109.99,122.96L110,123.87L109.8,124.22L108.89,124.43L108,125.12L107.73,125.69L99.31,122.9L99.19,122.64L99.63,122.21L99.9,122.2L100.18,121.67L100.5,121.52L100.54,121.1L100.85,121.13L101.08,120.51L101.49,120.33L102.27,120.39ZM99.56,78.57L99.47,77.5L98.86,76.98L98.73,76.29L99.02,75.23L99.63,74.31L99.34,72.63L98.93,72.4L99.11,71.53L99.3,71.71L100.02,71.56L100.71,72.06L101.26,72.66L101.49,72.65L101.82,73.14L102.66,72.99L103.3,73.62L103.08,73.86L103.96,74.47L104.23,74.99L105,75.28L105.27,75.58L106.73,75.05L107.07,74.52L107.04,74.05L106.64,73.77L107,71.66L107.71,71.72L108.14,71.47L118.11,67.11L117.84,67.54L117.7,68.44L117.34,69.06L117.51,69.46L117.26,69.81L117.44,70.35L117.68,70.35L117.81,71.07L118.24,71.54L118.61,72.27L118.63,72.74L118.95,73.15L118.82,74.11L119.06,74.49L119.68,74.84L119.71,75.87L119.5,77.82L120.57,77.78L120.87,77.44L121.56,78.26L122.12,78L122.31,78.16L122.75,77.72L123.44,77.87L123.49,78.05L124.11,78.06L124.08,78.46L123.41,78.84L123.52,79.49L123.11,79.68L122.6,79.65L121.36,80.1L121.18,81.3L120.81,81.68L120.24,81.27L119.47,81.89L118.47,81.93L118.48,82.46L117.89,82.8L118.12,83.42L117.9,84.1L117.48,84.27L117.75,84.49L117.58,84.9L117.22,85.09L116.86,86.3L116.03,87.13L115.78,87.09L114.91,85.95L114.12,85.86L113.8,86.37L113.86,86.85L114.42,87.22L115.05,87.23L115.23,87.45L115.56,87.17L115.8,87.43L115.5,88.44L113.66,90.72L113.5,90.56L112.76,90.54L111.27,90.03L110.62,90.18L110.23,90.49L110.1,89.99L110.1,88.77L110.27,87.31L109.99,86.44L109.76,86.2L110.14,85.29L110.46,84.99L110.55,83.92L110.04,83.59L110.14,83.21L109.68,82.87L109.86,82.41L109.64,81.87L108.15,81.57L108.02,81.35L107.61,81.78L107.16,81.9L107.09,81.67L105.49,81.72L105.34,82.27L104.97,82.42L103.22,82.46L103.03,82.26L102.6,82.55L102.45,82.26L101.83,82.48L101.62,83L100.76,83.28L100.73,82.76L100.18,82.29L100,81.26L99.52,80.61L99.4,80.1ZM68.38,119.58L69.24,118.9L69.12,118L68.81,117.67L68.84,117.26L68.56,116.87L68.74,116.29L69.28,115.66L69.46,115.44L70,115.5L70.41,115L70.4,114.38L70.63,114.58L70.95,114.23L71.18,114.32L71.58,113.9L71.5,113.61L72.32,113.42L72.71,113.14L73.19,113.27L73.15,113.92L73.28,114.81L73.9,115.31L73.52,115.59L74.03,115.82L74.42,116.55L74.21,116.84L74.47,117.36L74.5,118.1L74.02,118.75L73.9,119.8L73.02,120.31L73.04,120.75L71.86,121.51L71,121.45L70.76,121.01L70.02,121.13L69.62,120.9L69.38,120.53L68.33,120.15ZM72.82,111.9L72.77,111.31L73.16,111.66L73.6,111.73L74.95,111.1L75.05,111.5L75.68,111.38L75.96,110.91L76.88,110.99L77.2,110.72L77.17,110.17L77.64,110.35L78.51,110.13L78.63,110.54L79.32,110.51L79.2,110.95L79.41,111.49L78.6,111.5L78.51,111.8L77.99,112.09L77.81,112.57L78.05,112.66L78.33,113.84L78.2,114.77L77.09,114.96L76.71,115.46L77.14,116.44L76.88,117.44L76.16,117.13L75.32,117.02L74.47,117.36L74.21,116.84L74.42,116.55L74.03,115.82L73.52,115.59L73.9,115.31L73.28,114.81L73.15,113.92L73.19,113.27L73.27,112.79L72.84,112.5ZM56.84,87.22L57.49,86.13L57.07,85.57L57.14,85.21L58.03,84.37L57.92,83.57L58.25,83.33L58.51,82.81L58.4,82.3L58.67,81.24L58.47,80.85L58.76,80.3L58.69,79.88L58.85,79.12L59.34,78.64L59.54,77.85L59.33,77.55L60.2,77.01L60.23,76.55L60.81,76.32L60.87,75.95L61.21,75.66L61.61,76.19L61.5,76.95L62.17,78.56L62.19,79.33L62.39,79.92L62.31,81.01L62.43,81.28L62.29,81.63L62.42,82.35L61.8,83.39L61.39,85.76L61.71,86.28L61.26,87.07L59.97,87.15L59.46,87.02L58.98,87.24L58.66,87.12L57.95,87.38L57.74,87.09ZM68.46,115.15L67.81,114.99L67.51,114.61L67,114.36L66.65,113.61L67,113.46L67.84,113.06L68.17,113.79L68.43,113.82ZM55.06,125.53L54.63,125.57L54.16,125.21L53.9,124.05L53.94,123.43L53.59,123.37L53.02,123.84L52.61,123.96L51.87,123.5L51.23,123.56L51.02,123.83L50.59,123.26L50.26,123.25L49.91,122.81L49.29,122.69L49.21,122.25L49.41,121.86L48.76,121.47L48.76,120.75L48.58,120.5L48.01,120.37L47.83,119.83L47.51,119.69L48.09,119.11L48.03,118.81L48.35,118.47L48.61,118.58L49.23,118.31L49.13,117.7L50.37,117.82L50.98,117.46L51.37,116.92L51.58,116.94L52.47,117.86L52.73,117.72L53.13,117.99L53.89,118L54.06,118.6L53.91,118.96L54.02,119.9L53.76,120.08L53.85,120.7L54.59,121.2L55.23,121.02L55.79,121.62L57.03,121.92L57.77,121.65L57.48,122.41L57.17,122.75L57.09,123.19L56.72,123.19L56.28,123.69L55.66,124.13L55.03,125.42ZM62.51,86.31L61.9,86.48L61.64,87.08L61.26,87.07L61.71,86.28L61.39,85.76L61.8,83.39L62.42,82.35L62.29,81.63L62.43,81.28L63.03,81.03L63.61,81.05L64.51,80.04L65.15,79.19L65.45,78.46L65.62,77.06L66.04,77.7L66.73,77.81L67.1,78.09L67.54,78.89L67.81,78.98L68.03,79.69L67.97,80.37L68.54,80.99L68.89,81.79L69.06,82.68L68.26,83.38L68,83.92L66.3,83.65L66.14,83.16L65.65,82.94L65.09,83.23L64.02,82.93L63.77,83.44L63.42,83.3L63.05,83.9L62.89,84.83L62.95,85.43L62.66,85.62ZM101.39,106.82L101.89,107.11L102.44,108.75L102.97,108.85L103.32,109.81L103.9,109.71L104.72,109.86L104.34,110.64L103.62,111.26L103.01,111.28L102.17,111.52L101.41,112.5L101.23,113.14L100.78,113.44L100.37,114.32L100.4,115.45L100.25,116.35L99.14,117.19L98.41,117.16L97.97,117.33L97.57,117.11L97.26,117.64L96.92,117.65L96.14,118.02L95.99,117.3L95.23,116.77L95.16,116.23L94.79,115.76L93.91,115.27L93.6,115.27L92.84,114.78L92.22,114.63L92.01,114.88L91.48,114.64L91.07,114.82L90.3,114.5L90.28,114.02L89.44,113.77L89.69,113.34L88.63,111.93L87.93,110.84L87.86,110.24L87.99,110.05L88.55,109.96L88.88,110.88L89.67,111.02L90.27,110.84L90.46,111.12L91.25,110.49L91.49,109.3L91.8,108.85L92.37,109.47L93.35,109.43L92.93,108.88L93.79,108.57L94.78,108.54L95.64,108.63L96.72,108.45L96.64,107.94L96.28,107.54L96.47,106.97L96.91,107.02L97.41,106.7L97.61,106.87L98.09,106.71L98.55,107.06L98.95,106.32L99.97,105.76L100.75,106.46ZM90.57,123.19L89.71,123.49L89.4,123.44L89.14,122.73L88.28,122.42L88.29,122.06L87.91,121.22L88.05,120.82L88.68,120.66L88.68,120.09L90.02,119.88L90.02,120.56L91.05,121.3L91.22,121.84L91.52,122.14L92.1,122.36L92.37,122.83L93.56,123.46L94.43,122.65L94.81,121.76L95.37,121.36L96,121.87L99.31,122.9L98.88,123.5L98.72,124.17L98.96,124.78L98.48,124.92L98.3,125.53L98.44,125.84L97.62,126.33L97.26,126.97L96.36,126.36L95.8,126.77L95.56,127.48L95.6,127.89L94.93,128.91L93.96,129.21L93.65,129.54L93.37,129.47L92.54,129.85L91.74,129.84L91.09,130.27L90.63,130.17L90.69,129.64L91.06,129.3L91.55,128.35L91.61,127.55L91.95,127.12L91.88,126.19L91.68,126.03L91.91,125.31L91.32,124.46L91.37,123.84L91.16,123.53ZM65.22,104.32L64.51,104.47L63.95,104.33L63.34,104.4L63.21,104.84L63.02,104.71L62.77,103.97L62.49,103.93L62.35,103.45L61.79,103.27L61.63,102.83L60.63,102.39L60.67,101.64L61.14,101.65L61.07,100.79L61.56,100.51L61.75,100.13L62.32,99.93L62.56,99.42L63.12,99.42L63.38,99.16L64.23,98.99L64.88,98.7L65.97,98.96L66.19,99.28L66.12,100.12L65.72,100.36L65.91,100.76L65.6,100.83L65.42,101.37L65.54,102.38L65.48,102.99L65.52,103.35ZM66.94,87.15L66.62,86.75L66.18,87.25L65.95,87.27L65.68,87.8L65.23,87.95L65.28,88.51L64.89,88.87L64.83,88.46L64.13,88.23L62.81,86.64L62.51,86.31L62.66,85.62L62.95,85.43L62.89,84.83L63.05,83.9L63.42,83.3L63.77,83.44L64.02,82.93L65.09,83.23L65.65,82.94L66.14,83.16L66.3,83.65L66.56,84.09L66.41,84.56L66.7,84.69L66.98,85.67L67.27,85.77L67.47,86.23ZM31.41,2.32L32.11,3.28L31.94,3.93L31.54,4.45L32,4.69L32.31,5.42L33.05,5.69L33.49,5.64L33.75,6.11L33.02,6.93L32.87,7.72L32.46,7.72L32.28,8.12L31.87,8.28L31.5,7.54L31.26,7.53L31.44,8.15L31.2,8.41L31.24,8.83L30.75,9.02L30.09,10.12L29.85,10.2L28.95,11.31L28.56,11.33L28.14,10.98L27.68,10.68L27.92,9.97L26.5,9.53L26.62,8.96L26.54,7.65L25.71,7.54L25.54,6.42L25.44,5.95L26.27,5.74L26.37,5.56L27.37,5.35L29.01,4.67L29.85,4.2L30.3,3.78L30.38,2.97ZM90.02,119.88L89.35,119L89.27,118.35L89.58,117.52L89.8,117.57L89.73,116.91L89.91,116.59L89.88,115.66L90.3,114.5L91.07,114.82L91.48,114.64L92.01,114.88L92.22,114.63L92.84,114.78L93.6,115.27L93.91,115.27L94.79,115.76L95.16,116.23L95.23,116.77L95.99,117.3L96.14,118.02L96.92,117.65L97.26,117.64L97.57,117.11L97.97,117.33L98.41,117.16L99.14,117.19L100.25,116.35L100.4,115.45L101.06,115.74L101.13,116.4L101.55,116.74L101.91,117.43L102.41,117.43L102.57,117.86L102.3,118.42L102.24,119.56L102.41,120.1L102.27,120.39L101.49,120.33L101.08,120.51L100.85,121.13L100.54,121.1L100.5,121.52L100.18,121.67L99.9,122.2L99.63,122.21L99.19,122.64L99.31,122.9L96,121.87L95.37,121.36L94.81,121.76L94.43,122.65L93.56,123.46L92.37,122.83L92.1,122.36L91.52,122.14L91.22,121.84L91.05,121.3L90.02,120.56ZM66.19,99.28L66.79,98.9L67.05,98.99L67.62,98.75L67.59,98.49L68.1,98.93L68.8,98.47L68.8,98.2L69.56,97.84L70.43,98.54L70.55,98.87L70.87,98.69L71.82,98.7L73.7,98.56L73.77,99.07L73.6,99.44L73.77,100.19L74.13,100.73L72.72,100.42L72.69,100.78L73.25,101.22L73.47,101.82L72.67,101.94L72.18,102.58L71.75,102.61L71.2,103.12L71.2,103.47L70.85,103.68L69.94,103.89L69.52,103.11L69.38,102.28L68.77,102.16L68.42,101.75L67.98,102.58L67.57,102.7L67.12,103.91L66.88,103.88L65.48,102.99L65.54,102.38L65.42,101.37L65.6,100.83L65.91,100.76L65.72,100.36L66.12,100.12ZM34.87,17.17L35.09,17.56L36.25,17.6L36.42,17.4L36.93,17.83L37.54,18.03L37.93,17.86L38.02,17.23L38.63,16.16L38.45,15.84L38.54,15.35L38.35,15.15L38.82,14.75L38.23,14.45L38.27,13.81L38.88,12.87L39.31,12.75L39.82,11.59L40.09,11.87L40.98,11.69L40.55,12.12L41.43,12.63L42.31,12.58L42.26,13.06L41.71,13.16L41.75,13.44L42.84,14.68L42.89,15.54L42.83,16.69L42.48,18L42.76,18.57L43.38,18.84L44.06,19.99L43.26,20.35L42.14,20.62L41.71,21.07L40.42,21.86L39.33,23.37L38.97,23.53L39.13,24.06L38.98,24.65L38.67,24.79L38.51,25.23L38.12,25.47L37.94,26.44L37.34,27.72L36.99,28.04L36.91,28.87L37.07,29.34L37.77,30.03L37.66,30.36L37.11,30.04L36.75,30.42L36.18,30.27L36.02,31.87L34.91,32.26L34.88,31.44L34.98,30.35L34.62,30.08L34.46,29.64L34.54,28.57L35.06,28.3L35.17,27.25L34.6,26.86L34.97,25.92L34.86,24.93L35.22,24.57L35.08,24.32L35.14,23.47L35.4,23.28L34.98,22.86L35.11,22.53L34.79,21.81L34.94,21.41L34.8,20.97L35.27,20.68L34.84,19.56L34.49,19.27L34.18,19.35L33.93,18.8L34.19,18.16L34.9,17.93L34.72,17.35ZM88.05,107.26L88.24,106.56L88.51,106.33L89.12,106.4L89.47,106.02L90.16,105.83L90.21,105.45L91.02,105.36L90.94,105.09L91.5,104.74L92.26,104.75L93.01,104.22L93.4,104.27L93.41,103.83L93.66,103.91L94.21,103.43L94.82,103.34L94.9,103.13L95.54,103.16L96.04,102.96L96.3,103.08L97.39,104.05L98.34,104.68L99.19,105.37L99.97,105.76L98.95,106.32L98.55,107.06L98.09,106.71L97.61,106.87L97.41,106.7L96.91,107.02L96.47,106.97L96.28,107.54L96.64,107.94L96.72,108.45L95.64,108.63L94.78,108.54L93.79,108.57L92.93,108.88L93.35,109.43L92.37,109.47L91.8,108.85L91.49,109.3L91.25,110.49L90.46,111.12L90.27,110.84L89.67,111.02L88.88,110.88L88.55,109.96L87.99,110.05L86.82,109.16L86.96,108.94L86.84,107.97L87.11,107.86L87.09,107.35L87.7,107.62L88.05,107.59ZM93.41,103.83L92.64,103.78L92.05,103.18L92.1,103.05L91.46,102.48L91.31,102.13L90.3,101.33L88.76,100.46L88.4,99.6L88.83,99.7L89.08,100.03L89.82,99.29L90.41,99.29L90.85,98.71L91.95,98.3L92.05,97.4L92.58,97.15L92.85,97.37L93.31,96.99L93.72,97.54L94.21,97.42L94.99,97.86L95.32,97.68L95.63,97.91L96.4,98.02L96.69,98.27L97.56,98.56L98.54,98.75L98.9,98.95L99.52,98.64L100.43,99.75L100.26,100L100.65,100.62L100.39,101.09L99.42,101.64L99.92,102.46L99.86,102.88L100.32,103.14L101.16,102.77L100.46,104.63L101.13,104.65L101.82,104.32L101.67,104.87L101.89,105.29L101.47,105.66L101.39,106.82L100.75,106.46L99.97,105.76L99.19,105.37L98.34,104.68L97.39,104.05L96.3,103.08L96.04,102.96L95.54,103.16L94.9,103.13L94.82,103.34L94.21,103.43L93.66,103.91ZM76.16,104.66L77.25,104.35L77.59,103.97L78.57,103.32L78.96,103.25L79.65,103.77L80.19,103.54L80.34,103.63L80.21,104.39L80.69,105.18L81.64,105.54L82.21,105.31L82.17,105.99L82.67,106.02L82.85,106.44L83.46,107.59L83.23,107.93L82.46,108.21L81.93,108.72L81.22,108.65L81.11,109.08L80.5,108.9L80.2,109.73L79.28,110.19L79.32,110.51L78.63,110.54L78.51,110.13L77.64,110.35L77.17,110.17L76.69,108.83L76.83,108.55L76.51,107.96L76.86,107.43L76.7,106.48L76.9,106.19L76.43,105.93L76.04,105.35L76.33,104.93ZM70.79,125.65L70.81,126L70.54,126.62L70.51,127.08L70.14,127.22L70.06,127.89L70.23,128.58L70.17,129.7L69.84,130.94L69.88,131.29L69.34,131.27L69.39,130.53L69.24,130.43L68.88,129.4L68.78,128.64L68.08,127.78L67.6,127.72L67.26,128.11L67.17,127.61L67.51,126.85L67.08,125.88L67.08,125.36L67.31,125L67.05,124.2L67.01,123.03L66.45,122.14L66.57,121.26L67.12,120.77L67.49,120.75L67.99,120.38L67.98,119.73L68.38,119.58L68.33,120.15L69.38,120.53L69.62,120.9L69.03,121.04L69.44,121.36L69.77,121.31L70.12,121.6L70.13,122.06L69.86,122.34L69.9,122.97L70.25,123.61L70.17,124.22L70.62,125.04ZM72.62,87.69L72.98,87.9L73.59,87.67L73.97,87.33L74.8,87.44L75.22,87.15L75.86,87.58L77.2,87.65L77.1,88.12L77.82,88.67L77.95,89.06L77.84,89.54L78.33,89.5L79.45,90.64L80.34,91L80.41,91.38L80.98,91.67L80.74,92.33L81.22,92.41L81.25,92.87L82.1,93.19L82.67,93.18L83.39,94.17L84.16,94.57L84.7,95.27L84.7,95.94L84.28,96.74L84.21,96.8L83.84,96.53L83.39,96.55L82.72,96.14L82.09,95.97L81.58,96.06L80.96,96.52L80.21,96.88L78.92,97.2L77.48,97.07L76.43,97.37L76.49,98.31L76.19,97.97L75.72,97.86L75.52,97.38L75.18,97.19L74.51,97.66L74.36,98.45L73.94,98.37L73.77,97.95L73.12,97.16L72.79,97.12L72.38,96.56L71.86,96.39L71.83,95.99L71.5,95.14L71.68,94.83L72.31,94.41L71.51,93.51L71.18,93.71L70.63,92.88L71.2,92.07L70.44,91.61L69.49,92.18L68.65,91.77L68.01,91.49L67.91,90.74L67.56,90.6L67.98,89.7L67.86,89.02L68.12,88.72L67.9,88.07L67.68,88L67.37,87.26L67.01,87.61L66.94,87.15L67.47,86.23L67.27,85.77L66.98,85.67L66.7,84.69L66.41,84.56L66.56,84.09L66.3,83.65L68,83.92L68.26,83.38L69.06,82.68L69.14,84.37L69.5,84.48L69.63,84.84L70.05,85.07ZM91.46,102.48L90.98,102.55L89.21,103.48L88.26,103.19L87.93,102.97L86.87,102.72L86.3,102.42L85.8,102.46L85.42,101.74L84.83,101.45L84.74,101.19L84.04,101.02L82.87,101.22L83.22,100.11L83.77,99.92L83.85,99.54L83.37,99.19L82.8,99.06L82.59,98.76L81.98,98.71L82.52,98.09L82.48,97.9L83.09,97.6L83.33,97.06L83.91,97.1L84.21,96.8L84.28,96.74L85.2,96.84L86.31,97.28L87.01,97.24L87.22,97.06L87.46,97.1L87.83,97.61L88.75,97.41L88.99,97.6L89.02,98.17L89.54,98.77L90,98.56L90.17,97.57L91.44,97.46L92.05,97.4L91.95,98.3L90.85,98.71L90.41,99.29L89.82,99.29L89.08,100.03L88.83,99.7L88.4,99.6L88.76,100.46L90.3,101.33L91.31,102.13ZM81.76,117.49L81.03,116.57L80.62,116.35L81.01,115.88L80.38,114.84L80.53,114.39L80.14,113.85L80.04,113.45L80.73,113.56L81.67,113.15L81.79,112.81L82.41,112.74L82.7,112.68L83.21,113.04L83.74,113.77L84.37,113.88L84.68,114.65L85.27,114.8L85.86,115.32L85.96,115.64L85.28,115.72L85.12,115.91L84.88,115.39L84.14,115.49L83.67,114.81L83.39,114.67L83.4,115.12L82.93,115.56L82.28,115.78L81.76,116.51L82.03,116.65ZM99.11,71.53L98.81,71.22L98.84,70.87L98.43,69.64L97.59,68.65L96.62,68.57L96.33,67.74L96.37,67.24L105.3,65.2L108.53,62.53L109.07,62.12L109.75,61.73L110.22,60.89L111,60.38L111.09,60.96L111.55,61.08L112.12,61.54L112.41,62L112.79,62.19L113.21,62.71L113.3,63.15L113.91,63.92L114.78,63.74L114.89,63.16L115.51,62.97L115.68,62.49L116.59,62.34L117.1,61.58L117.02,60.67L117.18,59.87L116.74,59.85L117.15,59.04L117.62,59.04L118.58,58.77L118.85,58.23L119.28,58.35L119.6,58.96L120.36,59.09L121,59.9L120.59,60.48L120.01,61.05L119.84,61.44L119.27,61.81L119.3,62.03L118.76,62.68L118.75,63.05L118.12,63.26L117.76,63.73L117.56,64.74L117.65,65.19L118.24,65.78L118.1,66.25L118.11,67.11L108.14,71.47L107.71,71.72L107,71.66L106.64,73.77L107.04,74.05L107.07,74.52L106.73,75.05L105.27,75.58L105,75.28L104.23,74.99L103.96,74.47L103.08,73.86L103.3,73.62L102.66,72.99L101.82,73.14L101.49,72.65L101.26,72.66L100.71,72.06L100.02,71.56L99.3,71.71ZM75.34,132.47L75.39,131.13L75.93,130.43L76.49,130.37L77.12,129.94L77.63,129.81L78.34,129.37L78.61,129.36L79.6,128.91L79.96,128.36L80.07,127.65L80.75,126.84L81.1,126.11L81.79,125.9L81.86,126.57L81.69,126.73L81.93,127.19L81.89,127.69L82.66,127.51L83.04,126.98L83.25,126.21L83.73,126.06L84.21,125.64L84.15,125.19L85.23,125.37L85.96,125.13L86.01,125.6L86.89,125.41L87.24,124.76L88.33,124.67L88.66,124.27L89.08,124.39L89.83,124.29L90.19,123.56L90.57,123.19L91.16,123.53L91.37,123.84L91.32,124.46L91.91,125.31L91.68,126.03L91.88,126.19L91.95,127.12L91.61,127.55L91.55,128.35L91.06,129.3L90.69,129.64L90.63,130.17L91.09,130.27L91.74,129.84L92.54,129.85L93.37,129.47L93.65,129.54L93.96,129.21L94.93,128.91L95.6,127.89L95.56,127.48L95.8,126.77L96.36,126.36L97.26,126.97L97.62,126.33L98.44,125.84L98.3,125.53L98.48,124.92L98.96,124.78L98.72,124.17L98.88,123.5L99.31,122.9L107.73,125.69L107.29,126.78L107.45,127.8L107.2,128.71L106.71,129.46L106.12,129.03L105.5,129.31L104.68,129.32L104.75,129.95L104.38,129.99L104.13,130.7L104.22,131.33L103.91,131.68L103.97,132.11L103.08,132.46L102.51,132.35L102.36,132.71L101.53,132.47L101.21,132.21L100.91,132.37L100.67,131.92L100.29,131.96L99.73,131.5L99.58,130.87L98.44,130.35L97.82,130.4L97.03,130.01L96.53,129.94L96.1,130.12L95.21,130.07L95.14,130.46L93.9,131.06L92.85,130.5L92.66,130.66L91,130.56L90.52,130.31L89.65,130.4L88.95,130.15L88.79,129.85L87.37,129.77L87.03,130.33L86.43,130.41L86.05,130.64L85.24,130.83L83.94,130.98L83.41,130.87L82.72,131.09L83.63,131.52L84.23,132.09L84.51,132.12L84.71,131.75L85.31,131.94L83.12,133.3L82.44,132.87L81.96,133.13L82.11,133.54L82,134.33L82.08,134.99L81.64,136.33L81.78,136.63L82.44,137.06L82.61,137.34L82.42,137.92L82.32,138.83L82.37,139.45L81.84,139.91L81.17,140.99L81.18,141.63L80.59,141.69L80.29,142.05L79.77,142.24L79.87,141.65L79.74,141.18L80.02,140.32L79.84,139.93L79.27,139.6L79.34,138.88L79.06,138.53L79.32,138.28L78.87,137.77L78.57,137.01L78.8,136.34L77.84,136.41L77.04,135.61L77.02,135.32L77.62,134.81L77.65,134.2L77.28,133.38L76.05,133.09L75.8,132.55ZM58.98,102.78L59.03,101.67L58.79,101.46L58.86,100.83L58.71,100.31L58.95,99.37L58.92,98.59L59.54,98.44L59.73,97.45L60.2,97.45L61.56,97.18L61.68,97.04L61.46,95.99L61.21,95.31L61.47,94.77L61.99,94.23L62.91,93.97L63.19,93.4L63.49,93.98L64.15,94.59L64.07,95.43L64.3,95.8L64.86,96.03L65.05,96.33L65.1,96.97L65.79,97.42L66.14,98.27L65.97,98.96L64.88,98.7L64.23,98.99L63.38,99.16L63.12,99.42L62.56,99.42L62.32,99.93L61.75,100.13L61.56,100.51L61.07,100.79L61.14,101.65L60.67,101.64L60.63,102.39L60.4,102.32L60.5,102.92L60.38,103.39L59.72,103.37L59.76,102.34ZM64.9,136.55L64.66,137.39L64.44,137.47L63.97,138.58L63.33,138.63L62.67,137.96L62.17,136.9L61.44,136.75L61.52,136.16L61.78,135.88L61.79,135.28L61.2,134.66L60.88,134.9L60.39,134.25L59.51,134.23L59.79,133.87L59.66,133.31L60.19,132.98L60.98,132.74L61.38,132.03L61.66,131.99L61.8,131.57L62.11,131.62L62.06,130.91L63.37,129.96L63.48,129.48L64.45,129.19L64.91,128.26L65.35,128.13L65.9,128.21L65.96,128.62L66.29,128.91L66.19,129.29L66.4,129.71L66.32,129.92L66.2,130.27L65.61,130.98L65.62,132L65.48,133.84L65.67,134.88L65.29,135.31ZM86.02,63.39L86.03,64.06L85.74,64.3L85.66,64.78L85.3,64.99L85.08,65.43L85.12,65.89L84.92,66.33L84.97,66.94L84.18,67.76L83.92,67.47L82.44,67.77L81.92,68.27L81.46,67.96L80.9,68.02L80.62,68.67L80.24,67.49L80.48,66.87L81.06,66.35L81.29,66.36L81.07,65.69L81.26,65.37L81.08,64.75L81.35,63.97L81.02,63.34L81.22,62.73L80.91,62.52L81.46,62.33L81.5,62.05L80.99,61.81L81.19,60.96L80.46,60.75L80.26,60.15L79.53,60.19L79.57,61.02L79.24,61.26L79.13,62.05L78.88,61.98L78.48,62.3L77.82,62.12L77.39,62.24L77,62.62L76.36,62.83L76.15,62.61L75.26,62.95L74.88,62.77L74.47,63.16L73.82,63.19L73.04,62.86L72.72,62.38L71.93,62.15L71.61,62.7L71.45,62.41L70.61,62.78L69.39,62.38L70.05,61.25L70.02,60.54L70.43,59.83L70.23,58.82L70.47,57.73L69.85,57.42L69.59,56.54L69.39,56.4L69.24,55.03L68.91,54.59L68.29,54.22L67.99,53.65L68,53.13L68.37,53.06L69.05,52.52L69.26,52.18L69.91,52.21L70.05,51.86L69.81,51.41L70.17,51.35L70.06,50.44L70.53,49.97L70.78,49.41L70.63,48.43L70.92,48.01L71.42,47.99L72.07,48.27L72.37,48.14L72.8,47.54L72.97,47.29L73.59,47.37L74.04,47.08L74.38,47.36L74.43,48.2L74.58,48.45L74.29,48.93L74.32,49.7L74.72,50.31L74.71,51.8L75.4,51.75L75.57,51.24L76.28,51.21L76.99,51.38L77.41,52.34L77.73,52.47L77.73,53.9L77.95,53.94L78.15,54.55L78.98,55.38L79.13,55.89L81.53,55.97L81.48,56.12L82.19,56.7L82,57.11L82.4,57.6L82.12,58.27L82.53,58.74L82.51,59.18L83.03,59.45L83.88,59.6L84.2,60.47L84.2,61.28L83.97,61.59L84.2,61.86L84.83,62.02L85.3,62.78L85.17,63.14L85.6,63.28L85.73,63.59ZM60.79,124.78L61.44,125.09L61.5,125.26L60.47,127.22L59.95,127.55L59.28,127.76L59.16,126.89L58.91,127.26L57.85,127.35L57.34,126.46L56.9,126.39L56.72,125.96L56.23,125.45L56.36,124.51L56.18,124.07L56.28,123.69L56.72,123.19L57.09,123.19L57.17,122.75L57.48,122.41L58.38,122.81L58.68,123.29L59.45,123.73L59.61,124.09L60.35,124.37ZM61.97,116.98L62.31,117.19L62.32,118.44L61.92,118.42L61.65,118.77L61.15,119.84L60.9,120L60.29,119.95L59.95,119.66L59.26,119.94L58.57,119.43L58.1,119.47L57.73,118.52L57.19,118.06L57.07,117.56L57.49,116.23L57.52,115.7L58.59,115.68L58.92,115.48L59.63,115.52L60.02,114.86L61.17,114.21L61.11,114.7L61.33,114.78L61.35,115.59L61.82,116.04ZM64.44,74.72L64.64,75.59L65.15,75.94L65.18,76.43L65.62,77.06L65.45,78.46L65.15,79.19L64.51,80.04L63.61,81.05L63.03,81.03L62.43,81.28L62.31,81.01L62.39,79.92L62.19,79.33L62.17,78.56L61.5,76.95L61.61,76.19L61.21,75.66L61.73,75.54L62.1,75.04L62.67,74.81L63.07,74.86L63.77,74.59ZM33.95,33.48L29.47,38.05L29.14,38.09L28.72,38.53L28.39,38.43L27.65,38.61L27.29,39.03L26.97,38.74L26.47,39.21L26.21,39.09L25.66,39.71L25.11,39.71L24.3,40.09L23.4,39.38L23.08,39.64L21.69,40.08L20.92,40.01L21.03,40.43L20.64,40.52L20.39,41.56L19.95,41.73L19.28,41.4L18.81,41.9L18.35,42.12L18.28,42.65L17.61,43.17L17.67,43.79L17.46,44.14L17.55,44.76L17.8,45.2L17.72,45.58L18.05,46.09L17.66,46.24L17.78,46.62L17.67,47.99L18.16,48.61L17.56,49.33L17.89,50.21L17.68,50.44L18.42,50.48L18.92,51.04L18.89,51.39L18.55,51.5L19.23,51.92L19,52.03L19.22,52.42L19.33,52.12L19.85,52.65L19.95,53.01L20.71,52.98L21.27,53.3L21.67,53.19L22.12,53.76L21.97,54.12L22.88,55.81L24.13,56.55L24.5,57.7L24.8,57.94L24.57,58.14L24.89,58.71L23.28,58.73L18.4,54.38L17.4,53.98L14.35,53.98L12.83,53.88L12.53,53.69L11.73,51.46L10.04,50.24L8.56,48.85L5.38,45.52L5.16,45.43L4.89,43.78L5.34,43.59L5.81,43.88L6.24,43.83L6.84,42.99L7.76,42.73L8.21,42.14L8.88,41.53L9.51,39.82L9.65,39.1L9.29,38.73L10.02,38.49L10.17,38.26L9.94,37.65L10.04,36.63L10.32,35.73L10.71,35.23L11.36,35.2L11.83,34.99L12.35,34.45L12.73,33.69L12.49,32.59L12.19,32.39L12.02,31.5L12.07,30.45L12.27,29.33L11.56,28.52L11.07,27.02L10.99,25.87L12.23,25.95L12.04,26.65L11.48,26.37L11.54,27.63L11.98,28.85L12.69,28.96L12.92,28.3L12.5,27.73L13.25,28.1L13.07,28.38L13.2,28.85L13.84,28.97L12.92,29.43L13.22,29.75L12.84,29.86L12.52,29.57L12.51,30.06L12.25,30.41L12.13,31.17L12.61,31.66L12.99,32.71L13.41,32.68L14.28,32.26L14.81,31.71L14.71,31.15L16.69,30.82L17.62,30.77L17.58,31.03L16.89,31.41L16.21,31.52L16.1,31.79L16.41,32.84L17.36,32.56L17.02,33.14L15.7,33.44L15.41,33.73L15.76,33.98L16.81,34.04L17.09,34.4L16.95,34.76L16.24,34.16L15.49,34.27L15.59,34.57L16.05,34.71L16.03,35.08L16.96,35.49L16.65,35.85L16.31,35.57L15.36,35.64L15.37,35.32L14.99,34.72L14.12,34.65L13.75,34.84L13.28,35.5L13.11,36.29L13.46,36.57L13.17,36.92L13.14,37.87L12.96,38.95L13.39,39.97L13.82,40.2L14.9,40.46L15.67,40.55L17.81,40.57L19.76,40.27L20.58,39.78L20.52,39.28L19.99,38.86L20.63,38.99L20.94,38.64L20.74,38.12L21.49,37.32L21.08,36.31L20.63,36.31L20.8,36.06L20.62,35.66L21.11,35.67L21.43,35.25L21.08,34.75L21.77,34.85L21.97,33.96L21.43,32.89L21.11,32.7L21.21,33.57L20.83,33.9L20.8,33.27L20.93,31.88L20.6,31.98L20,31.53L20.66,30.83L20.97,29.54L20.59,28.37L20.31,26.58L20.09,26.01L19.63,25.74L19.51,25.4L19.59,25.26L20.45,25.21L20.64,25.54L21.19,25.46L21.55,24.71L22.01,24.59L23.27,24.92L23.44,24.16L23.3,23.69L23.78,23.79L24.61,23.38L24.67,23.08L25.4,23.01L25.96,22.5L26.15,21.34L26.56,21.25L27.41,20.06L28.12,19.82L29.18,20.13L30.86,20.3L31.65,21.01L31.78,21.34L32.75,20.89L33.17,20.99L33.44,21.42L33.89,21.17L33.66,20.46L33.13,20.17L33.29,19.7L33.33,18.61L33.6,17.74L33.74,17.79L34.46,17.14L34.73,16.62L35.22,16.86L34.87,17.17L34.72,17.35L34.9,17.93L34.19,18.16L33.93,18.8L34.18,19.35L34.49,19.27L34.84,19.56L35.27,20.68L34.8,20.97L34.94,21.41L34.79,21.81L35.11,22.53L34.98,22.86L35.4,23.28L35.14,23.47L35.08,24.32L35.22,24.57L34.86,24.93L34.97,25.92L34.6,26.86L35.17,27.25L35.06,28.3L34.54,28.57L34.46,29.64L34.62,30.08L34.98,30.35L34.88,31.44L34.91,32.26L34.64,32.36L34.62,33.44ZM52.97,79.04L52.55,79.5L52.16,80.66L51.52,81.08L51,80.91L50.08,81.56L49.74,81.59L48.98,82.22L48.58,82.1L48.04,82.44L47.57,82.45L47.28,82.87L47.69,83.86L47.3,84.35L46.51,84.4L46.11,84.42L45.08,85.57L44.63,85.41L44.09,84.97L43.45,84.83L43.49,84.49L42.39,84.56L41.89,83.84L41.36,83.39L41.4,82.95L41.96,82.45L42.23,81.54L41.62,80.72L41.58,80.34L41.84,79.77L42.7,79.92L44.47,79.92L45.16,79.18L45.42,79.36L46.31,79.58L46.43,79.85L47.11,79.93L48.49,80.73L48.85,80.44L49.25,80.61L50.17,80.12L50.3,79.82L50.85,79.57L51.23,78.58L51.51,78.23L52.25,78.18L52.4,78.76ZM44.81,95.19L45.09,95.54L46.07,95.98L46.78,96.81L47.33,96.8L47.72,97.38L48.34,97.33L48.43,97.93L48.74,98.65L49.13,98.78L49.02,99.06L48.01,100.02L47.94,100.6L48.3,100.99L48.93,100.83L49.1,101.23L49.73,101.73L49.93,102.71L49.76,104.13L50.18,104.2L50.86,104.7L51.13,104.58L51.32,105.06L52.01,105.5L51.95,106.65L51.6,107.04L51.69,107.29L51.35,108L50.65,108.43L50.41,108.81L49.54,108.99L49.58,110.39L49.96,110.6L50.11,111.07L49.87,111.67L50.28,112.15L50.21,112.43L50.83,112.78L50.74,114.02L51.04,115.18L51.31,115.73L51.2,116.11L51.67,116.58L51.58,116.94L51.37,116.92L50.98,117.46L50.37,117.82L49.13,117.7L49.23,118.31L48.61,118.58L48.35,118.47L48.03,118.81L48.09,119.11L47.51,119.69L47.18,119.08L46.48,119.01L46.07,119.85L45.54,119.93L44.92,119.69L44.38,119.12L44.48,118.77L44.3,118.03L43.59,117.37L43.38,116.51L43.42,115.46L43.17,114.78L43.22,113.97L43.01,113.68L43.15,113.07L42.7,112.89L42.86,112.17L42.28,112.03L41.69,111.18L41.17,111.35L40.75,111.13L39.73,111.8L39.3,111.5L38.02,111.42L37.84,111.66L37,111.69L36.53,111.84L35.9,111.8L34.77,112.12L34.52,112.76L34.16,112.95L33.11,112.84L32.9,112.55L32.93,111.75L32.17,111.08L31.09,110.82L30.73,111.21L30.71,111.57L30.38,111.69L29.88,110.71L30.03,109.77L29.92,109.27L29.84,107.9L29.58,107.15L29.78,106.69L29.93,105.06L29.82,103.92L29.52,103.37L29.28,103.29L29.07,102.71L29.41,102.43L28.82,101.69L29.05,99.8L28.99,99.45L28.37,98.83L28.05,98.06L27.45,97.59L28.09,97.01L28.21,96.28L28.7,96.09L29.17,95.36L29.87,95.43L30.16,95.99L30.26,96.79L29.91,97.17L30.36,97.86L30.8,98.11L31.11,97.99L31.49,98.52L31.52,99.18L32.04,99.48L32.68,99.02L32.97,97.46L33.62,96.72L34.8,95.72L34.79,95.41L35.14,95.44L35.87,95.15L36.52,95.67L36.8,96.8L37.35,97.05L37.26,97.89L37.57,98.44L38.41,98.79L39.25,98.41L39.32,97.97L40.24,97.31L40.63,97.54L41.28,97.44L42.16,96.07L43.01,96.06L43.43,95.65ZM80.62,68.67L80.38,68.76L80.12,68.28L79.52,68.14L79.22,68.77L78.92,68.77L79,69.27L78.64,69.82L77.53,70.15L77.33,70.88L76.83,71.12L76.71,71.77L76.15,72.68L76.2,72.97L75.66,73.63L75.69,73.93L75.3,74.25L75.34,74.58L74.54,74.72L73.83,75.12L73.83,75.8L73.38,76.16L72.55,75.68L72.49,74.39L72.14,73.67L72.3,72.69L72.97,72.06L73.31,70.9L73.53,70.75L73.48,69.61L73.66,69.19L74.62,68.31L74.72,67.75L74.5,67.84L74.32,67.47L73.89,67.3L73.37,66.74L73.21,66.27L72.87,66.14L72.7,65.57L72.2,65.66L71.75,65.97L71.02,65.8L70.95,65.55L71.35,64.68L71.34,63.99L71.56,63.77L71.61,62.7L71.93,62.15L72.72,62.38L73.04,62.86L73.82,63.19L74.47,63.16L74.88,62.77L75.26,62.95L76.15,62.61L76.36,62.83L77,62.62L77.39,62.24L77.82,62.12L78.48,62.3L78.88,61.98L79.13,62.05L79.24,61.26L79.57,61.02L79.53,60.19L80.26,60.15L80.46,60.75L81.19,60.96L80.99,61.81L81.5,62.05L81.46,62.33L80.91,62.52L81.22,62.73L81.02,63.34L81.35,63.97L81.08,64.75L81.26,65.37L81.07,65.69L81.29,66.36L81.06,66.35L80.48,66.87L80.24,67.49ZM68.88,136.23L68.26,136.31L67.33,137.18L66.98,137.18L65.92,137.66L65.22,137.25L65.05,136.53L64.9,136.55L65.29,135.31L65.67,134.88L65.48,133.84L65.62,132L65.61,130.98L66.2,130.27L66.32,129.92L66.47,129.86L67.38,130.65L67.11,131.61L67.3,132.17L67.06,132.55L67.18,133.31L67.46,133.56L68.08,133.09L68.52,133.4L69.13,133.56L69.16,133.88L68.7,134.15L68.48,134.72L68.71,135.15ZM96.03,88.71L96.02,88.11L96.54,87.82L96.79,87.43L96.97,86.22L96.59,85.85L96.61,85.54L97.02,85.58L97.41,85.1L97.83,84.91L98.09,84.47L98.16,83.82L97.65,83.28L98.27,82.77L98.28,82.35L97.85,82.11L98.01,81.79L97.81,81.41L98.09,81.29L98.3,80.42L98.88,80.38L98.94,79.57L99.56,78.57L99.4,80.1L99.52,80.61L100,81.26L100.18,82.29L100.73,82.76L100.76,83.28L101.62,83L101.83,82.48L102.45,82.26L102.6,82.55L103.03,82.26L103.22,82.46L104.97,82.42L105.34,82.27L105.49,81.72L107.09,81.67L107.16,81.9L107.61,81.78L108.02,81.35L108.15,81.57L109.64,81.87L109.86,82.41L109.68,82.87L110.14,83.21L110.04,83.59L110.55,83.92L110.46,84.99L110.14,85.29L109.76,86.2L109.99,86.44L110.27,87.31L109.4,87.08L109.39,86.8L108.86,87.04L108.3,86.73L107.77,86.68L107.43,87.08L107.62,87.3L106.73,87.23L106.68,86.91L106.3,86.75L106.1,87.13L105.83,86.95L105.16,87.35L104.86,87.35L103.99,86.74L102.75,86.97L102.79,87.27L101.93,87.95L101.5,87.91L100.99,88.64L101.03,88.06L100.47,88.31L100.35,88.66L99.67,89.4L99.13,89.56L98.91,89.4L98.25,89.58L97.65,89.27L96.69,89.16L96.44,89.03L96.36,88.56ZM61.15,119.84L62.15,119.77L62.33,119.62L63.46,120.61L63.93,120.63L64.55,120.78L64.58,121.15L63.84,121.8L64.03,122.1L63.86,122.42L62.6,122.84L61.69,122.82L61.19,122.97L60.64,123.5L60.7,123.78L61.15,123.99L60.79,124.78L60.35,124.37L59.61,124.09L59.45,123.73L58.68,123.29L58.38,122.81L57.48,122.41L57.77,121.65L58.38,120.61L58.47,120.01L58.1,119.47L58.57,119.43L59.26,119.94L59.95,119.66L60.29,119.95L60.9,120ZM27.82,93.5L27.72,94.04L28.44,95.09L28.21,96.28L28.09,97.01L27.45,97.59L28.05,98.06L28.37,98.83L28.99,99.45L29.05,99.8L28.82,101.69L29.41,102.43L29.07,102.71L29.28,103.29L29.52,103.37L29.82,103.92L29.93,105.06L29.78,106.69L29.58,107.15L29.84,107.9L29.92,109.27L30.03,109.77L29.88,110.71L30.38,111.69L30.71,111.57L30.73,111.21L31.09,110.82L32.17,111.08L32.93,111.75L32.9,112.55L33.11,112.84L32.14,112.5L31.86,112.73L31.89,113.17L31.28,112.8L30.12,112.39L29.54,112.46L28.37,112.35L27.33,111.83L26.85,112.07L26.66,111.84L25.61,112.22L24.84,112.85L24.42,112.64L23.87,112.79L23.73,112.59L23.21,113.07L21.92,112.73L21.74,112.46L22,111.84L21.7,111.58L21.85,110.9L21.47,110.42L21.63,109.99L21.24,109.98L20.27,109.39L20.11,109.01L20.53,108.45L20.33,108.01L19.39,107.96L19.08,107.38L19.14,106.98L18.87,106.58L18.97,106.28L19.32,106.28L19.16,105.87L18.83,105.76L18.93,105.23L19.52,104.92L19.5,104.47L18.96,104.26L19.08,103.98L19.78,104L19.69,103.31L18.77,102.82L18.7,102.26L19.6,102.35L20.02,101.87L19.62,101.55L19.11,101.84L18.61,101.61L18.72,101.07L19.21,100.57L19.28,100.08L19.51,100.51L19.81,100.28L19.39,99.51L18.78,99.21L18.5,98.74L18.23,98.79L17.77,99.55L17.62,99.58L17.48,98.83L17.66,98.03L16.83,98.23L16.57,97.79L16.31,96.49L15.77,96.05L15.35,96.13L14.86,96.49L14.38,95.77L14.37,95.35L14.68,94.74L14.98,94.51L15.84,94.51L16.04,94.23L15.93,93.85L15.32,93.62L14.55,93.82L14.02,93.76L13.8,93.42L13.88,93.04L14.51,92.26L14.18,91.88L13.95,91.95L13.31,92.93L12.76,92.61L12.62,91.32L12.05,91.77L11.68,91.57L11.68,91.24L12.34,90.9L12.58,90.47L12.92,90.3L12.81,89.92L12.45,89.7L12.04,89.75L11.52,88.9L11.74,88.17L11.61,87.41L11.9,86.94L11.33,86.64L11.41,86.02L11.78,85.89L13,86L13.49,84.78L13.97,84.86L14.31,85.35L13.83,85.91L14.08,86.32L13.62,87.29L13.74,87.5L14.27,87.5L14.42,88.34L14.82,88.33L15.52,89.37L15.51,89.75L15.99,89.91L15.69,90.24L15.84,90.74L15.54,91.5L15.78,91.91L16.41,92.42L16.84,92.53L17.74,92.46L18.87,92.67L19.55,93.04L20.51,93.22L21.16,93.1L21.84,92.76L22.23,92.28L23,92.38L23.25,92.92L24.18,92.81L24.81,93.01L25.18,92.94L25.85,93.16L26.61,93.07ZM110.27,87.31L110.1,88.77L110.1,89.99L110.23,90.49L109.4,90.44L109.02,90.85L108.66,90.94L108.28,91.35L107.88,90.96L107.33,90.78L107.17,91.31L106.68,91.54L106.53,91.84L106,92L105.7,91.74L105.34,91.07L104.99,91.6L104.33,91.97L103.58,92.06L103.57,92.55L102.6,92.55L102.25,92.09L101.97,92.44L101.55,92.44L101.09,93.13L100.38,93.21L99.7,92.81L98.53,93.12L97.49,93.3L96.51,93.34L96.46,92.43L95.6,92.3L95.01,92.02L95.17,91.71L95.12,90.98L94.93,90.44L96,90.03L96.69,89.16L97.65,89.27L98.25,89.58L98.91,89.4L99.13,89.56L99.67,89.4L100.35,88.66L100.47,88.31L101.03,88.06L100.99,88.64L101.5,87.91L101.93,87.95L102.79,87.27L102.75,86.97L103.99,86.74L104.86,87.35L105.16,87.35L105.83,86.95L106.1,87.13L106.3,86.75L106.68,86.91L106.73,87.23L107.62,87.3L107.43,87.08L107.77,86.68L108.3,86.73L108.86,87.04L109.39,86.8L109.4,87.08ZM79.23,80.52L78.78,80.67L78.68,81.13L78.17,81.11L78.05,81.77L77.76,81.76L77.34,82.33L76.73,82.38L76.48,82.09L76.07,82.14L75.46,82.81L74.89,82.76L74.51,83.27L74.29,84.06L73.91,83.94L73.35,84.41L73.48,84.83L73.27,85.57L72.59,86.16L72.55,86.57L72.84,87.17L72.62,87.69L70.05,85.07L69.63,84.84L69.5,84.48L69.14,84.37L69.06,82.68L68.89,81.79L68.54,80.99L67.97,80.37L68.03,79.69L67.81,78.98L67.54,78.89L67.1,78.09L66.73,77.81L66.04,77.7L65.62,77.06L66.73,76.72L66.89,76.41L67.69,75.88L67.99,75.5L68.27,75.77L68.32,76.62L68.76,77.34L69.29,77.24L69.78,77.54L69.71,77.95L70.05,78.15L69.91,78.59L70.49,78.37L70.72,78.62L71.43,78.14L72,77.97L72.39,76.66L72.2,76.24L73.38,76.16L73.83,75.8L73.83,75.12L74.54,74.72L75.34,74.58L75.3,74.25L75.69,73.93L75.66,73.63L76.2,72.97L76.15,72.68L76.71,71.77L76.83,71.12L77.33,70.88L77.53,70.15L78.64,69.82L79,69.27L78.92,68.77L79.22,68.77L79.52,68.14L80.12,68.28L80.38,68.76L79.74,69.37L79.51,70.54L79.31,70.6L79.13,71.27L79.26,71.77L79.11,72.95L79.39,73.65L79.18,73.99L79.25,74.84L78.9,75.19L78.74,75.87L78.82,76.84L78.57,77.34L78.59,78.5L78.25,78.67L77.91,80.09L78.1,80.48ZM88.32,87.3L88.88,87.21L88.97,87.44L90.18,87.87L91.78,88.7L91.95,88.03L91.51,88.07L91.34,87.41L90.86,86.72L91.16,86.24L91.11,85.73L91.77,85.12L92.22,85.79L92.92,86.07L93.38,86.65L94.2,87.1L94.47,87.65L95.26,88.11L95.52,88.58L96.03,88.71L96.36,88.56L96.44,89.03L96.69,89.16L96,90.03L94.93,90.44L95.12,90.98L95.17,91.71L95.01,92.02L95.6,92.3L96.46,92.43L96.51,93.34L97.49,93.3L98.53,93.12L99.7,92.81L100.38,93.21L101.09,93.13L101.55,92.44L101.97,92.44L102.25,92.09L102.6,92.55L103.57,92.55L103.58,92.06L104.33,91.97L104.99,91.6L105.34,91.07L105.7,91.74L106,92L106.53,91.84L106.68,91.54L107.17,91.31L107.33,90.78L107.88,90.96L108.28,91.35L108.66,90.94L109.02,90.85L109.4,90.44L110.23,90.49L110.62,90.18L111.27,90.03L112.76,90.54L113.5,90.56L113.66,90.72L112.53,92.12L111.99,92.6L111.68,92.61L111,93.28L110.42,93.19L109.26,92.55L108.44,92.63L108.44,93.03L108.05,93.87L107.34,94.08L107.11,93.9L105.97,94.07L105.61,93.75L105.22,93.99L104.73,93.52L104.15,93.39L103.84,93.64L103.47,93.37L102.79,93.92L102.68,94.55L102.23,95.05L101.06,94.27L98.53,96.7L98.47,97.74L98.98,97.83L99.37,98.2L99.52,98.64L98.9,98.95L98.54,98.75L97.56,98.56L96.69,98.27L96.4,98.02L95.63,97.91L95.32,97.68L94.99,97.86L94.21,97.42L93.72,97.54L93.31,96.99L92.85,97.37L92.58,97.15L92.05,97.4L91.44,97.46L91.5,97.16L90.49,96.14L90.48,95.74L89.73,95.72L89.13,95.51L88.99,96.13L87.76,96.31L87.56,96.81L87.22,97.06L87.01,97.24L86.31,97.28L85.2,96.84L84.28,96.74L84.7,95.94L85.35,95.5L86.18,95.47L86.12,94.8L86.5,94.2L86.38,93.24L86.83,92.71L87.79,92.46L87.57,91.82L87.8,91.48L87.59,91.3L87.86,90.62L88.42,89.98L88.08,89.8L87.57,89.09L88.13,88.08L87.97,87.85ZM119.34,93.53L119.04,93.46L117.97,92.64L118.07,91.95L117.78,91.78L118.04,91.14L117.71,90.49L117.22,89.92L116.83,89.15L116.2,89.15L115.83,88.95L115.5,88.44L115.8,87.43L115.56,87.17L115.23,87.45L115.05,87.23L114.42,87.22L113.86,86.85L113.8,86.37L114.12,85.86L114.91,85.95L115.78,87.09L116.03,87.13L116.86,86.3L117.22,85.09L117.58,84.9L117.75,84.49L117.48,84.27L117.9,84.1L118.12,83.42L117.89,82.8L118.48,82.46L118.47,81.93L119.47,81.89L120.24,81.27L120.81,81.68L121.18,81.3L121.36,80.1L122.6,79.65L123.11,79.68L123.52,79.49L123.41,78.84L124.08,78.46L124.11,78.06L125.63,76.66L130.96,71.93L137.69,65.91L137.33,67.08L137.52,68.16L137.31,69.59L136.74,70.64L137.08,71.93L136.97,73.03L137.13,73.43L137.83,74.27L138.83,75.3L138.83,75.76L139.11,77.69L138.93,78.15L138.42,78.82L137.7,79.52L137.35,79.59L136.86,80.11L136.32,80.23L134.72,81.16L134.29,81.59L133.77,81.84L133.26,82.76L132.59,83.38L132.1,83.68L130.95,84.92L130.9,85.53L129.45,87.99L128.71,88.42L128.31,88.37L127.6,89.22L126.88,89.68L126.24,89.88L125.69,89.79L124.66,90.29L124.07,90.98L123.6,91.76L122.77,92.24L121.3,92.62L120.63,93.59L120.22,93.48ZM96.37,67.24L96.19,66.8L96.43,66.23L96.78,65.99L96.76,65.12L97.16,64.75L97.26,63.89L96.69,63.19L97.27,62.41L97.33,61.35L97.11,61.25L96.79,60.23L96.9,59.99L96.69,59.48L96.1,60.47L95.93,61.02L95.22,61.05L95.01,60.71L94.48,61.5L93.47,62.06L93.11,61.8L93.05,60.83L92.39,60.53L91.62,57.84L91.38,57.78L90.64,58.42L89.79,57.86L87.53,55.72L87.69,55.52L88.23,55.86L88.47,56.38L88.9,56.87L89.54,56.71L90.23,55.91L90.14,55.09L90.26,54.89L90.98,54.82L91.13,54.3L91.51,54.32L92.03,54.02L92.71,54.13L92.74,53.71L93.24,53.56L93.33,52.96L93.97,52.89L93.99,52.31L94.6,52.5L95.55,52.2L95.56,51.77L95.93,51.82L95.95,51.52L96.65,50.92L96.41,50.57L96.97,50.23L96.8,49.81L97.41,49.86L97.88,49.3L99,49.82L98.92,50.16L99.38,50.39L99.83,49.91L100.89,49.68L101.54,49.2L101.51,48.49L101.84,48.01L102.65,47.99L102.81,48.51L102.51,48.7L102.62,50.13L102.33,50.63L102.16,51.33L101.52,52.54L100.95,52.66L100.27,53.69L100.45,54.13L100.88,54.48L100.94,54.9L101.66,55.55L102.14,56.21L101.85,56.88L102,57.66L102.76,57.87L102.86,59.04L103.12,59.26L103.5,59.15L104.48,59.95L104.92,59.7L105.09,59.98L106.07,60.11L106.3,60.01L106.61,60.76L107.26,60.74L107.58,60.92L107.66,61.36L108.15,62.12L109.07,62.12L108.53,62.53L105.3,65.2Z" fill="#B3CFC0" stroke="#007139" stroke-width="0.5"/></svg>