<svg xmlns="http://www.w3.org/2000/svg" width="144" height="144" viewBox="0 0 144 144"><path d="M140.15,45.05L144,63.88L133.99,84.53L117.2,132.35L109.6,123.59L112.55,106.87L104.03,89.16L95.56,86.58L82.28,92.66L75.15,104L76.36,90.11L73.96,79.85L68.33,78.29L61.76,88.3L61.73,56.7L42.52,56.38L23.78,47.63L15.51,52.41L10.91,47.03L0,43.85L6.47,21.49L15.17,12.9L54.6,13.34L56.57,11.65L65.53,32.17L82.86,38.88L100.99,40.34L117.17,31.16L118.31,39.25L132.78,47.16Z" fill="#B3CFC0" stroke="#007139" stroke-width="0.5"/></svg>