<svg xmlns="http://www.w3.org/2000/svg" width="144" height="144" viewBox="0 0 144 144"><path d="M23.5,65.54L20.97,66.15L20.73,66.14L20.32,65.65L20.52,65.49L19.98,65.01L20.27,64.56L20.29,64.1L20,63.65L20.05,63.29L19.74,63.23L19.62,62.89L19.31,62.83L18.65,61.78L18.23,61.4L18.26,61.18L17.32,61.38L17.09,60.84L16.87,61.06L16.34,61.13L16.06,60.34L16.11,60.05L15.51,59.7L15.23,59.34L15.2,58.85L14.95,58.71L14.76,58.74L14.6,58.1L14.2,58.02L14.55,57.04L14.93,56.77L15.54,56L15.29,55.5L15.13,54.69L14.77,54.67L14.76,53.55L15.12,53.57L15.58,53.18L16.23,52.89L16.31,51.89L16.98,51.37L17.13,50.7L17.5,50.24L18.39,49.87L18.81,49.27L18.72,48.58L18.89,48L19.19,47.77L19.59,47.14L19.59,46.89L20.39,46.49L20.35,46.19L21.75,44.21L21.91,43.44L22.2,43.29L22.87,43.29L23.25,42.96L23.81,42.74L24.47,42.68L25.01,41.23L25.29,41.27L25.59,41.89L25.78,42.87L26.22,43.3L25.99,43.83L25.96,44.32L26.39,45.05L26.13,45.44L25.97,46.94L27.43,47.54L27.11,48.81L27.04,50.61L26.75,50.94L26.47,51.68L25.83,52.22L25.52,52.24L25.51,53.27L25.64,53.38L24.98,53.73L25.26,54.18L24.77,54.95L25.23,55.26L25.15,55.48L24.58,55.59L24.64,55.85L24.16,56.4L24.29,56.79L24.02,57.24L23.67,57.23L23.73,57.87L23.33,58.35L23.5,59.09L23.33,59.2L23.54,59.78L23.42,60.25L23.62,60.95L23.92,61.08L23.86,61.49L24.06,61.68L23.95,62.1L24.08,62.64L23.91,63.22L24.14,63.41L23.83,63.79L23.51,64.73ZM15.59,69.93L14.98,70.25L14.99,70.59L14.46,70.29L14.06,70.4L13.8,71.37L13.93,72.15L12.7,72.13L12.33,72.47L11.69,72.26L11.17,72.63L10.94,72.62L10.96,71.75L11.24,71.18L10.49,70.44L9.92,70.14L9.85,69.67L9.34,69.14L9.18,68.8L9.4,68.59L9.19,68.04L8.92,68.04L9.51,67.51L10.14,66.06L11.31,65.08L11.76,64.87L11.98,65.16L12.5,65.3L12.84,65.61L13.06,66.43L13.54,66.88L13.77,67.35L13.73,68.14L14.16,68.21L14.38,68.87L14.73,69.42L15.53,69.65ZM14.76,53.55L14.77,54.67L15.13,54.69L15.29,55.5L15.54,56L14.93,56.77L14.55,57.04L14.2,58.02L14.6,58.1L14.76,58.74L14.95,58.71L14.11,60.1L14.49,60.03L14.84,60.32L15.23,61.71L14.94,61.91L15,62.31L15.53,63.12L16.15,63.4L15.7,65.42L16.01,66.12L15.86,66.09L15.68,66.84L16.04,67.4L15.93,67.83L16.23,68.21L16.19,68.61L16.7,68.93L16.6,69.63L16.22,69.88L15.59,69.93L15.53,69.65L14.73,69.42L14.38,68.87L14.16,68.21L13.73,68.14L13.77,67.35L13.54,66.88L13.06,66.43L12.84,65.61L12.5,65.3L11.98,65.16L11.76,64.87L11.31,65.08L10.66,64.67L9.89,64.4L9.84,64.12L9.18,63.78L8.78,63.3L8.83,62.66L8.24,61.78L8.56,61.27L7.93,60.24L7.39,60.21L6.53,60.92L6.12,60.94L5.72,60.37L5.89,60.03L5.82,59.23L6.21,58.84L6.79,58.62L7.08,58.77L7.67,58.7L7.98,58.47L8.49,57.78L9.14,57.59L9.43,56.47L10.02,56.36L10.6,55.51L11.4,54.88L12.26,54.95L12.83,54.63L13.19,54.64L13.29,54.21L13.88,53.83L14.36,53.93ZM75.01,88.55L75.7,88.95L75.84,89.65L76.3,89.43L77.1,89.7L76.91,89.97L77.18,90.13L77.25,89.8L77.63,90.09L77.29,90.55L77.96,90.61L77.73,90.2L77.92,90.05L78.36,90.63L78.24,91L78.61,90.86L78.84,91.04L78.43,91.39L78.83,91.51L78.58,91.69L78.96,92.18L79.38,92.14L78.84,92.64L79.46,92.88L79.71,92.71L79.96,93.37L79.68,94.02L79.92,94.46L80.37,94.59L80.96,94.18L81.38,94.73L81.23,95.78L81.88,95.96L82.07,96.55L82.67,96.29L82.92,96.62L83.14,96.2L83.53,96.61L83.79,96.34L84.24,96.8L84.49,96.65L84.55,97.2L84.06,97.42L84.49,97.78L85,97.7L85.27,97.16L85.55,97.45L86.07,97.26L85.95,97.64L86.38,97.47L86.46,97.85L85.89,97.88L85.96,98.28L86.49,98.27L86.31,98.54L86.95,98.55L87.48,98.75L87.51,99.27L88.31,99.43L88.17,99.85L89.26,99.38L88.86,99.77L89.02,99.9L89.45,99.64L90.04,100.12L89.69,101.19L89.94,101.56L90.23,101.56L90,102.7L89.66,102.56L89.53,102.16L89.25,102.49L88.89,102.27L87.97,102.33L88.07,102.78L87.31,102.57L87.13,102.15L86.81,102.19L86.56,102.69L86.1,102.42L86.06,102.98L85.81,103.1L85.44,102.53L84.93,102.57L85.06,102.78L83.51,102.46L83.32,102.67L82.98,102.34L82.95,101.93L82.18,101.98L82.27,101.05L82.04,101.29L81.7,101.12L81.2,101.21L80.93,100.58L80.81,100.82L79.76,100.94L79.41,101.31L78.77,101.53L78.55,101.76L78.1,101.62L77.51,101.7L76.64,102.03L76.22,101.77L75.82,101.82L75.62,101.17L75.35,100.96L74.91,101.44L74.5,101.43L74.29,100.81L73.97,100.81L73.46,101.48L73.15,101.62L72.5,101.62L72.07,101.19L71.69,101.11L70.98,100.47L70.88,100.57L70.37,100.1L70.11,99.3L69.69,99.25L69.63,99.02L63.45,99.02L56.06,99.02L51.09,99.02L50.86,98.62L50.86,97.51L50.16,96.18L49.7,94.54L49.84,94.41L48.76,93.82L48.67,93.36L48.83,93.06L48.71,92.18L48.18,91.62L47.98,90.93L47.58,90.25L47.67,89.49L47.25,89.05L47.39,88.82L45.87,86.82L45.23,86.05L44.68,86.26L44.26,86.16L44.09,85.72L43.65,85.41L43.49,85.67L43.11,85.43L42.74,84.63L42.44,84.84L42.51,84.35L41.96,83.89L42.22,83.55L41.97,82.98L42.33,82.8L41.89,82.5L41.49,81.76L41.36,81.29L42.15,80.66L42.1,80.27L42.43,79.68L42.47,79.24L41.9,78.78L41.77,78.47L41.01,77.78L41.15,77.37L40.36,76.71L40.02,76L40.15,75.65L39.39,74.94L39.46,74.69L39.1,74.57L39.08,74.19L38.57,73.49L38.45,72.88L38.56,72.63L37.87,71.92L37.8,71.6L37.4,71.43L37.03,70.78L36.36,70.08L36.63,69.16L36.07,68.53L35.34,68.4L34.86,67.96L34.84,67.51L35.2,67.11L35.02,66.4L35.26,65.97L35.12,65.7L35.27,64.89L35.2,63.96L35.42,64.29L36,63.92L36.26,64.01L36.81,63.84L36.89,63.51L37.55,63.15L37.84,62.73L38.18,62.67L39.18,63.19L39.79,63.39L39.74,63.9L40.33,63.6L40.74,63.59L40.9,64.27L41.36,64.07L41.81,64.26L42.19,64.11L42.13,63.73L42.49,64L42.49,63.64L42.9,63.41L42.74,62.89L43.04,62.76L42.97,62.17L42.62,61.77L43.07,61.72L42.8,61.48L42.83,60.98L43.08,59.82L42.79,59.73L43.23,59.13L48.36,67.28L49.21,67.93L49.35,68.66L49.84,69.08L50.28,69.21L51.11,69.85L51.6,69.87L51.93,70.37L52.19,70.31L52.47,70.81L53.02,71.4L53.01,71.63L53.54,72.05L53.74,71.97L54.25,72.33L54.76,72.5L54.83,73.5L55.26,73.64L56.29,74.92L56.39,74.73L56.92,75.49L57.59,75.63L57.67,76.04L58.2,76.2L58.11,76.6L58.55,76.54L58.9,77.34L59.17,77.13L59.66,77.56L59.91,77.99L60.55,78.06L60.58,78.42L61.08,79.08L61.37,78.68L61.5,79.1L61.99,79.17L61.87,79.45L62.35,79.55L62.64,79.9L63.12,79.46L63.09,79.73L63.5,79.89L63.5,80.38L63.27,80.65L63.56,81.17L63.22,81.18L63.67,82.26L64.12,82.27L64.03,82.6L64.44,83.08L65.03,83.08L64.96,83.43L65.2,84.02L65.43,83.98L65.54,84.61L65.4,85.1L66.12,85.32L65.89,85.54L66.49,85.8L66.75,86.29L67.29,86.16L67.62,86.27L67.82,85.76L68.59,85.79L68.67,86.14L68.95,86.21L68.74,86.79L69.25,86.98L69.4,87.47L70.11,87.23L70.37,87.78L71.15,87.74L71.5,87.28L72.03,87.56L71.99,87.06L72.77,86.13L73.06,86.59L73.26,86.34L73.01,85.97L73.41,86.1L73.72,86.62L74.35,87.08L74.25,87.32L74.68,87.58L74.41,88.15L74.93,88.34ZM10.49,70.44L11.24,71.18L10.96,71.75L10.94,72.62L11.17,72.63L11.69,72.26L12.33,72.47L12.7,72.13L13.93,72.15L12.7,72.53L12.57,73.06L12.97,73.32L12.84,73.84L12.21,74.56L12.58,75.67L12.55,76.11L12.98,76.7L13.76,77.21L13.73,77.77L14.03,77.89L14.1,78.31L13.65,78.87L13.44,78.93L12.74,78.61L12.36,77.45L11.65,77.17L11.36,76.27L11.14,76.02L10.2,75.87L10.59,75.5L10.61,75.14L10.92,74.63L10.81,74.37L10.03,74.38L9.04,73.33L8.65,73.34L9.06,74.05L8.82,74.55L8.63,74.44L8.48,73.76L8.08,73.96L7.55,73.82L7.3,74.01L6.79,73.76L6.23,73.68L6.36,73.53L5.71,73.08L5.11,72.83L5.13,72.46L4.86,72.44L4.74,72.11L5.26,72.03L5.8,71.12L6.3,71.35L6.64,71.78L7.46,71.91L7.77,72.13L8.2,71.87L7.77,71.27L7.92,70.8L8.79,70.8ZM39.18,63.19L38.18,62.67L37.88,62.61L37.42,62.19L37.26,62.32L36.63,61.77L36.05,61.54L36.03,61.04L35.73,60.93L34.77,59.58L33.94,59.42L33.82,58.98L33.15,58.41L32.33,58.49L31.61,57.91L30.81,57.89L30.74,57.7L30.2,57.67L30.03,57.39L29.5,57.25L28.82,57.38L28.32,56.91L27.73,56.54L27.45,55.62L27.18,55.39L27.36,54.87L26.86,53.98L27.11,53.56L27.52,53.27L27.41,52.78L27.66,52.16L27.5,50.59L27.92,50.1L28.31,49.25L28.32,48.78L28.06,48.62L27.9,47.86L28.02,47.66L27.51,44.98L26.15,37.82L26.74,37.48L27.22,37.57L27.68,37.92L27.68,38.31L28.26,38.59L28.19,39.02L28.98,39.07L28.96,39.37L29.24,39.98L29.35,40.57L29.68,40.73L29.8,41.08L29.7,41.68L29.85,42.12L29.69,42.33L29.83,42.86L29.51,43.47L29.54,43.76L29.27,44.57L28.68,45.25L28.72,46.35L29.09,46.72L28.71,47.02L28.5,48.15L28.65,48.7L28.42,50.51L28.2,51.2L27.95,51.39L28.1,51.7L27.86,52.38L29.21,52.75L29.74,52.68L30.03,53.11L30.41,53.21L30.92,53.81L31.59,54.23L31.86,54.98L33.53,55.06L34.9,54.69L35.07,54.79L35.62,54.43L36.15,54.81L36.36,55.91L36.24,56.58L36.86,56.9L36.94,57.52L37.36,57.38L37.42,57.91L37.77,57.87L37.74,58.46L37.87,59.28L38.23,59.52L38.31,59.98L38.62,60.23L38.81,60.02L39.07,60.72L38.93,61.38L39.41,62.03L39.13,62.08L39.54,62.71ZM25.64,53.38L25.51,53.27L25.52,52.24L25.83,52.22L26.47,51.68L26.75,50.94L27.04,50.61L27.11,48.81L27.43,47.54L25.97,46.94L26.13,45.44L26.39,45.05L25.96,44.32L25.99,43.83L26.22,43.3L25.78,42.87L25.59,41.89L25.29,41.27L25.01,41.23L24.74,41.06L24.63,40.5L24.87,40.13L25.46,39.79L25.38,39.64L26.15,37.82L27.51,44.98L28.02,47.66L27.9,47.86L28.06,48.62L28.32,48.78L28.31,49.25L27.92,50.1L27.5,50.59L27.66,52.16L27.41,52.78L27.52,53.27L27.11,53.56L26.86,53.98L27.36,54.87L27.18,55.39L27.45,55.62L27.73,56.54L28.32,56.91L28.82,57.38L29.5,57.25L30.03,57.39L30.2,57.67L30.74,57.7L30.81,57.89L31.61,57.91L32.33,58.49L33.15,58.41L33.82,58.98L33.94,59.42L34.77,59.58L35.73,60.93L36.03,61.04L36.05,61.54L36.63,61.77L37.26,62.32L37.42,62.19L37.88,62.61L38.18,62.67L37.84,62.73L37.55,63.15L36.89,63.51L36.81,63.84L36.26,64.01L36,63.92L35.42,64.29L35.2,63.96L35.27,64.89L35.12,65.7L35.26,65.97L35.02,66.4L35.2,67.11L34.84,67.51L34.57,68.7L33.81,65.61L31.08,65.49L30.67,65.38L30.41,65.03L29.76,64.73L29.58,64.34L29.74,63.69L29.67,63.24L29.24,62.59L28.68,62.21L28.63,61.96L27.79,61.53L27.74,60.92L27.18,60.3L26.98,59.66L26.32,58.97L25.71,58.92L25.91,58.63L26.89,58.06L27.05,57.61L27,57.05L27.47,56.47ZM23.5,65.54L23.51,64.73L23.83,63.79L24.14,63.41L23.91,63.22L24.08,62.64L23.95,62.1L24.06,61.68L23.86,61.49L23.92,61.08L23.62,60.95L23.42,60.25L23.54,59.78L23.33,59.2L23.5,59.09L23.33,58.35L23.73,57.87L23.67,57.23L24.02,57.24L24.29,56.79L24.16,56.4L24.64,55.85L24.58,55.59L25.15,55.48L25.23,55.26L24.77,54.95L25.26,54.18L24.98,53.73L25.64,53.38L27.47,56.47L27,57.05L27.05,57.61L26.89,58.06L25.91,58.63L25.71,58.92L26.32,58.97L26.98,59.66L27.18,60.3L27.74,60.92L27.79,61.53L28.63,61.96L28.68,62.21L29.24,62.59L29.67,63.24L29.74,63.69L29.58,64.34L29.76,64.73L30.41,65.03L30.67,65.38L31.08,65.49L33.81,65.61L34.57,68.7L34.84,67.51L34.86,67.96L35.34,68.4L36.07,68.53L36.63,69.16L36.36,70.08L37.03,70.78L37.4,71.43L37.8,71.6L37.87,71.92L38.56,72.63L38.45,72.88L38.57,73.49L39.08,74.19L39.1,74.57L39.46,74.69L39.39,74.94L40.15,75.65L40.02,76L31.62,74.12L31.52,73.8L31.84,73.09L31.64,73.09L31.55,72.11L30.51,71.6L30.19,70.97L29.72,70.86L29.5,70.53L29.15,70.43L29.28,70.03L29.07,69.74L27.92,69.74L28.19,69.43L27.33,67.87L27.19,67.08L27.27,66.28L27.04,65.64L27.29,65.15L26.83,65.25L25.94,65.13L24.79,65.3L23.95,65.21ZM20.97,66.15L23.5,65.54L23.95,65.21L24.79,65.3L25.94,65.13L26.83,65.25L27.29,65.15L27.04,65.64L27.27,66.28L27.19,67.08L27.33,67.87L28.19,69.43L27.92,69.74L29.07,69.74L29.28,70.03L29.15,70.43L29.5,70.53L29.72,70.86L30.19,70.97L30.51,71.6L31.55,72.11L31.64,73.09L31.84,73.09L31.52,73.8L31.62,74.12L30.97,74.68L31.07,75.03L30.73,75.73L30.71,76.47L31.17,76.82L31.45,77.51L31.21,77.91L30.82,77.97L30.83,78.22L30.23,78.35L30.15,77.59L29.87,77.1L29.03,77.15L28.78,76.97L27.93,77.48L25.75,74.43L21.72,72.82L21.74,72.41L21.47,72L21.57,71.38L20.95,69.13ZM14.95,58.71L15.2,58.85L15.23,59.34L15.51,59.7L16.11,60.05L16.06,60.34L16.34,61.13L16.87,61.06L17.09,60.84L17.32,61.38L18.26,61.18L18.23,61.4L18.65,61.78L19.31,62.83L19.62,62.89L19.74,63.23L20.05,63.29L20,63.65L20.29,64.1L20.27,64.56L19.98,65.01L20.52,65.49L20.32,65.65L20.73,66.14L20.97,66.15L20.95,69.13L20.72,68.84L19.47,69.12L19.49,68.84L18.68,68.74L18.66,68.01L18.35,67.81L18.46,67.22L18.14,66.92L17.07,66.9L17.15,66.16L16.01,66.12L15.7,65.42L16.15,63.4L15.53,63.12L15,62.31L14.94,61.91L15.23,61.71L14.84,60.32L14.49,60.03L14.11,60.1ZM43.23,59.13L42.79,59.73L43.08,59.82L42.83,60.98L42.8,61.48L43.07,61.72L42.62,61.77L42.97,62.17L43.04,62.76L42.74,62.89L42.9,63.41L42.49,63.64L42.49,64L42.13,63.73L42.19,64.11L41.81,64.26L41.36,64.07L40.9,64.27L40.74,63.59L40.33,63.6L39.74,63.9L39.79,63.39L39.18,63.19L39.54,62.71L39.13,62.08L39.41,62.03L38.93,61.38L39.07,60.72L38.81,60.02L38.62,60.23L38.31,59.98L38.23,59.52L37.87,59.28L37.74,58.46L37.77,57.87L37.42,57.91L37.36,57.38L36.94,57.52L36.86,56.9L36.24,56.58L36.36,55.91L36.15,54.81L35.62,54.43L35.07,54.79L34.9,54.69L33.53,55.06L31.86,54.98L31.59,54.23L30.92,53.81L30.41,53.21L30.03,53.11L29.74,52.68L29.21,52.75L27.86,52.38L28.1,51.7L27.95,51.39L28.2,51.2L28.42,50.51L28.65,48.7L28.5,48.15L28.71,47.02L29.09,46.72L28.72,46.35L28.68,45.25L29.27,44.57L29.54,43.76L29.51,43.47L29.83,42.86L29.69,42.33L29.85,42.12L29.7,41.68L29.8,41.08L29.68,40.73L29.35,40.57L29.24,39.98L28.96,39.37L28.98,39.07L28.19,39.02L28.26,38.59L27.68,38.31L27.68,37.92L27.22,37.57L27.8,36.35L28.17,36.55L29,35.48L29,35.05L29.45,34.74L29.94,33.87L30.58,33.07L30.68,32.21L31.62,32.19L32,32.33L32.24,31.85L31.98,31.67L32.33,31.06L32.67,30.71L32.78,30.19L33.33,29.7L33.74,29.48L34.21,28.93L34.51,28.98L35.61,28.86L35.79,29.4L36.35,29.95L37.21,30.04L37.72,30.68L37.61,31.07L36.93,31.84L36.89,32.57L36.74,32.76L36.89,33.96L37.28,33.99L37.65,34.37L37.49,34.54L37.24,35.55L37.35,36.23L36.87,36.72L37.51,36.89L37.61,37.27L37.3,37.59L37.47,38.28L37.17,38.51L37.19,38.92L36.97,39.48L37.15,39.77L36.97,40.25L37.07,40.91L36.77,41.07L36.48,41.61L36.42,42.5L37.06,42.85L37,43.23L37.22,43.63L38.07,43.71L38.29,44.34L38.68,43.99L38.96,44.4L38.73,44.8L38.69,45.43L38.41,45.86L38.93,45.65L39.37,46.04L39.48,46.68L39.36,47.56L39.97,48.13L40.03,48.67L40.63,49.19L40.49,49.35L41.22,50.67L41.25,52.06L41.57,52.56L41.92,52.8L41.62,52.93L41.43,53.46L41.88,54.25L42.44,54.39L42.49,54.92L42.8,55.08L42.75,55.56L43.01,55.95L42.89,56.5L43.01,56.78L42.66,57.47L42.78,57.79L42.57,58.12L42.9,58.62L43.38,58.86ZM11.31,65.08L10.14,66.06L9.51,67.51L8.92,68.04L9.19,68.04L9.4,68.59L9.18,68.8L9.34,69.14L9.85,69.67L9.92,70.14L10.49,70.44L8.79,70.8L7.92,70.8L7.77,71.27L8.2,71.87L7.77,72.13L7.46,71.91L6.64,71.78L6.3,71.35L5.8,71.12L5.26,72.03L4.74,72.11L4.86,72.44L4.58,72.49L4.1,72.01L3.95,72.28L3.09,72.26L2.85,72.02L2.57,72.2L1.85,71.81L1.26,71.84L0.65,71.39L0.41,70.36L0.09,69.85L0.38,69.33L0,68.59L0.52,68.17L0.76,67.77L1.35,67.5L1.61,66.89L2.54,65.9L2.29,65.69L2.83,65.25L2.95,64.66L2.89,63.4L3.15,63.31L3.63,62.46L3.33,62.23L3.41,61.41L4.4,60L4.13,58.82L3.93,58.57L5.1,59.18L5.23,59.58L5.82,59.23L5.89,60.03L5.72,60.37L6.12,60.94L6.53,60.92L7.39,60.21L7.93,60.24L8.56,61.27L8.24,61.78L8.83,62.66L8.78,63.3L9.18,63.78L9.84,64.12L9.89,64.4L10.66,64.67ZM75.01,88.55L74.93,88.34L74.41,88.15L74.68,87.58L74.25,87.32L74.35,87.08L73.72,86.62L73.41,86.1L73.01,85.97L73.26,86.34L73.06,86.59L72.77,86.13L71.99,87.06L72.03,87.56L71.5,87.28L71.15,87.74L70.37,87.78L70.11,87.23L69.4,87.47L69.25,86.98L68.74,86.79L68.95,86.21L68.67,86.14L68.59,85.79L67.82,85.76L67.62,86.27L67.29,86.16L66.75,86.29L66.49,85.8L65.89,85.54L66.12,85.32L65.4,85.1L65.54,84.61L65.43,83.98L65.2,84.02L64.96,83.43L65.03,83.08L64.44,83.08L64.03,82.6L64.12,82.27L63.67,82.26L63.22,81.18L63.56,81.17L63.27,80.65L63.5,80.38L63.5,79.89L63.09,79.73L63.12,79.46L62.64,79.9L62.35,79.55L61.87,79.45L61.99,79.17L61.5,79.1L61.37,78.68L61.08,79.08L60.58,78.42L60.55,78.06L59.91,77.99L59.66,77.56L59.17,77.13L58.9,77.34L58.55,76.54L58.11,76.6L58.2,76.2L57.67,76.04L57.59,75.63L56.92,75.49L56.39,74.73L56.29,74.92L55.26,73.64L54.83,73.5L54.76,72.5L54.25,72.33L53.74,71.97L53.54,72.05L53.01,71.63L53.02,71.4L52.47,70.81L52.19,70.31L51.93,70.37L51.6,69.87L51.11,69.85L50.28,69.21L49.84,69.08L49.35,68.66L49.21,67.93L48.36,67.28L43.23,59.13L43.38,58.86L42.9,58.62L42.57,58.12L42.78,57.79L42.66,57.47L43.01,56.78L42.89,56.5L43.01,55.95L42.75,55.56L42.8,55.08L42.49,54.92L42.44,54.39L41.88,54.25L41.43,53.46L41.62,52.93L41.92,52.8L41.57,52.56L41.25,52.06L41.22,50.67L40.49,49.35L40.63,49.19L40.03,48.67L39.97,48.13L39.36,47.56L39.48,46.68L39.37,46.04L38.93,45.65L38.41,45.86L38.69,45.43L38.73,44.8L38.96,44.4L38.68,43.99L38.29,44.34L38.07,43.71L37.22,43.63L37,43.23L37.06,42.85L36.42,42.5L36.48,41.61L36.77,41.07L37.07,40.91L36.97,40.25L37.15,39.77L36.97,39.48L37.19,38.92L37.17,38.51L37.47,38.28L37.3,37.59L37.61,37.27L37.51,36.89L36.87,36.72L37.35,36.23L37.24,35.55L37.49,34.54L37.65,34.37L37.28,33.99L36.89,33.96L36.74,32.76L36.89,32.57L36.93,31.84L37.61,31.07L37.72,30.68L37.21,30.04L36.35,29.95L35.79,29.4L35.61,28.86L34.51,28.98L34.21,28.93L33.74,29.48L33.33,29.7L32.9,29.07L32.78,28.08L33.13,27.76L33.37,27L32.78,26.61L32.98,26.18L33.73,25.98L33.91,26.11L34.43,25.75L34.63,25.96L35.18,25.53L36.41,24.16L36.53,23.69L37.4,22.51L37.87,22.17L39,20.86L39.38,20.95L39.72,21.58L40.18,20.96L40.84,20.64L41.58,20.63L41.82,20.86L42.18,20.45L42.89,20.02L43.18,20.36L43.04,20.68L43.42,20.98L43.48,21.51L43.96,21.89L45.95,21.3L46.48,21.43L46.49,21.77L46.82,22.76L46.53,23.06L46.7,23.28L46.67,23.82L46.92,23.84L47.06,24.46L47.3,24.77L47.34,25.22L48.08,25.28L47.72,25.84L47.8,26.2L47.5,26.79L48.17,26.97L48.12,27.29L48.86,27.58L48.98,27.81L48.57,28.64L48.23,29.01L47.39,29.42L47.27,30.03L46.79,30.33L46.26,31.01L46.48,31.97L46.95,32.17L47.22,32.71L46.78,32.86L46.82,33.23L46.49,34.05L46.49,34.67L46.15,34.67L45.76,35.12L45.47,36.07L45.18,36.52L44.96,36.54L44.59,37.36L44.45,38.4L44.27,38.87L44.53,39.03L44.87,38.81L45.22,39.27L45.46,38.7L45.91,38.69L45.72,39.08L46.17,39.38L46.89,39.6L47.12,39.91L47.12,40.31L46.86,40.33L46.79,40.77L47.31,40.78L47.36,41.02L47.86,41.3L48.27,40.85L48.81,41.04L48.8,42.11L48.46,42.18L48.76,42.96L49.18,43.25L50.11,43.11L50.32,43.66L51.15,43.04L51.69,42.9L51.9,42.61L52.07,43.35L51.95,43.83L52.51,44.25L52.83,44.09L53.37,44.21L53.78,44.56L54.49,44.4L55.36,45.1L56.59,45.03L58.47,45.13L59.09,45.38L59.18,46.01L59.87,46.93L60.75,47.37L61.31,47.38L61.34,46.87L62.12,47L62.61,47.32L62.69,47.58L63.8,47.39L64.54,47.63L69.86,52.53L75.48,57.7L75.27,58.4L75.43,58.89L75.85,59.59L76.7,60.39L76.89,61.01L77.51,61.41L77.7,61.93L78.62,62.88L78.57,63.71L78.94,64.2L79.81,64.36L79.85,64.77L80.42,64.76L80.69,65.05L80.81,65.64L81.16,66.11L81.05,66.44L81.46,67.03L81.99,66.88L82.07,67.77L81.9,67.96L82.29,68.13L82.42,68.51L82.11,68.96L82.46,70.34L82.95,70.53L83,71.13L83.41,71.22L83.56,71.58L84.62,72.14L84.49,72.49L85.59,73.32L86.14,73.42L86.29,74L86.96,74.14L87.38,74.4L85.89,74.96L85.4,74.87L85.28,74.51L84.53,74.09L83.85,74.09L83.55,73.87L83.4,73.42L81.99,73.74L80.95,74.08L80.82,74.3L80.2,74.58L80.15,75.01L79.87,75.15L79.52,75.78L79.42,76.92L79.15,77.84L78.8,78.23L78.91,79.24L78.68,79.89L78.04,80.77L78,81.37L77.54,81.81L77.54,82.23L77.78,82.57L77.57,83.07L77.78,83.35L77.63,83.77L77.83,84.08L77.46,84.58L77.12,84.68L76.85,85.16L76.47,85.26L76.46,85.64L76.02,85.77L75.64,87.21ZM40.02,76L40.36,76.71L41.15,77.37L41.01,77.78L41.77,78.47L41.9,78.78L42.47,79.24L42.43,79.68L42.1,80.27L42.15,80.66L41.36,81.29L41.49,81.76L41.89,82.5L42.33,82.8L41.97,82.98L42.22,83.55L41.96,83.89L42.51,84.35L42.44,84.84L42.74,84.63L43.11,85.43L43.49,85.67L43.65,85.41L44.09,85.72L44.26,86.16L44.68,86.26L45.23,86.05L45.87,86.82L47.39,88.82L47.25,89.05L47.67,89.49L47.58,90.25L47.98,90.93L48.18,91.62L48.71,92.18L48.83,93.06L48.67,93.36L48.76,93.82L49.84,94.41L49.7,94.54L50.16,96.18L50.86,97.51L50.86,98.62L51.09,99.02L56.06,99.02L63.45,99.02L69.63,99.02L69.69,99.25L70.11,99.3L70.37,100.1L70.88,100.57L70.98,100.47L71.69,101.11L72.07,101.19L72.5,101.62L73.15,101.62L73.46,101.48L73.97,100.81L74.29,100.81L74.5,101.43L74.91,101.44L75.35,100.96L75.62,101.17L75.82,101.82L76.22,101.77L76.64,102.03L77.51,101.7L78.1,101.62L78.55,101.76L78.77,101.53L79.41,101.31L79.76,100.94L80.81,100.82L80.93,100.58L81.2,101.21L81.7,101.12L82.04,101.29L82.27,101.05L82.18,101.98L82.95,101.93L82.98,102.34L83.32,102.67L83.51,102.46L85.06,102.78L84.93,102.57L85.44,102.53L85.81,103.1L86.06,102.98L86.1,102.42L86.56,102.69L86.81,102.19L87.13,102.15L87.31,102.57L88.07,102.78L87.97,102.33L88.89,102.27L89.25,102.49L89.53,102.16L89.66,102.56L90,102.7L90.23,101.56L89.94,101.56L89.69,101.19L90.04,100.12L89.45,99.64L89.02,99.9L88.86,99.77L89.26,99.38L88.17,99.85L88.31,99.43L87.51,99.27L87.48,98.75L86.95,98.55L86.31,98.54L86.49,98.27L85.96,98.28L85.89,97.88L86.46,97.85L86.38,97.47L85.95,97.64L86.07,97.26L85.55,97.45L85.27,97.16L85,97.7L84.49,97.78L84.06,97.42L84.55,97.2L84.49,96.65L84.24,96.8L83.79,96.34L83.53,96.61L83.14,96.2L82.92,96.62L82.67,96.29L82.07,96.55L81.88,95.96L81.23,95.78L81.38,94.73L80.96,94.18L80.37,94.59L79.92,94.46L79.68,94.02L79.96,93.37L79.71,92.71L79.46,92.88L78.84,92.64L79.38,92.14L78.96,92.18L78.58,91.69L78.83,91.51L78.43,91.39L78.84,91.04L78.61,90.86L78.24,91L78.36,90.63L77.92,90.05L77.73,90.2L77.96,90.61L77.29,90.55L77.63,90.09L77.25,89.8L77.18,90.13L76.91,89.97L77.1,89.7L76.3,89.43L75.84,89.65L75.7,88.95L75.01,88.55L75.64,87.21L76.02,85.77L76.46,85.64L76.47,85.26L76.85,85.16L77.12,84.68L77.46,84.58L77.83,84.08L77.63,83.77L77.78,83.35L77.57,83.07L77.78,82.57L77.54,82.23L77.54,81.81L78,81.37L78.04,80.77L78.68,79.89L78.91,79.24L78.8,78.23L79.15,77.84L79.42,76.92L79.52,75.78L79.87,75.15L80.15,75.01L80.2,74.58L80.82,74.3L80.95,74.08L81.99,73.74L83.4,73.42L83.55,73.87L83.85,74.09L84.53,74.09L85.28,74.51L85.4,74.87L85.89,74.96L87.38,74.4L87.13,74.69L88.02,75.41L88.3,75.14L88.53,75.36L88.99,75.26L89.31,75.55L89.27,75.83L88.88,76.15L89.51,76.99L90.02,76.96L90.08,77.61L90.49,77.76L90.71,77.55L91.71,78.01L91.96,78.32L92.71,77.84L92.78,78.02L93.49,77.57L93.93,77.88L94.07,77.22L94.57,77.25L94.29,76.74L95.34,76.43L95.55,75.93L96,75.78L96.23,75.27L96.1,75.05L96.53,74.86L97.2,74.99L97.49,74.64L97.99,74.6L97.78,74.29L98.22,74.14L98.17,73.27L97.78,73.2L97.91,72.83L97.53,72.46L98.09,72.24L98.51,72.25L97.99,71.89L97.94,71.14L98.47,71.27L98.27,70.61L99.04,70.86L99.42,70.66L99.26,70.23L99.76,70.12L99.97,70.3L100.78,70.27L100.55,70.63L100.53,71.11L100.92,71.54L101.31,71.65L101.79,70.95L102.01,70.03L102.78,70.13L102.94,70.66L103.59,70.65L103.96,71L104.3,70.21L104.61,71.07L105.06,71.5L105.9,71.76L106.84,72.66L107.87,73.01L108.23,73.4L108.91,73.28L109.36,72.93L109.73,73.05L109.75,73.35L110.57,74.26L110.64,74.68L111.34,75.25L111.02,75.68L111.3,76.26L111.97,76.54L111.53,77.51L112.05,77.68L112.61,77.18L113.03,77.42L112.87,78.23L113.24,78.74L112.93,79.01L113.38,79.89L113.69,79.48L113.48,78.88L114.16,78.69L114.54,79.25L114.26,79.49L114.16,79.95L114.51,80.35L113.88,80.77L114.36,81.53L115.03,82.08L115.27,81.97L115,81.28L115.58,81.31L115.91,81.94L116.39,82.53L116.15,83.42L116.73,83.88L117.01,83.83L117.28,83.11L117.92,83.54L118.18,82.94L118.72,83.37L119.05,82.75L119.31,82.9L119.26,83.26L119.59,83.74L120.04,83.92L120.41,83.74L120.81,84.42L120.36,85.11L121.34,85.13L121.97,84.9L122.23,85.17L122.74,85.06L122.9,85.82L123.25,85.82L122.77,86.63L122.4,86.76L123.03,87.13L122.98,87.72L123.75,87.99L123.99,88.4L124.34,88.14L124.47,87.59L124.75,88.35L125.2,89.13L124.74,89.67L124.81,90.09L125.42,90.2L125.48,90.5L124.95,90.76L125.45,91.22L125.9,91.06L125.91,90.5L126.8,90.86L127.08,91.35L127.09,92.05L127.76,92.27L127.39,92.58L127.41,93.41L126.89,93.77L127.52,94.18L128.27,93.91L128.38,93.62L128,93.19L128.69,93.46L129.4,93.37L129.19,93.89L128.74,94.27L129.3,94.51L129.77,94.39L129.81,95.37L130.31,95.67L130.5,95.05L131.13,94.76L131.18,95.4L130.52,95.77L131.34,97.07L132.54,97.59L132.88,97.87L133.36,97.69L133.54,98.41L133.09,98.52L133.96,98.62L134.95,97.71L135.19,97.94L134.78,98.2L134.71,98.79L134.49,99.17L135.07,98.96L135.73,98.92L136.24,99.47L135.71,100.04L136.17,100.42L136.48,100.09L136.89,100.15L137.16,99.66L137.4,99.61L137.67,98.63L138.23,98.84L138.22,99.19L137.91,99.28L138.42,99.88L139.27,99.77L139.71,99.42L139.76,98.56L140.55,98.89L140.68,99.56L140.97,99.76L141.57,99.84L141.68,99.43L142.1,100.14L141.87,100.51L142.47,100.94L142.94,101.07L142.77,101.71L143.26,101.97L143.77,101.87L144,102.15L143.5,102.84L143.09,102.77L142.58,102.92L142.25,103.26L141.48,103.31L140.92,102.94L140.19,103.15L140.24,103.43L139.82,103.69L138.94,103.65L138.45,103.75L138.35,104.17L137.7,104.19L135.65,103.24L134.78,103.4L134.75,103.87L134.31,104.26L133.39,104.83L132.77,104.94L132.08,105.55L131.14,105.76L131.18,106.75L130.55,107.31L130.24,108.52L130.62,109.05L130.86,109.65L130.97,110.47L130.19,110.75L130.14,110.98L129.21,111.17L128.72,111.56L128.1,111.37L127.84,111.68L127.05,111.74L126.37,111.54L125.29,111.64L124.78,111.41L123.62,111.52L123.1,111.81L122.16,111.37L121.53,111.52L121.41,111.9L120.97,112.29L121.1,112.67L120.93,113.11L120.36,113.49L119.95,113.23L118.63,113.75L118.35,113.98L118.19,114.75L118.5,115.05L118.07,115.58L117.94,116.24L117.5,116.99L116.98,117.52L116.14,117.9L115.95,118.96L115.88,119.88L115.69,120.54L115.8,121.11L115.21,121.6L114.57,121.83L114.42,122.17L113.67,122.44L112.52,121.98L112.2,121.66L111.41,121.31L111.05,120.82L111.2,120.52L111.09,120.03L110.6,119.88L110.36,120.01L109.34,121.01L108.48,121.95L108.07,122.58L107.36,123.15L106.85,123.98L105.84,123.62L104.74,122.74L103.42,121.86L103.42,121.47L102.91,121.26L102.35,120.64L101.71,120.49L101.34,119.67L100.96,119.83L100.58,120.32L100.01,120.28L99.59,120.87L99.03,120.9L98.36,121.29L97.69,121.46L96.56,121.4L95.99,121.12L95.37,119.8L94.5,119.15L93.76,118.87L92.94,119.1L92.56,119.7L92.46,120.26L92.19,120.74L92.07,121.56L91.78,121.61L91,121.09L90.3,121.16L89.6,121.54L88.59,121.72L88.24,121.65L87.92,121.12L87.38,120.58L86.86,120.3L86.57,119.63L85.67,119.3L84.98,118.78L84.63,118.28L83.75,118.73L83.41,119.14L82.92,118.98L82.58,118.63L82.08,118.43L81.28,118.54L80.26,118.91L79.46,118.71L79.06,117.79L78.82,117.88L78.64,118.38L78.23,118.62L77.92,118.55L77.97,117.95L77.68,117.53L77.67,116.82L77.28,116.45L76.83,116.37L75.66,116.9L76.04,115.91L75.82,115.69L74.91,115.86L74.43,115.58L74.02,114.87L73.7,114.71L73.15,114.8L72.74,115.3L72.4,115.47L70.88,115.58L70.51,115.41L69.11,114.41L68.5,114.35L67.25,113.96L65.72,113.67L65.2,113.35L64.52,112.32L64.54,111.9L64.14,111.61L63.69,111.85L63.29,111.78L62.57,110.59L61.84,110.51L61.52,110.71L61.22,111.29L60.67,111.44L60.31,111.22L60.14,110L59.48,109.84L59.32,110.52L59.01,110.62L58.4,110.29L57.42,109.47L57.49,108.89L58.16,108.28L58.02,107.85L57.16,108.07L56.88,107.95L56.26,107.15L55.67,106.88L54.42,107.07L53.95,107.21L53.45,107.62L52.93,107.81L52.93,107.53L53.52,107.05L53.61,106.64L53.15,105.99L52.81,105.85L52.51,106.18L52.43,107.01L52.14,107.56L51.82,107.79L51.44,107.75L51.19,107.46L51.24,106.79L51.02,106.46L50.56,106.38L50.44,106.76L50.74,107.16L50.56,107.44L49.08,106.97L48.61,106.65L47.67,106.37L48.06,105.88L48.1,105.45L47.72,105.12L47.22,104.95L46.54,105.56L46.3,105.19L46.81,104.94L46.93,104.09L46.01,103.31L45.61,102.78L45.67,102.57L46.19,102.63L46.78,102.31L46.97,101.74L46.56,101.49L45.95,101.61L45.61,101.5L45.34,101.11L45.82,101.29L46.29,101.22L46.47,100.85L46.43,99.75L46.29,99.14L45.62,98.58L45.24,98.1L44.68,97.87L43.76,97.78L43.4,97.9L42.45,97.67L41.6,97.74L41.01,97.42L40.22,96.74L39.63,96.64L38.8,96.91L38.15,96.86L37.57,96.28L36.87,95.83L36.98,95.39L37.47,95.3L37.68,94.75L37.16,94.34L36.83,93.76L36.72,92.82L37.49,92.54L37.66,92.23L37.51,91.83L37.01,91.35L36.78,90.62L36.44,90.16L34.71,90.26L34.29,90.37L34.42,89.95L34.34,89.27L33.83,89.25L33.09,89.94L32.58,90.14L32.15,89.97L31.57,90.18L30.93,89.85L31.43,89.62L31.39,89.23L30.76,88.58L30.45,87.69L30.58,87.28L31.1,87.08L31.26,86.69L30.9,85.83L30.57,85.42L29.44,84.97L29.31,84.56L29.83,83.8L29.59,83.15L28.75,83.07L28.35,82.52L27.91,82.56L27.51,81.93L26.91,82.44L26.2,82.34L25.67,82.78L25.1,82.78L23.8,82.2L23.36,81.51L22.34,81.03L22.64,80.56L22.65,80.01L22.95,80.15L23.78,79.81L27.93,77.48L28.78,76.97L29.03,77.15L29.87,77.1L30.15,77.59L30.23,78.35L30.83,78.22L30.82,77.97L31.21,77.91L31.45,77.51L31.17,76.82L30.71,76.47L30.73,75.73L31.07,75.03L30.97,74.68L31.62,74.12ZM14.1,78.31L14.03,77.89L13.73,77.77L13.76,77.21L16.65,76.24L16.7,75.86L18.28,75.22L18.41,75L18.93,74.94L19.55,75.52L20.16,75.83L21.21,75.82L22.41,76.43L22.53,77.07L22.42,77.31L21.24,77.9L21.03,78.25L22.29,78.35L23.25,78.79L23.5,79.14L23.55,79.66L23.78,79.81L22.95,80.15L22.65,80.01L22.64,80.56L22.34,81.03L23.36,81.51L22.79,81.98L21.8,81.32L21.83,80.27L21.56,80.1L20.45,79.91L19.91,79.97L19.67,79.71L19.51,79.1L19.02,78.84L18.33,78.94L17.72,79.41L16.9,79.25L16,79.5L15.55,79.97L14.99,78.95L14.43,78.35ZM13.93,72.15L13.8,71.37L14.06,70.4L14.46,70.29L14.99,70.59L14.98,70.25L15.59,69.93L16.22,69.88L16.6,69.63L16.7,68.93L16.19,68.61L16.23,68.21L15.93,67.83L16.04,67.4L15.68,66.84L15.86,66.09L16.01,66.12L17.15,66.16L17.07,66.9L18.14,66.92L18.46,67.22L18.35,67.81L18.66,68.01L18.68,68.74L19.49,68.84L19.47,69.12L20.72,68.84L20.95,69.13L21.57,71.38L21.47,72L21.74,72.41L21.72,72.82L25.75,74.43L27.93,77.48L23.78,79.81L23.55,79.66L23.5,79.14L23.25,78.79L22.29,78.35L21.03,78.25L21.24,77.9L22.42,77.31L22.53,77.07L22.41,76.43L21.21,75.82L20.16,75.83L19.55,75.52L18.93,74.94L18.41,75L18.28,75.22L16.7,75.86L16.65,76.24L13.76,77.21L12.98,76.7L12.55,76.11L12.58,75.67L12.21,74.56L12.84,73.84L12.97,73.32L12.57,73.06L12.7,72.53Z" fill="#B3CFC0" stroke="#007139" stroke-width="0.5"/></svg>