<svg xmlns="http://www.w3.org/2000/svg" width="144" height="144" viewBox="0 0 144 144"><path d="M52.96,112.38L53.05,112.97L53.63,113.22L53.77,113.65L53.77,114.84L53.52,115.45L53.68,116.21L54.13,116.41L54.29,117.45L54.78,117.87L54.82,118.22L55.43,118.36L55.42,118.53L56.06,118.87L56.15,119.04L55.6,119.71L55.15,120.51L55.55,120.74L55.37,120.94L54.58,120.55L53.48,120.74L52.85,120.93L52.15,121.5L52.08,121.28L52.72,120.63L52.64,120.1L52.02,119.61L51.58,119.8L51.55,120.55L51.21,121.28L50.66,121.46L50.49,121.29L50.61,120.8L50.07,120.09L49.65,120.17L49.61,120.57L49.87,120.89L49.74,121.12L49.46,120.9L48.44,120.71L47.93,120.35L46.99,120.13L47.45,119.56L47.42,119.19L46.69,118.73L52.84,118.54L52.74,118.31L52.07,118.26L51.9,117.78L51.52,117.61L51.11,117.65L50.85,117.33L50.7,116.5L51.12,116.14L51.24,115.71L50.87,115.56L51.11,115.32L51.06,114.88L50.63,114.39L50.46,114.44L50.46,113.71L50.17,112.91L50.56,112.59L51.23,113.11L51.75,112.64L52.8,112.33ZM60.57,101.21L60.83,101.58L61.84,103.78L62.35,105.16L63.35,106.93L63.51,107.36L63.77,107.3L63.75,108.14L63.64,108.37L64.27,109.38L64.28,110.58L64,110.93L63.63,111.86L63.76,112.83L63.95,113.11L61.2,113.11L60.57,115L60.57,115.83L60.37,116.92L59.78,117.78L58.79,118.04L58.68,118.23L57.89,118.43L58.16,119.11L57.93,120.12L58.21,121.29L57.24,121.44L56.99,120.34L56.18,119.79L57.07,118.94L57.46,118.66L57.63,117.81L57.47,117.37L56.98,117.41L56.97,116.86L56.54,116.7L56.74,116.25L56.24,116.03L55.44,116.35L55.29,115.8L56.04,115.48L56.26,115.12L55.76,115.17L55.72,114.96L55.98,114.31L55.54,113.89L55.45,113.34L54.96,113.11L54.46,112.12L53.43,112.08L53.58,111.09L53.78,110.47L53.02,109.24L54.23,105.79L54.96,104.29L54.86,103.31L55,103L54.68,102.93L55.09,102.57L55.13,101.87L55.56,101.18L55.36,100.7L54.8,99.8L55.8,99.37L56.58,99.61L56.89,99.88L59.29,100.86L59.53,101.29ZM42.73,107.67L42.79,108L43.15,107.91L43.76,108.37L43.75,108.84L43.93,108.88L44.49,109.5L44.86,109.6L44.93,110.06L44.52,110.97L44.36,110.79L43.93,111.03L43.29,111.19L43.3,109.91L42.82,109.81L42.4,110.18L41.86,109.81L40.99,109.86L41.08,108.98L40.86,108.78L41.03,108.36L41.61,108.26L41.7,107.95L42.05,108.08L42.34,107.68ZM54.68,102.93L55,103L54.86,103.31L54.96,104.29L54.23,105.79L53.02,109.24L52.47,108.61L52.51,107.6L52.68,107.4L52.06,106.12L51.45,105.93L51.01,106.23L50.49,106.37L49.98,107.19L49.88,106.48L50.06,106.19L49.89,105.45L49.48,105.33L49.16,105.6L49.01,106.06L48.83,105.83L49.05,104.97L49.1,103.9L49.01,103.77L47.62,103.75L47.05,103.33L46.26,103.12L46.13,103.41L45.66,103.46L45.33,103.07L44.54,102.84L45.01,101.23L45.19,101.27L45.64,100.6L48.49,100.64L48.63,100.51L49.08,101.23L49.07,101.67L49.28,102L50.54,102.32L50.53,102.48L51.23,102.55L51.56,102.43L51.84,102.59L52.07,102.29L52.64,101.96L53.01,101.93L53.1,102.51L53.39,102.51L53.7,102.93L53.89,102.8L54.14,103.08ZM94.03,57.16L94.24,57.69L93.93,57.86L93.91,58.16L93,58.35L92.79,58.66L92.02,58.97L91.81,59.27L91.28,59.51L91.21,60.38L90.89,60.71L90.84,61.05L90.36,61.04L89.57,60.69L89.2,60.82L88.75,60.51L88.9,60.17L88.32,59.81L88.28,59.53L87.63,59.31L87.3,58.83L87.2,58.27L87.48,57.58L88.13,57.17L88.08,56.37L84.95,56.38L84.97,55.51L85.49,54.9L86.03,54.75L85.89,54.48L86.09,54.29L86.9,53.96L87.72,53.84L87.83,53.59L88.34,53.33L88.6,53.46L88.38,53.82L88.64,54.22L89.22,54.52L89.83,54L89.92,53.56L90.13,53.67L90.77,53.59L91.17,53.37L90.66,53.92L90.88,54.37L90.42,55.26L90.54,55.64L90.86,55.98L90.71,56.28L91.08,56.35L91.51,55.89L91.91,56.44L92.4,56.01L92.58,56.17L93.84,56.05L94.15,56.59ZM134.92,22.58L135.01,22.78L136.19,22.6L136.99,22.72L137.11,22.91L137.47,22.76L137.48,23.2L137.84,23.49L138.6,23.71L138.89,23.53L138.92,23.24L139.19,23.39L139.34,23.07L139.91,23.13L140.16,23.37L140.58,23.37L140.63,23.13L141.13,23.35L141.2,23.7L141.7,23.85L141.69,24.57L142.08,24.77L142.18,25.11L142.55,25.39L142.85,25.15L143.41,25.15L143.72,25.85L144,26.07L144,32.4L143.59,31.81L143.61,31.32L143.41,30.75L143.02,30.72L142.79,30.14L142.54,29.86L141.76,31.44L141.62,32.26L141.72,32.8L141.65,33.61L142.1,34.46L142.01,34.83L141.64,35.04L141.55,35.64L141.75,36.23L141.56,36.69L141.57,37.68L140.77,37.47L140.85,37.75L140.47,38.21L141.09,38.22L140.98,38.71L140.44,38.78L140.16,39.38L139.55,39.57L139.3,39.15L138.96,38.92L138.53,39.4L137.92,39.14L137.83,38.07L137.55,37.84L137.08,37.96L137.15,38.71L136.66,39.64L136.38,39.64L136.34,38.9L136.07,38.72L135.68,38.86L135.76,39.28L135.49,40.03L135.24,39.96L134.7,39.43L134.23,39.24L133.44,38.55L133.33,38.69L133.42,39.7L133.01,39.8L132.7,39.34L131.65,39.09L131.35,39.59L131.13,39.62L130.23,39.29L130.58,39.84L129.47,39.43L129.15,39.55L128.55,38.82L128.39,38.31L128.66,37.77L128.53,37.28L125.64,38.7L125.21,38.02L124.71,38.02L124.57,37.46L124.14,37.18L124.08,36.72L123.91,36.77L123.37,36.05L123.23,35.56L122.32,35.72L122.06,35.95L121,35.76L120.79,35.97L120.33,35.57L120.04,35.82L119.13,35.83L118.86,35.54L118.25,35.55L117.91,35.32L117.85,35.57L117.49,35.71L116.93,35.49L117.08,36.23L117.02,36.84L116.55,36.85L116.24,36.53L115.54,36.36L115.41,35.88L115.03,35.98L114.44,35.89L114.27,36.02L113.95,35.45L113.34,35.52L112.76,35.03L112.8,34.52L112.41,34.08L112.12,34.03L111.74,33.69L111.04,33.74L110.8,33.43L110.3,33.58L110.01,33.36L109.91,32.98L110.07,32.4L109.67,31.81L109.83,31.06L109.65,30.34L110.35,30.29L110.92,30.11L111.47,30.1L112.21,30.36L112.6,30.65L113.12,30.69L114.07,30.51L115.19,30.63L116.41,30.4L116.42,29.75L116.93,29.51L117.51,29.4L117.81,29.18L119.25,26.67L119.87,25.71L119.99,25.24L120.46,25.02L121.26,25.21L121.24,24.94L121.78,24.67L122.68,24.84L123.19,24.51L123.17,24.81L123.65,25.05L124.38,24.79L124.9,24.15L125.4,24.39L125.64,24.09L126.59,23.44L127.05,23.52L127.2,23.01L127.43,23.11L128.38,22.5L128.76,22.55L129.07,22.87L129.72,22.79L129.78,22.58L130.56,22.78L130.86,23.07L131.52,23.14L131.82,23.43L132.2,23.49L132.85,23.24L132.97,22.88L133.57,23.1L133.65,22.84L134.48,22.56ZM116.02,53.68L114.97,53.88L114.29,53.82L114.02,53.55L113.6,53.41L113.21,53.53L113.24,53.21L112.34,53.02L112.45,52.78L111.56,52.52L111.49,52.27L111.1,52.56L110.91,52.18L110.52,51.99L110.37,51.7L107.09,52.14L106.5,52.89L105.33,53.11L105.38,52.91L104.76,52.7L105.15,49.71L105.83,49.56L106.21,49.79L106.82,49.74L107.01,49.35L107.02,48.76L106.74,47.96L106.93,47.64L107.37,47.36L107.54,47.01L107.94,46.73L108.15,46.32L107.4,46.14L106.99,45.48L107.25,45.1L106.94,45.13L106.21,44.7L105.74,44.89L105.45,44.35L105.93,44.28L106.12,44.08L106.15,43.52L106,43.05L106.72,43.04L107,42.91L107.59,43.29L108.18,42.99L108.65,42.42L109.03,41.77L109.66,41.35L110.18,41.27L110.46,41.4L110.78,41.97L111.37,41.81L111.58,41.35L111.42,40.82L111.73,40.58L112.08,40.75L112.45,41.42L112.95,41.92L113.4,42.07L113.77,41.71L113.7,41.29L113.24,40.91L113.15,40.27L113.24,39.65L113.64,39.23L114.49,39.44L114.94,39.44L115.15,38.83L115.48,38.89L115.75,39.2L116.2,40.27L117.11,40.76L117.54,40.77L118.1,40.49L118.61,40.44L119.03,40.61L119.33,41.22L119.78,40.59L120.45,40.35L120.99,40.51L121.83,40.36L122.69,40.1L123.49,40.24L123.77,39.68L123.62,39.32L122.94,39.25L123.8,39.09L124.55,39.31L124.71,39.68L124.58,40.67L124.91,40.66L125.41,39.86L125.38,39.28L125.16,38.86L125.65,38.74L126.21,39.6L127,40.19L127.46,39.89L127.51,39.3L128.04,39.27L127.13,40.92L127.53,42.42L127.46,42.69L126.98,43.41L125.82,44.21L124.28,44.34L124.07,44.2L123.39,44.37L123.36,45.36L122.97,46.21L122.04,47.85L120.88,48.65L118.77,50.87L118.69,51.38L118.81,52.44L118.67,52.66L118.91,53.61L117.92,53.97L117.33,53.5L117.81,53.28L117.62,53.08L117.28,53.13L116.95,52.91ZM70.51,73.1L69.84,73.14L69.21,73.9L69.09,74.5L69.17,74.84L68.53,74.92L68.47,75.39L67.92,75.67L67.43,75.7L67.7,76.25L67.5,77.11L67.77,77.39L67.69,77.69L68.11,78.17L68.07,78.58L67.64,78.87L67.37,80.02L67.19,80.01L67.25,80.49L66.11,80.4L65.62,80.6L65.15,81.83L64.56,82.35L64.51,82.55L64.86,83.24L64.59,83.4L64.71,83.73L63.84,83.86L63.41,83.66L63.08,82.83L62.34,82.68L61.96,82.37L61.68,82.97L61.26,83.4L61.42,84.82L61.28,85.12L59.4,86.6L60.29,85.61L60.53,84.83L61.08,83.71L61.02,83.39L61.53,81.97L61.77,81.8L62.23,81.99L62.17,81.44L61.86,80.94L59.15,80.87L58.44,80.57L59.13,79.86L59.26,79.28L59.86,78.9L59.92,78.35L59.78,78L60.17,77.13L60.06,77.02L60.24,76.27L60.25,75.19L60.44,74.77L60.92,74.43L60.94,74.08L61.37,73.47L61.91,73.45L62.01,74.29L61.66,74.7L62.68,74.31L62.99,73.99L62.49,73.25L62.44,72.54L62.74,72.41L62.94,71.87L63.41,71.41L63.69,71.52L63.72,70.95L63.53,70.74L64.2,70.05L63.07,69.9L63.46,69.31L64.19,69.14L64.6,69.34L65.37,69.46L66.39,69.45L66.86,69.53L67.26,69.37L67.42,69.51L68.26,69.22L68.42,68.87L68.75,68.68L69.14,68.73L68.94,69.77L69.58,70.53L69.91,70.5L69.86,71.4L70.12,71.58L69.89,71.94L70.14,72.24L70.48,72.25ZM99.79,71.3L100.06,70.83L99.9,70.54L100.02,70.24L99.8,69.83L99.99,69.54L99.64,69.56L99.92,69.13L99.96,68.7L100.72,69.21L100.7,69.43L101.25,70.97L100.43,71.56ZM99.55,67.39L99.13,67.76L98.77,67.42L99.05,67.17ZM98.22,67.46L98.18,67.77L98.52,67.73L98.66,68.13L99.18,68.25L99.07,68.47L98.12,68.46L97.76,68.73L97.67,68.42L97.67,68.07L97.95,67.38L98.11,66.98ZM59.33,92.67L59.31,93.04L59.28,93.08L59.08,93.14L58.93,93.11L58.91,93.08L58.93,93.05L59.05,93.03L58.86,92.95L58.8,92.87L58.69,92.98L58.13,92.28L58.76,92.86L58.8,92.86L58.86,92.94L59.06,93.03L59.05,93.07L58.92,93.06L58.93,93.1L59.06,93.13L59.12,93.13L59.28,93.07L59.27,92.78ZM58.12,92.25L57.73,92.35L57.68,92.36L57.66,92.33L57.66,92.16L57.5,91.91L57.65,91.81L57.45,91.77L57.45,91.65L57.68,91.82L57.51,91.92L57.68,92.16L57.72,92.35L57.8,92.28L57.89,92.24L57.97,92.15ZM58.44,80.57L59.15,80.87L61.86,80.94L62.17,81.44L62.23,81.99L61.77,81.8L61.53,81.97L61.02,83.39L61.08,83.71L60.53,84.83L60.29,85.61L59.4,86.6L58.5,86.7L57.83,86.56L57.58,87.04L57.14,87.16L56.72,87.5L56.69,88.03L55.95,87.98L55.68,88.17L55.31,88.87L55.42,89.08L55.89,88.93L55.91,89.56L56.39,89.86L56.48,90.21L56.75,90.22L56.51,90.57L56.55,91.1L57.06,91.25L57.08,91.29L57.03,91.39L56.94,91.49L56.99,91.65L57.07,91.68L57.21,91.57L57.4,91.58L57.32,91.78L57.5,91.85L57.32,91.78L57.39,91.59L57.23,91.58L57.07,91.68L56.97,91.64L56.93,91.49L56.94,91.43L57.06,91.26L56.82,91.21L56.55,91.11L56.46,91.02L56.47,90.71L55.83,90.58L55.32,90.01L54.92,89.9L54.45,89.1L53.83,88.67L53.85,88.05L53.68,87.69L52.66,87.26L52.08,86.89L52.09,86.66L50.74,85.2L50.28,85.18L49.88,84.97L49.51,84.56L49.54,84.28L49.08,84.1L48.62,82.96L48.23,82.63L48.38,82.14L49.07,81.83L49.67,81.99L50.12,82.28L50.16,81.84L50.55,81.09L51,80.73L52.09,80.38L52.7,80.02L53,80.12L53.05,80.73L53.78,80.83L54.86,80.84L55.85,80.44L56.42,80.34L57.04,80.53L57.94,80.61L58.24,80.27ZM3.24,98.63L3.41,98.46L3.45,97.96L3.3,97.75L3.35,97.21L3.18,96.36L3.33,96.01L3.76,95.81L5.07,95.95L4.84,95.54L5.13,95.47L6.67,95.43L7.34,94.83L7.78,94.91L9.49,95.97L10.28,96.52L10.6,97.32L11.48,97.84L11.85,98.31L12.37,98.36L13.1,99.19L13.03,99.46L12.37,99.51L12.02,99.73L11.54,99.47L10.99,99.55L10.67,99.9L10.73,100.15L9.56,101.66L9.58,101.81L8.71,101.48L8.63,101.94L8.36,101.53L7.6,101.53L7.72,101.18L7.22,101.08L7.44,100.71L6.5,100.47L6.6,100.13L5.95,100.04L5.78,100.39L5.41,100.35L4.99,99.96L4.35,99.92L4.13,100.54L3.78,100.48L3.7,100.14L3.3,100.21L3.1,99.55ZM7.34,94.83L6.67,95.43L5.13,95.47L4.84,95.54L5.07,95.95L3.76,95.81L3.33,96.01L3.18,96.36L3.35,97.21L3.3,97.75L3.45,97.96L3.41,98.46L3.24,98.63L2.89,98.46L2.79,98.16L2.33,97.6L1.86,97.43L1.05,96.6L0.89,96.77L0.56,96.33L0.13,96.24L0,95.94L1.51,95.95L1.62,95.5L0.7,95.05L0.27,94.92L0.19,94.65L0.64,94.68L0.7,94.22L1.12,94.32L1.44,94.6L1.45,93.91L1.2,93.62L1.69,92.88L1.82,93.01L2.39,92.91L3.06,93.02L3.8,93L4.15,92.54L4.73,92.54L4.74,92.69L5.3,92.49L5.96,92.64L6.25,92.24L6.73,92.34L8.3,91.65L9.18,91.97L8.37,92.47L8.43,92.93L9.08,92.34L9.48,92.4L9.32,92.58L9.25,93.27L9.02,93.37L8.92,93.85L8.62,93.86L8.85,94.35L8.68,94.96L8.24,94.8ZM27.91,97.22L28.48,97.31L28.93,97.88L29.55,97.88L29.84,98.19L29.85,98.57L29.4,99.27L29.52,99.66L30.61,100.09L30.92,100.47L31.26,101.3L31.12,101.68L30.62,101.87L30.49,102.26L30.78,103.11L31.39,103.73L31.43,104.11L30.95,104.33L31.57,104.64L32.12,104.44L32.57,104.61L33.02,104.4L33.78,103.72L34.22,103.77L34.29,104.42L34.02,104.66L34.17,104.83L34.76,104.69L36.13,104.56L36.55,105.06L36.77,105.77L37.25,106.23L37.39,106.61L37.23,106.91L36.5,107.17L36.59,108.07L36.92,108.62L37.41,109.02L37.21,109.54L36.75,109.63L36.54,109.97L36.39,109.59L35.85,109.21L35.32,109.27L34.14,108.69L33.56,108.33L32.91,107.57L32.83,107.29L31.86,107.13L30.76,107.25L31.03,107.01L30.01,107.4L29.7,107.83L29.48,107.5L29.98,106.76L30.15,106.81L30.15,105.56L30.43,104.71L29.92,104.99L29.64,104.86L29.39,105.11L29.06,104.92L28.9,105.25L28.69,104.9L28.54,105.24L28.23,105.18L28.44,104.67L28.34,104.51L27.64,104.92L27.69,105.19L27.2,104.96L27.03,105.45L26.35,105.51L25.18,104.45L24.86,104.65L24.89,104.28L24.47,104.22L23.86,103.69L23.89,103.15L23.13,102.64L22.82,102.93L22.25,102.56L21.9,102.54L21.5,101.82L23.28,100.91L23.85,99.81L24.51,99.93L24.7,99.79L24.76,99.17L24.62,98.78L22.63,98.79L22.78,97.95L23.4,97.29L23.98,97.14L24.71,97.23L25.37,97.56L25.92,97.56L26.43,97.14L27.1,97.24L27.44,96.81L27.67,96.75ZM110.37,77.51L110.85,77.49L110.86,76.58L112.04,76.16L112.19,75.52L112.39,75.33L112.4,74.66L112.15,73.6L112.19,73.34L109.92,73.09L110.85,71.86L110.8,71.44L111.14,70.85L111.04,69.92L111.22,69.82L111.17,69.37L110.58,68.33L109.68,69.18L109.34,69.07L109.6,68.55L109.22,68.12L109.35,67.62L109.2,67.42L109.61,67.05L109.69,66.64L109.45,66.33L109.6,66.2L114.56,64.57L116.28,63.99L116.5,63.9L116.87,64.36L116.89,64.74L117.31,65.16L117.27,65.72L117.99,66.26L118.21,66.64L118.56,66.73L119.19,66.41L119.37,66.74L120.04,66.87L120.04,67.15L120.49,67.9L121.07,69.06L120.95,69.39L121.48,69.99L121.5,70.36L122.93,72.4L125.66,72.7L125.83,72.98L125.97,73.72L125.93,74.83L126.32,75.84L126.17,76.45L126.36,77.04L126.85,77.5L127.06,77.95L127.74,78.36L126.36,80.84L125.12,82.23L123.75,82.29L123.38,82.12L122.6,82.11L122.42,81.76L121.84,81.39L121.13,81.15L119.95,80.96L119.67,81.2L119.43,80.82L118.82,80.66L118.84,81.03L118.37,80.81L118.32,80.44L117.76,81.45L117.38,81.41L116.95,81.69L116.86,81.11L116.47,80.72L116.34,81.1L116,80.66L115.79,80.93L115.55,80.45L115.83,80.16L115.55,79.96L115.19,80.31L114.86,80.33L114.96,80.61L114.59,80.85L114.42,80.71L113.6,80.66L113.79,80.28L113.64,80.03L113.22,80.28L112.39,80.27L112.48,79.63L111.92,79.77L111.75,79.43L111.32,79.39L111.17,78.9L111.48,78.47L111.15,78.3L111.02,77.92L110.41,77.95ZM90.84,61.05L90.89,60.71L91.21,60.38L91.28,59.51L91.81,59.27L92.02,58.97L92.79,58.66L93,58.35L93.91,58.16L93.93,57.86L94.24,57.69L94.03,57.16L94.32,57.33L94.91,57.32L95.59,56.62L95.97,56.52L96.48,56.94L96.89,56.85L96.92,57.25L97.41,57.63L97.38,57.95L97.78,58.53L98.17,59.61L97.97,60.21L97.46,60.37L97.38,60.82L96.92,61.08L97.13,61.72L97.22,62.67L96.39,62.73L95.93,62.47L95.47,63.26L95.1,63.68L94.89,63.32L94.57,63.35L93.19,62.66L93.06,62.83L92.63,62.46L92,62.56L91.64,62.42L91.36,61.91L91.35,61.54L91.03,61.52L91.1,61.1ZM105.33,53.11L106.5,52.89L107.09,52.14L110.37,51.7L110.52,51.99L110.91,52.18L111.1,52.56L111.49,52.27L111.56,52.52L112.45,52.78L112.34,53.02L113.24,53.21L113.21,53.53L113.6,53.41L114.02,53.55L114.29,53.82L114.97,53.88L116.02,53.68L116.71,53.91L116.83,54.3L116.76,54.99L116.59,55.38L116.28,55.24L116.13,55.58L116.57,55.65L116.93,56.33L116.87,56.73L116.54,56.74L116.45,57.05L116.79,57.5L117.33,57.76L116.86,57.97L116.52,57.64L116.25,57.98L116.2,57.72L116.47,57.51L116.09,57.5L116.09,58L115.86,57.76L115.76,58.19L115.48,58.12L115.35,58.63L115.17,58.73L115.04,58.33L114.83,58.37L114.83,59.07L114.58,58.48L114.26,58.48L114.54,58.74L114.53,59.19L114.21,59.02L114.4,59.54L114.19,59.76L113.81,59.61L113.62,60.01L113.53,59.76L113.42,60.36L113.76,60.46L113.65,60.84L113.22,60.71L113.18,61.17L113.47,61.22L113.77,61.76L113.58,62.38L113.88,62.24L114.01,62.51L114.41,62.22L114.84,62.23L115.41,62.81L115.26,62.99L115.58,63.35L116.03,63.32L115.98,63.65L116.32,63.56L116.28,63.99L114.56,64.57L109.6,66.2L109.45,66.33L107.39,66.92L107.67,66.18L107.94,64.97L107.93,63.83L108.21,63.88L108.41,63.32L107.07,63.49L106.42,63.48L106.03,62.94L105.48,62.9L105.16,63.03L104.72,62.65L104.06,62.48L103.67,61.91L103.71,61.57L103.51,60.85L102.96,60.86L102.8,60.66L102.92,59.97L103.42,59.44L103.59,59.67L104.23,59.59L104.16,60.09L103.93,60.48L104.29,60.84L105.02,60.91L105.81,60.76L106.95,61.25L107.16,60.85L107.63,60.66L107.61,60.13L107.29,59.84L106.8,59.72L105.81,59.81L105.14,59.59L104.98,59.12L105.55,58.76L104.98,58.08L104.68,58.02L104.14,57.4L104.63,56.29L104.44,55.92L104.53,55.39L104.38,55.06L104.84,54.78L105.52,54.19L105.59,53.31ZM99.79,71.3L100.43,71.56L101.25,70.97L100.7,69.43L100.72,69.21L99.96,68.7L99.79,68.39L100.08,68.07L100.03,67.64L99.75,67.59L99.64,67.05L98.95,66.95L98.61,67.08L98.49,67.53L98.22,67.46L98.11,66.98L97.95,67.38L97.67,68.07L97.67,68.42L97.76,68.73L97.43,68.78L97.74,66.06L97.37,65.29L96.97,65.36L96.61,65L96.51,64.62L95.83,64L95.21,63.9L95.1,63.68L95.47,63.26L95.93,62.47L96.39,62.73L97.22,62.67L98.11,62.58L98.54,62.85L99.15,62.98L99.41,63.38L99.3,63.56L99.95,63.98L100.26,64.45L100.75,64.27L101.49,64.42L101.6,64.79L102.43,65.38L103.47,65.66L103.88,65.89L104.18,65.36L104.72,64.76L104.87,64.13L105.1,63.83L104.9,63.43L105.16,63.03L105.48,62.9L106.03,62.94L106.42,63.48L107.07,63.49L108.41,63.32L108.21,63.88L107.93,63.83L107.94,64.97L107.67,66.18L107.39,66.92L109.45,66.33L109.69,66.64L109.61,67.05L109.2,67.42L109.35,67.62L109.22,68.12L109.6,68.55L109.34,69.07L109.68,69.18L110.58,68.33L111.17,69.37L111.22,69.82L111.04,69.92L111.14,70.85L110.8,71.44L110.85,71.86L109.92,73.09L112.19,73.34L112.15,73.6L112.4,74.66L112.39,75.33L112.19,75.52L112.04,76.16L110.86,76.58L110.85,77.49L110.37,77.51L108.71,77.61L108.61,78.3L108.2,78.75L107.69,78.66L106.61,78.72L106.35,79.09L105.68,79.33L104.88,79.1L104.16,78.41L103.72,78.09L102.72,77.82L102.11,79.07L101.92,78.73L101.43,78.61L101.66,78.26L101.67,77.73L102.38,77.2L102.3,76.79L101.8,76.07L101.81,75.72L101.43,75.69L101.05,75.01L101.07,74.77L100.43,74.41L100.56,74.27L100.37,73.8L99.92,73.1L100.08,72.93L99.69,72.43L99.86,72.09ZM49.08,101.23L48.63,100.51L48.49,100.64L45.64,100.6L45.19,101.27L45.01,101.23L44.54,102.84L43.66,102.68L43.39,102.45L42.85,102.27L42.29,102.27L41.82,101.71L41.33,101.3L40.79,101.03L40.53,100.74L40.33,100.07L40.43,99.58L40.22,99.18L39.68,98.85L39.36,98.81L38.61,97.99L38.53,97.55L37.44,97.3L36.79,97.69L36.53,97.97L36.72,98.39L36.13,98.79L35.97,98.73L35.56,99.24L35.41,99.98L34.91,100.11L34.88,100.59L34.24,101.31L34.24,101.79L34.05,102.18L33.52,102.63L33.52,102.94L33.03,102.83L32.61,102.53L32.77,101.7L32.26,101.02L32.42,100L32.67,99.73L32.24,99.16L32.32,98.65L32.78,98.34L32.58,97.28L33.27,97.12L33.37,96.35L32.53,95.8L32.59,95.43L33.47,95.86L33.82,95.63L33.77,94.79L34.05,94.69L34.43,94.89L35.29,94.83L35.03,94.64L34.29,94.51L33.7,94.57L33.58,93.82L34.21,93.59L34.23,92.75L35.01,92.63L34.47,92.26L34.19,91.18L34.84,90.77L35.12,91.02L35.76,91.26L35.88,91.92L37.17,92.01L37.4,91.76L37.52,91.19L39.44,91.08L40.27,92.1L41.06,90.99L41.77,92.01L42.49,92.5L43.64,91.34L44.04,91.65L43.92,91.82L44.02,92.58L44.32,92.82L44.61,92.73L44.93,93.45L45.49,93.76L46.38,94L46.48,94.45L46.32,94.74L46,94.65L45.77,95.08L45.74,95.49L46.03,95.7L46.11,96.12L46.67,95.77L47.26,95.74L47.47,95.28L47.76,95.38L47.5,96.29L48.02,96.6L48.48,97.03L48.88,97.76L48.53,97.78L48.7,98.07L49.24,98.02L48.98,98.6L49.35,98.66L49.25,99.1L50.04,99.29L50.09,99.5L49.34,100.2ZM70.51,73.1L70.48,72.25L70.14,72.24L69.89,71.94L70.12,71.58L69.86,71.4L69.91,70.5L69.58,70.53L68.94,69.77L69.14,68.73L69.13,68.06L69.27,67.58L68.65,66.96L69.03,66.5L69.2,65.03L69.29,64.27L69.48,64.14L70.4,63.99L70.97,63.27L71.36,63.19L72,62.51L73.04,61.9L73.48,61.47L73.78,61.26L74.54,61.21L75.09,61.42L76.07,61.34L76.26,61.89L77.25,62.01L77.24,62.42L77.59,62.73L77.91,62.78L78.28,62.79L78.34,63.04L78.86,63.43L79.02,63.35L79.67,65.14L80.16,65.23L80.93,66.11L80.79,66.48L81.18,66.99L81.48,68.15L81.82,68.51L81.54,68.93L81.65,69.41L81.2,69.98L81.08,70.64L81.28,71L81.2,71.36L81.49,71.73L82.47,71.93L82.78,72.33L82.84,71.92L83.37,72.08L83.54,72.69L83.05,73.19L83.16,73.56L82.29,74.37L82.05,74.22L81.22,74.23L80.65,74.14L79.28,73.75L77.38,73.56L75.97,73.01L75.21,72.94L74.69,73.26L74.24,73.3L73.86,73.72L73.44,73.53L73.24,73.85L72.94,73.51L71.09,73.02L70.81,73.29ZM85.89,54.48L86.03,54.75L85.49,54.9L84.97,55.51L84.95,56.38L84.56,56.39L84.55,58.38L84.32,58.35L83.71,57.71L83.76,57.36L82.95,58.07L82.81,58.55L82.89,59.27L82.59,60.25L82.23,60.72L81.99,61.43L81.77,61.53L81.41,61.32L81.09,61.47L80.87,61.32L80.25,61.26L79.93,61.47L79.44,61.16L79.29,61.51L78.91,61.83L78.26,61.86L77.79,62.03L77.91,62.78L77.59,62.73L77.24,62.42L77.25,62.01L76.26,61.89L76.07,61.34L75.09,61.42L74.54,61.21L73.78,61.26L73.48,61.47L73.47,55.08L73.92,55.36L74.36,54.95L74.18,54.23L74.61,54.04L74.71,53.69L74.3,53.48L74.27,53.19L74.63,52.82L75.19,52.71L75.35,52.44L75.6,52.52L75.48,53.13L75.58,53.34L76,53.39L76.29,53.03L76.76,52.83L76.97,52.54L77.22,52.61L77.29,53.15L77.48,53.46L77.45,53.99L77.74,53.91L77.64,53.53L77.84,53.32L78.64,53.23L78.87,53.39L78.94,53.84L79.2,53.85L79.34,53.51L79.08,52.76L79.55,52.63L79.75,53.18L79.52,54.08L79.84,54.22L80,53.48L80.3,53.36L80.92,53.57L80.71,54.02L80.97,54.26L81.28,54.15L81.29,53.22L81.63,53.06L82.06,53.22L82.02,53.74L81.75,53.9L81.79,54.25L82.29,54.13L82.52,53.7L82.34,53.41L82.82,53.33L83.32,53.93L84.11,53.34L84.42,53.32L84.94,53.6L85,54.32L85.19,54.73L85.37,54.44ZM73.04,61.9L72,62.51L71.36,63.19L70.97,63.27L70.4,63.99L69.48,64.14L69.29,64.27L69.2,65.03L68.11,65.02L67.22,65.21L66.67,65.22L65.95,64.95L66.14,64.69L67.18,64.23L67.52,63.85L67.68,63.32L66.36,61.5L65.59,61.48L65.37,61.25L64.87,61.46L64.51,61.38L64.71,60.57L63.95,59.59L64.77,59.81L64.41,59.2L64.34,58.75L63.97,58.68L63.5,58.94L63.26,58.29L62.64,56.96L62.72,56.43L62.19,56.25L61.95,55.85L61.41,56.05L60.91,55.8L60.72,55.46L59.4,55.08L59.44,54.94L58.95,54.66L58.65,54.23L58.79,54.06L58.35,53.7L57.93,53.58L57.76,53.08L57.45,52.93L57.18,53.16L56.84,52.69L56.4,52.58L55.97,51.96L55.05,51.53L54.38,51.33L54.29,51.12L53.21,51.13L53.05,50.93L52.37,50.75L51.76,50.21L51.02,50.5L51.02,48.97L51.68,48.51L52.03,48.62L53.73,47.94L54,48.28L54.89,47.98L55.85,48.08L56.44,47.85L56.75,47.58L57.09,48.09L57.19,47.68L56.54,47.27L56.7,47.05L56.32,46.68L56.28,45.81L56.11,45.52L56.21,45.13L56.46,45.01L56.18,44.28L56.53,44.08L56.28,43.7L56.28,43.33L55.5,43.35L55.2,43.2L54.75,43.31L54.67,42.9L54.29,42.38L54.44,42.21L54.19,41.94L54.15,41.3L53.69,40.94L53.63,40.01L53.77,39.68L53.55,39.28L53.41,38.19L52.97,37.43L53.19,37.17L53.11,36.77L52.79,36.64L52.39,35.75L52.3,35.19L52.34,34.22L52.25,33.55L51.73,32.83L51.34,32.01L50.97,31.45L51.34,31.54L51.51,31.26L51.82,30.11L52.62,29.97L53.31,30.62L53.3,30.15L53.86,29.93L54.61,29.94L55.3,30.28L55.33,30.52L56.02,30.72L56.17,30.97L56.78,31.38L57.39,31.55L56.95,30.61L57.14,30.17L56.89,29.53L57.01,29.16L57.4,29.33L57.63,28.73L57.85,28.58L57.96,28.96L58.25,28.85L58.12,29.24L58.64,28.61L58.84,28.94L59.17,28.42L59.54,28.41L60.16,28.11L60.35,28.52L60.9,28.37L60.83,28.59L61.78,28.67L62.11,29.65L61.58,30.13L61.31,30.09L61.3,30.61L60.71,30.36L60.55,30.78L59.99,31.44L59.52,31.71L59.22,32.06L59.7,32.39L59.94,32.84L60.15,32.87L60.28,33.46L60.91,34.29L61.32,35.16L61.56,34.99L61.96,35.28L61.73,35.71L61.85,36.01L60.59,36.47L60.8,36.91L61.52,36.99L61.82,36.73L61.83,37.32L61.61,38.28L62.07,38.63L61.24,38.5L60.89,38.79L61.06,39.64L60.73,39.87L60.7,40.34L61.1,41.05L61.39,41.2L61.62,42.18L62,42.2L62.13,43.32L62.49,43.48L62.39,44.3L62.82,44.43L62.69,44.69L63.1,45.27L62.8,45.6L62.86,45.9L63.29,46.21L63.5,46.06L63.71,46.65L64.34,46.65L64.35,47.11L64.68,47.45L65.08,47.54L65.18,48.07L65.85,48.14L66.15,48.43L66.5,49.15L66.3,49.75L65.78,50.14L65.82,50.45L66.21,50.62L66.29,50.98L65.87,50.82L65.94,51.05L66.44,51.08L66.49,51.25L66.05,51.63L66.5,52.08L66.3,53.12L66,53.23L66.04,53.99L65.79,54.33L65.85,54.79L66.59,54.9L67.07,54.76L67.96,55.39L67.98,55.82L67.81,56.4L68.07,57.37L68.82,58.4L69.04,58.38L69.88,57.67L70.95,57.82L71.41,57.64L71.39,58.3L71.79,59.55L71.88,60.29L72.52,61L72.93,61.29ZM73.48,61.47L73.04,61.9L72.93,61.29L72.52,61L71.88,60.29L71.79,59.55L71.39,58.3L71.41,57.64L70.95,57.82L69.88,57.67L69.04,58.38L68.82,58.4L68.07,57.37L67.81,56.4L67.98,55.82L67.96,55.39L67.07,54.76L66.59,54.9L65.85,54.79L65.79,54.33L66.04,53.99L66,53.23L66.3,53.12L66.5,52.08L66.05,51.63L66.49,51.25L66.44,51.08L65.94,51.05L65.87,50.82L66.29,50.98L66.21,50.62L65.82,50.45L65.78,50.14L66.3,49.75L66.5,49.15L66.15,48.43L65.85,48.14L65.18,48.07L65.08,47.54L64.68,47.45L64.35,47.11L64.34,46.65L63.71,46.65L63.5,46.06L63.29,46.21L62.86,45.9L62.8,45.6L63.1,45.27L62.69,44.69L62.82,44.43L62.39,44.3L62.49,43.48L62.13,43.32L62,42.2L61.62,42.18L61.39,41.2L61.1,41.05L60.7,40.34L60.73,39.87L61.06,39.64L60.89,38.79L61.24,38.5L62.07,38.63L61.61,38.28L61.83,37.32L61.82,36.73L61.52,36.99L60.8,36.91L60.59,36.47L61.85,36.01L61.73,35.71L61.96,35.28L61.56,34.99L61.32,35.16L60.91,34.29L60.28,33.46L60.15,32.87L59.94,32.84L59.7,32.39L59.22,32.06L59.52,31.71L59.99,31.44L60.55,30.78L60.71,30.36L61.3,30.61L61.31,30.09L61.58,30.13L62.11,29.65L61.78,28.67L60.83,28.59L60.9,28.37L61.2,28.45L61.23,28.11L61.69,27.81L61.78,28.12L62.28,28.53L63.21,29.03L63.57,29.07L63.84,28.81L63.74,28.6L64.16,28.11L63.86,27.78L64.03,27.53L63.64,27.51L63.53,27.27L63.76,26.81L63.66,26.56L64.22,25.97L64.58,26.27L65.29,26.12L65.2,25.69L65.42,25.48L66.43,25.32L66.42,25.74L66.6,26.32L66.23,26.61L66.51,27.85L67.17,28.51L67.65,28.43L67.82,28.73L67.87,29.47L68.3,29.94L67.24,30.19L67.25,30.7L67.48,30.71L67.66,31.44L67.39,31.79L67.47,32.21L68.16,32.03L68.57,32.69L68.3,33.23L68.63,33.29L69.19,33.08L69.6,33.47L69.53,34.43L70.23,35.36L70.65,35.36L71.36,35.76L71.52,35.62L72.1,36.2L72.03,36.4L72.83,36.76L72.95,36.47L73.21,36.71L73.13,37.07L73.86,37.14L73.96,37.67L74.19,37.88L74.61,37.54L75.44,37.57L75.45,37.26L75.81,37.13L76.14,36.69L76.32,36.98L76.93,36.83L77.15,36.94L77.5,36.6L77.84,36.53L78.01,36.82L78.24,36.51L78.92,36.9L79.4,36.83L79.5,37.34L79.94,37.66L81.25,37.84L81.38,37.43L81.75,37.19L82.27,37.24L82.71,36.71L82.95,36.93L83.57,36.75L83.48,36.51L84.09,37.03L83.85,37.4L84.28,38.02L84.81,38.29L85.1,37.86L85.35,38.7L85.82,38.95L86.68,38.75L86.89,39.09L87.33,38.98L87.29,39.41L87.84,39.49L87.55,39.94L87.82,40.07L87.71,40.44L87.97,40.54L88.46,39.95L88.31,40.62L88.83,40.69L89.04,40.48L89.85,40.66L89.93,40.39L89.65,40.15L89.86,39.96L90.19,40.6L90.65,40.81L91.05,40.79L91.22,40.46L91.83,40.64L92.1,40.29L92.62,40.09L92.67,40.51L93.06,40.74L93.48,40.63L93.75,41.1L94.39,41.07L94.87,41.21L95.11,41.07L95.72,41.37L96.32,41.2L96.91,41.67L96.98,41.95L96.66,42.49L96.67,42.76L96.98,43.12L97,43.68L97.66,43.86L97.98,44.68L97.99,44.97L97.72,45.44L97.98,46.11L97.76,46.78L97.9,47.4L97.21,46.99L97.01,46.39L96.52,46.33L95.77,46.74L95.12,47.32L94.46,47.51L94.38,47.69L93.76,47.68L93.6,48.63L92.86,48.87L92.72,49.57L93.23,49.36L93.49,50.2L93.32,50.41L92.8,49.99L92.51,49.99L92.29,50.46L92.46,50.83L91.88,50.76L90.56,51.85L90.41,51.16L90,51.48L89.72,51.43L88.94,52.32L88.41,52.65L88.27,51.92L87.88,51.94L87.66,52.24L88.14,52.55L88.09,52.8L87.64,52.8L87.3,53.11L86.94,52.94L87.07,52.38L86.65,52.19L86.43,52.5L85.68,52.63L85.78,52.22L85.6,52.07L85.43,52.41L84.23,52.7L84.28,52.92L84.86,52.92L85,53.07L84.94,53.6L84.42,53.32L84.11,53.34L83.32,53.93L82.82,53.33L82.34,53.41L82.52,53.7L82.29,54.13L81.79,54.25L81.75,53.9L82.02,53.74L82.06,53.22L81.63,53.06L81.29,53.22L81.28,54.15L80.97,54.26L80.71,54.02L80.92,53.57L80.3,53.36L80,53.48L79.84,54.22L79.52,54.08L79.75,53.18L79.55,52.63L79.08,52.76L79.34,53.51L79.2,53.85L78.94,53.84L78.87,53.39L78.64,53.23L77.84,53.32L77.64,53.53L77.74,53.91L77.45,53.99L77.48,53.46L77.29,53.15L77.22,52.61L76.97,52.54L76.76,52.83L76.29,53.03L76,53.39L75.58,53.34L75.48,53.13L75.6,52.52L75.35,52.44L75.19,52.71L74.63,52.82L74.27,53.19L74.3,53.48L74.71,53.69L74.61,54.04L74.18,54.23L74.36,54.95L73.92,55.36L73.47,55.08ZM60.57,101.21L59.53,101.29L59.29,100.86L56.89,99.88L56.58,99.61L55.8,99.37L54.8,99.8L55.36,100.7L55.56,101.18L55.13,101.87L55.09,102.57L54.68,102.93L54.14,103.08L53.89,102.8L53.7,102.93L53.39,102.51L53.1,102.51L53.01,101.93L52.64,101.96L52.07,102.29L51.84,102.59L51.56,102.43L51.23,102.55L50.53,102.48L50.54,102.32L49.28,102L49.07,101.67L49.08,101.23L49.34,100.2L50.09,99.5L50.04,99.29L49.25,99.1L49.35,98.66L48.98,98.6L49.24,98.02L48.7,98.07L48.53,97.78L48.88,97.76L48.48,97.03L48.02,96.6L47.5,96.29L47.76,95.38L47.47,95.28L47.26,95.74L46.67,95.77L46.11,96.12L46.03,95.7L45.74,95.49L45.77,95.08L46,94.65L46.32,94.74L46.48,94.45L46.38,94L45.49,93.76L44.93,93.45L44.61,92.73L44.32,92.82L44.02,92.58L43.92,91.82L44.04,91.65L43.64,91.34L43.49,91.19L43.9,90.39L44.1,90.22L44.03,89.87L44.47,89.81L44.58,89.59L44.39,88.95L45.36,88.44L45.53,88.55L45.85,87.84L46.66,87.7L47.14,87.16L48.1,87.14L48.14,86.97L48.94,87.12L49.56,86.66L49.96,86.04L50.57,86.46L50.45,86.66L50.74,86.89L50.7,87.34L51.59,87.63L51.87,87.31L52.45,87.55L52.66,87.26L53.68,87.69L53.85,88.05L53.83,88.67L54.45,89.1L54.92,89.9L55.32,90.01L55.83,90.58L56.47,90.71L56.46,91.02L56.55,91.11L56.82,91.21L57.06,91.26L56.94,91.43L56.93,91.49L56.97,91.64L57.07,91.68L57.23,91.58L57.39,91.59L57.32,91.78L57.5,91.85L57.45,91.77L57.65,91.81L57.5,91.91L57.66,92.16L57.66,92.33L57.68,92.36L57.73,92.35L58.12,92.25L58.13,92.28L58.69,92.98L58.8,92.87L58.86,92.95L59.05,93.03L58.93,93.05L58.91,93.08L58.93,93.11L59.08,93.14L59.28,93.08L59.31,93.04L59.33,92.67L59.34,93.39L59.81,94.03L60.1,93.64L60.22,94.03L60.68,94.1L60.57,94.37L61.03,94.47L61.31,94.8L61.77,94.38L61.74,94.64L62.13,94.8L62.12,95.26L61.91,95.52L62.19,96.02L61.87,96.02L62.29,97.06L62.72,97.07L62.64,97.38L62.98,97.86L63.42,97.73L63.76,98.75L63.98,98.71L64.09,99.31L63.93,99.78L64.32,99.8Z" fill="#B3CFC0" stroke="#007139" stroke-width="0.5"/></svg>