<svg xmlns="http://www.w3.org/2000/svg" width="144" height="144" viewBox="0 0 144 144"><path d="M9.11,106.31L12.79,106.1L12.89,99.05L22.07,95.83L24.76,89.35L24.82,84.17L23.19,73.91L5.59,71.97L12.78,62.4L12.42,59.11L15.06,54.57L14.31,47.35L15.29,43.06L10.69,34.97L3.75,41.55L1.09,40.73L3.11,36.67L0.12,33.37L0,27.94L3.2,25.08L3.09,18.42L41.65,5.78L56.71,0.62L59.58,4.18L59.69,7.1L62.96,10.34L62.68,14.68L72.73,22.59L77.61,20.09L79.01,22.63L84.18,23.62L84.23,25.83L92.2,40.63L91.28,43.25L95.34,47.87L95.51,50.79L106.65,66.62L127.86,68.9L130.26,76.88L129.97,85.45L132.98,93.34L131.81,98.05L133.3,102.6L137.08,106.23L138.73,109.71L144,112.89L133.25,132.15L123.61,142.95L112.99,143.38L110.15,142.07L104.1,142.05L102.65,139.29L98.14,136.39L92.63,134.55L83.47,133.09L81.31,134.91L79.49,131.99L74.68,130.73L74.84,133.65L71.2,131.94L70.83,129.06L66.51,136.89L63.51,136.57L60.16,138.77L59.46,134.22L56.43,131.2L55.48,134.15L52.81,130.73L51.17,132.87L49.34,129.13L51.49,126.85L49.29,125.28L44.7,130.37L34.17,130.73L34.5,125.85L31.19,127.83L24.77,127.71L25.47,122.75L21.15,123.88L19.83,121.23L16.5,120.88L15.29,117.08L17.74,113.74L14.14,109.5L9.37,109.73Z" fill="#B3CFC0" stroke="#007139" stroke-width="0.5"/></svg>