<svg xmlns="http://www.w3.org/2000/svg" width="144" height="144" viewBox="0 0 144 144"><path d="M66.63,124.47L67.22,123.4L67.64,121.5L66.95,121.01L66.24,119.21L66.34,118.18L67.27,117.6L67.45,116.78L69.31,116.22L70.34,116.36L72.4,113.93L72.78,111.77L74.46,110.38L74.68,110.45L75.1,111.67L76.79,112.89L77.58,113.06L77.91,113.9L78.96,113.92L80.71,114.61L82.09,113.46L83.35,116.39L83.22,117.45L83.37,118.22L84.28,118.59L84.32,120.01L83.88,121.01L84.13,122.28L83.55,122.89L84.36,124.45L84.35,126.5L82.82,129.14L82.21,128.27L81.98,129.4L81.61,130.51L79.04,129.67L78.79,130.05L76.77,129.64L76.59,128.81L73.54,127.64L70.52,128.8L69.54,127.6L67.04,127.81L67.11,125.45ZM139.53,27.02L139.71,28.65L139.06,29.01L137.55,28.8L135.99,29.12L134.17,28.95L134.08,28.53L130.88,28.4L131.25,27.51L130.3,26.35L129.24,26.78L128.73,24.51L130.4,24.05L130.86,25.25L133.76,25.4L137.28,26.73ZM112.98,70.58L112.05,72.19L111.14,71.76L110,72.16L109.33,71.24L108.71,69.02L107.33,68.25L105.56,68.29L105.32,67.38L103.24,67.08L101.27,66.1L101.05,65.09L100.13,64.73L99.92,63.53L100.97,61.88L100.92,61.32L101.52,61.06L101.97,62.01L102.91,62.67L105.89,63.07L107.12,63.64L107.96,64.69L107.99,65.56L109.72,67.15L110.03,67.98L112.03,69.19ZM119,12.13L120.02,13.59L121.26,13.36L122.38,13.92L124.47,12.76L125.47,14.21L124.77,16.83L122.9,17.6L122.27,18.42L121.68,17.58L120.86,17.99L121.56,19.28L120.27,19.19L120.35,20.87L119.35,21.08L119.77,22.29L118.49,22.78L118.89,23.7L117.68,24.37L117.03,26.02L115.58,25.97L114.18,24.25L112.85,24.39L112.69,23.5L111.71,22.87L109.62,22.49L108.28,20.93L107.37,19.22L108.29,18.6L108.03,17.68L108.8,16.85L107.95,15.07L108.06,14.89L109.39,15.98L109.75,15.39L111.22,14.77L112.91,15.35L114.55,14.24L117.13,13.96L116.47,12.04L116.83,11.62ZM107.37,19.22L108.28,20.93L109.62,22.49L111.71,22.87L111.1,24.15L111.43,25.29L110.04,26.6L109.18,29.08L107.62,28.85L106.13,27.98L104.05,28.83L103.9,26.83L105.04,25.05L105.14,23.72L107.3,21.85L107.07,20.26ZM84.75,60.17L82.37,59.7L81.01,58.52L80.79,57.34L79.49,55.81L79.57,54.15L79.27,53.15L77.87,52.23L77.92,51.37L76.88,49.78L77.57,47.47L78.17,47.85L80.31,47.36L81.3,46.63L82.82,46.53L85.21,44.63L87.47,44.05L88.67,42.14L89.8,41.62L90.08,40.75L91.38,40.79L92.59,40.99L93.82,41.7L95.36,41.49L97.68,40.39L98.5,41.64L97.54,43.15L98.66,44.41L99.55,44.7L100.1,45.89L99.35,47.41L100.51,48.02L101.47,47.83L102.78,48.86L106.18,49.97L107.28,49.63L107,50.61L107.79,50.49L107.76,51.49L106.12,52.24L106.28,52.95L105.6,53.69L104.3,54.8L104.64,55.12L102.87,56.56L103.3,56.98L102.57,57.95L100.65,56.78L100.48,54.98L100.08,54.54L98.65,55.73L97.95,56.81L96.83,56.6L96.56,55.21L95.79,55.38L94.23,54.8L93.98,55.43L91.55,54.79L88.28,55L88,56.6L85.77,57.54L86.02,58.56ZM28,74.09L27.7,74.71L27.02,74ZM27.25,71.06L27.68,71.78L26.94,72.08ZM66.24,119.21L66.95,121.01L67.64,121.5L67.22,123.4L66.63,124.47L65.93,124.71L65.19,125.87L64.7,125.8L63.84,127.01L64.02,127.93L63.27,128.92L62.97,130.6L62.02,131.88L60.62,132.51L60.64,133.73L58.75,135.42L57.13,135.15L55.66,135.46L55.04,135.08L53.52,135.29L51.38,135.96L50.89,139.73L50.02,140.44L50.2,141.11L49.23,142.32L46.76,141.97L46.39,140.94L45.56,140.48L44.88,139.3L43.86,139.44L42.47,138.43L41.99,138.65L40,138.26L38.85,137.47L37.32,137.06L35.12,138.86L34.72,138.21L31.99,138.59L31.98,139.03L29.74,140.87L28.72,140.74L28.81,141.83L27.46,142.76L26.28,142.23L25.47,140.77L24.49,140.95L23.53,140.53L24.27,139.71L21.46,137.92L21.18,138.53L19.3,140.36L17.81,139.93L17.91,138.69L16.48,137.63L16.57,135.68L15.83,134.97L15.02,134.99L14.16,132.95L13.07,132.01L11.44,132.89L10.63,133.8L10.41,134.78L9.36,135.33L7.55,134.14L8.13,133.53L6.04,133.48L4.92,134.11L4.29,133.75L5.84,131.47L8.36,128.18L9.12,128L9.43,126.93L10.75,126.16L13.01,123.8L13.8,123.57L14.17,124.62L14.81,122.5L16.07,121.13L17.6,118.11L18.08,117.61L17.91,119.36L18.59,120.5L20.28,119.28L19.95,117.72L17.44,115.94L17.74,115.11L20.19,112.64L20.39,111.65L23.13,108.3L23.55,108.81L27.36,107.62L27.93,107.84L29.53,105.97L30.31,105.76L30.55,103.98L31.19,102.48L32.52,103.25L32.54,100.3L31.63,99.71L30.82,100.57L30.22,97.65L30.12,95.72L32.11,95.46L32.5,94.94L32.04,94L31.32,91.18L33.73,91.59L34.95,91.33L36.04,90.42L36.9,88.21L38.32,87.53L39.94,87.37L40.73,86.83L39.29,85.96L38.32,84.07L37.72,84.41L37.77,85.94L36.71,86.55L34.98,86.47L33.77,87.54L31.68,88.45L31.45,89.43L30.39,88.95L29.68,89.31L27.44,89.18L26.48,89.71L23.99,88.9L23.12,87.51L22.45,87.28L22.28,86.33L23.24,86.13L23.66,84.8L21.98,83.96L21.12,84.25L21.12,82.59L21.8,82.18L21.35,80.81L22.69,79.85L23.68,78.5L24.68,78.04L26.42,78.51L26.35,77.95L28.15,77.43L30.02,74.95L30.22,72.97L29.1,72.58L27.89,72.73L28.03,71.7L27.62,71.08L26.87,70.96L26.51,71.82L25.49,72.62L25.08,71.49L23.53,73.43L22.39,74.12L21.11,76.32L21.21,77.45L20.07,79.1L19.09,82.17L18.29,82.48L17.41,80.68L16.19,79.03L12.8,76.33L11.65,74.24L13.15,70.38L13.17,69.61L12.28,68.19L12.2,67.01L12.67,66.34L13.75,66.54L15.88,66.2L16.09,65.14L17.15,63.81L18.76,62.53L20.41,63.19L22.15,64.85L23.4,63.92L23.58,61.92L24.1,60.8L25.34,59.87L26.24,59.92L26.44,63.49L28.39,65.56L28.89,65.59L29.63,64.35L30.81,64.37L32.42,63.54L33.08,63.6L34.17,65.23L35.04,65.57L35.19,66.42L36.15,67.27L35.88,68.49L37.03,69.15L38.34,68.06L39.7,70.01L40.27,69.53L40.91,70.05L42.57,70.25L43.27,69.62L44.04,70.01L45.11,68.21L45.86,68.63L47.89,68.18L48.98,69.09L50.94,69.86L51.14,71.08L52.66,71.64L53.26,73.03L55.03,74.89L54.99,75.95L52.9,77.61L58.29,86.26L59.82,88.53L61.02,91.17L61.79,93.36L61.17,94.54L59.86,95.45L58.2,95.72L58.46,96.47L57.79,97.39L57.8,98.74L59.22,99.4L59.92,100.75L59.47,102.81L58.69,103.83L57.42,104.63L55.91,104.13L54.48,104.23L52.75,106.04L53.17,106.74L54.32,106.44L55.59,107.27L55.96,108.14L55.36,109.22L55.36,110.28L56.08,110.22L58.24,111.26L59.6,112.71L60.95,115.36L61,116.28L62.33,116.45L63.19,118.75ZM95.21,77.59L96.4,78.27L97.49,79.79L98.23,80.13L99.91,80.11L100.47,81.11L103.65,81.99L104.53,82.93L106.83,82.56L107.26,84.02L107.82,84.15L109.01,83.11L109.7,83.23L109.75,82.3L110.81,80.28L111.64,80.72L111.65,82.88L112.04,83.96L112.83,84.41L116.56,84.44L118.32,84.89L119.91,83.91L123.55,84.16L124.95,82.99L126.3,82.48L127.5,82.5L128.73,83.72L129.23,85.24L128.36,86.37L128.99,87.81L128.4,88.21L127.61,90.03L125.3,92.06L123.92,96.34L122.27,97.13L122.16,98.06L121.46,98.18L120.47,97.84L118.25,95.04L116.06,95.81L114.93,94.83L113.71,94.88L112.13,94L112.19,92.14L110.49,90.38L108.53,90.07L107.87,89.44L106.02,91.02L105.11,91.45L103.58,89.83L101.8,88.8L100.17,89.21L99.22,88.07L97.82,89.04L97.04,91.19L96.52,91.65L93.33,92.11L91.4,91.97L90.82,90.95L90.06,90.17L90.78,89.51L90.34,89.04L91.13,87.81L91.45,86.14L93.26,84.08L93.14,83.08L93.97,83.15L93.28,82.19L94.62,81.56L94.03,80.86L94.24,79.63ZM112.98,70.58L112.03,69.19L110.03,67.98L109.72,67.15L107.99,65.56L107.96,64.69L107.12,63.64L105.89,63.07L102.91,62.67L101.97,62.01L101.52,61.06L100.92,61.32L100.84,60.1L101.68,59.93L101.55,58.8L102.71,58.86L102.57,57.95L103.3,56.98L102.87,56.56L104.64,55.12L104.3,54.8L105.6,53.69L107.6,55.02L107.95,55.8L109.92,57.35L110.49,58.48L112.19,59.11L113.45,58.43L115.47,58.19L117.98,60.18L119.96,60.83L120.27,61.97L121.55,64.08L119.42,67.4L119.13,68.57L118.08,69.57L117.42,69.37L115.89,70.04L114.67,70.18L113.27,70.91ZM131.06,61.25L129.97,62.42L129.1,62.3L128.19,60.97L128.8,59.45L127.08,57.41L126.52,57.12L126.04,55.05L127.59,52.98L128.41,50.64L128.86,50.31L128.68,48.48L127.91,47.7L127.93,46.82L130.32,47.58L130.79,47.06L132.01,47.29L132.66,47.89L132.65,49.97L133.62,51.05L133.14,53.36L133.27,54.68L133.82,55.37L132.99,57.64L131.24,60.23ZM58.29,86.26L52.9,77.61L54.99,75.95L55.03,74.89L55.67,74.33L57.68,74.69L57.9,76.26L58.72,76.7L59.85,76.26L61.69,77.88L63.08,77.71L64,78.4L66.73,78.69L68.09,79.66L69.51,78.74L70.42,77.33L72.29,75.99L74.91,77.62L74.74,79.29L77.09,77.74L77.21,76.39L78.37,76.21L78.39,73.86L79.65,72.12L81.52,72.38L81.95,72.95L83.65,73.13L85.39,73.79L86.22,73.2L87.22,73.65L88.19,73.05L88.21,74.64L87.64,76.36L87.46,77.94L88.65,78.16L86.96,80.81L87.06,81.3L85.36,83.17L85.29,84.21L84.28,86.15L84.35,87.02L83.08,87L80.77,86.11L76.96,88.27L75.86,88.29L74.63,87.18L72.62,87.39L70.86,88.58L69.2,87.28L67.41,87.28L65.73,88.71L63.35,87.57L60.39,87.05L59.9,86.24ZM84.35,126.5L84.36,124.45L83.55,122.89L84.13,122.28L83.88,121.01L84.32,120.01L84.28,118.59L83.37,118.22L83.22,117.45L84.85,117.14L85.15,117.54L86.67,116.97L90.66,117.56L92.22,117.13L92.53,116.56L93.73,117.07L94.73,116.82L95.66,115.92L96.82,116.01L97.53,116.11L94.97,120.62L94.8,121.79L93.75,122.28L95.33,123.56L96.13,123.76L95.14,125.66L94.84,128.45L93.59,128.2L92.62,129.29L92.95,130L89.61,129.22L88.33,128.72L87.22,127.72L85.27,127.36ZM128.73,24.51L129.24,26.78L130.3,26.35L131.25,27.51L130.88,28.4L130.19,29.62L128.07,31.91L127.69,30.99L126.55,30.16L124.7,29.92L122.99,28.82L122.12,28.84L120.22,27.88L116.97,27.99L117.03,26.02L117.68,24.37L118.89,23.7L118.49,22.78L119.77,22.29L119.35,21.08L120.35,20.87L120.27,19.19L121.56,19.28L120.86,17.99L121.68,17.58L122.27,18.42L122.9,17.6L124.26,18.54L123.48,19.32L123.38,20.38L124.43,20.79L125.14,21.62L126.36,21.46L127.46,20.21L129.01,19.68L129.57,20.6L129.32,22.64L128.77,23.43ZM74.46,110.38L72.78,111.77L72.4,113.93L70.34,116.36L69.31,116.22L67.45,116.78L67.27,117.6L66.34,118.18L66.24,119.21L63.19,118.75L62.33,116.45L61,116.28L60.95,115.36L59.6,112.71L58.24,111.26L56.08,110.22L55.36,110.28L55.36,109.22L55.96,108.14L55.59,107.27L54.32,106.44L53.17,106.74L52.75,106.04L54.48,104.23L55.91,104.13L57.42,104.63L58.69,103.83L59.47,102.81L59.92,100.75L59.22,99.4L57.8,98.74L57.79,97.39L58.46,96.47L58.2,95.72L59.86,95.45L61.17,94.54L61.79,93.36L61.02,91.17L59.82,88.53L58.29,86.26L59.9,86.24L60.39,87.05L63.35,87.57L65.73,88.71L67.41,87.28L69.2,87.28L70.86,88.58L72.62,87.39L74.63,87.18L75.37,88.65L74.49,90.1L71.86,91.66L70.7,93.28L70.57,94.44L71.06,95.9L71.07,99.91L70.26,101.18L70.81,102.04L70.49,104.16L72.72,103.98L73.15,107.87L74.44,109.07ZM119,12.13L116.83,11.62L116.47,12.04L117.13,13.96L114.55,14.24L112.91,15.35L111.22,14.77L109.75,15.39L109.39,15.98L108.06,14.89L108.56,13.43L109.61,12.1L109.8,11.16L108.64,10.2L110.68,9.61L111.67,7.31L111.56,4.85L110.95,3.48L111.24,2.63L111.08,1.07L111.47,0.21L112.26,0L113.48,2.22L114.58,2.83L115.79,6.15L116.15,7.88L119.23,10.38ZM107.95,15.07L108.8,16.85L108.03,17.68L108.29,18.6L107.37,19.22L107.07,20.26L107.3,21.85L105.14,23.72L105.04,25.05L103.9,26.83L101.83,27.39L98.04,25.97L96.33,25.59L97.2,24.57L95.24,21.8L97.89,20.25L99.03,18.48L100,18.55L101.25,17.96L102.65,15.94L104.07,16ZM112.13,94L113.71,94.88L114.93,94.83L116.06,95.81L118.25,95.04L120.47,97.84L121.46,98.18L121.14,98.86L119.55,97.86L117.74,97.95L114.25,101.32L112.57,103.47L112.45,104.49L109.85,105.38L108.57,105.28L105.58,105.87L104.99,105.35L101.75,104.97L99.79,105.06L97.55,106.31L96.65,106.33L94.72,105.7L93.14,105.71L91.68,104.88L90.21,102.74L89.64,102.96L87.64,100.96L86.94,100.75L86.88,99.55L87.83,98.64L88.13,97.04L88.73,96.21L88.98,94.6L90.05,96.26L93.56,97.92L94.62,98.64L95.87,99.21L99.81,100.24L101.2,100.05L102.1,101.46L103.41,101.95L104.34,100.88L104.46,99.83L106.46,99.13L109.07,100.08L109.73,99.57L109.77,97.98L110.83,95.8ZM98.5,41.64L97.68,40.39L95.36,41.49L93.82,41.7L92.59,40.99L91.38,40.79L90.28,39.15L88.54,37.61L89.9,36.79L90.17,35.84L91.67,36.08L92.86,35.68L92.94,34.22L94.58,32.52L94.66,31.45L96.07,28.86L95.87,30.25L97.39,33.27L98.3,34.11L98.46,33.32L100.4,31.83L101.91,32.66L100.04,35.81L101.63,35.5L102.01,35.97L102.26,38.35L103.69,37.71L104.57,36.88L105.27,37.36L105.97,39.29L105.26,39.96L103.09,39.09L102.63,39.58L102.51,41.91L101.45,42.54L99.68,41.72ZM92.95,130L92.62,129.29L93.59,128.2L94.84,128.45L95.14,125.66L96.13,123.76L97.45,124.77L98.92,124.7L101.03,123.21L102.94,124.48L104.85,124.37L106.29,123.43L107.34,122.31L109.56,122.51L111.69,122.16L111.88,123.73L113.69,124.62L114.37,125.96L114,126.59L114.89,127.22L115.41,128.56L114.48,129.96L115.26,132.46L113.82,133.74L114.12,134.28L113.21,135.22L110.41,134.21L107.46,134.33L106.7,133.34L105.88,133.79L104.11,133.98L103.3,132.86L103.01,131.7L101.34,130.34L98.88,129.95L97.89,130.28L96.69,129.61L95.26,130.07ZM105.11,91.45L106.02,91.02L107.87,89.44L108.53,90.07L110.49,90.38L112.19,92.14L112.13,94L110.83,95.8L109.77,97.98L109.73,99.57L109.07,100.08L106.46,99.13L104.46,99.83L104.34,100.88L103.41,101.95L102.1,101.46L101.2,100.05L99.81,100.24L95.87,99.21L94.62,98.64L94.4,96.62L95.85,95.87L95.97,94.79L99.16,94.37L100.06,94.52L102,94.13L102.98,92.42ZM90.82,90.95L91.4,91.97L93.33,92.11L96.52,91.65L97.04,91.19L97.82,89.04L99.22,88.07L100.17,89.21L101.8,88.8L103.58,89.83L105.11,91.45L102.98,92.42L102,94.13L100.06,94.52L99.16,94.37L95.97,94.79L95.85,95.87L94.4,96.62L94.62,98.64L93.56,97.92L90.05,96.26L88.98,94.6L89.32,93.96L88.9,92.9L89.89,93.48L90.02,91.82ZM66.63,124.47L67.11,125.45L67.04,127.81L69.54,127.6L70.52,128.8L73.54,127.64L76.59,128.81L76.77,129.64L78.79,130.05L79.04,129.67L81.61,130.51L81.98,129.4L83.41,130.12L84.33,131.15L84.17,132.27L83.13,133.65L83.96,134.01L83.44,134.74L82.06,134.81L82.19,138.21L81.71,137.8L80.71,139.65L79.93,140.3L79.45,142.2L79.24,141.6L78.57,142.74L76.81,142.85L76.09,141.24L74.75,142.2L75.01,142.79L74.16,143.93L73.35,144L72.33,143.23L72.47,142.16L71.73,141.29L70.28,143.24L68.45,143.39L66.77,141.87L65.07,142.06L63.5,140.73L63.09,139.95L63.79,138.14L63.47,136.54L62.45,135.81L62.86,135.26L61.39,133.51L60.64,133.73L60.62,132.51L62.02,131.88L62.97,130.6L63.27,128.92L64.02,127.93L63.84,127.01L64.7,125.8L65.19,125.87L65.93,124.71ZM74.68,110.45L74.46,110.38L74.44,109.07L73.15,107.87L72.72,103.98L70.49,104.16L70.81,102.04L70.26,101.18L71.07,99.91L71.06,95.9L70.57,94.44L70.7,93.28L71.86,91.66L74.49,90.1L75.37,88.65L74.63,87.18L75.86,88.29L76.96,88.27L75.76,89.35L75.99,90.22L75.54,91.14L74.16,92.54L73.9,95.43L74.84,94.93L75.61,95.55L76.64,95.38L77.34,95.89L78.73,95.58L79.46,97.19L80.99,99.24L79.72,100.72L79.85,101.35L78.25,104.08L77.46,103.94L77.33,105.33L76.64,105.81L76.4,107.56ZM105.97,39.29L105.27,37.36L104.57,36.88L105.37,36.86L107.08,35.36L107.09,34.7L108.12,36L109.32,35.1L110.71,35.05L112.95,33.18L115.33,34.1L115.92,35.14L114.94,36.47L115.24,37.97L113.83,39.5L113.37,40.76L110.89,39.72L108.95,40.23L108.23,41.27L107.67,41.1L106.72,41.88ZM113.37,40.76L113.83,39.5L115.24,37.97L114.94,36.47L115.92,35.14L119.06,36.2L118.49,36.55L120.82,37.93L122.76,37.06L122.73,38.08L123.61,37.68L125.18,37.77L126.19,37.46L126.99,37.91L127.63,38.49L127.53,40.35L127.13,41.35L127.5,42.32L126.92,42.52L127.8,43.58L126.54,44.07L126.46,45.38L125.86,45.68L125.27,46.64L124.52,46.63L122.98,47.51L122.19,47.01L121.27,47.44L121.32,46.22L118.49,47.17L118.22,44.97L117.03,44.06L115.93,43.77L115.39,42.77L113.08,43.48L112.09,42.15ZM116.97,27.99L120.22,27.88L122.12,28.84L122.99,28.82L124.7,29.92L126.55,30.16L127.69,30.99L128.07,31.91L128.49,33.25L127.67,33.87L128.18,34.82L127.23,36.5L127.71,36.72L126.99,37.91L126.19,37.46L125.18,37.77L123.61,37.68L122.73,38.08L122.76,37.06L120.82,37.93L118.49,36.55L119.06,36.2L115.92,35.14L115.33,34.1L116.42,33.85L117.08,31.88L115.6,31.16L116.12,30.59L116.55,28.53ZM83.22,117.45L83.35,116.39L82.09,113.46L82.18,111.58L83.67,110.78L82.42,110.31L82.37,109.55L84.25,109.48L84.72,106.68L84.36,104.69L85.02,104.41L85.37,102.25L86.16,101.78L86.88,100.58L86.88,99.55L86.94,100.75L87.64,100.96L89.64,102.96L90.21,102.74L91.68,104.88L93.14,105.71L94.72,105.7L96.65,106.33L97.55,106.31L99.79,105.06L101.75,104.97L104.99,105.35L105.58,105.87L108.57,105.28L109.85,105.38L112.45,104.49L112.57,103.47L114.25,101.32L117.74,97.95L119.55,97.86L121.14,98.86L121.84,101.1L119.89,102.51L119.88,103.32L118.66,103.91L119.17,104.8L118.66,105.73L119.33,107.35L118.98,108.35L119.37,109.5L117.96,111.85L118.09,112.43L117.11,113.32L116.18,114.86L116.6,115.41L116.07,117.4L115.48,117.39L114.39,116.79L113.18,116.68L112.79,115.48L111.97,115.45L110.2,114.6L109.23,115.69L105.06,115.24L103.78,115.66L100.9,115.53L97.07,115.59L96.82,116.01L95.66,115.92L94.73,116.82L93.73,117.07L92.53,116.56L92.22,117.13L90.66,117.56L86.67,116.97L85.15,117.54L84.85,117.14ZM96.13,123.76L95.33,123.56L93.75,122.28L94.8,121.79L94.97,120.62L97.53,116.11L96.82,116.01L97.07,115.59L100.9,115.53L103.78,115.66L105.06,115.24L109.23,115.69L110.2,114.6L111.97,115.45L112.79,115.48L113.18,116.68L114.39,116.79L115.48,117.39L115.16,118.45L115.39,119.84L115.1,121.63L115.96,121.75L115.88,122.58L114.74,123.15L114.71,123.82L113.69,124.62L111.88,123.73L111.69,122.16L109.56,122.51L107.34,122.31L106.29,123.43L104.85,124.37L102.94,124.48L101.03,123.21L98.92,124.7L97.45,124.77ZM76.96,88.27L80.77,86.11L83.08,87L82.19,87.73L82.88,87.93L82.79,89.18L83.83,89.55L81.66,94.41L80.59,94.23L78.73,95.58L77.34,95.89L76.64,95.38L75.61,95.55L74.84,94.93L73.9,95.43L74.16,92.54L75.54,91.14L75.99,90.22L75.76,89.35ZM99.92,63.53L100.13,64.73L99.68,65.39L99.95,66.99L97.94,68.39L97.42,69.38L97.15,68.02L96.18,68.76L96.14,69.55L95.13,70.09L95.2,71.34L95.96,70.89L96.52,71.69L95.9,72.12L95.68,72.63L92.33,73.07L91.53,73.7L91.86,74.82L90.42,76.01L88.19,76.72L87.64,76.36L88.21,74.64L88.19,73.05L87.22,73.65L86.22,73.2L85.39,73.79L83.65,73.13L81.95,72.95L81.52,72.38L82.17,71.09L83.45,69.45L85.25,65.18L90.56,65.17L92.18,65.38L93.1,64.39L93.85,64.38L94.24,62.75L94.81,63.01L97.1,62.11L97.7,63.1L98.74,63.8ZM107.28,49.63L106.18,49.97L102.78,48.86L101.47,47.83L100.51,48.02L99.35,47.41L100.1,45.89L99.55,44.7L98.66,44.41L97.54,43.15L98.5,41.64L99.68,41.72L101.45,42.54L102.51,41.91L102.63,39.58L103.09,39.09L105.26,39.96L105.97,39.29L106.72,41.88L107.67,41.1L108.23,41.27L108.95,40.23L110.89,39.72L113.37,40.76L112.09,42.15L113.08,43.48L112.98,44.94L111.5,45.49L111.41,46.52L110.53,47.57L109.14,47.21L108.88,48.09L107.81,49.06L108.62,49.46ZM110.81,80.28L109.75,82.3L109.7,83.23L109.01,83.11L107.82,84.15L107.26,84.02L106.83,82.56L104.53,82.93L103.65,81.99L100.47,81.11L99.91,80.11L98.23,80.13L97.49,79.79L96.4,78.27L95.21,77.59L95.74,75.62L96.36,76L95.96,74.33L96.11,73.46L99.05,74.58L100.35,74.7L102.31,74.22L103.82,74.63L105.17,74.59L104.99,75.81L106.3,75.42L108.11,78.77ZM121.55,64.08L120.27,61.97L119.96,60.83L117.98,60.18L115.47,58.19L115.85,57.84L116.65,54.7L118.54,54.94L119.21,54.35L119.72,52.95L120.5,53.66L121.56,53.15L122.11,51.62L121.79,49.66L122.57,48.59L123.25,48.45L125.25,46.95L127.17,46.87L127.93,46.82L127.91,47.7L128.68,48.48L128.86,50.31L128.41,50.64L127.59,52.98L126.04,55.05L126.52,57.12L127.08,57.41L128.8,59.45L128.19,60.97L129.1,62.3L129.97,62.42L131.06,61.25L131.46,62.17L130.11,65.35L129.82,65.58L129.88,68.11L130.44,68.57L130.02,69.89L130.86,69.74L134.01,70.49L134.77,71.47L136.16,71.5L137.46,72.98L134.83,76.52L133.24,76.71L133.12,77.88L133.52,79.21L132.49,80.54L132.35,82.19L131.19,84.11L131.49,81.44L129.48,77.95L129.98,76.78L128.8,75.18L128.94,73.49L128.44,71.93L127.53,71.12L125.45,70.86L125.28,68.24L124.88,67.42L125.65,66.04L124.64,65.08L124.51,64.12L122.65,63.44ZM111.71,22.87L112.69,23.5L112.85,24.39L114.18,24.25L115.58,25.97L117.03,26.02L116.97,27.99L116.55,28.53L116.12,30.59L115.6,31.16L117.08,31.88L116.42,33.85L115.33,34.1L112.95,33.18L110.71,35.05L109.32,35.1L108.12,36L107.09,34.7L106.29,33.75L106.35,32.75L108.39,30.85L109.18,29.08L110.04,26.6L111.43,25.29L111.1,24.15ZM100.92,61.32L100.97,61.88L99.92,63.53L98.74,63.8L97.7,63.1L97.1,62.11L94.81,63.01L94.24,62.75L93.85,64.38L93.1,64.39L92.18,65.38L90.56,65.17L85.25,65.18L85.5,64.14L85.36,62.01L84.75,60.17L86.02,58.56L85.77,57.54L88,56.6L88.28,55L91.55,54.79L93.98,55.43L94.23,54.8L95.79,55.38L96.56,55.21L96.83,56.6L97.95,56.81L98.65,55.73L100.08,54.54L100.48,54.98L100.65,56.78L102.57,57.95L102.71,58.86L101.55,58.8L101.68,59.93L100.84,60.1ZM100.13,64.73L101.05,65.09L101.27,66.1L103.24,67.08L105.32,67.38L105.56,68.29L107.33,68.25L108.71,69.02L109.33,71.24L110,72.16L111.14,71.76L112.05,72.19L112.98,70.58L113.27,70.91L114.67,70.18L115.89,70.04L117.42,69.37L118.08,69.57L119.13,68.57L119.42,67.4L121.55,64.08L122.65,63.44L124.51,64.12L124.64,65.08L125.65,66.04L124.88,67.42L125.28,68.24L125.45,70.86L127.53,71.12L128.44,71.93L128.94,73.49L128.8,75.18L129.98,76.78L129.48,77.95L131.49,81.44L131.19,84.11L130.41,83.74L129.23,85.24L128.73,83.72L127.5,82.5L126.3,82.48L124.95,82.99L123.55,84.16L119.91,83.91L118.32,84.89L116.56,84.44L112.83,84.41L112.04,83.96L111.65,82.88L111.64,80.72L110.81,80.28L108.11,78.77L106.3,75.42L104.99,75.81L105.17,74.59L103.82,74.63L102.31,74.22L100.35,74.7L99.05,74.58L96.11,73.46L95.9,72.12L96.52,71.69L95.96,70.89L95.2,71.34L95.13,70.09L96.14,69.55L96.18,68.76L97.15,68.02L97.42,69.38L97.94,68.39L99.95,66.99L99.68,65.39ZM139.53,27.02L137.28,26.73L133.76,25.4L130.86,25.25L130.4,24.05L128.73,24.51L128.77,23.43L129.68,23.45L130.57,22.7L132.82,23.5L133.65,24.28L134.74,23.97L135.08,24.45L138.06,24.89L139.24,24.47ZM103.9,26.83L104.05,28.83L106.13,27.98L107.62,28.85L109.18,29.08L108.39,30.85L106.35,32.75L106.29,33.75L107.09,34.7L107.08,35.36L105.37,36.86L104.57,36.88L103.69,37.71L102.26,38.35L102.01,35.97L101.63,35.5L100.04,35.81L101.91,32.66L100.4,31.83L98.46,33.32L98.3,34.11L97.39,33.27L95.87,30.25L96.07,28.86L95.9,27.93L96.33,25.59L98.04,25.97L101.83,27.39ZM88.73,96.21L88.13,97.04L87.83,98.64L86.88,99.55L86.88,100.58L85.68,100.56L84.64,99.71L82.81,99.29L80.99,99.24L79.46,97.19L78.73,95.58L80.59,94.23L81.66,94.41L83.83,89.55L85.27,90.21L86.3,90.07L85.62,91.81L84.7,92.84L84.89,94.79L85.47,95.77L87.65,96.92ZM95.21,77.59L94.24,79.63L94.03,80.86L94.62,81.56L93.28,82.19L93.97,83.15L93.14,83.08L93.26,84.08L91.45,86.14L91.13,87.81L90.34,89.04L90.78,89.51L90.06,90.17L90.82,90.95L90.02,91.82L89.89,93.48L88.9,92.9L89.32,93.96L88.98,94.6L88.73,96.21L87.65,96.92L85.47,95.77L84.89,94.79L84.7,92.84L85.62,91.81L86.3,90.07L85.27,90.21L83.83,89.55L82.79,89.18L82.88,87.93L82.19,87.73L83.08,87L84.35,87.02L84.28,86.15L85.29,84.21L85.36,83.17L87.06,81.3L86.96,80.81L88.65,78.16L87.46,77.94L87.64,76.36L88.19,76.72L90.42,76.01L91.86,74.82L91.53,73.7L92.33,73.07L95.68,72.63L95.9,72.12L96.11,73.46L95.96,74.33L96.36,76L95.74,75.62ZM82.09,113.46L80.71,114.61L78.96,113.92L77.91,113.9L77.58,113.06L76.79,112.89L75.1,111.67L74.68,110.45L76.4,107.56L76.64,105.81L77.33,105.33L77.46,103.94L78.25,104.08L79.85,101.35L79.72,100.72L80.99,99.24L82.81,99.29L84.64,99.71L85.68,100.56L86.88,100.58L86.16,101.78L85.37,102.25L85.02,104.41L84.36,104.69L84.72,106.68L84.25,109.48L82.37,109.55L82.42,110.31L83.67,110.78L82.18,111.58ZM105.6,53.69L106.28,52.95L106.12,52.24L107.76,51.49L107.79,50.49L107,50.61L107.28,49.63L108.62,49.46L107.81,49.06L108.88,48.09L109.14,47.21L110.53,47.57L111.41,46.52L111.5,45.49L112.98,44.94L113.08,43.48L115.39,42.77L115.93,43.77L117.03,44.06L118.22,44.97L118.49,47.17L121.32,46.22L121.27,47.44L122.19,47.01L122.98,47.51L124.52,46.63L125.27,46.64L125.86,45.68L127.17,46.87L125.25,46.95L123.25,48.45L122.57,48.59L121.79,49.66L122.11,51.62L121.56,53.15L120.5,53.66L119.72,52.95L119.21,54.35L118.54,54.94L116.65,54.7L115.85,57.84L115.47,58.19L113.45,58.43L112.19,59.11L110.49,58.48L109.92,57.35L107.95,55.8L107.6,55.02Z" fill="#B3CFC0" stroke="#007139" stroke-width="0.5"/></svg>