<svg xmlns="http://www.w3.org/2000/svg" width="144" height="144" viewBox="0 0 144 144"><path d="M50.78,57.97L51.75,58.14L52.23,60.04L53.37,61.88L53.2,62.92L54.24,64.89L55.44,64.22L55.13,67.52L55.73,68.87L54.55,71.08L52.3,69.56L50.95,70.38L46.31,70.13L43.36,68.27L43.32,66.52L42.82,65.7L43.66,64.56L43.7,62.36L41.55,60.86L39.93,58.1L39.04,56.35L40.99,55.52L43.09,57.26L42.78,58.21L45.28,57.79L45.97,59.27L48.15,58.93L49.07,59.51ZM88.13,72.67L85.96,72.25L83.75,71.11L83.17,68.82L82.32,67.61L81.16,68.1L81.33,65.22L80.61,63.43L81.91,62.81L81.44,61.44L82.68,60.37L84.5,60.64L84.58,56.73L84.2,55.01L85.79,54.01L87.71,54.49L89.8,55.68L87.82,56.39L85.56,61.37L84.95,61.57L86.26,63.14L85.38,65.66L86.39,65.98L86.94,67.77L86.64,69.13L87.99,69.61ZM66.96,95.09L67.81,95.87L69.66,95.89L71.61,97.62L73.48,97.99L75.68,100.22L76.58,102.4L80.14,103.55L79.73,105.33L80.32,106.62L79.42,108.22L78.27,108.69L78.37,111.22L79.2,113.03L78.75,115.16L76.46,114.12L77.15,112.09L75.67,110.64L73.23,111.08L72.81,110.46L70.32,110.73L67.74,109.64L64.59,108.99L63.74,108.02L61.42,106.9L64.39,103.64L63.24,102.51L65.16,102.24L62.56,99.12L65.17,98.38L66.17,97.08L65.64,95ZM52.72,39.9L53.51,41.81L54.82,42.41L53.83,44.83L54.49,47.08L56.83,48.63L57.06,50.11L59.37,49.62L59.35,49.86L58.35,50.21L58.3,52.01L57.21,51.54L56.44,52.6L53.44,54.21L51.15,53.49L51.41,52.29L50.07,51.74L51.62,50.29L50.31,49.59L51.1,48.63L50.33,47.33L51.34,46.9L51.35,45.5L50.36,43.59L50.65,39.93L52.07,39.22ZM54.55,71.08L55.73,68.87L55.13,67.52L55.44,64.22L58.45,63.09L59.42,61.29L63.16,62.26L61.99,63.23L62.89,65.13L60.75,65.21L60.29,69.75L60.81,72.76L62.78,73.31L65.54,72.2L66.54,73.16L69.3,74.03L70.32,76.17L69.06,76.7L69.14,79.05L69.85,78.08L71.92,80.85L70.64,81.38L71.46,82.13L69.94,83.87L68.14,82.87L68.83,80.68L65.52,79.52L64.05,80.33L61.96,77.55L60.41,77.83L58.05,74.85L55.43,73.73L55.25,72.31L54.01,72.25ZM34.15,57.15L33.07,59.3L31.74,60.52L30.01,62.01L27.5,59.76L27.36,57.09L29.64,57.34L33.25,54.9L34.88,52.28ZM59.37,49.62L57.06,50.11L56.83,48.63L54.49,47.08L53.83,44.83L54.82,42.41L53.51,41.81L52.72,39.9L53.51,38.54L55.12,38.96L56.23,40.88L56.52,42.1L57.96,41.7L59.69,45.03L58.93,46.1L59.37,47.19L58.79,48.92ZM60.41,77.83L61.96,77.55L64.05,80.33L65.52,79.52L68.83,80.68L68.14,82.87L69.94,83.87L71.46,82.13L70.64,81.38L71.92,80.85L69.85,78.08L69.14,79.05L69.06,76.7L70.32,76.17L70.74,77.58L71.95,78.07L73.29,80.6L74.83,79.98L76.9,80.9L76.35,82.42L77.51,82.72L78.34,81.6L79.73,83.05L78.98,84.84L76.51,85.61L77.01,87.14L75.28,86.93L74.49,87.54L73.57,85.32L72.24,87.2L71.01,87.75L68.57,87.37L67.1,88.49L66.23,87.6L67.33,86.77L65.28,85.81L64.08,82.84L63.94,81.22L62.3,80.86ZM85.96,72.25L88.13,72.67L88.55,75.88L90.72,76.34L92.84,79.08L93.07,80.21L90.58,81.27L87.9,80.08L86.4,82.32L85.92,81.8L83.44,83.3L82.65,82.87L82.1,84.44L82.88,86.66L81.7,85.98L79.5,86.27L78.98,84.84L79.73,83.05L78.34,81.6L77.51,82.72L76.35,82.42L76.9,80.9L74.83,79.98L75.36,78.31L74.5,78.67L73.73,77.09L74.45,76.77L74.25,74.3L75.45,72.99L78.65,73.37L80.15,72.49L82.34,72.81L84.08,71.92ZM93.31,135.17L94.56,134.77L95.54,133.12L98.47,132.27L98.05,133.45L99.52,135.47L99.97,137.31L101.07,136.46L106.7,136.05L106.11,134.36L106.37,132.26L108.11,131.4L107.43,130.3L108.81,129.39L110.79,129.88L110.66,128.02L112.24,126.51L113.94,126.24L114.94,126.35L116.64,128.93L116.18,132.71L115.09,133.68L114.58,135.47L112.4,135.6L111.86,134.46L110.82,134.6L110.55,138.75L107.86,141.38L107.84,143.69L106.43,142.76L105.09,142.99L103.03,142.09L101.91,143.87L100.36,142.48L99.1,142.83L98.57,144L96.79,143.8L96.34,142.7L97.23,141.41L95.44,138.66L94.25,137.81L96.1,137.11L95.76,135.74L93.39,135.89ZM65.64,95L66.17,97.08L65.17,98.38L62.56,99.12L65.16,102.24L63.24,102.51L64.39,103.64L61.42,106.9L63.74,108.02L64.59,108.99L63.07,110.3L61.49,109.98L59.89,108.66L60.25,110.8L59.21,110.26L58.27,108.47L57.02,108.89L55.57,110.73L56.46,107.32L55.59,106.09L53.03,104.52L52.85,101.85L55.58,99.78L55.89,98.84L58,99.51L59.28,96.96L58.82,96.39L60.38,95.14L60.95,96.54L62.52,97.55L63.98,95.6ZM58.3,52.01L58.35,50.21L59.35,49.86L61.4,52.75L63.63,50.56L65.96,52.46L67.01,51.83L70.13,52.89L71.27,54.31L72.71,54.48L73.52,55.58L72.52,57.56L69.91,57.59L69.73,57.08L64.68,60.85L63.16,62.26L59.42,61.29L61.4,56.77L59.65,54.13L58.36,53.48ZM113.94,126.24L112.24,126.51L110.66,128.02L110.79,129.88L108.81,129.39L107.43,130.3L108.11,131.4L106.37,132.26L106.11,134.36L106.7,136.05L101.07,136.46L99.97,137.31L99.52,135.47L98.05,133.45L98.47,132.27L95.54,133.12L94.56,134.77L93.31,135.17L92.4,135.88L90.73,134.47L88.86,131.12L90.42,130L91.76,127.95L92.9,127.4L92.91,124.62L94.21,125.41L94.39,123.2L95.61,121.26L98.06,120.81L97.01,119.1L97.08,116.78L98.09,118L100,118L100.48,117.32L100.35,114.09L101.63,113.2L102.02,111.57L100.56,110.19L100.53,108.43L101.29,108.46L102.14,110.29L104.3,109.54L107.26,107.92L108.72,108.12L108.68,109.72L110.98,109.26L111.88,111.52L112.24,114.26L111.73,115.35L112.63,116.93L112.07,120L114.38,121.48L114.36,123.22L113.41,123.59ZM55.44,64.22L54.24,64.89L53.2,62.92L53.37,61.88L52.23,60.04L51.75,58.14L50.78,57.97L51.69,57.43L51.09,56.37L52.53,55.66L53.44,54.21L56.44,52.6L57.21,51.54L58.3,52.01L58.36,53.48L59.65,54.13L61.4,56.77L59.42,61.29L58.45,63.09ZM59.35,49.86L59.37,49.62L58.79,48.92L59.37,47.19L58.93,46.1L59.69,45.03L57.96,41.7L56.52,42.1L56.23,40.88L57.18,38.09L59.86,35.56L60.61,36.78L63.67,38.22L65.98,38.25L67.42,39.16L67.36,42.02L68.38,41.13L69.41,42.14L71.02,42.49L71.76,43.92L74.69,46.4L75.26,47.37L78.18,46.81L80.05,47.58L78.95,49.12L78.42,51.93L76.06,52.28L75.71,53.25L73.16,53.5L72.71,54.48L71.27,54.31L70.13,52.89L67.01,51.83L65.96,52.46L63.63,50.56L61.4,52.75ZM39.93,58.1L41.55,60.86L43.7,62.36L43.66,64.56L42.82,65.7L43.32,66.52L42.13,68.57L39.39,68.44L37.79,66.9L36.65,67.42L34.74,66.8L35.22,65.38L36.39,65.14L35.47,63.37L34.41,62.92L33.48,61.24L32.33,61.56L31.74,60.52L33.07,59.3L34.15,57.15L37.37,57.95ZM46.31,70.13L50.95,70.38L52.3,69.56L54.55,71.08L54.01,72.25L55.25,72.31L55.43,73.73L58.05,74.85L60.41,77.83L62.3,80.86L63.94,81.22L64.08,82.84L63.16,83.3L58.37,82.11L57.54,81.63L57.51,79.4L55.62,78.35L54.76,78.93L54.07,77.93L52.26,77.92L51.38,76.04L49.88,77.31L48.97,76.82L46.96,77.67L45.64,76.29L46.55,74.7L45.64,72.03ZM78.75,115.16L79.2,113.03L78.37,111.22L78.27,108.69L79.42,108.22L80.32,106.62L79.73,105.33L80.14,103.55L76.58,102.4L75.68,100.22L73.48,97.99L71.61,97.62L69.66,95.89L67.81,95.87L66.96,95.09L68.38,92.76L69.26,92.83L67.41,91L66.86,89.35L65.34,87.96L65.28,85.81L67.33,86.77L66.23,87.6L67.1,88.49L68.57,87.37L71.01,87.75L72.24,87.2L73.57,85.32L74.49,87.54L75.28,86.93L77.01,87.14L76.51,85.61L78.98,84.84L79.5,86.27L81.7,85.98L82.88,86.66L82.1,84.44L82.65,82.87L83.44,83.3L85.92,81.8L86.4,82.32L87.9,80.08L90.58,81.27L93.07,80.21L94.17,81.9L94.23,83.7L95.37,84.58L97.48,84.87L98.24,85.57L96.42,86.43L94.46,90.35L92.74,91.48L93.33,92.67L92.17,93.65L91.84,96.17L90.93,96.15L92.35,101.05L92.41,104.39L90.66,104.9L91.2,107.71L89.96,109.31L90.82,110.44L92.76,110.91L92.6,113.47L91.71,113.54L91.63,115.53L92.42,116.57L89.1,116.17L88.59,115.21L87.47,116.96L88.52,117.89L89.27,120.04L91.23,121.3L92.04,123.87L92.91,124.62L92.9,127.4L91.76,127.95L90.42,130L88.86,131.12L88.71,130.51L86.68,130.6L86.79,127.04L81.61,126.27L80.92,125.27L82.41,121.38L82.44,119.22L80.22,117.32L78.9,117.49L78.26,115.77ZM65.54,72.2L62.78,73.31L60.81,72.76L60.29,69.75L60.75,65.21L62.89,65.13L61.99,63.23L63.16,62.26L64.68,60.85L69.73,57.08L69.91,57.59L70.39,58.9L69.99,61.03L69.03,61.99L67.15,62.33L68.25,64.11L66.91,67.18L66.13,67.51L66.73,69.1L66.8,71.71ZM64.59,108.99L67.74,109.64L70.32,110.73L72.81,110.46L73.23,111.08L75.67,110.64L77.15,112.09L76.46,114.12L78.75,115.16L78.26,115.77L78.9,117.49L80.22,117.32L82.44,119.22L82.41,121.38L80.92,125.27L79.32,127.24L78.6,127.09L78.65,129.25L77.99,130.23L76.9,129.62L76.4,130.61L74.66,129.64L71.4,129.45L70.5,132.08L69.23,132.14L69.23,133.24L67.05,134.97L65.21,132.21L66.49,131.37L64.68,128.13L63.54,129.23L62.76,127.99L60.78,127.96L59.15,127.01L57.21,126.82L57.97,125.64L55.99,122.94L56.98,121.19L56.9,120.05L53.95,113.89L55.57,110.73L57.02,108.89L58.27,108.47L59.21,110.26L60.25,110.8L59.89,108.66L61.49,109.98L63.07,110.3ZM52.72,39.9L52.07,39.22L50.65,39.93L48.46,40.38L49.17,39.45L46.35,39.43L45.12,36.89L40.78,38.37L39.13,39.67L37.09,39.26L35.77,37.6L34.5,34.87L33.09,35.06L31.25,33.88L28.61,34L29.48,31.86L32.33,29.59L32.02,28.67L33.04,27.72L34.41,22.76L33.86,20.81L35.01,19.61L35.99,17.25L35.78,16.29L36.87,15L37.37,12.62L36.68,11.4L37.65,9.48L37.26,7.11L37.46,4.57L43.26,0L39.66,7.66L41.5,9.26L43.7,8.29L44.89,9.82L44.8,13.3L45.79,14.26L44.76,16.27L44.87,17.67L46.61,19.48L47.17,17.97L48.34,18L48.17,19.21L49.06,20.21L51.17,20.47L52.45,22.9L55.39,24.53L55.59,25.8L54.72,28.77L52.44,34.16L52.84,36.34L51.94,38.26ZM84.2,55.01L84.58,56.73L84.5,60.64L82.68,60.37L81.44,61.44L81.91,62.81L80.61,63.43L79.21,64.03L78.69,62.88L74.9,62.07L72.28,64.27L73.49,62.34L73.78,60.62L73.03,60.03L72.52,57.56L73.52,55.58L72.71,54.48L73.16,53.5L75.71,53.25L76.06,52.28L78.42,51.93L81.42,54.02ZM80.61,63.43L81.33,65.22L81.16,68.1L82.32,67.61L83.17,68.82L83.75,71.11L85.96,72.25L84.08,71.92L82.34,72.81L80.15,72.49L78.65,73.37L75.45,72.99L74.25,74.3L74.45,76.77L73.73,77.09L74.5,78.67L75.36,78.31L74.83,79.98L73.29,80.6L71.95,78.07L70.74,77.58L70.32,76.17L69.3,74.03L66.54,73.16L65.54,72.2L66.8,71.71L66.73,69.1L66.13,67.51L66.91,67.18L68.25,64.11L67.15,62.33L69.03,61.99L69.99,61.03L70.39,58.9L69.91,57.59L72.52,57.56L73.03,60.03L73.78,60.62L73.49,62.34L72.28,64.27L74.9,62.07L78.69,62.88L79.21,64.03ZM110.98,109.26L108.68,109.72L108.72,108.12L107.26,107.92L104.3,109.54L102.14,110.29L101.29,108.46L100.53,108.43L100.56,110.19L102.02,111.57L101.63,113.2L100.35,114.09L100.48,117.32L100,118L98.09,118L97.08,116.78L97.01,119.1L98.06,120.81L95.61,121.26L94.39,123.2L94.21,125.41L92.91,124.62L92.04,123.87L91.23,121.3L89.27,120.04L88.52,117.89L87.47,116.96L88.59,115.21L89.1,116.17L92.42,116.57L91.63,115.53L91.71,113.54L92.6,113.47L92.76,110.91L90.82,110.44L89.96,109.31L91.2,107.71L90.66,104.9L92.41,104.39L92.35,101.05L90.93,96.15L91.84,96.17L92.17,93.65L93.33,92.67L92.74,91.48L94.46,90.35L96.42,86.43L98.24,85.57L99.79,85.05L101.19,87.26L103.62,87.87L105.13,87.59L108.65,90.25L109.84,93.84L110.96,94.69L113.16,98.25L112.68,100.72L114.3,101.04L116.21,103.49L114.34,104.24L112.43,106.89L111.11,106.76L111.6,108.12ZM40.99,55.52L39.04,56.35L39.93,58.1L37.37,57.95L34.15,57.15L34.88,52.28L35.67,50.66L37.28,45.63L37.63,43.31L37.09,39.26L39.13,39.67L40.78,38.37L45.12,36.89L46.35,39.43L45.04,39.5L45.39,40.6L46.75,40.9L45.61,42.59L47.16,45.07L45.09,45.16L44.14,46L45.09,47.12L43.21,50.66L40.79,54.46ZM50.78,57.97L49.07,59.51L48.15,58.93L45.97,59.27L45.28,57.79L42.78,58.21L43.09,57.26L40.99,55.52L40.79,54.46L43.21,50.66L45.09,47.12L44.14,46L45.09,45.16L47.16,45.07L45.61,42.59L46.75,40.9L45.39,40.6L45.04,39.5L46.35,39.43L49.17,39.45L48.46,40.38L50.65,39.93L50.36,43.59L51.35,45.5L51.34,46.9L50.33,47.33L51.1,48.63L50.31,49.59L51.62,50.29L50.07,51.74L51.41,52.29L51.15,53.49L53.44,54.21L52.53,55.66L51.09,56.37L51.69,57.43Z" fill="#B3CFC0" stroke="#007139" stroke-width="0.5"/></svg>