<svg xmlns="http://www.w3.org/2000/svg" width="144" height="144" viewBox="0 0 144 144"><path d="M2.01,75.27L4.51,72.79L5.05,65.62L2.89,62.58L3.62,54.81L1.22,42.6L3.3,37.53L9.52,34.69L13.97,36.02L28.34,36.74L25.07,30.78L25.51,27.87L29.3,29.74L51.47,29.13L56.58,22.89L61.09,20.53L67.45,21.73L91.98,36.9L103.45,44.8L103.89,48.49L107.55,52.26L107.99,56.43L114.61,61.53L120.61,63.81L126.04,70.59L133.54,71.35L137.72,74.91L144,83.33L143.02,87.27L133.53,87.9L128.44,91.16L121.57,87.33L113.61,88.46L109.06,93.51L109.9,97.12L93.05,118.94L93.25,121.06L80.85,116.27L79.68,122.92L75.68,123.47L78.27,119.9L75.77,116.95L67.84,118.41L64.82,117.03L66.51,111.99L59.35,110.46L62.47,105.2L57.97,101.89L56.11,103.72L48.95,101.76L50.38,96.84L41.11,95.49L38.55,100.65L33.31,100.01L27.26,94.35L18.01,93.77L14.88,102.82L9.84,101.82L8.66,97.05L5.53,99.57L2.86,97.98L2,91.46L0,88.48Z" fill="#B3CFC0" stroke="#007139" stroke-width="0.5"/></svg>