<svg xmlns="http://www.w3.org/2000/svg" width="144" height="144" viewBox="0 0 144 144"><path d="M93.46,0.47L94.65,0.5L96.27,1.74L99.06,2.05L100.29,4.11L98.35,5.85L97.91,9.53L99.09,10.56L99.41,14.36L98.5,18.27L98.94,20.01L99.94,20.47L99.44,22.45L97.13,22.73L96.61,25.23L99.12,25.82L99.07,27.39L102.15,26.98L100.96,28.99L101.1,30.73L99.91,32.67L99.66,35.98L96.6,36.24L94.87,42.25L93.1,42.69L90.94,42.16L90.55,48.55L89.33,49.54L88.42,49.22L86.47,50.8L85.8,52.58L85.75,54.7L85.2,56.31L85.5,58.74L87.67,59.5L88.1,61.66L87.6,63.97L85.93,66.37L85.53,68.16L84.52,68.89L83.58,71.96L82.69,73.41L80.59,75.6L82.01,78.7L82.69,79.03L82.46,81.26L83.43,83.25L84.21,83.45L84.35,85.39L86.07,85.28L86.15,87L85.47,89.16L86.15,91.6L84.89,92.58L83.6,92.65L83.28,95.48L84.77,96.26L83.5,97.04L83.14,98.48L83.78,99.53L84.09,101.79L82.74,104.81L81.29,106.79L80.8,108.32L79.55,106.63L77.58,106.61L76.48,107.81L75.02,106.82L72.14,107.53L70.6,109.7L70.12,111.79L68.7,114.8L67.75,115.76L66.61,115.79L67.07,118.34L64.78,118.81L63.81,121.77L61.73,124.14L60.07,123.47L59.14,124.7L60.89,128.41L60.49,129.73L61.44,129.92L62.21,131.21L61.85,132.52L59.24,133L59.04,131.9L58,131.5L56.82,132.15L56.65,133.47L54.47,134.04L54.61,135L53.06,136.8L51.4,137.16L51.42,137.86L49.22,138.89L50.1,141.13L48.58,141.3L48.23,143.12L45.23,142.6L43.29,144L42.51,143.4L41.85,141.5L44.06,139.58L44.26,137.19L45.18,136.99L46.86,134.46L49.02,131.91L50.18,126.81L51.87,124.67L53.68,120.16L54.23,117.08L54.03,112.73L52.9,111.31L51.73,110.79L53.33,107.34L52.83,104.23L53.5,102.66L54.82,101.55L54.86,99.24L55.63,96.71L57.49,93.29L57.58,91.9L58.92,92.52L60.83,94.78L64.91,96.04L66.6,97.07L68.47,95.52L69.01,85.42L70.27,80.75L71.78,79.63L72.13,78.22L73.49,77.54L73.68,73.96L72.18,73.39L71.55,72.22L72.23,71.62L72.6,69.01L72.09,62.3L72.96,59.27L72.8,57.75L73.87,54.53L74.63,53.42L76.48,48.68L76.64,46.53L77.24,45.63L76.79,43.37L77.69,42.94L76.82,42.11L75.99,40.07L76.39,39.17L77.8,38.61L77.33,37.78L77.06,33.83L76.5,31.31L73.87,30.73L71.34,27.45L73.12,26.13L75.15,23.67L76.23,24.63L79.68,22.71L77.66,20.86L78.6,19.34L77.99,16.34L79.5,15.22L82.5,13.81L83.98,14L83.28,12.67L84.75,10.74L85.48,8.42L85.45,6.67L86.78,5.11L87.94,4.93L88.23,6L88.87,4.37L89.98,3.7L89.06,2.7L90.11,2.03L89.1,0.57L90.68,0L91.2,1.07L91.74,0.2L92.48,1.19Z" fill="#B3CFC0" stroke="#007139" stroke-width="0.5"/></svg>