<svg xmlns="http://www.w3.org/2000/svg" width="144" height="144" viewBox="0 0 144 144"><path d="M86.9,81.77L87,80.55L86.32,78.92L86.42,77.13L86.87,76.33L86.64,73.87L87.47,70.5L89.04,69.97L89.85,69.05L90.5,65.2L89.97,63.7L89.12,64.42L88.61,64.27L88.48,61.99L89.28,59.9L87.58,60.22L85.8,60.12L86.15,58.88L86.02,57.75L87.15,55.9L87.15,55L87.61,54.83L87.96,56L88.74,56.81L89.27,56.73L89.3,57.7L90.11,58.48L90.49,55.16L90.85,54.89L90.73,53.2L91.44,53.13L93.67,51.34L96.36,54.24L96.24,55.17L95.52,56.48L95.95,56.43L95.33,57.46L97.02,58.38L97.81,60.83L98.77,60.37L98.57,61.52L99.35,64.48L100.27,66.15L100.72,67.64L99.99,68.07L100.41,69.78L99.55,70.72L99.72,71.38L100.73,71.75L101.14,74.72L100.63,75.33L101.09,75.96L100.84,76.7L98.96,74.91L97.03,74.97L97.29,75.68L96.73,76.42L96.56,77.54L95.8,77.47L95.62,78.22L94.74,78.97L93.55,79.38L92.86,80.22L92.7,81.09L93.45,81.27L94.62,82.25L94.43,82.83L94.19,84.3L93.37,84.34L92.82,85.43L92.34,84.74L90.86,86.8L90.58,89.04L90.74,89.57L90.19,91.57L88.46,92.53L87.62,93.53L86.69,92.1L87.31,91.17L88.32,89.64L88.51,88.94L87.68,88.72L87.17,87.79L87.23,86.36L88.46,85.47L89.45,84.35L89.36,83.51L87.87,83.24L87.59,83.71L86.75,83.36L87.15,82.48ZM63.16,59.98L62.85,60.85L63.32,61.98L64.31,62.83L64.03,63.48L65.19,65.56L64.81,65.78L64.25,66.33L63.11,66.46L61.72,68.1L62.1,70.11L62.48,71.02L61.9,71.49L61.69,73.54L60.96,74.42L59.21,74.57L58.82,75.34L57.81,75.17L57.5,77.22L57.85,78.3L58.51,78.98L58.6,80.55L59.37,80.32L60.03,81.03L60.32,82.81L59.93,83.67L59.92,84.83L60.03,85.4L59.31,86.78L58.58,87.17L58.74,88.87L58.41,89.66L57.51,90.51L56.97,89.87L55.71,90.27L55.15,89.5L54.63,89.68L53.71,88.89L53.61,88.27L52.73,88.68L51.61,90.47L50.9,89.76L51.13,89.15L50.55,88.19L49,87.31L47.84,87.68L46.7,86.78L45.1,86.68L43.8,87.57L42.55,86.82L42.06,87.14L42.03,85.64L41.65,85.25L41.99,84.54L41.87,83.39L42.18,82.93L43.95,82.41L44.71,82.52L44.76,81.57L46.19,80.75L46.39,79.49L45.99,77.35L45.14,77.85L44.36,76.02L44.18,74.53L44.45,73.87L43.44,71.55L43.82,70.52L44.37,70.78L45.84,69.58L46.22,68.5L45.39,67.93L45.34,66.46L46.48,65.56L47.31,66.13L47.71,66.89L48.46,66.89L49.92,66.1L50.68,66.01L50.58,65.39L51.11,64.53L52.19,64.21L53.07,64.48L53.72,63.6L55.27,63.44L57.2,64.53L57.76,65.31L58.17,64.37L59.75,63.23L59.78,62.36L59.11,60.65L59.39,59.95L60.79,60.47L61.37,59.96ZM80.52,98.74L78.99,99.47L78.3,98.65L77.74,99.33L76.33,99.86L76.1,99.34L74.47,98.36L73.12,99.2L73.19,99.85L72.57,100.93L71.78,101.61L72.16,102.27L72.31,104.4L71.49,105.73L71.04,105.95L70.94,106.96L70.34,107.2L70.14,107.92L69.34,108.77L68.77,108.64L67.86,107.33L66.86,107L66.19,105.97L64.51,105.41L63.89,104.97L63.07,100.91L63.79,99.95L63.65,99.55L63.63,99L64.81,97.18L65.38,96.8L66.63,96.77L68.21,95.43L68.68,95.96L70.21,96.61L70.75,96.23L71.99,94.22L72.53,94.58L73.15,94.07L74.24,94.52L75.07,94.24L75.51,93.28L76.33,93.87L77.04,93.49L77.88,93.66L78.86,92.03L78.38,94.33L78.64,94.89L80.26,95.68L80.79,97.26ZM87.31,91.17L86.69,92.1L87.62,93.53L86.97,94.69L85.95,95.33L85.3,97.85L84.67,97.91L84.34,99.18L84.48,100.12L84.03,102.72L82.68,103.59L81.9,103.57L81.08,104.77L79.86,105.2L79.19,102.82L78.63,102.05L78.58,100.56L77.74,99.33L78.3,98.65L78.99,99.47L80.52,98.74L81.43,98.29L83.46,95.95L84.49,93.71L84.24,92.47L85.07,91.64L85.9,91.11L86.26,91.59ZM62.48,71.02L62.1,70.11L61.72,68.1L63.11,66.46L64.25,66.33L64.81,65.78L67.3,67.5L67.84,68.54L69.84,69.1L70.06,70.41L70.71,71.79L71.37,71.6L72.09,72.36L72.22,73.78L71.13,75.38L70.05,77.1L68.6,77.57L67.19,77.7L66.2,77.24L64.22,78.19L63.72,77.51L63.77,76.36L64.42,75.83L64.33,74.5L63.97,74.62L63.21,72.63L64.08,71.42L63.43,70.89ZM87.38,120.75L87.09,121.44L86.5,121.4L85,122.65L83.91,124.69L83.19,125.17L81.83,123.12L82.04,122.51L81.23,121.26L80.33,121.83L78.87,121.67L78.74,121.19L78.52,120.36L79.51,119.54L79.85,118.87L80.13,117.21L80.61,118.28L81.26,118.43L81.54,117.35L82.77,117.38L84.73,116.68L85.25,116.79L85.63,117.72L86.5,118.82L86.71,119.87ZM53.61,88.27L53.71,88.89L54.63,89.68L55.15,89.5L55.71,90.27L56.97,89.87L57.51,90.51L58.41,89.66L58.74,88.87L58.58,87.17L59.31,86.78L60.03,85.4L59.92,84.83L61.25,85.75L60.69,86.89L62.08,89.38L61.73,89.67L62.28,90.96L62.69,90.98L62.7,93.94L65.07,95.95L65.38,96.8L64.81,97.18L63.63,99L63.65,99.55L62.68,99.74L60.59,99.39L59.75,100.38L59.05,100.14L57.27,100.16L56.68,99.61L55.51,100.25L53.21,99.55L52.81,99.24L51.89,99.63L49.75,98.84L48.68,99.65L48.24,100.77L47.35,101.46L48.02,103.24L47.73,104.43L47.12,104.88L46.02,103.84L44.48,104.04L43.74,103.79L41.66,104.06L41.17,103.88L40.81,102.93L41.82,102.95L41.99,103.36L43.09,103.28L43.69,102.57L43.81,100.73L44.37,100.39L44.95,99.18L45.83,98.58L45.88,97.95L46.78,96.14L46.62,95.32L47.04,94.66L48.04,94.58L49.1,93.91L48.91,93.52L50.69,93.43L52.14,92.57L52.94,90.84L52.63,89.41ZM84.03,102.72L84.48,100.12L84.34,99.18L84.67,97.91L85.3,97.85L85.95,95.33L86.97,94.69L86.94,95.93L87.24,96.67L88.27,95.95L88.23,96.74L88.82,97.65L89.85,97.92L90.44,98.52L89.28,98.92L88.95,100.71L88.39,101.24L88.66,102.63L89.27,103.7L88.87,104.33L89.18,105.53L90.03,107.34L89.28,107.81L89.09,108.86L87.49,109.4L87.75,108.28L86.96,107.43L87.19,107.04L86.12,106.18L85.68,103.73L84.61,102.42ZM80.33,121.83L81.23,121.26L82.04,122.51L81.83,123.12L83.19,125.17L83.91,124.69L85,122.65L86.5,121.4L87.09,121.44L87.38,120.75L87.53,120.79L88.14,121.72L88.61,123.07L87.55,125.93L86.85,126.03L86.48,127.14L87.57,126.62L88.57,127.05L89.72,127.14L91.27,126.32L91.96,126.37L93.21,127.01L93.85,127.55L95.42,127.31L96.06,128.72L98.44,130.36L99.52,129.85L101.26,131.97L102.19,132.33L103.21,133.62L104,135.95L104.48,136.61L103.75,138.27L103.08,140.44L100.78,142.84L100.25,142.72L98.43,144L97.62,143.96L96.07,143.37L95.59,142.83L94.17,142.25L92.8,140.89L91.37,142.15L91.27,143.06L89.29,143.18L88.99,141.07L89.6,140.18L89.51,139.25L88.87,138.25L88.87,137.09L88.41,136.42L87.7,136.3L86.2,137.04L85.35,136.81L84.33,137.18L83.35,136.56L82.8,136.9L82.15,138.46L81.66,136.04L80.74,135.94L80.32,136.36L78.97,136.14L78.29,137.21L77.86,136.63L77.3,134.31L76.93,133.54L77.42,132.81L78.06,129.32L78.52,128.68L78.39,127.47L78.94,126.41L80.5,125.65L80.64,123.22L80.29,122.91ZM63.45,8.69L62.29,8.85L61.67,10.09L62.19,10.33L62.48,12.87L61.83,13.98L60.75,13.91L59.9,12.59L58.8,13.33L58.59,13.97L56.53,14.41L55.71,15.15L54.98,16.39L54.43,18.29L53.9,18.96L54.57,19.96L54.32,20.6L56.44,21.37L55.83,22.25L55.27,22.41L54.65,23.44L53.76,23.84L53.99,24.6L53.33,24.89L53.35,25.84L51.76,26.77L51.16,28L50.18,28.63L49.87,30.11L49.44,30.33L48.72,31.77L48.79,32.84L48.13,33.32L48.03,34.38L48.44,37.08L47.6,37.45L45.71,39.68L45.01,39.69L44.7,41.9L43.99,43.24L44.17,44.01L45.16,44.7L44.97,45.67L45.78,47.79L44.16,48.55L43.02,51.22L43.48,51.75L43.5,52.75L43.04,53.31L42.1,53.62L41.98,52.77L42.61,51.98L42.47,51.09L40.84,49.64L38.18,49.6L38.3,47.99L38.94,46.7L38.53,45.39L38.61,44.43L39.59,43.83L40.89,42.47L41.21,41.82L40.86,40.95L42.42,39.29L42.48,37.9L44.48,36.35L44.51,34.95L44.15,33.8L44.53,33.17L46.1,32.77L45.18,31.58L45.14,28.25L46.04,27.46L47.35,26.88L47.68,27.1L48.55,26.03L48.56,24.89L47.47,21.13L48.42,18.79L47.76,17.08L48.59,16.04L48.97,14.89L49.81,14.64L50.06,13.82L51.04,13.53L52.1,12.19L52.83,11.87L54.18,10.24L55.47,10.46L55.8,9.62L56.28,9.87L57.95,9.21L58.83,9.2L59.37,8.45L58.1,6.6L58.42,4.13L59.14,4.03L59.89,3.17L60.82,3.22L61.36,2.33L61.17,1.85L62.36,0.99L62.92,1.1L62.86,1.91L63.53,2.33L63.27,3.77L64.28,4.59L64.82,6.25L65.23,6.69L64.73,7.97ZM68.77,108.64L69.34,108.77L70.14,107.92L70.34,107.2L70.94,106.96L71.04,105.95L71.49,105.73L72.31,104.4L72.16,102.27L71.78,101.61L72.57,100.93L73.19,99.85L73.12,99.2L74.47,98.36L76.1,99.34L76.33,99.86L77.74,99.33L78.58,100.56L78.63,102.05L79.19,102.82L79.86,105.2L80.63,106.71L80.87,108.38L78,108.78L78.08,109.18L77.21,109.56L73.98,112.02L73.41,113.45L73.36,114.28L73.01,115.03L72.16,115.07L71.1,114.86L71.43,114.21L70.15,113.39L69.85,112.28L68.48,110.66ZM80.52,98.74L80.79,97.26L80.26,95.68L78.64,94.89L78.38,94.33L78.86,92.03L79.9,90.05L79.68,88.79L81.56,87.01L82.67,86.89L83.91,86.37L84.54,88.73L85.53,89.64L84.7,90.93L85.07,91.64L84.24,92.47L84.49,93.71L83.46,95.95L81.43,98.29ZM62.36,0.99L61.17,1.85L61.36,2.33L60.82,3.22L59.89,3.17L59.14,4.03L58.42,4.13L58.1,6.6L59.37,8.45L58.83,9.2L57.95,9.21L56.28,9.87L55.8,9.62L55.47,10.46L54.18,10.24L52.83,11.87L52.1,12.19L51.04,13.53L50.06,13.82L49.81,14.64L48.97,14.89L48.59,16.04L47.76,17.08L48.42,18.79L47.47,21.13L48.56,24.89L48.55,26.03L47.68,27.1L47.35,26.88L46.04,27.46L45.14,28.25L45.18,31.58L46.1,32.77L44.53,33.17L44.15,33.8L44.51,34.95L44.48,36.35L42.48,37.9L42.42,39.29L40.86,40.95L41.21,41.82L40.89,42.47L39.59,43.83L38.61,44.43L38.53,45.39L38.94,46.7L38.3,47.99L38.18,49.6L38.41,51.33L38.16,51.71L36.26,51.71L35.37,52.82L34.49,52.54L34.61,51.77L33.57,51.82L33.85,50.98L34.63,50.42L34.45,48.96L33.51,48.52L31.76,48.2L30.33,48.88L29.64,48.4L29.52,47.7L28.73,46.77L29.98,46.71L31.26,45.51L32.11,45.6L32.07,44.89L30.36,43.34L30.66,41.92L30.06,40.81L30.65,39.77L31.86,38.93L31.87,37.75L32.84,35.94L33.33,35.95L34.8,34.79L34.82,33.64L35.34,32.55L36.66,31.63L38.08,31.52L38.34,30.41L37.34,28.53L37.27,27.23L36.19,25.58L36.98,25.07L37.52,23.35L36.89,22.8L37.25,22.2L36.99,19.81L36.7,18.89L36.86,17.41L37.66,16.62L37.71,15.62L38.32,14.17L38.07,13.87L38.06,12.35L37.29,11.24L37.61,9.97L38.12,9.45L38.35,8.14L38.85,7.62L40.08,8.25L40.7,7.92L40.91,7.11L42.17,7.01L43.37,7.26L44.89,7.13L46.24,7.65L48.01,7.83L48.74,7.03L50.52,6.56L51.3,6.94L52.21,6.8L53.38,5.88L53.87,4.84L54.78,4.29L54.88,3.79L56.43,3.56L57.43,3.83L58.31,2.87L58.11,2.18L58.49,1.57L59.65,1.93L60.12,1.67L60.41,0.65L62.13,0ZM61.65,44.47L60.56,44.39L59.25,44.99L59.56,46.71L58.86,47.13L57.31,47.17L55.59,45.41L54.77,45.3L53.55,43.8L53.27,42.85L53.34,41.21L52.73,40.21L53.26,39.67L53.77,37.8L53.83,36.8L54.59,35.98L55.54,35.47L56.81,34.17L56.78,32.6L57.15,31.86L58.52,31.99L59.34,31.35L59.35,29.82L59.68,29.01L59.39,27.13L58.64,26.3L59.09,25.3L60.04,25.39L61.89,24.66L62.42,24.04L62.98,24.61L64.38,24.39L64.73,26.16L65.43,26.25L65.7,26.99L64.59,28.69L65.93,29.87L65.11,30.52L64.95,31.42L65.31,32.02L66.06,31.83L66.08,33.12L66.88,33.56L67.49,34.68L67.1,36.48L68.17,41.04L67.38,42.31L66.31,42.72L65,41.91L63.02,42.55L61.74,43.63ZM85.8,60.12L87.58,60.22L89.28,59.9L88.48,61.99L88.61,64.27L89.12,64.42L89.97,63.7L90.5,65.2L89.85,69.05L89.04,69.97L87.47,70.5L86.64,73.87L86.87,76.33L86.42,77.13L86.32,78.92L87,80.55L86.9,81.77L86.2,81.68L85.6,82.36L84.48,82.12L82.86,82.51L82.71,81.88L81.94,81.87L82.07,81.37L81.34,80.79L80.27,81.2L79.52,80.55L80.71,79.77L81.35,78.26L80.84,78.52L79.79,78.2L78.66,78.84L76.75,78.78L76.8,77.92L77.45,77.2L77.12,75.91L78.02,74.78L77.85,74.46L79.64,74.08L80.93,71.8L80.66,70.88L80.97,69.16L81.44,68.6L82.7,68.48L83.53,67.16L83.39,66.32L82.85,66.24L83.02,64.62L83.35,63.81L84.08,63.89L85.79,63.47L86.39,62.41L86.05,61.59L85.15,61.11ZM77.12,75.91L77.45,77.2L76.8,77.92L76.75,78.78L76.11,79.54L75.95,81.3L76.72,82.07L76.69,83.37L77.1,84.75L76.75,85.99L75.87,85.81L74.92,86.54L73.75,86.67L72.61,87.26L72.38,85.8L71.25,85.22L70.77,84.39L69.98,84.43L68.43,82.8L68.76,82.65L69.78,82.66L71.09,81.47L72.57,81.65L73.33,81.48L74.3,79.67L74.24,78.9L74.73,76.63L76.24,76.96L76.51,76.13ZM63.16,59.98L61.37,59.96L60.79,60.47L59.39,59.95L57.42,60.41L57.1,62.21L55.99,62.48L54.82,62.13L53.45,61.17L53.43,59.33L52.32,59.24L51.81,58.37L52.61,58.11L51.88,57.62L51.98,56.21L51.69,54.91L52.35,54.07L52.12,52.51L53.09,51.04L54.53,51.01L55.04,51.48L56.94,51.77L57.6,49.79L59.86,47.6L61.83,49.17L61.95,50.02L64.15,51.64L64.49,51.19L64,52.47L63.37,52.4L62.9,53.67L63.08,54.61L63.67,55.24L63.49,55.91L64.22,57.46L63.58,58.44L63.98,59.04ZM90.03,107.34L89.18,105.53L88.87,104.33L89.27,103.7L90.02,103.88L90.13,103.12L93.61,103.58L94.7,103.53L93.79,105.12L93.38,106.78L93.76,107.69L94.32,107.76L95.19,108.95L95.47,111.3L96.18,112.44L97.01,112.6L96.53,112.93L94.81,112.23L92.74,109.86L92.49,108.89L91.66,108.88L91.12,108.11L90.88,108.56ZM93.21,127.01L91.96,126.37L91.27,126.32L89.72,127.14L88.57,127.05L87.57,126.62L86.48,127.14L86.85,126.03L87.55,125.93L88.61,123.07L88.14,121.72L87.53,120.79L88.54,120.31L89.83,120.14L90.05,119.08L89.48,119.15L87.29,116.2L87.13,115.12L87.53,113.27L87.99,113.03L89.62,112.99L90.46,112.57L91.49,113.17L92.26,116.53L92.18,117.46L93.06,119.87L93.91,120.54L94.6,122.17L95.14,122.66L94.5,125.01L94.79,125.49ZM42.06,87.14L42.55,86.82L43.8,87.57L45.1,86.68L46.7,86.78L47.84,87.68L49,87.31L50.55,88.19L51.13,89.15L50.9,89.76L51.61,90.47L52.73,88.68L53.61,88.27L52.63,89.41L52.94,90.84L52.14,92.57L50.69,93.43L48.91,93.52L49.1,93.91L48.04,94.58L47.04,94.66L46.62,95.32L46.78,96.14L45.88,97.95L45.83,98.58L44.95,99.18L44.37,100.39L43.81,100.73L43.69,102.57L43.09,103.28L41.99,103.36L41.82,102.95L40.81,102.93L39.8,101.81L39.08,102.14L39.29,102.67L38.42,102.82L36.7,102.29L35.04,102.17L33.78,101.13L32.59,100.77L32.63,100.07L31.9,99.57L32.14,98.56L30.87,96.98L29.55,96.17L29.77,95.54L28.84,94.89L28.31,95.09L27.25,94.51L27.3,93.38L25.25,91.96L26.42,92.33L28.39,92.52L29.53,93.21L30.09,94.09L31.39,94.56L33.71,96.33L35.09,95.72L35.33,95.27L36.66,95.04L38.56,93.68L38.71,92.98L40.51,90.39L41.73,89.47ZM59.39,59.95L59.11,60.65L59.78,62.36L59.75,63.23L58.17,64.37L57.76,65.31L57.2,64.53L55.27,63.44L53.72,63.6L53.07,64.48L52.19,64.21L51.11,64.53L50.58,65.39L50.68,66.01L49.92,66.1L48.46,66.89L47.71,66.89L47.31,66.13L46.48,65.56L47.34,63.56L46.21,62.02L47.32,61.5L47.7,60.29L47.49,59.93L47.87,58.48L47.23,58.14L46.19,58.46L46.71,57.68L48.04,56.53L49.87,57.07L50.64,57.9L50.84,57.12L50.54,56.37L51.07,54.95L51.69,54.91L51.98,56.21L51.88,57.62L52.61,58.11L51.81,58.37L52.32,59.24L53.43,59.33L53.45,61.17L54.82,62.13L55.99,62.48L57.1,62.21L57.42,60.41ZM87.62,93.53L88.46,92.53L90.19,91.57L90.74,89.57L90.58,89.04L90.86,86.8L92.34,84.74L92.82,85.43L93.15,86.45L93.03,87.62L93.2,89.2L92.93,89.84L91.72,90.39L92.69,90.92L92.76,91.45L91.96,92.67L91.45,95.57L90.93,96.06L90.85,97.88L90.44,98.52L89.85,97.92L88.82,97.65L88.23,96.74L88.27,95.95L87.24,96.67L86.94,95.93L86.97,94.69ZM70.05,77.1L71.13,75.38L72.52,76.41L73.07,77.32L74.73,76.63L74.24,78.9L74.3,79.67L73.33,81.48L72.57,81.65L71.09,81.47L69.78,82.66L68.76,82.65L69.12,82.21L69.96,79.7L68.43,79.7L69.12,78.43L69.8,77.98ZM80.13,117.21L79.85,118.87L79.51,119.54L78.52,120.36L78.74,121.19L77.52,121.48L75.94,121.04L74.72,121.57L74.27,120.43L73.25,119.31L73.39,118.59L72.39,118.34L72.06,117.31L72.16,115.07L73.01,115.03L73.36,114.28L74.84,115.21L76.29,114.87L77.73,113.82L79.14,114.08L80.32,116.23ZM46.48,65.56L45.34,66.46L45.39,67.93L46.22,68.5L45.84,69.58L44.37,70.78L43.82,70.52L43.44,71.55L44.45,73.87L44.18,74.53L44.36,76.02L43.54,76.12L42.93,75.68L41,76.23L41.05,75.63L40.51,73.89L40.86,72.85L40.35,70.67L39.42,70.24L39.24,69.7L38.1,70.12L37.17,69.34L36.9,68.25L37.37,67.19L37.01,66.18L36.2,65.4L36.89,64.82L37.32,63.08L37.19,62.22L36.64,61.64L37.97,61.15L38.65,61.74L39.48,60.99L40.55,61.13L40.74,60.27L40.41,58.47L41.93,57.26L41.81,55.3L42.1,53.62L43.04,53.31L43.5,52.75L43.73,54.15L44.3,54.93L46.03,53.41L46.44,53.73L45.62,54.11L45.31,55.2L44.8,55.79L45.4,57.54L46.16,57.22L46.71,57.68L46.19,58.46L47.23,58.14L47.87,58.48L47.49,59.93L47.7,60.29L47.32,61.5L46.21,62.02L47.34,63.56ZM33.57,51.82L34.61,51.77L34.49,52.54L35.37,52.82L36.26,51.71L38.16,51.71L38.41,51.33L39.08,52.06L38.8,52.79L39.36,54.42L38.44,55L36.9,55.36L36.57,56.66L35.71,56.38L35.7,55.44L34.84,55.13L33.84,54.09L31.65,54.15L33.21,52.54ZM87.38,120.75L86.71,119.87L86.5,118.82L85.63,117.72L85.25,116.79L84.73,116.68L82.77,117.38L81.54,117.35L81.26,118.43L80.61,118.28L80.13,117.21L80.32,116.23L79.14,114.08L77.73,113.82L76.29,114.87L74.84,115.21L73.36,114.28L73.41,113.45L73.98,112.02L77.21,109.56L78.08,109.18L78,108.78L80.87,108.38L80.68,109.07L82.12,109.53L82.29,110.92L82.55,110.45L83.46,112.56L84.57,111.9L86.7,111.29L87.53,111.93L87.18,112.38L87.53,113.27L87.13,115.12L87.29,116.2L89.48,119.15L90.05,119.08L89.83,120.14L88.54,120.31L87.53,120.79ZM79.86,105.2L81.08,104.77L81.9,103.57L82.68,103.59L84.03,102.72L84.61,102.42L85.68,103.73L86.12,106.18L87.19,107.04L86.96,107.43L87.75,108.28L87.49,109.4L86.46,109.38L87.27,110.36L88.71,111.39L88.02,112.05L87.99,113.03L87.53,113.27L87.18,112.38L87.53,111.93L86.7,111.29L84.57,111.9L83.46,112.56L82.55,110.45L82.29,110.92L82.12,109.53L80.68,109.07L80.87,108.38L80.63,106.71ZM98.77,60.37L97.81,60.83L97.02,58.38L95.33,57.46L95.95,56.43L95.52,56.48L96.24,55.17L96.36,54.24L97.43,54.6L98.38,55.61L98.58,56.5L98.41,57.87L99.05,58.13ZM89.27,103.7L88.66,102.63L88.39,101.24L88.95,100.71L89.28,98.92L90.44,98.52L90.85,97.88L92.96,98.05L93.58,97.26L93.49,98.77L94.14,101.23L94.88,102.85L94.7,103.53L93.61,103.58L90.13,103.12L90.02,103.88ZM78.86,92.03L77.88,93.66L77.04,93.49L76.33,93.87L75.51,93.28L75.07,94.24L74.24,94.52L73.15,94.07L72.53,94.58L71.99,94.22L70.75,96.23L70.21,96.61L68.68,95.96L68.21,95.43L66.63,96.77L65.38,96.8L65.07,95.95L62.7,93.94L62.69,90.98L62.8,90.38L63.79,89.7L64.57,88.47L64.46,88L66.24,86.45L66.79,85.39L66.15,84.88L66.6,84.29L67.97,83.5L68.43,82.8L69.98,84.43L70.77,84.39L71.25,85.22L72.38,85.8L72.61,87.26L73.75,86.67L74.92,86.54L75.87,85.81L76.75,85.99L77.33,86.08L77.06,87.32L77.39,88.13L76.93,88.71L79.42,89.11L79.68,88.79L79.9,90.05ZM53.27,42.85L53.55,43.8L54.77,45.3L55.59,45.41L57.31,47.17L58.86,47.13L59.56,46.71L59.25,44.99L60.56,44.39L61.65,44.47L62.92,46.52L62.9,47.52L64.21,48.39L64.44,49.25L64.75,50.69L64.49,51.19L64.15,51.64L61.95,50.02L61.83,49.17L59.86,47.6L57.6,49.79L56.94,51.77L55.04,51.48L54.53,51.01L53.09,51.04L52.12,52.51L52.35,54.07L51.69,54.91L51.07,54.95L50.54,56.37L50.84,57.12L50.64,57.9L49.87,57.07L48.04,56.53L46.71,57.68L46.16,57.22L45.4,57.54L44.8,55.79L45.31,55.2L45.62,54.11L46.44,53.73L46.17,52.93L47.2,50.82L46.59,49.93L47.36,49.57L48.01,50.17L47.83,49.03L48.87,48.58L48.85,47.99L49.7,47.61L49.53,45.55L50.83,44.53L50.96,43.93L52.56,43.88ZM86.9,81.77L87.15,82.48L86.75,83.36L87.59,83.71L87.87,83.24L89.36,83.51L89.45,84.35L88.46,85.47L87.23,86.36L87.17,87.79L87.68,88.72L88.51,88.94L88.32,89.64L87.31,91.17L86.26,91.59L85.9,91.11L85.07,91.64L84.7,90.93L85.53,89.64L84.54,88.73L83.91,86.37L82.67,86.89L82.63,86.02L81.86,85.52L81.62,84.78L82.86,82.51L84.48,82.12L85.6,82.36L86.2,81.68ZM82.67,86.89L81.56,87.01L79.68,88.79L79.42,89.11L76.93,88.71L77.39,88.13L77.06,87.32L77.33,86.08L76.75,85.99L77.1,84.75L76.69,83.37L76.72,82.07L75.95,81.3L76.11,79.54L76.75,78.78L78.66,78.84L79.79,78.2L80.84,78.52L81.35,78.26L80.71,79.77L79.52,80.55L80.27,81.2L81.34,80.79L82.07,81.37L81.94,81.87L82.71,81.88L82.86,82.51L81.62,84.78L81.86,85.52L82.63,86.02ZM86.02,57.75L86.15,58.88L85.8,60.12L85.15,61.11L86.05,61.59L86.39,62.41L85.79,63.47L84.08,63.89L83.35,63.81L83.02,64.62L82.85,66.24L83.39,66.32L83.53,67.16L82.7,68.48L81.44,68.6L80.97,69.16L80.66,70.88L80.93,71.8L79.64,74.08L77.85,74.46L78.02,74.78L77.12,75.91L76.51,76.13L76.24,76.96L74.73,76.63L73.07,77.32L72.52,76.41L71.13,75.38L72.22,73.78L72.09,72.36L71.37,71.6L70.71,71.79L70.06,70.41L69.84,69.1L67.84,68.54L67.3,67.5L64.81,65.78L65.19,65.56L64.03,63.48L64.31,62.83L63.32,61.98L62.85,60.85L63.16,59.98L63.98,59.04L63.58,58.44L64.22,57.46L63.49,55.91L63.67,55.24L63.08,54.61L62.9,53.67L63.37,52.4L64,52.47L64.49,51.19L64.75,50.69L64.44,49.25L65.36,49.12L65.9,48.56L66.38,47.19L65.91,46.52L67.5,45.89L68.64,45.82L69.67,47.05L68.75,49.14L69.09,51.01L70.58,50.79L71.48,51.28L72.18,52.19L73.93,51.5L74.91,51.6L75.31,51.22L77.16,52L80.53,50.86L81.46,51.63L81.88,51.51L82.75,52.41L83.59,52.21L83.92,51.22L84.68,50.91L84.98,50.12L86.45,53.02L85.18,54.84L85.17,55.44L84.36,55.06L82.5,56.48L79.92,56.88L79.27,58.36L79.85,58.5L79.08,59.34L78,59.25L77.49,60.43L77.57,61.11L78.7,62.04L79.86,60.28L80.4,60.66L80.84,59.89L81.54,59.83L82.32,58.85L83.1,59.35L83.47,58.58L85.61,58.06ZM78.74,121.19L78.87,121.67L80.33,121.83L80.29,122.91L80.64,123.22L80.5,125.65L78.94,126.41L78.39,127.47L78.52,128.68L78.06,129.32L77.42,132.81L76.93,133.54L77.3,134.31L77.86,136.63L78.29,137.21L77.57,137.03L76.9,135.64L75.25,135.02L74.99,134.18L73.84,134.18L72.24,133.81L71.17,133.12L69.83,133.1L69.45,132.32L69.58,131.51L70.38,129.96L71.07,129.45L71.65,128.37L71.12,127.21L71.83,126.57L71.98,124.83L72.56,124.58L71.11,123.56L70.54,122.53L70.39,121.13L69.91,120.76L70.27,119.91L71.1,119.52L72.39,118.34L73.39,118.59L73.25,119.31L74.27,120.43L74.72,121.57L75.94,121.04L77.52,121.48ZM43.5,52.75L43.48,51.75L43.02,51.22L44.16,48.55L45.78,47.79L44.97,45.67L45.16,44.7L44.17,44.01L43.99,43.24L44.7,41.9L45.01,39.69L45.71,39.68L47.6,37.45L48.44,37.08L48.03,34.38L48.13,33.32L48.79,32.84L48.72,31.77L49.44,30.33L49.87,30.11L50.18,28.63L51.16,28L51.76,26.77L53.35,25.84L53.33,24.89L53.99,24.6L53.76,23.84L54.65,23.44L55.27,22.41L55.83,22.25L56.44,21.37L54.32,20.6L54.57,19.96L53.9,18.96L54.43,18.29L54.98,16.39L55.71,15.15L56.53,14.41L58.59,13.97L58.8,13.33L59.9,12.59L60.75,13.91L61.83,13.98L62.48,12.87L62.19,10.33L61.67,10.09L62.29,8.85L63.45,8.69L64.25,9.23L65,10.64L65.66,11.02L65.72,11.87L64.83,12.53L64.95,13.26L66.4,14.05L66.67,14.72L65.37,15.88L64.32,16.17L63.5,15.74L62.99,14.98L58.78,18.39L58.54,20.02L58.51,21.92L58.86,23.39L59.55,24.76L59.09,25.3L58.64,26.3L59.39,27.13L59.68,29.01L59.35,29.82L59.34,31.35L58.52,31.99L57.15,31.86L56.78,32.6L56.81,34.17L55.54,35.47L54.59,35.98L53.83,36.8L53.77,37.8L53.26,39.67L52.73,40.21L53.34,41.21L53.27,42.85L52.56,43.88L50.96,43.93L50.83,44.53L49.53,45.55L49.7,47.61L48.85,47.99L48.87,48.58L47.83,49.03L48.01,50.17L47.36,49.57L46.59,49.93L47.2,50.82L46.17,52.93L46.44,53.73L46.03,53.41L44.3,54.93L43.73,54.15ZM93.67,51.34L91.44,53.13L90.73,53.2L90.85,54.89L90.49,55.16L90.11,58.48L89.3,57.7L89.27,56.73L88.74,56.81L87.96,56L87.61,54.83L87.15,55L87.15,55.9L86.02,57.75L85.61,58.06L83.47,58.58L83.1,59.35L82.32,58.85L81.54,59.83L80.84,59.89L80.4,60.66L79.86,60.28L78.7,62.04L77.57,61.11L77.49,60.43L78,59.25L79.08,59.34L79.85,58.5L79.27,58.36L79.92,56.88L82.5,56.48L84.36,55.06L85.17,55.44L85.18,54.84L86.45,53.02L84.98,50.12L84.68,50.91L83.92,51.22L83.59,52.21L82.75,52.41L81.88,51.51L81.46,51.63L80.53,50.86L77.16,52L75.31,51.22L74.91,51.6L73.93,51.5L72.18,52.19L71.48,51.28L70.58,50.79L69.09,51.01L68.75,49.14L69.67,47.05L68.64,45.82L67.5,45.89L65.91,46.52L66.38,47.19L65.9,48.56L65.36,49.12L64.44,49.25L64.21,48.39L62.9,47.52L62.92,46.52L61.65,44.47L61.74,43.63L63.02,42.55L65,41.91L66.31,42.72L67.38,42.31L68.17,41.04L67.1,36.48L67.49,34.68L66.88,33.56L66.08,33.12L66.06,31.83L65.31,32.02L64.95,31.42L65.11,30.52L65.93,29.87L64.59,28.69L65.7,26.99L65.43,26.25L64.73,26.16L64.38,24.39L62.98,24.61L62.42,24.04L61.89,24.66L60.04,25.39L59.09,25.3L59.55,24.76L58.86,23.39L58.51,21.92L58.54,20.02L58.78,18.39L62.99,14.98L63.5,15.74L64.32,16.17L65.37,15.88L66.67,14.72L66.4,14.05L64.95,13.26L64.83,12.53L65.72,11.87L66.56,12.4L67.32,11.82L69.29,11.15L69.61,9.46L71.8,9.59L73.08,10L73.01,8.97L73.76,9.33L73.72,10.05L74.61,10.1L74.47,10.9L75.84,10.66L76.05,11.62L76.57,11.85L76.57,12.78L77.52,16.5L79.1,20.89L80.41,28.91L83,40.4L84.66,41.07L86.38,42.88L87.62,44.74ZM87.49,109.4L89.09,108.86L89.28,107.81L90.03,107.34L90.88,108.56L91.12,108.11L91.66,108.88L92.49,108.89L92.74,109.86L94.81,112.23L96.53,112.93L97.01,112.6L100.96,112.95L102.43,114.08L103.82,113.21L106.48,113.93L107.33,113.19L108.6,112.95L109.85,113.43L110.49,114.15L110.91,115.21L112.49,116.91L111.5,119.17L111.51,121.45L118.75,134.14L117.53,133.67L116.8,133.71L114.86,136.58L112.83,135.44L112.92,134.43L112.01,133.63L110.77,134.68L110.31,133.6L109.79,133.97L109.43,135.03L109.71,136.01L109.19,136.2L108.57,137.22L107.12,137.77L106.49,137.31L106.61,135.94L105.26,135.65L104.48,136.61L104,135.95L103.21,133.62L102.19,132.33L101.26,131.97L99.52,129.85L98.44,130.36L96.06,128.72L95.42,127.31L93.85,127.55L93.21,127.01L94.79,125.49L94.5,125.01L95.14,122.66L94.6,122.17L93.91,120.54L93.06,119.87L92.18,117.46L92.26,116.53L91.49,113.17L90.46,112.57L89.62,112.99L87.99,113.03L88.02,112.05L88.71,111.39L87.27,110.36L86.46,109.38ZM59.92,84.83L59.93,83.67L60.32,82.81L60.03,81.03L59.37,80.32L58.6,80.55L58.51,78.98L57.85,78.3L57.5,77.22L57.81,75.17L58.82,75.34L59.21,74.57L60.96,74.42L61.69,73.54L61.9,71.49L62.48,71.02L63.43,70.89L64.08,71.42L63.21,72.63L63.97,74.62L64.33,74.5L64.42,75.83L63.77,76.36L63.72,77.51L64.22,78.19L66.2,77.24L67.19,77.7L68.6,77.57L70.05,77.1L69.8,77.98L69.12,78.43L68.43,79.7L69.96,79.7L69.12,82.21L68.76,82.65L68.43,82.8L67.97,83.5L66.6,84.29L66.15,84.88L66.79,85.39L66.24,86.45L64.46,88L64.57,88.47L63.79,89.7L62.8,90.38L62.69,90.98L62.28,90.96L61.73,89.67L62.08,89.38L60.69,86.89L61.25,85.75ZM92.82,85.43L93.37,84.34L94.19,84.3L94.43,82.83L94.52,83.5L95.35,85.29L94.95,86.51L95.21,87.24L94.54,88.68L94.07,88.94L93.64,91.33L93.75,94.19L93.52,95.95L93.58,97.26L92.96,98.05L90.85,97.88L90.93,96.06L91.45,95.57L91.96,92.67L92.76,91.45L92.69,90.92L91.72,90.39L92.93,89.84L93.2,89.2L93.03,87.62L93.15,86.45Z" fill="#B3CFC0" stroke="#007139" stroke-width="0.5"/></svg>