<svg xmlns="http://www.w3.org/2000/svg" width="144" height="144" viewBox="0 0 144 144"><path d="M69.62,117.32L63.13,118.56L58.95,118.18L52.45,114.4L46.88,113.25L47.55,111.73L39.2,110.35L34.68,105.07L14.38,107.76L10.72,112.41L3.51,113.81L0,111.26L2.38,92.77L6.58,91.82L12.71,92.95L13.98,86.87L12.25,81.9L19.66,74.31L20.94,71.81L16.34,70.65L13.46,64.4L8.93,61.74L6.06,62.96L4.24,59.58L8.38,57.94L7.65,51.59L13.82,50.67L17.47,53.04L21.14,51.21L26.42,43.67L30.29,41.03L35.27,41.37L37.22,44.9L40.87,43.92L42.17,41.08L41.16,37.8L45.28,37.31L50.61,44.59L53.43,45.5L55.71,43.25L52.43,38.32L52.43,30.53L54.94,27.92L62.97,29.23L64.23,25.43L67.95,27.74L70.71,34.38L76.38,37.4L82.51,35.72L88.25,36.5L90.07,40.25L92.9,36.32L97.01,34.84L100.39,35.85L110.87,33.3L115.82,34.21L117.55,30.71L116.66,28.48L112.42,28.05L117.75,27.07L122.39,28.42L123.39,30.71L122.54,36.83L124.59,36.77L127.72,31.82L126.18,25.65L129.18,24.89L132.68,30.24L137.56,33.86L140.4,31.99L140.71,28.36L144,28.18L138.33,38.38L140.8,47.66L137.42,53.81L130.24,58.76L115.19,59.71L115.05,65.83L106.89,81.23L99.69,86.21L86.62,99.95L86.87,109.63L86.01,111.02L87.48,116.89L81.39,119.11L77.75,116.18L80.71,114.84L75.37,112.52Z" fill="#B3CFC0" stroke="#007139" stroke-width="0.5"/></svg>