<svg xmlns="http://www.w3.org/2000/svg" width="144" height="144" viewBox="0 0 144 144"><path d="M84.71,27.08L84.82,25.5L87.92,24.15L86.31,22.48L89.08,20.7L90.55,21.11L92.11,19.87L90.53,17.5L93.36,15.19L97.86,15.47L99.79,11.27L96.18,12.76L94.51,12.52L92.74,14.23L92.17,12.49L92.77,9.99L92.13,9.66L96.59,7.95L96.71,6.54L95.31,0L96.35,2.09L96.7,5.08L98.02,8.09L99.88,9.94L104.05,12.43L109.16,16.99L110.4,18.66L111.67,22.81L111.46,27.07L108.76,27.28L105.28,29.57L104.49,31.14L101.95,30.92L99.94,32.39L97.67,31.06L96.02,28.18L94.7,28.55L91.43,27.22L88.95,26.97L86.96,25.96ZM80.32,41.78L82.36,42.62L83.67,42.12L84.29,43.46L87.84,44.28L88.7,42.73L92.44,42.68L93.3,45.43L90.69,49.43L91.18,49.45L90.36,50.88L90.82,52.7L89.97,54.41L90.99,54.79L90.56,57.66L88.93,57.36L88.59,61.99L90,63.9L91.82,64.2L89.79,66.1L88.29,65.26L86.91,66.02L86.83,67.72L82.36,66.62L80.77,66.17L82.55,62.05L81.83,61.19L83.44,59.22L82.63,57.29L78.76,54.15L76.49,53.88L75.73,53.01L73.65,53.3L72.18,52.5L72.74,51.5L72.09,49.06L75.88,48.84L76.76,45.81L79.35,43.64ZM103.28,105.23L102.71,106.52L102.34,112.1L101.37,115.04L99.85,117.34L98.39,117.5L94.73,120.42L93.46,124.09L94.23,127.03L93.01,129.26L89.63,127.43L87.11,127.14L85.25,128.02L84.88,129.61L81.71,128.71L84.39,126.26L82.34,126.07L81.08,123.13L77.37,122.72L77.37,122.08L78.76,121.72L81,117.34L82.3,117.25L83.75,119.52L84.14,117.33L84.97,117.17L87.31,116.37L89.1,117.75L89.39,116.3L93.17,114.94L94.03,113.78L95.24,114.72L96.72,109.67L97.96,108.64L100.97,103.34ZM100.97,103.34L97.96,108.64L96.72,109.67L95.24,114.72L94.03,113.78L93.17,114.94L89.39,116.3L89.1,117.75L87.31,116.37L84.97,117.17L84.82,114.44L83.58,112.5L82.38,112.07L82.88,107.99L84.88,108.72L85.01,103.99L86.05,98.98L84.51,98.37L84.01,96.58L84.85,94.28L89.1,94.51L88.45,93.23L91.47,92.45L93.52,92.66L93.6,91.19L95.01,91.42L98.41,94.25L97.71,96.37L99.26,99.51L101.41,102.17ZM84.71,27.08L86.96,25.96L88.95,26.97L91.43,27.22L94.7,28.55L96.02,28.18L97.67,31.06L99.94,32.39L98.38,34.61L97.92,37.21L96.88,38.57L97.92,39.51L93.27,41.34L92.44,42.68L88.7,42.73L87.84,44.28L84.29,43.46L83.67,42.12L82.36,42.62L80.32,41.78L82.79,38.63L82.32,36.52L83.05,35.54L83.69,28.81ZM72.09,49.06L72.74,51.5L72.18,52.5L73.65,53.3L72.38,54.19L70.89,53.22L70.65,55.74L67.7,55.73L67.45,56.92L64.78,56.59L63.05,56.06L61.83,57.02L58.33,56.3L56.5,54.36L51.81,53.28L50.41,50.26L46.85,49.65L45.91,50.92L43.11,50.54L40.64,51.35L35.18,50.86L36.43,48.72L39.2,48.48L41.16,46.63L43.85,46.6L46.25,45.51L47.42,42.78L49.4,41.06L53.9,40.42L54.42,39.25L57,38.54L58.8,36.98L60.74,38.52L61.98,38.42L66.75,42.37L69.4,42.67L69.81,45.77L71.83,46.74ZM60.64,71.15L60.84,73.06L61.91,74.41L60.71,77.74L62.07,79.38L62.23,81.78L61.16,86.31L57.3,84.18L55.22,86.64L53.64,86.51L51.82,84.82L50.57,85.43L49.12,88.74L47.79,87.93L47.2,89.37L43.97,88.65L42.7,90.46L33.54,92.26L32.31,92.48L31.81,91L33.12,88.61L33.74,85.88L33.13,83L34.09,81.62L33.19,78.01L30.99,76.31L31.47,75.55L30.17,72.31L30.79,70.26L30.01,69.25L33.56,68.22L36.52,72.91L38.75,71.02L43.04,70.19L45.46,71.04L52.39,69.94L54.86,70.9ZM91.18,49.45L90.69,49.43L93.3,45.43L92.44,42.68L93.27,41.34L97.92,39.51L96.88,38.57L97.92,37.21L101.34,36.37L100.25,38.3L102.06,38.7L103.43,37.11L107.45,39.06L109.43,37.99L109.38,36.45L114.03,37.45L114.65,38.8L114.77,40.97L114.21,45.83L111.68,46.19L111.89,47.77L109.69,47.5L103.07,49.58ZM84.97,117.17L84.14,117.33L83.75,119.52L82.3,117.25L81,117.34L78.76,121.72L77.37,122.08L76.02,121.62L75.71,120.1L72.25,120.11L70.27,121.33L70.51,122.84L67.76,122.85L67.05,124.42L65.62,124.47L62.17,122.1L58.85,117.71L61.49,116.17L63.52,108.2L65.27,105.51L67.29,104.83L66.66,98.84L69.37,98.76L71.39,99.5L74.52,98.4L76.03,96.83L77.84,96.67L77.77,94.96L84.01,96.58L84.51,98.37L86.05,98.98L85.01,103.99L84.88,108.72L82.88,107.99L82.38,112.07L83.58,112.5L84.82,114.44ZM116.37,60.21L116.66,62.47L117.05,74.14L113.27,76.81L107.95,76.76L105.42,75.44L102.46,75.77L100.68,73.68L98.12,73.18L98.11,70.89L100.43,68.2L101.93,68.97L102.7,67.52L104.24,67.61L106.17,63.03L109.77,62.32L111.36,60.34L113.4,60.66ZM35.18,50.86L40.64,51.35L43.11,50.54L45.91,50.92L46.85,49.65L50.41,50.26L51.81,53.28L56.5,54.36L58.33,56.3L61.83,57.02L63.05,56.06L64.78,56.59L63.49,58.87L65.94,59.03L66.23,63.9L64.6,64.83L63.59,68.27L62.2,69.87L60.79,69.41L61.92,71.2L60.64,71.15L54.86,70.9L52.39,69.94L45.46,71.04L43.04,70.19L38.75,71.02L36.52,72.91L33.56,68.22L30.01,69.25L30.54,65.74L29.71,64.67L31.1,60.53L33.27,58.3L33.41,56.41L32.11,55.45L28.9,55.5L29.15,54.89L26.11,55.15L27.27,53.74L27.9,51.41L32.88,52.51L34.46,52.17ZM91.82,64.2L90,63.9L88.59,61.99L88.93,57.36L90.56,57.66L90.99,54.79L89.97,54.41L90.82,52.7L90.36,50.88L91.18,49.45L103.07,49.58L101.53,52.07L102.89,52.63L102.41,55.38L101.14,55.77L97.87,63.3L97.34,67.31L96.16,67.16L94.69,67.15ZM103.28,105.23L100.97,103.34L101.41,102.17L99.26,99.51L97.71,96.37L98.41,94.25L95.01,91.42L97.55,85.24L91.82,64.2L94.69,67.15L96.16,67.16L98.11,70.89L98.12,73.18L100.68,73.68L102.46,75.77L105.42,75.44L107.95,76.76L113.27,76.81L114.37,79.63L115.96,80.47L116.79,82.01L116.82,84.84L114.59,88.83L115.01,93.8L113.59,95.89L109.84,97.59L107.29,99.77ZM92.13,9.66L92.77,9.99L92.17,12.49L92.74,14.23L94.51,12.52L96.18,12.76L99.79,11.27L97.86,15.47L93.36,15.19L90.53,17.5L92.11,19.87L90.55,21.11L89.08,20.7L86.31,22.48L87.92,24.15L84.82,25.5L84.71,27.08L82.59,25.87L83.09,23.34L84.52,22.53L82.26,21.74L79.41,22.75L78.1,21.08L74.26,21.24L78.08,19.41L78.8,17.24L80.71,14.97L84.06,13.1L84.33,10.1L87.34,10.54ZM33.54,92.26L42.7,90.46L43.97,88.65L47.2,89.37L47.79,87.93L49.12,88.74L50.57,85.43L51.82,84.82L53.64,86.51L55.22,86.64L57.3,84.18L61.16,86.31L64.55,89.28L65.78,92.24L66.69,96.27L66.66,98.84L67.29,104.83L65.27,105.51L63.52,108.2L61.49,116.17L58.85,117.71L56.78,117.29L50.14,119.48L45.98,115.05L44.86,111.97L43.15,110.46L38.72,110.97L37.07,109.43L37.9,107.34L33.96,105.58L32.34,105.81L31.05,101.58L32.19,97.05L33.75,95.27ZM103.07,49.58L109.69,47.5L111.89,47.77L111.68,46.19L114.21,45.83L114.71,50.37L116.8,56.43L114.54,55.94L107.82,55.5L107.42,54.56L103.45,56.01L102.41,55.38L102.89,52.63L101.53,52.07ZM82.36,66.62L86.83,67.72L86.91,66.02L88.29,65.26L89.79,66.1L91.82,64.2L97.55,85.24L95.01,91.42L93.6,91.19L93.52,92.66L91.47,92.45L88.45,93.23L89.1,94.51L84.85,94.28L84.01,96.58L77.77,94.96L77.84,96.67L76.03,96.83L74.52,98.4L71.39,99.5L69.37,98.76L66.66,98.84L66.69,96.27L65.78,92.24L64.55,89.28L61.16,86.31L62.23,81.78L62.07,79.38L60.71,77.74L61.91,74.41L60.84,73.06L60.64,71.15L61.92,71.2L60.79,69.41L62.2,69.87L63.59,68.27L64.76,68.65L65.81,66.34L67,67.57L68.9,67.78L70.24,66.69L71.86,68.49L74.32,68.45L76.15,71.84L77.09,69.91L79.67,69.34L81.67,69.72L81.31,68.37ZM77.37,122.08L77.37,122.72L81.08,123.13L82.34,126.07L84.39,126.26L81.71,128.71L84.88,129.61L84.49,131.82L82.9,132.46L80.92,135.13L81.57,137.88L76.92,131.67L74.26,129.11L70.15,125.84L67.11,125.36L65.62,124.47L67.05,124.42L67.76,122.85L70.51,122.84L70.27,121.33L72.25,120.11L75.71,120.1L76.02,121.62ZM116.37,60.21L113.4,60.66L111.36,60.34L109.77,62.32L106.17,63.03L104.24,67.61L102.7,67.52L101.93,68.97L100.43,68.2L98.11,70.89L96.16,67.16L97.34,67.31L97.87,63.3L101.14,55.77L102.41,55.38L103.45,56.01L107.42,54.56L107.82,55.5L114.54,55.94L116.8,56.43ZM99.94,32.39L101.95,30.92L104.49,31.14L105.28,29.57L108.76,27.28L111.46,27.07L112.03,28.63L115.08,31.31L117.89,33.1L115.24,35.88L114.65,38.8L114.03,37.45L109.38,36.45L109.43,37.99L107.45,39.06L103.43,37.11L102.06,38.7L100.25,38.3L101.34,36.37L97.92,37.21L98.38,34.61ZM84.88,129.61L85.25,128.02L87.11,127.14L89.63,127.43L93.01,129.26L91.05,132.99L88.54,136.89L87.25,140.3L86.41,144L81.57,137.88L80.92,135.13L82.9,132.46L84.49,131.82ZM80.32,41.78L79.35,43.64L76.76,45.81L75.88,48.84L72.09,49.06L71.83,46.74L69.81,45.77L69.4,42.67L66.75,42.37L61.98,38.42L60.74,38.52L58.8,36.98L61.06,36.51L64.23,33.79L66.05,29.53L66.53,26.33L61.53,28.59L63.44,26.35L64.76,25.97L66.16,24.13L69.69,21.65L74.26,21.24L78.1,21.08L79.41,22.75L82.26,21.74L84.52,22.53L83.09,23.34L82.59,25.87L84.71,27.08L83.69,28.81L83.05,35.54L82.32,36.52L82.79,38.63ZM73.65,53.3L75.73,53.01L76.49,53.88L78.76,54.15L82.63,57.29L83.44,59.22L81.83,61.19L82.55,62.05L80.77,66.17L82.36,66.62L81.31,68.37L81.67,69.72L79.67,69.34L77.09,69.91L76.15,71.84L74.32,68.45L71.86,68.49L70.24,66.69L68.9,67.78L67,67.57L65.81,66.34L64.76,68.65L63.59,68.27L64.6,64.83L66.23,63.9L65.94,59.03L63.49,58.87L64.78,56.59L67.45,56.92L67.7,55.73L70.65,55.74L70.89,53.22L72.38,54.19Z" fill="#B3CFC0" stroke="#007139" stroke-width="0.5"/></svg>