<svg xmlns="http://www.w3.org/2000/svg" width="144" height="144" viewBox="0 0 144 144"><path d="M105.93,35.6L106.32,36.42L111.25,35.69L114.63,36.17L115.12,36.99L116.63,36.35L116.65,38.19L118.17,39.4L121.37,40.32L122.58,39.59L122.69,38.34L123.85,39L124.46,37.65L126.84,37.92L127.9,38.9L129.67,38.9L129.87,37.89L131.99,38.83L132.27,40.29L134.34,40.92L134.31,43.93L135.96,44.76L136.38,46.19L137.94,47.37L139.19,46.39L141.53,46.37L142.81,49.32L144,50.23L144,76.76L142.28,74.3L142.37,72.25L141.54,69.84L139.88,69.73L138.92,67.26L137.89,66.1L134.62,72.75L134.04,76.16L134.46,78.43L134.17,81.83L136.04,85.41L135.65,86.95L134.12,87.83L133.72,90.33L134.56,92.8L133.76,94.73L133.81,98.87L130.46,98.02L130.78,99.2L129.22,101.12L131.81,101.14L131.35,103.21L129.09,103.5L127.92,106.03L125.34,106.82L124.32,106.36L124.3,105.04L122.87,104.08L121.06,106.12L118.52,105.01L118.12,100.54L116.98,99.58L114.99,100.04L115.28,103.23L113.23,107.11L112.06,107.1L111.89,103.99L110.74,103.24L109.13,103.83L109.48,105.58L108.32,108.75L107.28,108.45L105.01,106.23L103.03,105.44L99.73,102.54L99.29,103.12L99.64,107.37L97.95,107.79L96.62,105.84L92.23,104.81L90.95,106.89L90.04,107.02L86.28,105.64L87.73,107.96L83.08,106.21L82.79,107.32L81.76,106.71L79.25,103.67L78.57,101.53L79.68,99.27L79.16,97.2L67.03,103.15L65.24,100.33L63.14,100.33L62.56,97.96L60.77,96.81L60.49,94.86L59.78,95.07L57.54,92.06L56.92,89.99L53.13,90.68L52.05,91.65L47.57,90.86L46.69,91.7L44.77,90.04L43.57,91.1L39.73,91.15L38.62,89.94L36.06,89.97L34.65,88.99L34.38,90.05L32.88,90.65L30.53,89.72L31.15,92.82L30.89,95.38L28.92,95.42L27.63,94.08L26.84,94.34L24.7,93.36L24.16,91.36L22.58,91.75L20.08,91.38L19.37,91.93L18.17,90.79L18.04,89.54L15.47,89.82L13.05,87.78L13.23,85.64L11.58,83.81L10.35,83.6L8.79,82.18L5.85,82.37L4.84,81.09L2.72,81.7L1.54,80.79L1.11,79.2L1.75,76.74L0.08,74.29L0.76,71.15L0,68.12L2.93,67.91L5.33,67.18L7.65,67.1L10.73,68.2L12.36,69.41L14.55,69.58L18.55,68.84L23.23,69.36L28.36,68.36L28.41,65.63L30.54,64.62L32.95,64.17L34.21,63.24L40.25,52.73L42.83,48.7L43.35,46.76L45.33,45.81L48.68,46.6L48.61,45.47L50.88,44.37L54.61,45.07L56.76,43.68L56.68,44.93L58.7,45.93L61.73,44.87L63.94,42.18L66.03,43.18L67.02,41.94L69.06,41.29L68.77,40.74L71,39.19L72.95,39.54L73.56,37.41L74.53,37.8L76.85,36.65L78.54,35.25L80.11,35.49L81.39,36.82L84.15,36.48L84.39,35.58L87.68,36.43L88.93,37.65L91.67,37.94L92.93,39.17L94.53,39.4L97.26,38.34L97.76,36.85L100.26,37.79L100.6,36.66L104.1,35.49Z" fill="#B3CFC0" stroke="#007139" stroke-width="0.5"/></svg>