<svg xmlns="http://www.w3.org/2000/svg" width="144" height="144" viewBox="0 0 144 144"><path d="M134.82,98.93L133.29,107.47L132.32,112.85L130.94,120.53L130.14,124.97L128.51,134.06L128.03,134.34L127.83,133.8L127.08,133.2L126.1,131.85L125.29,131.13L124.98,130.33L124.03,129.59L122.41,129.48L121.77,129.2L121.5,128.73L121.63,127.38L121.56,126.37L121.31,125.65L120.21,125.27L119.44,124.68L119.04,123.92L118.57,122.73L117.73,122.29L117.84,121.93L117.61,121.17L117.77,120.53L117.35,119.67L116.26,118.75L116.06,118.76L116.61,109.29L116.92,104.54L117.27,104.57L117.42,104.92L118.03,104.5L118.37,104.63L119.28,104.02L119.83,104.1L120.61,104.65L121.15,104.28L121.28,103.79L121.73,104.05L122.38,103.54L122.29,102.96L123.08,102.47L123.39,101.65L123.73,101.44L123.8,101.73L124.54,101.61L124.79,101.83L124.97,101.37L125.43,101.46L124.93,100.21L125.75,100.14L126.14,99.76L126.59,100.19L126.86,100.04L126.49,99.34L127.06,99.21L127.17,98.94ZM40.28,55.71L49.15,55.7L49.66,55.89L49.36,56.32L49.18,56.11L49.24,57.66L49.8,57.91L50.17,58.28L50.95,58.42L50.44,58.97L50.74,59.95L51.32,59.6L51.51,60.3L50.94,60.68L51.79,60.95L52.06,60.86L52.35,61.35L52.21,61.65L52.78,61.74L52.94,61.31L53.59,61.92L53.78,61.77L53.45,61.21L53.86,60.87L54.28,62.09L54.44,61.79L54.78,62.02L55,61.69L54.96,62.32L55.26,62.85L54.77,62.96L54.49,63.54L54.87,64.12L55.39,64.57L55.76,64.17L56.14,65L55.94,65.55L56.27,65.79L56.67,65.33L57.37,65.94L57.43,65.61L57.78,65.85L57.52,66.05L57.64,66.41L58.2,66.77L58.61,66.2L58.59,66.65L58.92,67.18L59.28,67.4L59.43,67.17L59.9,67.16L60.11,67.62L60.5,67.62L60.55,67.28L60.83,67.52L60.92,68.45L61.4,68.59L60.76,69.05L60.67,69.38L61.03,69.27L61.55,69.41L61.6,70.11L61.22,70.69L61.82,71.22L62.15,70.8L62.29,71.27L61.89,71.32L61.83,72.42L62.35,72.54L62.84,72.21L62.92,72.66L62.68,73.19L63.64,72.62L64.09,72.78L64.33,73.18L63.98,73.34L64.29,73.65L64.63,73.56L64.87,73.13L64.93,73.72L65.14,73.31L65.72,73.65L65.58,72.86L65.66,72.56L66.45,72.77L66.58,73.07L66.53,73.85L66.28,74.09L66.53,74.41L66.19,74.75L65.93,74.35L65.76,74.55L66.25,75.34L67.07,75.1L67.66,74.37L68.62,73.85L68.99,74.03L70.17,74.58L70.19,75.17L70.54,75.4L71.01,75.41L71.31,75.17L71.1,74.69L71.68,74.82L71.79,74.54L72.76,74.43L73.09,75.03L73.41,74.89L73.46,74.53L74.2,74.68L74.6,74.33L74.93,74.65L74.89,74.98L75.41,74.83L75.63,75.23L75.06,75.44L74.92,75.93L74.45,75.95L74.33,75.73L73.78,75.7L73.44,76.78L73.04,77.52L72.79,78.49L72.36,79.07L71.33,79L70.94,79.45L71.42,80.63L71.34,80.95L70.9,81.04L70.13,80.39L69.76,80.69L69.05,80.8L68.54,80.66L68.18,80.02L67.58,79.79L67.14,80.12L66.21,81.29L65.51,81.69L65.18,82.21L65.23,82.66L64.9,83.57L64.48,83.9L64.14,83.85L64.09,83.09L63.59,82.58L63.07,82.95L62.42,82.95L62.1,82.58L61.59,82.49L61.71,83.14L61.53,83.31L60.93,83.12L60.67,83.67L59.06,83.94L58.46,84.23L58.08,84.13L57.96,83.77L57.56,83.66L57.29,82.98L57.44,82.55L57.24,82.03L56.81,82.65L56.2,82.73L55.64,82.3L54.59,82.09L54.28,82.33L53.86,82.22L53.29,81.69L52.63,81.71L52.29,81.42L51.79,80.64L50.81,80.4L50.57,80.55L50.7,81.27L50.14,81.75L49.89,82.76L49.41,83.07L49.03,83.06L49.04,82.49L48.68,81.99L48.72,81.49L47.99,81.53L47.96,82.17L47.71,82.37L47.18,82.27L47.03,81.55L46.35,81.46L46.15,81.78L45.37,82.16L45.05,82.46L44.28,82.72L43.66,82.69L42.62,82.92L42.26,83.22L41.94,83.02L42.13,82.51L42.04,81.97L41.56,81.66L41.39,80.91L41.05,80.49L40.99,80.08L40.72,79.94L40.44,80.4L40.02,80.44L39.69,80.08L39.56,79.58L39.01,79.53L39.07,80.06L38.64,80.58L38.16,80.33L38.11,79.91L37.38,79.45L36.74,79.5L36.53,79.34L36.57,78.58L35.68,77.51L35.21,76.39L35.15,75.71L35.32,75.31L35.95,75.37L36.37,75.21L36.56,74.87L36.77,73.81L37.01,73.53L37.99,73.05L38.17,72.48L37.04,72.4L36.89,72.16L37.45,71.3L37.35,70.82L36.69,70.49L36.46,69.64L36.79,69.22L36.89,68.04L36.72,67.62L37.05,66.69L36.92,66.39L36.17,66.36L35.66,65.8L35.89,65.26L35.95,64.41L35.27,64.36L34.85,64.5L33.97,62.85L33.62,63.09L33.69,63.92L33.48,64.35L32.73,64.42L32.78,64.12L33.2,63.92L32.96,63.73L32.06,63.69L31.38,64.27L31.62,64.68L31.45,65.1L30.79,64.9L30.54,64.38L30.04,64.28L29.23,63.72L28.68,63.92L27.84,64.02L27.59,63.68L27.58,63.22L27.17,62.79L26.42,62.43L25.6,62.29L24.61,61.36L24.69,60.86L25.1,60.58L25.31,60.11L25.28,59.7L25.64,59.06L26.8,58.2L26.83,57.62L26.44,57.91L25.9,57.61L25.8,57.18L26.27,56.79L26.31,56.28L25.97,56.19L26,55.7L30.5,55.7ZM68.99,74.03L68.62,73.85L67.66,74.37L67.07,75.1L66.25,75.34L65.76,74.55L65.93,74.35L66.19,74.75L66.53,74.41L66.28,74.09L66.53,73.85L66.58,73.07L66.45,72.77L65.66,72.56L65.58,72.86L65.72,73.65L65.14,73.31L64.93,73.72L64.87,73.13L64.63,73.56L64.29,73.65L63.98,73.34L64.33,73.18L64.09,72.78L63.64,72.62L62.68,73.19L62.92,72.66L62.84,72.21L62.35,72.54L61.83,72.42L61.89,71.32L62.29,71.27L62.15,70.8L61.82,71.22L61.22,70.69L61.6,70.11L61.55,69.41L61.03,69.27L60.67,69.38L60.76,69.05L61.4,68.59L60.92,68.45L60.83,67.52L60.55,67.28L60.5,67.62L60.11,67.62L59.9,67.16L59.43,67.17L59.28,67.4L58.92,67.18L58.59,66.65L58.61,66.2L58.2,66.77L57.64,66.41L57.52,66.05L57.78,65.85L57.43,65.61L57.37,65.94L56.67,65.33L56.27,65.79L55.94,65.55L56.14,65L55.76,64.17L55.39,64.57L54.87,64.12L54.49,63.54L54.77,62.96L55.26,62.85L54.96,62.32L55,61.69L54.78,62.02L54.44,61.79L54.28,62.09L53.86,60.87L53.45,61.21L53.78,61.77L53.59,61.92L52.94,61.31L52.78,61.74L52.21,61.65L52.35,61.35L52.06,60.86L51.79,60.95L50.94,60.68L51.51,60.3L51.32,59.6L50.74,59.95L50.44,58.97L50.95,58.42L50.17,58.28L49.8,57.91L49.24,57.66L49.18,56.11L49.36,56.32L49.66,55.89L49.15,55.7L40.28,55.71L35.45,49.38L31.67,44.44L25.46,36.32L21.47,31.08L15.95,23.88L16.63,24.26L18.17,24.16L18.92,23.47L19.41,23.37L19.8,23.54L20.22,24.27L20.7,24.55L21.62,24.38L21.85,24.6L21.45,25.59L22.64,25.07L23.1,25.14L23.48,25.52L23.5,26.23L23.79,26.66L23.74,27.26L24.47,27.09L24.65,26.58L24.89,26.49L25.29,27.42L26.11,27.63L27.14,27.25L27.94,27.15L28.44,27.35L28.79,27.7L29.28,27.86L29.63,27.45L30.52,26.99L30.87,27.5L31.57,28.02L32.47,28.35L32.77,29.03L33.29,29.32L33.83,29.87L34.17,30.39L34.52,30.46L35.53,30.28L36.24,29.9L36.95,29.83L37.74,30.35L38.03,30.31L38.16,29.48L38.43,29L38.53,28.43L38.91,27.82L39.43,27.59L40.27,27.79L43.61,35.17L46.45,41.42L46.19,41.96L46.35,42.93L46.22,43.41L46.52,43.93L46.41,44.63L46.58,44.91L47.37,45.46L48.21,45.67L48.77,45.56L49.41,45.93L50.25,45.88L50.54,45.53L50.8,45.64L51.83,45.02L52.24,45.61L53.33,46.29L54.03,46.29L54.35,45.96L54.59,46.04L55.1,45.77L56.09,45.91L56.56,46.3L56.8,47.07L57.18,47.36L58.14,47.43L58.6,47.25L59.09,47.43L59.18,47.21L59.87,47.22L59.91,47.5L60.53,47.29L60.99,47.43L61.27,47.23L61.54,47.91L61.96,47.95L62.17,48.29L62.45,48.21L63.02,48.7L63.49,48.17L63.22,47.85L63.89,47.59L64.32,47.63L64.34,47.93L64.75,47.5L65.01,47.63L65.1,47.2L65.39,47.28L65.31,47.65L65.89,47.3L66.26,47.68L66.18,48.31L65.85,48.72L65.46,48.6L65.84,49.14L65.7,49.68L65.82,50.01L66.19,49.93L66.93,50.36L66.51,50.44L67,50.64L67.09,51.08L66.72,51.29L66.72,51.77L67.08,51.83L67.08,52.28L67.53,52.52L67.76,53.54L67.61,53.83L67.78,54.3L67.57,54.74L68.21,54.76L68.27,55.27L68.85,54.9L68.98,55.25L68.98,58.8L68.98,67.51ZM139.99,70.1L134.27,70.11L128.13,70.11L119.07,70.12L112.29,70.13L112.29,64.01L112.29,54.97L112.29,47.92L112.29,40.05L112.29,29.6L112.29,23.54L112.83,23.95L113.43,24.84L113.67,25.67L113.21,26.26L113.61,26.65L114.01,26.18L114.97,25.75L115.42,25.9L115.66,26.72L116.72,26.83L117.26,26.59L117.28,25.88L116.77,26.05L116.18,25.88L116.2,25.4L116.97,25.03L117.67,25.13L118.1,24.37L118.87,24.46L119.42,25.22L120.17,24.97L120.55,25.15L120.83,25.93L120.58,26.17L119.91,25.9L119.54,25.96L119.19,26.58L118.18,27.17L117.38,28.24L117.23,29.09L117.65,29.42L117.87,29.3L117.88,28.65L118.49,28.51L118.97,29.16L119.22,29.79L119.25,30.46L119.08,31.22L119.29,31.97L119.05,32.96L119.4,33.48L119.16,33.94L118.66,33.86L118.23,34.09L118.04,35.24L118.2,35.64L119.32,36.6L119.81,37.47L120.19,37.83L120.11,38.2L119.3,38.74L119.08,39.43L118.07,39.39L117.75,40.23L117.88,40.58L118.9,41.64L119.72,41.8L119.95,41.57L120.26,40.8L120.7,40.7L120.99,40.96L120.81,41.52L120.34,41.9L120.02,42.55L120.32,43.09L121.49,43.39L121.46,44.1L121.71,44.45L122.27,44.59L122.84,44.45L123.33,43.47L124.06,42.7L124.32,42.25L124.07,41.58L123.68,41.51L123.08,41.82L122.8,41.77L122.56,41.2L123.06,40.43L123.69,39.86L124.28,39.69L124.71,39.91L125.31,40.63L125.8,40.56L125.94,40.28L125.91,39.47L126.34,39.45L126.58,39.69L126.39,40.34L126.93,40.54L127.74,40.31L128.26,39.68L129.23,40.17L129.29,40.65L128.88,40.43L128.01,40.98L127.89,41.39L128.24,41.87L128.27,42.25L127.53,42.95L127.43,43.49L127.63,43.84L128.42,43.98L129.23,43.53L129.79,43.56L130.35,43.34L130.81,42.33L131.2,42.04L131.92,42.24L132.8,43.7L133.24,43.98L134,44L134.24,43.72L134.09,43.44L133.67,43.41L133.38,43.07L133.15,42.28L133.8,42.01L134.22,42.45L134.54,42.33L135.09,42.59L135.77,43.6L136.68,44.55L136.56,45.07L136.39,44.63L135.81,44.62L135.86,45.65L135.81,47.06L136.25,47.73L136.67,47.75L137.04,47.32L137.06,46.13L137.56,45.95L138.34,45.42L138.75,45.69L139.08,46.73L139.87,46.75L140.67,47.42L141.52,47.37L141.92,46.97L141.96,46.15L141.35,45.69L141.47,45.4L142.08,45.3L142.15,44.86L141.83,43.91L142.37,43.26L142.92,43.22L143.66,44.1L144,44.73L143.98,45.16L143.48,45.8L143.42,46.55L143.01,47.51L143.01,47.99L143.67,49.58L143.65,50.65L143.92,51.41L143.9,51.76L143.38,52.02L143.06,52.39L142.84,53.07L142.93,54.26L142.25,55.29L142.38,56.74L141.25,63.07ZM102.32,21.99L101.91,22.5L101.62,22.36L101.3,22.59L101.15,22.26L100.83,22.47L100.36,22.28L100.32,21.85L99.78,22L99.39,21.63L98.75,21.32L98.6,20.96L98.22,21.17L97.81,20.83L97.45,20.81L96.92,21.21L96.49,21.23L95.08,20.85L94.5,19.92L93.33,19.75L93.23,19.85L92.1,19.23L91.75,18.54L91.47,18.56L91.09,18.17L90.67,17.44L90.31,17.23L90.38,16.82L90.03,16.2L89.75,15.41L89.71,14.61L90.1,14.47L89.92,13.74L89.24,13.41L88.01,13.94L87.39,13.89L86.49,13.64L86.3,13.36L85.76,13.21L85.06,12.68L85.2,12.23L86.25,12.25L86.68,11.99L86.63,11.71L87.3,11.49L87.93,11.87L88.71,11.82L89.04,11.48L89.56,11.32L89.97,11.4L90.24,10.91L91.02,10.5L91.29,10.85L92.06,10.17L92.42,10.05L92.26,9.66L92.92,9.87L93.6,10.6L93.51,11.37L93.85,12.2L94.24,12.3L94.56,11.7L94.89,11.73L95,12.62L95.57,12.37L95.89,12.7L96.43,12.51L96.77,12.65L96.28,13.11L96.34,13.4L96.97,13.81L97.45,13.57L97.34,12.77L97.83,12.48L98.31,12.52L98.71,12.78L98.57,13.19L98.96,13.59L99.86,13.88L99.79,14.61L100.17,15.26L100.77,15.4L100.89,15.76L100.62,16.23L100.09,15.97L99.67,16.21L99.31,16.7L99.66,17.4L100.17,17.71L100.28,18.26L101.09,18.48L101.18,19.06L101.41,19.36L101.46,19.93L101.3,20.48L101.58,20.76L101.63,21.21ZM112.29,23.54L112.29,29.6L112.29,40.05L112.29,47.92L112.29,54.97L111.77,55.14L111.11,55.04L110.88,54.83L110.38,53.72L109.56,53.28L108.66,53.58L108.25,54.07L107.16,54.24L106.42,54.01L105.62,53.57L104.13,52.64L103.63,51.75L103.23,51.27L102.79,50.04L102.47,49.54L101.73,48.93L100.51,48.45L99.4,48.84L98.79,48.87L97.71,48.21L96.89,47.02L96.72,46.61L95.73,45.45L95.49,44.51L95.25,44.29L94.38,43.99L92.78,42.79L92.25,42.59L91.04,42.38L89.09,42.39L87.8,42.58L87.58,43.02L86.7,43.97L86.51,44.38L85.88,44.79L84.02,45.69L83.15,45.66L82.34,45.46L81.65,44.94L81.3,44.33L81.09,43.64L81.13,42.96L81.74,41.67L82.24,40.83L82.28,39.74L81.24,39.41L79.11,39.74L78.49,40.04L76.47,40.29L75.58,39.9L75.2,39L74.91,39.11L74.62,38.84L74.64,38.26L74.88,37.59L74.81,37.06L74.44,36.55L73.56,36.22L72.41,35.52L71.93,34.57L71.54,34.22L70.81,34.13L69.67,34.56L69.1,34.98L69.1,25.9L69.1,20.37L69.37,20.46L69.89,20.17L71.07,20.05L71.58,20.29L72.67,20.19L73.36,20.39L74.16,20.32L74.42,20.01L75.04,20.2L75.54,19.81L76.48,19.62L76.53,19.39L77.32,19.11L77.21,18.28L76.58,17.13L76.89,15.91L77.53,15.34L77.49,14.35L78.44,14.14L79.14,13.52L79.76,13.41L80.69,12.83L81.13,12.44L81.16,11.96L82.04,11.8L84.11,12.77L84.78,12.74L84.87,12.32L85.2,12.23L85.06,12.68L85.76,13.21L86.3,13.36L86.49,13.64L87.39,13.89L88.01,13.94L89.24,13.41L89.92,13.74L90.1,14.47L89.71,14.61L89.75,15.41L90.03,16.2L90.38,16.82L90.31,17.23L90.67,17.44L91.09,18.17L91.47,18.56L91.75,18.54L92.1,19.23L93.23,19.85L93.33,19.75L94.5,19.92L95.08,20.85L96.49,21.23L96.92,21.21L97.45,20.81L97.81,20.83L98.22,21.17L98.6,20.96L98.75,21.32L99.39,21.63L99.78,22L100.32,21.85L100.36,22.28L100.83,22.47L101.15,22.26L101.3,22.59L101.62,22.36L101.91,22.5L102.32,21.99L102.75,22.92L103.21,22.94L103.37,22.39L104.38,22.08L104.73,21.85L104.65,21.56L104.17,21.56L104.36,21.06L105.31,20.67L105.57,20.77L105.98,21.34L106.75,22L107.06,22.56L107.42,22.49L107.71,22.02L108.23,21.63L108.56,21.72L109.12,22.36L109.35,23.05L109.73,23.63L110.09,23.71L110.34,23.08L110.6,22.86L111.32,23.18L111.55,22.68ZM40.28,55.71L30.5,55.7L26,55.7L26.05,55.19L25.59,55.23L24.9,55.02L24.78,53.8L23.6,53.63L23.26,53.22L23.66,53.1L24.08,53.25L24.28,52.8L23.97,52.19L23.49,52.19L23.39,51.87L23.48,50.92L23.76,50.79L23.65,50.43L22.96,50.73L22.53,50.43L22.3,49.6L22.34,48.86L22,49.05L21.27,48.8L20.93,48.3L20.52,48.17L20.12,48.51L19.21,48.53L18.82,48.13L18.59,47.06L18.54,48.11L18.24,48.69L17.57,48.66L17.48,48.17L17.25,48.44L16.75,48.41L15.79,48.07L15.15,47.69L14.92,46.8L14.56,46.48L14.29,45.88L14.13,44.91L13.59,44.77L13.23,45.08L12.75,45.07L12.25,44.83L12.76,43.93L12.41,43.66L11.98,44.34L11.55,44.31L11.04,44.03L10.59,43.08L10.62,42.47L10.94,41.72L10.61,41.38L10.39,41.61L10.35,42.24L9.66,42.86L8.89,42.78L8.13,42.47L6.35,41.42L6.02,41.55L5.01,41.55L4.45,41.34L3.48,40.64L3.4,40.09L3.8,39.62L3.56,39.28L3.4,38.54L2.82,38.22L2.22,38.15L2.12,37.74L2.46,37.32L3.64,37.64L3.5,37.05L3.66,36.58L3.97,36.4L3.99,36.03L3.3,36.31L2.93,35.99L3.13,35.26L2.98,34.89L2.66,35.32L2.19,35.31L2.33,34.54L1.93,34.22L1.55,34.35L1.16,34.16L0.56,33.57L0.39,33.14L0.71,32.8L1.27,32.69L1.53,32.36L1.34,31.86L0.76,31.53L0.49,30.83L0.88,30.41L0.84,30.11L0.46,29.92L0,29.34L0.18,28.36L9.55,25.7L15.95,23.88L21.47,31.08L25.46,36.32L31.67,44.44L35.45,49.38ZM75.63,75.23L75.41,74.83L74.89,74.98L74.93,74.65L74.6,74.33L74.2,74.68L73.46,74.53L73.41,74.89L73.09,75.03L72.76,74.43L71.79,74.54L71.68,74.82L71.1,74.69L71.31,75.17L71.01,75.41L70.54,75.4L70.19,75.17L70.17,74.58L68.99,74.03L68.98,67.51L68.98,58.8L68.98,55.25L69.59,55.89L69.21,56.24L69.47,56.31L70.12,56L70.61,56.31L71.15,56.29L71.09,56.66L71.64,56.76L71.56,57.39L72.06,57.31L72.84,57.39L72.79,57.08L73.26,57.02L73.38,57.49L73.62,57.1L73.75,57.4L73.28,57.7L73.73,58.09L73.59,58.54L73.98,58.65L74.31,58.4L73.92,59.1L74.29,58.89L74.72,59.06L74.6,59.26L74.85,60.48L75.47,60.65L75.73,61.35L76.59,61.34L76.76,61.85L77.47,61.92L77.36,62.71L77.73,63.22L78.06,63.28L78.63,63.74L78.41,64.08L78.54,64.63L78.85,64.61L79.1,65.38L79.4,65.28L79.23,65.74L80.03,66.06L79.9,66.56L80.39,66.63L80.44,66.86L81.04,66.54L80.75,66.29L81.27,65.97L80.98,65.52L81.13,65.26L82.48,65.6L82.36,65.2L82.71,65.3L82.79,64.93L83.56,65.19L83.52,64.53L84.01,64.67L84.48,64.1L84.03,63.94L83.86,63.63L84.45,63.45L84.95,62.9L85.52,62.66L85.47,61.78L85.13,61.56L85.19,61.2L85.78,60.95L86.24,61.02L85.94,60.52L86.3,60.49L85.98,59.88L86.75,59.86L87.09,59.65L86.9,59.25L87.44,58.86L87.25,57.96L87.73,57.23L87.65,56.95L88.49,57.7L88.44,57.14L88.66,56.67L87.84,56.46L87.68,56.05L88.14,55.93L88.63,56.19L88.57,55.73L88.1,55.27L88.04,54.58L88.35,54.51L89.08,54.71L89.94,54.32L90.19,54.66L89.83,55.41L90.32,55.31L90.71,54.56L91.87,54.28L91.71,53.59L90.97,53.31L91.74,52.81L91.07,52.79L91.31,52.54L92.18,52.26L92.66,53.01L93.35,53.17L93.91,53.09L94.33,52.58L94.91,52.77L95.6,52.5L95.76,53.03L96.1,52.59L96.68,52.8L96.95,52.57L97.36,52.96L97.56,53.51L97.83,53.59L97.94,52.86L98.11,52.7L98.97,53.05L98.95,53.48L99.22,53.38L99.76,53.77L100.26,53.41L99.98,53.23L100.14,52.64L100.87,52.87L100.9,52.39L101.12,52.6L101.04,53.28L101.41,53.45L101.62,53.21L101.8,53.65L102.14,53.46L102.03,53.16L102.6,53.02L102.72,53.4L103.05,53.22L103.28,53.44L103.58,53.08L103.56,53.79L104.11,53.66L104.38,53.85L104.32,54.47L104.55,54.75L105.16,54.05L105.5,54.16L105.62,53.57L106.42,54.01L107.16,54.24L108.25,54.07L108.66,53.58L109.56,53.28L110.38,53.72L110.88,54.83L111.11,55.04L111.77,55.14L112.29,54.97L112.29,64.01L112.29,70.13L112.3,78.55L112.3,83.78L111.69,83.72L110.75,82.34L110.31,82.13L109.77,82.28L109.84,82.49L110.82,82.93L110.81,83.48L110.11,84.06L109.01,84.07L108.47,83.85L108.06,83.37L108.02,82.93L108.37,82.18L108.44,81.53L108.07,81.96L107.39,81.97L106.92,81.68L107.01,81.24L107.47,80.4L106.73,79.93L105.13,79.67L104.79,79.48L104.39,78.65L103.72,78.54L103.12,78.65L102.39,78.42L101.97,77.06L101.56,76.59L101.05,76.47L100.65,76.64L100.18,77.27L99.78,77.44L99.31,77.35L98.82,76.97L98.32,76.2L97.72,76.13L97.38,76.56L97.73,77.6L98.16,78.43L98.11,78.81L97.65,78.94L97.23,78.66L97.04,78.18L96.73,77.99L95.94,77.89L95.1,78.23L93.99,78.33L93.75,78.7L94.02,79.15L94.12,79.78L93.72,79.99L93.42,79.76L92.96,79.99L92.88,80.95L92.22,81.07L91.7,80.71L91.54,80.22L91.18,80.07L90.32,80.45L89.98,81.15L89.69,81.24L89.34,80.91L89.74,80.41L89.58,80.05L89.11,80.09L88.66,80.99L87.66,81.31L87.18,81.32L86.72,81.81L86.15,81.68L86.01,81.07L86.28,80.34L85.87,79.73L85.34,79.32L85.02,78.51L84.68,78.09L84.24,77.96L83.74,78.73L84.02,79.53L83.99,80.07L83.43,80.29L82.65,79.27L82.91,77.49L82.82,77.29L81.33,77.24L80.28,76.86L79.67,76.11L78.97,75.88L78.39,76.05L77.35,76.75L76.71,76.51L76.67,75.71L77.06,74.76L76.97,74.5L76.43,74.25L76.23,75.05ZM116.92,104.54L116.61,109.29L116.06,118.76L116.26,118.75L117.35,119.67L117.77,120.53L117.61,121.17L117.84,121.93L117.73,122.29L116.58,121.95L116.25,122.04L115.76,122.56L114.53,122.8L113.67,123.64L112.58,124.15L111.29,124.19L110.96,123.79L110.34,122.64L109.89,122.41L109.54,122.51L108.98,123L107.72,122.75L107.2,122.07L106.77,121.74L106.05,121.81L109.18,116.83L113.93,109.3ZM68.98,55.25L68.85,54.9L68.27,55.27L68.21,54.76L67.57,54.74L67.78,54.3L67.61,53.83L67.76,53.54L67.53,52.52L67.08,52.28L67.08,51.83L66.72,51.77L66.72,51.29L67.09,51.08L67,50.64L66.51,50.44L66.93,50.36L66.19,49.93L65.82,50.01L65.7,49.68L65.84,49.14L65.46,48.6L65.85,48.72L66.18,48.31L66.26,47.68L65.89,47.3L65.31,47.65L65.39,47.28L65.1,47.2L65.01,47.63L64.75,47.5L64.34,47.93L64.32,47.63L63.89,47.59L63.22,47.85L63.49,48.17L63.02,48.7L62.45,48.21L62.17,48.29L61.96,47.95L61.54,47.91L61.27,47.23L60.99,47.43L60.53,47.29L59.91,47.5L59.87,47.22L59.18,47.21L59.09,47.43L58.6,47.25L58.14,47.43L57.18,47.36L56.8,47.07L56.56,46.3L56.09,45.91L55.1,45.77L54.59,46.04L54.35,45.96L54.03,46.29L53.33,46.29L52.24,45.61L51.83,45.02L50.8,45.64L50.54,45.53L50.25,45.88L49.41,45.93L48.77,45.56L48.21,45.67L47.37,45.46L46.58,44.91L46.41,44.63L46.52,43.93L46.22,43.41L46.35,42.93L46.19,41.96L46.45,41.42L43.61,35.17L40.27,27.79L41.37,28.53L41.99,29.86L42.57,30.14L43.71,30.2L44.39,30.04L45.06,29.64L45.63,29.61L46.05,29.02L46.62,29.05L47.01,28.56L47.39,28.4L47.77,29.22L48.41,29.38L48.98,30L49.49,30.21L49.49,30.6L50.83,31.5L51.93,32.38L52.96,32.74L53.48,31.91L54.19,31.34L54.6,30.69L56.5,28.74L57.24,28.76L57.35,29.25L57.2,29.55L57.56,30.05L58.36,30.41L58.68,30.73L59.84,31.19L60.6,30.92L60.76,30.58L61.4,30.35L61.99,29.85L61.88,29.27L62.08,28.61L62.34,26.61L63.19,26.23L63.71,25.69L64.16,24.93L64.29,24.26L64.72,23.73L64.41,23.43L64.57,22.65L64.85,22.42L66.19,21.9L66.6,22.16L67.18,21.77L67.35,21.33L67.22,20.95L67.66,20.55L67.78,20.17L68.42,20.01L69.1,20.37L69.1,25.9L69.1,34.98L69.67,34.56L70.81,34.13L71.54,34.22L71.93,34.57L72.41,35.52L73.56,36.22L74.44,36.55L74.81,37.06L74.88,37.59L74.64,38.26L74.62,38.84L74.91,39.11L75.2,39L75.58,39.9L76.47,40.29L78.49,40.04L79.11,39.74L81.24,39.41L82.28,39.74L82.24,40.83L81.74,41.67L81.13,42.96L81.09,43.64L81.3,44.33L81.65,44.94L82.34,45.46L83.15,45.66L84.02,45.69L85.88,44.79L86.51,44.38L86.7,43.97L87.58,43.02L87.8,42.58L89.09,42.39L91.04,42.38L92.25,42.59L92.78,42.79L94.38,43.99L95.25,44.29L95.49,44.51L95.73,45.45L96.72,46.61L96.89,47.02L97.71,48.21L98.79,48.87L99.4,48.84L100.51,48.45L101.73,48.93L102.47,49.54L102.79,50.04L103.23,51.27L103.63,51.75L104.13,52.64L105.62,53.57L105.5,54.16L105.16,54.05L104.55,54.75L104.32,54.47L104.38,53.85L104.11,53.66L103.56,53.79L103.58,53.08L103.28,53.44L103.05,53.22L102.72,53.4L102.6,53.02L102.03,53.16L102.14,53.46L101.8,53.65L101.62,53.21L101.41,53.45L101.04,53.28L101.12,52.6L100.9,52.39L100.87,52.87L100.14,52.64L99.98,53.23L100.26,53.41L99.76,53.77L99.22,53.38L98.95,53.48L98.97,53.05L98.11,52.7L97.94,52.86L97.83,53.59L97.56,53.51L97.36,52.96L96.95,52.57L96.68,52.8L96.1,52.59L95.76,53.03L95.6,52.5L94.91,52.77L94.33,52.58L93.91,53.09L93.35,53.17L92.66,53.01L92.18,52.26L91.31,52.54L91.07,52.79L91.74,52.81L90.97,53.31L91.71,53.59L91.87,54.28L90.71,54.56L90.32,55.31L89.83,55.41L90.19,54.66L89.94,54.32L89.08,54.71L88.35,54.51L88.04,54.58L88.1,55.27L88.57,55.73L88.63,56.19L88.14,55.93L87.68,56.05L87.84,56.46L88.66,56.67L88.44,57.14L88.49,57.7L87.65,56.95L87.73,57.23L87.25,57.96L87.44,58.86L86.9,59.25L87.09,59.65L86.75,59.86L85.98,59.88L86.3,60.49L85.94,60.52L86.24,61.02L85.78,60.95L85.19,61.2L85.13,61.56L85.47,61.78L85.52,62.66L84.95,62.9L84.45,63.45L83.86,63.63L84.03,63.94L84.48,64.1L84.01,64.67L83.52,64.53L83.56,65.19L82.79,64.93L82.71,65.3L82.36,65.2L82.48,65.6L81.13,65.26L80.98,65.52L81.27,65.97L80.75,66.29L81.04,66.54L80.44,66.86L80.39,66.63L79.9,66.56L80.03,66.06L79.23,65.74L79.4,65.28L79.1,65.38L78.85,64.61L78.54,64.63L78.41,64.08L78.63,63.74L78.06,63.28L77.73,63.22L77.36,62.71L77.47,61.92L76.76,61.85L76.59,61.34L75.73,61.35L75.47,60.65L74.85,60.48L74.6,59.26L74.72,59.06L74.29,58.89L73.92,59.1L74.31,58.4L73.98,58.65L73.59,58.54L73.73,58.09L73.28,57.7L73.75,57.4L73.62,57.1L73.38,57.49L73.26,57.02L72.79,57.08L72.84,57.39L72.06,57.31L71.56,57.39L71.64,56.76L71.09,56.66L71.15,56.29L70.61,56.31L70.12,56L69.47,56.31L69.21,56.24L69.59,55.89ZM134.82,98.93L127.17,98.94L127.06,99.21L126.49,99.34L126.86,100.04L126.59,100.19L126.14,99.76L125.75,100.14L124.93,100.21L125.43,101.46L124.97,101.37L124.79,101.83L124.54,101.61L123.8,101.73L123.73,101.44L123.39,101.65L123.08,102.47L122.29,102.96L122.38,103.54L121.73,104.05L121.28,103.79L121.15,104.28L120.61,104.65L119.83,104.1L119.28,104.02L118.37,104.63L118.03,104.5L117.42,104.92L117.27,104.57L116.92,104.54L120.49,98.86L124.28,92.94L124.47,92.83L124.84,91.92L124.58,91.65L124.43,90.79L124.55,89.69L124.41,89.17L123.69,89.11L123.35,90.16L122.35,90.72L121.91,90.59L121.73,90.05L122.03,89.15L121.82,88.56L121.47,88.27L121.12,89.08L120.77,89.17L120.27,88.95L119.96,88.12L119.97,87.13L119.61,86.2L119.08,86.01L118.54,86.18L117.78,86.7L117.14,86.83L116.28,86.39L116.22,85.75L116.82,85.43L117.4,85.41L117.97,85.04L117.96,84.64L117.12,84.68L116.77,84.39L115.83,84.37L114.83,85.29L113.95,85.2L113.62,84.76L113.43,83.77L113,83.17L112.3,83.78L112.3,78.55L112.29,70.13L119.07,70.12L128.13,70.11L134.27,70.11L139.99,70.1L138.17,80.21L136.92,87.22L136.14,91.54Z" fill="#B3CFC0" stroke="#007139" stroke-width="0.5"/></svg>