<svg xmlns="http://www.w3.org/2000/svg" width="144" height="144" viewBox="0 0 144 144"><path d="M135.88,107.28L131.12,102.51L108.11,102.25L103.03,107.26L99.25,120.31L92.16,119.01L85.6,115.66L81.09,115.67L66.9,103.33L64.42,90.78L57.46,87.79L51.4,81.17L50.79,77.58L41.97,75.59L34.61,81.01L36.15,84.38L30.08,87.1L25.56,97.19L21.51,98.26L21.34,102.1L16.12,107.97L14.61,114.93L10.35,121.13L3.02,117.8L4.28,111.06L0.16,105.6L3.51,95.16L0,90.63L4.34,84.01L2.76,75.46L8.28,74.14L9.11,67.93L2.34,63.44L2.86,60.52L9.91,63.97L12.77,62.11L12.35,55.33L24.61,55.62L16.56,53.06L11.79,53.52L10.8,47.5L15.91,45.64L16.08,38.9L22.37,37.91L18.03,34.89L15.72,26.21L21.02,22.87L28.38,26.88L29.4,32.21L39.75,32.91L42.61,26.31L58.08,25.39L64.83,33.62L71.17,24.65L76.91,32.93L82.74,36.82L91.97,27.45L95.04,37.49L99.85,38.68L102.36,44.55L114.07,48.94L113.64,54.91L111.04,54.2L108.93,60.96L111.93,66.09L125.21,60.11L123.11,67.44L131.06,73.41L137.15,81.4L135.06,86.05L137.26,90.08L144,93.3L138.01,98.97Z" fill="#B3CFC0" stroke="#007139" stroke-width="0.5"/></svg>