<svg xmlns="http://www.w3.org/2000/svg" width="144" height="144" viewBox="0 0 144 144"><path d="M70.22,86.32L70.96,86.52L71.27,86.36L72.04,87.09L71.98,88.5L71.37,88.49L71.15,89.42L70.27,89.38L69.35,90.9L69.84,91.21L69.16,92.18L66.87,93.48L66.27,93.55L65.46,93.42L64.6,92.45L65.39,91.55L66.02,91.13L66.7,90.25L65.77,89.21L65.69,87.9L65.91,87.56L66.47,87.23L67.58,87.74L69.14,87.66L69.43,86.93ZM68.99,116.68L69.43,117.75L70.12,118.67L69.69,119.04L69.52,120.05L68.4,121.24L66.98,121.8L66.62,122.45L65.11,122.43L65.02,122.38L65.08,121.77L65.89,120.37L67.01,119.48L67.59,118.46L68.33,116.59ZM103.53,84.14L103.76,84.64L102.61,85.84L102.57,86.27L101.85,87.35L102.9,87.68L104.79,87.62L105.09,88.34L105.88,88.85L106.23,88.73L106.57,89.7L106.54,90.78L105.29,91.12L105.39,91.92L106.04,92.98L106.76,93.5L105.98,94.21L105.4,93.41L104.49,94.04L103.77,93.08L103.84,91.92L102.8,91.51L102.23,92.37L101.54,92.57L101.13,93.11L99.69,94.21L99.02,95.56L99.06,96.34L98.65,96.45L98.29,97.29L97.77,97.75L96.72,98.07L95.99,99.22L95.4,99.3L95.41,98.66L94.54,98.09L94.57,98.97L94.18,99.8L94.28,100.6L93.59,101.77L94.05,102.14L93.78,103.59L93.08,104.36L92.39,105.97L91.65,106.56L91.74,106.07L90.97,106.08L89.26,106.99L88.68,106.32L87.79,106.01L88.58,104.35L88.47,103.68L87.73,103.47L86.81,102.1L86.83,101.46L86.12,100.79L86.17,100.09L85.86,98.59L86.04,98.25L87.46,96.95L88.24,95.3L88.54,95.11L89.03,93.9L88.75,93.03L89.07,92.58L90.05,92.25L90.7,90.85L92.37,88.8L92.53,87.94L92.26,87.22L93.54,86.53L93.82,84.72L94.54,85.12L96.48,85.5L98.42,86.19L99.59,83.9L100.48,83.16L101.42,83.45L102.11,84.99L102.55,84.55ZM63.31,73.66L65.43,75.18L65.66,76.63L66.16,76.47L67.61,77.42L68.07,76.91L68.47,77.86L68.26,78.78L68.81,79.35L68.95,79.94L69.45,79.89L70.19,81.22L69.9,81.72L69.06,82.03L68.07,81.6L67.85,80.49L67.23,80L67.06,79.37L65.86,79.73L65.55,79.9L63.9,78.71L63.04,79.24L62.46,78.92L61.62,79.27L61.41,78.82L62.12,77.72L61.33,77.08L61.79,75.93L61.79,75.53L62.51,74.63L61.06,73.12L61.47,72.96L61.1,72.39L62.25,72.74L62.17,73.15ZM98.27,62.9L99.03,63.25L99.42,63.79L99.13,64.42L97.91,65.38L97.43,65.49L97.12,66.1L96.14,66.58L95.27,67.33L94.85,66.99L94.16,67.6L92.88,67.08L92.76,66.52L91.11,65.11L90.86,64.48L90.04,63.59L89.92,63.1L90.33,62.63L90.44,61.83L90.81,61.51L90.77,60.67L91.26,60.06L91.76,60.04L92.42,59.45L92.39,58.9L92.79,60.1L93.91,61.36L95.17,62.05L95.2,62.9L95.71,63.49L96.43,63.76L98.07,63.24ZM84.48,108.44L83.6,108.88L83.11,108.38L82.54,106.89L81.47,106.31L80.46,105.24L81.6,103.91L82.14,103.03L83.3,102.26L84.93,101.43L84.75,103L84.43,103.6L82.93,104.65L82.7,105.6L82.93,106.26L84.47,106.98L84.8,107.54ZM92.88,67.08L94.16,67.6L94.85,66.99L95.27,67.33L96.14,66.58L97.12,66.1L97.43,65.49L97.91,65.38L98.12,65.99L99.22,66.05L100.04,66.57L99.3,67.82L98.85,67.9L99.14,68.42L98.83,69.52L98.08,69.88L97.52,70.6L96.4,70.62L95.88,71.28L95.08,70.82L95.11,70.35L94.05,70.24L93.41,69.51L93.14,68.6L92.64,68.52L92.29,67.95ZM108.3,40.63L108.18,41.56L108.4,42.13L109.4,42.22L109.7,43.9L110.18,44.89L110.83,45.43L111.42,46.79L111.09,47.61L110.28,47.62L110.38,49.07L110.62,49.27L110.21,49.94L109.43,49.27L109.41,49.66L108.53,52.1L107.65,52.41L107.27,50.74L107.35,49.25L107.08,48.65L107.18,47.45L106.79,46.57L106.51,45L106.62,43.98L106.46,42.11L106.05,40.99L106.33,40.49L106.92,40.84ZM66.27,93.55L66.87,93.48L69.16,92.18L69.71,92.09L70.41,92.57L70.15,93.54L70.57,93.93L69.65,94.42L68.83,95.33L67.91,95.89L67.48,94.97L66.26,95.21L65.71,95.68L64.93,95.32ZM41.63,79.74L41.31,80.67L40.75,81.65L40.99,82.66L41.44,83.07L42.86,82.71L42.46,83.46L41.76,83.54L40.7,84.43L40.37,83.9L39.39,83.39L38.91,83.97L38.25,83.02L38.38,82.3L37.94,80.83L38.15,80.48L38.43,80.74L39.19,79.5L39.86,79.46L40.14,78.54L40.59,78.14L41.34,78.27L41.42,78.93L42.01,78.77ZM40.02,89.53L40.07,90.79L40.46,92.09L40.3,93.68L39.92,94.41L39.23,94L38.34,94.31L38.08,94.85L37.64,94.05L37.91,93.49L36.9,93.17L36.28,93.38L35.99,93.03L34.78,92.66L34.25,92.27L34.85,90.92L35.6,90.1L35.79,89.46L36.6,89.18L36.86,89.39L37.4,88.53L38.39,88.64L38.95,88.35L39.5,88.49L39.98,88.14ZM95.08,70.82L95.88,71.28L96.38,71.63L95.36,73.92L94.33,73.87L93.82,74.16L93.67,72.85L93.98,72.37L94.1,71.26ZM40.7,84.43L41.76,83.54L42.46,83.46L43.1,84.06L42.96,85.28L43.56,85.41L43.3,86.04L43.62,87.25L43.35,88.37L42.85,89.15L42.23,89.07L41.08,90.12L40.32,89.24L40.02,89.53L39.98,88.14L39.34,87.46L39.21,86.86L39.58,86.49ZM86.79,117.86L85.64,117.91L85.33,117.57L85.06,118.07L84.08,118.91L82.66,119.79L81.31,120.95L80.77,121.92L79.71,122.37L79.06,122.97L77.8,122.06L77.09,122.4L76.74,121.98L77.15,121.07L77.14,120.25L76.81,120L76.5,118.87L77.06,117.69L76.89,116.48L76.14,115.75L76.23,114.81L75.86,114.09L75.14,113.76L76.18,113.31L78.31,114.08L79.43,113.49L80.28,113.49L81.1,112.81L82.34,111.48L82.97,112.05L84.48,112.28L84.74,113.04L84.12,114.73L83.7,115.15L84.98,116.16L84.8,116.81L86.87,116.11ZM89.92,63.1L90.04,63.59L90.86,64.48L91.11,65.11L92.76,66.52L92.88,67.08L92.29,67.95L92.16,68.17L91.63,67.96L89.85,68.07L88.65,67.69L88.08,67.12L88.3,66.89L87.73,66.11L88.79,64.77L89.23,63.61ZM70.84,103.5L71.32,104.23L71.1,104.72L71.9,105.32L72.22,105.86L73.29,106.43L72.64,106.87L73.97,108.03L74.63,108.25L74.5,109.09L74.12,109.16L73.19,108.81L69.01,110.15L68.58,109.17L67.86,108.74L67.88,107.69L68.12,106.96L67.51,105.89L66.89,105.13L67.03,104.51L68.26,103.46L69,103.28L69.35,102.64L69.9,102.39L70.44,102.61ZM42.46,83.46L42.86,82.71L41.44,83.07L40.99,82.66L40.75,81.65L41.31,80.67L42.38,80.5L42.82,79.74L44.3,80L44,81.06L44.03,81.9L45.56,83.27L46.19,83.24L46.95,83.67L48.43,82.99L49.3,83.24L49.82,83.67L51.93,83.89L50.34,85.99L49.98,86.7L49.61,86.47L48.36,86.7L47.55,85.86L46.96,85.73L46.44,87.98L45.64,86.99L44.74,87.99L43.35,88.37L43.62,87.25L43.3,86.04L43.56,85.41L42.96,85.28L43.1,84.06ZM125.48,25.9L125.12,27.44L124.41,27.7L123.44,28.45L122.99,30.31L122.1,31.01L120.93,31.32L120.88,31.61L121.54,32.83L122.29,33.72L122.49,34.59L121.05,34.69L121.02,35.94L120.44,35.87L119.95,36.73L119.02,36.42L118.03,35.9L116.99,34.87L115.69,34.83L114.75,35.37L113.8,36.7L113.03,37.32L113.02,37.67L112.46,37.23L112.22,36.31L112.92,35.3L112.87,34.57L112.41,33.87L112.58,33.04L113.41,32.57L114.13,30.66L115,30.31L114.93,30L115.58,29.21L115.62,28.28L115.32,27.78L115.65,27.03L115.48,25.92L114.91,24.93L115.51,24.45L115.33,23.59L114.93,23.34L115.09,22.35L114.94,21.52L115.77,20.81L115.67,20.49L116.06,19.18L117.19,18.72L118.56,19.01L118.91,18.82L119.63,19.28L120.67,19.35L122.07,19.21L122.36,18.84L123.31,18.97L123.29,19.84L123.96,20.49L124.48,20.6L125.01,21.84L125.64,22.24L125.85,23.48L125.09,23.63L125.48,24.11L125.68,25.35ZM120.34,49.62L120.83,50.2L120.26,51.48L120.02,53.07L119.24,54.32L119.85,54.01L120.55,54.09L120.52,55.52L121.5,56.14L121.37,57L120.73,57.54L121.01,58.09L122.06,58.84L121.46,59.21L122.16,60.13L124.33,59.44L124.31,60.52L121.98,62.18L122.98,63.89L123.35,64.28L123.19,65.67L123.56,67.13L124.13,67.61L123.99,69.38L123.72,69.9L120.58,69.36L119.33,69.26L118.9,68.28L118.23,67.44L117.62,67.09L117.47,66.38L116.61,66.17L115.75,65.52L114.93,64.35L114.29,63.87L113.39,63.64L112.78,62.4L113.23,61.38L112.6,60.42L113.23,59.34L113.36,57.61L114.09,57.18L113.99,56.23L113.25,55.32L112.06,54.7L112.67,53.5L113.16,52.94L113.53,51.98L114.24,50.94L114.94,50.57L115.06,48.82L115.72,47.99L116.29,47.82L117.37,47.92L118.05,49.06L120.18,49.71ZM65.31,69.56L63.87,67.74L64.27,66.92L63.61,65.73L62.94,65.2L62.01,64.84L62.54,64.05L63.31,62.9L64.41,61.66L64.6,60.68L64.24,59.92L65.53,60.49L66.09,60.49L66.94,61.24L68.66,63.86L68.37,65.4L68.49,65.75L67.67,67.26L67.83,67.55L66.65,70.05L66.02,70.04ZM71.98,88.5L72.04,87.09L73.37,86.53L74.3,86.78L74.91,86.51L75.46,84.86L76.03,84.05L77.02,84.06L76.7,84.77L75.94,85.69L75.13,87.09L76.07,87.4L76.23,87.93L75.71,88.99L74.89,88.68L73.22,89.51L72.65,89.46ZM76.55,95.76L75.43,97.37L73.17,98.81L72.88,98.29L71.92,97.5L71.21,96.55L71.4,95.78L70.81,95.36L71.6,93.82L71.65,93.47L72.08,93.96L71.42,94.73L72.56,95.13L73.66,95.23L74.69,95.77ZM70.96,86.52L70.22,86.32L70.05,85.22L69.47,84.74L69.06,83.91L69.06,82.03L69.9,81.72L70.19,81.22L69.45,79.89L68.95,79.94L68.81,79.35L68.26,78.78L68.47,77.86L68.07,76.91L68.71,75.45L69.24,76.01L69.49,76.82L70.49,76.6L71.18,78.07L71.92,79.2L72.39,79.43L72.69,80.26L73.88,79.66L74.32,79.95L73.96,80.89L74.48,80.95L74.14,82.03L71.51,84.68ZM35.79,89.46L35.6,90.1L34.85,90.92L34.25,92.27L34.78,92.66L35.99,93.03L36.28,93.38L36.9,93.17L37.91,93.49L37.64,94.05L38.08,94.85L38.06,95.16L36.71,95.1L36.26,95.94L35.95,97.23L35.32,97.86L34.06,97.84L34.11,96.85L33.13,96.5L32.88,95.89L32.33,96.05L31.37,95.69L30.47,94.28L30.1,93.99L30.29,93.47L30.13,92.36L30.14,92.08L31.16,91.57L32.14,90.72L32.78,90.78L33.49,90.97L34.11,90.31L34.16,89.73L35.09,89.27ZM95.88,71.28L96.4,70.62L97.52,70.6L98.39,71.63L99.03,71.93L98.73,73.05L97.8,73.69L97.62,74.31L97.04,74.44L97.23,74.93L96.97,75.48L96.02,76.19L94.95,76.38L94.86,75.14L93.83,75.06L93.82,74.16L94.33,73.87L95.36,73.92L96.38,71.63ZM105.32,38.38L104.42,39.08L103.35,40.54L102.22,40.65L102.9,39.81L102.28,38.9L102.33,37.96L101.26,37.79L100.39,37.01L100.03,35.9L99.09,35.85L98.35,35.2L98.48,34.28L99.83,33.51L99.83,33.28L101.08,33.13L101.98,33.84L101.89,34.28L102.65,34.71L103.11,34.58L104.02,35.34L104.55,36.72L104.94,37.01ZM125.48,25.9L125.68,25.35L125.48,24.11L125.09,23.63L125.85,23.48L125.64,22.24L125.01,21.84L124.48,20.6L123.96,20.49L123.29,19.84L123.31,18.97L122.36,18.84L122.07,19.21L120.67,19.35L119.63,19.28L118.91,18.82L118.56,19.01L117.19,18.72L116.06,19.18L115.53,18.62L115.29,17.88L114.94,17.82L114.72,17.04L115.04,16.28L114.69,15.66L115.03,14.94L115.49,14.78L116.72,16L118,16.52L118.44,17.01L119.83,17.55L120.56,17.58L122.2,16.42L122.67,16.54L124.74,14.37L125.91,11.05L126.7,10.07L127.92,10.32L127.81,11.55L128.38,11.97L129.68,11.48L130.24,10.56L130.71,10.39L130.46,9.51L130.78,8.55L131.25,8.22L131.66,9.19L132.78,8.24L133.18,8.92L133.6,8.96L133.52,9.88L135.35,10.91L137.09,8.32L137.75,8.28L138.78,8.74L140.26,8.83L144,10.06L143.48,10.66L143.39,11.3L142.55,12.61L141.7,14.65L141.55,15.62L140.44,17.78L140.41,18.19L139.54,19.85L139.32,20.67L139.33,21.74L138.68,23.11L138.19,23.17L137.2,24.06L136.45,23.91L136.06,24.3L135.37,24.67L134.73,24.44L133.92,23.4L133.82,23.7L132.72,24.28L131.49,24.6L130.82,24.42L130.17,24.7L129.98,25.27L129.34,25.4L129,26.97L128.57,26.57L127.63,26.39L126.09,27L125.9,26.08ZM65.91,87.56L65.69,87.9L65.77,89.21L66.7,90.25L66.02,91.13L65.39,91.55L64.11,90.92L64.03,89.92L63.64,89.95L62.25,88.91L62.29,88.19L63.43,88.16L63.89,87.84L64.92,87.76L65.57,87.32ZM93.82,84.72L93.54,86.53L92.26,87.22L91.02,87.9L88.99,86.65L88.13,85.85L89.85,85.85L90.94,85.56L91.24,84.84L92.41,84.4ZM65.86,79.73L67.06,79.37L67.23,80L67.85,80.49L68.07,81.6L67.97,82.47L66.8,83.88L66.51,84.56L66.03,84.43L64.81,85.11L64.33,85.81L63.26,86.02L62.74,86.39L61.86,87.63L61.65,86.69L61.17,86.37L61.21,85.5L60.94,85.41L61.81,84.35L62.68,83.57L62.35,82.95L62.91,81.34L64.84,81.05ZM65.11,122.43L66.62,122.45L66.98,121.8L68.4,121.24L69.12,121.8L69.53,123.11L70.2,123.11L71.19,122.5L71.71,121.73L72.46,122.6L72.48,123.86L70.69,125.89L70.3,126.86L70.79,127.65L70.24,128.55L68.6,128.04L68.95,126.77L68.45,125.97L67.54,125.45L67.4,124.51L67,123.83L65.78,123.87L64.64,123.3ZM86.67,63.01L86.14,63.96L86.19,64.46L85.74,65.55L86.44,66.28L86.46,67.17L87.18,68.09L86.91,68.8L87.45,69.77L87.87,71.09L87.54,72.72L87.78,73.51L88.34,73.12L88.74,74.53L87.62,74.33L87.46,75.07L86.82,75.94L86.1,76.36L85.63,76.2L84.88,76.38L84.02,76.09L84.22,74.39L83.97,72.97L81.99,71.04L82.48,70.95L82.52,69.94L81.12,69.07L81.6,68.47L81.47,67.74L79.9,66.9L79.01,64.43L80.09,65.28L80.14,65.83L81.41,66.31L83.56,66.03L83.96,65.36L84.73,65.07L85.02,63.55L85.82,63.1ZM120.34,49.62L120.18,49.71L118.05,49.06L117.37,47.92L116.29,47.82L115.72,47.99L115.06,48.82L114.81,47.83L114.29,47.54L113.91,45.51L114.39,44.41L114.72,44.54L116.02,44.18L115.62,43.29L116.38,43.03L116.62,42.36L118.51,40.66L118.87,41.47L120.15,42.08L120.6,41.82L121.05,42.29L122.13,42.69L123.66,42.55L124.34,44.64L124.67,45.04L124.55,46.28L123.66,46.12L123.41,45.7L122.7,45.75L121.67,47.11L121.27,48.5ZM113.02,37.67L113.03,37.32L113.8,36.7L114.75,35.37L115.69,34.83L116.99,34.87L118.03,35.9L119.02,36.42L118.21,37.73L117.28,37.97L116.37,38.59L116.13,39.27L115.6,39.37L114.88,38.79L113.84,38.65L112.77,38.1ZM91.12,79.37L89.85,82.03L90.26,82.85L89.49,83.32L88.89,83.13L88.41,83.89L88.06,83.25L87.39,83.4L86.86,83.99L85.37,83.78L84.96,83.04L84.29,83.95L83.83,83.3L82.84,82.56L82.89,82.32L85.17,80.83L85.97,80.37L86.28,79.69L87.04,78.84L87.84,79.09L89.78,79.04L90.19,79.67ZM92.29,67.95L92.64,68.52L93.14,68.6L93.41,69.51L94.05,70.24L95.11,70.35L95.08,70.82L94.1,71.26L93.98,72.37L93.67,72.85L93.82,74.16L93.83,75.06L93.53,74.75L91.86,74.87L91.33,74.46L91.06,73.35L89.85,72.21L89.61,71.69L90.99,69.88L91.06,69.24L91.99,68.84L92.16,68.17ZM61.79,75.93L61.33,77.08L62.12,77.72L61.41,78.82L60.59,79.01L60.81,79.82L59.55,81.31L58.31,81.33L57.87,80.57L58.37,79.59L57.9,78.79L57.99,78L57.6,77.73L57.48,76.27L58.23,76.12L57.43,75.34L57.74,74.49L58.41,75.02L59.54,75.52L60.33,75.44L60.53,74.84L61.64,75.58ZM97.23,74.93L97.04,74.44L97.62,74.31L97.8,73.69L98.73,73.05L99.03,71.93L99.68,72.42L100.19,72.26L101.88,73.77L103.38,73.31L104.15,72.9L104.94,73.11L104.85,73.89L105.83,74.33L107.46,73.92L107.86,73.26L108.29,73.91L108.16,76.04L106.63,75.46L105.89,75.83L105.08,75.7L104.17,76.23L102.35,76.21L100.55,76.56L99.13,76.28L98.62,75.52ZM68.99,116.68L68.33,116.59L67.71,116.62L67.39,115.59L67.43,114.88L67.96,112.92L69.02,111.02L69.01,110.15L73.19,108.81L74.12,109.16L74.95,109.29L76.09,109.8L75.5,111.64L74.74,112.3L75.14,113.76L74.76,115L73.36,116.44L72.99,114.89L72.57,114.89L70.28,115.57L70.14,116.03L69.31,116.19ZM112.77,38.1L113.84,38.65L114.88,38.79L115.6,39.37L116.36,39.99L115.58,41.23L115.49,42.46L115.02,42.75L114.71,42.92L113.18,41.72L112.31,41.43L111.85,40.39L112.28,38.15ZM62.88,114.15L63.2,114.69L62.69,115.53L63.56,116.23L63.76,117.09L64.61,117.72L63.61,118.35L61.91,118.1L61.43,117.63L60.96,117.23L60.61,115.88L60.95,115.55L62,115.31L62.85,114.11ZM65.02,122.38L65.11,122.43L64.64,123.3L64.37,123.66L63.41,123.15L62.5,123.25L62.11,123.61L60.69,123.88L60.49,123.17L59.75,122.94L59.32,121.5L59.45,120.36L60.06,119.84L60.81,118.53L60.88,117.95L61.43,117.63L61.91,118.1L63.61,118.35L63.3,119.05L63.82,119.76L63.55,120.41L64.41,120.92L64.42,122.27ZM119.02,36.42L119.95,36.73L120.44,35.87L121.02,35.94L121.05,34.69L122.49,34.59L122.29,33.72L121.54,32.83L120.88,31.61L120.93,31.32L122.1,31.01L122.99,30.31L123.44,28.45L124.41,27.7L125.12,27.44L125.48,25.9L125.9,26.08L126.09,27L127.63,26.39L128.57,26.57L129,26.97L129.34,25.4L129.98,25.27L130.17,24.7L130.82,24.42L131.49,24.6L132.72,24.28L133.82,23.7L133.92,23.4L134.73,24.44L135.37,24.67L136.06,24.3L136.33,25.2L136.07,25.51L136.15,27.88L136.53,29.53L136.35,30.28L135.39,31.47L135.43,32.57L135.1,33.22L134.79,35.32L134.53,36.13L134.02,36.7L132.79,36.94L131.93,37.63L132.2,38.51L132.1,39.43L131.74,39.63L130.61,39.12L130.07,39.28L129.75,40.75L129.02,41.55L128.32,41.7L127.55,40.54L126.97,40.85L127.11,41.77L126.39,41.93L126.16,43.01L126.46,43.15L126.31,43.95L125.7,44.17L125.34,44.97L124.67,45.04L124.34,44.64L123.66,42.55L122.13,42.69L121.05,42.29L120.6,41.82L120.15,42.08L118.87,41.47L118.51,40.66L118.36,39.91L117.93,39.71L117.88,39.02L118.21,37.73ZM92.41,84.4L91.24,84.84L90.94,85.56L89.85,85.85L88.13,85.85L88.12,84.81L88.41,83.89L88.89,83.13L89.49,83.32L90.26,82.85L90.35,83.18L91.48,84.02L92.17,83.89ZM65.71,95.68L66.26,95.21L67.48,94.97L67.91,95.89L68.83,95.33L69.65,94.42L69.89,95.36L69.23,96.64L69.02,98.07L70.65,98.87L70.39,99.47L71.11,100.11L70.48,100.69L69.93,100.53L69.39,99.71L68.28,99.25L68.08,98.44L67.02,98.33L66.7,97.66L66.12,97.65L66.3,97.22ZM112.06,54.7L113.25,55.32L113.99,56.23L114.09,57.18L113.36,57.61L113.23,59.34L112.6,60.42L112.1,59.63L111.63,59.42L111.36,57.8L110.59,57.91L110.02,58.37L108.6,58.68L108.08,58.25L106.55,57.92L106.96,56.14L107.67,54.51L107.79,53.23L109.79,53.26L111.45,54.12ZM105.98,94.21L106.76,93.5L106.04,92.98L105.39,91.92L105.29,91.12L106.54,90.78L106.57,89.7L106.23,88.73L105.88,88.85L105.09,88.34L104.79,87.62L102.9,87.68L101.85,87.35L102.57,86.27L102.61,85.84L103.76,84.64L103.53,84.14L104.2,83.43L104.43,81.54L105.3,81.55L106.34,81.92L108.26,83.92L109.26,83.87L109.38,84.19L109.8,83.31L109.63,82.9L110.39,82.23L110.6,81.18L110.92,80.87L111.12,79.64L112.06,80.93L112.75,81.37L112.16,82.51L112.47,83.49L112.42,84.17L114.08,85.01L113.96,85.69L114.57,85.76L115.39,86.75L116.86,87.31L117.1,87.74L116.77,88.18L117.79,89.7L116.39,91.04L115.38,91.77L114.74,93.74L113.32,94.66L112.89,95.36L111.8,95.96L110.39,97.09L109.55,96.16L110.03,94.88L109,94.54L108.37,95L107.25,94.78ZM62.88,114.15L62.85,114.11L62.74,113.01L62.09,111.77L62.24,110.57L63.01,109.55L65.15,108.95L65.05,109.55L66.06,110.94L65.42,112.45L64.27,113.63ZM23.85,90.92L22.94,91.85L22.3,92.06L21.67,90.81L22.53,88.71L23.64,88.38L23.98,87.85L24.71,87.97L24.33,88.37L24.74,88.88L24.45,89.59L23.39,89.96ZM107.65,52.41L108.53,52.1L109.41,49.66L109.43,49.27L110.21,49.94L110.62,49.27L110.38,49.07L110.28,47.62L111.09,47.61L111.42,46.79L110.83,45.43L112.71,45.3L113.91,45.51L114.29,47.54L114.81,47.83L115.06,48.82L114.94,50.57L114.24,50.94L113.53,51.98L113.16,52.94L112.67,53.5L112.06,54.7L111.45,54.12L109.79,53.26L107.79,53.23ZM61.41,78.82L61.62,79.27L62.46,78.92L63.04,79.24L63.9,78.71L65.55,79.9L65.86,79.73L64.84,81.05L62.91,81.34L62.35,82.95L62.68,83.57L61.81,84.35L60.94,85.41L60.08,85.19L59.29,85.55L58.6,84.83L58.52,83.77L57.45,83.98L57.16,83.83L57.03,82.93L57.67,81.46L57.87,80.57L58.31,81.33L59.55,81.31L60.81,79.82L60.59,79.01ZM68.4,121.24L69.52,120.05L69.69,119.04L70.12,118.67L69.43,117.75L68.99,116.68L69.31,116.19L70.14,116.03L70.28,115.57L72.57,114.89L72.99,114.89L73.36,116.44L74.76,115L75.14,113.76L75.86,114.09L76.23,114.81L76.14,115.75L76.89,116.48L77.06,117.69L76.5,118.87L75.94,119.71L74.35,121.13L73.43,121.25L72.46,122.6L71.71,121.73L71.19,122.5L70.2,123.11L69.53,123.11L69.12,121.8ZM39.98,88.14L39.5,88.49L38.95,88.35L38.39,88.64L37.4,88.53L36.86,89.39L36.6,89.18L35.79,89.46L35.09,89.27L34.16,89.73L34.11,90.31L33.49,90.97L32.78,90.78L32.56,90.63L32.11,89.19L31.27,88.72L31.06,87.59L30.37,87.01L30.22,86.3L30.57,85.3L30.64,85.01L31.83,83.63L32.06,82.85L32.88,83.7L33.37,83.24L33.82,83.76L33.76,85.23L34.93,85.38L35.36,84.85L36.35,85.71L36.94,85.59L38.1,86.37L37.98,87.29L39.21,86.86L39.34,87.46ZM80.46,105.24L81.47,106.31L82.54,106.89L83.11,108.38L83.6,108.88L83.58,109.47L82.34,111.48L81.1,112.81L80.28,113.49L79.43,113.49L78.31,114.08L76.18,113.31L75.14,113.76L74.74,112.3L75.5,111.64L76.09,109.8L74.95,109.29L74.12,109.16L74.5,109.09L74.63,108.25L73.97,108.03L72.64,106.87L74.65,107.59L75.48,107.38L76.77,106.2L76.9,105.09L78.16,104.65L79.77,104.72ZM103.53,84.14L102.55,84.55L102.11,84.99L101.42,83.45L100.48,83.16L99.39,82.31L99.48,80.78L98.99,80.46L99.09,79.56L97.76,78.9L97.59,78.18L97.88,77.38L99.13,76.28L100.55,76.56L102.35,76.21L104.17,76.23L105.08,75.7L105.89,75.83L106.63,75.46L108.16,76.04L110.41,76.35L110.55,77.92L110.76,78.5L110.54,79.68L111.12,79.64L110.92,80.87L110.6,81.18L110.39,82.23L109.63,82.9L109.8,83.31L109.38,84.19L109.26,83.87L108.26,83.92L106.34,81.92L105.3,81.55L104.43,81.54L104.2,83.43ZM97.59,78.18L97.76,78.9L99.09,79.56L98.99,80.46L99.48,80.78L99.39,82.31L97.99,83.17L97.65,82.58L97.16,82.59L96.14,81.41L95.11,80.65L94.93,79.81L95.15,78.99L94.83,78.79L95.16,77.9L96.14,77.37L96.4,78.07ZM63.31,73.66L62.17,73.15L62.25,72.74L61.1,72.39L61.47,72.96L61.06,73.12L62.51,74.63L61.79,75.53L61.79,75.93L61.64,75.58L60.53,74.84L60.33,75.44L59.54,75.52L58.41,75.02L57.74,74.49L57.43,75.34L56.85,75.04L55.1,75.95L54.94,75.37L55.49,73.35L56.49,71.11L55.82,70.12L54.88,69.78L54.58,68.96L55.35,68.18L56.1,67.84L56.85,66.31L57.14,66.68L58.36,66.5L59.15,66.77L60.31,67.29L60.29,68.2L59.52,68.71L60.64,69.89L61.14,69.78L61.59,70.77L62.23,70.98L63.72,72.23L63.81,72.54ZM70.22,86.32L69.43,86.93L69.14,87.66L67.58,87.74L66.47,87.23L67.35,86.17L66.51,84.56L66.8,83.88L67.97,82.47L68.07,81.6L69.06,82.03L69.06,83.91L69.47,84.74L70.05,85.22ZM32.78,90.78L32.14,90.72L31.16,91.57L30.14,92.08L30.13,92.36L29.1,92.18L29.28,92.56L28.75,94.58L28.44,94.53L27.64,93.55L26.75,93.58L25.97,92.81L26.09,92.21L27.43,91.55L27.65,90.82L28.08,90.63L28.42,89.37L27.71,89.02L27.01,88.22L26.59,87.19L26.7,85.58L26.85,85.68L28.23,85.68L28.81,85.05L30.57,85.3L30.22,86.3L30.37,87.01L31.06,87.59L31.27,88.72L32.11,89.19L32.56,90.63ZM93.83,75.06L94.86,75.14L94.95,76.38L94.58,76.54L94.47,76.74L93,77.07L92.3,76.98L91.26,77.68L90.73,77.76L89.84,77.14L89.78,76.5L89.05,75.53L89.44,75.43L89.26,74.78L90.75,74.39L91.33,74.46L91.86,74.87L93.53,74.75ZM64.93,95.32L65.71,95.68L66.3,97.22L66.12,97.65L66.11,98.51L65.52,99.3L64.54,100.03L64.35,101.27L63.66,101.93L62.97,102.02L62.82,101.77L63.46,100.53L63.24,98.95L62.77,98.53L62.98,97.72L64.46,96.93L64.88,96.24ZM72.04,87.09L71.27,86.36L70.96,86.52L71.51,84.68L74.14,82.03L74.74,82.45L74.69,83.32L75.33,84L76.03,84.05L75.46,84.86L74.91,86.51L74.3,86.78L73.37,86.53ZM26.85,85.68L26.7,85.58L25.74,85.77L25,86.71L24.73,86.65L24.32,85.07L23.56,84.97L23.42,84.51L22.21,84.13L21.67,83.41L20.96,83.86L19.03,83.42L18.93,82.9L20.15,82.07L20.23,81.23L20.61,80.52L19.14,79.62L19.24,78.85L20.04,77.71L19.52,76.72L20.83,75.23L21.39,73.89L21.16,72.96L22.32,73.02L23.25,72.64L23.34,72.32L24.34,71.81L24.92,71.84L24.66,70.72L25.7,68.88L26.46,69.59L27.44,70.01L28.2,70.76L29.81,70.7L30.41,71.69L30.55,72.59L30.83,72.52L31.07,73.82L30.63,74.84L30.36,76.96L29.11,77.2L28.76,77.54L27.89,77.35L27.01,77.83L26.69,78.75L26.14,79.2L26.22,80.7L25.96,82.06L26.11,82.55L25.78,83.4L26.3,83.27L26.6,83.73L26.5,84.49ZM67.51,105.89L68.12,106.96L67.88,107.69L67.86,108.74L68.58,109.17L69.01,110.15L69.02,111.02L67.96,112.92L67.21,112.01L66.15,111.43L66.06,110.94L65.05,109.55L65.15,108.95L65.75,107.76L66.74,106.87ZM87.79,106.01L88.68,106.32L89.26,106.99L90.97,106.08L91.74,106.07L91.65,106.56L91.04,107.28L90.27,109.12L89.71,109.43L90.16,110.31L91.38,111.05L92.11,112.13L93.13,111.93L93.43,113.82L92.12,114.92L92.27,115.72L90.83,116.92L90.6,117.6L90.12,117.92L89.63,118.78L87.53,117.32L86.7,118.38L86.79,117.86L86.87,116.11L84.8,116.81L84.98,116.16L83.7,115.15L84.12,114.73L84.74,113.04L84.48,112.28L82.97,112.05L82.34,111.48L83.58,109.47L83.6,108.88L84.48,108.44L85.3,108.83L86.49,108.18ZM79.01,64.43L79.9,66.9L81.47,67.74L81.6,68.47L81.12,69.07L82.52,69.94L82.48,70.95L81.99,71.04L83.97,72.97L84.22,74.39L84.02,76.09L84.88,76.38L85.63,76.2L84.81,77.47L84.75,78.78L85.17,80.83L82.89,82.32L82.46,81.4L81.53,80.26L79.92,79.09L80.06,78.68L80.12,78.21L79.38,77.75L79.03,76.61L79.52,75.31L81.03,73.68L81.43,71.89L79.88,72.03L79.57,72.25L78.56,72.12L77.21,69.98L76.6,69.97L76.69,68.8L77.27,68.33L76.4,67.28L76.69,66.27L76.74,65.14L77.75,63.97ZM98.29,97.29L98.65,96.45L99.06,96.34L99.02,95.56L99.69,94.21L101.13,93.11L101.54,92.57L102.23,92.37L102.8,91.51L103.84,91.92L103.77,93.08L104.49,94.04L105.4,93.41L105.98,94.21L107.25,94.78L108.37,95L109,94.54L110.03,94.88L109.55,96.16L110.39,97.09L111.28,97.55L110.51,98.78L109.96,98.37L109.04,98.88L108.54,98.71L107.54,99.53L107.58,99.94L106.96,100.3L106.72,101.13L105.98,101.74L105.22,101.97L104.2,102.83L103.17,102.08L103.27,101.39L102.83,100.46L101.98,100.27L101.01,99.57L100.03,97.93L99.02,97.19ZM118.51,40.66L116.62,42.36L116.38,43.03L115.62,43.29L115.02,42.75L115.49,42.46L115.58,41.23L116.36,39.99L115.6,39.37L116.13,39.27L116.37,38.59L117.28,37.97L118.21,37.73L117.88,39.02L117.93,39.71L118.36,39.91ZM38.15,80.48L37.94,80.83L38.38,82.3L38.25,83.02L38.91,83.97L39.39,83.39L40.37,83.9L40.7,84.43L39.58,86.49L39.21,86.86L37.98,87.29L38.1,86.37L36.94,85.59L36.35,85.71L35.36,84.85L34.93,85.38L33.76,85.23L33.82,83.76L33.37,83.24L32.88,83.7L32.06,82.85L32.7,81.7L32.58,81.06L33.16,80.66L33.05,79.38L30.77,78.02L30.36,76.96L30.63,74.84L31.07,73.82L32.11,73.72L33.48,74.19L34.03,75.08L33.93,75.65L34.7,76.17L35.72,78.59L36.26,79.03L36.93,80.05L37.71,80.12ZM117.79,89.7L116.77,88.18L117.1,87.74L116.86,87.31L115.39,86.75L114.57,85.76L113.96,85.69L114.08,85.01L114.17,84.64L115.25,83.41L115.46,82.05L116.19,82.01L116.99,80.03L117.78,80.8L118.86,80.64L119.25,80.82L120.02,80.53L120.84,81.13L121.74,81.05L122.43,80.28L122.79,80.72L123.91,80.77L124.57,80.11L125.29,78.6L125.61,77.23L126.5,77.5L126.82,78.64L128.21,80.36L128.16,80.95L128.84,80.81L129.63,81.45L129.39,81.86L127.72,82.14L127.1,82.07L126.87,82.53L127.44,83.68L126.12,85.17L126.24,86.82L125.64,88.28L125.71,90L125.41,90.48L124.52,90.91L123.84,90.93L123.02,90.43L122.14,89.29L121.48,88.8L121,87.61L120.34,87.06L119.04,87.43L118.77,88.31ZM97.91,65.38L99.13,64.42L99.42,63.79L99.03,63.25L98.27,62.9L98.13,61.99L98.39,61.05L98.18,59.77L98.38,59.06L98.94,59.25L99.2,58.81L100.46,59.77L101.15,59.77L102.17,60.34L103.23,60.64L103.44,61.05L103.19,62.66L104.14,63.18L104,63.68L103.29,64.31L101.95,64.79L101.3,65.11L100.04,66.57L99.22,66.05L98.12,65.99ZM84.29,83.95L84.96,83.04L85.37,83.78L86.86,83.99L87.39,83.4L88.06,83.25L88.41,83.89L88.12,84.81L88.13,85.85L87.65,86L87.83,86.7L86.66,88.1L85.98,89.56L86.02,90.07L84.94,92.34L84.51,94.19L85.07,94.89L86.21,94.41L85.62,95.37L85.45,96.42L85.94,96.96L85.68,97.55L85.05,97.92L84.37,97.78L82.43,98.9L81.62,98.4L81.32,97.81L81.88,96.91L80.82,95.49L81.74,93.13L80.51,91.76L80.85,91.65L81.16,90.5L82.19,89.45L82.81,87.64L83.59,86.11L84.11,84.51ZM114.08,85.01L112.42,84.17L112.47,83.49L112.16,82.51L112.75,81.37L112.06,80.93L111.12,79.64L110.54,79.68L110.76,78.5L110.55,77.92L110.41,76.35L111.33,76.1L112.23,75.44L112.66,75.62L114.56,74.91L115.55,73.85L116.04,72.68L116.87,72.3L117.04,72.09L118.3,72.22L120.08,72.85L120.58,73.8L123.81,74.68L123.94,75.06L124.59,75.02L125.27,75.39L125.06,75.87L125.61,76.35L125.61,77.23L125.29,78.6L124.57,80.11L123.91,80.77L122.79,80.72L122.43,80.28L121.74,81.05L120.84,81.13L120.02,80.53L119.25,80.82L118.86,80.64L117.78,80.8L116.99,80.03L116.19,82.01L115.46,82.05L115.25,83.41L114.17,84.64ZM21.16,72.96L21.39,73.89L20.83,75.23L19.52,76.72L18.69,75.78L19.29,75.26L19.21,74.81L18.39,74.58L18.55,74L17.56,73.35L17.51,72.82L16.9,73.17L16.48,74.09L15.53,74.77L14.65,75.79L14.36,75.65L13.07,76.41L12.43,77.03L11.78,76.58L10.78,76.6L10.76,76.2L9.75,76.09L9.49,76.36L9.03,75.62L8.7,75.92L7.84,75.28L6.66,75.6L5.72,76.83L4.58,77.39L4.25,76.99L3.51,77.81L2.4,77.3L2.01,76.81L1.38,77.27L1.12,78.26L0.69,77.98L0.58,77.28L0.21,77.35L0,76.49L0.62,75.53L0.95,74.36L0.74,73.05L1.43,71.27L2.79,70.03L3.96,69.76L4.22,69.31L4.2,68.14L3.62,67.89L3.01,67.05L2.77,65.96L3.26,65.15L3.76,64.89L4.58,65.05L5.09,64.84L5.42,64.04L4.95,62.3L5.48,59.97L4.27,59.44L3.24,58.19L2.82,57.39L3.61,55.61L4.03,55.28L4.78,53.89L4.86,52.64L5.97,51.45L6.66,50.04L7.34,49.54L7.22,50.12L7.56,51.14L8.17,51.95L8.46,52.74L9.66,53.48L10.36,53.4L9.93,55.79L11.26,56.9L11.11,57.4L11.41,58.55L11.81,59.2L12.99,59.6L13.39,59.42L14.01,59.92L13.95,60.6L14.8,61.3L14.95,61.99L15.9,61.68L16.82,62.1L17.38,60.71L19.03,60.29L19.46,59.66L21.49,60.57L21.59,60.92L21.28,62.52L21.44,63.32L22.19,64.46L23.49,65.85L22.61,67.12L22.8,67.75L23.36,68.21L22.6,69.62L21.87,69.9L20.79,70.96L20.72,71.38ZM23.85,90.92L23.39,89.96L24.45,89.59L24.74,88.88L24.33,88.37L24.71,87.97L23.98,87.85L23.64,88.38L22.53,88.71L21.5,87.62L20.82,87.57L19.48,86.8L18.82,84.46L18.56,84.24L19.03,83.42L20.96,83.86L21.67,83.41L22.21,84.13L23.42,84.51L23.56,84.97L24.32,85.07L24.73,86.65L25,86.71L25.74,85.77L26.7,85.58L26.59,87.19L27.01,88.22L27.71,89.02L28.42,89.37L28.08,90.63L27.65,90.82L27.43,91.55L26.09,92.21L25.97,92.81L25.6,92.73L24.56,90.96ZM69.65,94.42L70.57,93.93L71.21,93.52L71.6,93.82L70.81,95.36L71.4,95.78L71.21,96.55L71.92,97.5L72.88,98.29L73.17,98.81L73.34,100.14L74.31,100.38L73.71,101.15L73.86,101.51L73.18,102.07L73.05,102.68L73.59,103.75L73.51,104.37L75.2,105.16L74.72,105.74L73.7,106.05L73.29,106.43L72.22,105.86L71.9,105.32L71.1,104.72L71.32,104.23L70.84,103.5L71.93,102.95L71.96,102.63L71.01,101.81L70.48,100.69L71.11,100.11L70.39,99.47L70.65,98.87L69.02,98.07L69.23,96.64L69.89,95.36ZM57.54,86.01L57.93,87.29L57.74,87.59L58.43,88.3L59.15,89.63L58.7,90.31L59.85,90.79L58.69,91.96L57.66,92.57L56.78,92.59L56.45,92.95L56.47,94.49L56.86,94.93L55.51,95.88L54.32,95.18L53.87,95.34L53.56,94.73L52.26,94.21L52.52,93.88L52.38,92.96L51.71,93.6L50.15,93L50.25,92.1L49.68,91.91L48.88,92.35L49.82,91.54L50.68,91.26L51.92,89.88L51.57,89.46L52.33,88.57L53.07,88.75L53.65,88.08L54.1,88.03L55.19,87.08L55.83,86.92L56.69,86.18ZM73.17,98.81L75.43,97.37L76.55,95.76L77.07,94.73L76.88,93.99L77.49,93.1L79.06,92.53L79.63,91.9L80.51,91.76L81.74,93.13L80.82,95.49L81.88,96.91L81.32,97.81L81.62,98.4L80.81,99.2L79.95,98.75L77.7,100.57L75.93,102.25L74.23,102.13L74.55,101.91L73.86,101.51L73.71,101.15L74.31,100.38L73.34,100.14ZM41.31,80.67L41.63,79.74L42.59,79.55L43.02,78.73L43.92,78.02L44.87,78.14L44.8,79.25L45.22,79.34L46.09,78.65L47.74,76.32L49.82,76.37L50.32,75.8L50.88,76.17L51.52,77.07L52.63,77.57L53.11,78.64L53.75,79.48L53.67,80.01L52.89,81.25L52.21,83.52L51.93,83.89L49.82,83.67L49.3,83.24L48.43,82.99L46.95,83.67L46.19,83.24L45.56,83.27L44.03,81.9L44,81.06L44.3,80L42.82,79.74L42.38,80.5ZM60.94,85.41L61.21,85.5L61.17,86.37L61.65,86.69L61.86,87.63L60.88,89.01L59.52,89.31L59.15,89.63L58.43,88.3L57.74,87.59L57.93,87.29L57.54,86.01L57.72,85.33L57.45,83.98L58.52,83.77L58.6,84.83L59.29,85.55L60.08,85.19ZM65.39,91.55L64.6,92.45L64.14,93.45L62.96,94.71L61.99,94.06L60.59,94.96L59.6,95.03L58.94,95.77L58.04,95.72L56.89,96.21L55.51,95.88L56.86,94.93L56.47,94.49L56.45,92.95L56.78,92.59L57.66,92.57L58.69,91.96L59.85,90.79L58.7,90.31L59.15,89.63L59.52,89.31L60.88,89.01L61.86,87.63L62.29,88.19L62.25,88.91L63.64,89.95L64.03,89.92L64.11,90.92ZM86.12,100.79L86.83,101.46L86.81,102.1L87.73,103.47L88.47,103.68L88.58,104.35L87.79,106.01L86.49,108.18L85.3,108.83L84.48,108.44L84.8,107.54L84.47,106.98L82.93,106.26L82.7,105.6L82.93,104.65L84.43,103.6L84.75,103L84.93,101.43L85.24,101.03ZM62.54,64.05L62.01,64.84L61.09,65.66L60.77,65.63L59.15,66.77L58.36,66.5L57.14,66.68L56.85,66.31L56.95,64.82L57.45,63.5L58.32,63.17L58.64,62.59L59.7,62.15L60.11,61.52L60.72,62.6L61.37,62.75ZM79.06,122.97L79.71,122.37L80.77,121.92L81.31,120.95L82.66,119.79L84.08,118.91L85.06,118.07L85.33,117.57L85.64,117.91L86.79,117.86L86.7,118.38L86.76,119.04L86.3,119.8L86.25,120.67L85.72,121.58L85.8,122.66L86.13,123.88L85.06,125.15L84.65,126.65L84.2,127.57L84.61,127.97L85.13,129.21L85.9,130.32L85.84,131.05L85.03,131.71L84.55,131.29L84.15,132L84.5,132.35L83.47,134L83.47,134.67L82.84,135.47L82.34,135.47L81.91,134.93L80.51,135.78L79.86,135.41L78.06,134.89L77.29,134.44L77.69,133.3L79.29,131.72L78.66,131.1L78.51,130.52L77.67,129.28L75.99,129.23L75.62,128.7L76.2,128.27L77.11,128.03L77.45,126.77L76.77,125.78L76.21,125.39L77.71,124.76L78.54,124.24ZM110.83,45.43L110.18,44.89L109.7,43.9L109.4,42.22L108.4,42.13L108.18,41.56L108.3,40.63L109.4,40.04L110.45,38.72L111.23,38.33L112.28,38.15L111.85,40.39L112.31,41.43L113.18,41.72L114.71,42.92L115.02,42.75L115.62,43.29L116.02,44.18L114.72,44.54L114.39,44.41L113.91,45.51L112.71,45.3ZM46.44,87.98L46.96,85.73L47.55,85.86L48.36,86.7L49.61,86.47L49.98,86.7L50.34,85.99L50.49,86.65L50.03,87.96L50.13,88.83L50.89,88.97L51.57,89.46L51.92,89.88L50.68,91.26L49.82,91.54L48.88,92.35L48.65,91.34L47.54,91.51L46.8,90.81L46.33,89.12ZM32.06,82.85L31.83,83.63L30.64,85.01L30.57,85.3L28.81,85.05L28.23,85.68L26.85,85.68L26.5,84.49L26.6,83.73L26.3,83.27L25.78,83.4L26.11,82.55L25.96,82.06L26.22,80.7L26.14,79.2L26.69,78.75L27.01,77.83L27.89,77.35L28.76,77.54L29.11,77.2L30.36,76.96L30.77,78.02L33.05,79.38L33.16,80.66L32.58,81.06L32.7,81.7ZM64.24,59.92L64.6,60.68L64.41,61.66L63.31,62.9L62.54,64.05L61.37,62.75L60.72,62.6L60.11,61.52L60.5,60.99L60.39,60.04L61.06,59.49L61.01,58.84L61.94,58.38L63.31,59.07ZM76.5,118.87L76.81,120L77.14,120.25L77.15,121.07L76.74,121.98L77.09,122.4L77.8,122.06L79.06,122.97L78.54,124.24L77.71,124.76L76.21,125.39L76.77,125.78L77.45,126.77L77.11,128.03L76.2,128.27L75.62,128.7L75.99,129.23L77.67,129.28L78.51,130.52L78.66,131.1L79.29,131.72L77.69,133.3L77.29,134.44L76.47,134.55L75.89,133.71L76.22,132.61L76.67,132.08L76.49,131.64L75.78,131.45L75.16,131.64L74.05,131.24L73.3,132.22L72.3,131.89L71.89,131.47L72.09,131.03L71.68,129.65L71.3,129.19L70.24,128.55L70.79,127.65L70.3,126.86L70.69,125.89L72.48,123.86L72.46,122.6L73.43,121.25L74.35,121.13L75.94,119.71ZM87.73,66.11L88.3,66.89L88.08,67.12L88.65,67.69L89.85,68.07L91.63,67.96L92.16,68.17L91.99,68.84L91.06,69.24L90.99,69.88L89.61,71.69L89.85,72.21L91.06,73.35L91.33,74.46L90.75,74.39L89.26,74.78L89.44,75.43L89.05,75.53L88.74,74.53L88.34,73.12L87.78,73.51L87.54,72.72L87.87,71.09L87.45,69.77L86.91,68.8L87.18,68.09L86.46,67.17L86.44,66.28L85.74,65.55L86.19,64.46L86.14,63.96L86.67,63.01L86.83,64.32L87.18,64.6L87.37,65.72ZM57.43,75.34L58.23,76.12L57.48,76.27L57.6,77.73L57.99,78L57.9,78.79L58.37,79.59L57.87,80.57L57.67,81.46L56.33,81.16L55.39,80.76L55.32,80.45L53.67,80.01L53.75,79.48L54.44,78.85L54.93,77.61L55.1,75.95L56.85,75.04ZM107.67,54.51L106.96,56.14L106.55,57.92L106.69,59.68L106.28,59.74L105.36,60.47L104.31,60.02L104.12,58.98L103.59,58.71L102.86,58.92L101.74,58.92L100.92,58.42L99.2,58.81L98.94,59.25L98.38,59.06L98.48,58.56L97.5,58.04L97.57,57.7L96.94,57.17L97.37,56.62L97.42,55.99L97.58,55.71L98.44,55.62L99.22,54.69L99.86,54.53L100.99,54.94L100.6,55.33L100.63,56.12L101.06,55.9L103.57,55.7L104.57,55.2L104.89,54.59L105.72,54.36L106.32,54.56ZM104.14,63.18L103.19,62.66L103.44,61.05L103.23,60.64L102.17,60.34L101.15,59.77L100.46,59.77L99.2,58.81L100.92,58.42L101.74,58.92L102.86,58.92L103.59,58.71L104.12,58.98L104.31,60.02L105.36,60.47L106.28,59.74L106.69,59.68L106.5,60.8L106.36,61.11L105.38,61.52L105.25,61.97ZM73.22,89.51L74.89,88.68L75.71,88.99L76.23,87.93L78.92,89.42L81.16,90.5L80.85,91.65L80.51,91.76L79.63,91.9L79.06,92.53L77.49,93.1L76.88,93.99L75.94,93.14L74.42,92.84L73.69,91.67L73.16,91.58L73.07,90.95L73.55,90.47ZM106.62,43.98L106.51,45L106.79,46.57L107.18,47.45L107.08,48.65L107.35,49.25L106.39,50.19L106.25,49.52L105.61,50.28L104.91,50.4L104.61,49.58L103.93,48.94L102.47,48.38L101.8,49.48L101.32,49.16L101.18,47.23L101.59,46.87L101.67,45.59L102.57,45.1L102.87,44.31L103.53,43.68L105.17,43.58L105.62,43.99ZM112.6,60.42L113.23,61.38L112.78,62.4L113.39,63.64L114.29,63.87L114.93,64.35L115.75,65.52L116.61,66.17L117.47,66.38L117.62,67.09L118.23,67.44L118.9,68.28L119.33,69.26L117.45,70.63L116.9,71.63L116.87,72.3L116.04,72.68L115.55,73.85L114.56,74.91L112.66,75.62L112.23,75.44L111.33,76.1L110.41,76.35L108.16,76.04L108.29,73.91L107.86,73.26L108.11,72.19L107.95,71.63L108.68,69.23L108.13,68.93L106.85,69.11L106.84,68.46L107.22,67.97L107.44,66.07L107.78,65.16L106.5,63.94L107.35,62.28L106.86,60.94L106.5,60.8L106.69,59.68L106.55,57.92L108.08,58.25L108.6,58.68L110.02,58.37L110.59,57.91L111.36,57.8L111.63,59.42L112.1,59.63ZM101.95,64.79L103.29,64.31L104,63.68L104.14,63.18L105.25,61.97L105.38,61.52L106.36,61.11L106.5,60.8L106.86,60.94L107.35,62.28L106.5,63.94L107.78,65.16L107.44,66.07L107.22,67.97L106.84,68.46L106.85,69.11L106.53,69.88L106.72,70.39L105.6,71.19L104.5,71.02L103.7,69.96L103.65,69.2L102.83,67.88L103.53,67.45L103.1,66.87L102.46,66.75ZM100.48,83.16L99.59,83.9L98.42,86.19L96.48,85.5L94.54,85.12L93.82,84.72L92.41,84.4L92.17,83.89L91.48,84.02L90.35,83.18L90.26,82.85L89.85,82.03L91.12,79.37L91.26,77.68L92.3,76.98L93,77.07L94.47,76.74L94.58,76.54L95.16,77.9L94.83,78.79L95.15,78.99L94.93,79.81L95.11,80.65L96.14,81.41L97.16,82.59L97.65,82.58L97.99,83.17L99.39,82.31ZM68.33,116.59L67.59,118.46L67.01,119.48L65.89,120.37L65.08,121.77L65.02,122.38L64.42,122.27L64.41,120.92L63.55,120.41L63.82,119.76L63.3,119.05L63.61,118.35L64.61,117.72L65.74,116.92L67.1,117.06L67.71,116.62ZM66.47,87.23L65.91,87.56L65.57,87.32L64.92,87.76L63.89,87.84L63.43,88.16L62.29,88.19L61.86,87.63L62.74,86.39L63.26,86.02L64.33,85.81L64.81,85.11L66.03,84.43L66.51,84.56L67.35,86.17ZM74.32,79.95L73.88,79.66L72.69,80.26L72.39,79.43L71.92,79.2L71.18,78.07L70.49,76.6L69.49,76.82L69.24,76.01L68.71,75.45L69.26,74.9L69.57,73.13L69.98,72.56L69.73,72.05L69.68,70.94L70.96,72.08L71.74,71.81L72.94,72.12L73.28,71.63L74.06,72.01L74.25,72.94L75.25,73.95L76.18,73.48L77.38,73.41L78.56,72.12L79.57,72.25L79.88,72.03L81.43,71.89L81.03,73.68L79.52,75.31L79.03,76.61L79.38,77.75L80.12,78.21L80.06,78.68L79.01,78.86L78.74,79.27L77.63,78.13L76.71,78.56L76.06,79.39L74.97,79.89ZM69.16,92.18L69.84,91.21L69.35,90.9L70.27,89.38L71.15,89.42L71.37,88.49L71.98,88.5L72.65,89.46L73.22,89.51L73.55,90.47L73.07,90.95L73.16,91.58L71.88,92.62L71.65,93.47L71.6,93.82L71.21,93.52L70.57,93.93L70.15,93.54L70.41,92.57L69.71,92.09ZM107.35,49.25L107.27,50.74L107.65,52.41L107.79,53.23L107.67,54.51L106.32,54.56L105.72,54.36L104.89,54.59L104.57,55.2L103.57,55.7L101.06,55.9L100.63,56.12L100.6,55.33L100.99,54.94L99.86,54.53L99.22,54.69L98.44,55.62L97.58,55.71L97.88,54.49L98.34,53.9L98.72,52.65L99.28,52.46L100.26,52.91L100.68,52.39L101.32,52.47L101.82,51.98L101.6,50.67L101.91,50.31L101.8,49.48L102.47,48.38L103.93,48.94L104.61,49.58L104.91,50.4L105.61,50.28L106.25,49.52L106.39,50.19ZM57.67,81.46L57.03,82.93L57.16,83.83L57.45,83.98L57.72,85.33L57.54,86.01L56.69,86.18L55.83,86.92L55.19,87.08L54.95,86.29L55.16,85.3L54.77,84.71L54.18,84.54L53.61,84.97L52.77,84.87L52.21,83.52L52.89,81.25L53.67,80.01L55.32,80.45L55.39,80.76L56.33,81.16ZM67.43,114.88L67.39,115.59L67.71,116.62L67.1,117.06L65.74,116.92L64.61,117.72L63.76,117.09L63.56,116.23L62.69,115.53L63.2,114.69L64.16,114.8L64.54,115.31L65.64,115.41L66.09,114.44L66.8,114.95ZM97.52,70.6L98.08,69.88L98.83,69.52L99.14,68.42L98.85,67.9L99.3,67.82L100.04,66.57L101.3,65.11L101.95,64.79L102.46,66.75L103.1,66.87L103.53,67.45L102.83,67.88L103.65,69.2L103.7,69.96L104.5,71.02L105.6,71.19L106.72,70.39L106.53,69.88L106.85,69.11L108.13,68.93L108.68,69.23L107.95,71.63L108.11,72.19L107.86,73.26L107.46,73.92L105.83,74.33L104.85,73.89L104.94,73.11L104.15,72.9L103.38,73.31L101.88,73.77L100.19,72.26L99.68,72.42L99.03,71.93L98.39,71.63ZM67.96,112.92L67.43,114.88L66.8,114.95L66.09,114.44L65.64,115.41L64.54,115.31L64.16,114.8L63.2,114.69L62.88,114.15L64.27,113.63L65.42,112.45L66.06,110.94L66.15,111.43L67.21,112.01ZM70.84,103.5L70.44,102.61L69.9,102.39L69.35,102.64L69,103.28L68.26,103.46L67.03,104.51L66.77,103.88L64.48,104.3L64.56,102.59L65.54,101.44L64.35,101.27L64.54,100.03L65.52,99.3L66.11,98.51L66.12,97.65L66.7,97.66L67.02,98.33L68.08,98.44L68.28,99.25L69.39,99.71L69.93,100.53L70.48,100.69L71.01,101.81L71.96,102.63L71.93,102.95ZM85.63,76.2L86.1,76.36L86.82,75.94L87.46,75.07L87.62,74.33L88.74,74.53L89.05,75.53L89.78,76.5L89.84,77.14L90.73,77.76L91.26,77.68L91.12,79.37L90.19,79.67L89.78,79.04L87.84,79.09L87.04,78.84L86.28,79.69L85.97,80.37L85.17,80.83L84.75,78.78L84.81,77.47ZM50.34,85.99L51.93,83.89L52.21,83.52L52.77,84.87L53.61,84.97L54.18,84.54L54.77,84.71L55.16,85.3L54.95,86.29L55.19,87.08L54.1,88.03L53.65,88.08L53.07,88.75L52.33,88.57L51.57,89.46L50.89,88.97L50.13,88.83L50.03,87.96L50.49,86.65ZM106.33,40.49L106.05,40.99L106.46,42.11L106.62,43.98L105.62,43.99L105.17,43.58L103.53,43.68L102.87,44.31L102.49,43.58L102.38,41.08L102.22,40.65L103.35,40.54L104.42,39.08L105.32,38.38ZM76.23,87.93L76.07,87.4L75.13,87.09L75.94,85.69L76.7,84.77L77.02,84.06L78.18,83.09L78.28,82.71L79.54,84.19L80.48,84.1L81.42,83.67L82.14,84.11L82.66,83.97L84.11,84.51L83.59,86.11L82.81,87.64L82.19,89.45L81.16,90.5L78.92,89.42ZM62.01,64.84L62.94,65.2L63.61,65.73L64.27,66.92L63.87,67.74L65.31,69.56L64.74,69.37L64.1,70.01L64.51,70.55L64.39,71.25L63.72,72.23L62.23,70.98L61.59,70.77L61.14,69.78L60.64,69.89L59.52,68.71L60.29,68.2L60.31,67.29L59.15,66.77L60.77,65.63L61.09,65.66ZM94.95,76.38L96.02,76.19L96.97,75.48L97.23,74.93L98.62,75.52L99.13,76.28L97.88,77.38L97.59,78.18L96.4,78.07L96.14,77.37L95.16,77.9L94.58,76.54ZM92.26,87.22L92.53,87.94L92.37,88.8L90.7,90.85L90.05,92.25L89.07,92.58L88.75,93.03L89.03,93.9L88.54,95.11L88.24,95.3L87.46,96.95L86.04,98.25L85.68,97.55L85.94,96.96L85.45,96.42L85.62,95.37L86.21,94.41L85.07,94.89L84.51,94.19L84.94,92.34L86.02,90.07L85.98,89.56L86.66,88.1L87.83,86.7L87.65,86L88.13,85.85L88.99,86.65L91.02,87.9ZM40.59,78.14L40.14,78.54L39.86,79.46L39.19,79.5L38.43,80.74L38.15,80.48L37.71,80.12L36.93,80.05L36.26,79.03L37.29,78.03L38.19,78.22L39.23,77.84L39.74,78.18ZM62.98,97.72L62.77,98.53L63.24,98.95L63.46,100.53L62.82,101.77L62.97,102.02L62.25,103.41L61,104.79L61.01,105.04L60.32,104.41L60.37,103.65L60.11,102.63L59.25,101.48L58.99,100.92L59.18,99.72L59.69,99.27L60.62,99.02L61.12,99.35L61.56,98.64L62.59,97.79ZM77.02,84.06L76.03,84.05L75.33,84L74.69,83.32L74.74,82.45L74.14,82.03L74.48,80.95L73.96,80.89L74.32,79.95L74.97,79.89L76.06,79.39L76.71,78.56L77.63,78.13L78.74,79.27L79.01,78.86L80.06,78.68L79.92,79.09L81.53,80.26L82.46,81.4L82.89,82.32L82.84,82.56L83.83,83.3L84.29,83.95L84.11,84.51L82.66,83.97L82.14,84.11L81.42,83.67L80.48,84.1L79.54,84.19L78.28,82.71L78.18,83.09ZM98.27,62.9L98.07,63.24L96.43,63.76L95.71,63.49L95.2,62.9L95.17,62.05L93.91,61.36L92.79,60.1L92.39,58.9L92.78,58.41L93.62,58.14L93.89,57.53L95.05,57.49L95.15,56.54L96.63,56.47L97.42,55.99L97.37,56.62L96.94,57.17L97.57,57.7L97.5,58.04L98.48,58.56L98.38,59.06L98.18,59.77L98.39,61.05L98.13,61.99ZM67.03,104.51L66.89,105.13L67.51,105.89L66.74,106.87L65.75,107.76L65.15,108.95L63.01,109.55L62.77,109.23L61.53,109.35L61.15,108.76L61.36,107.57L60.64,107.2L60.55,105.69L61.01,105.04L61,104.79L62.25,103.41L62.97,102.02L63.66,101.93L64.35,101.27L65.54,101.44L64.56,102.59L64.48,104.3L66.77,103.88ZM64.6,92.45L65.46,93.42L66.27,93.55L64.93,95.32L64.88,96.24L64.46,96.93L62.98,97.72L62.59,97.79L61.56,98.64L61.12,99.35L60.62,99.02L59.69,99.27L59.18,99.72L58.99,100.92L59.25,101.48L58.93,101.63L58.23,101.21L57.7,101.38L56.53,100.45L56.99,99.11L56.56,97.28L57.02,96.67L56.89,96.21L58.04,95.72L58.94,95.77L59.6,95.03L60.59,94.96L61.99,94.06L62.96,94.71L64.14,93.45ZM76.55,95.76L74.69,95.77L73.66,95.23L72.56,95.13L71.42,94.73L72.08,93.96L71.65,93.47L71.88,92.62L73.16,91.58L73.69,91.67L74.42,92.84L75.94,93.14L76.88,93.99L77.07,94.73ZM86.04,98.25L85.86,98.59L86.17,100.09L86.12,100.79L85.24,101.03L84.93,101.43L83.3,102.26L82.14,103.03L81.6,103.91L80.46,105.24L79.77,104.72L78.16,104.65L76.9,105.09L76.77,106.2L75.48,107.38L74.65,107.59L72.64,106.87L73.29,106.43L73.7,106.05L74.72,105.74L75.2,105.16L73.51,104.37L73.59,103.75L73.05,102.68L73.18,102.07L73.86,101.51L74.55,101.91L74.23,102.13L75.93,102.25L77.7,100.57L79.95,98.75L80.81,99.2L81.62,98.4L82.43,98.9L84.37,97.78L85.05,97.92L85.68,97.55Z" fill="#B3CFC0" stroke="#007139" stroke-width="0.5"/></svg>