<svg xmlns="http://www.w3.org/2000/svg" width="144" height="144" viewBox="0 0 144 144"><path d="M84.7,44.2L85.35,45.14L86.03,45.31L85.88,46.86L85.29,47.75L85.51,49.56L86.01,49.83L86.54,51.12L85.43,51.95L84.97,52.01L85.18,53.75L86.22,53.88L87.38,54.34L88.63,54.25L89.39,54.59L89.42,56.25L89.23,56.56L89.96,56.95L91.07,56.39L90.83,57.28L90.11,57.94L89.86,59.2L89.11,59.93L88.87,58.6L87.49,58.47L87.36,59.8L87.03,60.31L87.34,61.17L84.67,60.89L84.03,60.53L83.86,59.9L82.97,59.59L82.3,58.81L81.55,58.92L80.91,58.47L80.36,58.71L78.55,59.1L78.01,59.94L75.81,60.36L74.4,57.17L74.06,57.33L72.55,57.2L71.41,57.63L70.66,57.23L69.83,57.39L68.11,59.54L66.97,59.31L65.35,60.46L64.44,60.31L63.98,60.6L62.65,60.36L61.77,60.96L60.98,60.86L59.76,61.04L58.94,62.38L58.55,62.53L58.42,62.17L59.72,59.16L60.2,58.72L60.64,57.76L61.41,57.52L61.95,56.97L63.21,56.79L64.02,56.08L64.74,56.07L65.11,55.58L65.94,55.27L66.92,54L67.08,52.82L67.53,52.75L67.35,51.45L66.25,50.84L65.1,48.96L65.2,47.75L64.9,46.81L63.74,46.5L62.42,46.85L61.55,46.35L61.4,45.79L60.67,45L60.87,44.15L60.62,43.37L61.35,43L61.54,42.41L62.17,42.18L63.48,42.13L64.35,41.67L64.67,40.99L64.29,39.75L64.32,38.85L64.65,38.13L65.53,36.98L66.39,36.38L66.56,37.07L67.55,37.82L68.73,38.24L69.89,38.9L71.47,40.13L72.43,41.52L72.34,42.96L72.06,43.91L73.79,44.79L74.51,44.47L75.78,44.82L76.37,46.18L77.17,46.3L78.25,45.7L80.02,46.03L80.25,45.68L81.52,45.72L81.55,45.37L82.35,44.56L84.3,44.54ZM100.15,112.28L99.93,113.16L99.29,113.56L98.96,114.71L98.12,115.48L97.98,116.28L96.41,117.22L96.4,117.54L94.49,119.35L93.9,119.36L91.46,120.14L90.23,119.66L89.32,120.14L88.43,119.61L86.98,119.56L86.36,119.27L84.92,119.07L84.89,118.74L85.64,118.03L85.83,116.94L85.55,115.73L85.85,115.24L85.72,114.2L87.16,113.74L87.41,113.11L86.61,112.49L86.57,111.92L87.06,111.29L87.91,109.94L88.77,109.49L88.7,108.86L89.48,108.54L89.24,108.15L89.51,107.38L88.84,107.04L89.32,106.3L89.56,106.76L90.59,106.94L90.98,107.74L91.88,108.34L92.79,108.22L93.01,107.37L94.81,107.62L96.11,106.65L97.33,106.35L98.14,106.49L99.18,107.64L97.94,109.3L97.78,109.73L99.12,110.89L99.62,112.07ZM86.54,51.12L86.01,49.83L85.51,49.56L85.29,47.75L85.88,46.86L86.03,45.31L85.35,45.14L84.7,44.2L85.16,43.48L85.97,43.08L85.72,42.61L85.91,41.9L86.86,40.96L86.78,40.32L87.26,40.4L87.53,39.84L86.49,39.99L86.11,39.55L86.55,39.22L86.18,38.64L87.99,37.59L88.06,37.08L88.22,36.8L90.21,36.22L91.51,36.83L91.71,37.92L92.29,38.1L92.41,38.69L93.44,39.94L94.41,40.29L95.38,40.13L95.6,40.59L97.13,40.82L95.79,42.38L94.76,44.36L93.8,44.9L92.87,46.16L92.6,46.05L91.01,47.64L90.8,48.41L89.81,49.41L88.62,49.82L87.53,51.03ZM99.87,35.62L98.58,34.79L98.03,34.93L96.98,35.68L95.62,35L95.84,34.4L96.79,34.01L96.29,33.15L96.6,32.05L96.12,31.4L96.49,31.14L96.68,29.41L98.81,28.24L97.75,28.05L97.72,27.67L98.48,27.47L99.26,26.89L100.47,26.39L100.1,25.42L100.36,24.69L100.23,23.83L99.25,24.21L99.06,22.93L99.61,22.65L101.54,22.84L101.83,22.34L102.87,22.07L103.46,22.39L103.79,21.58L104.7,22.6L104.78,23.06L104.33,24.52L104.81,24.99L104.49,25.59L103.44,25.47L103.61,26.65L102.59,28L102.79,28.43L103.78,28.78L104.14,31.1L102.64,32L102.15,33.35L101.12,33.61L99.95,34.31L99.68,34.89ZM84.7,44.2L84.3,44.54L82.35,44.56L81.55,45.37L81.52,45.72L80.25,45.68L80.02,46.03L78.25,45.7L77.17,46.3L76.37,46.18L75.78,44.82L74.51,44.47L73.79,44.79L72.06,43.91L72.34,42.96L72.43,41.52L71.47,40.13L69.89,38.9L68.73,38.24L67.55,37.82L66.56,37.07L66.39,36.38L66.55,35.93L67.71,35.94L68.24,36.34L70.05,36.31L71.24,35.8L72.29,35.85L72.85,35.47L73.51,35.57L74.11,36.06L75.95,35.54L78.04,35.72L78.92,36.67L79.41,36.79L79.7,37.57L80.34,38.07L81.63,38.6L82.01,38.33L83.81,39L84.26,38.74L84.75,37.34L86.1,36.64L86.66,36.69L87.03,36.24L87.78,36.49L88.06,37.08L87.99,37.59L86.18,38.64L86.55,39.22L86.11,39.55L86.49,39.99L87.53,39.84L87.26,40.4L86.78,40.32L86.86,40.96L85.91,41.9L85.72,42.61L85.97,43.08L85.16,43.48ZM103.79,21.58L103.46,22.39L102.87,22.07L101.83,22.34L101.54,22.84L99.61,22.65L99.06,22.93L99.25,24.21L100.23,23.83L100.36,24.69L100.1,25.42L97.03,25.12L96.86,25.39L95.1,22.92L94.57,21.53L93.93,20.9L92.25,21.19L90.59,20.68L90.19,20.22L89.14,19.97L88.38,18.96L88.12,18.97L88.55,18.22L88.76,18.36L89.75,17.76L89.98,17.35L90.71,18L93.16,17.16L93.44,17.35L94.47,16.58L95.04,17.09L95.44,16.48L95.42,15.45L95.02,14.91L95.63,14.49L95.38,12.81L94.79,13.06L94.65,12.26L94.85,11.5L94.65,10.85L94.91,10.36L95.85,10.1L97.81,11.7L98.1,12.76L99.89,13.25L100.75,13.27L102.57,12.28L102.35,14.23L102.45,15.13L103.02,16.4L103.64,15.92L104.56,15.66L104.92,14.73L105.15,15.31L104.9,16.6L104.13,18.26L104.72,18.9L105.42,19.05L106.31,19.75L105.8,20.38L104.89,20.06L104.09,20.73ZM75.14,101.12L74.47,101.73L74.63,102.35L74.38,103.23L73.45,102.54L73.14,102.92L72.39,102.82L71.9,104.13L72.26,104.74L73.9,106.39L74.01,107.46L73.35,107.86L73.54,108.25L72.66,108.7L71.31,109.94L71.62,110.52L72.09,110.48L72.37,111.44L72.86,111.78L72.83,112.98L73.32,113.96L70.98,112.69L70.92,112.19L70.21,111.84L69.89,112.69L69.4,112.94L69.01,112.59L67.39,112.65L67.04,114.35L65.81,114.24L64.83,114.58L64.06,115.69L63.22,116.13L62.95,115.45L61.86,115.59L60.96,115.19L60.5,116.1L60.54,116.91L59.92,117.5L59.05,117.1L58.1,117.71L58.44,118.67L57.94,119.59L57.22,120.2L56.77,121.33L55.7,122.21L55.17,123.4L54.12,124.21L53.41,123.44L53.67,121.97L53.42,120.77L53.1,120.73L53.21,118.87L52.12,119.26L50.92,119.31L50.3,120.03L49.67,119.8L48.59,119.99L48.09,119.57L47.8,117.88L45.67,117.47L46.25,116.98L45.99,116.67L46.55,115.93L46.97,114.29L47.38,113.97L48.13,111.66L48.64,111.17L48.83,110.35L49.52,109.8L49.48,109.27L50.14,108.93L51.7,109.59L51.99,109.39L53.73,109.84L55.08,109.78L55.07,109.17L57.14,109.19L58.55,108.48L59.98,108.33L60.55,107.94L61.35,107.91L62.29,108.49L62.43,107.94L63.79,106.37L64.1,105.23L64.59,104.89L64.38,103.54L65.92,101.45L67.61,100.5L67.75,99.04L68.24,98.86L68.03,98.27L68.37,97.51L69.15,97.64L70.08,97.4L69.75,98.38L70.04,99.34L70.87,100.48L71.95,100.56L72.19,101.07L73.18,101.07L73.61,101.61L74.28,101.36L74.73,100.7ZM60.62,43.37L60.87,44.15L60.67,45L61.4,45.79L61.55,46.35L62.42,46.85L63.74,46.5L64.9,46.81L65.2,47.75L65.1,48.96L66.25,50.84L67.35,51.45L67.53,52.75L67.08,52.82L66.92,54L65.94,55.27L65.11,55.58L64.74,56.07L64.02,56.08L63.21,56.79L61.95,56.97L61.41,57.52L60.64,57.76L60.2,58.72L59.72,59.16L58.42,62.17L58.55,62.53L56.66,63.64L55.6,63.56L55.15,63.15L54.01,61.18L53.6,60.63L54.26,58.86L53.83,57.97L54.25,57.12L54.41,55.42L54.85,54.88L55.07,53.53L54.85,52.41L55.14,52.1L55.16,51.01L56.16,49.9L56.63,49.77L57.62,48.51L58.27,48.32L58.1,47.27L58.42,46.59L58.29,45.87L58.83,44.92L60.29,44.09ZM107.57,72L107.09,72.48L106.42,72.57L105.8,73.25L104.58,73.88L104.08,74.9L101.94,76.8L100.88,76.08L100.89,74.33L101.15,73.19L100.94,72.28L101.68,69.56L101.69,68.6L101.39,67.29L102.14,65.87L102.75,64.16L104.04,63.04L104.02,63.71L104.1,64.51L103.72,64.8L104.38,66.19L105.04,66.58L105.74,66.5L106.01,67.45L106.79,67.36L108.33,68.66L107.75,69.23L107.92,69.59L107.32,70.38L107.13,71.64ZM86.47,11.58L86.44,12.77L85.87,13.15L85.25,14.26L86.19,14.79L86.39,15.58L85.18,16.89L84.57,15.97L83.69,16.01L82.96,15.02L82.45,14.77L81.75,15.73L80.77,15.68L80.67,16.89L80.35,17.74L79.59,18.03L79.23,18.84L78.58,18.83L75.9,20.38L74.83,20.34L73.88,21.7L72.86,22.66L72.54,22.65L70.66,24.29L70.31,25.05L69.41,24.66L68.98,22.59L68.69,22.38L70.01,20.66L71.16,20.17L72.25,20L74.21,18.92L76.2,18.9L77.12,18L77.38,17.44L78.9,16.02L78.96,15.58L80.48,14.87L80.68,13.59L81.5,13.25L81.9,13.35L82.83,11.86L84.52,11.46L85.48,11.86ZM70.08,97.4L69.15,97.64L68.37,97.51L68.03,98.27L68.24,98.86L67.75,99.04L67.61,100.5L65.92,101.45L64.38,103.54L64.59,104.89L64.1,105.23L63.79,106.37L62.43,107.94L62.29,108.49L61.35,107.91L60.55,107.94L59.98,108.33L58.55,108.48L57.14,109.19L55.07,109.17L55,107.79L54.76,106.93L55.06,106.17L54.72,104.07L54.85,103.24L54.47,102.98L54.55,102.3L54.09,102.77L52.98,102.87L52.32,102.19L51.73,100.45L50.94,99.85L50.4,100.06L49.06,98.58L48.06,98.08L46.42,98.65L45.22,98.35L44.72,97.34L44.81,96.78L44.03,96.06L43.08,96.65L42.4,96.13L42.2,95.42L41.07,94.55L40.69,93.86L40.72,91.74L40.37,90.93L39.15,90.9L38.06,92.12L37.27,92.18L36.56,92.75L35.24,92.42L35.29,91.81L36.05,89.59L37.89,87.96L38.52,86.51L38.99,86.19L38.54,85.71L38.77,84.5L40.12,82.94L40.87,83.21L41.68,81.7L41.78,80.38L42.61,79.32L42.29,78.26L42.39,77.32L43.66,77.17L43.9,76.4L44.36,76.18L45.31,75.08L46.12,76.15L45.85,76.81L46.95,78.72L48.33,79.24L48.73,79.85L49.58,79.66L50.93,80.55L50.55,81.63L51.25,81.84L51.99,81.56L53.34,81.91L53.77,83.61L54.84,83.9L55.04,84.97L55.82,85.96L56.86,85.82L58.15,86.58L59.4,86.95L61,86.68L62.11,87.57L62.68,86.64L62.73,85.99L63.24,85.07L63.78,85.13L64.18,85.68L65.49,86.06L66.05,86.51L66.95,87.8L67.66,87.68L68.85,89.26L69.6,89.17L70.01,88.66L70.48,89.29L71.07,89.28L70.87,91.89L71.4,92.02L72.46,91.53L73.28,91.6L72.89,92.05L73.05,92.55L72.5,93.41L71.88,95.89L71.33,95.6L71.17,96.7L70.71,97.24ZM87.34,61.17L87.03,60.31L87.36,59.8L87.49,58.47L88.87,58.6L89.11,59.93L89.86,59.2L90.11,57.94L90.83,57.28L91.07,56.39L91.37,55.96L92.03,56.19L92.65,55.26L93.13,56.46L93.58,55.8L94.33,54.07L94.35,53.35L94.95,51.65L94.89,51.13L95.36,50.43L94.77,49.29L93.66,49.95L93.79,49.44L95.24,48.6L96.23,48.33L96.75,47.89L97.41,48.03L98.04,47.33L97.94,48.16L98.91,47.41L98.9,48.33L100.46,48.55L101.11,48.2L100.75,49.13L100.54,50.61L99.78,51.42L98.86,51.53L98.99,52.71L98.5,55.11L97.61,56.06L97.75,56.5L97.47,57.97L96.99,58.08L95.95,58.93L96.47,59.68L95.48,60.62L95.17,60.63L94.91,62.46L94.5,62.91L94.09,63.05L93.62,64.4L92.83,65.06L91.69,65.34L91.33,64.94L90.59,65.19L90.1,63.56L89.19,63.02L88.98,62.14L88.57,62.34L87.71,61.18ZM75.14,101.12L74.73,100.7L74.28,101.36L73.61,101.61L73.18,101.07L72.19,101.07L71.95,100.56L70.87,100.48L70.04,99.34L69.75,98.38L70.08,97.4L70.71,97.24L71.17,96.7L71.33,95.6L71.88,95.89L72.5,93.41L73.05,92.55L73.78,91.62L74.78,91.38L74.42,90.85L75.31,90.62L75.9,91.45L76.39,91.19L76.59,90.54L77.57,89.14L77.79,88.2L77.67,86.95L78.65,85.91L79.04,85.92L79.46,84.85L81.46,84.21L81.86,84.41L82.4,83.64L82.46,83.04L83.02,82.95L83.03,84.28L83.33,84.24L85.36,85.52L84.37,86.58L84.94,86.68L86,87.51L87.01,87.8L87.11,88.21L87.07,88.47L88.45,89.76L88.71,90.45L90.25,92.48L90.54,92.59L90.62,93.27L91.22,93.88L90.36,94.04L90.06,94.9L88.69,95.4L88.18,96.05L87.16,96.18L86.96,97.15L86.5,97.84L85.01,97.58L84.74,97.02L84.29,97.58L83.59,97.26L83.35,96.09L82.06,95.5L81.18,95.59L80.92,96.11L80.82,97.27L80.42,97.11L79.54,97.96L78.73,99.39L77.89,99.97L77.01,99.15L75.81,99.28L75.44,100.46L76,100.9L75.58,101.4ZM101.94,76.8L104.08,74.9L104.58,73.88L105.8,73.25L106.42,72.57L107.09,72.48L107.57,72L108.53,71.61L110.64,69.98L110.95,70.49L111.1,71.7L112.03,72.04L112.6,72.63L113.75,72.72L114.82,73.61L114.74,74.37L115.54,75.49L115.95,76.44L115.68,78.36L115.92,79L116.55,79.06L116.1,79.19L115.2,78.94L113,78.69L111.85,77.87L110.95,78.91L110.42,79.12L108.52,80.61L108.9,80.83L109.38,82.38L109.07,82.51L108.89,83.5L107.71,84.7L106.83,84.81L106.53,85.26L106.88,85.98L106.66,86.37L107.08,86.87L106.83,88.15L107.19,88.78L106.25,89.22L105.63,89.07L105.31,87.69L104.79,86.85L103.65,86.16L103.18,85.52L103.38,84.66L102.91,83.88L102.48,83.81L102.64,83.15L101.92,83.51L101.23,84.99L100.9,85.18L100.42,84.64L99.86,84.88L99.86,84.3L99.35,83.77L100.22,81.91L100.49,80.54L100.38,79.08L101.09,78.3ZM100.15,112.28L99.62,112.07L99.12,110.89L97.78,109.73L97.94,109.3L99.18,107.64L98.14,106.49L97.33,106.35L96.11,106.65L94.81,107.62L93.01,107.37L92.79,108.22L91.88,108.34L90.98,107.74L90.59,106.94L89.56,106.76L89.32,106.3L89.36,105L90.77,103.34L91.4,102.9L92.12,102.8L92.54,102.17L92.48,101.47L93.17,100.09L93.88,99.24L93.59,98.24L94.25,97.33L94.87,97.24L95.37,97.98L96.49,97.52L97.26,98.03L97.64,97.58L98.79,97.84L100.29,97.47L100.74,96.97L101.95,96.88L102.38,96.1L102.84,96.04L103.14,94.67L103.74,94.4L103.98,93.71L104.74,93.68L105.65,91.79L106.67,90.86L106.06,91.95L106.36,93.48L106.86,95.08L108.28,95.47L109.9,94.42L111.5,93.07L112.38,91.39L113.56,89.69L114.88,88.43L115.38,87.22L116.09,86.75L116.55,87L116.3,88.38L115.66,89.23L115.04,91.28L113.33,92.97L112.66,93.95L112.25,94.06L110.9,95.37L109.76,96.26L109.13,96.35L108.06,97.25L106.82,98.72L106.6,100.24L105.65,100.26L104.38,101.76L105.1,103.38L104.41,104.91L103.64,105.39L103.28,105.14L102.28,105.61L101.8,107.46L101.92,108.26L103.06,109.98L102.87,110.52L102.17,110.82L101.73,111.39ZM89.19,63.02L90.1,63.56L90.59,65.19L91.33,64.94L91.69,65.34L92.83,65.06L93.62,64.4L94.09,63.05L94.5,62.91L95.01,63.97L95.83,63.34L96.55,64.17L97.36,64.28L96.82,66.29L97.32,66.06L97.94,66.64L99.32,66.14L100.13,66.34L99.66,67.08L100.52,68.55L99.97,69.92L100.11,71.22L99.49,71.66L99.15,72.32L98.01,72.01L97.3,72.38L94.76,71.49L94.27,70.93L92.76,70.42L92.17,69.18L91.18,67.81L90.55,67.38L89.87,66.38L89.54,65.35L88.67,63.7ZM94.91,10.36L94.65,10.85L94.85,11.5L94.65,12.26L94.79,13.06L95.38,12.81L95.63,14.49L95.02,14.91L95.42,15.45L95.44,16.48L95.04,17.09L94.47,16.58L93.44,17.35L93.16,17.16L90.71,18L89.98,17.35L89.75,17.76L88.76,18.36L88.55,18.22L86.53,17.82L85.95,17.01L85.18,16.89L86.39,15.58L87.49,15.96L87.66,15.53L88.62,15.32L89.81,15.47L89.61,14.78L90.11,14.19L89.87,13.52L90,11.44L89.37,10.92L89.38,10.17L90.36,9.78L90.64,10L91.04,8.73L92.07,8.48L92.04,9.4L92.86,9.52L93.19,9.89L93.99,9.89L94.9,9.55ZM94.5,62.91L94.91,62.46L95.17,60.63L95.48,60.62L96.17,61.96L97.59,61.82L98.82,61.4L100.03,60.31L100.57,60.82L100.99,60.66L102.15,61.01L101.89,62.02L101.11,63.12L101.01,64.6L100.74,65.68L100.13,66.34L99.32,66.14L97.94,66.64L97.32,66.06L96.82,66.29L97.36,64.28L96.55,64.17L95.83,63.34L95.01,63.97ZM86.47,11.58L85.48,11.86L84.52,11.46L82.83,11.86L81.9,13.35L81.5,13.25L81.65,11.71L81.1,11.43L81.05,10.71L80.57,10.19L79.69,10.4L79.75,9.67L80.31,9.04L81.43,9.56L82.47,9.08L82.41,8.04L83.3,6.3L84.08,5.57L84.66,4.36L85.13,4.17L85.74,2.51L86.96,2.45L87.63,1.86L89.02,1.56L89.16,2.6L88.67,2.75L88.53,4.77L88.88,5.38L90.05,5.75L90.62,8.25L91.04,8.73L90.64,10L90.36,9.78L89.38,10.17L87.94,10.44L87.42,11.03ZM88.67,63.7L89.54,65.35L89.87,66.38L90.55,67.38L91.18,67.81L92.17,69.18L92.76,70.42L94.27,70.93L94.76,71.49L97.3,72.38L98.01,72.01L99.15,72.32L98.56,73.94L98.82,74.92L98.41,75.6L97.43,75.91L96.94,77.08L96.51,77.86L95.96,78.15L95.35,77.95L94.24,78.89L93.71,78.96L93.3,79.59L93.76,80.23L93.08,80.61L91.85,80.65L91.08,81.06L89.7,80.3L89.15,79.44L88.55,77.87L87.44,77.34L85.44,78.45L85.14,77.34L84.09,76.23L84.32,74.5L84.64,73.49L85.19,73.55L84.77,72.79L85.83,71.7L85.45,71.18L84.43,71.12L84.65,70.24L84.2,69.54L84.8,68.64L85.54,66.92L86.09,64.89L86.52,64.1L86.58,63.1L87.1,62.22L87.06,63.15L87.36,63.97ZM81.5,13.25L80.68,13.59L80.48,14.87L78.96,15.58L78.9,16.02L77.38,17.44L77.12,18L76.2,18.9L74.21,18.92L72.25,20L71.16,20.17L70.01,20.66L68.69,22.38L68.98,22.59L69.41,24.66L69.03,24.12L68.39,22.38L68.31,20.95L69.37,20.24L70.39,17.9L70.28,16.77L69.22,16.11L68.59,15.37L68.83,13.99L70.96,12.21L72.18,10.59L72.85,10.45L74.28,11.1L75.27,11.32L76.91,10.25L76.99,9.65L77.63,9.11L78.57,9.06L78.99,8.67L79.95,8.64L80.31,9.04L79.75,9.67L79.69,10.4L80.57,10.19L81.05,10.71L81.1,11.43L81.65,11.71ZM104.92,14.73L104.56,15.66L103.64,15.92L103.02,16.4L102.45,15.13L102.35,14.23L102.57,12.28L100.75,13.27L99.89,13.25L98.1,12.76L97.81,11.7L95.85,10.1L97.04,8.86L96.82,8.45L98.69,7.69L99.78,6.48L100.68,6.07L101.09,5.35L100.65,5.12L99.74,3.37L99.19,2.7L99.74,2.21L99.52,1.53L98.76,1.41L97.9,0.64L97.2,0.7L97.98,0.08L99.47,0L100.09,0.71L101.7,1.24L102.37,1.17L103.47,2.15L104.14,1.59L104.66,1.84L105.2,3.17L105.06,3.84L105.3,4.61L104.89,5.07L104.93,6.19L104.7,6.78L105.5,7.06L105.81,7.79L105.54,9.1L104.85,9.94L104.82,10.45L105.51,11.71L105.68,13.31L104.92,14.37ZM116.55,79.06L115.92,79L115.68,78.36L115.95,76.44L115.54,75.49L114.74,74.37L114.82,73.61L113.75,72.72L112.6,72.63L112.03,72.04L111.1,71.7L111.84,70.28L112.71,69.75L114.27,68.04L114.98,66.25L114.82,64.41L114.5,63.36L114.83,62.17L115.14,61.9L115.81,62.35L116.36,63.15L117.3,63.47L117.92,65.94L118.33,66.58L119.4,67.27L119.37,68.96L119.84,69.72L119.79,71.06L119.21,71.95L117.9,73.02L116.9,74.55L116.56,75.64L117,76.31L116.43,78.01ZM100.1,25.42L100.47,26.39L99.26,26.89L98.48,27.47L97.72,27.67L97.75,28.05L98.81,28.24L96.68,29.41L96.49,31.14L96.12,31.4L96.6,32.05L95.71,32.27L95.71,31.83L94.52,32.03L93.63,31.12L92.5,31.02L92.19,31.6L91.64,31.54L91.16,30.87L90,31L89.04,30.61L88.61,29.88L88.11,29.18L88.09,28.49L89.27,28.34L89.43,27.71L90.04,27.8L90.96,26.42L90.93,24.91L89.91,24.75L89.01,23.37L89.08,22.31L90.22,21.74L90.01,21.09L90.59,20.68L92.25,21.19L93.93,20.9L94.57,21.53L95.1,22.92L96.86,25.39L97.03,25.12ZM88.12,18.97L88.38,18.96L89.14,19.97L90.19,20.22L90.59,20.68L90.01,21.09L90.22,21.74L89.08,22.31L89.01,23.37L89.91,24.75L90.93,24.91L90.96,26.42L90.04,27.8L89.43,27.71L89.27,28.34L88.09,28.49L88.11,29.18L88.61,29.88L88.32,29.85L86.87,30.75L86.18,31.4L86.51,32.15L86.05,32.85L84.92,33.3L83.88,32.48L83.33,32.75L82.5,32.68L82.77,31.92L82.36,31.23L82.62,30L82.38,28.74L82.88,27.9L83,26.65L82.24,25.8L83.06,25.2L82.64,24.74L82.42,24.03L82.94,24.04L83.25,23.25L82.85,22.88L84.68,21.8L85.49,20.49L85.63,19.93L86.37,18.98ZM95.85,10.1L94.91,10.36L94.9,9.55L93.99,9.89L93.19,9.89L92.86,9.52L92.04,9.4L92.07,8.48L91.04,8.73L90.62,8.25L90.05,5.75L88.88,5.38L88.53,4.77L88.67,2.75L89.16,2.6L89.02,1.56L89.8,1.74L91.02,0.97L91.71,0.98L92.6,0.31L94.4,0.57L95.02,1.13L95.55,1.03L96.55,1.37L97.2,0.7L97.9,0.64L98.76,1.41L99.52,1.53L99.74,2.21L99.19,2.7L99.74,3.37L100.65,5.12L101.09,5.35L100.68,6.07L99.78,6.48L98.69,7.69L96.82,8.45L97.04,8.86ZM107.57,72L107.13,71.64L107.32,70.38L107.92,69.59L107.75,69.23L108.33,68.66L106.79,67.36L106.01,67.45L105.74,66.5L105.04,66.58L104.38,66.19L103.72,64.8L104.1,64.51L104.02,63.71L104.67,63.04L105.38,64.03L105.64,63.81L106.38,64.23L106.57,65.14L108.03,65.46L109.33,65.24L109.21,65.93L110.17,65.25L110.67,64.44L111,64.5L111.43,63.6L111.37,62.8L112.73,62.45L113.21,61.89L114.34,61.61L115.14,61.9L114.83,62.17L114.5,63.36L114.82,64.41L114.98,66.25L114.27,68.04L112.71,69.75L111.84,70.28L111.1,71.7L110.95,70.49L110.64,69.98L108.53,71.61ZM82.64,24.74L83.06,25.2L82.24,25.8L83,26.65L82.88,27.9L82.38,28.74L82.62,30L82.36,31.23L82.77,31.92L82.5,32.68L83.33,32.75L83.88,32.48L84.92,33.3L84.79,33.54L83.41,33.46L82.36,34.43L82.32,34.17L81.15,33.85L80.67,34.26L79.28,34.04L78.5,33.18L76.36,31.92L75.18,32.24L74.73,32.01L74.09,32.4L73,32.44L72.51,32.97L71.79,32.7L70.39,33.23L69.92,32.77L68.94,32.58L67.02,30.37L68.11,28.95L68.38,28.05L68.79,28.05L70.07,26.65L70.34,25.4L72.58,25.14L73.77,25.19L74.84,24.86L75.84,23.92L77.44,23.58L78.04,23.89L78.66,23.48L79.83,24.09L81.38,24.23L82,24.98ZM89.32,106.3L88.84,107.04L89.51,107.38L89.24,108.15L89.48,108.54L88.7,108.86L88.77,109.49L87.91,109.94L87.06,111.29L86.36,111.06L81.93,110.96L81.33,111.13L80.27,110.86L80.3,111.65L78.84,112.4L78.92,114.18L77.33,113.82L77.28,112.35L76.61,112.42L75.75,111.98L74.9,112.66L74.2,114.91L73.32,113.96L72.83,112.98L72.86,111.78L72.37,111.44L72.09,110.48L71.62,110.52L71.31,109.94L72.66,108.7L73.54,108.25L73.35,107.86L74.01,107.46L73.9,106.39L72.26,104.74L71.9,104.13L72.39,102.82L73.14,102.92L73.45,102.54L74.38,103.23L74.63,102.35L74.47,101.73L75.14,101.12L75.58,101.4L76,100.9L75.44,100.46L75.81,99.28L77.01,99.15L77.89,99.97L78.73,99.39L79.54,97.96L80.42,97.11L80.82,97.27L80.92,96.11L81.18,95.59L82.06,95.5L83.35,96.09L83.59,97.26L84.29,97.58L84.74,97.02L85.01,97.58L86.5,97.84L86.96,97.15L87.16,96.18L88.18,96.05L89.25,96.29L89.81,96.94L89.68,97.5L91.17,98.37L91.18,99.12L92.71,99.4L93.17,100.09L92.48,101.47L92.54,102.17L92.12,102.8L91.4,102.9L90.77,103.34L89.36,105ZM73.05,92.55L72.89,92.05L73.28,91.6L72.46,91.53L71.4,92.02L70.87,91.89L71.07,89.28L70.48,89.29L70.01,88.66L69.6,89.17L68.85,89.26L67.66,87.68L66.95,87.8L66.05,86.51L65.49,86.06L64.18,85.68L63.78,85.13L63.24,85.07L63.01,84.96L63.61,82.92L63.37,81.9L63.97,80.86L63.99,80.05L63.19,78.47L63.95,77.33L64.44,76.98L64.8,76.19L63.94,74.87L65.09,74.38L66.15,74.3L66.07,74.95L67.4,75.2L67.95,74.53L68.78,74.12L69.75,72.67L71.14,71.48L72.12,71.25L72.86,70.58L73.72,70.87L74.19,71.36L74.73,71.3L76.7,71.74L77.91,71.23L77.33,72.44L76.72,72.87L76.26,74.45L76.5,75.71L77.56,76.24L77.93,76.89L79.69,77.84L80.98,77.15L81.3,78.29L81.97,78.85L83.52,79.34L83.59,79.94L84.21,80.39L84.8,81.27L84.04,82.39L83.02,82.95L82.46,83.04L82.4,83.64L81.86,84.41L81.46,84.21L79.46,84.85L79.04,85.92L78.65,85.91L77.67,86.95L77.79,88.2L77.57,89.14L76.59,90.54L76.39,91.19L75.9,91.45L75.31,90.62L74.42,90.85L74.78,91.38L73.78,91.62ZM86.39,15.58L86.19,14.79L85.25,14.26L85.87,13.15L86.44,12.77L86.47,11.58L87.42,11.03L87.94,10.44L89.38,10.17L89.37,10.92L90,11.44L89.87,13.52L90.11,14.19L89.61,14.78L89.81,15.47L88.62,15.32L87.66,15.53L87.49,15.96ZM91.07,56.39L89.96,56.95L89.23,56.56L89.42,56.25L89.39,54.59L88.63,54.25L87.38,54.34L86.22,53.88L85.18,53.75L84.97,52.01L85.43,51.95L86.54,51.12L87.53,51.03L88.62,49.82L89.81,49.41L90.8,48.41L91.01,47.64L92.6,46.05L92.87,46.16L93.8,44.9L94.76,44.36L95.79,42.38L97.13,40.82L97.63,40.62L97.54,41.18L99.23,41.8L99.85,41.65L100.79,42.29L101.18,42.83L99.93,43.12L100.47,43.9L100.28,44.96L100.71,45.61L100.5,46.08L101.02,46.77L101.52,47.99L101.11,48.2L100.46,48.55L98.9,48.33L98.91,47.41L97.94,48.16L98.04,47.33L97.41,48.03L96.75,47.89L96.23,48.33L95.24,48.6L93.79,49.44L93.66,49.95L94.77,49.29L95.36,50.43L94.89,51.13L94.95,51.65L94.35,53.35L94.33,54.07L93.58,55.8L93.13,56.46L92.65,55.26L92.03,56.19L91.37,55.96ZM45.67,117.47L47.8,117.88L48.09,119.57L48.59,119.99L49.67,119.8L50.3,120.03L50.92,119.31L52.12,119.26L53.21,118.87L53.1,120.73L53.42,120.77L53.67,121.97L53.41,123.44L54.12,124.21L55.17,123.4L55.52,124.02L55.22,125.34L54.73,126.1L54.89,126.5L54.53,127.23L55.24,127.91L54.89,128.36L54.87,129.15L53.71,129.78L53.57,130.35L52.55,131.99L52.8,132.76L53.52,133.03L53.85,133.6L52.31,136.21L51.76,136.77L51.07,136.64L50.34,137.21L48.89,137.05L48.42,136.81L48.06,137.84L47.35,138.53L46.3,139.15L45.39,139.18L44.3,139.91L44.04,140.91L44.28,141.3L43.23,141.61L42.87,142.35L41.91,143.16L40.88,143.29L40.25,143.8L39.39,144L38.58,143.89L37.19,142.48L36.36,142.67L35.76,141.77L34.67,141.52L34.63,141.04L33.02,141.16L32.78,140.14L31.81,139.5L30.88,137.45L28.67,139.92L28.87,138.85L28.66,138.07L29.1,136.14L27.94,135.49L28.07,135.02L27.65,133.85L26.09,133.51L26.24,132.47L25.46,131.06L24.32,130.77L24.16,130.15L25.39,129.78L26.04,129.24L26.1,128.22L25.32,127.28L25.79,126.72L25.01,126.11L25,124.76L25.97,125.95L26.97,126.44L28.4,126.13L28.9,126.48L31.42,125.52L33.19,125.83L34.79,125.11L35.39,125.02L36.75,123.56L37.49,123.36L37.69,122.5L38.08,122.79L39.08,121.85L39.67,121.58L40.41,120.66L41.04,120.35L41.4,119.49L42.35,119.28L42.9,118.22L44.23,118.14L44.44,117.75ZM88.18,96.05L88.69,95.4L90.06,94.9L90.36,94.04L91.22,93.88L90.62,93.27L90.54,92.59L90.37,92.23L90.88,90.58L91.78,89.82L91.87,89.1L92.43,88.77L92.38,88.32L94.29,88.43L95.04,87.8L95.73,87.87L96.71,87.53L96.61,88.14L97.41,88.33L97.04,89.93L98.21,90.16L98.7,88.45L99.09,88.78L99.94,90.22L100.86,90.07L102.02,90.76L103.41,90.85L103.96,91.09L105.7,90.59L106.22,89.99L106.28,90.56L105.33,91.54L105.65,91.79L104.74,93.68L103.98,93.71L103.74,94.4L103.14,94.67L102.84,96.04L102.38,96.1L101.95,96.88L100.74,96.97L100.29,97.47L98.79,97.84L97.64,97.58L97.26,98.03L96.49,97.52L95.37,97.98L94.87,97.24L94.25,97.33L93.59,98.24L93.88,99.24L93.17,100.09L92.71,99.4L91.18,99.12L91.17,98.37L89.68,97.5L89.81,96.94L89.25,96.29ZM90.54,92.59L90.25,92.48L88.71,90.45L88.45,89.76L87.07,88.47L87.11,88.21L87.73,88.07L88.07,87.35L88.43,87.46L88.93,86.34L89.36,86.01L89.06,85.4L89.29,84.98L89.06,84.02L90.83,83.62L91.95,83.82L92.11,83.25L92.94,82.57L93.39,82.74L94.47,81.68L93.86,81.23L94.29,80.74L93.76,80.23L93.3,79.59L93.71,78.96L94.24,78.89L95.35,77.95L95.96,78.15L96.51,77.86L96.94,77.08L97.16,77.68L96.75,78.09L96.95,78.83L96.37,78.99L96.33,79.8L96.81,81.01L96.46,82L96.65,82.48L97.67,83.07L99.35,83.77L99.86,84.3L99.86,84.88L100.42,84.64L100.9,85.18L101.23,84.99L101.92,83.51L102.64,83.15L102.48,83.81L102.91,83.88L103.38,84.66L103.18,85.52L103.65,86.16L104.79,86.85L105.31,87.69L105.63,89.07L106.25,89.22L106.22,89.99L105.7,90.59L103.96,91.09L103.41,90.85L102.02,90.76L100.86,90.07L99.94,90.22L99.09,88.78L98.7,88.45L98.21,90.16L97.04,89.93L97.41,88.33L96.61,88.14L96.71,87.53L95.73,87.87L95.04,87.8L94.29,88.43L92.38,88.32L92.43,88.77L91.87,89.1L91.78,89.82L90.88,90.58L90.37,92.23ZM55.07,109.17L55.08,109.78L53.73,109.84L51.99,109.39L51.7,109.59L50.14,108.93L49.48,109.27L49.52,109.8L48.83,110.35L48.64,111.17L48.13,111.66L47.38,113.97L46.97,114.29L46.55,115.93L45.99,116.67L46.25,116.98L45.67,117.47L44.44,117.75L44.23,118.14L42.9,118.22L42.35,119.28L41.4,119.49L41.04,120.35L40.41,120.66L39.67,121.58L39.08,121.85L38.08,122.79L37.69,122.5L37.49,123.36L36.75,123.56L35.39,125.02L34.79,125.11L33.19,125.83L31.42,125.52L28.9,126.48L28.4,126.13L26.97,126.44L25.97,125.95L25,124.76L25.44,124.45L26.34,124.94L27.31,123.57L26.88,122.87L28.03,121.85L27.55,120.84L27.4,119.85L28.15,118.73L27.73,117.66L27.02,117.16L27.32,116.66L26.78,115.58L27.59,114.94L27.61,114.41L28.52,113.95L28.59,113.29L27.9,113.19L28.13,111.77L27.94,110.66L28.21,109.81L28.67,109.82L29.09,108.23L28.76,107.79L29.51,106.56L30.29,105.85L30.18,105.39L31.31,103.51L31,102.59L31.27,101.79L30.83,101.29L30.74,100.5L31.15,99.76L30.75,99.04L31.71,98.58L31.72,97.92L33.28,96.8L32.68,95.47L32.98,94.47L33.54,94.37L33.62,93.63L34.48,92.96L34.94,93L35.24,92.42L36.56,92.75L37.27,92.18L38.06,92.12L39.15,90.9L40.37,90.93L40.72,91.74L40.69,93.86L41.07,94.55L42.2,95.42L42.4,96.13L43.08,96.65L44.03,96.06L44.81,96.78L44.72,97.34L45.22,98.35L46.42,98.65L48.06,98.08L49.06,98.58L50.4,100.06L50.94,99.85L51.73,100.45L52.32,102.19L52.98,102.87L54.09,102.77L54.55,102.3L54.47,102.98L54.85,103.24L54.72,104.07L55.06,106.17L54.76,106.93L55,107.79ZM54.01,61.18L55.15,63.15L55.6,63.56L56.25,63.64L56.42,64.68L57.11,65.35L57.85,65.35L58.94,65.94L59.25,66.62L61.02,67.57L62.03,67.82L62.46,68.43L63.73,69.54L64.8,68.73L65.63,69.42L66.14,69.48L66.21,70.54L65.56,71.05L65.17,70.48L63.61,70.82L62.92,71.23L62.25,72.25L62.15,72.98L62.45,73.5L63.33,74.08L63.1,74.35L62.04,73.95L61.69,74.85L61.18,75.3L61.36,76.34L60.16,76.83L59.03,77.04L58.43,76.87L57.52,77.08L57.47,77.64L56.65,78.66L54.99,78.31L54.23,79.14L53.38,79.58L52.77,79.48L51.93,80.47L51.99,81.56L51.25,81.84L50.55,81.63L50.93,80.55L49.58,79.66L48.73,79.85L48.33,79.24L46.95,78.72L45.85,76.81L46.12,76.15L45.31,75.08L45.76,74.35L44.9,73.43L45.22,72.02L46.09,71.51L46.01,70.95L46.84,70.99L47.12,70.16L47.63,70.16L48.49,69.45L48.41,68.66L48.66,67.8L49.78,66.74L49.94,66.19L50.55,65.82L50.65,65.01L50.33,64.66L51.12,64.31L51.3,63.14L52.47,62.47L52.91,61.58ZM58.55,62.53L58.94,62.38L59.76,61.04L60.98,60.86L61.77,60.96L62.65,60.36L63.98,60.6L64.44,60.31L65.35,60.46L66.97,59.31L68.11,59.54L69.83,57.39L70.66,57.23L71.41,57.63L72.55,57.2L74.06,57.33L74.4,57.17L75.81,60.36L78.01,59.94L78.55,59.1L80.36,58.71L80.62,59.2L79.16,60.1L78.55,61.22L77.74,62.34L77.94,63.33L77.37,64.14L76.75,64.04L76.79,64.72L76.39,65.05L75.55,66.42L75.13,67.84L75.09,68.64L74.57,69.77L74.88,70.73L74.73,71.3L74.19,71.36L73.72,70.87L72.86,70.58L72.12,71.25L71.14,71.48L69.75,72.67L68.78,74.12L67.95,74.53L67.4,75.2L66.07,74.95L66.15,74.3L65.09,74.38L65.68,73.62L66.35,70.82L66.21,70.54L66.14,69.48L65.63,69.42L64.8,68.73L63.73,69.54L62.46,68.43L62.03,67.82L61.02,67.57L59.25,66.62L58.94,65.94L57.85,65.35L57.11,65.35L56.42,64.68L56.25,63.64L55.6,63.56L56.66,63.64ZM87.11,88.21L87.01,87.8L86,87.51L84.94,86.68L84.37,86.58L85.36,85.52L83.33,84.24L83.03,84.28L83.02,82.95L84.04,82.39L84.8,81.27L85.21,81.23L86.47,81.97L87.12,81.73L86.26,80.21L86.47,79.89L85.44,78.45L87.44,77.34L88.55,77.87L89.15,79.44L89.7,80.3L91.08,81.06L91.85,80.65L93.08,80.61L93.76,80.23L94.29,80.74L93.86,81.23L94.47,81.68L93.39,82.74L92.94,82.57L92.11,83.25L91.95,83.82L90.83,83.62L89.06,84.02L89.29,84.98L89.06,85.4L89.36,86.01L88.93,86.34L88.43,87.46L88.07,87.35L87.73,88.07ZM63.24,85.07L62.73,85.99L62.68,86.64L62.11,87.57L61,86.68L59.4,86.95L58.15,86.58L56.86,85.82L55.82,85.96L55.04,84.97L54.84,83.9L53.77,83.61L53.34,81.91L51.99,81.56L51.93,80.47L52.77,79.48L53.38,79.58L54.23,79.14L54.99,78.31L56.65,78.66L57.47,77.64L57.52,77.08L58.43,76.87L59.03,77.04L60.16,76.83L61.36,76.34L61.18,75.3L61.69,74.85L62.04,73.95L63.1,74.35L63.33,74.08L62.45,73.5L62.15,72.98L62.25,72.25L62.92,71.23L63.61,70.82L65.17,70.48L65.56,71.05L66.21,70.54L66.35,70.82L65.68,73.62L65.09,74.38L63.94,74.87L64.8,76.19L64.44,76.98L63.95,77.33L63.19,78.47L63.99,80.05L63.97,80.86L63.37,81.9L63.61,82.92L63.01,84.96ZM80.36,58.71L80.91,58.47L81.55,58.92L82.3,58.81L82.97,59.59L83.86,59.9L84.03,60.53L84.67,60.89L87.34,61.17L87.71,61.18L88.57,62.34L88.98,62.14L89.19,63.02L88.67,63.7L87.36,63.97L87.06,63.15L87.1,62.22L86.58,63.1L86.52,64.1L86.09,64.89L85.54,66.92L84.8,68.64L84.2,69.54L84.65,70.24L84.43,71.12L85.45,71.18L85.83,71.7L84.77,72.79L85.19,73.55L84.64,73.49L84.32,74.5L84.09,76.23L85.14,77.34L85.44,78.45L86.47,79.89L86.26,80.21L87.12,81.73L86.47,81.97L85.21,81.23L84.8,81.27L84.21,80.39L83.59,79.94L83.52,79.34L81.97,78.85L81.3,78.29L80.98,77.15L79.69,77.84L77.93,76.89L77.56,76.24L76.5,75.71L76.26,74.45L76.72,72.87L77.33,72.44L77.91,71.23L78.75,71.21L79.69,70.59L80.45,69.62L81.04,69.36L82.59,67.75L83.34,66.1L84.05,64.13L83.12,64.07L83.39,63.03L82.67,62.77L81.92,63.59L81.84,64.23L80.59,63.09L80.09,63.18L78.86,61.81L78.55,61.22L79.16,60.1L80.62,59.2ZM86.1,36.64L84.75,37.34L84.26,38.74L83.81,39L82.01,38.33L81.63,38.6L80.34,38.07L79.7,37.57L79.41,36.79L78.92,36.67L78.04,35.72L75.95,35.54L74.11,36.06L73.51,35.57L72.85,35.47L72.29,35.85L71.24,35.8L70.05,36.31L68.24,36.34L67.71,35.94L66.55,35.93L66.25,35.51L66.87,34.62L66.29,33.68L66.89,32.36L66.77,31.91L67.02,30.37L68.94,32.58L69.92,32.77L70.39,33.23L71.79,32.7L72.51,32.97L73,32.44L74.09,32.4L74.73,32.01L75.18,32.24L76.36,31.92L78.5,33.18L79.28,34.04L80.67,34.26L81.15,33.85L82.32,34.17L82.36,34.43L83.41,33.46L84.79,33.54L84.92,33.3L86.05,32.85L86.51,32.15L86.18,31.4L86.87,30.75L88.32,29.85L88.24,30.39L87.69,30.69L87.36,31.42L87.2,33.26L86.52,34.04L86,34.25L85.15,35.53L85.26,36.1ZM104.04,63.04L102.75,64.16L102.14,65.87L101.39,67.29L101.69,68.6L101.68,69.56L100.94,72.28L101.15,73.19L100.89,74.33L100.88,76.08L101.94,76.8L101.09,78.3L100.38,79.08L100.49,80.54L100.22,81.91L99.35,83.77L97.67,83.07L96.65,82.48L96.46,82L96.81,81.01L96.33,79.8L96.37,78.99L96.95,78.83L96.75,78.09L97.16,77.68L96.94,77.08L97.43,75.91L98.41,75.6L98.82,74.92L98.56,73.94L99.15,72.32L99.49,71.66L100.11,71.22L99.97,69.92L100.52,68.55L99.66,67.08L100.13,66.34L100.74,65.68L101.01,64.6L101.11,63.12L101.89,62.02L102.67,62.06L102.77,62.86L103.62,62.37ZM77.91,71.23L76.7,71.74L74.73,71.3L74.88,70.73L74.57,69.77L75.09,68.64L75.13,67.84L75.55,66.42L76.39,65.05L76.79,64.72L76.75,64.04L77.37,64.14L77.94,63.33L77.74,62.34L78.55,61.22L78.86,61.81L80.09,63.18L80.59,63.09L81.84,64.23L81.92,63.59L82.67,62.77L83.39,63.03L83.12,64.07L84.05,64.13L83.34,66.1L82.59,67.75L81.04,69.36L80.45,69.62L79.69,70.59L78.75,71.21ZM97.13,40.82L95.6,40.59L95.38,40.13L94.41,40.29L93.44,39.94L92.41,38.69L92.29,38.1L91.71,37.92L91.51,36.83L90.21,36.22L88.22,36.8L88.06,37.08L87.78,36.49L87.03,36.24L86.66,36.69L86.1,36.64L85.26,36.1L85.15,35.53L86,34.25L86.52,34.04L87.2,33.26L87.36,31.42L87.69,30.69L88.24,30.39L88.32,29.85L88.61,29.88L89.04,30.61L90,31L91.16,30.87L91.64,31.54L92.19,31.6L92.5,31.02L93.63,31.12L94.52,32.03L95.71,31.83L95.71,32.27L96.6,32.05L96.29,33.15L96.79,34.01L95.84,34.4L95.62,35L96.98,35.68L98.03,34.93L98.58,34.79L99.87,35.62L100.72,36.42L100.38,38.22L101.49,38.88L101.59,39.52L101.06,39.78L100.67,40.79L99.85,41.65L99.23,41.8L97.54,41.18L97.63,40.62ZM88.55,18.22L88.12,18.97L86.37,18.98L85.63,19.93L85.49,20.49L84.68,21.8L82.85,22.88L83.25,23.25L82.94,24.04L82.42,24.03L82.64,24.74L82,24.98L81.38,24.23L79.83,24.09L78.66,23.48L78.04,23.89L77.44,23.58L75.84,23.92L74.84,24.86L73.77,25.19L72.58,25.14L70.34,25.4L70.31,25.05L70.66,24.29L72.54,22.65L72.86,22.66L73.88,21.7L74.83,20.34L75.9,20.38L78.58,18.83L79.23,18.84L79.59,18.03L80.35,17.74L80.67,16.89L80.77,15.68L81.75,15.73L82.45,14.77L82.96,15.02L83.69,16.01L84.57,15.97L85.18,16.89L85.95,17.01L86.53,17.82ZM106.25,89.22L107.19,88.78L106.83,88.15L107.08,86.87L106.66,86.37L106.88,85.98L106.53,85.26L106.83,84.81L107.71,84.7L108.89,83.5L109.07,82.51L109.38,82.38L108.9,80.83L108.52,80.61L110.42,79.12L110.95,78.91L111.85,77.87L113,78.69L115.2,78.94L116.1,79.19L116.55,79.06L116.8,79.81L117.64,80.36L117.53,81.9L117.08,82.5L116.72,84.77L116.09,86.75L115.38,87.22L114.88,88.43L113.56,89.69L112.38,91.39L111.5,93.07L109.9,94.42L108.28,95.47L106.86,95.08L106.36,93.48L106.06,91.95L106.67,90.86L105.65,91.79L105.33,91.54L106.28,90.56L106.22,89.99Z" fill="#B3CFC0" stroke="#007139" stroke-width="0.5"/></svg>