<svg xmlns="http://www.w3.org/2000/svg" width="144" height="144" viewBox="0 0 144 144"><path d="M127.69,73.97L125.12,74.24L124.05,75.66L120.99,74.11L120.98,73.09L119.27,73.19L117.98,72.36L115.95,72.4L110.48,71.46L107.69,70.44L103.61,70.73L102.21,68.96L99.82,69.13L98.47,68.55L96.58,68.69L95.9,68.19L83.89,76.21L83.87,74.7L80.43,71.07L79.1,71.91L76.2,71.7L72.61,69.41L69.05,67.84L65.59,59.8L64.59,58.54L58.62,57.15L56.78,57.25L62.61,51.61L65.91,52.07L67.21,51.62L68.27,50.12L69.99,50.16L72.12,47.86L74.32,48.01L75.07,46.94L77.4,46.67L78.83,45.97L79.62,46.4L82.46,45.67L84.6,47.39L86.17,47.63L88.18,46.79L89.11,47.13L91.34,50.48L94.9,50.44L95.55,51.71L97.8,51.77L98.32,52.95L100.2,54.02L102.94,53.7L105.01,52.04L108.67,51.56L110.23,51.8L116.73,60.01ZM62.61,51.61L56.78,57.25L58.62,57.15L64.59,58.54L65.59,59.8L69.05,67.84L72.61,69.41L73.44,74.05L72.44,73.99L71.69,72.76L70.8,73.19L69.3,72.48L66.66,73.19L65.48,72.63L65.13,73.36L61.93,72.65L60.19,73.12L58.44,72.7L57.94,73.42L55.34,72.51L54.74,71.69L51.73,71.16L50.4,72.04L44.76,66.81L34.13,56.98L33.02,48.95L34.43,49.16L35.2,48.3L36.76,48.68L38.36,48.22L38.02,49.87L40.8,49.06L41.79,49.73L42.61,49.01L43.17,49.97L44.52,48.99L44.5,50.12L46.19,48.86L47.79,49.01L48.41,49.9L50.62,49.95L54.12,49.3L55.25,50.18L55.82,49.43L57.53,49.84L60.68,49.2L61.51,51.28ZM83.89,76.21L95.9,68.19L96.58,68.69L98.47,68.55L99.82,69.13L102.21,68.96L103.61,70.73L107.69,70.44L110.48,71.46L115.95,72.4L117.98,72.36L119.27,73.19L120.98,73.09L120.99,74.11L124.05,75.66L125.12,74.24L127.69,73.97L144,94.75L142.81,96.03L138.76,97.89L134.93,98.33L128.56,98.01L126.58,97.24L124,98.1L121.54,97.65L120.71,96.53L120.93,95.38L119.31,94.37L118.3,93.07L116.73,93.39L116.39,91.95L115.65,92.77L113.51,92.45L112.87,89.82L111.24,88.59L110.38,88.64L110.08,87.4L108.72,86.9L108.43,85.47L107.34,86.37L106.23,85.56L103.53,85.98L102.61,86.59L99.8,85.64L97.36,85.21L94.89,85.75L95.01,86.33L92.59,87.11L92.37,87.76L90,88.78L89.7,88.11L87.59,87.82L82.76,89.26L80.71,89.23ZM34.13,56.98L44.76,66.81L43.63,67.2L41.97,66.35L39.86,68.06L38.61,67.85L38.35,68.72L36.51,67.8L34.23,68.11L32.75,66.48L31.01,65.41L26.53,65.81L23.53,66.39L22.25,68.44L21.13,68.92L20.79,70.53L19.89,70.79L18.94,72.76L14.5,74.53L12.9,73.96L11.65,74.25L12.44,69.94L13.5,68.14L13.14,66.62L13.06,63.3L18.94,62.36L29.77,60.12ZM72.61,69.41L76.2,71.7L79.1,71.91L80.43,71.07L83.87,74.7L83.89,76.21L80.71,89.23L76.96,87.63L75.28,88.33L72.91,88.69L69.31,88.53L67.55,88.77L66.43,87.59L63.87,87.51L62.25,86.43L60.52,87.31L55.94,85.56L54.41,85.85L53.37,85.16L53.86,75.19L50.4,72.04L51.73,71.16L54.74,71.69L55.34,72.51L57.94,73.42L58.44,72.7L60.19,73.12L61.93,72.65L65.13,73.36L65.48,72.63L66.66,73.19L69.3,72.48L70.8,73.19L71.69,72.76L72.44,73.99L73.44,74.05ZM33.02,48.95L34.13,56.98L29.77,60.12L18.94,62.36L13.06,63.3L15.48,62.21L16.28,59.2L18.14,55.28L19.06,52.51L20.48,50.23L26.06,49.52L27.19,47.71L30.41,47.54ZM44.76,66.81L50.4,72.04L53.86,75.19L53.37,85.16L54.41,85.85L55.94,85.56L55.39,87.12L53.77,86.15L50.06,88.72L48.29,88.88L46.55,88.16L46.52,89L45.1,87.98L44.62,89.13L42.3,90.27L40.84,89.01L39.63,90.39L38.61,90.58L35.68,88.86L34.28,90.67L28.91,90.59L26.27,91.01L23.88,92.28L21.07,91.73L19.9,91.9L17.46,93.71L14.17,94.56L12.49,96.39L11.22,96.84L6.99,94.97L4.37,93.39L3.66,90.07L1.11,88.97L0.14,86.77L0,84.99L1.38,83.09L2.43,83.62L2.51,82.49L4.05,81.46L4.13,79.6L5.2,78.32L5.91,79.39L7.23,78.51L7.53,77.15L9.07,77.47L9.25,75.63L11.65,74.25L12.9,73.96L14.5,74.53L18.94,72.76L19.89,70.79L20.79,70.53L21.13,68.92L22.25,68.44L23.53,66.39L26.53,65.81L31.01,65.41L32.75,66.48L34.23,68.11L36.51,67.8L38.35,68.72L38.61,67.85L39.86,68.06L41.97,66.35L43.63,67.2Z" fill="#B3CFC0" stroke="#007139" stroke-width="0.5"/></svg>