<svg xmlns="http://www.w3.org/2000/svg" width="144" height="144" viewBox="0 0 144 144"><path d="M85.07,110.61L83.39,117.52L84.01,119.03L87.59,118.89L94.99,123.47L95.63,125.72L98.27,127.65L101.33,128.66L101.7,131.03L106.61,133.56L110.11,136.44L113.93,138.44L115.73,136.89L117.98,137.38L120.4,135.57L123.05,134.95L123.27,133.2L126.22,131.82L128.18,128.25L131.14,126.09L132.56,123.4L134.74,124.39L137.86,121.8L137.51,127.19L135.88,130.76L137.44,133.29L135.77,135.68L132.74,136.86L130.31,139.15L127.84,138.89L127.64,140.92L123.73,141.42L121.39,144L119.36,143.45L116.87,140.1L109.57,137.7L105.03,136.94L103.38,137.72L101.25,136.64L99.99,137.93L96.09,137.59L94.91,136.64L92.93,138.16L87.54,135.04L85.94,134.74L81.71,136.86L72.2,135.54L70.4,133.85L65.55,132.12L63.62,133.75L62.49,132.73L63.39,127.6L62.19,125.61L58.85,126.77L56.47,129.45L53.83,129.81L50.03,127.13L50.25,124.84L51.93,123.15L49.15,120.76L53.03,119.47L54.53,113.81L52.44,110.53L56.94,107.46L62.39,110.13L64.3,110.4L65.95,105.79L68.12,105.35L69.77,108.15L72.78,108.2L74.7,111.16L80.42,107.8L83.43,108.69ZM51.21,83.71L46.75,81.62L47.92,77.71L43.12,75.68L43.07,74.25L38.78,70.19L31.87,70.49L29.25,69.39L31.66,67.47L36.26,66.7L40.67,65.1L42.54,62.03L42.47,59.47L41.09,58.2L43.88,55.38L44.73,53.29L48.11,54.8L50.17,54.33L49.8,62.31L54.07,66.86L54.59,68.71L57.27,69.62L51.95,77.88L52.76,78.68ZM56.94,107.46L52.44,110.53L47.88,113.2L45.47,111.97L42.78,112.47L40.65,110.19L41.07,105.55L40.4,104.23L41.07,99.36L39.78,98.04L41.12,96.01L44.41,96.53L44.72,92.63L47.48,92.02L51.53,96.28L51.88,97.76L57.72,102.27L57.62,104.25ZM57.27,69.62L54.59,68.71L54.07,66.86L49.8,62.31L50.17,54.33L50.84,51.28L51.34,49.5L56.22,48.96L57.27,47.31L62.45,46.98L66.8,47.4L67.31,51.64L69.77,52.98L69.24,57.41L70.15,58.33L67.18,62.88L63.43,73.6L58.36,69.27ZM94.99,123.47L87.59,118.89L84.01,119.03L83.39,117.52L85.07,110.61L88.17,108.09L90.48,109.75L93.55,108.81L97.89,115.39L97.04,118.01L98.34,118.04L97.25,122.13ZM66.8,47.4L62.45,46.98L62.89,42.82L61.17,39.43L65.3,32.92L66.06,31.91L68.78,32.73L71.82,32.19L76.46,28.81L78.3,28.93L76.46,34.24L73.82,38.78L75.43,39.32L78.33,43.38L78.76,45.14L76.4,46.88L72.62,45.06ZM47.48,92.02L44.72,92.63L44.41,96.53L41.12,96.01L39.78,98.04L41.07,99.36L40.4,104.23L34.44,100.16L33.65,96.43L31.06,89.27L28.67,87.95L26.2,83.92L26.64,82.89L29.77,85.62L35.09,86.57L37.2,84.43L40.44,84.5L40.2,86.16L42.13,87.72L44.76,87.3L45.6,90.69ZM68.12,105.35L65.95,105.79L64.3,110.4L62.39,110.13L56.94,107.46L57.62,104.25L59.12,104.01L59.9,100.99L64.19,101.65L68.21,103.22ZM85.07,110.61L83.43,108.69L80.42,107.8L74.7,111.16L72.78,108.2L69.77,108.15L68.12,105.35L68.21,103.22L72.4,98.46L71.15,95.76L72.86,91.13L75.29,88.91L77.14,84.38L78.99,82.95L81.17,86.79L84.07,94.15L84.15,97.12L83.61,100.43L84.56,102.48L88.69,106.36L88.17,108.09ZM62.45,46.98L57.27,47.31L56.22,48.96L51.34,49.5L50.84,51.28L47.38,49.65L46.88,46.66L45.01,44.21L46.17,36.12L38.36,33.18L35.62,33.08L30.86,31.38L29.05,31.97L24.88,19.31L26.51,15.3L26.86,10.86L25.3,5.33L27.43,3.07L30.38,2.4L32.97,0.09L37.44,0L39.07,4.25L40.74,4.85L41.56,7.79L46.2,9.33L49.89,9.54L51.1,11.9L53.88,13.99L59.77,12.35L60.52,19.98L62.49,24.64L60.93,31.23L64.67,31.83L65.3,32.92L61.17,39.43L62.89,42.82ZM50.17,54.33L48.11,54.8L44.73,53.29L43.88,55.38L41.09,58.2L42.47,59.47L42.54,62.03L40.67,65.1L36.26,66.7L31.66,67.47L29.25,69.39L26.63,66.09L23.57,64.12L19.08,62.86L16.31,57.81L16.25,53.12L11.32,48.97L10.7,44.5L6.92,39.12L6.14,34.82L6.48,32.21L8.61,27.16L8.53,24.4L10.62,26.52L12.19,25.03L14.67,25.51L16.08,23.99L19.6,23.51L21.46,20.03L24.88,19.31L29.05,31.97L30.86,31.38L35.62,33.08L38.36,33.18L46.17,36.12L45.01,44.21L46.88,46.66L47.38,49.65L50.84,51.28ZM78.76,45.14L78.33,43.38L75.43,39.32L73.82,38.78L76.46,34.24L78.3,28.93L79.7,29.31L80.19,27.09L83.09,27.48L84.44,28.91L86.63,28.65L86.76,30.3L89.88,33.98L91.77,34.05L92.89,39.78L94.63,41.26L92.41,44.24L91.48,47.97L87.42,49.77L81.63,48.11L79.11,46.63ZM137.86,121.8L134.74,124.39L132.56,123.4L131.14,126.09L128.18,128.25L126.22,131.82L123.27,133.2L123.05,134.95L120.4,135.57L117.98,137.38L115.73,136.89L113.93,138.44L110.11,136.44L106.61,133.56L101.7,131.03L101.33,128.66L98.27,127.65L95.63,125.72L94.99,123.47L97.25,122.13L98.34,118.04L97.04,118.01L97.89,115.39L93.55,108.81L90.48,109.75L88.17,108.09L88.69,106.36L84.56,102.48L83.61,100.43L84.15,97.12L86.68,99.33L91.8,99.52L96.48,94.96L98.45,94.93L99.75,99.1L99.36,100.87L103.05,102.09L104.24,100.82L107.86,100.31L109.02,102.48L111.24,101.79L112.18,103.69L116.23,102.45L121.28,103.7L122.41,107.78L125.35,108.79L125.77,111.2L127.83,113.44L129.7,119.6L133.23,121.6ZM29.25,69.39L31.87,70.49L38.78,70.19L43.07,74.25L43.12,75.68L47.92,77.71L46.75,81.62L51.21,83.71L54.09,86.64L54.14,91.71L55.94,96.53L60.93,99.61L59.9,100.99L59.12,104.01L57.62,104.25L57.72,102.27L51.88,97.76L51.53,96.28L47.48,92.02L45.6,90.69L44.76,87.3L42.13,87.72L40.2,86.16L40.44,84.5L37.2,84.43L35.09,86.57L29.77,85.62L26.64,82.89L27.85,78.65L27.78,75.28L29.02,74.26Z" fill="#B3CFC0" stroke="#007139" stroke-width="0.5"/></svg>