<svg xmlns="http://www.w3.org/2000/svg" width="144" height="144" viewBox="0 0 144 144"><path d="M49.58,133.13L49.43,132.93L49.63,132.98ZM47.16,126.02L47.21,126.01L47.39,126.32L47.75,126.58L47.76,126.85L47.9,127.1L48.19,127.31L48.84,127.49L49.2,127.74L49.59,127.9L49.77,128.09L49.79,128.21L49.41,128.43L48.96,128.27L48.78,128.37L48.4,128.37L48.06,128.56L47.86,128.76L47.35,129.08L47.28,129.24L47.75,129.62L47.82,129.95L47.58,129.97L47.55,130.16L47.43,130.27L47.26,130.09L46.79,129.93L47.18,129.84L46.86,129.72L46.71,129.61L46.63,129.94L46.76,129.94L46.84,130.11L47.06,130.31L47.09,130.17L47.25,130.13L47.34,130.22L47.34,130.4L47.75,130.44L47.75,130.78L47.48,130.82L47.39,130.94L47.12,130.87L46.78,130.9L46.67,131.01L46.73,131.31L47.21,131.32L47.2,131.87L47.26,132.26L47.15,132.49L47.14,133.19L47.18,133.61L47.28,133.86L47.23,134.09L47.01,134.13L46.81,134.26L46.61,134.5L46.67,134.65L46.64,135.43L46.79,135.5L46.66,135.72L46.78,135.88L46.71,136.13L46.49,136.53L46,137.04L45.79,137.16L45.7,137.54L45.7,137.86L45.61,138.17L45.59,138.52L45.51,138.94L45.5,139.37L45.35,139.79L45.41,140.2L45.07,140.65L45.07,140.87L44.91,141.29L44.63,141.72L44.57,142.06L44.47,142.15L44.23,142.72L43.87,143.24L43.79,143.48L43.56,143.86L43.4,143.99L43.13,144L43.05,143.88L42.69,143.66L42.71,143.43L42.6,143.11L42.52,143.07L42.39,142.75L42.44,142.54L42.36,142.5L42.37,141.72L42.44,141.41L42.76,140.89L42.97,140.67L43.2,140.27L43.3,139.81L43.17,139.17L43.22,138.81L43.26,138.2L43.33,138.06L43.3,137.88L43.4,137.33L43.25,137.2L43.22,137L43.38,137.03L43.61,136.85L43.57,136.78L43.2,136.82L43.07,136.68L42.58,136.5L42.34,136.06L42.39,135.82L42.68,135.24L42.68,135.1L42.81,134.84L42.8,134.56L42.93,134.24L42.94,133.87L43.02,133.71L43.23,133.57L43.27,133.39L43.03,133.2L42.97,132.87L42.81,132.34L43.03,131.74L43.21,131.53L43.52,131.27L43.6,131.08L44.05,130.63L44.15,130.43L44.28,130.38L44.24,129.87L44.35,129.74L44.26,129.21L44.37,129.07L44.33,128.66L44.46,128.4L44.9,127.84L45.54,127.34L45.88,126.87L46.51,126.24ZM49.42,125.33L49.24,125.27L49.36,125.04L49.49,125.26ZM99.33,1.44L99.43,1.7L99.58,1.85L99.63,2.33L99.75,2.48L100.01,2.54L100.35,2.51L100.71,2.59L100.87,2.88L100.72,3.21L100.27,3.67L100.24,3.82L100.46,3.85L100.27,4.1L100.44,4.17L100.59,4.56L100.59,4.74L100.78,4.89L100.93,5.18L100.94,5.31L100.46,5.38L100.49,5.53L100.87,5.33L101.1,5.38L101.45,5.2L101.66,5.34L101.57,5.97L100.95,6.27L100.75,6.31L100.48,6.55L100.65,6.76L100.56,7.16L100.58,7.49L100.71,7.9L100.71,8.06L100.59,8.27L100.56,8.49L100.26,8.96L100.09,9.3L100.06,9.51L99.92,9.62L99.45,9.66L99.2,9.76L98.92,9.78L98.66,9.88L98.46,10.17L98.3,10.25L98.01,10.53L97.8,10.89L97.39,11.19L97.12,11.24L97,11.15L96.61,11.23L96.09,11.52L95.92,11.74L95.53,11.67L95.31,11.57L95.29,11.28L95.03,10.84L95.11,10.67L95.11,10.34L95.28,10.14L95.14,9.58L95,9.41L94.94,9.03L94.48,8.85L94.6,8.1L94.79,7.99L94.8,7.67L94.9,7.47L94.94,7.1L94.9,6.86L94.81,6.77L94.81,6.52L94.9,6.34L94.89,6.14L95.02,5.91L95.04,5.64L95.22,5.51L95.4,5.16L95.68,4.38L95.76,4.4L96.04,4.12L96.23,3.82L96.42,3.78L96.66,3.6L96.83,3.69L97.05,3.61L97.16,3.87L97.29,3.94L97.62,3.98L97.92,3.91L98.19,3.69L98.47,3.21L98.45,2.44L98.53,2.27L98.47,2.06L98.95,1.78L98.98,1.43L99.24,1.38ZM98.34,0.04L98.41,0.11L98.63,0.02L98.65,0.15L98.32,0.46L98.27,0.7L98.35,0.98L98.28,1.21L98.51,1.18L98.69,1.3L98.54,1.45L98.34,1.95L98.12,1.86L97.93,1.96L97.74,1.94L97.42,2.09L97.26,1.7L97.07,1.72L97.04,1.59L96.83,1.43L96.8,0.98L96.97,0.52L97.31,0.39L97.29,0.2L97.65,0.23L97.84,0.12L98,0.16L98.28,0Z" fill="#B3CFC0" stroke="#007139" stroke-width="0.5"/></svg>