<svg xmlns="http://www.w3.org/2000/svg" width="144" height="144" viewBox="0 0 144 144"><path d="M102.74,15.76L103.13,16.09L103.76,15.96L103.75,21.9L103.74,34.52L103.72,43.66L104.47,43.63L105.09,44.23L103.32,45.75L102.28,46.13L101.88,46.7L101.94,47.05L101.58,47.55L101.21,47.54L100.43,47L99.96,47.95L99.39,48.2L98.89,48.82L98.87,50.46L98.7,50.92L98.22,50.56L97.88,50.93L97.78,51.54L98.34,53.43L98,53.74L97.11,53.27L96.86,53.37L96.21,52.91L95.51,53.16L94.71,52.85L93.67,53.08L93.27,53.42L93.26,53.86L92.38,54.5L91.98,54.59L91.3,53.88L90.82,52.68L90.53,52.81L95.36,65.93L95.02,66.07L95,79.29L94.62,80.14L94.32,80.11L93.12,80.5L92.7,81.11L92.03,81.61L91.55,82.5L90.23,83.33L89.86,83.35L89.07,83.91L87.86,83.72L85.73,80.47L84.9,79.76L84.5,79.72L83.93,80.14L83.08,79.89L82.61,79.47L82.03,78.24L81.91,77.37L81.66,76.63L81.2,76.4L81.14,75.47L72.17,75.42L71.64,74.75L71.27,74.74L70.2,74.06L70.46,73.22L70.02,72.87L69.78,71.6L70.29,71.24L70.23,70.81L70.63,70.27L70.58,69.67L70.85,69.2L70.77,68.55L70.44,68.03L69.82,67.88L69.55,67.11L69.52,65.38L68.96,65.05L68.83,64.29L60.98,73.09L61.08,72.83L60.17,71.87L60.47,70.9L59.82,70.53L59.88,70L59.6,69.39L58.85,69.38L59.44,68.95L59.13,68.01L59.28,67.75L58.94,67.06L58.15,67L57.16,67.7L57.05,68.52L56.78,69.05L56.82,69.91L56.12,70.63L55.64,70.84L54.31,67.52L54.68,65.67L53.77,65.94L53.47,65.78L53.58,65.37L53.1,65.39L53.16,64.97L52.73,64.84L52.89,65.21L51.93,65.66L48.35,56.22L52.67,52.22L53.06,52.15L53.29,51.4L53.04,50.4L53.78,40.37L60.33,32.22L64.46,27.45L70.18,20.85L77.28,12.64L78.49,12.88L78.63,13.38L80.6,14.01L81.09,14.24L82.63,14.1L82.86,14.41L83.34,14.27L84.17,14.36L84.43,14.19L85.12,14.38L85.45,15.11L85.82,15.48L87.69,15.92L89.23,16.79L90.27,17.55L90.91,17.77L91.42,18.36L91.78,18.27L92.14,18.55L92.52,18.47L93.52,18.83L93.76,18.58L95.05,18.61L95.67,18.07L97.02,18.15L97.38,18.4L98.61,18.09L99.3,18.1L100.09,17.65L100.88,17.01L101.31,17.16L102.12,16.91L102.5,15.88ZM53.78,40.37L53.04,50.4L53.29,51.4L53.06,52.15L52.67,52.22L48.35,56.22L51.93,65.66L52.04,65.89L51.15,65.75L50.73,66.21L50.13,65.89L49.93,66.12L48.76,65.81L48.41,66.29L47.77,66.08L47.72,65.78L47.13,65.12L46.93,65.62L46.03,65.17L45.85,64.55L45.08,64.55L45,64.25L44.61,64.49L44.05,64.27L42.98,64.22L42.72,63.86L42.05,63.94L41.59,64.24L41.03,64.97L39.06,65.32L38.34,64.69L38.24,63.93L37.87,63.39L36.79,62.98L36.56,62.62L35.93,62.97L35.42,62.66L34.69,62.94L33.92,63.69L33.34,63.65L32.91,63.94L32.6,64.63L26.36,58.99L18.54,51.92L19.25,51.6L19.81,51.14L20.1,50.05L20,49.14L20.2,48.69L20.64,48.61L21.3,47.7L21.95,47.75L22.58,47.46L23.25,47.72L23.54,48.34L24.57,48.21L25.71,47.19L26.04,46.34L26.7,45.44L27.3,44.99L27.76,44.91L27.95,43.92L28.27,43.94L28.13,42.62L28.47,42.33L28.41,41.85L28.95,41.38L29.55,42.18L29.98,42.13L29.99,41.81L29.26,40.76L29.29,40.28L30.11,39.96L30.36,40.07L30.42,40.68L30.2,41.65L30.7,42.09L31.72,42.56L32.46,42.17L31.96,41.23L31.36,41L31.6,40.58L31.24,40.54L31.18,39.55L30.37,39.17L30.23,38.08L29.51,38.11L29.49,37.49L29.82,37.35L29.9,35.87L29.47,35.06L30.55,34.97L30.41,34.75L30.55,33.88L30.8,34.01L30.77,33.31L31.53,32.15L31.62,31.25L32.28,30.81L32.19,30.34L32.67,29.42L32.64,27.62L33.38,26.89L33.69,26.79L33.74,25.92L34.36,24.9L34.42,23.26L35.14,22.3L35.57,22.2L36.53,20.98L36.29,20.5L36.42,20.2L36.17,19.65L36.58,18.43L36.24,17.76L35.96,15.58L36.17,15.1L36.89,15.09L37.47,14.87L37.48,15.12L38.22,15.4L38.5,15.87L39.12,16.34L39.79,15.94L41.14,17.26L41.9,17.5L42.24,17.96L42.47,17.84L42.76,18.62L42.31,19.25L42.23,20.21L45.36,25.55L50.14,33.71ZM51.93,65.66L52.89,65.21L52.73,64.84L53.16,64.97L53.1,65.39L53.58,65.37L53.47,65.78L53.77,65.94L54.68,65.67L54.31,67.52L55.64,70.84L56.12,70.63L56.82,69.91L56.78,69.05L57.05,68.52L57.16,67.7L58.15,67L58.94,67.06L59.28,67.75L59.13,68.01L59.44,68.95L58.85,69.38L59.6,69.39L59.88,70L59.82,70.53L60.47,70.9L60.17,71.87L61.08,72.83L60.98,73.09L68.83,64.29L68.96,65.05L69.52,65.38L69.55,67.11L69.82,67.88L70.44,68.03L70.77,68.55L70.85,69.2L70.58,69.67L70.63,70.27L70.23,70.81L70.29,71.24L69.78,71.6L70.02,72.87L70.46,73.22L70.2,74.06L71.27,74.74L71.64,74.75L72.17,75.42L81.14,75.47L81.2,76.4L81.66,76.63L81.91,77.37L82.03,78.24L82.61,79.47L83.08,79.89L83.93,80.14L84.5,79.72L84.9,79.76L85.73,80.47L87.86,83.72L89.07,83.91L89.86,83.35L90.23,83.33L91.55,82.5L92.03,81.61L92.7,81.11L93.12,80.5L94.32,80.11L94.62,80.14L95,79.29L94.98,87.27L94.98,95.36L95.01,95.64L94.36,95.91L93.85,96.41L92.79,97.13L92.89,98.12L92.53,99.03L91.93,99.58L90.97,99.75L90.48,100.29L89.38,100.22L89,100.8L89.66,101.38L90.49,101.42L90.89,101.69L91.44,103.28L90.97,103.87L90.28,104.3L89.83,104.08L88.92,104.42L88.94,105.08L88.34,105.04L87.87,105.36L87.57,105.12L87.76,104.48L87.22,104.14L86.5,104.36L86.57,105.12L86.8,105.54L85.99,106.39L85.66,106.28L86.13,107.02L87.26,106.77L87.39,106.24L88.06,106.72L88.51,106.59L88.22,107.75L87.19,107.78L87.2,108.09L86.71,108.31L86.75,108.72L86.38,108.72L86.63,109.25L85.94,109.46L85.37,108.79L84.78,108.56L84.21,108.65L83.56,109.81L83.14,109.88L82.51,109.66L81.98,110.09L81.34,110.22L81.09,110.61L81.31,110.94L82.2,111.2L82.97,110.94L83.15,111.3L82.94,112.01L82.12,112.38L80.53,112.2L80.17,110.97L79.48,110.74L78.03,111.39L77.42,112.11L76.91,111.96L76.82,111.51L77.52,110.62L77.49,110.13L77.16,109.36L76.6,108.72L76.25,108.02L74.77,106.77L74.32,106.1L73.98,106.25L73.97,106.86L73.38,106.46L72.88,106.38L72.48,106.71L72.36,107.36L72.1,107.67L71.56,107.54L70.98,106.67L70.64,105.62L69.79,104.66L69.29,104.51L68.51,105.11L68.07,105.82L67.53,105.92L67.06,105.08L65.9,104.07L65.27,103.21L64.87,103.06L63.97,103.33L63.44,103.65L63.15,104.4L63.89,104.41L64,104.85L63.47,105.19L61.95,105.66L61.7,106.49L61.01,106.46L60.81,105.69L60.38,105.22L60.36,104.85L59.69,104.39L59.32,103.88L59.24,103.2L58.81,102.77L59.06,101.95L58.98,101.08L58.64,100.64L58.5,99.76L57.27,99.42L57.11,98.59L56.34,98.12L55.92,97.53L55.81,97.06L56.36,96.32L56.98,95.95L57.79,96.35L58.21,95.64L58.01,95.1L57.12,94.89L56.54,93.91L56.72,93.65L56.64,92.81L56.01,92.47L55.28,92.36L54.69,91.75L54.9,91.14L54.3,90.75L53.58,90.69L52.82,91.13L52.75,91.82L53,92.34L52.27,92.69L51.33,92.08L51.23,91.63L51.74,91.41L51.97,90.94L51.46,90.73L50.64,91.01L50.16,90.52L49.29,90.9L49.13,89.55L48.62,89.51L48.15,90.41L47.56,90.26L47.04,89.01L47.18,87.85L46.55,87.34L46.15,86.74L45.49,86.36L45.16,86.43L45.39,87.01L44.85,87.19L43.95,87.84L43.68,88.23L43.28,87.7L42.7,88.04L42.1,87.57L41.33,87.72L40.77,87.61L40.58,87.32L40.9,86.78L40.83,86.35L40.13,86.15L39.2,85.49L39.56,84.93L39.45,84.47L38.91,83.84L38.52,84.03L38.74,84.47L37.83,84.35L37.39,84.04L37.45,83.52L37.19,83.02L35.99,82.52L35.91,83.83L35.24,84.36L33.94,84.53L33.43,84.06L33.07,84.01L33.16,83.62L33.63,83.49L33.65,82.95L33.08,82.54L32.8,82.62L32.38,84.12L32.01,84.2L31.95,84.72L31.61,84.95L30.98,84.86L30.5,85.36L30.16,85.29L29.8,84.78L30.26,84.52L30.62,83.91L30.37,83.39L29.84,83.07L28.82,83.13L27.94,83.45L27.82,83.2L28.37,82.69L28.38,81.97L29.01,81.57L29.05,81.15L28.64,81.21L27.14,82.61L26.84,82.68L25.81,82.45L26.48,82.28L26.61,82.01L26.22,81.74L26.21,81.19L25.48,81.46L24.96,81.04L23.12,80.25L21.88,78.25L22.28,77.87L22.89,77.69L23.07,77.36L22.82,76.72L21.85,77.15L21.57,78.05L21.07,77.99L20.8,77.65L20.73,76.14L20.02,76.33L19.16,75.97L19.36,75.52L19.85,75.39L20.16,74.6L19.08,74.73L18.04,74.32L18.06,74.65L18.61,74.97L18.45,75.42L17.3,75.83L16.33,75.2L17.12,74.66L17.25,74.32L17.1,73.38L17.66,72.92L16.97,72.83L16.64,72.58L16.62,71.51L16.2,70.77L14.84,70.22L14.82,71.07L14.14,71.31L13.58,71.05L13.38,70.61L14.19,70.21L14.09,69.75L13.16,69.59L13.06,68.94L13.75,68.12L13.07,66.92L13.05,66.49L12.64,65.77L12.38,65.85L12.44,66.62L11.92,67.01L11.55,66.38L10.38,65.97L10.45,65.06L9.67,64.79L9.48,64.51L10.04,64.31L10.41,63.88L10.78,63.07L10.24,63.07L10,61.91L9.22,62.08L8.53,61.67L18.54,51.92L26.36,58.99L32.6,64.63L32.91,63.94L33.34,63.65L33.92,63.69L34.69,62.94L35.42,62.66L35.93,62.97L36.56,62.62L36.79,62.98L37.87,63.39L38.24,63.93L38.34,64.69L39.06,65.32L41.03,64.97L41.59,64.24L42.05,63.94L42.72,63.86L42.98,64.22L44.05,64.27L44.61,64.49L45,64.25L45.08,64.55L45.85,64.55L46.03,65.17L46.93,65.62L47.13,65.12L47.72,65.78L47.77,66.08L48.41,66.29L48.76,65.81L49.93,66.12L50.13,65.89L50.73,66.21L51.15,65.75L52.04,65.89ZM85.94,109.46L86.63,109.25L86.38,108.72L86.75,108.72L86.71,108.31L87.2,108.09L87.19,107.78L88.22,107.75L88.51,106.59L88.06,106.72L87.39,106.24L87.26,106.77L86.13,107.02L85.66,106.28L85.99,106.39L86.8,105.54L86.57,105.12L86.5,104.36L87.22,104.14L87.76,104.48L87.57,105.12L87.87,105.36L88.34,105.04L88.94,105.08L88.92,104.42L89.83,104.08L90.28,104.3L90.97,103.87L91.44,103.28L90.89,101.69L90.49,101.42L89.66,101.38L89,100.8L89.38,100.22L90.48,100.29L90.97,99.75L91.93,99.58L92.53,99.03L92.89,98.12L92.79,97.13L93.85,96.41L94.36,95.91L95.01,95.64L95.18,95.86L94.83,96.91L94.21,97.75L94.72,98.82L95.57,99.21L95.98,99.66L97.18,100.45L97.35,101.09L97.73,101.25L98.37,102.28L99.19,102.78L99.32,103.28L99.83,103.39L99.85,103.86L100.5,104.76L101.32,105.28L102.34,105.29L104.04,105.46L104.47,106.38L104.4,106.82L105.07,106.79L106.09,107.3L106.02,107.52L106.63,107.81L106.85,107.62L107.77,108.39L108.32,109.06L108.48,109.64L109.23,110.15L109.81,110.2L110.64,110.53L112.47,111.47L112.57,111.89L112.97,112.19L113.99,112.29L113.83,113.85L114.69,114.58L114.68,115.78L114.31,116.51L114.51,116.52L115.21,117.34L115.81,117.72L115.52,117.96L116.11,118.28L115.53,118.93L115.6,119.41L115.27,119.33L115.22,120.23L114.61,120.86L114.07,122.24L113.52,122.26L113.4,122.65L113.75,122.68L113.79,123.35L114.16,123.58L113.94,123.93L114.33,124L114.45,124.78L115.03,124.6L115.18,125.44L115.59,125.42L116.27,126.23L115.62,127.1L116.03,127.47L116.63,127.61L116.81,128.07L117.46,128.12L117.51,128.8L117.87,129.44L117.5,129.61L117.58,130.83L118.41,131.05L118.44,131.48L119.43,131.85L120.43,132.68L120.24,133.37L121.07,133.98L121.49,133.71L121.95,134.31L121.8,134.57L122.29,134.64L121.65,134.86L121.74,135.08L121.31,135.6L121.93,135.7L122.17,136.24L122.14,137.27L120.9,137.21L120.44,137.5L120.09,138.19L120.21,138.93L120.57,139.63L120.45,140.3L119.54,140.44L119.35,140.88L119.87,141.04L120.28,141.58L120.21,142.82L119.62,143.43L119.23,143.57L118.33,143.5L117.11,142.48L116.13,142.6L115.92,142.45L115.42,140.89L114.81,140.48L113.63,141.28L112.87,141.56L112.95,142.72L112.84,143.35L112.29,144L111.64,143.97L111.32,143.7L110.98,142.96L110.91,142.37L111.06,140.82L110.98,139.27L111.86,139.28L112.12,139.94L112.3,139.17L110.92,137.73L109.9,136.2L109.06,135.8L108.58,135.98L107.95,135.33L106.95,135.72L107.3,136.93L107.75,137.44L108.38,137.48L108.62,137.9L108.24,138.33L107.09,138.31L106.43,137.87L105.11,135.67L104.8,135.38L104.02,135.36L103.43,135.81L102.74,137.33L101.88,137.66L101.04,137.62L99.81,138.3L99.37,138.37L98.62,138.09L98.31,137.56L98.47,136.75L99.02,136.1L99.58,135.68L99.53,135.11L99.02,134.38L99.19,133.76L100.5,132.94L101.13,133.26L101.31,133.07L101.04,132.54L99.96,131.89L99.57,131.8L98.78,132.76L97.56,133.1L96.75,132.8L96.71,132.46L97.03,131.82L96.67,131.45L96.02,131.48L95.9,131.89L96.06,132.71L95.85,133.13L95.11,133.24L94.71,132.92L94.21,132.14L93.56,131.81L92.66,132.08L91.71,132.94L90.95,134.09L91.31,134.96L91.74,135.04L92.64,134.57L93.24,134.67L93.56,135.14L93.62,135.68L93.22,136.37L92.11,137.52L91.79,138.5L91.38,139.01L90.52,139.22L89.66,139.01L89.3,138.47L89.33,137.4L88.47,137.27L87.57,136.95L87.12,136.15L87.15,135.77L87.59,135.15L88.31,134.58L88.58,133.74L88.14,133.34L87.47,133.49L87.11,134.08L87.01,134.65L86.66,135L85.95,135.01L85.42,134.77L84.6,134.03L83.88,133.16L83.68,132.63L84.16,131.36L84.71,131.25L85.29,131.51L85.7,131.43L86.03,130.38L86.43,130L87.26,129.57L87.37,129.01L86.8,128.46L86.06,127.15L85.61,126.66L84.94,126.28L84.36,125.7L84.12,125.08L84.21,123.89L84.41,123.35L85.06,123.01L85.82,123.13L86.21,122.78L86.18,122.43L85.65,121.65L85.7,120.93L86.01,120.14L85.98,119.54L85.69,119.01L85.89,118.71L85.95,117.86L85.71,117.43L85.9,116.85L85.53,115.89L84.8,114.91L84.14,114.82L83.88,115.12L83.86,116.1L83.54,116.29L82.9,115.8L82.85,115.33L83.12,114.51L84.34,112.89L85.85,112L86.38,111.06L86.95,110.96L87.96,111.38L88.33,111.01L88.31,110.47L87.91,109.83L87.34,109.56L86.56,109.99L86.21,109.94ZM102.74,15.76L102.5,15.88L102.12,16.91L101.31,17.16L100.88,17.01L100.09,17.65L99.3,18.1L98.61,18.09L97.38,18.4L97.02,18.15L95.67,18.07L95.05,18.61L93.76,18.58L93.52,18.83L92.52,18.47L92.14,18.55L91.78,18.27L91.42,18.36L90.91,17.77L90.27,17.55L89.23,16.79L87.69,15.92L85.82,15.48L85.45,15.11L85.12,14.38L84.43,14.19L84.17,14.36L83.34,14.27L82.86,14.41L82.63,14.1L81.09,14.24L80.6,14.01L78.63,13.38L78.49,12.88L77.28,12.64L70.18,20.85L64.46,27.45L60.33,32.22L53.78,40.37L50.14,33.71L45.36,25.55L42.23,20.21L42.31,19.25L42.76,18.62L42.47,17.84L42.83,17.76L43.13,17.22L44.45,16.16L44.86,15.38L46.31,14.15L47.94,13.45L48.03,12.95L48.55,12.87L49.45,13.03L49.74,12.5L50.4,11.95L50.69,12.28L50.95,11.97L51.4,12.03L51.72,11.45L51.9,11.71L52.46,11.74L53.38,11.53L54.09,11.12L54.41,10.44L55.05,10.44L55.94,9.66L56.09,9.25L56.75,9L56.95,8.57L57.67,8.44L57.51,8.04L57.9,7.84L58.3,6.88L59.18,6.97L59.32,7.46L60.15,6.96L60.82,7.4L60.71,7.03L61.37,7.46L61.77,7.28L62.17,7.61L62.37,7.11L63.04,7.33L63.52,6.65L63.95,7.03L63.94,7.41L64.73,7.44L64.68,6.89L65.1,6.81L66.09,7.14L66.93,7.94L67.28,7.47L67.93,7.75L68.23,7.25L68.69,7.57L69.33,7.71L69.42,7.04L70.43,6.89L71.32,6.17L71.67,6.51L72.4,6.43L72.61,6.07L73.1,6.2L73.7,5.51L74.68,5.38L74.72,6L75.18,5.68L75.63,5.73L76.15,5.29L76.23,4.95L76.73,5.12L77.1,4.78L76.77,4.24L77.21,4.02L77.84,4.05L78.1,3.52L78.67,4.07L79.69,3.55L80.06,4.1L80.58,4.11L80.57,3.3L81.05,3.36L81.21,4.15L81.95,3.84L82.22,3.97L82.27,3.48L82.7,3.78L83,3.59L83.22,2.94L83.69,3.2L83.71,2.91L84.72,2.85L85.56,2.49L85.7,2.88L86.32,2.19L86.68,2.43L87.05,2L87.66,2.6L87.95,2.4L89.19,2.4L89.6,1.48L89.8,1.66L90.09,0.83L91.36,0.51L92.07,0L92.32,0.11L91.86,0.93L91.74,2.11L92.11,2.88L92.17,3.41L90.92,4.38L91.06,5.05L90.83,5.65L90.15,5.95L89.84,6.38L89.94,6.98L89.42,7.7L89.19,8.49L89.44,9.19L90.57,9.28L91.67,10.57L92.2,10.69L92.92,11.72L93.55,12.19L93.96,12.18L94.67,13.23L95.92,13.62L96.34,13.91L96.89,13.85L97.3,14.29L98.13,14.68L99.21,14.49L100.01,14.56L100.67,14.44L102.25,15.41L102.39,15.19ZM95.36,65.93L90.53,52.81L90.82,52.68L91.3,53.88L91.98,54.59L92.38,54.5L93.26,53.86L93.27,53.42L93.67,53.08L94.71,52.85L95.51,53.16L96.21,52.91L96.86,53.37L97.11,53.27L98,53.74L98.34,53.43L97.78,51.54L97.88,50.93L98.22,50.56L98.7,50.92L98.87,50.46L98.89,48.82L99.39,48.2L99.96,47.95L100.43,47L101.21,47.54L101.58,47.55L101.94,47.05L101.88,46.7L102.28,46.13L103.32,45.75L105.09,44.23L105.59,44.21L106.14,43.22L106.9,42.67L108.16,42.1L109.12,42.33L109.76,41.88L110.09,41.96L109.86,42.78L109.95,43.72L111.23,43.97L111.49,43.51L112.5,43.14L113.01,43.32L113.65,42.81L114.23,42.79L114.8,43.11L115.58,43.81L117.98,43.91L119.44,43.58L119.86,43.76L120.53,43.69L121.66,43.9L121.78,44.87L122.56,45.25L123.22,44.41L123.99,43.8L124.26,43.18L124.42,43.54L125.09,43.59L125.56,43.36L126.01,43.49L126.6,43.21L127.25,43.78L128.02,44.69L129.96,44.61L129.93,45.09L131.33,46.26L131.93,47.2L131.11,47.89L131.6,48.61L133.09,49.22L133.36,49.57L133.21,49.88L132.66,49.8L132.24,50.18L132.25,50.68L132.67,51.28L133.75,52.14L134.48,52.11L134.67,52.73L134.28,53.75L133.76,53.57L133.29,53.85L133.28,54.85L133.91,55.6L134.17,56.63L134.11,57.2L133.54,57.66L132.93,57.5L132.4,58.11L132.4,58.66L132.7,59.41L133.53,59.54L134.47,60.56L134.99,61.61L135.43,62.07L135.47,62.86L135.16,63.01L134.71,62.5L133.8,62.43L133.61,62.14L133.15,62.39L132.6,62.1L131.71,63.01L131.84,64.19L131.36,64L130.34,64.48L130.03,64.06L129.51,64.24L128.89,64.18L128.73,64.38L128.17,64.19L127.71,64.28L128.18,63.65L127.93,62.82L128.14,62.33L127.59,62.32L126.57,63.26L126.54,62.7L126.11,62.59L125.53,63.33L125.33,63.84L125,63.71L124.46,62.91L123,61.69L122.48,60.61L121.82,60.4L121.56,60.08L121.69,59.56L120.72,59.28L120.39,58.52L119.61,58.57L119.29,58.97L118.67,59.2L117.37,60.07L117.26,61L115.91,60.97L115.9,61.36L114.78,61.99L114.88,62.82L114.26,62.88L114.08,63.87L113.56,62.97L113.16,63.23L112.35,62.07L112.27,61.67L111.46,61.7L111.4,61.52L110.63,61.68L110.65,62.13L109.92,62.22L109.42,62.98L109.09,63.78L108.32,64.04L107.98,63.6L107.15,64.33L106.51,64.64L106.26,65.09L105.62,65.45L105.58,65.7L105.11,65.04L104.74,64.84L104.23,65.05L103.48,65L103.17,65.42L102.77,65.22L101.96,65.46L101.53,65.07L101.27,65.3L100.63,64.97L100.78,65.32L100.1,66.02L99.85,66.51L98.75,66.14L98.61,65.71L97.97,65.42L97.03,65.61L97.41,66.08L97.24,66.62L96.81,66.89L96.24,66.9L96.13,66.37Z" fill="#B3CFC0" stroke="#007139" stroke-width="0.5"/></svg>