<svg xmlns="http://www.w3.org/2000/svg" width="144" height="144" viewBox="0 0 144 144"><path d="M30.19,48.07L28.88,48.61L31.15,52.34L33.43,54.07L31.04,54.07L30.4,52.57L29.55,52.19L28.61,50.65L28.38,49.36L26.95,47.1L25.14,46.97L23.69,45.16L19.21,48.15L17.57,46L17.98,43.83L17.03,43.19L19.66,39.35L17.56,38.84L16,38.94L15.63,37.96L14.25,37.63L13.34,35.95L12.15,35.56L12.17,34.6L11.44,33.95L12.98,32.37L17.54,30.76L21.06,29.3L21.96,28.34L23.31,28.83L24.15,30.17L26.29,31.72L25.95,33.51L26.46,34.18L25.87,35.28L26.87,38.34L27.95,39.36L27.27,43.55L26.64,44L27.65,46.81L29.89,47.25ZM10.92,36.13L10.53,37.38L10.6,39.39L9.52,41.64L7.65,39.85L7.14,39.97L8.85,38.82L9.27,37.54L8.77,36.91L9.25,35.8L9.64,36.63ZM22.93,63.58L22.9,64.27L17.88,69.72L16.92,69.37L14.71,70.87L12.33,70.47L10.36,70.72L8.07,70.26L7.12,67.43L4.17,73.37L3.51,72.84L3.68,71.47L2.43,68.85L2.43,67.53L3.07,67.18L2.93,65.89L1.34,65.38L0,64.3L2.05,56.1L3.65,55.58L2.97,54.51L2.98,52.7L4.11,52.11L4.91,50.9L5.62,51.86L7.98,52.73L8.88,52.15L10.18,52.64L10.93,53.94L11.03,56.35L12.69,58.27L13.95,57.84L18.11,57.33L21,59.39L21.37,61.08L23.02,61.33ZM17.88,69.72L22.9,64.27L22.93,63.58L24.76,64.4L25.5,65.31L40.88,62.98L42.1,64.71L42.74,63.41L47.65,64.6L47.85,65.87L49.69,65.81L53.07,67.78L54.53,66.07L55.94,67.61L57.02,67.66L59.67,70.47L59.89,72.12L60.89,72.53L44.87,75.3L44.27,74.77L43.39,75.51L41.13,74.33L39.82,74.07L39.79,73.1L37.63,72.8L36.73,74.68L35.32,74.55L33.35,75.14L33.34,81.06L32.43,80.31L31.64,81.18L29.42,81.29L28.04,80.31L26.69,80.93L25.95,82L24.44,80.45L23.49,80.35L22.82,77.21L21.29,69.69L18.3,70.31ZM31.04,54.07L33.43,54.07L33.54,54.87L34.85,56.6L38.15,58.56L41.12,61.41L40.88,62.98L25.5,65.31L24.76,64.4L22.93,63.58L23.02,61.33L21.37,61.08L21,59.39L18.11,57.33L29.96,57.62L30.24,56.9L29.06,55.48L28.67,54.07ZM33.43,54.07L31.15,52.34L28.88,48.61L30.19,48.07L33.45,50.04L33.82,49.27L36.66,49.25L36.85,50.2L38.26,50.11L39.04,49.22L42.38,49.22L43.93,47.14L45.69,48.13L46.65,47.33L47.86,47.19L47.36,45.91L49.06,46.43L50.82,46.04L51.34,47.24L51.67,45.39L53.17,46.98L54.43,47.6L53.42,49.24L55.2,49.89L55.61,51.2L56.68,51.62L57.26,53.36L58.31,53.85L59.81,52.98L61.5,55.42L63.53,54.34L64.77,54.57L65.7,53.87L67.47,54.11L68.07,55.43L70.97,55.87L70.93,57.46L72.43,58.45L73.33,57.76L73.95,58.8L75.92,59.67L77.58,59.01L78.64,59.16L79.55,58.38L81.42,60.1L82.69,60.22L78.72,64.9L74.49,70.14L60.89,72.53L59.89,72.12L59.67,70.47L57.02,67.66L55.94,67.61L54.53,66.07L53.07,67.78L49.69,65.81L47.85,65.87L47.65,64.6L42.74,63.41L42.1,64.71L40.88,62.98L41.12,61.41L38.15,58.56L34.85,56.6L33.54,54.87ZM44.87,75.3L60.89,72.53L74.49,70.14L78.72,64.9L82.69,60.22L83.06,61.21L82.46,62.98L84.18,63.65L85.21,65.57L83.99,67.07L84.45,68.41L85.51,69.54L84.71,70.34L85.68,70.83L87.97,70.48L89.86,69.46L89.78,71.12L93.03,70.8L94.64,73.33L94.61,74.4L93.46,74.82L93.61,76.23L94.9,77.73L93.68,79.35L95.62,80.92L98.73,80.73L100.82,82.24L105.47,82.44L106.32,82.79L108,84.56L107.89,87.5L106.46,87.34L107.38,88.08L108.92,88.28L108.64,89.15L106.87,89.86L108.86,91.83L108.27,94.04L109.21,93.15L110.63,93.88L109.98,95.27L114.35,96.88L114.34,95.28L115.36,95.91L115.67,97.36L116.73,97.07L117.74,94.48L118.95,95.68L117.91,97.44L119.46,96.54L122.06,96.04L123.99,97.75L125.6,97.51L125.81,98.15L124.69,99.95L127.1,101.69L127.8,100.5L128.8,100.75L129.06,102.59L130.43,102.7L131.37,101.51L132.46,101.63L133.55,103.43L134.84,103.19L136.44,105.8L137.22,106.28L142.34,107.41L144,108.59L134.43,111.32L119.3,115.66L118.64,114.21L118.99,113.3L117.72,113.24L116.44,112.02L116.1,112.58L114.02,111.39L113.51,109.67L112.37,108.49L110.83,107.93L110.84,106.66L109.12,107.63L107.57,107.18L107.74,105.73L106.95,106.63L105.41,105.63L105.65,104.44L104.87,103.72L104.75,102.4L103.69,100.42L102.36,99.75L100.4,101.93L98.98,102L97.9,100.62L97.21,101.31L95.08,99.07L95.25,98.27L93.35,97.81L91.88,96.72L91.16,95.55L87.84,94.38L86.83,93.41L85.42,93.39L84.44,95.33L82.25,96.94L78.69,95.42L76.98,95.8L74.7,94.69L74.36,94.06L72.64,93.74L71.67,92.78L69.61,92.77L68.84,91.94L69.11,90.87L68.13,91.03L66.67,89.46L66.18,90.31L65.06,89.8L62.3,90.1L59.17,89.27L58.73,87.93L57.36,85.82L56.09,86.29L55.44,84.82L52.99,82.8L52.55,81.28L50.89,80.84L51.74,80.41L50.63,78.6L49.08,78.36L48.74,77.34L47.42,77.15L46.6,78.07ZM12.17,34.6L12.15,35.56L13.34,35.95L12.59,37.38L13.6,39.75L12.82,40.96L9.52,41.64L10.6,39.39L10.53,37.38L10.92,36.13ZM13.34,35.95L14.25,37.63L15.63,37.96L16,38.94L17.56,38.84L19.66,39.35L17.03,43.19L17.98,43.83L17.57,46L19.21,48.15L16.24,47.54L14.34,46.47L12.27,45.88L12.12,45.24L9.94,44.16L8.7,44.45L9.52,41.64L12.82,40.96L13.6,39.75L12.59,37.38ZM22.82,77.21L23.49,80.35L22.72,79.71L19.55,79.04L18.07,80.18L17.93,80.91L16.74,80.06L14.57,81.15L13.23,80.64L12.2,80.92L10.21,79.9L8.7,79.91L7.81,78.76L6.92,79.48L5.93,79.01L6.4,77.53L7.04,77.93L7.58,76.83L6.98,76.25L8.04,74.95L8.48,76.21L9.77,76.41L10.32,74.95L11.55,75.02L14.21,76.71L14.85,78.44L15.9,78.29L18.34,76.74ZM7.14,39.97L7.65,39.85L9.52,41.64L8.7,44.45L9.94,44.16L12.12,45.24L12.27,45.88L14.34,46.47L11.09,47.59L10.61,48.5L8.94,49.29L6.04,49.32L6.83,48.62L6.34,46.71L5.69,46.97L3.95,44.87L3.7,42.57L4.23,40.52L6.3,39.74ZM4.17,73.37L7.12,67.43L8.07,70.26L10.36,70.72L12.33,70.47L14.71,70.87L16.92,69.37L17.88,69.72L18.3,70.31L21.29,69.69L22.82,77.21L18.34,76.74L15.9,78.29L14.85,78.44L14.21,76.71L11.55,75.02L10.32,74.95L9.77,76.41L8.48,76.21L8.04,74.95L6.98,76.25L7.58,76.83L7.04,77.93L6.4,77.53L5.93,79.01L4.59,79.09L4.55,78.1L3.4,76.41L3.18,75.04L4.22,74.51ZM19.21,48.15L23.69,45.16L25.14,46.97L26.95,47.1L28.38,49.36L28.61,50.65L29.55,52.19L30.4,52.57L31.04,54.07L28.67,54.07L29.06,55.48L30.24,56.9L29.96,57.62L18.11,57.33L13.95,57.84L12.69,58.27L11.03,56.35L10.93,53.94L10.18,52.64L8.88,52.15L7.98,52.73L5.62,51.86L4.91,50.9L4.66,50.04L6.04,49.32L8.94,49.29L10.61,48.5L11.09,47.59L14.34,46.47L16.24,47.54Z" fill="#B3CFC0" stroke="#007139" stroke-width="0.5"/></svg>