<svg xmlns="http://www.w3.org/2000/svg" width="144" height="144" viewBox="0 0 144 144"><path d="M52.97,138.33L51.31,139.93L50.93,137.68L49.41,136.6L47.88,134.58L47.01,133.97L46.68,131.21L45.94,129.16L45.92,127.78L45.21,126.59L45.25,124.13L43.55,124.78L41.71,124.75L40.25,124L39.59,124.24L36.47,126.88L35.64,126.94L32.88,123.13L32.09,121.07L31.9,119.5L32.54,117.37L32.46,115.76L31.6,114.89L29.79,114.16L29.14,113.42L27.38,113.94L26.01,113.6L25.22,114.03L24.61,113.52L24.39,111.83L25.34,110.58L25.17,107.73L26.3,107.33L27.03,103.46L25.36,101.79L26.98,100.37L26.81,99.74L24.95,99.66L24.71,98.8L26.25,99.4L25.95,98.05L24.52,97.43L24.37,96.28L26.28,94.81L27.03,92.59L25.75,89.93L24.29,89.27L24.62,88.83L22.12,88.58L21.77,86.62L20.28,86.26L20.21,85.53L19.05,85L19.03,83.32L17.86,82.87L16.69,83.29L15.9,81.12L15.13,81.66L13.52,80.53L13.28,79.41L14.17,79.24L13.7,78.28L14.39,78.18L12.9,76.02L13.38,75.04L11.76,74.57L11.6,73.47L12.17,72.88L12.12,71.51L10.81,70.94L10.39,68.91L10.77,68.48L10.31,66.79L8.92,66.71L8.05,63.06L6.99,62.5L5.48,59.88L5.59,58.13L6.84,57.28L7.02,56.3L6.3,55.89L6.22,54.11L7.48,53.02L8.13,53.9L8.82,53.4L10.57,53.51L8.87,52.2L8.8,51.53L9.69,48.67L9.64,46.45L8.71,46.45L8.55,47.41L5.88,47.12L5.09,46.41L5.09,45.48L7.52,44.8L9.78,43.79L9.32,42.67L10.19,41.09L9.38,40.94L8.67,39.98L7.79,40.65L6.28,37.4L5.62,36.87L3.95,34.32L3.46,32.13L2.68,32.01L1.8,30.35L0,29.11L1.1,27.82L2.85,26.8L3.4,25.78L4.93,24.35L5.55,22.8L6.52,22.72L7.71,23.74L7.78,21.81L8.78,21.97L10.75,20.18L9.51,16.54L8.06,17.02L7.8,16.49L5.97,16.23L6.32,15.15L7.37,15.69L7.48,14.45L9.19,13.35L9.51,14.48L10.65,15.03L11.35,16L12.55,16.4L14.83,17.86L16.17,18.02L17.17,17.05L16.79,16.27L18.33,14.46L17.23,13.23L17.85,12.28L16.42,12.23L16.01,11.31L16.86,9.63L16.51,8.69L17.81,7.72L18.57,6.51L18.75,7.13L19.92,7.6L21.88,7.57L22.55,7.06L22.22,5.46L23.01,4.67L26.77,4.07L26.72,5.63L27.28,6.2L27.42,7.8L26.04,8.87L25.9,9.75L26.8,11.64L27.08,13.48L27.92,13.74L28.19,14.79L29.53,15.94L31.3,15.65L31.94,16.76L31.77,17.79L32.14,19.49L33.73,21.25L32.43,21.32L29.79,22.17L29.82,24.06L30.68,24.1L31.35,26.82L30.33,28.1L30.62,29.68L32.26,29.63L33.22,29.01L34.74,31.45L34.48,32.65L33.73,33.47L34.94,33.67L37.02,32.89L38.53,34.36L38.52,36.44L37.87,37.72L38.29,37.93L40.89,41.37L42.46,41.39L45.07,42.86L45.67,42.35L47.07,43.96L46.44,44.57L47.85,44.49L47.57,45.25L50.55,46.56L51,45.51L51.96,46.4L51.67,47.72L52.63,47.24L52.63,48.09L54.37,48L54.75,49.96L55.61,50.73L56.21,49.76L57.16,49.47L58.3,50.41L58.27,49.47L59.2,49.07L60.23,49.57L60.27,48.41L61.83,48.52L61.61,47.93L62.85,46.32L63.51,47.39L65.77,46.84L66.6,47.24L67.88,46L69.16,45.73L69.77,46.78L70.64,45.66L73.15,47.11L74.93,46.82L75.71,47.99L75.34,48.72L76.48,48.74L75.84,49.36L76.95,49.9L76.92,50.75L78.11,50.11L80.46,50.31L80.8,51.09L81.83,50.57L82.31,49.05L83.1,49.33L83.66,48.18L85.62,48.37L87.25,46.39L88.13,47.22L90.42,46.54L90.09,45.65L91.02,45.57L91.02,46.32L92.37,47.59L92.44,48.66L91.49,48.97L92.3,50.35L93.22,50.49L93.07,51.24L95.04,52.27L96.12,50.67L95.91,52.08L96.58,51.8L97.05,53.76L98.77,54.72L100.4,54.06L101.98,53.96L102.76,55.23L103.69,54.57L104.38,54.82L104.24,56.41L106.28,56.7L105.28,57.55L105.2,58.4L106.23,58.87L105.8,60.22L106.79,60.61L108.61,58.43L108.77,59.65L108.05,60.92L109.96,61.16L110.74,60.4L112.51,60.57L113.76,61.07L114.07,60.04L113.03,59.15L113.81,58.46L115.01,60.85L116.71,61.61L118.23,61.54L118.86,60.31L120.15,61.03L121.1,60.98L122.11,59.67L122.71,59.8L123.54,58.74L124.04,58.93L124.24,60.5L125.67,61.34L127.23,60.95L128.24,62.7L130.61,62.59L132.4,63.12L133.29,62.6L134.71,62.95L135.54,63.68L137.77,63.05L138.22,63.71L139.99,64.81L140.25,65.84L139.06,67.87L139.08,68.85L140.24,70.18L140.33,72.28L141.2,72.8L142.78,72.94L143.95,75.97L144,77.08L142.98,78.82L143.94,81.29L143.14,83.8L143.66,86.1L141.08,84.55L140.34,82.35L138.55,82.11L135.73,83.63L133.34,85.78L130.88,86.48L130.58,87.15L128.29,87.12L127.75,88.17L128.2,89.19L127.67,90.67L126.71,91.25L124.93,91.53L124.19,93.14L124.41,94.14L126.3,93.38L126.77,93.98L127.29,96.49L126.65,97.27L124.71,95.72L123.64,95.71L122.81,97.47L123.75,98.24L123.45,98.82L121.28,98.57L120.58,99.42L119.08,100.28L116.38,102.6L116.18,100.54L115.83,100.06L114.31,101.23L113.26,101.05L112.69,102.01L111.51,102.87L110.39,104.35L108.91,105.69L108.4,105.58L107.91,102.88L106.43,102.95L105.61,104.06L107.41,105.2L107.23,106.15L105.54,106.14L104.3,107.29L103.29,107.29L102.95,106.65L103.43,104.57L103.13,103.84L101.87,103.88L101.06,105.03L99.63,105.65L98.26,105.51L98.01,104.8L98.66,104.01L97.96,103.45L97.35,104.68L95.75,104.93L94.81,105.54L92.87,105.78L93.08,106.59L95.22,106.58L95.89,108.55L94.92,109.12L93.59,108.08L92.42,108.13L89.51,110.34L87.66,108.1L86.39,107.86L85.87,108.4L86.55,109.49L85.67,111.07L83.82,111.51L83.66,110.23L84.66,109.65L84.81,107.7L83.24,107.12L81.97,107.7L81.91,111.16L80.77,111.58L79.8,110.69L80.5,110.02L80.59,109.01L78.29,108.23L77.19,108.68L77.12,110.36L76.6,111.42L75.38,110.9L75.36,109.84L76.06,108.84L76.25,107.56L75.49,105.51L74.08,105.46L73.77,105.99L74.72,108.78L74.19,110.05L73.25,110.02L72.99,108.35L72.14,107.73L70.79,108.22L69.17,108.08L68.41,108.85L68.78,110.25L67.71,110.58L67.82,108.59L67.1,107.44L66.85,105.44L65.93,105.17L65.12,106.24L63.39,107.01L62.33,108.32L60.75,108.14L60.4,107.38L60.93,106.16L60.85,105.11L59.89,104.8L59.31,105.8L57.25,106.24L55.89,107.59L56.01,108.67L57.53,109.45L57.14,110.73L55.56,111.46L56.21,114.11L55.54,115.4L54.59,115.67L53.91,114.84L52.93,114.62Z" fill="#B3CFC0" stroke="#007139" stroke-width="0.5"/></svg>