<?xml version="1.0" encoding="utf-8"?>
<!-- Generator: Adobe Illustrator 26.5.0, SVG Export Plug-In . SVG Version: 6.00 Build 0)  -->
<svg version="1.1" xmlns="http://www.w3.org/2000/svg" xmlns:xlink="http://www.w3.org/1999/xlink" x="0px" y="0px"
	 viewBox="0 0 1000 794" style="enable-background:new 0 0 1000 794;" xml:space="preserve">
<style type="text/css">
	.st0{display:none;}
	.st1{display:inline;fill:#00634B;stroke:#000000;stroke-miterlimit:10;}
	.st2{fill:#FFFFFF;}
	.st3{fill:#C7F789;}
	.st4{fill:#B3CFC0;}
	.st5{fill:#B3CFC0;stroke:#00634B;stroke-width:0.8;stroke-miterlimit:10;}
</style>
<g id="Capa_2" class="st0">
	<rect x="0.5" y="-0.5" class="st1" width="1080" height="1080"/>
</g>
<g id="Capa_1">
	<g id="Grupo_2091" transform="translate(231.919 0)">
		<g id="Grupo_2087" transform="translate(0 72.455)">
			
				<rect id="Rectángulo_3361" x="520.2" y="114.5" transform="matrix(0.8008 -0.5989 0.5989 0.8008 34.7202 334.9449)" class="st2" width="1.6" height="1.6"/>
			<path id="Trazado_3329" class="st2" d="M487.4,154.5l-1.3-0.8l1.6-2.7l1.3,0.8L487.4,154.5z M491.9,147.1l-1.3-0.8l1.6-2.7
				l1.3,0.8L491.9,147.1z M496.3,139.6l-1.3-0.8l1.6-2.7l1.3,0.8L496.3,139.6z M500.8,132.2l-1.3-0.8l1.1-1.8l1.1-0.8l0.9,1.3
				l-0.8,0.6L500.8,132.2z M506.9,126.7l-0.9-1.3l2.5-1.9l0.9,1.3L506.9,126.7z M513.9,121.5l-0.9-1.3l2.5-1.9l0.9,1.3L513.9,121.5z
				"/>
			<path id="Trazado_3330" class="st2" d="M483.5,160.9h-2v-1.6h1.1l0.6-1l1.3,0.8L483.5,160.9z"/>
			<path id="Trazado_3331" class="st2" d="M476.1,160.9h-3.1v-1.6h3.1V160.9z M467.4,160.9h-3.1v-1.6h3.1V160.9z M458.8,160.9h-3.1
				v-1.6h3.1V160.9z M450.2,160.9h-3.1v-1.6h3.1V160.9z M441.6,160.9h-3.1v-1.6h3.1V160.9z M433,160.9h-3.1v-1.6h3.1L433,160.9z
				 M424.4,160.9h-3.1v-1.6h3.1V160.9z M415.8,160.9h-3.1v-1.6h3.1V160.9z M407.2,160.9H404v-1.6h3.1V160.9z M398.6,160.9h-3.1v-1.6
				h3.1V160.9z"/>
			<path id="Trazado_3332" class="st2" d="M389.2,161.7h-1.6v-2.3h2.3v1.6h-0.8V161.7z"/>
			<path id="Trazado_3333" class="st2" d="M384.2,195.9l-1.1-1.1l2.2-2.3l1.1,1.1L384.2,195.9z M389.2,188.4h-1.6v-3.2h1.6V188.4z
				 M389.2,179.5h-1.6v-3.2h1.6V179.5z M389.2,170.6h-1.6v-3.2h1.6V170.6z"/>
			<path id="Trazado_3334" class="st2" d="M378.9,201.4H377v-1.6h1.2l0.9-0.9l1.1,1.1L378.9,201.4z"/>
			<path id="Trazado_3335" class="st2" d="M371.6,201.4h-3.1v-1.6h3.1V201.4z M363.1,201.4H360v-1.6h3.1L363.1,201.4z"/>
			<path id="Trazado_3336" class="st2" d="M353.7,202.2h-1.6v-2.3h2.3v1.6h-0.8V202.2z"/>
			<path id="Trazado_3337" class="st2" d="M353.7,230.1h-1.6v-3.4h1.6V230.1z M353.7,220.8h-1.6v-3.4h1.6V220.8z M353.7,211.5h-1.6
				v-3.4h1.6V211.5z"/>
			<path id="Trazado_3338" class="st2" d="M354.5,238.4h-2.3V236h1.6v0.8h0.8V238.4z"/>
			<path id="Trazado_3339" class="st2" d="M490.1,238.4H487v-1.6h3.1V238.4z M481.6,238.4h-3.1v-1.6h3.1V238.4z M473.1,238.4H470
				v-1.6h3.1V238.4z M464.7,238.4h-3.1v-1.6h3.1V238.4z M456.2,238.4h-3.1v-1.6h3.1V238.4z M447.7,238.4h-3.1v-1.6h3.1V238.4z
				 M439.2,238.4h-3.1v-1.6h3.1L439.2,238.4z M430.8,238.4h-3.1v-1.6h3.1V238.4z M422.3,238.4h-3.1v-1.6h3.1V238.4z M413.8,238.4
				h-3.1v-1.6h3.1V238.4z M405.4,238.4h-3.1v-1.6h3.1V238.4z M396.9,238.4h-3.1v-1.6h3.1V238.4z M388.4,238.4h-3.1v-1.6h3.1V238.4z
				 M379.9,238.4h-3.1v-1.6h3.1V238.4z M371.5,238.4h-3.1v-1.6h3.1V238.4z M363,238.4h-3.1v-1.6h3.1V238.4z M495.5,238.2l-0.1-1.6
				l3.1-0.2l0.1,1.6L495.5,238.2z M504,237.8l-0.1-1.6l3.1-0.2l0.1,1.6L504,237.8z M512.4,237.4l-0.1-1.6l3.1-0.2l0.1,1.6
				L512.4,237.4z M520.9,237l-0.1-1.6l3.1-0.2l0.1,1.6L520.9,237z"/>
			
				<rect id="Rectángulo_3362" x="529.3" y="235" transform="matrix(0.9988 -4.930301e-02 4.930301e-02 0.9988 -10.9783 26.4219)" class="st2" width="1.6" height="1.6"/>
		</g>
		<g id="Grupo_2088" transform="translate(32.932)">
			
				<rect id="Rectángulo_3363" x="626.2" y="88.6" transform="matrix(0.3572 -0.934 0.934 0.3572 319.5663 643.0326)" class="st2" width="1.6" height="1.6"/>
			<path id="Trazado_3340" class="st2" d="M630,83.7l-1.5-0.6l1.1-3l1.5,0.6L630,83.7z M633.1,75.5l-1.5-0.6l1.1-3l1.5,0.6
				L633.1,75.5z M636.2,67.2l-1.5-0.6l1.1-3l1.5,0.6L636.2,67.2z M639.4,59l-1.5-0.6l1.1-3l1.5,0.6L639.4,59z M642.5,50.8l-1.5-0.6
				l1.1-3l1.5,0.6L642.5,50.8z M645.7,42.6l-1.5-0.6l1.1-3l1.5,0.6L645.7,42.6z"/>
			<path id="Trazado_3341" class="st2" d="M648.8,34.4l-1.5-0.6l0.1-0.3l-0.3,0L647,32l2.8-0.3L648.8,34.4z"/>
			<path id="Trazado_3342" class="st2" d="M616.6,36.4h-2.9v-1.6h3l0.1,1.6L616.6,36.4z M608.3,36.4h-3.1v-1.6h3.1V36.4z
				 M599.9,36.4h-3.1v-1.6h3.1V36.4z M591.5,36.4h-3.1v-1.6h3.1V36.4z M583.1,36.4H580v-1.6h3.1V36.4z M574.7,36.4h-3.1v-1.6h3.1
				V36.4z M566.3,36.4h-3.1v-1.6h3.1V36.4z M622.1,35.9l-0.1-1.6l3-0.3l0.1,1.6L622.1,35.9z M630.4,35.1l-0.1-1.6l3-0.3l0.1,1.6
				L630.4,35.1z M638.8,34.3l-0.1-1.6l3-0.3l0.1,1.6L638.8,34.3z"/>
			<path id="Trazado_3343" class="st2" d="M556.5,37.4l-1.5-0.6l0.8-1.9h2.1v1.6h-1L556.5,37.4z"/>
			
				<rect id="Rectángulo_3364" x="550.7" y="44.2" transform="matrix(0.3709 -0.9287 0.9287 0.3709 305.9054 541.4623)" class="st2" width="3.8" height="1.6"/>
			<path id="Trazado_3344" class="st2" d="M549.4,55.1h-2.1v-1.6h1l0.4-1l1.5,0.6L549.4,55.1z"/>
			<path id="Trazado_3345" class="st2" d="M541.5,55.1h-3.3v-1.6h3.3V55.1z M532.5,55.1h-3.3v-1.6h3.3V55.1z M523.4,55.1h-3.3v-1.6
				h3.3V55.1z M514.4,55.1h-3.3v-1.6h3.3V55.1z M505.3,55.1H502v-1.6h3.3V55.1z M496.2,55.1h-3.3v-1.6h3.3V55.1z M487.2,55.1h-3.3
				v-1.6h3.3V55.1z M478.1,53.6l-2.3-2.3l1.1-1.1l2.3,2.3L478.1,53.6z"/>
			<path id="Trazado_3346" class="st2" d="M471.6,47.2l-1.3-1.3V44h1.6v1.2l0.9,0.9L471.6,47.2z"/>
			<path id="Trazado_3347" class="st2" d="M471.8,38.5h-1.6v-3.1h1.6V38.5z M471.8,29.8h-1.6v-3.1h1.6V29.8z M471.8,21.2h-1.6V18
				h1.6V21.2z"/>
			<path id="Trazado_3348" class="st2" d="M471.8,12.5h-1.6v-0.8h-0.8v-1.6h2.3V12.5z"/>
			<path id="Trazado_3349" class="st2" d="M464.8,11.8h-2.7v-1.6h2.7V11.8z M457.4,11.8h-2.7v-1.6h2.7V11.8z M450,11.8h-2.7v-1.6
				h2.7V11.8z"/>
			<path id="Trazado_3350" class="st2" d="M441.9,12.5h-1.6v-2.3h2.3v1.6h-0.8V12.5z"/>
			<path id="Trazado_3351" class="st2" d="M441.9,26.6h-1.6V24h1.6V26.6z M441.9,19.6h-1.6V17h1.6V19.6z"/>
			<path id="Trazado_3352" class="st2" d="M441.9,33.4h-2.3v-1.6h0.8v-0.8h1.6V33.4z"/>
			<path id="Trazado_3353" class="st2" d="M433.9,33.4h-3.3v-1.6h3.3V33.4z M424.9,33.4h-3.3v-1.6h3.3V33.4z M415.9,33.4h-3.3v-1.6
				h3.3V33.4z"/>
			<path id="Trazado_3354" class="st2" d="M406.2,34.2h-1.6v-2.3h2.3v1.6h-0.8V34.2z"/>
			<path id="Trazado_3355" class="st2" d="M406.2,100.2h-1.6v-3h1.6V100.2z M406.2,92h-1.6v-3h1.6V92z M406.2,83.7h-1.6v-3h1.6V83.7
				z M406.2,75.5h-1.6v-3h1.6V75.5z M406.2,67.2h-1.6v-3h1.6V67.2z M406.2,59h-1.6v-3h1.6V59z M406.2,50.7h-1.6v-3h1.6V50.7z
				 M406.2,42.5h-1.6v-3h1.6V42.5z"/>
			<path id="Trazado_3356" class="st2" d="M404.9,108.7l-1.1-1.1l0.9-0.9v-1.2h1.6v1.9L404.9,108.7z"/>
			<path id="Trazado_3357" class="st2" d="M401,113.7h-1.6v-1.9l1.3-1.3l1.1,1.1l-0.9,0.9L401,113.7z"/>
			<path id="Trazado_3358" class="st2" d="M401.8,117.7h-2.3v-2.3h1.6v0.8h0.8V117.7z"/>
			<path id="Trazado_3359" class="st2" d="M417.2,117.7h-0.4v-0.9l-0.4-0.4l2.3-2.2l1.1,1.1L417.2,117.7z M410.9,117.7h-3.3v-1.6
				h3.3V117.7z M436.4,112.9h-3.3v-1.6h3.3V112.9z M427.3,112.9H424v-1.6h3.3V112.9z"/>
			<path id="Trazado_3360" class="st2" d="M444.6,112.9h-2.3v-1.6h0.8v-0.8h1.6L444.6,112.9z"/>
			<rect id="Rectángulo_3365" x="443" y="102.7" class="st2" width="1.6" height="2.9"/>
			<path id="Trazado_3361" class="st2" d="M444.6,97.8H443v-2.3h2.3V97h-0.8V97.8z"/>
			<path id="Trazado_3362" class="st2" d="M459,97h-2.5v-1.6h2.5V97z M452.2,97h-2.5v-1.6h2.5V97z"/>
			<path id="Trazado_3363" class="st2" d="M465.6,97h-2.3v-1.6h0.8v-0.8h1.6V97z"/>
			<rect id="Rectángulo_3366" x="464.1" y="88.3" class="st2" width="1.6" height="2.3"/>
			<path id="Trazado_3364" class="st2" d="M465.6,84.3h-1.6V82h2.3v1.6h-0.8L465.6,84.3z"/>
			<path id="Trazado_3365" class="st2" d="M483.8,84l-0.7-0.4h-2V82h2.5l1.1,0.7L483.8,84z M475.4,83.5h-3.3V82h3.3V83.5z"/>
			<path id="Trazado_3366" class="st2" d="M490,88.8l-0.3-1.2l-1.1-0.7l0.8-1.3l1.6,1l0.4,1.8L490,88.8z"/>
			<path id="Trazado_3367" class="st2" d="M499.4,151.6l-1.4-0.6l1.1-2.7l1.4,0.6L499.4,151.6z M502.5,144.1l-1.4-0.6l1.1-2.7
				l1.4,0.6L502.5,144.1z M501.2,136.3l-0.7-2.9l1.5-0.4l0.7,2.9L501.2,136.3z M499.4,128.4l-0.7-2.9l1.5-0.4l0.7,2.9L499.4,128.4z
				 M497.5,120.4l-0.7-2.9l1.5-0.4l0.7,2.9L497.5,120.4z M495.6,112.5l-0.7-2.9l1.5-0.4l0.7,2.9L495.6,112.5z M493.7,104.6l-0.7-2.9
				l1.5-0.4l0.7,2.9L493.7,104.6z M491.9,96.7l-0.7-2.9l1.5-0.4l0.7,2.9L491.9,96.7z"/>
			<path id="Trazado_3368" class="st2" d="M496,159.3l-0.9-1.7l0.7-1.8l1.4,0.6l-0.5,1.1l0.5,1.1L496,159.3z"/>
			
				<rect id="Rectángulo_3367" x="499.3" y="164.8" transform="matrix(0.8927 -0.4507 0.4507 0.8927 -20.9556 243.1841)" class="st2" width="1.6" height="1.6"/>
		</g>
		<path id="Trazado_3369" class="st3" d="M587.4,232.6l0.2,2l0.3,0.4l0,1.3l-0.4,2.1l0.6,0.6l-0.8,0.4l0.3,0.4l-0.1,1.2l-0.3,0.1
			l-0.2,0.9l0.1,1.2l-1.4,1.1l0.5,1.7l-0.4,0.7l0.1,1.6l0.3,0.6l-0.2,1l-0.8,0.9l-0.6,2l-0.4,0.8l0.2,0.5l1.7-0.5l0.5,0.7l1.2,0.4
			l0.6,0.6l0.8,0l1.2-1l0.7-0.1l1,0.6l0.1,0.8l0.7,1.2v0.8l-0.8,1.5l0.2,0.7l-0.4,0.6l0.6,1.2l-0.5,1l-0.3,1.1l-0.8,1.7l-0.5,0.6
			l-1.1,0.6l-1.9,1.9v0.6l-0.9,0.8l-0.1,0.6l0.4,1.1l-1.8,2l-1.6,1.3l-1.6,0.1l-1.3-0.4l-0.3-0.5l1.3-1.3l-0.7-1.4l-2.5,0.8
			l-0.5,0.6l-0.3-0.6l-0.9,0.2l-0.2,0.7l-1-0.7l-1.5,0.2l-0.1,0.5l-1.1,0.5l-0.4,0.7l-1.4,0.7l-1.2,1.1l0.2,1.2l-0.2,0.4l-1.7,0.3
			l-1.5,1l-0.6,0.9l-0.5-0.3l-0.8,0.2l-1,1.3l-2.3,0.2l-1.3-0.9l-0.6-1.7l0-2.5l0.8-2.6l0.8-2l0.3-1.7l-0.1-1.2l0.3-1.4l1.1-3.1
			l1.2-2.3l0.8-0.7l1.5,0.1l0.6-0.3l0.2-0.7l0.8-0.9l-0.4-1l0.1-1.7l0.8-1.1l1.2-2.5l0.4-2.2l1-1.9l0.9-1l0.8-0.3l2.2-1.5l-1-1.2
			l0.1-2.2l0.4-0.5l0.9-0.4l-0.2-1.8l0.3-0.9l-0.3-2.1l0.7-0.9l1.8-0.1l0.7-0.5h1.2l1.2-2.1l1.1-0.5l4.1-0.1L587.4,232.6z"/>
		<g id="Grupo_2090" transform="translate(43.86 21.844)">
			<path id="Trazado_3336-2" class="st4" d="M427.6,45.3c-0.6-0.4-1.2-0.7-1.9-1c-0.5-0.1-0.9-0.5-1-1.1c-0.1-0.6-0.6-1.1-1.3-1.1
				c-0.3,0-0.5,0.1-0.7,0.3c-0.4,0.3-0.7,0.6-1,0.9c-0.3,0.4-0.7,0.7-1.1,1c-0.8,0.4-1.1,1.3-1.6,1.9c-0.2,1,0,2-0.6,2.9
				c-0.4,0.5-0.8,1-1.3,1.5c-0.8,0.8-0.9,2-0.3,2.9c-0.2,0.9-0.4,1.7-0.6,2.4c-0.1,0.3-0.2,0.7-0.4,1c-0.6,0.9-0.6,1.4,0.3,1.9
				c0.4,0.2,0.7,0.3,0.6,0.9c0,0.4,0,0.8,0.1,1.2c-0.1,0.8-0.2,1.6-0.2,2.4c0.1,0.5-0.1,1-0.3,1.5c-0.4,0.7-0.8,1.5-1.2,2.3
				c0,0.6,0,1.1,0.1,1.7c0.1,0.3,0.2,0.6,0.4,0.9c0.2,0.3,0.5,0.6,0.9,0.7c0.3,0,0.6-0.1,0.8-0.4c0.5-0.6,0.9-1.2,1.2-1.9
				c0.6-1.3,1.2-2.5,1.8-3.8l0.3-2c0-0.1,0.1-0.2,0.1-0.3c-0.1-1.1,0.4-2.3,1.2-3c0.4-0.4,0.6-0.8,0.7-1.4c0-0.6,0-1.3,0-1.9
				c0.1-0.2,0.2-0.4,0.4-0.6c0.2-0.2,0.6-0.4,0.6-0.6c0.1-1.1,0-2.3,0.1-3.4c0-0.4-0.1-0.7-0.5-0.8c-0.4-0.1-0.4-0.3-0.2-0.6
				c0.2,0,0.4,0,0.6,0c0.3-0.1,0.6-0.2,0.9-0.4l-0.4-0.6l0.3-0.2c0-0.3-0.1-0.5-0.1-0.8l-0.2-0.3c0.1-0.2,0.2-0.4,0.3-0.6
				c0.8-0.8,1.8-1.1,2.9-1c0.2,0,0.4-0.1,0.6-0.3C427.8,45.7,427.7,45.3,427.6,45.3 M423.8,48.9l0-0.3L423.8,48.9"/>
			<g id="Grupo_2089" transform="translate(7.866 0)">
				<path id="Trazado_3370" class="st4" d="M463.4,259.2l0.1-1l0.3-0.7l-0.8,0.2l-0.8,0.8l0.4,1L463.4,259.2z"/>
				<path id="Trazado_3371" class="st4" d="M700.7,296.2l0.4-1.4l-1-1.5l-0.5-2.7l-0.5-0.7l-0.3-1.2l-0.5-0.7l-0.3-1.4l-0.5-0.8
					l-0.1-1.4l-0.8-1.8l-1.1-1.5l0.5-1l-0.1-1.5l-1-0.3l-0.6-0.9l-0.6-1.9l0.6-1.4l-0.1-0.7l-0.7-1.1l-1-0.5l-1.2-1.8l-0.5-0.3
					l-2.5-2.7l-1.5,0.1l0.1-1.4l-0.6-1.1l-1.7-0.3l-1-0.4l-0.6-0.6l-1.4,0.1l-0.7,0.5V263l4.5-4.3l4.5-4.3h1v-1l0.8-0.5l0.5-1.4
					l-0.5-1.4l-1.5-1l0.1-0.8l-0.7-1.3l-0.3-1.7l-0.4-0.4l-0.5-1.3l-2.1,0.3l-1-0.8l-0.3-1.7l-0.6-1.3l-0.3-2.2l-0.5-1.4l-1.7-2.7
					l-0.1-1.7l0.2-1l-0.1-1.6l-0.6-1.3l-0.8-0.6l-0.7-1.7l0.8-2.8l0.2-1.8l-0.2-1.3l0.3-1.8l0.7-1.9l-0.9-2.2l0.3-1.2l-0.6-1.2
					l0.2-0.7l0.8-1.3l1.1-0.9l2.4-1.4l0.9-1.8l-0.4-1.4l0.3-3.3l0.3-1.3l3.5-3.8l0-0.4l-1-1.1l-0.4-1.4l0.5-1.5l-1.8-1.3l-2.5-0.3
					h-1.2l-1.2-0.5l-2.4,1.3l-0.5,0.8l-0.9,0.5l-1.3-0.2l-1.3-0.5l-2.3,0.5l-1,0.6l-1.1,0.2l-1.6-0.2l-1.1,0.2l-1.8,0.9l-1.1-0.4
					l-0.5,0.3l-1.5,0.1l-2.3-0.4l-0.9-0.5l-1-0.1l-1.3,0.2l-0.4-0.5l-2.2-0.1l-0.9-0.2l-0.8,1.3l-0.9,0.5l-0.6,0.8l-1.7,0.2
					l-0.8-1.1l-1.7,0.8l-0.1-0.1l-3.7-4.7l-3.7-4.7l-3.6-4.6l-3.6-4.6l-2.1,0.3l-1.6,0.6l-0.9-0.1l-1.3-1.1l-2.2-0.3l-0.8-0.6
					l-0.3-0.7l-1.6,0.1l-1.3-0.7l-0.6,0l-3.3,0.7l-0.9,0.8l-1.2,0.4l-0.7,0.5l-1,0.1l-0.9-0.3l-0.6-0.7l-1.2,0.4l-2.4-0.3l-1.1,0.3
					l-1.4-0.5l-0.6,0.5l-0.7-0.5l-0.9,0.2l-1.3-0.1l-0.4-0.4l-0.8-0.1v0.5l-1.1-0.1l-0.3-0.6l-0.8,0l-1.4,0.6l-0.3,0.3l-1.7,0.2
					l-0.8,0.2l-0.5,0l-1.6-0.8l-2.5-4.9l0.2-2.1l-1.4-0.6l-2.5,0.4l-1.4-0.5l-0.5-1.4l-0.7-0.8l0.3-1.3l-0.4-0.7l-0.2-2.6l0.9-2.7
					l-0.6-1.5l2.1-1.9l-0.1-1.5l0.2-1.3l-0.2-1.8l-0.3-0.7l-0.1-1.8l-4.7-5.3l-0.8-0.2l-2.5-10.2l-0.5-0.1l-0.6-0.7l-0.9,0.4
					l-1.5,0.3l-0.9-1l0.3-0.7l-0.3-1.5l-0.7-0.9l-1.1,0.4l-0.5,0.8l-0.9,0.2l-1.3,1l-1.2,0.3l-0.8-0.3l-1,0.1l0.4-0.5l0.8-2.3l1-2.1
					l1-0.9l0-0.5l1.3-1.9l0.7-0.3l0.4-1l1.1-1.6l0.6-1.9l1.1-1l0.2-0.7l-0.5-0.1l-0.7-0.7l0.1-1.6l1.5-4l-0.3-1.4l0.2-1.2l0.6-0.9
					l1.3-1.6l0.4-0.8l2-3.2l1.2-2.4l1.4-3.8l1-2.1l0.8-0.9l0.7-2l1-0.9l0.5,0.1l1.7-0.7l2,0.3l2.9-5.4l2.9-5.4l6.8-1.7l1-0.4
					l3.8-0.9l0.2-0.7l-0.7,0.2l0.8-0.7l1.4-1.6l1.1-0.4l1.6-1.5l0.2-0.6l-0.4-1.4l-2.1-4.2l-1-0.8l-1.6-0.2l-0.7-0.5l-1.1,0l-1-1
					l-1.6-0.4l-2.2-0.1l-0.7,0.3l1.1,0l0.6,0.3l-0.5,0.6h-0.6l-0.3,0.7l-0.5-0.7l-0.7,1.1l-1.2,0.8v-1.2l-2.3,1.5l0.7,0.7l0.8,1.5
					l-1,0.2l-0.6,0.8l-1,0.1l-0.2-0.8l0.5-1.3l-1.8,0.4l-2.2,0.1l-0.3,0.3l0.8,0.8l0.1,1.4l-1,2.3l-0.8,1l-0.2,1.3l-0.9,0.2
					l-0.3,0.6l-2.7,1.5l-0.3-0.3l-0.9,0.2l-0.6,0.7l-0.7-0.1l-1,0.5l-2.5,0.6l-2,1.6l-0.2,0.7l-0.7,0.5l-1.7,0.2l-1.6,1.4l-1.4,0.8
					l-0.7,0.6l-1.4,0.9l-0.4,0.8l-2.8,1.9l-2.2,0.2l-1.2-0.2l-1.7,0.2l-2.4,0l-2.7-0.1l-3.6-1.7l-3,0.3l-0.7,0.4l-0.2,0.8l-1.1,1.2
					l0.5,2l-0.2,1.6l-1.4,1.4l-2.1,0.4l-2.4-0.1l-1.2-0.4l-3.3-1.5l-2.1-0.5l-1.1,0.5l-1.5,1.6l-0.8,0.5l-1.2,1.4l-3,1.8l-0.9,0.4
					l-0.5,0.1l-0.3,1.3l-0.8,0.6l-1.6,0.6l-1.2,1.1v0.7l-1.2,0.5l0.7,1.7l0.1,1l-0.5,0.1l-0.2-1l-1.1,1.7l0.8,0.7l0.2,1.5l-0.4,0.5
					l-0.7,0.1l-0.6-0.6l-0.6,2l-1.4,1.2l0,0.3l1.6-0.9l1-1l1-0.4l-0.3,0.9l0.5,0.8l-0.8,0.3l-0.2,0.6l-0.5-0.1l0.4,0.8l-0.2,0.3
					l0.8,0.4l0.2,1.3l-0.8,0.5l-0.5,0.9l-0.6,2l0,1l-0.9,1.3l-0.6,0.4l0.9,0.1l1,0.4l0.7,1.2l0.1,1l-0.2,0.9L517,123l-1.1,0.4
					l-1.8-0.2l-1.4-0.3l-1.9,0.3l-0.7,0.7l-1.9,0.7l-1.1,0.9v0.8l-1.2,1l-0.2,1.8l-1.3,1.5l-0.5,1.4l-1.6,1l-0.5,0.8l-1.4,0.6
					l-0.9,1.4l-1.4,0.6l-1.1,0.9l-1.2,0.6l-0.7,0.9l-1.9,0.6l-2.1,0.5l-1.1,1.2l-0.2,0.6h0.5l1.7,0.9l0.8,1.3l0.8,1.7l-0.5,1.5
					l0.8,2.7l-0.2,1.6h0.2l-0.1,2.5l-0.3,0.7l-1.7,0.5l-1.1-0.1l-0.7-0.3l-0.3-1.5l0.3-0.9l1.4,0.4l-0.4-0.8l0.6,0.2l-0.3-1.2
					l-0.8,0.3l0.9-0.8l-1.1,0.1l-0.7,0.9l-0.4-1.4l0.4-0.1l-0.8-1.1l0.3-0.8l-0.6-0.3l-1.6-0.4l-0.5-1.2l-1.2-1.6l-2.1-1.3l-0.5-1.1
					l-0.8-0.5l-1.4-1.8l-0.7,1.5l-1.1,1.6l0.5,1.2l1.1,1l0.8,2.9l1.7,1.5l0.8,2.3l0.5,2.5l-0.4,0.9l0.2,0.8l-1.6,0.8l-1.6,1.2
					l-1.4,2l-1.7,2.1l-0.4,1.3l-1,0.5l-1.2-2.4l-1.2-0.8l-0.6,0.1l-0.3,0.7l0.7,2.8l-2.4,0.8l-1.3,2.3l-0.5,1.5l-0.1,0.8l0.9,1.3
					l2.1,1.9l0.8,0.3l0.6,0.8l0.2,0.7l0.6,0.6l-0.2,0.6l-0.6,0.4l-0.2,1.3l0.7,0.1l1.9,1.3l0.5,0.5l0.8,2.1l-0.2,0.6l0.7,0.2
					l0.2-0.9l0.9-0.3l0.8,0.3l0.2,0.9l1.2,1.7l0.1,0.8l-0.4,0.7L481,187l-1,0.3l0.3,0.3l-0.2,1.7l-0.4,0.6l-1.2-0.7l-0.2,1.6
					l0.8,1.5l0.2,0.8l1,1.5l0.3-0.6l0.9,2.2l-0.2,0.5l0.3,1.1l0.9,1.7l0.5,0.4l-0.6,1.4l-1.4,1.1l-0.8,1.2l-1.1-0.3l-1,0.5l-0.8,0.1
					l-0.6,1.9l0.7,0.3l1.4-0.2l0.1,1l0.8,0l-0.5,1l0.2,1.4l0.4,0.2l0.4,1.1l-0.6-0.4l-0.3,2.2l0.9-0.3l-0.6,1.3l0.1,1l0.5,1.7
					l-0.2,1.5l0.8,2.6l0.8,0.9l0.5,1l-0.3,0.2l-0.8-0.8l0,1.1l0.5,0.9l-0.4,0.5l-0.3,2.2l0.3,0.4l-0.7,0.4l0,1.8l-1.6,1.7l-0.2,0.5
					l0.6,0.5l-0.7,0.4l0.3,0.6l-1.5-0.1l0.1-1.1l-0.6,1.7l1.2,0l-1,0.7l0.2,0.7l1.4-0.8l1.4,0.1l-0.5,1l-0.9,0.6l0,1.8l1.4,1.9
					l0.6-0.5l0.6-2.2l1.2-0.5l0.7,0.8l-0.3,1.5l0.3,0.1l-2.2,0.8l0.1,0.5l1,0.4l-0.6,0.6l1.2,0.3l1-0.4l1.7-0.2l1.8-0.6l-1.1,1.2
					l-0.2,1l-0.9-0.1l-0.5,1.2l-0.1,1.4l0.5-0.2l0.1,0.8l-1,1l-1.8,0.7l-1.5,1.9l0.4,0.1l-0.3,1.6l-0.8,0.3l-0.2,0.5l-0.7,0
					l-2.1,1.9l0.8,0.8l-0.2,0.4l-0.8,0.1l-1.7,2.3l-0.8,0.7l0.7,0.1l-1,0.5l-0.3-0.5l-0.8,1.4l0.5-0.3l0.9,0.2l-1.3,2.3h1l-1.4,1.1
					l-0.7,0.1l-0.5,0.6l1.1,0.2l-1.8,0.6l-0.3,2l-1.5-1.4l-0.3,1.5l-0.4-0.7l-0.1,1.1l-0.9-0.2l-0.3-0.2l-1.1,1.5l-1.1,0.9l-0.1-0.9
					l-0.7-1.5h-0.8l-0.9,0.4l-0.2,0.8l-1.5,1.5l-0.1-0.7l-0.7,0.6l-0.2,1.2l0.2,0.8l-0.8-1.4l-0.5-0.5l-0.1-0.7l-0.8,0l-0.8,1.1
					l-1.7,1l-0.5,1.2l-0.8,1.3l-0.1,0.7l0.5,2l0.8,0.2l-0.3,1.5l-1.5,0.3l-0.4-0.2l-0.1,2.6l1-0.3l0.7,1.1l-0.1,1.3l0.7,0.1l0.1,2.2
					l-0.3,0.5l-3.2-0.2l-0.5-0.2l-2.7-0.4l-0.5,0.7l-2.7,3.1l0,0.8l2.2,1.8l0.2,0.7l0.9-0.1l-0.1,0.5l1.6,1.6l1.7,1.3l0.8,1.3h0.6
					l1.1,1.4l2.4,0.4l2.1,2l0.8,1l1.8,0.4l0.9,1l1.8,1.4l0.9,0.5l2.1,1.5l1.7,0.4l0.8-0.1l2-0.7l1.4-0.3l1,0.2l0.3,0.6l-0.5,1.3
					l0.1,0.6l0.9,0.9l2.3,0.8l0.6,0.8l-0.2,1l0.2,1l1.1,1.9l0.3,0.7l1,0.3l1-0.4l1.7,0.7l0.9,0.1l1.2-0.4h1.2l0.7,1.3l2.5,0.1
					l0.3,0.6l1.1,0.4l1.1-0.3l1.3,0.5l-0.5-0.9l0.7-0.2l1.9,0.2l0.8,0.3l0.8,1.1l2.1-1l1.3,0l-0.1-2.8l1.7,0.1l0.6-0.8l1.2,0.5
					l2.2,0.3l0.6,1.1l0.7-0.1l1.7,0.8l0.4,1.4l0.8,0.5l0.4,0.9l1.1,1.2l1.4,1l2.5,0.7l1.8-0.7l1.2,1.6l2.3,1l0.6,0.7l0.9-0.1
					l1.5,0.4l0.8,0.4l1.4-1.6l2.2,0.8l2.4,1.7l0.7,1l0.5-0.2l1,0.7l1-0.6l0.1-0.7l1.5,1.6l0.7,1.3l0,1l0.8-0.1l0.3,0.8l0.9-0.4
					l1.3,0.8l0.7,1.6l0.5-0.3l1.7,1l0,0.9l0.7,0.3l0.4,2.1l0.4,1l-0.5,0.7l1.1,0.8l0.6,1.1l0.7,0.3l-0.2,1.2l-1.2-0.1l0.9,0.7
					l0.2,1.3l1.7,0.8l1.1,0.2l1.1,0.5l0.9-0.9l0.5,1.8l0.4,0.2l1-0.3l-0.1,0.7l1-0.2l1.1,2.1l1.8,0.5l0.2-0.9l0.7,0.9l1-0.1l1.4,0.8
					l0.2,0.9l0.6,0.1l0.2,0.8l0.5,0.7l-0.5,0.5l0.7,0.1l0.4,0.8l0.7,0.5l0.3,0.9l-0.2,0.5l0.8,0.4l-0.1,0.4l-0.9,0.9l-0.6,1.9
					l1.8,0.4l0.7,1l1.1-0.1l1.3,0.7l-0.1-0.8l1.2,0l0.2,0.4l0.4-1.1l0.7,1l1,0.6l0.1,1l0.8,0.3l-0.2,2.6l0.4,0.8l0,0.8l0.7,0.1
					l-0.7,0.7l-0.7,1.3l-1,0.5l0.4,0.8l1.1,1l-0.2,0.7l1.2-0.2l-0.1,0.7l0.5-0.7l1,0.7l0.9-0.5l0,1.1l0.8,0.9l-0.3,0.8l3.2-1.5
					l0.8,0.8l0.3-1l0.6,0.4l0.3,0.9l0.4-0.2l0.5-1.5l1.4,0.3l0.7,0.4l1.4-0.1l1.7,0.1l0.4,1.1l0.7,0.3l1.5-0.5l1-0.6l1.2,0.1
					l0.6,0.7l0.1-1.1l1.2-0.9l0.7-0.9l1.3,0.7l0.6-0.2l0.8,0.3l-0.2-1.3l1.2-0.2l0.8-2.3l0.6,0.2l0.5-0.7l1-0.6l0.4,0.3l0.1,1.2
					l1.7-0.1l2.5,0.8l0,1.5l0.4,0.1l0.3-1.1l1.3,0.9l0.6,1.3v0.6l1.3-0.5l0.6-0.7l0.6,0.1v0.8l0.8-0.8l1,0.6l0.5-0.6l0.8,0l0-1
					l1.3-0.5l1.4,0.4l-0.4-1.9l1.8,1.1l1.1-0.4l0.7,0.2l0.7,1l1,0.2l0.9,0.8l1.2,0.4l0.1,1.1l0.6,0l0.4,0.5l-0.4,0.7l0.6,0.7
					l0.8-0.5l-0.4-0.8l0.5,0.1l1.1,0.8l0.8-0.3l0.5,1.1l0.7,0.1l1.4-0.3l1.1,0.3l-0.1,0.4l-1,0.6l0.6,0.3l1.4-0.4l0.6,0.5l-0.1,1.3
					l0.4,0.2l0.6-0.7l0.5,0.7l-0.2,1.2l0.8-0.4l0.4-0.8l0.6,0.4l0.2,1.8l-3.5,5.9l-3.5,5.9l-3.1,5l-3.1,5l0.5,0.1l1.1,0.9l1.2,0
					l1.6,0.6l1.4-0.6l1.1-1.2l0.7,0.2l1.6,0l1,0.4l0.7,1.2l0.5,1.7l0.6,1l1.1,1.1l0.7,0.9l2.1,2.3l1.1-6l1.1-5.9l1.1-6l1.1-6
					l1.2-6.7l1.2-6.8l1.2-6.7l0.8-4l1.3-7.6v-1.6l0.5-1l0.1-0.9l0.5-1.5l-0.5-2.1l0.8-1.7l-0.7-1.3l-0.3-1.5l-0.9-1.1l-0.8-0.7
					L645,340l-1.6-2.1l0.9-2.1l-0.3-1.4l-0.6-1.7l-1.9-0.9l-1.1-1.1l-0.9-0.3l-1.2-1.1l-0.9,0l-2.1-2.2l-1.1-2.3l0.3-8.3l0-5.3
					l1.1-0.6l1.1,0.1l0.3-0.3l2.5-0.2l1.2-0.4l0.4-0.7l1.5-0.4l0.4,0.5l1.9-1.1l0.8-0.9h0.6l2,1.7l0.2,0.4l1.6-0.4l0.5,0.7l1.3,0
					l0.3-0.6l1.3,0v-0.8l-0.9-0.6l-0.2-0.6l0.5-0.6l-0.2-1.3l0.4-0.8l-0.8-1l0.2-0.7l-0.7-0.4l-0.1-1.3l-1.9-1l-0.9-0.2l-0.6,0.3
					l-1.4,0.2l-0.9-0.4l-1.7,0.1l-1.7-0.4l-1,0.3v-0.4l-1.1-0.1l-1.4,0.8l-0.4-0.2l0-6.6l0-6.6l1.1,0l0.9-0.6l2.1,0.1l1.8-0.8
					l2.1,0.3l1.3,0.5l6.4,0.2l6.4,0.2l6.4,0.2l6.4,0.2l0-0.6l-0.7,0.1l0.2-0.6l-0.5-0.4l-0.6,0.2l0.2-0.8l-1.1-0.4l0.8-1l0.3-1.1
					l0.5-0.9l1.8,0.7l0.8,0.8l0.7,1.6l1.3,1.1l1.9,0.8l0.6-0.2l1.7-1l1.5-1.8l0.6-0.4l2-3.1l2.3-1.8l1.5,0.5l1.5,1.9l1.5,4l0.8,0.6
					l1.2,1.7l0.5,1.4l0.4,1.9l0.6,1.3l0.4,1.6l0.1,1.8l-0.2,1l0.3,2.5l4.6-0.8L700.7,296.2z M529.2,249.6l-2.5,0.8l-0.5,0.6
					l-0.3-0.6l-0.9,0.2l-0.2,0.7l-1-0.7l-1.5,0.2l-0.1,0.5l-1.1,0.5l-0.4,0.7l-1.4,0.7l-1.2,1.1l0.2,1.2l-0.2,0.4l-1.7,0.3l-1.5,1
					l-0.6,0.9l-0.5-0.3l-0.8,0.2l-1,1.3l-2.3,0.2l-1.3-0.9l-0.7-1.7l0-2.5l0.8-2.6l0.8-2l0.3-1.7l-0.1-1.2l0.3-1.4l1.1-3.1l1.2-2.3
					l0.8-0.7l1.5,0.1l0.6-0.3l0.2-0.7l0.8-0.9l-0.4-1l0.1-1.7l0.8-1.1l1.2-2.5l0.4-2.2l1-1.9l0.9-1l0.8-0.3l2.2-1.5l-1-1.2l0.1-2.2
					l0.4-0.5l0.9-0.4l-0.2-1.8l0.3-0.9l-0.3-2.1l0.7-0.9l1.8-0.1l0.7-0.5h1.2l1.3-2.1l1.1-0.5l4.1-0.1l1.6,0.2l0.2,2l0.3,0.4l0,1.3
					l-0.4,2.1l0.6,0.6l-0.8,0.4l0.3,0.4l-0.1,1.2l-0.3,0.1l-0.2,0.9l0.1,1.2l-1.4,1.1l0.5,1.7l-0.4,0.7l0.1,1.6l0.3,0.6l-0.2,1
					l-0.8,0.9l-0.6,2l-0.4,0.8l0.2,0.5l1.7-0.5l0.5,0.7l1.2,0.4l0.6,0.6l0.8,0l1.2-1l0.7-0.1l1,0.6l0.1,0.8l0.7,1.2v0.8l-0.8,1.5
					l0.2,0.7l-0.4,0.6l0.6,1.2l-0.5,1l-0.3,1.1l-0.8,1.7l-0.5,0.6l-1.1,0.6l-1.9,1.9v0.6l-0.9,0.8l-0.1,0.6l0.4,1.1l-1.8,2l-1.6,1.3
					l-1.6,0.1l-1.3-0.3l-0.3-0.5l1.3-1.3L529.2,249.6z"/>
				<path id="Trazado_3372" class="st4" d="M438.3,50.3c-0.1-0.1-0.4,0.1-0.6,0.1c-0.5,0.1-0.7-0.3-0.8-0.7
					c-0.2-0.6-0.3-1.2-0.5-1.8v-0.2l0.7-0.7l0.2-0.2h-0.1v-0.1l-0.3-0.7c0,0-0.1,0-0.1,0l-0.2,0.1l-0.2,0l-0.1-0.3h-0.1h-0.2l-0.3,0
					c-0.4,0-0.6-0.1-0.5-0.6c0,0,0-0.1,0-0.1l-0.4-0.8l-0.1-0.4l-0.9-0.2l-0.6-0.2c0,0-0.1,0-0.1,0l0.2-1.3l0.1-0.2l0-0.1l-0.4-0.4
					c0,0,0,0-0.1,0l-0.2,0.1l-0.6,0.2h-0.4l-0.6,0.2c-0.1,0.1-0.1,0.2-0.2,0.3c-0.6,0.5-0.7,1.3-0.3,1.9c0,0,0,0,0,0
					c0.1,0.1,0.2,0.2,0.3,0.3l0.2,0l0.6,0.7c0.3-0.1,0.7-0.2,1-0.2c0.5,0,0.3,0.5,0.4,0.7l-0.1,0.6l0,0.6l-0.9,1.1
					c0.1,0,0.2,0.1,0.3,0.1c-0.1,0-0.2,0-0.3-0.1L432,48l-0.3-0.1c0,0-0.1,0-0.1,0l-0.6,0l-0.2-0.2l-0.7-0.2l-1.3,1.1l-0.3,0.6
					c0.2-0.1,0.5-0.2,0.7-0.3c-0.2,0.1-0.5,0.2-0.7,0.3l0,0.4l-0.3,0.2c-0.7,0.8-1.1,1.8-1.1,2.8c0.1,0.8-0.1,1.6-0.4,2.3
					c-0.3,0.5-0.4,1.2,0.3,1.6c0.1,0.1,0.2,0.2,0.2,0.3c0.1,0.6,0.2,1.3,0.3,1.9v1.2c0.1,0.2,0,0.5,0.2,0.6c0.2,0.2,0.5,0.4,0.8,0.5
					c0.1,0,0.3-0.2,0.5-0.3h0l0.2-0.1l1.9-0.5l0.3,0c0.2-0.6,0.5-1.1,1-1.5c-0.5,0.4-0.8,0.9-1,1.5l0.9-0.6l1.8-1.6l0.3,0
					c0.8,0,1.5-0.1,1.7-1c0-0.1,0.1-0.2,0.2-0.3c0.5-0.7,0.7-1.6,0.5-2.4c-0.1-0.5-0.1-0.9,0-1.4c0-0.1,0.2-0.2,0.3-0.3
					c0.3-0.1,0.6-0.2,1-0.3c0.2-0.3,0.4-0.6,0.6-1C438.6,50.7,438.5,50.5,438.3,50.3L438.3,50.3z M434.4,44.6
					c0.1,0.1,0.3,0.2,0.4,0.4C434.7,44.9,434.5,44.8,434.4,44.6z"/>
			</g>
		</g>
	</g>
	<g>
		<g>
			<path class="st5" d="M377.2,84.7l-1.1,0l-4.4,0l-2.8,1.4l-2.7,1.5l-4.5,0.1l-6.8,0h-3.6l-3.9,0.2l-3.9,0h-3.7l-1.7,0.1l-1.9,0.1
				l-4.1,0.7l-1.9,0l-1.5,0.2l-0.9,1l0.9,2.9l-0.3,1.7l0.3,2.1l4.6,3.8l0.5,2.3v5.1l-0.7,1.9l3.3,3.3v3.6l-0.7,3.4l-0.4,2.9l0.5,2.9
				l5.3-0.5l2.1-0.7l2.4-0.3l2.6-0.1l0.5,3.9l3.4-1l1.9-3.6l1.7,3.3l3.3,9.3l14.9,2.8l-2.2-3.3l-1.2-3.6l-0.5-2.8l1.9-2.5l1.9-2
				l2.2-0.3l4.1-1.5l2.7-1.5l0.8-1.3l2.8-2.8l1-3l2.2-7.5l1-3.4v-1.4v-2l-1.2-1.6l-3-3l-1.7-1.3l-0.7-0.5l-1.8-2l-1.8-1.8l-1.6-2.2
				C378.7,87.3,377.2,84.7,377.2,84.7z"/>
			<path class="st5" d="M383.8,85h-1.5l-2.7-0.2l-2.3-0.1l1.5,2.6l1.6,2.2l1.8,1.8l1.8,2l0.7,0.5l1.7,1.3l3,3l1.2,1.6v2v1.4l-1,3.4
				l-2.2,7.5l-1,3l-2.8,2.8l-0.8,1.3l-2.7,1.5l-4.1,1.5l-2.2,0.3l-1.9,2l-1.9,2.5l0.5,2.8l1.2,3.6l2.2,3.3l2.7,4l5.1,4.6l4.3,3.8
				l3.9-1l6.7-0.7l2.2,2.6l-1.7,1.4l0.2,5.5l3.1-0.3l3.6,2.6l2.7-0.7l2.7-0.3l1.4,0.5l0.9-2.7l1.7-6.2l0.8-4.6l0.7-4.8v-2.8
				l-1.9-5.5l0.7-2.4l2.2-5l-0.2-2.4l-0.7-1.4l-3.3-4.3l-0.9-3.3l0.4-5.8l0.3-3.4l-0.4-6l-0.3-5.3l-1-2.8l-0.9-1.9l-5.3-1.1
				l-4.1-0.5l-4.8-0.7l-2.2,0l-5.6-0.2l-1.2-0.2L383.8,85L383.8,85z"/>
			<path class="st5" d="M328.6,88.7l-4.4,1.3l-3.4,0.7l-3.9,3.8l-3.2,0.3l-1.4,0.3l-0.7,0.8l-3.4,3.8l-2.9,5.1l-2.8,5.1l-3.4,7.5
				l-2.5,3.9l-1.7,4.1l-1.5,1.2l-1.9,1.2h-1.2l1.7,2v1.5l1.9,3.6l-1.4,2.2l-5.5,2.5l-2.4,2.4l0.5,3.6l3.1,3.1l1.6,0.7l5-2.9h1.5
				l3.6-5.8l1.4-1.7l3.6-1.4l7.3-1.2l2.6,0.5l6-1l9.7-2l3.3-1.5l2.4-1.1l2.2-1l2.8-2.7l2-1.9l-2.1-1l-5.3,0.5l-0.5-2.9l0.4-2.9
				l0.7-3.4v-3.6l-3.3-3.3l0.7-1.9v-5.1l-0.5-2.3l-4.6-3.8l-0.3-2.1l0.3-1.7l-0.9-2.9L328.6,88.7L328.6,88.7z"/>
			<path class="st5" d="M336.2,131.7l0.5,5.8l2,3.3l2.6,4.9l0.3,4.3l-2,4.6l-5.2,3.3l-7.9,6.2l-7.2-2.3l-5.2-1.3l-3.1-0.3l-0.3,1.6
				l-1.9,2.9l1.7,1.9l2.1,0.9l2.5,0.7l2.7,0.9l0.2,3.8l0.9,2.4l0.9,2.6l3.8,0.9l2.5-3.6l-0.2-0.9l2.4-0.7l2.7-0.7l2.2-0.7l1.9-0.7
				l3.7-1.5l2.8-1.4l3.1-1.9l6.8-1.2l3.6-1.4l5.3-2.2v-2.6l-1-3.8l2.1-2.4l-0.4-5v-3.4l-0.7-4.3l-0.7-2.6l-0.9-2.2l-3.3-9.3
				l-1.7-3.3l-1.9,3.6l-3.4,1l-0.5-3.9l-2.6,0.1l-2.4,0.3l-2.1,0.7l2.1,1l-2,1.9l-2.8,2.7L336.2,131.7L336.2,131.7z"/>
			<path class="st5" d="M290.2,127.9l-3.1-0.2l-2.2-2.1l-0.9-0.5h-0.9l-1.9,0l-3.4,0.3l-2.9,2.9l-3.4,2l-3.9,1.9l-3.4,0.8l-3.1,0.5
				l-3.1,0.5l-5,0.2l-2.6-0.4l-3.2-1l-4.3,0.5l-2.9,3l-1.9,3.4l-1.5,2.1l-2.9,2.9l-0.9,0.7l-0.5,0.7v4.6L232,156l0.7,2.2l0.9,2.9
				l0.2,2.1l2.4,3.4v3.9l1,2.4l-0.5,2.9l-2,4.8l-1.6,4.1l-0.8,2.8l-0.2,1.3l1-0.2l1.5-0.5l2.4-1.4l3.4-2.5l4.5-2.2l4.4-2l3.2-2.7
				l2.4-1.4l8.9-3.1l1.4-3.4l5.5-1.9l3.6-0.8l2.2-3.4l2.7-3.6l3.9-0.7l2.9-0.8l2.5-1.7l0.4-3.8l0.8-3l-1.6-0.7l-3.1-3.1l-0.5-3.6
				l2.4-2.4l5.5-2.5l1.4-2.2l-1.9-3.6V130L290.2,127.9L290.2,127.9z"/>
			<path class="st5" d="M314.8,137.3l1.7,2.6l-1.4,2.7l-2.4,3.1l-1.7,4.6v3.9l0.4,3.6l-0.4,2.3l3.1,0.3l5.2,1.3l7.2,2.3l7.9-6.2
				l5.2-3.3l2-4.6l-0.3-4.3l-2.6-4.9l-2-3.3l-0.5-5.8l-2.4,1.1l-3.3,1.5l-9.7,2L314.8,137.3L314.8,137.3z"/>
			<path class="st5" d="M358.9,135.8l0.9,2.2l0.7,2.6l0.7,4.3v3.4l0.4,5l-2.1,2.4l1,3.8v2.6l-5.3,2.2l-3.6,1.4l-6.8,1.2l-3.1,1.9
				l-2.8,1.4l-3.7,1.5l-1.9,0.7l-2.2,0.7l-2.7,0.7l-2.4,0.7l0.2,0.9l-2.5,3.6l-0.4,3.2l1.2,2.8l3.6,2.8l2-0.3l3.8-0.9l4.1-0.8
				l2.9,1.2l2.2,1.4l5.8,1.1l8.7,1.4l4.6,0.5l0.3,0.9l4.3,3.4l3.9,4.8l0.7,2.7v2.6l0.2,2.2l0.5,0.9l1,1l0.9,0.7l4.5-1.2l3.2-0.7
				l4.3-1v-1.2l1.2-2.9l0.8-2l1.9-2.6l2.7-2l3.6-0.8l5-1.2l3.8-0.8l3.2-1l1.7-0.5l-0.7-1l-1.2-1.7l-1.7-1.5l-0.7-1.5l1.7-1.9
				l2.6-0.8l2.7-0.7l1.4-0.7l1.2-0.9l1.4-0.6v-1l-0.4-2.1l-1.4-0.2l-2-1.6l-3.4-3.1l-0.4-1.2l0.6-2.8l0.5-2.2l1-5l-0.4-1.2l-1.4-0.5
				l-2.7,0.3l-2.7,0.7l-3.6-2.6l-3.1,0.3l-0.2-5.5l1.7-1.4l-2.2-2.6l-6.7,0.7l-3.9,1l-4.3-3.8l-5.1-4.6l-2.7-4L358.9,135.8
				L358.9,135.8z"/>
			<path class="st5" d="M289.8,149.7l-0.8,3l-0.4,3.8l-2.5,1.7l-2.9,0.8l-3.9,0.7l-2.7,3.6l-2.2,3.4l-3.6,0.8l-5.5,1.9l-1.4,3.4
				l-8.9,3.1l-2.4,1.4l-3.2,2.7l-4.4,2l-4.5,2.2l-3.4,2.5l-2.4,1.4l-1.5,0.5l-1,0.2l-0.5,3.4l0.3,4.8l0.4,1l0.5,2l0.9,3.3l3.4,1.7
				l3.8-1.3l1.9-0.7l3.4-1.5l2.4-1.2l2.2-2.9l1.2-4.5l2.7-7l5.3-2.5l3.9-1.2l5.5-1.9l5.5-1.3l5.3-2.4l5.3-2.7l2.2-2.4l1.7-1.9
				l1.5-3.1l3.9-2.7l1.9,0.5l0.9,1.7l1.5,0.4l4.5-0.8h2.4l1.9-0.5l1-0.5l1.9-2.9l0.3-1.6l0.4-2.3l-0.4-3.6v-3.9l1.7-4.6l2.4-3.1
				l1.4-2.7l-1.7-2.6l-2.6-0.5l-7.3,1.2l-3.6,1.4l-1.4,1.7l-3.6,5.8h-1.5L289.8,149.7L289.8,149.7z"/>
			<path class="st5" d="M308.8,164.7l-1,0.5l-1.9,0.5h-2.4l-4.5,0.8l-1.5-0.4l-0.9-1.7l-1.9-0.5l-3.9,2.7l-1.5,3.1l-1.7,1.9
				l-2.2,2.4l-5.3,2.7l-5.3,2.4l-5.5,1.3l-5.5,1.9l-3.9,1.2l-5.3,2.5l-2.7,7l-1.2,4.5l-2.2,2.9l-2.4,1.2l-3.4,1.5l-1.9,0.7l-3.8,1.3
				l-3.4-1.7l1,1.7v1v2.2l-0.5,2.7l2.5,0.7l1.4-0.2l3.6-0.7l6.3-1l4.1-1l5.6-1.5l4.6-0.7l2.4-0.2l5.1-1.2l4.3-1l5.3-1.9l5-0.7l4.4,0
				l5-1l5.1-2.7l3.2-3.2l1.5-3.8l5-3.4l5.1-1.3l5-1.2l3.4,1l5.8,1.1l-3.6-2.8l-1.2-2.8l0.4-3.2l-3.8-0.9l-0.9-2.6l-0.9-2.4l-0.2-3.8
				l-2.7-0.9l-2.5-0.7l-2.1-0.9L308.8,164.7L308.8,164.7z"/>
			<path class="st5" d="M328,187.4l-5.8-1.1l-3.4-1l-5,1.2l-5.1,1.3l-5,3.4l-1.5,3.8l-3.2,3.2l-5.1,2.7l-5,1l-4.4,0l-0.5,2.9
				l0.7,3.1l0.4,3.2l0.5,2.6l-0.7,3.4l-0.7,2.1l-0.7,4.1l0.5,4.3l-0.1,5.3l-0.2,3.1v5.1l-0.7,4.6l-2.5,3.6l4.6,1.4l4.6,1l3.9,0
				l1.2-0.2l1.5-0.5l3.9-1.4l4.3-0.7l2.2-0.4l4.5-1.7l2.7-1l3.9-2.9l4.1-3.4l6-2.5l3.4-1.4l1.4-0.5l0.6-1.3l-1.2-2.1l-0.9-3.4
				l-0.3-3.8l-0.5-3.8l-1-3.4l0.2-3.6l0.4-2.5l0.7-3.6l-0.2-3.1l-0.7-1.6v-3.4l-0.5-2.9l-0.2-2.1l0.2-2.5V191l0.2-1.5l0.2-1.4
				L328,187.4L328,187.4z"/>
			<path class="st5" d="M385.9,207.3l-4.3,1l-3.2,0.7l-4.5,1.2l-0.9-0.7l-1-1l-0.5-0.9l-0.2-2.2v-2.6l-0.7-2.7l-3.9-4.8l-4.3-3.4
				l-0.3-0.9l-4.6-0.5l-8.7-1.4l-5.8-1.1l-2.2-1.4l-2.9-1.2l-4.1,0.8l-3.8,0.9l-2,0.3l1.5,0.7l-0.2,1.4l-0.2,1.5v1.2l-0.2,2.5
				l0.2,2.1l0.5,2.9v3.4l0.7,1.6l0.2,3.1l-0.7,3.6l-0.4,2.5l-0.2,3.6l1,3.4l0.5,3.8l0.3,3.8l0.9,3.4l1.2,2.1l1.2,1.7l4.1,1.7
				l4.6-0.7l4.5,0.5l4.8,2.4l3.1,1l3.6,2.8l1.2,1.9l5.5-0.2l2.9-3.6l0.7-3.6l0.5-4.3l0.3-2.9l1.7-4.8l2.5-2.6l4.1-0.7l1.2-3.8
				l4.8-2.5l2.9-5l-0.7-2C386.8,209.6,385.9,207.3,385.9,207.3z"/>
			<path class="st5" d="M385.9,207.3l0.9,2.3l0.7,2l-2.9,5l-4.8,2.5l-1.2,3.8l-4.1,0.7l-2.5,2.6l-1.7,4.8l-0.3,2.9l-0.5,4.3
				l-0.7,3.6l-2.9,3.6l-5.5,0.2l1.9,3.4l0.3,2.1l2.6,0.5h2.7l0.7,3.1l1.5,1.9l2.7,1.7l2.1,1.5l1.9,0.9l7.2-5.3l2.6-1.3l4.6-2.4
				l5-3.7l0.9-2.9l2.2-1.5l2.9-2.2l1.7-1.3l0.7-7.7l-0.1-5.7l-2.1-3.3l0.7-2.9l1.4-3.8l0.5-1.5l-0.7-4.3l1.5-0.9l3.9-1l0.3-2.6
				l-0.9-3.8l-1.4-2.4l0.9-3.3l2-1.7l0.4-1.5l-0.4-0.9l-0.7-0.5l-1.7,0.5l-3.2,1l-3.8,0.8l-5,1.2l-3.6,0.8l-2.7,2l-1.9,2.6l-0.8,2
				l-1.2,2.9L385.9,207.3L385.9,207.3z"/>
			<path class="st5" d="M284.4,201.9l-5,0.7l-5.3,1.9l-4.3,1l-5.1,1.2l-2.4,0.2l-4.6,0.7l-5.6,1.5l-4.1,1l-6.3,1l-3.6,0.7l-1.4,0.2
				l-2.5-0.7l0.1,3.9l-1.2,1.7l-2.7,2l-3.4,0.9l-2.1,0.3l-2.5,1l-3.1,3.8l-2.1,2l-0.3,1.9l-1,2.6l0.7,3.6l0.9,0.9l2.7,0.2h1.9
				l6.8,0.9l4.1,1.2l7.7,1.2l1.9-0.5l6.8,0.5l4.3,1.8l2.4,1l4.6-0.8l5.6,1.2l3.9,2.9l4.6,1.2l2.9,1.5l2.6,1.2l2.5-3.6l0.7-4.6V236
				l0.2-3.1l0.1-5.3l-0.5-4.3l0.7-4.1l0.7-2.1l0.7-3.4l-0.5-2.6l-0.4-3.2l-0.7-3.1L284.4,201.9L284.4,201.9z"/>
			<path class="st5" d="M332.7,235.3l-0.4,1v2.1l-1.9,4.5l-1.2,2.4L328,248l-2.2,1.7l-1.7,1.9l-1.2,2.2l0.4,1.2l0.1,1.2l0,1l1,1.5
				l0.3,1.4l0.3,0.9l0.4,1.6l2-0.2l1.6-0.2l3.6-0.3l4.1-0.2h2.4l2.9,3.1l1.5,2.9l2.4,2.4l1.5,2.9l0.9,1.2l2.6,2.1l2.4,2.1l2.4,2.7
				l3.4,1l4.6,0.5l5.8,1.6l2.9,1.6l2.2,1.2l3.1,0.9l3.8,1.7l3.9,0.2v-1l1.7-3.3l1.4-1.5l2.7-4.6l-0.2-3.6l-1.9-2.5l-2-3.3l0.4-2.4
				v-3.4l0.2-0.7l-0.9-3.6l-2-3.1l-0.7-1.5l-7.2,5.3l-1.9-0.9l-2.1-1.5l-2.7-1.7l-1.5-1.9l-0.7-3.1h-2.7l-2.6-0.5l-0.3-2.1l-1.9-3.4
				l-1.2-1.9l-3.6-2.8l-3.1-1l-4.8-2.4l-4.5-0.5l-4.6,0.7l-4.1-1.7l-1.2-1.7L332.7,235.3L332.7,235.3z"/>
			<path class="st5" d="M217.4,235.7l0.2,3.6l-1,11.3l-1.4,3.9v2.4l-0.2,2.2l1.2-0.1l1.1-0.1l3.4,0.2l4.8-0.7l6.7-1.5l7.5-1.3
				l5.5-0.5l4.6,0.2l5.6,1.4l3.6-1l3.9,0l4.8,0l8.4,4.5l8.4,4.1l3.6,2.8l4.5,2.2l5.5,1.2l4.5,0.4l3.4-0.5l2-1l4.6-3.4l2.5-1.2
				l3.3-0.3l3.2-0.7l2.2-0.3l1.5-1l-0.4-1.6l-0.3-0.9l-0.3-1.4l-1-1.5l0-1l-0.1-1.2l-0.4-1.2l1.2-2.2l1.7-1.9l2.2-1.7l1.2-2.8
				l1.2-2.4l1.9-4.5v-2.1l0.4-1l-1.4,0.5l-3.4,1.4l-6,2.5l-4.1,3.4l-3.9,2.9l-2.7,1l-4.5,1.7l-2.2,0.4l-4.3,0.7l-3.9,1.4l-1.5,0.5
				l-1.2,0.2l-3.9,0l-4.6-1l-4.6-1.4l-2.6-1.2l-2.9-1.5l-4.6-1.2l-3.9-2.9l-5.6-1.2l-4.6,0.8l-2.4-1l-4.3-1.8l-6.8-0.5l-1.9,0.5
				l-7.7-1.2l-4.1-1.2l-6.8-0.9h-1.9L217.4,235.7L217.4,235.7z"/>
			<path class="st5" d="M215,259.2l3.4,2.2l-0.7,2.6l0.5,2.2l1.4,0.5l2.4,1.7l2.4,0.2l2.2,1.9l1.9,3.4l-0.2,1.5l0.3,0.7l2.8-0.3
				l2.7,2.3l5.6,1.7l3.3,3.3l1.4,5.2l1.5,6l1.9,2.8l3.4,1.2l3.1,2.6l1.2,4.1v1.9l3.1,0.9l4.5,1.7l1.2,4.3l-0.9,3.1l-0.5,1.9l2.2,2
				l3.1-0.3l3.4-1l2.4-0.7l4.8-3.9l4.1-2.9l3.3-1.2l2.6-0.9l2.6-0.7l1.5-2.2l3.7-2.4l2.6-1.2l2.7-0.5l4.3-0.7l4.8,0.7l0.7-0.3
				l1.9-1.9l0.9-2.4l1.2-2.2l1-1.5l3.2-6l0.9-2.2l0.5-3.2v-2.8l1-5l1.2-3.8l1.4-3.9V266l-0.4-1.5l0.9-1.9l-1.5,1l-2.2,0.3l-3.2,0.7
				l-3.3,0.3l-2.5,1.2l-4.6,3.4l-2,1l-3.4,0.5l-4.5-0.4l-5.5-1.2l-4.5-2.2l-3.6-2.8l-8.4-4.1l-8.4-4.5l-4.8,0l-3.9,0l-3.6,1
				l-5.6-1.4l-4.6-0.2l-5.5,0.5l-7.5,1.3l-6.7,1.5l-4.8,0.7l-3.4-0.2l-1.1,0.1L215,259.2L215,259.2z"/>
			<path class="st5" d="M369.4,284.3l-5.8-1.6l-4.6-0.5l-3.4-1l-2.4-2.7l-2.4-2.1l-2.6-2.1l-0.9-1.2l-1.5-2.9l-2.4-2.4l-1.5-2.9
				l-2.9-3.1h-2.4l-4.1,0.2l-3.6,0.3l-1.6,0.2l-2,0.2l-0.9,1.9l0.4,1.5v1.7l-1.4,3.9l-1.2,3.8l-1,5v2.8l-0.5,3.2l-0.9,2.2l-3.2,6
				l-1,1.5l-1.2,2.2l-0.9,2.4l-1.9,1.9l-0.7,0.3l-2.8,3.9l0.4,3.4l2,3.6l1,2.9l1.2,4.1l1.2,5.2l0.3,3.1l2.4,2.4l3.3,3.4l-0.7,2.9
				l2.6-1.5l6.5-2.5l3.8-2.6l2.7-2.2l2.4-2.9l3.4-4.8l2.4-4.6l3.4-3.6l3.9-2.4l3.8-2.9l3.3-3.2l4.6-5.3l1.5-2.8l2-2.5l2.7-3.6
				l0.7-2.9l0.9-2.2L369.4,284.3L369.4,284.3z"/>
			<path class="st5" d="M228.7,276.2l-2.7,2l-3.4,3.1l-4.3,2.7l-3.3,1.7l-1.5,1.7L210,290l-1.9,1l-1.3,0.8l0.6,4.8l-0.2,5.5v5.7
				l2.4,7.2l1,3.6v4.8l-0.5,1l0.3,5.8l4.1,6.9l3.6,3.3l1.4,1.5l1,4.1l-0.5,2.5l-3.9,3.6l-1.9,1l-5.7,3l-3.2,3.1l-3.4,1.7l-4.4,1.2
				l-2.6,1.7l-2.4,2l-9.9,8.3l-1.7,2.6l-1.4,2.6l-1.9,2.6l13.7,0.6l7.5-2.4l7.9-3.9l5.1-2.6l7.9-4.7l5.1-6l3.8-2.7l7.5-6.1l5.7-0.1
				l5.6,4.3l8.9,8.4l3.6,3.8l2.4,6.2l2.4,5.8l6.5-1.2l4.8-2.5l4.6-1.5l4.4-0.7l2,0.2l2.7-0.3l3.6,0.2l1.9,0.9l3.1,1.2l2.9,1.5l2.9,1
				l2.4,1.5l3.6,1.8l3.4,0.5l3.1,1l3.3,0.9l1,0.7l0.8,0.3l-0.2-1.3l0.2-4.3l0.5-4.3l1.7-3.9l1.5-1.9l3.4-2.2l3.1-3.2l-0.5-4.1
				l0.4-0.5l0.9-0.9l2.4-2.5l0.3-0.2l-2.9-1.7l-6.6-4.4l-1.6-0.5l-3.2-0.9l-3.6-1.2l-3.4,0.4l-2.4-1.2v-2.4l1.8-2l1.8-4l3.9-2.9
				l0-0.1l0.7-2.9l-3.3-3.4l-2.4-2.4l-0.3-3.1l-1.2-5.2l-1.2-4.1l-1-2.9l-2-3.6l-0.4-3.4l2.8-3.9l-4.8-0.7l-4.3,0.7l-2.7,0.5
				l-2.6,1.2l-3.7,2.4l-1.5,2.2l-2.6,0.7l-2.6,0.9l-3.3,1.2l-4.1,2.9l-4.8,3.9l-2.4,0.7l-3.4,1l-3.1,0.3l-2.2-2l0.5-1.9l0.9-3.1
				l-1.2-4.3l-4.5-1.7l-3.1-0.9v-1.9l-1.2-4.1l-3.1-2.6l-3.4-1.2l-1.9-2.8l-1.5-6l-1.4-5.2l-3.3-3.3l-5.6-1.7l-2.7-2.3L228.7,276.2
				L228.7,276.2z"/>
			<path class="st5" d="M369.4,284.3l0.5,1l-0.9,2.2l-0.7,2.9l-2.7,3.6l-2,2.5l-1.5,2.8l-4.6,5.3l-3.3,3.2l-3.8,2.9l-3.9,2.4
				l-3.4,3.6l-2.4,4.6l-3.4,4.8l-2.4,2.9l-2.7,2.2l-3.8,2.6l-6.5,2.5l-2.6,1.5l0,0.1l-3.9,2.9l-1.8,4l-1.8,2v2.4l2.4,1.2l3.4-0.4
				l3.6,1.2l3.2,0.9l1.6,0.5l6.6,4.4l2.9,1.7l1.6-1.3l2.9-2l1.5-3.1l0.9-3.1l0.4-3.6l0.5-2.7l0.3-2.6l0.4-1.7l1.5-3.3l3.9-3.7
				l2.2-1.9l0.9-2.4l2.7-0.2l2.2-0.2l4.1-0.3l3.8-0.5l4.3-3.2l4.6-0.2l2,1.5l1,2.8l1,2.7l1.2,1.5l3.4,1.1l5.1-0.9l0.5-2.9l1.7-2.4
				l1.2-4.4v-1.7l-2-5.3l-2.8-3.1l-0.8-4.5l-0.5-5v-1.9l2-2l1.5-2.4l-1.5-3.6l-2-2.4l-3.9-0.2l-3.8-1.7l-3.1-0.9l-2.2-1.2
				L369.4,284.3L369.4,284.3z"/>
			<path class="st5" d="M206.9,291.8l-3,1.9l-6,4.6l-3.2-0.7l-2.6,2.4l-5.5,2.2l-0.7,1l-4.1,2.7l-1.7,2.8l-3.8,5.1l-3.1,3.1
				l-1.5,3.4l-2.1,3.1l-2,6.3l-3.4,4.5l-2.2,4.1l-2.9,4.6v1.9l0,2.9l-1.2,2.5l-1.5,4.6l-2,5l0,4.1l-1,4.8l-0.2,5.7l-1.3,0.5
				l-0.4,0.2l2.1,2.9l2.7,3.8l3.9-0.7l0.9-0.3l5.8,0.9l3.2,0.9h3.8l3.2-0.5l0.7,0l1.9-2.6l1.4-2.6l1.7-2.6l9.9-8.3l2.4-2l2.6-1.7
				l4.4-1.2l3.4-1.7l3.2-3.1l5.7-3l1.9-1l3.9-3.6l0.5-2.5l-1-4.1l-1.4-1.5l-3.6-3.3l-4.1-6.9l-0.3-5.8l0.5-1v-4.8l-1-3.6l-2.4-7.2
				v-5.7l0.2-5.5L206.9,291.8L206.9,291.8z"/>
			<path class="st5" d="M388,331.5l-5.1,0.9l-3.4-1.1l-1.2-1.5l-1-2.7l-1-2.8l-2-1.5l-4.6,0.2l-4.3,3.2l-3.8,0.5l-4.1,0.3l-2.2,0.2
				l-2.7,0.2l-0.9,2.4l-2.2,1.9l-3.9,3.7l-1.5,3.3l-0.4,1.7l-0.3,2.6l-0.5,2.7l-0.4,3.6l-0.9,3.1l-1.5,3.1l-2.9,2l-1.6,1.3l-0.3,0.2
				l-2.4,2.5l-0.9,0.9l-0.4,0.5l0.5,4.1l-3.1,3.2l-3.4,2.2l-1.5,1.9l-1.7,3.9l-0.5,4.3l-0.2,4.3l0.2,1.3l0.2,2.5v2.9l-1.4,3.1
				l-0.9,3l0.2,2.8l0.5,2.4l1.3,0l3.3,0.2l4.3,2.9l3.6,2.1l9.8-0.7l6.7-3.4l6.3-1l2-0.3l-3.3-2.1l3.8-1.4l3.8-2.5l1.4-0.7l-0.5-2
				l2-1.7l2.4-0.3l1.2-1.6l-1.9,0.5l-1.2-0.5l-1.2-1.4l-0.7-2.2l-0.2-2.9l0.3-2.2l1.4-3.9l0.9-0.2l1.5-3.6l1.4-1.2l1.2-3.8l0.4-3.1
				l1.4-3.6l1.9-6.1l3.1-5.7l0.6-2.7l0.6-2.5l2.2-4.3l3.1-3.9l3-3.2l0.6,0.1l0.9-1.3l0.4-1.5L388,331.5L388,331.5z"/>
			<path class="st5" d="M156.3,381.8l2,1.7l2.9,6.3l1.4,5.7l1.4,7.5l1.4,7.4l3.9,3.6l7,4.2l6.5,3.5l1.7,2.9l5.6,1.6l6.7,1.7l9.3,3.6
				l5.8,4.5l1.5,6l0.9,2.2l-0.1,0l1.7,6.8v3.3v3.3l1.9,0.9l1.1-0.8l6-4.4l3.3-2.5l0.2-1.2l3.9-3.3l5.1-1.7l0.3-0.9l2.9-0.7l3.9-1.7
				l1.7-5l3.4-0.8l7.5,3.1l1.5-0.7l-0.2-1.9l0.4-6.5l1.2-4.5l5.3-5l3.4-5.1l1.9-8l-0.2-7.7l0.2-5l1.9-2.6l3.9-1.5l2.2-1.5l5.6-3.9
				l2-4.5l0.7-3.8l-2-0.2l-4.4,0.7l-4.6,1.5l-4.8,2.5l-6.5,1.2l-2.4-5.8l-2.4-6.2l-3.6-3.8l-8.9-8.4l-5.6-4.3l-5.7,0.1l-7.5,6.1
				L225,363l-5.1,6l-7.9,4.7l-5.1,2.6l-7.9,3.9l-7.5,2.4l-13.7-0.6l-0.7,0l-3.2,0.5h-3.8l-3.2-0.9l-5.8-0.9l-0.9,0.3L156.3,381.8
				L156.3,381.8z"/>
			<path class="st5" d="M151.5,375.1l0.9,2.4l-3,7.2l-2.4,3.6l-1.9,3.9l-2.2,2.8l-0.2,1l-0.1,0.2l-2.1,4.7l-3.6,8.2l-5,6.7l-2.7,5
				l-1.9,3.4l-1.4,1.2l-2.6,2.2l-0.1,5.5v8.4l1.2,7l1.9,6.8l1.4,2.6l1.2,5.3l-1.4,4.4l-3,2.4l-1,0.7l-1.2,1.4l1.2,0.2l1.7,2.4
				l4.3,2.4l5.3,1.5l5.1,2.2l3.9,0.5l2.6-0.5l2.4-1.4l4.3,1.6h3.7l4.3-0.7l2.5-0.9l6-3.7l1.7-2.2l2.1-7.5l2.6-3.7l4.1-2.2l6-3.6
				l7.9-3.7l5.1-2.5l9.2-3.6l5.9-2.3l0.1,0l-0.9-2.2l-1.5-6l-5.8-4.5l-9.3-3.6l-6.7-1.7l-5.6-1.6l-1.7-2.9l-6.5-3.5l-7-4.2l-3.9-3.6
				L164,403l-1.4-7.5l-1.4-5.7l-2.9-6.3l-2-1.7l-2.7-3.8L151.5,375.1L151.5,375.1z"/>
			<path class="st5" d="M321.9,388.1l-0.8-0.3l-1-0.7l-3.3-0.9l-3.1-1l-3.4-0.5l-3.6-1.8l-2.4-1.5l-2.9-1l-2.9-1.5l-3.1-1.2
				l-1.9-0.9l-3.6-0.2l-2.7,0.3l-0.7,3.8l-2,4.5l-5.6,3.9l-2.2,1.5l-0.9,1.4l2.2,0.9l1.7,0.4l1,0.4l2,0.9l1.4,1.2l0.5,2.4l0.3,1.6
				l1.2,1.2l1.5,1l1.9,0.9l2.9-2.2l3.6-2.4l2.5-1.7h1l1.5,1.4l1.2,3.4l0.9,1.7l0.4,1l1.5,2l0.3,0.7l0.5,3.3l-1.2,2.9l-1.4,2.7
				l-2,3.3l-1,3.2l-0.2,3.3l-0.7,1.9l-2.9,0.5l-3.4,2.2l-1.7,0.2l-4.1,0.3l-2.4,0.3l-3.8,1.9l-4.3,5.1l-5.3,1l1,2.4l-3.1,4.1
				l-2.4,3.4l-1.7,2.9l0.4,4.6l3.1,5.7l6.3,5.5l3.9,3.9h2.6l5-0.8l3.3-0.5l2.2,3.8l2.5,1.9l4.8,3.6l2.4,0.7l4.1,5.8l2,4.6l5,1.4
				l1.4,0.9l1.5-0.1l1-0.5l1.7-0.7l1.4-0.7l-0.9-2.8l-1.2-1.9l-2.2-2l-0.7-3.8v-2.9l-4.3-6.7l-0.2-2.8l1.4-2.2l-0.7-5.1l-0.5-3.6
				l1.2-4.1l1.7-2.7l2-3.4v-3.1l-1.9-3.1l-4.3-2.6l-1.4-3.1l-1.4-5.5l0.7-0.9l2-2.2l3.4-3l2.5-2.6l1.9-2.4l1.4-3.8v-2.7l1-3.6
				l1.2-0.8l-0.5-2.4l-0.5-2.4l-0.2-2.8l0.9-3l1.4-3.1v-2.9L321.9,388.1L321.9,388.1z"/>
			<path class="st5" d="M368.6,392.2l-1.2,1.6l-2.4,0.3l-2,1.7l0.5,2l-1.4,0.7l-3.8,2.5l-3.8,1.4l3.3,2.1l3.4-0.9l7.3,0l5.3,2.9
				l3.8,6.2l1.5,0.9l9-0.2l1.7,2.1l6.6-20.7l-0.5-1l-2.1-1.9l-0.5-1.5l-0.4-1.7l-1.2-1.9l-0.7-1.4l-1-0.2l-3.8,1.4l-3.2,0.5
				l-4.8,1.5l-3.4,1.9l-2.7,0.5L368.6,392.2L368.6,392.2z"/>
			<path class="st5" d="M276.6,390.5l-3.9,1.5l-1.9,2.6l-0.2,5l0.2,7.7l-1.9,8l-3.4,5.1l-5.3,5l-1.2,4.5l-0.4,6.5l0.2,1.9l2.7,2.4
				l2.6-0.3l1.9-0.2l2.2-0.7l3.4-0.9l5.3-1l4.3-5.1l3.8-1.9l2.4-0.3l4.1-0.3l1.7-0.2l3.4-2.2l2.9-0.5l0.7-1.9l0.2-3.3l1-3.2l2-3.3
				l1.4-2.7l1.2-2.9l-0.5-3.3l-0.3-0.7l-1.5-2l-0.4-1l-0.9-1.7l-1.2-3.4l-1.5-1.4h-1l-2.5,1.7l-3.6,2.4l-2.9,2.2l-1.9-0.9l-1.5-1
				l-1.2-1.2l-0.3-1.6l-0.5-2.4l-1.4-1.2l-2-0.9l-1-0.4l-1.7-0.4l-2.2-0.9L276.6,390.5L276.6,390.5z"/>
			<path class="st5" d="M461.1,392.8l-1.2,0.3h-2l-2.3-0.4l-0.7-0.1l-1.7,0.7l-1,0.2l-1.7,0.7l-1.2,0.8l-1.2,1.5l-2.1,2.9l-2.5,2.2
				l-4.1,2.7l-2.2,1.7l-3.1,2.6l-4.6,0.2l-4.1,0.5l-3.2-0.2l-5.1-2.9l-3.1-5.5l-1.9-0.5l-0.9,0.5l-3.6,0.3H406l-1.1,0.8l-1.2,3.6
				l-0.2,5.1l3.1,2.9l2.4,0.5h3.7l3.6,1.6l1.4,2.4l2.5,3.9l1,2.8l2.9-0.2l5.5,0.9l1.7,3.8l1.4,2.4l1.9-1.4l3.2,2.4v2.9l5,3.6h1.2
				l2.5-1.9l0.9-1.7v-1.9l1.4-5.1l2.7-2l3.8-3.9l0.5-2.7l1.2-3.9l0.4-4.8l-0.2-4.3l-1-6.2l1.9-2.5l2-2.9L461.1,392.8L461.1,392.8z"
				/>
			<path class="st5" d="M461.1,392.8l-0.9,2.4l-2,2.9l-1.9,2.5l1,6.2l0.2,4.3l-0.4,4.8l-1.2,3.9l-0.5,2.7l-3.8,3.9l-2.7,2l-1.4,5.1
				v1.9l-0.9,1.7l4.6,2.4l3.2,2.6l7.9,4.3l4.3,2.8l3.6,5.2l-4.1,3l-1.5,3.1l1.2,4.3l0.5,3.8l-0.4,2.7v3.8l0.4,2.2l6,2.1l-0.4-1.2
				l0.4-2.6l1.2-2l1.2-2.4l1.4-0.7l1.4-0.9l0-4.1l-1.4-2.9l-1.2-2.9l0.9-3.2l2.9-4.4l0.2-3.4l2.2-2.2l2.9-3.8l0.5-1l1.2-1.5l0.3-1
				l0.4-1.2l0.3-2.6l-0.2-4.1l-0.5-2.9l-1-3.4l-1.9-3.6l-1.5-1.5l-2.7-3.6l-2.8-4.5l-1.4-3.4l-0.5-3.3l0.1-1.5v-1.7l0.2-0.9l-2.9-1
				l-1.4-2.7l-1.9-0.9l-1.5-1.2l-3.4-1.4l-1.2-0.3L461.1,392.8L461.1,392.8z"/>
			<path class="st5" d="M396.6,394.9l-6.6,20.7v1.7l1,3.4l1.5,3.1l0.3,3.1l-0.5,3.1l-0.9,2.9l-0.9,2.4l-1.2,4.3l-2,1.9l-1.9,2.5
				l-1.7,3.3l-1.9,5.6l-0.2,5.3l-0.3,3.8l-3.1,4.8l-4.9,3.2l-0.7,2.5l0,1.1l-0.1,2.2l-0.2,5.6l0.4,6l0.7,2.4l7,2.9l2.9,0l4.1-2.4
				l0.7-5.7l1.7-5l1.9-3.6l2.7-3.8l1.4-2l0.7-1.5l1.4-3.6l-2.7-4.5l-2.8-5.7l0.4-6.9l0.5-7.2l1.2-8l3.3-7.9l0.5-7.2l1.2-6.8l2.5-7.2
				l3.1-2.3l1.1-0.8l-1-1.4l-0.5-2l-1.4-2.1l-3.1-0.4l-2.2-0.2H396.6z"/>
			<path class="st5" d="M432.9,431.6l-1.4-2.4l-1.7-3.8l-5.5-0.9l-2.9,0.2l-1-2.8l-2.5-3.9l-1.4-2.4l-3.6-1.6h-3.7l-2.4-0.5
				l-3.1-2.9l0.2-5.1l1.2-3.6l-3.1,2.3l-2.5,7.2l-1.2,6.8l-0.5,7.2l-3.3,7.9l-1.2,8l-0.5,7.2l-0.4,6.9l2.8,5.7l2.7,4.5l3.1-2
				l3.6-3.2l4.8-4.8l3.4-2.2l4.1-5.1l4.9-4.2l1.5-2.4l3.1-3.8l3.3-4.2l1.9-1.5L432.9,431.6L432.9,431.6z"/>
			<path class="st5" d="M320.6,404.8l0.5,2.4l4.3,2.9l4.5,3.1l5-0.3l3.6,2.9l4.5,5.2l1.2,4.3l2.9,4.5l8.7,6.2l3.8,2.9l5.1,4l5.5-0.2
				l5.3,0.7l4.3,0.7l5.1,0h0.9l1.9-2.5l2-1.9l1.2-4.3l0.9-2.4l0.9-2.9l0.5-3.1l-0.3-3.1l-1.5-3.1l-1-3.4v-1.7l-1.7-2.1l-9,0.2
				l-1.5-0.9l-3.8-6.2l-5.3-2.9l-7.3,0l-3.4,0.9l-2,0.3l-6.3,1l-6.7,3.4l-9.8,0.7l-3.6-2.1l-4.3-2.9l-3.3-0.2L320.6,404.8
				L320.6,404.8z"/>
			<path class="st5" d="M321.1,407.1l-1.2,0.8l-1,3.6v2.7l-1.4,3.8l-1.9,2.4L313,423l-3.4,3l-2,2.2l-0.7,0.9l1.4,5.5l1.4,3.1
				l4.3,2.6l1.9,3.1v3.1l-2,3.4l-1.7,2.7l-1.2,4.1l0.5,3.6l0.7,5.1l-1.4,2.2l0.2,2.8l4.3,6.7v2.9l0.7,3.8l2.2,2l1.2,1.9l0.9,2.8
				l3.9-0.2l5.3,0l4.5,0.5l7-2.4l3.8-0.8l3.2-1.4l2.4-1.7l2-1.5l2-1.8l-0.6-1.3l1.7-2.7l4.6-2.2l5.6-0.8l4.5-0.5l2.7-1.3l0.7-2.5
				l4.9-3.2l3.1-4.8l0.3-3.8l0.2-5.3l1.9-5.6l1.7-3.3h-0.9l-5.1,0l-4.3-0.7l-5.3-0.7l-5.5,0.2l-5.1-4l-3.8-2.9l-8.7-6.2l-2.9-4.5
				l-1.2-4.3l-4.5-5.2l-3.6-2.9l-5,0.3l-4.5-3.1L321.1,407.1L321.1,407.1z"/>
			<path class="st5" d="M446.7,437.3l-2.5,1.9H443l-5-3.6v-2.9l-3.2-2.4l-1.9,1.4l-1.4,0.2l-1.9,1.5l-3.3,4.2l-3.1,3.8l-1.5,2.4
				l-4.9,4.2l-4.1,5.1l-3.4,2.2l-4.8,4.8l-3.6,3.2l-3.1,2l-1.4,3.6l-0.7,1.5l-1.4,2l-2.7,3.8l-1.9,3.6l-1.7,5l-0.7,5.7l1.9,2.4
				l1.7,2.9l1.4,5.7l3.8,3.8l3.1-0.5l3.4-1.4l3.4,3.8l4.3,8.1l2.2,6.9l2.2,2.6l0.5,2.4l2.2-2l2.4-5.3l1.7-1.9l2.8-5l2.1-3.4l2.9-4.3
				l0.8-6.5l3.8-2l3.4-2.2l0.2-4.4l-4.6-3.5l-2-1.5l0.7-4.1l6.2-0.8l5.3-1.9l3.8-1.2l9.2,0l5.7,0.9l3.4,0.2l1.4-0.7l-0.4-2.2v-3.8
				l0.4-2.7l-0.5-3.8l-1.2-4.3l1.5-3.1l4.1-3l-3.6-5.2l-4.3-2.8l-7.9-4.3l-3.2-2.6L446.7,437.3L446.7,437.3z"/>
			<path class="st5" d="M258.9,438.2l-1.5,0.7l-7.5-3.1l-3.4,0.8l-1.7,5l-3.9,1.7l-2.9,0.7l-0.3,0.9l-5.1,1.7l-3.9,3.3l-0.2,1.2
				l-3.3,2.5l-6,4.4l-5.3,18.8l-1.4,2l-3.6,8l-1.7,4.1l-4.3,8.9l-4.3,5.3l-0.5,8.1l1.2-0.4l4.1,0.9l3.9,2.9l7.9,3.6l7.3,1.4l3.4,3.3
				l4.3,3.3l5.3-1.8l2.9-1.5l4.4,2.4l8,4.1l5.6,3.3l1.9,3.3l1.4-0.5l5.5-1.2l8-5.1l3.3-4.8l0.3-5.8l5.1-4.1l13.7-4.4l6.2-2.7l5-4.5
				l2.5-3.6l1.7-1.2l-0.2-2.4l0.5-1.7l1.5-1.9l1.7-1.4l-1.4-0.9l-5-1.4l-2-4.6l-4.1-5.8l-2.4-0.7l-4.8-3.6l-2.5-1.9l-2.2-3.8
				l-3.3,0.5l-5,0.8h-2.6l-3.9-3.9l-6.3-5.5l-3.1-5.7l-0.4-4.6l1.7-2.9l2.4-3.4l3.1-4.1l-1-2.4l-3.4,0.9l-2.2,0.7l-1.9,0.2l-2.6,0.3
				L258.9,438.2z"/>
			<path class="st5" d="M214.2,444.2l-5.9,2.3l-9.2,3.6l-5.1,2.5l-7.9,3.7l-6,3.6l-4.1,2.2l-2.6,3.7l-2.1,7.5l-1.7,2.2l-6,3.7
				l-2.5,0.9l-4.3,0.7h-3.7l-4.3-1.6l-2.4,1.4l3.8,4.3l1.7,2l6.2,4.5l4.8,6.5l7,6.7l1.4,1.9l1.4,7l6.7,0l6,0.5l5,1.4l6.5-2.4
				l1.2-0.3l0.5-8.1l4.3-5.3l4.3-8.9l1.7-4.1l3.6-8l1.4-2l5.3-18.8l-1.1,0.8l-1.9-0.9v-3.3V451L214.2,444.2L214.2,444.2z"/>
			<path class="st5" d="M146.4,480.7l-2.6,0.5l-3.9-0.5l-5.1-2.2l-5.3-1.5l-4.3-2.4l-1.7-2.4l-1.2-0.2l-3.6,3.8l-1.9,5.1l-0.7,4.6
				l-2.4,2l-5.3,2.2L95,487.5l-0.5-0.9l-4.1-1.2l-4.1,2.5l-5.6,5.3l-4.3,5.1l-3.9,6.5l-3.7,7.3l-3.3,7.2l-3.6,6.5l-2.9,5.1l-1.2,5.2
				l-2.7,6.1l-0.2,2.2l-2.2,5.1l-1.5,4.3l-0.7,1.7l-0.7,0.9l-0.2,1l-0.2,2.1l-1,1.9l1.7-1l6.7,0l9.1,0l11.5-0.5l7.7-3.7l9.7-4.6
				l5.5-0.5l8.9,10.5l7.5,4.3l10.1,6.7l5.6,9.6l5.5,8.6l11.3,4.3l7.3-1.9l3.1,4.8l1.2,5.8l1.9,6.7v5.7v0.9l2.2,2.1l1,4.8l1,2.9
				l0.8,0.5l2.6,0.9l4.8-0.5l3.3-1l5-1.5l4.1-0.8l2.9-0.5l4.8-1l5-4.1l4.1-5.6l3.6-4.4l1.7-6.1l1.5-3.4l2-4.3l1.7-3.6l3.2-3.7
				l3.1-3.4l1.9-3.8l2.8-3.6l2.2-3.8l2.1-1.5l1.4-0.2l0.9-0.4l-0.4-3.1l5.3-3.6l5.1-5l4.5-6.1l2.9-5.5l5.6-8.5l3.1-1.7l-1.9-3.3
				l-5.6-3.3l-8-4.1l-4.4-2.4l-2.9,1.5L230,528l-4.3-3.3l-3.4-3.3l-7.3-1.4l-7.9-3.6l-3.9-2.9l-4.1-0.9l-1.2,0.4l-1.2,0.3l-6.5,2.4
				l-5-1.4l-6-0.5l-6.7,0l-1.4-7l-1.4-1.9l-7-6.7l-4.8-6.5l-6.2-4.5l-1.7-2L146.4,480.7L146.4,480.7z"/>
			<path class="st5" d="M372.7,472.5l-2.7,1.3l-4.5,0.5l-5.6,0.8l-4.6,2.2l-1.7,2.7l0.6,1.3l0.8,1.5l2.2,1.7l1.4,4.1l-1.4,2.9
				l-7.9,3.9l-7,4.1l-6.6,6.1l-5.1,8.5l-0.2,1.9l-4.1,2.5l-2.1,7.5l-0.4,8.2l0.5,5l4.6,3.6l6.2,3l4.5,1.2l2,0.5l-0.3-3.1l0.2-1.5
				l2.2-2.9l2.9-5.6l0.7-4.8l0.5-3.6l9.1,1.9l3.4,0.4l4.1-2.4l4.8-3.9l4.1-2.7l1.7,0.4l0.9,5.5l-1,1.9l6.5,2.1l3.3,0.5l0.7-3.4
				l1.2-1.2l9.1,4.7l5,2.4l5.6,0l4.6,0l2.3,0.7l-0.2-1.8l0.7-2.5l0.7-1l1.2-0.5l-0.5-2.4l-2.2-2.6l-2.2-6.9l-4.3-8.1l-3.4-3.8
				l-3.4,1.4l-3.1,0.5l-3.8-3.8l-1.4-5.7l-1.7-2.9l-1.9-2.4l-4.1,2.4l-2.9,0l-7-2.9l-0.7-2.4l-0.4-6l0.2-5.6l0.1-2.2L372.7,472.5
				L372.7,472.5z"/>
			<path class="st5" d="M466.4,477.4l-1.4,0.7l-3.4-0.2l-5.7-0.9l-9.2,0l-3.8,1.2l-5.3,1.9l-6.2,0.8l-0.7,4.1l2,1.5l4.6,3.5
				l-0.2,4.4l-3.4,2.2l-3.8,2l-0.8,6.5l-2.9,4.3l-2.1,3.4l-2.8,5l-1.7,1.9l-2.4,5.3l-2.2,2l-1.2,0.5l-0.7,1l-0.7,2.5l0.2,1.8l0.3,2
				l-2.9,0.9l-3.7,3.1l-1.7,1.2l2,0.5l5.1-0.5l0.4,0.9l-2.6,3.4l-2.7,4.1l-3.8,4.3l-2,4.3l-1,3.9l0.9,4.3l1.7,2.1l7.5-1.2l4.3-2.4
				l5.1-4.1l4.3-4.5l4.5-3l7.2-1.3l1.4-0.3h4.8l2.1,1.7l-0.7,3.6l-0.5,2.6l-1.7,3.8l-1.6,3.5l3.9-2.4l7-4.4l7-8.2l1.4-2.9l2.9-7.5
				l2-3.2l0.2-1.9l0.8-0.8l0.7-2.9l0.7-2.4v-2l0.4-1.4v-1l2.5,1.2l2.4-5.8l1.2-9.6l3.9-5.8l2.4-5.6l0.5-3.3l-0.3-1.5l-2.4-5
				l-4.3-9.6L466.4,477.4L466.4,477.4z"/>
			<path class="st5" d="M320.1,490.5l-1.4,0.7l-1.7,0.7l-1,0.5l-1.5,0.1l-1.7,1.4l-1.5,1.9l-0.5,1.7l0.2,2.4l-1.7,1.2l0.9,2.4
				l0.2,5.8l0.9,6l0.5,5.3l2.4-1.2l5.5-1.7l5.3-1.5l3.6-0.3l2,0.2l0.2-1.9l5.1-8.5l6.6-6.1l7-4.1l7.9-3.9l1.4-2.9l-1.4-4.1l-2.2-1.7
				l-0.8-1.5l-2,1.8l-2,1.5l-2.4,1.7l-3.2,1.4l-3.8,0.8l-7,2.4l-4.5-0.5l-5.3,0L320.1,490.5L320.1,490.5z"/>
			<path class="st5" d="M330.4,516.1l-2-0.2l-3.6,0.3l-5.3,1.5l-5.5,1.7l-2.4,1.2l-0.5-5.3l-0.9-6l-0.2-5.8l-0.9-2.4l-2.5,3.6
				l-5,4.5l-6.2,2.7l-13.7,4.4l-5.1,4.1l-0.3,5.8l-3.3,4.8l-8,5.1l-5.5,1.2l-1.4,0.5l-3.1,1.7l-5.6,8.5l-2.9,5.5l-4.5,6.1l-5.1,5
				l-5.3,3.6l0.4,3.1l0.5,1.7l0.9,4.5l1.2,3.8l3.9,0.5l3.8,1.5l4.6,1.8l3.1,3.1l0.5,1.4l0.7,0.2l1.5,0.4l5.7-2.5l3-3l3.4-4.5
				l0.3-5.3l2-1.4l2.6-1.4l1.2-3.8l0.5-4.5l3.4-2.9l5.3,1.1l2.7,1h3.4l3.1,0l4.4,2.9l3.1-0.4l4.5,3.3l1.9,2.2l3.6,0l3.6-0.7l7-2.9
				l8.2-2l4.6-1.5l2.2-1.4l2.9-0.5h0.7l1.4-2.9l2.1-1.2l1.5-3.1l0.3-3.8l0.2-3.4l-2-0.5l-4.5-1.2l-6.2-3l-4.6-3.6l-0.5-5l0.4-8.2
				l2.1-7.5L330.4,516.1L330.4,516.1z"/>
			<path class="st5" d="M407,540.6l-2-0.5l1.7-1.2l3.7-3.1l2.9-0.9l-0.3-2l-2.3-0.7l-4.6,0l-5.6,0l-5-2.4l-9.1-4.7l-1.2,1.2
				l-0.7,3.4l-3.3-0.5l-6.5-2.1l1-1.9l-0.9-5.5l-1.7-0.4l-4.1,2.7l-4.8,3.9l-4.1,2.4l-3.4-0.4l-9.1-1.9l-0.5,3.6l-0.7,4.8l-2.9,5.6
				l-2.2,2.9l-0.2,1.5l0.3,3.1l-0.2,3.4l-0.3,3.8l-1.5,3.1l-2.1,1.2l-1.4,2.9l-0.5,1.7l2.9,3.6l4.1,0.4l3.6,0.2l4.6,0l2.4,2.9
				l0.8,3.9l2.4,2.2l-0.2,2.7l7.9-4.2l5-1.2l5.3-5.6l4.1,0.4l3.4,0.2l5.6-3.6l1.5-4.3l2.7-3.9l2-3.6l3.8-5l6.5-5.3L407,540.6
				L407,540.6z"/>
			<path class="st5" d="M407,540.6l-2.7,3.1l-6.5,5.3l-3.8,5l-2,3.6l-2.7,3.9l-1.5,4.3l-5.6,3.6l-3.4-0.2l-4.1-0.4l-5.3,5.6l-5,1.2
				l-7.9,4.2l0.2-2.7l-2.4,1.7v4.6l-2,4.1l-1.9,2.9l-1.5,3.8L341,597l-5.1,1.7l-3.8,3.6l-0.7,2.2l0.5,7.6v4.3l-0.5,2l3.8,2.3l4,3.1
				l3.1,0.7h4.5h0.2l3.6-1.2l4-1.4l7.1,0.2l7.6-0.7l5.9,0l3.3,0.7l0.7,3.3v0.5v2.1v2.6l0.9,4.5l3.6,2.6l3.6,2.6l6.7,5.9l1.2-1.4
				l2-2.5l3.4-3.6l0.9-2.7l-0.9-2.4l-1.2-2.8l-0.5-3.1l-4.6-4.3l2.2-1.5l-0.2-1.7l-0.5-2.3l0.7-3.4l5.8-4.3l3.6-3.1l3.4-4.6V599
				l-0.2-5.1l2.2-3.6l4.1-2.4l4.6-3.8l5.5-6l6-6l4.1-4.2l3.6-2.2l1.6-3.5l1.7-3.8l0.5-2.6l0.7-3.6l-2.1-1.7h-4.8l-1.4,0.3l-7.2,1.3
				l-4.5,3l-4.3,4.5l-5.1,4.1l-4.3,2.4l-7.5,1.2l-1.7-2.1l-0.9-4.3l1-3.9l2-4.3l3.8-4.3l2.7-4.1l2.6-3.4l-0.4-0.9L407,540.6
				L407,540.6z"/>
			<path class="st5" d="M162.5,616.5v-5.7l-1.9-6.7l-1.2-5.8l-3.1-4.8l-7.3,1.9l-11.3-4.3l-5.5-8.6l-5.6-9.6l-10.1-6.7l-7.5-4.3
				l-8.9-10.5l-5.5,0.5l-9.7,4.6l-7.7,3.7l-11.5,0.5l-9.1,0l-6.7,0l-1.7,1l-3,8.5l-1.9,5l-0.9,7l-2.2,6l-1,6.4l0.2,4.1l0.5,5.2v8.2
				l-1.2,6l-1.7,4.8v1.5v0.8l-1.5,11.2l-1.7,7l-2.2,2l-2.2,5.5l-2.2,6.3l-2.6,8l-0.5,2.1l-0.5,2l-1.2,7l-2.2,5.3l-1.9,4.6l-0.5,3.4
				l-2.4,3.8l-0.8,2.9l0.2,3.1l-0.7,3l-0.4,1.8l0.4,4.8l0.5,4.3l-0.1,1.2l0,0.4l-1.2,0.9l0.2,6l-0.2,4.1l-0.2,3.8l0.4,2.7l-0.3,4.6
				l0.7,3.8l1.2,3.6l0.7,2.4l2.4,3.6l0.5,2.8l0.7,2.4l1.2,0.9l0.7,0.9l4.1-3.4l0.4-5.7l1.7-12v-9.8l-0.9-7.2l-1-6.2l0.7-0.1l1.9-1.9
				l6.2-5.7l5.5-4.5l3.6-3.6v-0.9l4.7-6.9l7.1-7.4l8.8-9.7l7.1-7.1l2.6-2.2l1.9-1.6l4.8-2.6l5.9-1.7l7.4-0.5l3.9,1.1l2.3-0.6
				l1.4-1.4l2.2-1.5l1.9-0.8l6.3-7.9l3.3-4.3l2-2.6l3.4-3.7l2.9-2l3.6-2.2l4.6-3l3.4-2.4l4.1-2.2l2.6-0.3l5-1.7l4.4,0.5l3.2,1
				l2.9,1.9l1.5-2.7l0.2-1.7l2.7-3.2L162.5,616.5L162.5,616.5z"/>
			<path class="st5" d="M336.2,562h-0.7l-2.9,0.5l-2.2,1.4l-4.6,1.5l-8.2,2l-7,2.9L307,571l-3.6,0l-1.9-2.2l-4.5-3.3l-3.1,0.4
				l-4.4-2.9l-3.1,0H283l-2.7-1l-5.3-1.1l-3.4,2.9l-0.5,4.5l-1.2,3.8l-2.6,1.4l-2,1.4l-0.3,5.3l-3.4,4.5l-3,3l-5.7,2.5l-1.5-0.4
				L249,592l-3.4,3.6l-0.8,3.4l1.2,5l1.9,3.9l3.8,6.2l2.5,6.7l1,2.6l-0.2,2l-1.2,2.7l0.3,2.4l-3.1,2.9l-3.4,2l-2.7,4.1l-1.9,4.1
				l-2.4,3.3l-0.7,2.2l3.9,2.2l2.5,1.7l3.1,1.9l1.5,1.9l2.6,2.1l1.5-0.3l0.9-1.7V654l0.5-2.2l1-2.6l2.9-1.2l2.2-1.2l4.5-0.7l2,0.7
				l1.9,1.7l1.2,1.9l2,5.1l1.4,0l3.2-1.4l0.2-1.7l0.5-2.2l0.5-1.5l1.7-1.5l2.6-1l5.5-1.3l3.4-1l3.6-1.2l4.8-1.7l3.3-1l5-1.9l3.6-0.8
				l3.2-0.7l3.9,1.9l0.3,1.9l0.6,1l1.3-1l3.1-2.4l1.2-2.7l1.9-6.2l0.9-4.8l1-4.1l0.5-2l0.5-2V612l-0.5-7.6l0.7-2.2l3.8-3.6l5.1-1.7
				l7.7-2.9l1.5-3.8l1.9-2.9l2-4.1v-4.6l2.4-1.7l-2.4-2.2l-0.8-3.9l-2.4-2.9l-4.6,0l-3.6-0.2l-4.1-0.4l-2.9-3.6L336.2,562L336.2,562
				z"/>
			<path class="st5" d="M232.1,571.2l-0.9,0.4l-1.4,0.2l-2.1,1.5l-2.2,3.8l-2.8,3.6l-1.9,3.8l-3.1,3.4l-3.2,3.7l-1.7,3.6l-2,4.3
				l-1.5,3.4l-1.7,6.1l-3.6,4.4L200,619l-5,4.1l-4.8,1l-2.9,0.5l-4.1,0.8l-5,1.5l-3.3,1l-4.8,0.5l-2.6-0.9l-0.8-0.5l-1-2.9l-1-4.8
				l-2.2-2.1v-0.9l-1.2,0.2l-2.7,3.2l-0.2,1.7l-1.5,2.7l-2.9-1.9l-3.2-1l-4.4-0.5l-5,1.7l-2.6,0.3l-4.1,2.2l-3.4,2.4l-4.6,3
				l-3.6,2.2l-2.9,2l-3.4,3.7l-2,2.6l-3.3,4.3l-6.3,7.9l-1.9,0.8l-2.2,1.5l-1.4,1.4l-2.3,0.6l1.3,0.4l1.9,2.9l7.1,2.1l4.7,1.7v1.4
				l-0.2,2.9l-1.9,2.1l-1.7,1.9l-0.5,2.1l-2.4,6.4l-0.7,2.9v2.1l0.7,2.6h3.3l6.4-0.5l10.4-2.9l6.4-7.1l6.2-6.9v-2.5v-1.3l2.1-3.6
				l3.6-5l2.1-0.9l2.4,0.5l1.3,7.5l0.5,0.3l2.6,9.4l0.7,9.8l1.2,8.6l1.5,10.1l0.7,9.9l0.4,6.4l0.4,2.6l2-0.2l2.7-2l1.2-2v-2
				l-0.7-1.9l-0.9-1.4l-0.9-2.9l-1.9-2.4v-3.6v-1.7l0.2-2.7l2-2.7l2.6-2.5l5.3-3.4l4.1-2.9l2-2.6l1.4-1.7l3.4-2.5l5.3-2.7l7.4-2.2
				l3.4-1.9l3.6-6.8l2-2.4l3.6-1.2l6.5-3.2l5.1-2.5l0.4-2.8l1-4.4l3.1-2.4l3.4-0.7l5.1,1l1.7-0.8l2.5-1.2l3.9,0.2l1.2,1.2l0.7-2.2
				l2.4-3.3l1.9-4.1l2.7-4.1l3.4-2l3.1-2.9l-0.3-2.4l1.2-2.7l0.2-2l-1-2.6l-2.5-6.7l-3.8-6.2L246,604l-1.2-5l0.8-3.4l3.4-3.6
				l2.2-2.4l-0.7-0.2L250,588L247,585l-4.6-1.8l-3.8-1.5l-3.9-0.5l-1.2-3.8l-0.9-4.5L232.1,571.2L232.1,571.2z"/>
			<path class="st5" d="M331.4,618.3l-0.5,2l-1,4.1l-0.9,4.8l-1.9,6.2L326,638l-3.1,2.4l-1.3,1l1.1,1.8l1.7,4.1l0.3,2.7l1,2l1.4,4
				l-1,2.9l-2.2,2.5l-2.2,1.5l-0.7,2l-2.2,2l-2.9,2l-2.9,1.9l-2,1.5l-2.2,2.2l0.5,2.9l0.7,2.6l0.8,0.5l2.4,1.7l1.4,0.2l4.8,0.2
				l3.7,0.5l2.6,1l2.4,1.2l0.8,0.7l1.5,0.7l2.8,0l3.9-1.4l4.5-0.7h3.1l0.9,0.2l2.5-0.2h1.7h1h1.9l2.4-1.5l2.6-3.3l3.2-2.5l4.6-3.4
				l2.5-1.9l2.7-2.7l4.6-3.2l2.5-3.2l2.4-3.4l3.4-2.4l2.8-2.9l3.4-3.4l2.2-2.6l2-2.4l-6.7-5.9l-3.6-2.6l-3.6-2.6l-0.9-4.5V628v-2.1
				v-0.5l-0.7-3.3l-3.3-0.7l-5.9,0l-7.6,0.7l-7.1-0.2l-4,1.4l-3.6,1.2h-0.2h-4.5l-3.1-0.7l-4-3.1L331.4,618.3L331.4,618.3z"/>
			<path class="st5" d="M97.3,657.5l-3.9-1.1l-7.4,0.5l-5.9,1.7l-4.8,2.6l-1.9,1.6l-2.6,2.2l-7.1,7.1l-8.8,9.7l-7.1,7.4l-4.7,6.9
				v0.9l-3.6,3.6l-5.5,4.5l-6.2,5.7l-1.9,1.9l-0.7,0.1l1,6.2l0.9,7.2v9.8l-1.7,12l-0.4,5.7l-4.1,3.4l1.9,3.8l2.9,3.3l1,0.5l5.8,2.1
				l3.8,2.1l0.9,1.2l1.6,1.4l2.5,2l4.3-1.7l4.3-0.5l2.4,0.4l3.4,2.4l2.2-1l4.3-0.5l0.7-0.4h0.7l3.4-0.5l6-0.5l1.7-1.2l1-0.9l0.9-0.9
				l1.2-2.2l0.3-1.4l0.9-1.9l0.9-1.9l0.7-1l2-2.6l1.9-2.4l2.4-2.4l2.9-1.7l2-0.9l3.4,0l4.1,0.5l1.9,1.5l1.9,1.4l1.2,0.5l2,0.4
				l1.4-1.4l0.4-0.5l0.2-2.4l2.9-3.4l2-1.5l0.9-1.5l0.7-1.9l3.4-2.2l3.4-2.7l5.8-3.1l4.1-2.7l4.3-3.2l5.8-2.2l5-1l5.3-0.9l2.9,0
				l1.5-0.2h0.7l1.1-0.1l-0.4-2.6l-0.4-6.4l-0.7-9.9l-1.5-10.1l-1.2-8.6l-0.7-9.8l-2.6-9.4l-0.5-0.3l-1.3-7.5l-2.4-0.5l-2.1,0.9
				l-3.6,5l-2.1,3.6v1.3v2.5l-6.2,6.9l-6.4,7.1l-10.4,2.9l-6.4,0.5h-3.3l-0.7-2.6v-2.1l0.7-2.9l2.4-6.4l0.5-2.1l1.7-1.9l1.9-2.1
				l0.2-2.9v-1.4l-4.7-1.7l-7.1-2.1l-1.9-2.9L97.3,657.5L97.3,657.5z"/>
		</g>
	</g>
</g>
</svg>
