<?xml version="1.0" encoding="utf-8"?>
<!-- Generator: Adobe Illustrator 26.5.0, SVG Export Plug-In . SVG Version: 6.00 Build 0)  -->
<svg version="1.1" id="Capa_2" xmlns="http://www.w3.org/2000/svg" xmlns:xlink="http://www.w3.org/1999/xlink" x="0px" y="0px"
	 viewBox="0 0 1096.6 794" style="enable-background:new 0 0 1096.6 794;" xml:space="preserve">
<style type="text/css">
	.st0{fill:#B3CFC0;stroke:#00634B;stroke-width:0.8;stroke-miterlimit:10;}
	.st1{fill:#C7F789;}
	.st2{fill:#B3CFC0;}
</style>
<g>
	<g>
		<path class="st0" d="M285.2,93.6l-1.2,1.6l-0.2,2.2v3.5l-0.8,2.6l-0.3,4.2v4.6l0.7,6.2l4.1,7.3l2.8,8.1l0.7,4l2.5,6.5l2,6.2
			l0.5,7.6v5.3l1.6,6.7l2,6.8l2.6,3.5v4.8l-1.1,5.1l-2.3,2.6l-0.1,6.6l0.1,3.8l-1.3,3.1l0.2,4.8l-1,9.8l-3,5.5l-0.7,1.8v3.3
			l-3.5,6.8l-5.6,10.4l-0.4,0.9l-1.6,3.3l-5.5,5.3l-5.6,5.1l-0.5,3.3l0.8,6l1.4,2.8l0.5,10.2l-0.2,3.7l-3.3,10.3l-1,9.1l-3.3,4.5
			l0.2,3.2l-1.6,3.3l1.3,3.3l-0.5,6l0.3,9.3l0.8,9.3l0.3,1.5l6-0.5l3.7,0.5l4-0.3l4-1.6l3-1l4.5-2.8l3.2-2l3.3-2.5l2-0.5l2.5,2.2
			l3,0l1.2-1.3l4.5-4.7l2.2,1.2l2.2,2.8l4-0.3l5.6-3.1l4.3-0.3l5.2-0.2l6,2.2l6.1,2.7l4.5,2.5l3.7,2.8l5.3,3l3.8,2l1.6,1.5l2.8,1
			l1.7,0.7l5.8-6.1l-0.7-3.7l-0.7-2.6l-2.5-3.5l-1.5-3.8l0.7-0.7l-1.3-4.5l-2.8-2.5l-2-1l-3.2-3.3l-2.8-3.3l-2-2.8l-3-3l-2.8-3.2
			l-2.5-4l-2-2.2l-2.5-3.3l-3.3-2.2l-3.1-2.2l-3.2-1.3l-3.1-1.2l-3.3-1.5l-1.6-1.8l-2.2-1.7l-1.8-0.2l-0.8-1.4l1.2-3.1l1.8-1.5h2.8
			l-0.5-2.5l0.3-3.3l0.4-4l0.7-2.7l0.1-4l-2.3-2.7l-2.6-0.7l-3.1-0.2l-2-0.7l-3-2.3l-2.8-1.8l-1.5-2.8l0.1-4.3l0.8-0.8l2.3,0.3
			l2,2.3l1.3,0h2.5l3.7-2.2l2-2.6l1.8-1.3l2.5-1l2.8-1.3l0.2-1.7l-2.5-3l-2.2-1.2l-2.3-2l-2.2-1.8l-1.8-2.5l-4.1-4.7l-2.2-3.9
			l-0.8-6.1l0.7-2.7l0.7-4.6l0.5-3.7l0-1.4v-2.5v-1.2l0.8-4.1l-1.7-5v-2.5v-4.8l2.5-3.8l2.6-2.8l-0.8-3.5l-1.7-3.5l1.3-3.8l2.6-3.3
			l5.3-6l1.3-4.5l0.5-2.6l3.7-3.8l3.1-5.6l0.7-4.5l-1-3.2l-3.8-2.3l-3.7-4.2l-1.5-0.3l-3.3-1l-2.2-3.7l1-4.8l-0.2-4.7l-1-2.3l-2-2.3
			l-1-3.8l-0.7-1.7l-1.2-3.2l-3-3.3l-2.8-3.2l-1.4-1.3l1.3-3.7l2.2-7v-2.5l-2.2,1l-1.2-0.5l-2.1-0.9l-3.3-0.6l-1.2,2.1l-3.5,4.3
			l-3.6,2.8l-4.8,2.8l-3.5,2.8L285.2,93.6L285.2,93.6z"/>
		<path class="st0" d="M315.6,191.6l1.7,5l-0.8,4.1v1.2v2.5l0,1.4l3.6,1.7l1.5-0.3l4.7-0.8l4.8,0l1.1,1.5l4.3,3.7l2.2,3.7l3.3,0.9
			l4.5,2.8l2,6.2l0.2,4.8h2.8l4.5,1l5.8,2.8l2.8,1.2l8.8,2.8l2.2,3l1,3.2l5,5.7l1.3,1.7l3.7,4.3l1.8,0.8l7.3,0.9l3.8,2.7l2.8,5.3
			l2.6,5.3l2.8,3.7l2.8,4.7l8,5l4.3,1l4.5,1.8l0.3-0.8l0.8-1.6h1h2.5l1.2,0.2l1.3,2l0.7,6l0.7,5.2v3.2l1.2,4.1l1.6,1.2h2.6l2.3-1.3
			l1.7-1h3l2.6,0.2l2,4.5l2,5.5l2.5,2.2l2.5,5.3l3,5.2l2.3,6l0.7,2.2l1,2.8l3.8,3.2l5.3,1.5l2,0.2l1.7,0.5l1.6,0.3l1.4,0.2h1.3
			l1.3-0.5h1l1.3,0.3l1.1,0l2.5,0.2l1.3-1.6l1.3-0.8l4-2.5l2.6-1.8l2.8-1l1.8-0.8l2.3-0.1l1.1-0.4h0.7l-0.8-2.2l-1.5-2.5l-0.8-3.5
			l-0.2-4.3l-2.5-1.7l-2.2-2.7l-1.2-5.5l-1.2-3.2l-4.7-2.8l-3.3-2.7l3.5-5.6l3.8-3.6l3.2-3.5l2.3-3.5l1.5-4.3l1-7.6l0.1-5.1l0.5-2
			l-2.5,4l-2.6,1l-4.7,2l-4.6,1.8l-6.3,2.6l-7.3,0.8l-5.1-1l-3.3-2.8l-4.5-7.7l-4.7,1.8l-7,1.8l-2.8-5.8l1-5.1l4.5-6.1l2.5-5.6
			l-4.5-5.7l-6,6.4l-5.9-0.3l-5.8-2.7l-4.7-2.2l-4-0.9l-5.1-2.5l-3.5-2l-2.2-2.4l-1.3,0.5l-3,0.5l-4.1,1.2l-7-0.9l-9.6-3.7l-5.6-2
			l-2.2-1l-2.2-2l-0.8-2l-1.3-3.7l-2.5-5.1l-4-3.5l-2.2-1.4l-1.8-3.2l-2.3-4.1l-3.8-4.7l-4-3l-5.5-3.7l-2-0.2l-0.8-0.1L315.6,191.6
			L315.6,191.6z"/>
		<path class="st0" d="M427.2,286.8l-4.5-1.8l-4.3-1l-8-5l-2.8-4.7l-2.8-3.7l-2.6-5.3l-2.8-5.3l-3.8-2.7l-7.3-0.9l-1.8-0.8l-3.7-4.3
			l-1.3-1.7l-5-5.7l-1-3.2l-2.2-3l-8.8-2.8l-2.8-1.2l-5.8-2.8l-4.5-1h-2.8l-0.2-4.8l-2-6.2l-4.5-2.8l-3.3-0.9l-2.2-3.7l-4.3-3.7
			l-1.1-1.5l-4.8,0l-4.7,0.8l-1.5,0.3l-3.6-1.7l-0.5,3.7l-0.7,4.6l-0.7,2.7l0.8,6.1l2.2,3.9l4.1,4.7l1.8,2.5l2.2,1.8l2.3,2l2.2,1.2
			l2.5,3l-0.2,1.7l-2.8,1.3l-2.5,1l-1.8,1.3l-2,2.6l-3.7,2.2h-2.5l-1.3,0l-2-2.3l-2.3-0.3l-0.8,0.8l-0.1,4.3l1.5,2.8l2.8,1.8l3,2.3
			l2,0.7l3.1,0.2l2.6,0.7l2.3,2.7l-0.1,4l-0.7,2.7l-0.4,4l-0.3,3.3l0.5,2.5h-2.8l-1.8,1.5l-1.2,3.1l0.8,1.4l1.8,0.2l2.2,1.7l1.6,1.8
			l3.3,1.5l3.1,1.2l3.2,1.3l3.1,2.2l3.3,2.2l2.5,3.3l2,2.2l2.5,4l2.8,3.2l3,3l2,2.8l2.8,3.3l3.2,3.3l2,1l2.8,2.5l1.3,4.5l-0.7,0.7
			l1.5,3.8l2.5,3.5l0.7,2.6l0.7,3.7l3.8-0.3l2.3-1.8l1.8-0.1l3-2.3l2.5-2.1l3-2.3l3-1.8l4-3.1l2.6-1.8l3-1.3l2.2-1l1.8-1.5l1.2-0.2
			l1.6,0l1.2-0.8l-0.4-2.2l2.5-3l1.3-2.8l1.6-3.8l0.3-2.3l1.6-3l1.3-2.8l3.2-4.3l1.5-1.5l0.5-1.2l0.5-3l1-4.1l-0.2-2.3v-1.3
			l-0.3-1.7L427.2,286.8L427.2,286.8z"/>
		<path class="st0" d="M530.7,225.7l-4.6-2.7l-0.7-0.7l-4.1,0l-2.2,0.7l-2.6,3l-2,0.6l-0.7,0.5l-1.3,0l3.3,4.3l-0.8,6l-1.3,3.1
			l-4.5,7.7l-2,4.1l-1.7,4.8l0.3,3.7l0.7,3.8l0.3,3.5l3.5,1l3-0.6l2.8-0.3l5.6,0.7l1.3,0.5l1,3l2.8,2.2l2,5.6l2.7,2.4l0.3-7l1.5-2.6
			l0.8-4.5l0.2-3.2l-1.2-3.7l-1.7-1.2l-2.8-5.5l2.2-2.1l2.5,1.8l1,2.5l0.8,0.8l2.8-0.1l2.8-1.6l-1.7-4l-0.5-2.2l-2.2-2.8l-3.2-4.7
			l-0.7-2.2l-0.3-2.7l-0.8-3.7l-0.2-2.6l-0.2-2.8L530.7,225.7L530.7,225.7z"/>
		<path class="st0" d="M512.4,227.2l-3,0.2l-5-1.4l-2.8-0.4l-5.5-0.2l-1.5,0.4l-5,2l-2-0.2l-3.8-2l-0.7-0.8h-3L475,225l-4.7,0.3
			l-6.4,1.5l-5.2,5.1l-1.1,6v3.5l-2.6,2.6l4.5,5.7l-2.5,5.6l-4.5,6.1l-1,5.1l2.8,5.8l7-1.8l4.7-1.8l4.5,7.7l3.3,2.8l5.1,1l7.3-0.8
			l6.3-2.6l4.6-1.8l4.7-2l2.6-1l2.5-4l-0.3-3.5l-0.7-3.8l-0.3-3.7l1.7-4.8l2-4.1l4.5-7.7l1.3-3.1l0.8-6L512.4,227.2L512.4,227.2z"/>
		<path class="st0" d="M552.4,264.7l-4.7-2.8l-4.1-2.3l-2.8-3.3l-2.8,1.6l-2.8,0.1l-0.8-0.8l-1-2.5l-2.5-1.8l-2.2,2.1l2.8,5.5
			l1.7,1.2l1.2,3.7l-0.2,3.2l-0.8,4.5l-1.5,2.6l-0.3,7l1.8,2.3l-0.5,8.5l-0.5,2.2l-1,8.7l2.2,4.1l1.7,1.2l1.8,2.2l1.8,2.2l4.1-3.5
			l2-4.1l0.5-7.3l0.5-4.3l1.2-5l0.3-5.8l1.1-2.8l2.2-4.1l1.3-4.3l0.2-4.5L552.4,264.7L552.4,264.7z"/>
		<path class="st0" d="M556.6,271.1l-2.6-2.3l-1.5-4l-0.2,3.3l-0.2,4.5l-1.3,4.3l-2.2,4.1l-1.1,2.8l-0.3,5.8l-1.2,5l-0.5,4.3
			l-0.5,7.3l-2,4.1l-4.1,3.5l2-0.8l4.3,1l3.2,3.2l2.2,0.7l2.6,0.7l1.5,0.2l2,0.7l2.2,4.5l1.7,1.7l2,2.2l1.2,0.5l2.2,1.1l0.9-0.2
			l0.2-2.2l0.7-1.5l1.2-3l1.3-1.2l1.5-2.1l1.3-1l0.7-1.2l0.8-0.3l1-1.3l2.5-1.8l0.7-1.3l0.1-2v-1.8l-0.7-1.8l-1.2-1l-1.5-1.5l-1-1.9
			l-0.9-0.1l-3.6-1.2l-1.7-2.2l-1-2l-0.5-1.5l-0.2-0.7l-0.7-2l-1.5-1l-1.2-2.3l-1.8-2.8l-1.2-2l-1.5-2.8l-1-2.6l-1.2-3.7l0.5-2.5
			L556.6,271.1L556.6,271.1z"/>
		<path class="st0" d="M506.8,268.2l-0.5,2l-0.1,5.1l-1,7.6l-1.5,4.3l-2.3,3.5l-3.2,3.5l-3.8,3.6l-3.5,5.6l3.3,2.7l4.7,2.8l1.2,3.2
			l1.2,5.5l2.2,2.7l2.5,1.7l0.2,4.3l0.8,3.5l1.5,2.5l0.8,2.2v1.2l0.2,2.5v2.7l0.5,1.7l1.6,1.8l1.7,1.7l1.5,0.5l0.5-2l0.8-1.8
			l0.5-2.5v-3.7l0.3-3.5l2.8-3.3l5.5-3.9l2-2.2l4.1-3.5l3.7-1.1l3.6-3.1l0.3-2l-1.8-2.2l-1.8-2.2l-1.7-1.2l-2.2-4.1l1-8.7l0.5-2.2
			l0.5-8.5l-1.8-2.3l-2.7-2.4l-2-5.6l-2.8-2.2l-1-3l-1.3-0.5l-5.6-0.7l-2.8,0.3l-3,0.6L506.8,268.2z"/>
		<path class="st0" d="M412.3,327l2.8,2l1.5,2.6l3,3.5l3,4.8l2.8,4.5l1.8,4.5l4.3,7.2l4.3,4.3l9.5,8.9l4.3,4.7l7.5,6l1.7,3.8
			l-2.2,1.5l-1.6,3l2.6,3.3l4.5,2.8l4.3,2.3l4.2,1l4,0l1-3.8l0.5-3.8l-0.5-7.1l-0.2-6v-3.5l4.8-12.6v-6.3l-0.3-5.1v-3.8l-0.3-2.7
			l-1.7-0.5l-2-0.2l-5.3-1.5l-3.8-3.2l-1-2.8l-0.7-2.2l-2.3-6l-3-5.2l-2.5-5.3l-2.5-2.2l-2-5.5l-2-4.5l-2.6-0.2h-3l-1.7,1l-2.3,1.3
			h-2.6l-1.6-1.2l-1.2-4.1v-3.2l-0.7-5.2l-0.7-6l-1.3-2l-1.2-0.2h-2.5h-1l-0.8,1.6l-0.3,0.8l-0.3,0.8l0.3,1.7v1.3l0.2,2.3l-1,4.1
			l-0.5,3l-0.5,1.2l-1.5,1.5l-3.2,4.3l-1.3,2.8l-1.6,3l-0.3,2.3l-1.6,3.8l-1.3,2.8l-2.5,3L412.3,327L412.3,327z"/>
		<path class="st0" d="M538.9,313.9l-0.3,2l-3.6,3.1l-3.7,1.1l-4.1,3.5l-2,2.2l-5.5,3.9l-2.8,3.3l-0.3,3.5v3.7l-0.5,2.5l-0.8,1.8
			l-0.5,2l2.5,1l4-0.8l2.8-1.7l3.1-2.5l2.3-2.1l1-2.7l1-1.8l1.3-1.5l1.5-3l4.1,0.5l2.6,1.7l2.8,0.2l4-0.2l4.3-1l3.2,0l3-0.7l3.1-1.6
			l0.7-0.2l3.7-0.9l-2.2-1.1l-1.2-0.5l-2-2.2l-1.7-1.7l-2.2-4.5l-2-0.7l-1.5-0.2l-2.6-0.7l-2.2-0.7l-3.2-3.2l-4.3-1L538.9,313.9
			L538.9,313.9z"/>
		<path class="st0" d="M479.5,343l0.3,2.7v3.8l0.3,5.1v6.3l-4.8,12.6v3.5l0.2,6l0.5,7.1l-0.5,3.8l-1,3.8l-4,0l-4.2-1l-4.3-2.3
			l-4.5-2.8l-2.6-3.3l1.6-3l2.2-1.5l-1.7-3.8l-7.5-6l-4.3-4.7l-9.5-8.9l-4.3-4.3l-4.3-7.2l-1.8-4.5l-2.8-4.5l-3-4.8l-3-3.5l-1.5-2.6
			l-2.8-2l-1.2,0.8l-1.6,0l-1.2,0.2l-1.8,1.5l-2.2,1l-3,1.3l-2.6,1.8l-4,3.1l-3,1.8l-3,2.3l-2.5,2.1l-3,2.3l-1.8,0.1l-2.3,1.8
			l-3.8,0.3l-5.8,6.1l4,1.7l3,1.2l3.7,2.3l2.2,1.2l2.2,0.8l1.7,1l2.3,0.5l3.2,2l4.8,0.9l5.6,2.4l3.8,2.3l4.3,1.4l3.5,1.8l4.1,2.3
			l3,1.4l3.3,1.8l4,3.5l2.6,2.3l3,2l4.5,2.2l5,3.2l2,3.3l3.6,2.7l2.5,2l2.8,1.8l3.3,1.3l3.7,1.8l3.2,2.2l3.7,5.5l2,2.5v4.3l-0.3,3.5
			l0.1,2.7l3.3,1.2l3.3,4l0.8,2l0.8,1.8l1.2,1.2l2.3,0.7l1,0.5l2,0.4l1.8-0.5l1.5-0.7l1.6-1.3l2.3-1.3l2.8-0.6l2.2-1.1l4.3-1.2
			l4.5,0.8l0.1-2.8l0.2-3.3l-1.5-1.2l-0.7-2.8l1-3l1.2-3.2l-0.2-1.3l-0.8-2.8l-0.2-1.8l-1.8-1.7l-1.3-2.8v-2.2v-2.3l-2.5-2.7
			l-0.3-3.7l-0.5-4l-1.2-5l-1.3-2.5l-2.3-1.2l-2.5-0.2l-3.3-0.7l-1.2-2l-0.5-4.1l-0.7-6.3l2-5.2l1-7.1l0-7l0.5-3.7l-0.2-1.5l-1.1,0
			l-1.3-0.3h-1l-1.3,0.5h-1.3l-1.4-0.2L479.5,343L479.5,343z"/>
		<path class="st0" d="M565.8,329.3l-3.7,0.9l-0.7,0.2l-3.1,1.6l-3,0.7l-3.2,0l-4.3,1l-4,0.2l-2.8-0.2l-2.6-1.7l-4.1-0.5l-1.5,3
			l-1.3,1.5l-1,1.8l-1,2.7l-2.3,2.1l-3.1,2.5l-2.8,1.7l-4,0.8l0.4,1.5l-1.2,4l-0.2,3.8l1.8,2.7l2.7,1.7l0.8,1l0.5,1l2.3-1l2.2,0
			l1.5,1.2l1.8,4.8l0.8,2.3l1.8,2l0.4,0.5l2,0.2l4.8-0.3l5.1-0.5h2.5v1.2l0.7,2.8l2.2,0.2l3.3-1.3l3,1.2l0.5,0.8l3.3,0.5l2.6,0.7
			l0.7,0.2l2.7,3.7l2.5-4.8l1.8-4.7l0.2-1l0.5-1.1l0.5-2.5l1.3-3l1.8-2.5l0.3-1.8l2.3-3.2l0.3-1l0.2-3.2l-1-2.2l-0.8-1.3l-1.8-2.4
			l-0.1-2.2l-0.3-3.3l-1.5-2.7l-1.5-1.2l-1.5-1.2l-1.8-1.7l-0.7-2.2l-0.7-2.2l0.7-2.2L565.8,329.3L565.8,329.3z"/>
		<path class="st0" d="M488.6,343.4l0.2,1.5l-0.5,3.7l0,7l-1,7.1l-2,5.2l0.7,6.3l0.5,4.1l1.2,2l3.3,0.7l2.5,0.2l2.3,1.2l1.3,2.5
			l2.3-0.8l2.7-1l2-4l2.2-0.7l2-2.8l4.1-4.3l3-2l2.3-1.5l2.5-4.8l1.4-0.8l-0.8-1l-2.7-1.7l-1.8-2.7l0.2-3.8l1.2-4l-0.4-1.5l-2.5-1
			l-1.5-0.5l-1.7-1.7l-1.6-1.8l-0.5-1.7v-2.7l-0.2-2.5v-1.2h-0.7l-1.1,0.4L505,335l-1.8,0.8l-2.8,1l-2.6,1.8l-4,2.5l-1.3,0.8
			l-1.3,1.6L488.6,343.4L488.6,343.4z"/>
		<path class="st0" d="M266.1,349.6l1.3,5l2.5,8.8l-0.2,5.3l-0.7,6.5l3.3,7.5l3.5,5.8l2.5,2.4l2,6.2l1.3,3.2v1.3l-2.2,4.1l-6.5,6
			l-7.8,8.1l-5.5,3l-10.4,3.1l-3.6,3l-9.3,7.3l-6.4,5l3.4,1.7l0.6,2.4v2.4l2.4,0.6l1.2-2.4l1.2-1.2l1.8,2.4l2.4-1.2v-3l2.4-1.2
			l4.8-0.6l6.6-1.2l5.4-0.6l6.4-1.2l0.4-3.9l3.3-4.5l2.8-5.6l3.6-3l5.3-3.1l5.8,2.5l2.2,4l3.8,4.2l2.2,3.7l0.8,2.2l3.2,4.8l3.5,2.2
			l6.8,1.8l0.8,3.8l5-1l3.8-1.3l3-1.5l2.2-4.3l6.1-2.8l5-1.6l1.5-3.7l-1.2-5.3l-2-3.2l-1.6-4.2l3.6-3.3l3-5.1l12.9-14.1l13.1-12.7
			l13.2-14.6l5.3-6.4l-1.7-1l-2.2-0.8l-2.2-1.2l-3.7-2.3l-3-1.2l-4-1.7l-1.7-0.7l-2.8-1l-1.6-1.5l-3.8-2l-5.3-3l-3.7-2.8l-4.5-2.5
			l-6.1-2.7l-6-2.2l-5.2,0.2l-4.3,0.3l-5.6,3.1l-4,0.3l-2.2-2.8l-2.2-1.2l-4.5,4.7l-1.2,1.3l-3,0l-2.5-2.2l-2,0.5l-3.3,2.5l-3.2,2
			l-4.5,2.8l-3,1l-4,1.6l-4,0.3l-3.7-0.5L266.1,349.6L266.1,349.6z"/>
		<path class="st0" d="M386.1,361.9l-5.3,6.4l-13.2,14.6l-13.1,12.7l-12.9,14.1l-3,5.1l-3.6,3.3l1.6,4.2l2,3.2l1.2,5.3l-1.5,3.7
			l3.2,0.3l3.5,2.3l4.3,2.2l1.8,3.5l8.3,0.9l2.6,3.5l1,6.5l2.8,8.8l2.5,3.3l4.1,7.2l0.5,5.7l-0.8,6l4.8,3.7l11.3-2.4l7-3l2.3-0.3
			l5.5,1.7l4,2.8l5.5,4.5l2.2,5.8l8.8,10.2l1.3-7.5l0.8-1.8l0.8-3.3l-0.8-4.7l-0.8-4l2.1-3.1l3.8-3.5l-2.8-5.2l0.7-5.5l2.6-3.7
			l1.3-2.2l-1.5-3.7l1.2-5.1l0.5-5.6l0.1-8.8l1.8-6.2l-3-8l-2.2-7l-6-3l-9-3.2l-9.6-3l-0.6,0.1l-5.3,0.6l-5.6-2.5l-0.3-2.2l0.3-6.8
			l-2.2-10.8l-2-2.8l-4-2.8l-0.2-8.1V371l3.5-8.6L386.1,361.9L386.1,361.9z"/>
		<path class="st0" d="M521.5,362.2l-1.4,0.8l-2.5,4.8l-2.3,1.5l-3,2l-4.1,4.3l-2,2.8l-2.2,0.7l-2,4l-2.7,1l-2.3,0.8l1.2,5l0.5,4
			l0.3,3.7l2.5,2.7l2.6-1.3l2.2-1.3l1.8-0.7l3.3-0.6l2.8-0.7L514,392l4.8-2.5l3.5-1.8l2.2-1.5l2.3-3.7l2.7-2.6l-0.5-3.7l3.8-3.3
			l-0.4-0.5l-1.8-2l-0.8-2.3l-1.8-4.8l-1.5-1.2l-2.2,0l-2.3,1L521.5,362.2L521.5,362.2z"/>
		<path class="st0" d="M388.4,362.4L385,371v3.3l0.2,8.1l4,2.8l2,2.8l2.2,10.8l-0.3,6.8l0.3,2.2l5.6,2.5l5.3-0.6l0.6-0.1l4.5-0.7
			l7.5-1.1l4-0.7l4.1-2.8l10.5,2.4v4l1.5,6l3.7,7.8l6,6.5l5.3,6l4.7,5.5h2l3.1-0.3l4.3-6.1l1.5-3l-0.3-2.8l2.6-4.8l-0.1-2.7l0.3-3.5
			v-4.3l-2-2.5l-3.7-5.5l-3.2-2.2l-3.7-1.8l-3.3-1.3l-2.8-1.8l-2.5-2l-3.6-2.7l-2-3.3l-5-3.2l-4.5-2.2l-3-2l-2.6-2.3l-4-3.5
			l-3.3-1.8l-3-1.4l-4.1-2.3l-3.5-1.8l-4.3-1.4l-3.8-2.3l-5.6-2.4l-4.8-0.9L388.4,362.4L388.4,362.4z"/>
		<path class="st0" d="M532.8,373l-3.8,3.3l0.5,3.7l-2.7,2.6l-2.3,3.7l-2.2,1.5l-3.5,1.8L514,392l0.3,3.5l-2.8,0.7l-3.3,0.6
			l-1.8,0.7l-2.2,1.3l-2.6,1.3v2.3v2.2l1.3,2.8l1.8,1.7l0.2,1.8l0.8,2.8l0.2,1.3l-1.2,3.2l-1,3l0.7,2.8l1.5,1.2l-0.2,3.3l-0.1,2.8
			l1.5-0.3l4.7,2.2l2.6,4.2l3.2,2l4.5,3.9l3.8,3.5l1,2.6l4.3,1.7l0.8,2.6l1.5,2.2l1.3,2l2.3,2.8l0.8,0.2l3.8-1.5l2.5-1.3l3.8-2.1
			l3.1-1l1.5-1.2l1.8-1.5l2.3-1.8l0.2-2.5l-0.8-1l-1.7-1.2l-2.8-1.2l-3.1-3l-1.8-2.7l-3-2.8l-2.5-1.3l-3.5-2.7l-2.3-2.5l-1.2-4
			l2.5-3.5l5.6-4.1l3.2-2l4.1-2l2.6-4l3-5l1-5l3-8.8l3.2-6.3l3.7-2.8l-2.7-3.7l-0.7-0.2l-2.6-0.7l-3.3-0.5l-0.5-0.8l-3-1.2l-3.3,1.3
			l-2.2-0.2l-0.7-2.8v-1.2h-2.5l-5.1,0.5l-4.8,0.3L532.8,373L532.8,373z"/>
		<path class="st0" d="M574.9,389.3l-4.3-2.4l-1.5-1.7l-2.8-2.2l-0.2-0.8l-3.7,2.8l-3.2,6.3l-3,8.8l-1,5l-3,5l-2.6,4l-4.1,2l-3.2,2
			l-5.6,4.1l-2.5,3.5l1.2,4l2.3,2.5l3.5,2.7l2.5,1.3l3,2.8l1.8,2.7l3.1,3l2.8,1.2l1.7,1.2l0.8,1l4.6-4.5l0.8-1.2l5.8-7.1l0.5-6.5
			l2-6.5l0.7-6.3l4.6-5.5l1.3-5l0.3-5.6l-1-7L574.9,389.3L574.9,389.3z"/>
		<path class="st0" d="M602.6,400.4l-4-0.4l-2.3-1.5l-3.7-2.3l-1.5-1l-0.8-2.3l-0.5-1.7l-4.1-0.7l-3.5-0.5l-2.5,0l-3.5-0.2l-1.3-0.5
			l1.8,3.7l1,7l-0.3,5.6l-1.3,5l-4.6,5.5l-0.7,6.3l-2,6.5l-0.5,6.5l-5.8,7.1l-0.8,1.2l-4.6,4.5l-0.2,2.5l-2.3,1.8l-1.8,1.5l-1.5,1.2
			l1.3,1.6l2.2,1l3,0.2h2.3l2.2-0.5l3-0.5h0.7l1.3-2.2v-1.8l3.5-1.2l7-1.2l4.1-1.6l2.3-2.6l3.2-4.8l2.5-4.1l4.8-3.3l5.6-3.5l2.6-3.7
			l2.3-3.5l2.5-2.8l-0.1-1.5l-1-2.2l0.2-3.2l0.8-2.8l-1.4-2L602.6,400.4L602.6,400.4z"/>
		<path class="st0" d="M607.6,420.7l0.2,1.7l0.2,3.8l1.2,4l0.8,2.3l-1.3,3.8l-0.8,2.7l-0.5,4l1,2.7l0.2,2.6v3l2.3,1.5l3.5,1.7
			l3.7,2.3l3.8,2.4l2.2-0.2l5.1-5.5l6,0.2l1.4,2.3l5.1,2.8l2.2-1.8l4.7,1.5l12.7-1.6l0.2-6.1l1.5-5.5l1.2-2.3l0.7-3l-4.5-7.7l-1-0.3
			l-0.4-1.5l-0.5-1.4l-0.4-1.1l0.8-3l0.8-1.8l0.8-2.2l1.2-1.8l0.2-1.2l0.2-1.7l-2.2-2.5l-1.8-2.6l-1.5-1.5l-2-4l-1.7-1.3l-2.3-0.7
			l-2.5,0l-2.6,1.2l-3.7,0.1l-3.7,0.3h-4.3l-2.2,1.2l-2.8,1.5l-3.6,0.5l-2.3-0.5l-0.8-2l-0.7-3.2h-2.3h-2.2l-3.5,0l-2.6-0.2l-5-0.5
			h-1.3l-1.7-1.7l3.5,8.7l1.4,2l-0.8,2.8l-0.2,3.2l1,2.2L607.6,420.7L607.6,420.7z"/>
		<path class="st0" d="M469.7,425.6l-2.6,4.8l0.3,2.8l-1.5,3l-4.3,6.1l-3.1,0.3h-2l-4.7-5.5l-5.3-6l-6-6.5l-3.7-7.8l-1.5-6v-4
			l-10.5-2.4l-4.1,2.8l-4,0.7l-7.5,1.1l-4.5,0.7l9.6,3l9,3.2l6,3l2.2,7l3,8l-1.8,6.2l-0.1,8.8l-0.5,5.6l-1.2,5.1l1.5,3.7l2.2,2.7
			l3.3,4l3.7,3.5l6.6,9.7l3.7,5.2l4.8,1.2l5.3-0.3l3.1-1.6l1.8-3.3l1.7-1.8l2.5-0.7l2.3-0.5l1-3.1l1.3-1.2l1.5-3.2l1-2.2l1.7-3.5
			l1.8-7.3l2-6.1l1.7-6l0.8-4.1l0.2-3.2l-3.8-4.5l-1-0.5l-2.3-0.7l-1.2-1.2l-0.8-1.8l-0.8-2l-3.3-4L469.7,425.6L469.7,425.6z"/>
		<path class="st0" d="M313.2,447l-0.8-3.8l-6.8-1.8l-3.5-2.2l-3.2-4.8l-0.8-2.2l-2.2-3.7l-3.8-4.2l-2.2-4l-5.8-2.5l-5.3,3.1l-3.6,3
			l-2.8,5.6l-3.3,4.5l-0.4,3.9l-0.2,2.4l0,3.7l-3.2,4.9l-3.5,5.5l-0.7,3.3l-2,3l5.6,12.3l5.1,5.2l3.8,4.3l5.8,4.2l5.9,3.3l4.1,6.7
			l5.7,9.7l6.6,5l4.8,3.8l2.3,4.2l2.5,8.3l3.2,4.3l0.9,1.4l1.9,3l3.7,2.4l5.5,3.9l4.1,2.2l6.8,3.2l0.5,1.8l2.2,2l5-2.5l3.8-0.8
			l3-1.5l4-3.5l3.3-0.8l4.2,0.2l5.6-0.1l2.3-0.3l7,4.2l10.1,6.5l2.3,2.3l2.2,0.5l1.3,0.7l5.2-1.2l0.7-1.3l3.7,2.7l3.1,3.2l2.2,4.3
			l1.5,3.5l4.7,1.2l2.8,1.4l5.1,3.3l2.8,0l1.8-0.2l4-0.3l4.5,0l3,0.2l2.6,1.5l2.2,1.8l0.8-2l0.3-0.5l1.2-3l0.8-1.5l0.7-1.5l0.5-2.3
			l0.5-3.8l1.3-2.5l1-4.5l-4.1-7.2l-2.2,0.4l-2.3,0.6l-3.1-0.2l-2.2,0.2l-8-4l-6-3.5l-5.5-5l-2,2.1l-5,3.5h-2.8l-2-3v-2.3l-3.8,0.3
			l-2.2,0.2l-3.5,0l-5.6,0.3l-4,0.1l-5.5,0.3l-7.6-2l-4.5-1.7l-7-1.7h-4.7l-5.8,0l-5.2,0l-5.3-1.4l-3-2.7l-5.5-2.3l-6-4.5l-3.8-5.7
			l1.8-5.6l-1.3-6.2l-0.7-6l0.8-10.6l-0.2-7.5l-2.2-10l-2.5-5.1l-1.8-9.5l-2-6L313.2,447L313.2,447z"/>
		<path class="st0" d="M607.6,420.7l-2.5,2.8l-2.3,3.5l-2.6,3.7l-5.6,3.5l-4.8,3.3l-2.5,4.1l-3.2,4.8l-2.3,2.6l-4.1,1.6l-7,1.2
			l-3.5,1.2v1.8l-1.3,2.2l0.7,1.2l-0.2,7.5l-0.3,4.6l-0.2,5.1l0.5,5.7v4.1l-3.5,3.3l-0.7,2.3l-0.3,2.3l2.2-0.3l1.5-1.2l3.3-0.6h3
			l3.5-0.1l2-0.3l2.5-1.8l2.3-2l3.2-1.1l4.6-0.3l1.8-2.2h4l1.8-0.4l0.2-1.9v-1.3v-1.2l0.3-1.8l0.2-1.8l0.3-0.8l1-1.5l0.8-1l2-2.2
			l3.2-2.1l-1.2-2.8l0.5-3.3l1-1.8l0.7-2.6l1.2-3.8l0.8-1.3v-3l-0.2-2.6l-1-2.7l0.5-4l0.8-2.7l1.3-3.8l-0.8-2.3l-1.2-4l-0.2-3.8
			L607.6,420.7L607.6,420.7z"/>
		<path class="st0" d="M674.4,429.8h-1.8l-1.2,1.3l-1.5,0.1l-2.5,0.5l-0.7,0.4l-1.8,0.1l-1.3,0.2l-3-0.2l-0.7,0.1l4.5,7.7l-0.7,3
			l-1.2,2.3l-1.5,5.5l-0.2,6.1l-12.7,1.6l-4.7-1.5l-2.2,1.8l-5.1-2.8l-1.4-2.3l-6-0.2l-5.1,5.5l-2.2,0.2l-3.8-2.4l-3.7-2.3l-3.5-1.7
			l-2.3-1.5l-0.8,1.3l-1.2,3.8l-0.7,2.6l-1,1.8l-0.5,3.3l1.2,2.8l-3.2,2.1l2,0.5l2,0.5l1.8,2l2,2.2l2.2,3l1.7,3.5l1.9,1.1l8.3,4.9
			l3.8-0.5l4.5,1.5l3.5,1l1.3,0.2l2.3,0.3l2.8-1.8l1.4-2.2l2-3.1l2-0.5l3.7-2.2l1.1-4l4,0l6.8,0.4l3.6,2.2l5,1.5l3.2,0.5l1.5,1v-0.8
			l0.5-2.6l0.8-3.5l0.5-2.8l-0.2-4.3l0.5-4.8l-1-5.3l-1.2-6.1l-0.3-3l-0.2-4.3l-0.3-2.3l-2.3-5L674.4,429.8z"/>
		<path class="st0" d="M482.5,436.9l3.8,4.5l-0.2,3.2l-0.8,4.1l-1.7,6l-2,6.1l-1.8,7.3l-1.7,3.5l2,2.8l4.3,3.7l3,1.5l4.7,2.5
			l4.3,1.2l0.8-0.3l1.8-0.5l5.1-1l6.6-1.6l5-1.6l1.3-1l1.5-1.5l3.7-5.5l3.8-3.5l1.5-4l1-3.5l1.8-2.3l1.5-3.3l-0.8-2.6l-4.3-1.7
			l-1-2.6l-3.8-3.5l-4.5-3.9l-3.2-2l-2.6-4.2l-4.7-2.2l-1.5,0.3l-4.5-0.8l-4.3,1.2l-2.2,1.1l-2.8,0.6l-2.3,1.3l-1.6,1.3l-1.5,0.7
			l-1.8,0.5L482.5,436.9L482.5,436.9z"/>
		<path class="st0" d="M338.2,434.5l-5,1.6l-6.1,2.8l-2.2,4.3l-3,1.5l-3.8,1.3l-5,1l2.2,2.5l2,6l1.8,9.5l2.5,5.1l2.2,10l0.2,7.5
			l-0.8,10.6l0.7,6l1.3,6.2l-1.8,5.6l3.8,5.7l6,4.5l5.5,2.3l3,2.7l5.3,1.4l5.2,0l5.8,0h4.7l7,1.7l4.5,1.7l7.6,2l5.5-0.3l4-0.1
			l5.6-0.3l3.5,0l2.2-0.2l3.8-0.3l3.8-2l0.5-2.7l1.2-4.1l2.2-3.8l1.8-4.5l2.3-3.5l2.5-3.5l1.3-3.2l1.7-2l-8.8-10.2l-2.2-5.8
			l-5.5-4.5l-4-2.8l-5.5-1.7l-2.3,0.3l-7,3l-11.3,2.4l-4.8-3.7l0.8-6l-0.5-5.7l-4.1-7.2l-2.5-3.3l-2.8-8.8l-1-6.5l-2.6-3.5l-8.3-0.9
			l-1.8-3.5l-4.3-2.2l-3.5-2.3L338.2,434.5L338.2,434.5z"/>
		<path class="st0" d="M268.7,438l-6.4,1.2l-5.4,0.6l-6.6,1.2l-4.8,0.6l-2.4,1.2v3l-2.4,1.2l-1.8-2.4l-1.2,1.2l-1.2,2.4l-2.4-0.6
			v-2.4l-0.6-2.4L230,441l-2.6,2l-8.3,6.9l-4.5,6.5l-2.2,4.6l-1.8,5.3l-0.8,2.8l9.1,8l0.2,2.5l2.5,5l1,4.5l0.7,4.3l-0.3,4.1l0.8,2.2
			l-6.3,5.3l0.8,3.7l4.8-2l3.3,0.2v3.7l-0.1,4l0.2,2.2l1.5,3.3l3.8-1.3l5.5,0.5l3.8,0.9l2.2-0.8l1-3.8l2-3.3l2.8-1.8l1.7,4.3
			l1.2,1.5l2.6,3l1.7,1.7l1.8,5.5l1.5,3.7l2.5,3.5l3.1,3.2l4.5,0.3l7.3,1.7l3.7,0.7l5.8,0.9l2.3,1l3.1,1.3l1.7-2.6l1.8-3l1-0.4
			l5.7-2.6l5.4-0.6h3.6h4.7l-0.9-1.4l-3.2-4.3l-2.5-8.3l-2.3-4.2l-4.8-3.8l-6.6-5l-5.7-9.7l-4.1-6.7l-5.9-3.3l-5.8-4.2l-3.8-4.3
			l-5.1-5.2l-5.6-12.3l2-3l0.7-3.3l3.5-5.5l3.2-4.9l0-3.7L268.7,438L268.7,438z"/>
		<path class="st0" d="M541.8,459.4l-3.8,1.5l-0.8-0.2l-2.3-2.8l-1.3-2l-1.5-2.2l-1.5,3.3l-1.8,2.3l-1,3.5l-1.5,4l-3.8,3.5l-3.7,5.5
			l-1.5,1.5l2.5,3l1.5,1.3l0.8,4.5l-3.5,1.8l-1.1,0.2l-4.5,0.8l-1.3,1.3v2.3l0.8,2.6l1.7,0.4l3.5,2.5l2.6,2.5l2.7,2.8l3.3,1.5l2.6,1
			l3.2-0.4l4.8-0.9l2.5-1.8l1.7-3.3l4.8-1l3.1-2.3l0.8-0.8l-0.8-1.7l-1.3-3.2l-3-3.3l-1.5-5.3l-2.3-4.3l-0.5-3.5l-0.2-6.8l1.3-4
			L541.8,459.4L541.8,459.4z"/>
		<path class="st0" d="M551.2,455l-3.1,1l-3.8,2.1l-2.5,1.3l-0.3,3.8l-1.3,4l0.2,6.8l0.5,3.5l2.3,4.3l1.5,5.3l3,3.3l1.3,3.2l0.8,1.7
			l0.8,0.2l3,2.2l2,1.5l0.7,1.6l3.5,3l1.7-2.6l0.7-3l0.3-2.3l-0.5-2.8l0.3-2.3l0.7-2.3l3.5-3.3V481l-0.5-5.7l0.2-5.1l0.3-4.6
			l0.2-7.5l-0.7-1.2h-0.7l-3,0.5l-2.2,0.5h-2.3l-3-0.2l-2.2-1L551.2,455L551.2,455z"/>
		<path class="st0" d="M462,489.2l-5.3,0.3l-4.8-1.2l-3.7-5.2l-6.6-9.7l-3.7-3.5l-3.3-4l-2.2-2.7l-1.3,2.2l-2.6,3.7l-0.7,5.5
			l2.8,5.2l-3.8,3.5l-2.1,3.1l0.8,4l0.8,4.7l-0.8,3.3l-0.8,1.8l-1.3,7.5l5.6,2.2l4.8,1.4l4.5,4.5l4.5,0.8l3.8,2.8l-0.2,3.3l0,5v2.5
			l3.6,3l3.2-2.5l-0.7-3.5l-1.3-4.5l-0.5-4.5l1.5-4.1l1.7-5l1.8-2.5l1-2.3l0.7-1.8l0.3-1.5l1.2-1.3l1.8-2.8V494l0.7-1.8L462,489.2
			L462,489.2z"/>
		<path class="st0" d="M615.8,482l-1.9-1.1l-1.7-3.5l-2.2-3l-2-2.2l-1.8-2l-2-0.5l-2-0.5l-2,2.2l-0.8,1l-1,1.5l-0.3,0.8l-0.2,1.8
			l-0.3,1.8v1.2v1.3l-0.2,1.9l-1.3,1l-0.3,0.7l-0.8,0.8l-0.5,1.6v1l1.4,3.2l0.7,0.5l1,1l3,0.2l3.3-0.1l1.2,2.2l4,0.5l2.2,0.2l2.2,1
			L615.8,482L615.8,482z"/>
		<path class="st0" d="M209.9,469.2l-2.6,2.5l-4.8,4l-4,3.5l-4.3,3l-7.5,3.3l-4.3,0.8l-4.1,2.6l-6.5,6.1l-3,5.8l-3.7,0.8l-3.1,3.2
			l-6.6,4.5l-2.6,1.6l-3.1,1.1l-6.5,0l-4.1,1.5l-3.8,4.3l-3.6,3.7l-1,3.5l-3,3.6l-1.8,2.5l-0.7,1.3l-1,2l3,6.2l0.7,3.7l-0.1,4l0.2,5
			l2.2,3.3l1.8,6.3v2.6l2.3,5l3.8,3.7l0.5,1.6l-1.3,2.8l-6.8,1.6l-4.5,0.7l-2.6,0.6l-3.8,5.8l-4.1,5.6l-3,4.3l-4.1,3.5l-4.5,6
			l-2.3,2.1l-2,1.8l-0.3,0.5l5.5,8l2.5,1.3l5,2.8l5.6,0.4l6.8-1l5.1,0.9l2.6,0.7l10-1.8l14.1-3.6l7.9-2.1l7,1.5l4.7,2.4l11.5,3.5
			l8.1,3l14.1,2l5.1-0.3l0.4-0.5l2.5-1.5l3.3-0.8l4.7-1.5l5.5-0.7l7-2l7.5-1l5.1-1.8l5-2l3-2.8l4.6-2.5l6-2.4l5.2-2.2l4.8-2.1
			l3.5-2.5l4.3-2l2.5-1.6l2.3-4l2.3-6l1.8-3.3l0.3-2l0.2-4l0.8-4l1.2-4.3l0.8-5.8l-0.5-6.6l-1-5.6l-1.7-4.3l-1.8-4.2l-2-2.3
			l-3.1-1.3l-2.3-1l-5.8-0.9l-3.7-0.7l-7.3-1.7l-4.5-0.3l-3.1-3.2l-2.5-3.5l-1.5-3.7l-1.8-5.5l-1.7-1.7l-2.6-3l-1.2-1.5l-1.7-4.3
			l-2.8,1.8l-2,3.3l-1,3.8l-2.2,0.8l-3.8-0.9l-5.5-0.5l-3.8,1.3l-1.5-3.3l-0.2-2.2l0.1-4V507l-3.3-0.2l-4.8,2l-0.8-3.7l6.3-5.3
			l-0.8-2.2l0.3-4.1l-0.7-4.3l-1-4.5l-2.5-5l-0.2-2.5L209.9,469.2L209.9,469.2z"/>
		<path class="st0" d="M478.2,471.6l-1,2.2l-1.5,3.2l-1.3,1.2l-1,3.1l3,1.7l3.7,3.7l0.7,3.8l-1.8,3.3l-1,1.7l1.3,3l-0.5,5.1l4.3,5.2
			l1.7,4l0.5,2l8-1.6l7.8-1.8l-0.3-3.3l0.3-4.7l-0.5-3l0.7-2.7l-0.2-2.3l0.8-1.8l-2.8-1.3l-2.8-1.5l-2-1.7l0.2-3.8l2.2-1.8l-4.3-1.2
			l-4.7-2.5l-3-1.5l-4.3-3.7L478.2,471.6L478.2,471.6z"/>
		<path class="st0" d="M676.6,481.3l-1.5-1l-3.2-0.5l-5-1.5l-3.6-2.2l-6.8-0.4l-4,0l-1.1,4l-3.7,2.2l-2,0.5l-2,3.1l-1.4,2.2
			l-2.8,1.8l1,1.3l-0.5,1.7l-1.2,3.3l-1.4,3.3l-3,2l-1.5,3.2v4v3.5l2.8,1.2l0.5,5h2.3l3.2,1.7l3.8,2.8l1.5,1.5l1.2,1.4l1.2,1.2
			l2.1-1.7l2.2-1.5l2.8-0.3l3-0.1l3.1-0.2l2.7,0.4l0.3-0.5l-0.3-0.5l2.2-3.7l4.3-3.3l3.5-3.8l0.5-2.8l0.7-6.2l-0.2-3.2l-1.2-5.1
			l0.8-3.3l0.5-3.5V481.3z"/>
		<path class="st0" d="M517.2,477.3l-1.3,1l-5,1.6l-6.6,1.6l-5.1,1l-1.8,0.5l-0.8,0.3l-2.2,1.8l-0.2,3.8l2,1.7l2.8,1.5l2.8,1.3
			l1.7-0.1h2.6l2.3,0.5l3.1-1.3v-2.3l1.3-1.3l4.5-0.8l1.1-0.2l3.5-1.8l-0.8-4.5l-1.5-1.3L517.2,477.3L517.2,477.3z"/>
		<path class="st0" d="M462,489.2l-0.7,3l-0.7,1.8v2.8l-1.8,2.8l-1.2,1.3l2.8,2.2l3,0.8l1,4.5l3.1,2.8l1.2,3.3l1.5,3.2l2.2,0.5
			l1.9,7.4l3.2-4.4l3.3-4.1l4.7-1.8l-0.3-0.7l-0.5-2l-1.7-4l-4.3-5.2l0.5-5.1l-1.3-3l1-1.7l1.8-3.3l-0.7-3.8l-3.7-3.7l-3-1.7
			l-2.3,0.5l-2.5,0.7l-1.7,1.8l-1.8,3.3L462,489.2L462,489.2z"/>
		<path class="st0" d="M615.8,482l-2.6,14.3l-0.2,1.8l-0.1,1.3l-0.2,1.5l-0.3,2.3v2.6v2.2l0,2.3l0.3,2v2.7l0.2,3l-0.7,2.8l2.3,0.4
			l1-0.8l1-0.1l1.8-1.3l1.3-0.7l1-0.5l5.3-1.1l1.3-0.8l3-2.8l1.7-0.8l1.1-0.5v-3.5v-4l1.5-3.2l3-2l1.4-3.3l1.2-3.3l0.5-1.7l-1-1.3
			l-2.3-0.3l-1.3-0.2l-3.5-1l-4.5-1.5l-3.8,0.5L615.8,482L615.8,482z"/>
		<path class="st0" d="M597.4,482.6l-1.8,0.4h-4l-1.8,2.2l-4.6,0.3l-3.2,1.1l-2.3,2l-2.5,1.8l-2,0.3l-3.5,0.1h-3l-3.3,0.6l-1.5,1.2
			l-2.2,0.3l0.5,2.8l-0.3,2.3l-0.7,3l-1.7,2.6l3.7,3.8l4.5,4.7l3.7,7.7l4.5,3.5l1.8,3.3l1.5,3v1.5l6.7,1.2l1.6-2.3h3.3l1.3-0.8
			l1.5-2l1.5-2.2l1.3-1.3l0.5-1.3l0.5-1.3v-1.5l-0.5-3.3l-0.4-2.8l0.2-4.1l0.1-4.7l0.2-6l0.3-6.5l-1-1l-0.7-0.5l-1.4-3.2v-1l0.5-1.6
			l0.8-0.8l0.3-0.7L597.4,482.6L597.4,482.6z"/>
		<path class="st0" d="M597.5,492.4l-0.3,6.5l-0.2,6l-0.1,4.7l-0.2,4.1l0.4,2.8l0.5,3.3v1.5l-0.5,1.3l-0.5,1.3l11,10.4l0.2-1.3
			l0.8-3.5l0.7-1.8l1-2.6l0.5-1.2l0.2-0.8l1-1l0.5-1.2l0.7-2.8l-0.2-3v-2.7l-0.3-2l0-2.3v-2.2v-2.6l0.3-2.3l0.2-1.5l0.1-1.3l0.2-1.8
			l-2.2-1l-2.2-0.2l-4-0.5l-1.2-2.2l-3.3,0.1L597.5,492.4L597.5,492.4z"/>
		<path class="st0" d="M501.8,493.5l-0.8,1.8l0.2,2.3l-0.7,2.7l0.5,3l1.6,1.7l2.3,4l-1,8.6l-0.5,6.5l2,2h2.6l4.3,0l6.8,3.3l5.1,5.2
			l6.3-1.1l3-0.8l2.8-2l1.2-3.5l0.5-3.8l1.7-2.6l2.6-5l2.8-1.1l3.3-0.5l2,0h4l2-2.8l0.3-3.7l0.8-1.8l2-2l-3.5-3l-0.7-1.6l-2-1.5
			l-3-2.2l-0.8-0.2l-0.8,0.8l-3.1,2.3l-4.8,1l-1.7,3.3l-2.5,1.8l-4.8,0.9l-3.2,0.4l-2.6-1l-3.3-1.5l-2.7-2.8l-2.6-2.5l-3.5-2.5
			l-1.7-0.4l-0.8-2.6l-3.1,1.3l-2.3-0.5h-2.6L501.8,493.5L501.8,493.5z"/>
		<path class="st0" d="M457.7,501l-0.3,1.5l-0.7,1.8l-1,2.3l-1.8,2.5l-1.7,5l-1.5,4.1l0.5,4.5l1.3,4.5l0.7,3.5l0.2,3.2l-0.2,2.5
			l-0.3,1.7l1.5,3.5l0.3,2.3h1l4.8-1l2.6-1.8l4.5-1.5l4.6-2.5l3-0.7l2.2-0.3l1.2-2V533l-2.3-3.5l-1.5-2.2l-0.4-1.6l-1.9-7.4
			l-2.2-0.5l-1.5-3.2l-1.2-3.3l-3.1-2.8l-1-4.5l-3-0.8L457.7,501L457.7,501z"/>
		<path class="st0" d="M485.2,514.7l0.3,0.7l-4.7,1.8l-3.3,4.1l-3.2,4.4l0.4,1.6l1.5,2.2l2.3,3.5v1.2l2.8-0.5l3.8-1l2.6-1.3l4.1-1
			l2.3,0.3l0.3,4.1l-1.5,1l-0.8,2.2v4.7l0.2,2.8l3-0.3l3.5-0.2l1.5-0.2l1.7,1l0.7,4.3l-0.8,2l4.1,0h3.3l3.3-0.1l-2.3-3.2l3-2l3.3-2
			l3.8-5.9l1.2-2.2l0.5-2.2h2.2l-5.1-5.2l-6.8-3.3l-4.3,0h-2.6l-2-2l0.5-6.5l1-8.6l-2.3-4l-1.6-1.7l-0.3,4.7l0.3,3.3l-7.8,1.8
			L485.2,514.7L485.2,514.7z"/>
		<path class="st0" d="M559.7,503.9l-2,2l-0.8,1.8l-0.3,3.7l-2,2.8h-4l-2,0l-3.3,0.5l-2.8,1.1l-2.6,5l-1.7,2.6l-0.5,3.8l-1.2,3.5
			l-2.8,2l-3,0.8l-6.3,1.1h-2.2l-0.5,2.2l-1.2,2.2l-3.8,5.9l-3.3,2l-3,2l2.3,3.2l1,2.7l1.4,2.6v3.3l-2,4.1l-1.2,4l-0.8,3.2v3v3.2
			l-0.7,2.2l-0.2,1.2l0.2,1.8v0.7v2.5l2.6-0.8h2.3l3.8,0.2h1.2l4.3-0.2l3-2.8l5.1-0.5l2.6,1.2l1,1.2l2.5-0.2l4.1-0.5l6,0l8.6-3.1
			l4.6,2.7l-1.8-2.5l2-5.6l0.5-5l0.8-5.5l2-5l4.3-11.9l-2-3l-1.5-4.7l2.2-0.8h2l2.5-1.6l1.6-2.8l1-2.2l3.3-1.6v-1.5l-1.5-3l-1.8-3.3
			l-4.5-3.5l-3.7-7.7l-4.5-4.7L559.7,503.9L559.7,503.9z"/>
		<path class="st0" d="M450.1,533.2l-3.6-3v-2.5l0-5l0.2-3.3l-3.8-2.8l-4.5-0.8l-4.5-4.5l-4.8-1.4l-5.6-2.2l-1.7,2l-1.3,3.2
			l-2.5,3.5l-2.3,3.5l-1.8,4.5l-2.2,3.8l-1.2,4.1l-0.5,2.7l-3.8,2v2.3l2,3h2.8l5-3.5l2-2.1l5.5,5l6,3.5l8,4l2.2-0.2l3.1,0.2l2.3-0.6
			l2.2-0.4l-1-0.5l-0.7-2.2l0.8-1.3l1.3-0.7l1.5-1.5l0.7-2.5l-0.8-2.6l0.3-2.2L450.1,533.2L450.1,533.2z"/>
		<path class="st0" d="M620.7,517.8l2.5,6.5l3.5,2l2.2,3.8l0.8,2.7l1.5,2.3l0.3,1.3l2.3,2l2.3,3.3l2.7,2l1.6-1.3l2.5-3.5l1-1.8
			l1-0.5l0.8-2.2l0.1-1.3l0.4-2l2.3-0.8V527l2.5,0.8l-1.4-1.4l-1.2-1.2l-1.2-1.4l-1.5-1.5l-3.8-2.8l-3.2-1.7h-2.3l-0.5-5l-2.8-1.2
			l-1.1,0.5l-1.7,0.8l-3,2.8l-1.3,0.8L620.7,517.8L620.7,517.8z"/>
		<path class="st0" d="M612.3,520.9l-0.5,1.2l-1,1l-0.2,0.8l-0.5,1.2l-1,2.6l-0.7,1.8l-0.8,3.5l-0.2,1.3l1.8,1l2.5,1.5l1.8,3.5
			l1.4,2.5l1.1,2.5l0.8,2.5l1.2,2.7v2.6l2.7,4l0.8,0.2l0.8,0.5l0.5,0.8l1,0.7l0.5,0.8l0.5,0.4l0.5,0.3l0.8,1.5l0.5,1.5l0.5,1
			l1.2,2.2l1.7,1.4h1.3l2.3-0.5l4-0.8v-4.2l1.2-6.6l-0.2-4.3l0.8-3.1l-0.7-5l-2.7-2l-2.3-3.3l-2.3-2l-0.3-1.3l-1.5-2.3l-0.8-2.7
			l-2.2-3.8l-3.5-2l-2.5-6.5l-1,0.5l-1.3,0.7l-1.8,1.3l-1,0.1l-1,0.8L612.3,520.9L612.3,520.9z"/>
		<path class="st0" d="M649.7,526.5l1.4,1.4l-2.5-0.8v3.3l-2.3,0.8l-0.4,2l-0.1,1.3l-0.8,2.2l-1,0.5l-1,1.8l-2.5,3.5l-1.6,1.3l0.7,5
			l-0.8,3.1l0.2,4.3l-1.2,6.6v4.2l-4,0.8l2.5,0.3l0.8-0.2l1.6-0.5l1.4-0.1l2.1-1l1.3-1.2l1.6-1.1l1-0.8l1.3-1.2l1.3-1.2l1.2-1.8
			l2-1.5l1.8-1.2l1.5-1l1-1.8l1.5-0.3l1.8-0.1l0.7,0.2l1.3-2l2.3,0.4l0.7-0.8l0.5-2.5l-0.5-2.8l-0.2-3.5l-1.3-5.5l-0.5-4.5l0.7-3.5
			l1-3.1l1.4-2.5l-2.7-0.4l-3.1,0.2l-3,0.1l-2.8,0.3l-2.2,1.5L649.7,526.5L649.7,526.5z"/>
		<path class="st0" d="M478.6,534.1l-1.2,2l-2.2,0.3l-3,0.7l1.7,2.5l2.6,0.8l1.5,3l0.8,3.3l2.8,2.8l1,2.2l2.2,3.2l0.5-2.3l2.6-1.6
			l2.5-2.6l1-1.7l1-1.2l-0.2-2.8V538l0.8-2.2l1.5-1l-0.3-4.1l-2.3-0.3l-4.1,1l-2.6,1.3l-3.8,1L478.6,534.1L478.6,534.1z"/>
		<path class="st0" d="M450.1,533.2l-0.8,1.5l-0.3,2.2l0.8,2.6l-0.7,2.5l-1.5,1.5l-1.3,0.7l-0.8,1.3l0.7,2.2l1,0.5l4.1,7.2l1.3-1.3
			l1.2-2.6l1-2.3l0.2-2.5l-0.2-2.7l-0.3-2.3l-1.5-3.5l0.3-1.7l0.2-2.5l-0.2-3.2L450.1,533.2L450.1,533.2z"/>
		<path class="st0" d="M562.4,583.7l3.3,0.5h4.3l6-3.9l7.1-4l4.7-4l0.7-5.8l-0.2-5.8l-1.5-6.3v-8.1l-0.5-6.3l-1.5-3l-3.5-3.5l-2-2
			L576,533l-1,2.2l-1.6,2.8l-2.5,1.6h-2l-2.2,0.8l1.5,4.7l2,3l-4.3,11.9l-2,5l-0.8,5.5l-0.5,5l-2,5.6L562.4,583.7L562.4,583.7z"/>
		<path class="st0" d="M579.3,531.4l2,2l3.5,3.5l1.5,3l0.5,6.3v8.1l1.5,6.3l0.2,5.8l-0.7,5.8l-4.7,4l-7.1,4l-6,3.9h-4.3l-3.3-0.5
			l0.8,3.3l-3.8,7l2.3,1.3l2.7,2.3l3.8,2.5l0.4,2.5l2.3,2.5l0.4,4l-1.6,2.8v2.5l4.8,7.2l-0.3,3.1l-1.2,3.2l-0.2,3.2l2.2,4l-0.1,3.1
			l-1.3,9l2-1.3l2.3-1.8l3.5-2l2.8-3.5l1.5-2.3l2-2.3l2.1-1.6l4.1-2.5l5-5.8l1.5-3.5l0.2-3.8l1.3-6l-0.2-3.8l-0.8-4l1.7-5l2.1-4.5
			l1.5-5.2l1.5-6v-0.7l0.3-1l0.2-2.7l-0.2-1.6l0.5-2l0.3-2.2l0.7-3l0.2-4l-0.5-1.5l-2-3.2l-1.5-2l-2.2-3l-2.2-1.8l-2.2-2.5l-5.6-6.7
			l-4.3-4.5l-3.1-7.5L579.3,531.4L579.3,531.4z"/>
		<path class="st0" d="M296.3,536.6l3.7,4.2l5.6,4.2l4,2.8l7,4.5l5,1.2l6.3,3.3l2.3,2.7l0.7,3.8l0,7.3l-0.2,6.3l0.8,5.6l0.3,5.3
			l-2.3,4.7l-5.2,6.1l-4.8,4.8l-3,5l0.1,3.3l1.5,4.8l-0.5,4.6l-1.8,5.3l-1.1,2.3l4.6,2.4l3.5,6.7l4.5,6l4,7.3l-0.5,9.6l-3.5,8
			l-2.8,7.8l-3.2,7.3l-1,3l5.5,2l4.1,1.8l7.6,3.5l2.7,3.8l3.7,4.7l3.6,4.2l1.2-2.2l1.8-3.6l1.7-3.3l1.5-3.3l3.6-5.2l2.2-2.5
			l-0.8-0.8l-0.7-4.5l-0.3-1.2l-10.1,0.8l-1.5-1.2l-4-0.3l-4.8-1.8l-1.6-5l0.1-4.5l2-5.1l2.2-6.5l-0.7-1.7l-0.7-4.7l-0.5-4l0.5-5.5
			l-0.5-6.8l-2.2-7.2l-1.3-6.5l-4.6-7.8l-0.5-3.8v-3.3l1-4l2.3-4.5l3.3-6l2.2-3.5l4.3-3.8l0.5-2.2l-0.3-1.1l-2.2-3.2l-1-3.8
			l-1.3-3.7l1.6-5.8l0.8-5.3l-1.3-3.3l0.8-3.7l-2.2-2l-0.5-1.8l-6.8-3.2l-4.1-2.2l-5.5-3.9l-3.7-2.4l-1.9-3H311h-3.6l-5.4,0.6
			L296.3,536.6L296.3,536.6z"/>
		<path class="st0" d="M291.9,542.6l2,2.3l1.8,4.2l1.7,4.3l1,5.6l0.5,6.6l-0.8,5.8l-1.2,4.3l-0.8,4l-0.2,4l-0.3,2l-1.8,3.3l-2.3,6
			l-2.3,4l-2.5,1.6l-4.3,2l-3.5,2.5l-4.8,2.1l-5.2,2.2l-6,2.4l-4.6,2.5l-3,2.8l-5,2l-5.1,1.8l-7.5,1l-7,2l-5.5,0.7l-4.7,1.5
			l-3.3,0.8l-2.5,1.5l-0.4,0.5l1.8,4.7l2.3,4.2l5-1.2l3.5-2.3l8-2.6l8.8-3.5l7-0.5l8,1.2l5.3,1.4l7.8,1.9l8.1,1.7l9.1,3.5l2.5-1.5
			l7.9-3.1l7.8-1.6l4.8-1.6l2.7-0.5l1.1-2.3l1.8-5.3l0.5-4.6l-1.5-4.8l-0.1-3.3l3-5l4.8-4.8l5.2-6.1l2.3-4.7l-0.3-5.3l-0.8-5.6
			l0.2-6.3l0-7.3l-0.7-3.8l-2.3-2.7l-6.3-3.3l-5-1.2l-7-4.5l-4-2.8l-5.6-4.2l-3.7-4.2l-1,0.4l-1.8,3L291.9,542.6L291.9,542.6z"/>
		<path class="st0" d="M472.3,537.1l-4.6,2.5l-4.5,1.5l-2.6,1.8l-4.8,1h-1l0.2,2.7l-0.2,2.5l-1,2.3l-1.2,2.6l-1.3,1.3l-1,4.5
			l-1.3,2.5l-0.5,3.8l-0.5,2.3l3.7,0.7l1.7,0.2l6.6,0.2h1.5l3.2-0.3l3.3,0.5l4.6,1.3l2.5,0.3l1.5,0v-2.8l1-3.1l0.2-2.2l0.2-2.2
			l1.8-2.8l1.3-0.7l1.7-1l1.8-1.3l0.5-0.3l-2.2-3.2l-1-2.2l-2.8-2.8l-0.8-3.3l-1.5-3l-2.6-0.8L472.3,537.1L472.3,537.1z"/>
		<path class="st0" d="M340.3,551.8l-0.8,3.7l1.3,3.3l-0.8,5.3l-1.6,5.8l1.3,3.7l1,3.8l2.2,3.2l0.3,1.1l3.5,1.7l0.5,6.8l0.4,7.1
			l-1,5.5l0.7,3.8l4.5,1.9l13.4-2.8l1-2.8l0.2-1.3l0.2-3.3l4.5-1.8l4.8,0.7l3.7,1l2.2-0.5l1-0.3l0.3-0.7l2-2.6l1.8-3.1l1.8-3.2
			l6.5-5.1l4.6-1.2l-0.2-1.1l-1.8-5.3l-1.5-3.5l0.5-4.7l1.2-3l-2.2-2.7l-1.2-4.5l-1.3-0.7l-2.2-0.5l-2.3-2.3l-10.1-6.5l-7-4.2
			l-2.3,0.3l-5.6,0.1l-4.2-0.2l-3.3,0.8l-4,3.5l-3,1.5l-3.8,0.8L340.3,551.8L340.3,551.8z"/>
		<path class="st0" d="M492.5,545.5l-1,1.2l-1,1.7l-2.5,2.6l-2.6,1.6l-0.5,2.3l-0.5,0.3l-1.8,1.3l-1.7,1l-1.3,0.7l-1.8,2.8l-0.2,2.2
			l-0.2,2.2l-1,3.1v2.8l-1.8,7.5l14.8-3.1v-1l-0.5-3l-0.2-3l0.7-4.7l1.5-3.3l5.3-2.8l4-3.7l1.8-2.2l0.8-2l-0.7-4.3l-1.7-1L499,545
			l-3.5,0.2L492.5,545.5L492.5,545.5z"/>
		<path class="st0" d="M502,552.2l-1.8,2.2l-4,3.7l-5.3,2.8l-1.5,3.3l-0.7,4.7l0.2,3l0.5,3v1l2.6,2.3l5.6,0l2.8,1.2h3h3.5l3.5,1
			l0.7-2.2V575v-3l0.8-3.2l1.2-4l2-4.1v-3.3l-1.4-2.6l-1-2.7l-3.3,0.1h-3.3L502,552.2L502,552.2z"/>
		<path class="st0" d="M394.4,556.7l1.2,4.5l2.2,2.7l-1.2,3l-0.5,4.7l1.5,3.5l1.8,5.3l0.2,1.1l0.4,2.3l0.2,4.7l0.8,4l0.8,5.1
			l0.8,1.2l3.2,0l3.5-0.1l4.6,0.7l0.8,1.4l5.2,6.3l1.1-1.7l1.7-0.8l3-1.3l2.8-0.7l0.5-1l2.2-0.8l2-1l0.7-1.5l0.5-2.2l0.3-1.8
			l3.1-3.3l2-1.6l1.2-1.8l0.5-1.3l0.3-1l1-1.8l1.2-3.3l0.3-3.2L442,575l-2.6-1.5l-3-0.2l-4.5,0l-4,0.3l-1.8,0.2l-2.8,0l-5.1-3.3
			l-2.8-1.4l-4.7-1.2l-1.5-3.5l-2.2-4.3l-3.1-3.2l-3.7-2.7l-0.7,1.3L394.4,556.7L394.4,556.7z"/>
		<path class="st0" d="M447.9,568.4l-0.7,1.5l-0.8,1.5l-1.2,3l-0.3,0.5l-0.8,2l-0.3,3.2l-1.2,3.3l-1,1.8l3.8,2.3l2.5,1.2l2.6,2.2
			l3.8,0.5l2.3,0.7l4.3,2.2l1-1l2.3-2.6l1.2-1.5l3.3-3.3l1.3-1.3l1.8-2.3l2-2.1l0.5-0.5l0.2-0.7l1.8-7.5l-1.5,0l-2.5-0.3l-4.6-1.3
			l-3.3-0.5l-3.2,0.3h-1.5l-6.6-0.2l-1.7-0.2L447.9,568.4L447.9,568.4z"/>
		<path class="st0" d="M474.7,578.8l-0.2,0.7L474,580l-2,2.1l-1.8,2.3l-1.3,1.3l-3.3,3.3l-1.2,1.5l-2.3,2.6h1.3l4.1,0.7l2.5,1.3
			l4.5,0.7l1.5,0.5l1.7-0.7l3.3-1.2l1.5-0.7l2.3-1.2l4.3-2l2.3,0v-2l-0.3-3.2v-2.2v-2.6l-1.5-3.3l-0.1-1.8L474.7,578.8L474.7,578.8z
			"/>
		<path class="st0" d="M489.4,575.7l0.1,1.8l1.5,3.3v2.6v2.2l0.3,3.2v2l0.7,1.5h1.5l1.5,3.8l-0.2,2.6l1.2,2.5l4.5,0l2.5-2.6l3-1.8
			l2.3-4.3l0.8-4l0.3-0.7l1-1.5V584v-0.7l-0.2-1.8l0.2-1.2l-3.5-1h-3.5h-3l-2.8-1.2l-5.6,0L489.4,575.7L489.4,575.7z"/>
		<path class="st0" d="M562.4,583.7l-4.6-2.7l-8.6,3.1l-6,0l-4.1,0.5l-2.5,0.2l-2.6,3.8l-6,0.6l-4,1.5l-2.2,5.1l-0.7,2.3l-1,8
			l-1.5,1.8l-2.3,3l-2,1.1l-2.8,5.2l-1,1.1l-3.3,0.3l-1.6,0.7v2v4.8l0.5,3.5l0.2,2.3l-1.1,0.5l-1.7,3.1l3.8,3.5l5.5,2.8l4,2.2
			l4.8,3.2l6.6,1.5l6.3,1.8l3.8,1h4l3.5-1l3.3,0l3.2,3.5l1.5,0l3,0.8l3.5,2.2l2.5,1.4l0.5-0.5l1.3-0.3l0.7-0.1l1.3-2.2l0.5-1
			l2.3-1.3l1.8-2.8l2.3-3.1l1.3-9l0.1-3.1l-2.2-4l0.2-3.2l1.2-3.2l0.3-3.1l-4.8-7.2V612l1.6-2.8l-0.4-4l-2.3-2.5l-0.4-2.5l-3.8-2.5
			l-2.7-2.3l-2.3-1.3l3.8-7L562.4,583.7L562.4,583.7z"/>
		<path class="st0" d="M399.5,581.5l-4.6,1.2l-6.5,5.1l-1.8,3.2l-1.8,3.1l-2,2.6l-0.3,0.7l0.8,1.4l2.5,2.3l1-0.7l4.6,1l1,3.2
			l0.2,3.7l0.8,4.3h0.7l1,1l3,4.5l4.5,2.2l5,2.9l1.1-3.6l1-1.5l1-3.1l2.5-4.1l4-2.6l2.6-1.1l-5.2-6.3l-0.8-1.4l-4.6-0.7l-3.5,0.1
			l-3.2,0l-0.8-1.2l-0.8-5.1l-0.8-4l-0.2-4.7L399.5,581.5L399.5,581.5z"/>
		<path class="st0" d="M343.1,581.7l-0.5,2.2l-4.3,3.8l-2.2,3.5l-3.3,6l-2.3,4.5l-1,4v3.3l0.5,3.8l4.6,7.8l1.3,6.5l2.2,7.2l0.5,6.8
			l-0.5,5.5l0.5,4l0.7,4.7l0.7,1.7l4-0.7l2.5-1.5l4.1-1.3l1.7,2.3l1.7,2l2.5,1.8l3.3,0.8l0.8,1.8l11.4,4.9l0.5-2l1.5-2.3l1.5-2.3
			l1.5-2.2l0.5-1.6l0.2-3.3v-1.8l0.3-2.5l0.5-2.6l0.4-2.8l0.3-3.3l1-5l3.7-3.5l2-1.3l3-2l-3-3l-1.5-1.7l-3.5-3.2l-4.3-4.7l-4.8-5
			l-5-2.8l-1.6-2.3l-13.4,2.8l-4.5-1.9l-0.7-3.8l1-5.5l-0.4-7.1l-0.5-6.8L343.1,581.7L343.1,581.7z"/>
		<path class="st0" d="M536.5,584.7l-1-1.2l-2.6-1.2l-5.1,0.5l-3,2.8l-4.3,0.2h-1.2l-3.8-0.2h-2.3l-2.6,0.8l-1,1.5l-0.3,0.7l-0.8,4
			l-2.3,4.3l-3,1.8l-2.5,2.6l-4.5,0l-1.2-2.5l0.2-2.6l-1.5-3.8h-1.5l-0.7-1.5l-2.3,0l-4.3,2l-2.3,1.2l-1.5,0.7l-3.3,1.2l-1.7,0.7
			l1.2,6.6l0.8,7.1l-1.8,5.2l-2,6.8l-1.8,3.8l-3.2,3l-1.5,2.2l-1.8,3l-1,1.5l-0.8,3.5l0.2,4.7l1.3,7l1.2,7.2l0,7l-0.3,3.7v5.2v2.7
			l-0.1,4l0.7,3.8v3.2l2.2,2.5l1.2,2.5l1.2,1.3l1.3-0.1l2.3,0.7l2.5,1.5l1.5,1l1,0.3l1.2,0.2l3.8-1.3l4.3-7.1l0.3-3.3l1.8-4.1
			l2.8-5.3l1.3-7.5l0.5-4l-0.2-5.8l0.2-3.2l2.5-6.6l0.2-2.2l0.3-2.6l2-1.3l0.5-4l1.8-3.2l1.7-3.1l1.1-0.5l-0.2-2.3l-0.5-3.5v-4.8v-2
			l1.6-0.7l3.3-0.3l1-1.1l2.8-5.2l2-1.1l2.3-3l1.5-1.8l1-8l0.7-2.3l2.2-5.1l4-1.5l6-0.6L536.5,584.7L536.5,584.7z"/>
		<path class="st0" d="M462.1,593.2l-1,1l-4.3-2.2l-2.3-0.7l-3.8-0.5l-2.6-2.2l-2.5-1.2l-3.8-2.3l-0.3,1l-0.5,1.3l-1.2,1.8l-2,1.6
			l-3.1,3.3l-0.3,1.8l-0.5,2.2l-0.7,1.5l-2,1l-2.2,0.8l-0.5,1v3.2l7,1.5l8.3,1.5l4.7-0.2l3-1.1l3.7-2.6l3.2-3.8l2.3-3.5l0.8-1.2
			L462.1,593.2L462.1,593.2z"/>
		<path class="st0" d="M476,596.4l-1.5-0.5l-4.5-0.7l-2.5-1.3l-4.1-0.7h-1.3l-0.8,3.2l-0.8,1.2l-2.3,3.5l-3.2,3.8l-3.7,2.6l-3,1.1
			l-4.7,0.2l-8.3-1.5l-7-1.5l-0.8,3.7l1.8,1.5l3,2.5l0.7,3.7l4,3.4l1.1,1.3l2.7,5.3v4l-1.3,2.2l-3.2,5.8v1.8l0.7,3.5l4.1,1l2,2
			l1.6-0.5l2.2-0.5l4,1l4.3,2.7l1,0l9.3,0.7l-1.3-7l-0.2-4.7l0.8-3.5l1-1.5l1.8-3l1.5-2.2l3.2-3l1.8-3.8l2-6.8l1.8-5.2l-0.8-7.1
			L476,596.4L476,596.4z"/>
		<path class="st0" d="M382.5,597.4l-1,0.3l-2.2,0.5l-3.7-1l-4.8-0.7l-4.5,1.8l-0.2,3.3l-0.2,1.3l-1,2.8l1.6,2.3l5,2.8l4.8,5
			l4.3,4.7l3.5,3.2l1.5,1.7l3,3l2.6,4.7l2.3,2l2.3,0.7l3.2,1.1l1.1-0.3l3.4,1l1.2-3.1l3.1-8.1l-0.5-3.2l-5-2.9l-4.5-2.2l-3-4.5l-1-1
			h-0.7l-0.8-4.3l-0.2-3.7l-1-3.2l-4.6-1l-1,0.7l-2.5-2.3L382.5,597.4L382.5,597.4z"/>
		<path class="st0" d="M428.4,602.5l-2.8,0.7l-3,1.3l-1.7,0.8l-1.1,1.7l-2.6,1.1l-4,2.6l-2.5,4.1l-1,3.1l-1,1.5l-1.1,3.6l0.5,3.2
			l-3.1,8.1l-1.2,3.1l-3.4-1l-0.2,2.1l2.8,3.3l2.5,1.8l3.7-1.5l6.6,0.8l5.8,2.8l3.3,0.7l2.8-1.1l3.5-1.2l1.6-0.5l4.1,0.2l-0.7-3.5
			V639l3.2-5.8l1.3-2.2v-4l-2.7-5.3l-1.1-1.3l-4-3.4l-0.7-3.7l-3-2.5l-1.8-1.5l0.8-3.7L428.4,602.5L428.4,602.5z"/>
		<path class="st0" d="M98.9,611.1l-3.5,4.3l-2.3,0.4l0.5,0.9l1.2,3l2.3,3.8l3,3.3l3.8,2.7l2.5,2.2l0.3,2.5l-0.2,2.3l0.2,4.1
			l2.5,7.3l1.8,2.8l1.2,1.7l1.2,1.8v3.5v3.3l0.7,3.8l0.8,2l3.5,3.7l2.5,1.8l4.1,0.9l3.2,0.5l1.6,1.2l1,2.8l1.8,1.7l4.5,0.8l2.8,0.2
			l6.5-0.9l4.3-1.2l2.6-2.6l1.8-3l4.3-2.5l4.6-0.8l3.7,3.2l0.5,3v4.3v3.7v3.3l1,2.7l-0.2,3.1l-0.7,2.3l-0.7,2.3v2.6l0.3,3.7l1,2.4
			l4.1,2.3l3.5,1.4l0.5,1.5l-0.7,3.1l-0.7,2.5l-0.2,0.7l0.2,0.8l0.3,1.8l0.5,4l0.1,3.2l0.5,2l0.7,2.7l0.5,0.3l0.8,1.3l0.4,0.5h0.7
			l2.3-0.5l1.8-0.8l1.3-1.2l1.5-1.2l2.5-3.1l0.5-1.8l3.3-3l-0.2-1.5l6.1-5.5l1.6-6.7l1.5-7.6l1.2-2.8l2.5-3.8l2.6-5.3l2.8-2.2
			l-0.5-1l3.1-3.3l0.8-4.5l-0.7-7l-1.4-6l3.2-5.6l1.2-3.2l-0.5-5.5l-1.5-5.5l1.6-2l3.5,1l2.8,0.8l4.7-1.6l10-4.9l7.9-1.8l9.3,4.3
			l6.5,7.9l1.8,5.5l3.8,9.5l4.2,3.9l7.6,2l15.9,5.2l7.1,1.5l3.2,3.8l-2.5,2.6l-5.1,3.1l-2.2,2.8l0.3,4.5l15.4,7.4l10.3,0.7l2.3-5
			l0.5-3l1-2.8l0.3-2.3l-5.5-2l1-3l3.2-7.3l2.8-7.8l3.5-8l0.5-9.6l-4-7.3l-4.5-6l-3.5-6.7l-4.6-2.4l-2.7,0.5l-4.8,1.6l-7.8,1.6
			l-7.9,3.1l-2.5,1.5l-9.1-3.5l-8.1-1.7l-7.8-1.9l-5.3-1.4l-8-1.2l-7,0.5l-8.8,3.5l-8,2.6l-3.5,2.3l-5,1.2l-2.3-4.2l-1.8-4.7
			l-5.1,0.3l-14.1-2l-8.1-3l-11.5-3.5l-4.7-2.4l-7-1.5l-7.9,2.1l-14.1,3.6l-10,1.8l-2.6-0.7l-5.1-0.9l-6.8,1l-5.6-0.4l-5-2.8
			l-2.5-1.3L98.9,611.1L98.9,611.1z"/>
		<path class="st0" d="M388.8,628.5l-3,2l-2,1.3l-3.7,3.5l-1,5l-0.3,3.3l-0.4,2.8L378,649l-0.3,2.5h1.6l1.5-0.5l3.8-0.3l3.8-1.6l3-2
			l2.2-1.1l4.3,0.8l0.8-4.1l0.2-2.3l0.2-2l1.3-1.6l-1.1,0.3l-3.2-1.1l-2.3-0.7l-2.3-2L388.8,628.5L388.8,628.5z"/>
		<path class="st0" d="M503.4,635.6l-1.8,3.2l-0.5,4l-2,1.3l-0.3,2.6l-0.2,2.2l-2.5,6.6l-0.2,3.2l0.2,5.8l-0.5,4l-1.3,7.5l-2.8,5.3
			l-1.8,4.1l-0.3,3.3l-4.3,7.1l2.5,1.4l0.8,0.3l0.7,0.5l1.8,0.7l1.3,0.2l2.5,0.7l1.5,0.2l2-0.3l3.1-0.3l2.2,0l2.3,0.5h1.3l4.5,1
			l2.3,0.5l6.3-0.6l1.8-0.3l2.6,0.5l1-0.3l1.6-1.2l0.3-1.2l1.6-0.8l2-1l3-1.5l1.5-0.5l3-3.7l0.3-1.3l0.4-1.2l0.8-1.3l1.1-2.6
			l1.7-1.8l1-2.2l1.3-2.5l1.3-1.5l0.8-0.7l1.7-1.5l1.8-0.1l1.7-2l2-1.7l1.1-1.3l1.5-1.3l1.7-3.3l1.5-1l2.2-4.6l-2.5-1.4l-3.5-2.2
			l-3-0.8l-1.5,0l-3.2-3.5l-3.3,0l-3.5,1h-4l-3.8-1l-6.3-1.8l-6.6-1.5l-4.8-3.2l-4-2.2l-5.5-2.8L503.4,635.6L503.4,635.6z"/>
		<path class="st0" d="M397.9,646.8v1.7l-0.7,2.6l-0.8,3.7l-2.2,3.5l-3.5,2.8l1,0.2l1.5,1.3l0.8,2.2l1.2,1.4l1.7,0.8l3,0.5l2.5,0.8
			l3.7,2.5l2.5,1.4l1.3,0.3l2.8,1.5l1,1.3l1.5,4.5l0.2,1.3l11.9,0.6l3.5-0.2l5.8,1.2l4.1,0.3l2.5-2l2.8-0.8l3.8,2.2l1.8,2l3.2,2.3
			l3.3,1.5l4.8,0.5l3.3-0.8l0.7-0.7v-3.2l-0.7-3.8l0.1-4v-2.7v-5.2l0.3-3.7l0-7l-1.2-7.2l-9.3-0.7l-1,0l-4.3-2.7l-4-1l-2.2,0.5
			l-1.6,0.5l-2-2l-4.1-1l-4.1-0.2l-1.6,0.5l-3.5,1.2l-2.8,1.1l-3.3-0.7l-5.8-2.8l-6.6-0.8l-3.7,1.5l-2.5-1.8l-2.8-3.3l0.2-2.1
			l-1.3,1.6l-0.2,2l-0.2,2.3L397.9,646.8L397.9,646.8z"/>
		<path class="st0" d="M296.1,694.1l-0.3-4.5l2.2-2.8l5.1-3.1l2.5-2.6l-3.2-3.8l-7.1-1.5l-15.9-5.2l-7.6-2l-4.2-3.9l-3.8-9.5
			l-1.8-5.5l-6.5-7.9l-9.3-4.3l-7.9,1.8l-10,4.9l-4.7,1.6l-2.8-0.8l-3.5-1l-1.6,2l1.5,5.5l0.5,5.5l7,2.7l1.7,3l1.5,2.3l1.2,2.5
			l0.2,1.8l-0.5,2l-0.8,3.8l-2.3,4.1l0.2,3l2.3,1.5l4.1-0.5l7.3,0.4h5.5l5.3,1.2l6.3,0l6.5-0.5l5.1,0l4,0.8l1.5,2.5l1,1.5l2.2,0.5
			l0.3,1.7l5.8,1.5l7.5,1.2L296.1,694.1L296.1,694.1z"/>
		<path class="st0" d="M377.7,651.5v1.8l-0.2,3.3l-0.5,1.6l-1.5,2.2l-1.5,2.3l-1.5,2.3l-0.5,2l2.6,2.3l2.2-0.3l0.7,2.5l0.7,2.2
			l1-1.5l0.7-1.5l1.2-2.3l0.5-1.2l2.8-4.3l1.8-3.1l2.2,1.3l2.5-0.2l3.5-2.8l2.2-3.5l0.8-3.7l0.7-2.6v-1.7l-4.3-0.8l-2.2,1.1l-3,2
			l-3.8,1.6l-3.8,0.3l-1.5,0.5H377.7L377.7,651.5z"/>
		<path class="st0" d="M340,656.9l-2.2,6.5l-2,5.1l-0.1,4.5l1.6,5l4.8,1.8l4,0.3l1.5,1.2l10.1-0.8l1.5-0.5l0.8-0.7l1.7-1.1l2-1
			l3.2-2.8l1.2-0.8l2.6-4.3l1.3-2.2l-11.4-4.9l-0.8-1.8l-3.3-0.8l-2.5-1.8l-1.7-2l-1.7-2.3l-4.1,1.3l-2.5,1.5L340,656.9L340,656.9z"
			/>
		<path class="st0" d="M217.6,656.8l-1.2,3.2l-3.2,5.6l1.4,6l0.7,7l-0.8,4.5l-3.1,3.3l0.5,1l0.2,2.8l1.1,6.5l4.1,2.8l7.8,1.5
			l4.2,2.7l4.6,2l9.8,1.2l5.5,0.2l10.1,0.2l5.1-0.5l4.3,0.2l7.1-0.1l1,0.3l2.8,3.2l0.7,3.5l5-0.3l7.8,1.4l4.5,0.2l17.8,1.2l5,1.2
			h0.8l1.2,1.5l0.1-2.8l2.3-2.6l2.2-3.5l0.2-3.7l-5.3-4.3l-10.3-0.7l-15.4-7.4l-5.8,0l-7.5-1.2l-5.8-1.5l-0.3-1.7l-2.2-0.5l-1-1.5
			l-1.5-2.5l-4-0.8l-5.1,0l-6.5,0.5l-6.3,0l-5.3-1.2h-5.5l-7.3-0.4l-4.1,0.5l-2.3-1.5l-0.2-3l2.3-4.1l0.8-3.8l0.5-2l-0.2-1.8
			l-1.2-2.5l-1.5-2.3l-1.7-3L217.6,656.8L217.6,656.8z"/>
		<path class="st0" d="M372,667.1l-1.3,2.2l-2.6,4.3l-1.2,0.8l-3.2,2.8l-2,1l-1.7,1.1l-0.8,0.7l-1.5,0.5l0.3,1.2l0.7,4.5l0.8,0.8
			l3.7,1.2l1.7,1.5l0.8,0.3l1.8-2l1.8-1l2-1.7l1.5-1l1.5-3l2.3-3l1.5-4.6l-0.7-2.2l-0.7-2.5l-2.2,0.3L372,667.1L372,667.1z"/>
		<path class="st0" d="M466.9,687.3l-0.7,0.7l-3.3,0.8l-4.8-0.5l-3.3-1.5l-3.2-2.3l-1.8-2l-3.8-2.2l-2.8,0.8l-2.5,2l-4.1-0.3
			l-5.8-1.2l-3.5,0.2l-11.9-0.6l0.2,1.2l1.6,1.7l1.7,2.5l1,2.2l2,2.8l1.8,4.7l-0.3,2.3l-1.5,2.2l-1,2l-3.3,5.1l-1.8,4.5l-1.8,2.5
			l-1.3,2.6l-1.7,2.5l-1.2,3l-3.2,1.5l-0.8,0.7l-0.8,0.5l0.1,0.7l-0.3,1.2l-0.8,1.8l-3,3.3l-4.6-0.8l0.3,2.2l0.1,1.5l0.8,1.8l1,1.2
			l1,2.2l1.2,1.8l1,2l0.7,1.2l1.8,1.5l2,0.5l0.5,0.3l1.5,3.1l0.8,2.2l0.3,0.7l0.7,1.8l0.7,2l0.2,1l2.5,1.8l2.5,1.4l1.6-1.3l1-2.5
			l0.7-0.7l2.6-4.7l3.5-3.6l0.3-1.5l0.1-1.5l0.2-4l0.5-1.7l0.7-1.3l0.8-1.3l3.7-3h1.7l2.8-0.3l3.1-0.7l4.3-0.2l2.8-0.7l1.7-1.3
			l2.8-0.5l1.7-1.2l1.7-3l0.7-2.3l2-4.8l3.5-2.2l1.8-0.8l0.8-1.5l1-3.5l0.7-1.8l1.3-3.5l1.3-2.5l0.7-3.7l2-4.8l1.5-2l-1.2-1.3
			l-1.2-2.5L466.9,687.3L466.9,687.3z"/>
		<path class="st0" d="M359.6,687l-2.2,2.5l-3.6,5.2l-1.5,3.3l-1.7,3.3l-1.8,3.6l-1.2,2.2l1.2,3.5l2.8,2l1-0.5l2.3,1.8l1,3.3l0.5-1
			l0.4-2l1.3-2l0.1-1.8l0.2-2.5l-0.2-2.3l-0.1-3.2l1.3-2.6l1-1.8l1.7-2l1.6-1.5l1.7-3.5l0.3-1l-0.8-0.3l-1.7-1.5L359.6,687
			L359.6,687z"/>
		<path class="st0" d="M211.8,687.4l-2.8,2.2l-2.6,5.3l-2.5,3.8l-1.2,2.8l-1.5,7.6l-1.6,6.7l-6.1,5.5l2.5,1.2l2.7,2.3l2.6,2.5
			l2.8,0.7l3.5,0.5l5.3,1.4l2.3,1.7l12.4,0.2l4.2-1.2l5.6-2.6l4.8,3l0.5,1.2l8.5,0.4l7.6-2l5.3,4.9l2.2,4l2.6,2.2l6,0.7l1.6,0.8
			l4.5-2.1l2.2-1.5l2.8-2v-3.2l-2.3-7.5l-3.3-5.5l-0.3-4.5l0.3-2.8l-0.7-3.5l-2.8-3.2l-1-0.3l-7.1,0.1l-4.3-0.2l-5.1,0.5l-10.1-0.2
			l-5.5-0.2l-9.8-1.2l-4.6-2l-4.2-2.7l-7.8-1.5l-4.1-2.8l-1.1-6.5L211.8,687.4L211.8,687.4z"/>
		<path class="st0" d="M321.8,702.1l5.3,4.3l-0.2,3.7l-2.2,3.5l-2.3,2.6l-0.1,2.8l4.5,1l1.2,0.5l1.8,1l6.3-2l1.8-2.8l1.6-3l1.7-0.8
			l3.8-1.8l2.6-4.1l-3.6-4.2l-3.7-4.7l-2.7-3.8l-7.6-3.5l-4.1-1.8l-0.3,2.3l-1,2.8l-0.5,3L321.8,702.1L321.8,702.1z"/>
		<path class="st0" d="M347.7,707.1l-2.6,4.1l-3.8,1.8l-1.7,0.8l-1.6,3l-1.8,2.8l-6.3,2l-1.8-1l-1.2-0.5l-4.5-1l-0.2,6.7l-0.7,2.5
			l-0.3,1.5l-0.2,3.2l-0.5,3.7l-0.2,3.1l-2.2,3.5L318,746l1,3.7v2.5l-4.3,4.3l1.7-0.7l2.5-0.1l2.7,0.7l3.6,0.2l2.8,0.3l3.5,0.5
			l2.2,1.2l1,1.8l2.2,2.5l0.8,2.5l1.7,2.5l2.6,2.2l3,1.7l3.3-0.7l0.5-0.3l1.2-1l2-4.3l1.8-2.1l2.5-2.5l0.3-2.6l-0.7-2.8l-0.5-4.3
			l-0.2-2.6l0.3-4.3l0.7-2.2l0.5-3.3l1.2-4l1.8-1.5v-5.6l-0.8-2l-1.8-5l-1-3.2l-1-3.3l-2.3-1.8l-1,0.5l-2.8-2L347.7,707.1
			L347.7,707.1z"/>
		<path class="st0" d="M280.3,713.9l-0.3,2.8l0.3,4.5l3.3,5.5l2.3,7.5v3.2l-2.8,2l-2.2,1.5l-4.5,2.1l1.3,0.3l5.5,1.8l5.5-0.5
			l3.1-1.3l1.8-1.2l3.8-1.5l2-0.1l3.2-1.2l2.8-1.5l3.8-2.3l4.7-2.3l7.1-3.6l0.3-1.5l0.7-2.5l0.2-6.7l-1.2-1.5h-0.8l-5-1.2l-17.8-1.2
			l-4.5-0.2l-7.8-1.4L280.3,713.9L280.3,713.9z"/>
		<path class="st0" d="M276.6,743l-1.6-0.8l-6-0.7l-2.6-2.2l-2.2-4l-5.3-4.9l-7.6,2l-8.5-0.4l-0.5-1.2l-4.8-3l-5.6,2.6l-4.2,1.2
			l-12.4-0.2l2.5,1.7l2.2,2.2v2.8l-0.2,3.3l1.3,3.3l2.8,1l5.5,0.4l5,0l6,1.4l3.7,3.3v2.6v1.7l2.2,1.7l2.8,2.3l0.2,4.2v2l1.2,0.8l7-4
			l2.2-1.8l4-3.1l1.5-5.1l4.6-2.5l1.7-0.7l2.6-4.3L276.6,743z"/>
		<path class="st0" d="M321.2,729.7l-7.1,3.6l-4.7,2.3l-3.8,2.3l-2.8,1.5l-3.2,1.2l-2,0.1l-3.8,1.5l-1.8,1.2l-3.1,1.3l-5.5,0.5
			l-5.5-1.8l-1.3-0.3l-2.8,1.7l-2.6,4.3l-1.7,0.7l-4.6,2.5l-1.5,5.1l-4,3.1l-2.2,1.8l-7,4l2.2,0.8l3,0l3.3,0.2l6.1,0l11.8,0.2l2,2.2
			l-0.4,1.8l1.5,0.2l2.5-0.8l0.7-1.8l1.3-1.6l1.5-2.5l4.1-0.8l4.1-1.3l3.1,0.5l3.8,0.2l2-0.3l4.1-3l3.7-1.6l4-2l4.3-4.3v-2.5l-1-3.7
			l0.2-2.8l2.2-3.5l0.2-3.1l0.5-3.7L321.2,729.7L321.2,729.7z"/>
	</g>
</g>
<g>
	<polygon class="st1" points="938.4,179.9 939.2,180.5 940.2,181.7 940.6,182.5 942,183.1 943.2,183 945,184 946.1,183.3 
		946.5,182.3 948,182.1 948.3,182.3 949.9,182.3 950.6,182 951.5,182.1 951.6,183.4 952.4,184.7 953.1,185 953.5,186.3 954.3,187.7 
		955,188.3 954,189.7 954.9,191.8 954,193.7 954.8,194.3 955.8,194.4 956.8,195.2 958,195.2 958.2,195.6 960.4,195.4 961,196.2 
		960.8,197.4 961.9,197.2 962.3,199.6 962,202 962,203.2 961.5,203.8 961.1,204.8 961.3,206 959.2,207.4 958.7,207.4 958,206.6 
		957.4,205.1 956.3,204.2 955.5,204.8 955.7,205.4 957.2,207.1 957,208.9 956.6,210 956.4,211.6 953.8,214.1 953.4,214.8 
		952.5,215.5 951.8,216.7 951,217.2 948.8,217.1 947.1,216.7 946.4,218.3 945.7,219.4 944.2,219.7 943,221.7 942,220.4 941.6,219.5 
		942.6,218.8 943.6,217 942.8,215.2 940.9,214.2 939.9,216 938.8,217.3 938.6,218.4 938.9,219.2 938.6,220.7 938.6,221.6 
		937.8,222.4 937,221.5 935.9,221.2 934.7,221.8 932.8,222.1 931,222.1 930.2,220.6 928.8,220.5 928.7,219.7 928.2,219.3 
		926.7,218.8 926.1,219.6 925.5,219.2 925.5,217.9 924.9,217.6 924.9,215.1 924.6,214.9 923.3,215.7 922.3,215.6 921,214.7 
		920.9,213.8 920.4,212.8 920.4,212.1 919.4,211 920.8,209.6 921.6,208.4 922.6,208.2 921.7,204.9 922.8,203.4 923.7,203.2 
		924.9,202.5 925.9,201.4 927.1,200.9 928,200.1 928.6,198.7 930.8,196.9 932,196.5 933.2,195.2 932.3,193.2 932.3,192.3 932,191.2 
		932,189.4 932.6,186.9 932.4,185 933.2,184.2 934.3,181.8 934.5,179.7 934.7,178.8 934.2,177.6 934.2,176.6 933.3,174.2 
		933.4,172.5 935,171.3 935.5,171.4 935.2,172.2 936.1,173.8 936.1,174.5 937.2,175.3 937.2,175.9 935.9,177.8 936.1,178.6 
		935.7,179.6 	"/>
	<g>
		
			<rect x="847.3" y="185.7" transform="matrix(0.8006 -0.5992 0.5992 0.8006 57.3597 545.3527)" class="st2" width="1.6" height="1.6"/>
		<polygon class="st2" points="828.8,201.9 829.6,201.3 828.7,200.1 827.6,200.9 826.5,202.7 827.9,203.5 		"/>
		
			<rect x="833.3" y="195.6" transform="matrix(0.8006 -0.5992 0.5992 0.8006 48.7858 539.442)" class="st2" width="3.2" height="1.6"/>
		
			<rect x="817.5" y="215.9" transform="matrix(0.5146 -0.8574 0.8574 0.5146 211.787 807.4099)" class="st2" width="3.2" height="1.6"/>
		
			<rect x="840.2" y="190.4" transform="matrix(0.8007 -0.5991 0.5991 0.8007 53.2138 542.3941)" class="st2" width="3.2" height="1.6"/>
		
			<rect x="821.9" y="208.4" transform="matrix(0.5146 -0.8574 0.8574 0.5146 220.3451 807.6274)" class="st2" width="3.2" height="1.6"/>
		
			<rect x="813" y="223.3" transform="matrix(0.5146 -0.8574 0.8574 0.5146 203.229 807.1922)" class="st2" width="3.2" height="1.6"/>
		<polygon class="st2" points="809.7,230.7 808.5,230.7 808.5,232.3 810.6,232.3 811.6,230.6 810.2,229.8 		"/>
		<rect x="791.3" y="230.7" class="st2" width="3.1" height="1.6"/>
		<rect x="782.6" y="230.7" class="st2" width="3.1" height="1.6"/>
		<rect x="774" y="230.7" class="st2" width="3.1" height="1.6"/>
		<rect x="765.3" y="230.7" class="st2" width="3.1" height="1.6"/>
		<rect x="739.4" y="230.7" class="st2" width="3.1" height="1.6"/>
		<rect x="722.1" y="230.7" class="st2" width="3.1" height="1.6"/>
		<rect x="756.7" y="230.7" class="st2" width="3.1" height="1.6"/>
		<rect x="799.9" y="230.7" class="st2" width="3.1" height="1.6"/>
		<rect x="748" y="230.7" class="st2" width="3.1" height="1.6"/>
		<rect x="730.7" y="230.7" class="st2" width="3.1" height="1.6"/>
		<polygon class="st2" points="714.2,233.1 715.8,233.1 715.8,232.3 716.6,232.3 716.6,230.7 714.2,230.7 		"/>
		<rect x="714.2" y="238.8" class="st2" width="1.6" height="3.2"/>
		<rect x="714.2" y="256.7" class="st2" width="1.6" height="3.3"/>
		
			<rect x="709.7" y="265" transform="matrix(0.6937 -0.7203 0.7203 0.6937 26.5035 593.8138)" class="st2" width="3.2" height="1.6"/>
		<rect x="714.2" y="247.7" class="st2" width="1.6" height="3.2"/>
		<polygon class="st2" points="704.9,271.4 703.6,271.4 703.6,272.9 705.5,272.9 706.9,271.6 705.7,270.5 		"/>
		<rect x="686.5" y="271.4" class="st2" width="3.1" height="1.6"/>
		<rect x="695.1" y="271.4" class="st2" width="3.1" height="1.6"/>
		<polygon class="st2" points="678.7,273.7 680.3,273.7 680.3,272.9 681,272.9 681,271.4 678.7,271.4 		"/>
		<rect x="678.7" y="298.4" class="st2" width="1.6" height="3.4"/>
		<rect x="678.7" y="289" class="st2" width="1.6" height="3.4"/>
		<rect x="678.7" y="279.7" class="st2" width="1.6" height="3.4"/>
		<polygon class="st2" points="680.3,307.7 678.7,307.7 678.7,310.1 681,310.1 681,308.5 680.3,308.5 		"/>
		<rect x="703.5" y="308.5" class="st2" width="3.1" height="1.6"/>
		<rect x="695" y="308.5" class="st2" width="3.1" height="1.6"/>
		<rect x="712" y="308.5" class="st2" width="3.1" height="1.6"/>
		<rect x="788.5" y="308.5" class="st2" width="3.1" height="1.6"/>
		<rect x="814" y="308.5" class="st2" width="3.1" height="1.6"/>
		<rect x="797" y="308.5" class="st2" width="3.1" height="1.6"/>
		<rect x="805.5" y="308.5" class="st2" width="3.1" height="1.6"/>
		<rect x="686.5" y="308.5" class="st2" width="3.1" height="1.6"/>
		<rect x="754.5" y="308.5" class="st2" width="3.1" height="1.6"/>
		<rect x="780" y="308.5" class="st2" width="3.1" height="1.6"/>
		<rect x="720.5" y="308.5" class="st2" width="3.1" height="1.6"/>
		<rect x="746" y="308.5" class="st2" width="3.1" height="1.6"/>
		<rect x="763" y="308.5" class="st2" width="3.1" height="1.6"/>
		<rect x="729" y="308.5" class="st2" width="3.1" height="1.6"/>
		<rect x="771.5" y="308.5" class="st2" width="3.1" height="1.6"/>
		<rect x="737.5" y="308.5" class="st2" width="3.1" height="1.6"/>
		
			<rect x="988.8" y="79.5" transform="matrix(0.3572 -0.934 0.934 0.3572 561.7271 976.6996)" class="st2" width="3.2" height="1.6"/>
		
			<rect x="998.3" y="54.7" transform="matrix(0.3572 -0.934 0.934 0.3572 590.9211 969.6345)" class="st2" width="3.2" height="1.6"/>
		<rect x="992" y="71.2" transform="matrix(0.3572 -0.934 0.934 0.3572 571.4585 974.3445)" class="st2" width="3.2" height="1.6"/>
		
			<rect x="1001.4" y="46.5" transform="matrix(0.3572 -0.934 0.934 0.3572 600.644 967.2759)" class="st2" width="3.2" height="1.6"/>
		<rect x="995.1" y="63" transform="matrix(0.3572 -0.934 0.934 0.3572 581.1897 971.9896)" class="st2" width="3.2" height="1.6"/>
		
			<rect x="1004.6" y="38.2" transform="matrix(0.3572 -0.934 0.934 0.3572 610.384 964.9247)" class="st2" width="3.2" height="1.6"/>
		<polygon class="st2" points="1008.2,31.7 1008.1,32 1009.5,32.6 1010.5,29.9 1007.7,30.2 1007.9,31.7 		"/>
		
			<rect x="999.4" y="30.8" transform="matrix(0.9957 -9.229684e-02 9.229684e-02 0.9957 1.3569 92.5166)" class="st2" width="3.1" height="1.6"/>
		<rect x="948.9" y="33" class="st2" width="3.1" height="1.6"/>
		
			<rect x="982.6" y="32.4" transform="matrix(0.9957 -9.229684e-02 9.229684e-02 0.9957 1.1414 90.9735)" class="st2" width="3.1" height="1.6"/>
		<rect x="923.6" y="33" class="st2" width="3.1" height="1.6"/>
		<rect x="965.8" y="33" class="st2" width="3.1" height="1.6"/>
		<polygon class="st2" points="977.3,34.6 977.2,33 974.2,33 974.2,34.6 977.1,34.6 		"/>
		<rect x="940.5" y="33" class="st2" width="3.1" height="1.6"/>
		<rect x="932" y="33" class="st2" width="3.1" height="1.6"/>
		
			<rect x="991" y="31.6" transform="matrix(0.9957 -9.229684e-02 9.229684e-02 0.9957 1.2491 91.745)" class="st2" width="3.1" height="1.6"/>
		<rect x="957.3" y="33" class="st2" width="3.1" height="1.6"/>
		<polygon class="st2" points="917.2,34.6 918.2,34.6 918.2,33 916.1,33 915.4,35 916.8,35.5 		"/>
		
			<rect x="911" y="42.4" transform="matrix(0.3708 -0.9287 0.9287 0.3708 534.2914 874.993)" class="st2" width="3.8" height="1.6"/>
		<polygon class="st2" points="910.5,51.4 909,50.8 908.7,51.7 907.6,51.7 907.6,53.3 909.7,53.3 		"/>
		<rect x="889.4" y="51.7" class="st2" width="3.3" height="1.6"/>
		<rect x="862.1" y="51.7" class="st2" width="3.3" height="1.6"/>
		<rect x="898.5" y="51.7" class="st2" width="3.3" height="1.6"/>
		<rect x="853" y="51.7" class="st2" width="3.3" height="1.6"/>
		<rect x="871.2" y="51.7" class="st2" width="3.3" height="1.6"/>
		<rect x="843.9" y="51.7" class="st2" width="3.3" height="1.6"/>
		<rect x="880.3" y="51.7" class="st2" width="3.3" height="1.6"/>
		
			<rect x="836.7" y="48.4" transform="matrix(0.7011 -0.713 0.713 0.7011 214.6092 612.1458)" class="st2" width="1.6" height="3.3"/>
		<polygon class="st2" points="831.9,42.2 830.3,42.2 830.3,44.1 831.6,45.4 832.7,44.3 831.9,43.4 		"/>
		<rect x="830.3" y="16.1" class="st2" width="1.6" height="3.2"/>
		<rect x="830.3" y="24.8" class="st2" width="1.6" height="3.2"/>
		<rect x="830.3" y="33.5" class="st2" width="1.6" height="3.2"/>
		<polygon class="st2" points="830.3,10.6 831.9,10.6 831.9,8.3 829.5,8.3 829.5,9.8 830.3,9.8 		"/>
		<rect x="814.7" y="8.3" class="st2" width="2.7" height="1.6"/>
		<rect x="822.1" y="8.3" class="st2" width="2.7" height="1.6"/>
		<rect x="807.3" y="8.3" class="st2" width="2.7" height="1.6"/>
		<polygon class="st2" points="801.8,9.8 802.6,9.8 802.6,8.3 800.2,8.3 800.2,10.6 801.8,10.6 		"/>
		<rect x="800.2" y="22.2" class="st2" width="1.6" height="2.6"/>
		<rect x="800.2" y="15.1" class="st2" width="1.6" height="2.6"/>
		<polygon class="st2" points="801.8,29.2 800.2,29.2 800.2,30 799.5,30 799.5,31.6 801.8,31.6 		"/>
		<rect x="781.5" y="30" class="st2" width="3.3" height="1.6"/>
		<rect x="790.5" y="30" class="st2" width="3.3" height="1.6"/>
		<rect x="772.5" y="30" class="st2" width="3.3" height="1.6"/>
		<polygon class="st2" points="766,31.6 766.8,31.6 766.8,30 764.4,30 764.4,32.4 766,32.4 		"/>
		<rect x="764.4" y="79.1" class="st2" width="1.6" height="3"/>
		<rect x="764.4" y="95.6" class="st2" width="1.6" height="3"/>
		<rect x="764.4" y="87.3" class="st2" width="1.6" height="3"/>
		<rect x="764.4" y="45.9" class="st2" width="1.6" height="3"/>
		<rect x="764.4" y="37.6" class="st2" width="1.6" height="3"/>
		<rect x="764.4" y="54.2" class="st2" width="1.6" height="3"/>
		<rect x="764.4" y="70.8" class="st2" width="1.6" height="3"/>
		<rect x="764.4" y="62.5" class="st2" width="1.6" height="3"/>
		<polygon class="st2" points="766,105.8 766,103.9 764.4,103.9 764.4,105.1 763.5,106 764.6,107.1 		"/>
		<polygon class="st2" points="759.2,110.3 759.2,112.2 760.8,112.2 760.8,110.9 761.6,110.1 760.5,109 		"/>
		<polygon class="st2" points="760.8,113.9 759.2,113.9 759.2,116.2 761.5,116.2 761.5,114.7 760.8,114.7 		"/>
		<rect x="767.4" y="114.7" class="st2" width="3.3" height="1.6"/>
		<rect x="783.8" y="109.8" class="st2" width="3.3" height="1.6"/>
		<polygon class="st2" points="776.2,114.9 776.6,115.3 776.6,116.2 777,116.2 779.5,113.8 778.4,112.6 		"/>
		<rect x="793" y="109.8" class="st2" width="3.3" height="1.6"/>
		<polygon class="st2" points="803,109.8 802.2,109.8 802.2,111.4 804.5,111.4 804.5,109 803,109 		"/>
		<rect x="803" y="101.2" class="st2" width="1.6" height="2.9"/>
		<polygon class="st2" points="803,96.2 804.5,96.2 804.5,95.4 805.3,95.4 805.3,93.8 803,93.8 		"/>
		<rect x="816.5" y="93.8" class="st2" width="2.5" height="1.6"/>
		<rect x="809.6" y="93.8" class="st2" width="2.5" height="1.6"/>
		<polygon class="st2" points="824.1,93.8 823.3,93.8 823.3,95.4 825.6,95.4 825.6,93 824.1,93 		"/>
		<rect x="824.1" y="86.7" class="st2" width="1.6" height="2.3"/>
		<polygon class="st2" points="825.6,81.9 826.4,81.9 826.4,80.3 824.1,80.3 824.1,82.7 825.6,82.7 		"/>
		<polygon class="st2" points="843.8,82.3 844.7,81 843.6,80.3 841.1,80.3 841.1,81.9 843.2,81.9 		"/>
		<rect x="832.1" y="80.3" class="st2" width="3.3" height="1.6"/>
		<polygon class="st2" points="850.1,87.2 851.6,86.8 851.2,85 849.5,84 848.7,85.3 849.8,86 		"/>
		<rect x="853.5" y="100" transform="matrix(0.9729 -0.2312 0.2312 0.9729 -0.3142 200.2137)" class="st2" width="1.6" height="3"/>
		
			<rect x="855.4" y="107.9" transform="matrix(0.9729 -0.2311 0.2311 0.9729 -2.0989 200.8581)" class="st2" width="1.6" height="3"/>
		<rect x="851.6" y="92" transform="matrix(0.9729 -0.2311 0.2311 0.9729 1.4691 199.5562)" class="st2" width="1.6" height="3"/>
		
			<rect x="857.2" y="115.8" transform="matrix(0.9729 -0.2311 0.2311 0.9729 -3.8829 201.5091)" class="st2" width="1.6" height="3"/>
		<rect x="859.1" y="123.8" transform="matrix(0.9729 -0.2311 0.2311 0.9729 -5.6669 202.16)" class="st2" width="1.6" height="3"/>
		<rect x="861" y="131.7" transform="matrix(0.9729 -0.2311 0.2311 0.9729 -7.451 202.811)" class="st2" width="1.6" height="3"/>
		
			<rect x="861" y="140.3" transform="matrix(0.3862 -0.9224 0.9224 0.3862 399.2621 882.1299)" class="st2" width="3" height="1.6"/>
		
			<rect x="857.9" y="147.8" transform="matrix(0.3862 -0.9224 0.9224 0.3862 390.385 883.8416)" class="st2" width="3" height="1.6"/>
		<polygon class="st2" points="856,154.4 855.3,156.2 856.2,157.9 857.6,157.2 857,156.1 857.5,155 		"/>
		<polygon class="st2" points="841.5,280.5 842.2,280.1 842.4,279.2 842.7,278.5 841.9,278.7 841.1,279.5 		"/>
		<path class="st2" d="M1080.5,317.3l0.4-1.4l-1-1.5l-0.5-2.7l-0.5-0.7l-0.3-1.2l-0.5-0.7l-0.3-1.4l-0.5-0.8l-0.1-1.4l-0.8-1.8
			l-1.1-1.5l0.5-1l-0.1-1.5l-1-0.3l-0.6-1l-0.6-1.9l0.6-1.4l-0.1-0.7l-0.7-1.1l-1-0.5l-1.3-1.8l-0.5-0.3l-2.5-2.7l-1.5,0.1l0.1-1.4
			l-0.6-1.1l-1.7-0.3l-1-0.4l-0.6-0.6l-1.4,0.1l-0.7,0.5V284l4.5-4.3l4.5-4.3h1v-1l0.8-0.5l0.5-1.4l-0.5-1.4l-1.5-1l0.1-0.8
			l-0.7-1.3l-0.3-1.7l-0.4-0.4l-0.5-1.3l-2.2,0.3l-1-0.8l-0.3-1.7l-0.6-1.3l-0.3-2.2l-0.5-1.4l-1.7-2.7l-0.1-1.7l0.2-1l-0.1-1.6
			l-0.6-1.3l-0.8-0.6l-0.7-1.7l0.8-2.9l0.2-1.8l-0.2-1.3l0.3-1.8l0.7-1.9l-0.9-2.2l0.3-1.2l-0.6-1.2l0.2-0.7l0.8-1.3l1.1-0.9
			l2.4-1.4l0.9-1.8l-0.4-1.4l0.3-3.3l0.3-1.3l3.5-3.8l0-0.4l-1-1.1l-0.4-1.4l0.5-1.5l-1.8-1.3l-2.5-0.3h-1.2l-1.2-0.5l-2.4,1.3
			l-0.5,0.8l-0.9,0.5l-1.3-0.2l-1.3-0.5l-2.3,0.5l-1,0.6l-1.1,0.2l-1.6-0.2l-1.1,0.2l-1.8,0.9l-1.1-0.4l-0.5,0.3l-1.5,0.1l-2.3-0.4
			l-0.9-0.5l-1-0.1l-1.3,0.2l-0.4-0.5l-2.2-0.1l-0.9-0.2l-0.8,1.3l-0.9,0.5l-0.6,0.8l-1.7,0.2l-0.8-1.1l-1.7,0.8l-0.1-0.1l-3.7-4.7
			l-3.7-4.7l-3.6-4.7l-3.6-4.7l-2.1,0.3l-1.6,0.6l-0.9-0.1l-1.3-1.1l-2.2-0.3l-0.8-0.6l-0.3-0.7l-1.6,0.1l-1.3-0.7l-0.6,0l-3.3,0.7
			l-0.9,0.8l-1.3,0.4l-0.7,0.5l-1,0.1l-0.9-0.3l-0.6-0.7l-1.2,0.4l-2.5-0.3l-1.1,0.3l-1.4-0.5l-0.6,0.5l-0.7-0.5l-0.9,0.2l-1.3-0.1
			l-0.4-0.4l-0.8-0.1v0.5l-1.1-0.1l-0.3-0.6l-0.8,0l-1.4,0.6l-0.3,0.3l-1.7,0.2l-0.8,0.2l-0.5,0l-1.6-0.8l-2.5-4.9l0.2-2.1l-1.4-0.6
			l-2.6,0.4l-1.4-0.5l-0.5-1.4l-0.7-0.8l0.3-1.3l-0.4-0.7l-0.2-2.6l0.9-2.7l-0.6-1.5l2.1-2l-0.1-1.5l0.2-1.3l-0.2-1.8l-0.3-0.7
			l-0.1-1.8l-4.7-5.3l-0.8-0.2l-2.5-10.2l-0.5-0.1l-0.6-0.7l-0.9,0.4l-1.5,0.3l-0.9-1l0.3-0.7l-0.3-1.5l-0.7-0.9l-1.1,0.4l-0.5,0.8
			l-0.9,0.2l-1.3,1l-1.3,0.3l-0.8-0.3l-1,0.1l0.4-0.5l0.8-2.3l1-2.1l1-0.9l0-0.5l1.3-1.9l0.7-0.3l0.4-1l1.1-1.6l0.6-1.9l1.1-1
			l0.2-0.7l-0.5-0.1l-0.7-0.7l0.1-1.6l1.6-4l-0.3-1.4l0.2-1.2l0.6-1l1.3-1.6l0.4-0.8l2-3.2l1.3-2.4l1.4-3.8l1-2.2l0.8-0.9l0.7-2
			l1-0.9l0.5,0.1l1.7-0.7l2,0.3l2.9-5.4l2.9-5.4l6.9-1.7l1-0.4l3.8-0.9l0.2-0.7l-0.7,0.2l0.8-0.7l1.4-1.6l1.1-0.4l1.6-1.5l0.2-0.6
			l-0.4-1.4l-2.1-4.2l-1-0.8l-1.6-0.2l-0.7-0.5l-1.1,0l-1-1l-1.6-0.4l-2.2-0.1l-0.7,0.3l1.1,0l0.6,0.3l-0.5,0.6h-0.6l-0.3,0.7
			l-0.5-0.7l-0.7,1.1l-1.2,0.8v-1.2l-2.3,1.5l0.7,0.7l0.8,1.5l-1,0.2l-0.6,0.8l-1,0.1l-0.2-0.8l0.5-1.3l-1.8,0.4l-2.2,0.1l-0.3,0.3
			l0.8,0.8l0.1,1.4l-1,2.3l-0.8,1l-0.2,1.3l-0.9,0.2l-0.3,0.6l-2.8,1.5l-0.3-0.3l-0.9,0.2l-0.6,0.7l-0.7-0.1l-1,0.5l-2.5,0.6l-2,1.6
			L955,97l-0.7,0.5l-1.7,0.2l-1.6,1.4l-1.4,0.8l-0.7,0.6l-1.4,0.9l-0.4,0.8l-2.8,1.9l-2.2,0.2l-1.2-0.2l-1.7,0.2l-2.4,0l-2.7-0.1
			l-3.6-1.7l-3,0.3l-0.7,0.4l-0.2,0.8l-1.1,1.2l0.5,2l-0.2,1.6l-1.4,1.4l-2.1,0.4l-2.4-0.1l-1.2-0.4l-3.3-1.5L913,108l-1.1,0.5
			l-1.6,1.6l-0.8,0.5l-1.2,1.4l-3,1.8l-0.9,0.4l-0.5,0.1l-0.3,1.3l-0.8,0.6l-1.6,0.6l-1.3,1.1v0.7l-1.2,0.5l0.7,1.7l0.1,1l-0.5,0.1
			l-0.2-1l-1.1,1.7l0.8,0.7l0.2,1.5l-0.4,0.5l-0.7,0.1l-0.6-0.6l-0.6,2l-1.4,1.3l0,0.3l1.6-1l1-1l1-0.4l-0.3,0.9l0.5,0.8l-0.8,0.3
			l-0.2,0.6l-0.5-0.1l0.4,0.8l-0.2,0.3l0.8,0.4l0.2,1.3l-0.8,0.5l-0.5,0.9l-0.7,2l0,1l-0.9,1.3l-0.6,0.4l0.9,0.1l1,0.4l0.7,1.2
			l0.1,1l-0.2,0.9l-1.4,2.6l-1.1,0.4l-1.8-0.2l-1.4-0.3l-1.9,0.3l-0.7,0.7l-1.9,0.7l-1.1,0.9v0.8l-1.3,1l-0.2,1.8l-1.3,1.5l-0.5,1.4
			l-1.6,1l-0.5,0.8l-1.4,0.6l-0.9,1.4l-1.4,0.6l-1.1,0.9l-1.2,0.6l-0.7,0.9l-1.9,0.6l-2.1,0.5l-1.1,1.2l-0.2,0.6h0.5l1.7,0.9
			l0.8,1.3l0.8,1.7l-0.5,1.5l0.8,2.7l-0.2,1.6h0.2l-0.1,2.5l-0.3,0.7l-1.7,0.5l-1.1-0.1l-0.7-0.3l-0.3-1.5l0.3-0.9l1.4,0.4l-0.4-0.8
			l0.6,0.2l-0.3-1.2l-0.8,0.3l0.9-0.8l-1.1,0.1l-0.7,0.9l-0.4-1.4l0.4-0.1l-0.8-1.1l0.3-0.8l-0.6-0.3l-1.6-0.4l-0.5-1.2l-1.3-1.6
			l-2.1-1.3l-0.5-1.1l-0.8-0.5l-1.4-1.8l-0.7,1.5l-1.1,1.6l0.5,1.2l1.1,1l0.8,2.9l1.7,1.5l0.8,2.3l0.5,2.5l-0.4,0.9l0.2,0.8
			l-1.6,0.8L860,178l-1.4,2l-1.7,2.1l-0.4,1.3l-1,0.5l-1.2-2.4l-1.3-0.8l-0.6,0.1l-0.3,0.7l0.7,2.8l-2.5,0.8l-1.3,2.3l-0.5,1.5
			l-0.1,0.8l0.9,1.3l2.1,1.9l0.8,0.3l0.6,0.8l0.2,0.7l0.6,0.6l-0.2,0.6l-0.6,0.4l-0.2,1.3l0.7,0.1l1.9,1.3l0.5,0.5l0.8,2.1l-0.2,0.6
			l0.7,0.2l0.2-0.9l0.9-0.3l0.8,0.3l0.2,0.9l1.3,1.7l0.1,0.8l-0.4,0.7l-0.1,2.1l-1,0.3l0.3,0.3l-0.2,1.7l-0.4,0.6l-1.3-0.7l-0.2,1.6
			l0.8,1.5l0.2,0.8l1,1.5l0.3-0.6l0.9,2.2l-0.2,0.5l0.3,1.1l0.9,1.7l0.5,0.4l-0.6,1.4l-1.4,1.1l-0.8,1.2l-1.1-0.3l-1,0.5l-0.8,0.1
			l-0.6,1.9l0.7,0.3l1.4-0.2l0.1,1l0.8,0l-0.5,1l0.2,1.4l0.4,0.2l0.4,1.1l-0.6-0.4l-0.3,2.2l0.9-0.3l-0.6,1.3l0.1,1l0.5,1.7
			l-0.2,1.5l0.8,2.6l0.8,0.9l0.5,1l-0.3,0.2l-0.8-0.8l0,1.1l0.5,0.9l-0.4,0.5L860,247l0.3,0.4l-0.7,0.4l0,1.8l-1.6,1.7l-0.2,0.5
			l0.6,0.5l-0.7,0.4l0.3,0.6l-1.5-0.1l0.1-1.1l-0.6,1.7l1.2,0l-1,0.7l0.2,0.7l1.4-0.8l1.4,0.1l-0.5,1l-0.9,0.6l0,1.8l1.4,1.9
			l0.6-0.5l0.6-2.2l1.2-0.5l0.7,0.8l-0.3,1.5l0.3,0.1l-2.2,0.8l0.1,0.5l1,0.4l-0.6,0.6l1.3,0.3l1-0.4l1.7-0.2l1.8-0.6l-1.1,1.2
			l-0.2,1l-0.9-0.1l-0.5,1.2l-0.1,1.4l0.5-0.2l0.1,0.8l-1,1l-1.8,0.7l-1.5,1.9l0.4,0.1l-0.3,1.6l-0.8,0.3l-0.2,0.5l-0.7,0l-2.1,1.9
			l0.8,0.8l-0.2,0.4l-0.8,0.1l-1.7,2.3l-0.8,0.7l0.7,0.1l-1,0.5l-0.3-0.5l-0.8,1.4l0.5-0.3l0.9,0.2l-1.3,2.3h1l-1.4,1.1l-0.7,0.1
			l-0.5,0.6l1.1,0.2l-1.8,0.6l-0.3,2l-1.5-1.4l-0.3,1.5l-0.4-0.7l-0.1,1.1l-0.9-0.2l-0.3-0.2l-1.1,1.5l-1.1,0.9l-0.1-0.9l-0.7-1.5
			H842l-0.9,0.4l-0.2,0.8l-1.5,1.5l-0.1-0.7l-0.7,0.6l-0.2,1.2l0.2,0.8l-0.8-1.4l-0.5-0.5l-0.1-0.7l-0.8,0l-0.8,1.1l-1.7,1l-0.5,1.2
			l-0.8,1.3l-0.1,0.7l0.5,2l0.8,0.2l-0.3,1.5l-1.5,0.3l-0.4-0.2l-0.1,2.6l1-0.3l0.7,1.1l-0.1,1.3l0.7,0.1l0.1,2.2l-0.3,0.5l-3.2-0.2
			l-0.5-0.2l-2.7-0.4l-0.5,0.7l-2.7,3.1l0,0.1l-1.6,0.1l0.1,1.6l2.5-0.1l1.2,1l0.2,0.7l0.9-0.1l-0.1,0.5l1.6,1.6l1.7,1.3l0.8,1.3
			h0.6l1.1,1.4l2.4,0.4l2.1,2l0.8,1l1.9,0.4l0.9,1l1.8,1.4l0.9,0.5l2.2,1.5l1.7,0.4l0.8-0.1l2-0.7l1.4-0.3l1,0.2l0.3,0.6l-0.5,1.3
			l0.1,0.6l0.9,0.9l2.3,0.8l0.6,0.8l-0.2,1l0.2,1l1.1,1.9l0.3,0.7l1,0.3l1-0.4l1.7,0.7l0.9,0.1l1.2-0.4h1.2l0.7,1.3l2.5,0.1l0.3,0.6
			l1.1,0.4l1.1-0.3l1.3,0.5l-0.5-0.9l0.7-0.2l1.9,0.2l0.8,0.3l0.8,1.1l2.1-1l1.3,0l-0.1-2.8l1.7,0.1l0.6-0.8l1.3,0.5l2.2,0.3
			l0.6,1.1l0.7-0.1l1.7,0.8l0.4,1.4l0.8,0.5l0.4,0.9l1.1,1.2l1.4,1l2.5,0.7l1.8-0.7l1.2,1.6l2.3,1l0.6,0.7l0.9-0.1l1.5,0.4l0.8,0.4
			l1.4-1.6l2.2,0.8l2.5,1.7l0.7,1l0.5-0.2l1,0.7l1-0.6l0.1-0.7l1.5,1.6l0.7,1.3l0,1l0.8-0.1l0.3,0.8l0.9-0.4l1.3,0.8l0.7,1.6
			l0.5-0.3l1.7,1l0,0.9l0.7,0.3l0.4,2.1l0.4,1l-0.5,0.7l1.1,0.8l0.6,1.1l0.7,0.3l-0.2,1.2l-1.2-0.1l0.9,0.7l0.2,1.3l1.7,0.8l1.1,0.2
			l1.1,0.5l0.9-0.9l0.5,1.8l0.4,0.2l1-0.3l-0.1,0.7l1-0.2l1.1,2.2l1.9,0.5l0.2-0.9l0.7,0.9l1-0.1l1.4,0.8l0.2,0.9l0.6,0.1l0.2,0.8
			l0.5,0.7l-0.5,0.5l0.7,0.1l0.4,0.8l0.7,0.5l0.3,1l-0.2,0.5l0.8,0.4l-0.1,0.4l-0.9,0.9l-0.6,1.9l1.8,0.4l0.7,1l1.1-0.1l1.3,0.7
			l-0.1-0.8l1.2,0l0.2,0.4l0.4-1.1l0.7,1l1,0.6l0.1,1l0.8,0.3l-0.2,2.6l0.4,0.8l0,0.8l0.7,0.1l-0.7,0.7l-0.7,1.3l-1,0.5l0.4,0.8
			l1.1,1l-0.2,0.7l1.2-0.2l-0.1,0.7l0.5-0.7l1,0.7l0.9-0.5l0,1.1l0.8,0.9l-0.3,0.8l3.2-1.5l0.8,0.8l0.3-1l0.6,0.4l0.3,0.9l0.4-0.2
			l0.5-1.5l1.4,0.3l0.7,0.4l1.4-0.1l1.7,0.1l0.4,1.1l0.7,0.3l1.5-0.5l1-0.6l1.2,0.1l0.6,0.7l0.1-1.1l1.2-0.9l0.7-0.9l1.3,0.7
			l0.6-0.2l0.8,0.3l-0.2-1.3l1.2-0.2l0.8-2.3l0.6,0.2l0.5-0.7l1-0.6l0.4,0.3l0.1,1.2l1.7-0.1l2.5,0.8l0,1.5l0.4,0.1l0.3-1.1l1.3,0.9
			l0.6,1.3v0.6l1.3-0.5l0.6-0.7l0.6,0.1v0.8l0.8-0.8l1,0.6l0.5-0.6l0.8,0l0-1l1.3-0.5l1.4,0.4l-0.4-1.9l1.8,1.1l1.1-0.4l0.7,0.2
			l0.7,1l1,0.2l0.9,0.8l1.2,0.4l0.1,1.1l0.6,0l0.4,0.5l-0.4,0.7l0.6,0.7l0.8-0.5l-0.4-0.8l0.5,0.1l1.1,0.8l0.8-0.3l0.5,1.1l0.7,0.1
			l1.4-0.3l1.1,0.3l-0.1,0.4l-1,0.6l0.6,0.3l1.4-0.4l0.6,0.5l-0.1,1.3l0.4,0.2l0.6-0.7l0.5,0.7l-0.2,1.2l0.8-0.4l0.4-0.8l0.6,0.4
			l0.2,1.8l-3.5,5.9l-3.5,5.9l-3.1,5.1l-3.1,5.1l0.5,0.1l1.1,0.9l1.3,0l1.6,0.6l1.4-0.6l1.1-1.2l0.7,0.2l1.6,0l1,0.4l0.7,1.2
			l0.5,1.7l0.6,1l1.1,1.1l0.7,0.9l2.2,2.3l1.1-6l1.1-6l1.1-6l1.1-6l1.3-6.8l1.3-6.8l1.3-6.8l0.8-4l1.3-7.6V375l0.5-1l0.1-0.9
			l0.5-1.6l-0.5-2.2l0.8-1.7l-0.7-1.3l-0.3-1.5l-0.9-1.1l-0.8-0.7l-0.6-1.6l-1.6-2.1l0.9-2.1l-0.3-1.4l-0.6-1.7l-1.9-0.9l-1.1-1.1
			l-0.9-0.3l-1.2-1.1l-0.9,0l-2.1-2.2l-1.1-2.3l0.3-8.3l0-5.3l1.1-0.6l1.1,0.1l0.3-0.3l2.5-0.2l1.3-0.4l0.4-0.7l1.5-0.4l0.4,0.5
			l1.9-1.1l0.8-0.9h0.6l2,1.7l0.2,0.4l1.6-0.4l0.5,0.7l1.3,0l0.3-0.6l1.3,0v-0.8l-0.9-0.6l-0.2-0.6l0.5-0.6l-0.2-1.3l0.4-0.8l-0.8-1
			l0.2-0.7l-0.7-0.4l-0.1-1.3l-1.9-1l-0.9-0.2l-0.6,0.3l-1.4,0.2l-0.9-0.4l-1.7,0.1l-1.7-0.4l-1,0.3v-0.4l-1.1-0.1l-1.4,0.8
			l-0.4-0.2l0-6.6l0-6.6l1.1,0l0.9-0.6l2.1,0.1l1.9-0.8l2.1,0.3l1.3,0.5l6.4,0.2l6.4,0.2l6.4,0.2l6.4,0.2l0-0.6l-0.7,0.1l0.2-0.6
			l-0.5-0.4l-0.6,0.2l0.2-0.8l-1.1-0.4l0.8-1l0.3-1.1l0.5-0.9l1.9,0.7l0.8,0.8l0.7,1.6l1.3,1.1l1.9,0.8l0.6-0.2l1.7-1l1.5-1.8
			l0.6-0.4l2-3.2l2.3-1.9l1.6,0.5l1.5,1.9l1.6,4l0.8,0.6l1.3,1.7l0.5,1.4l0.4,1.9l0.6,1.3l0.4,1.6l0.1,1.9l-0.2,1l0.3,2.5l4.6-0.8
			L1080.5,317.3z M946.1,183.3l0.4-1.1l1.4-0.2l0.3,0.2h1.6l0.7-0.3l0.9,0.2l0.2,1.3l0.7,1.2l0.7,0.4l0.4,1.2l0.8,1.4l0.7,0.6
			l-0.9,1.4l0.8,2.2l-0.8,1.9l0.7,0.6l1,0.1l1.1,0.8l1.2,0l0.1,0.4l2.2-0.2l0.6,0.9l-0.2,1.2l1.1-0.2l0.3,2.4L962,202v1.2l-0.6,0.5
			l-0.4,1l0.2,1.2l-2.1,1.5h-0.5l-0.7-0.8l-0.7-1.5l-1.1-0.9l-0.8,0.6l0.2,0.6l1.5,1.7l-0.2,1.8l-0.4,1l-0.2,1.6l-2.6,2.5l-0.4,0.7
			l-0.9,0.7l-0.7,1.2l-0.8,0.5l-2.2-0.1l-1.7-0.4l-0.6,1.6l-0.7,1.1l-1.5,0.3l-1.2,2l-1.1-1.3l-0.4-0.9l1-0.6l1-1.8l-0.8-1.8l-1.9-1
			l-1,1.8l-1.1,1.3l-0.2,1.1l0.3,0.8l-0.4,1.5l0.1,0.9l-0.8,0.8l-0.8-1l-1.1-0.2l-1.2,0.6l-1.9,0.3H931l-0.8-1.5l-1.4-0.2l-0.1-0.7
			l-0.5-0.4l-1.4-0.5l-0.7,0.8l-0.6-0.4v-1.3l-0.5-0.3l-0.1-2.5l-0.3-0.2l-1.3,0.8l-1,0l-1.3-0.9l-0.1-0.9l-0.5-1v-0.7l-1-1.2
			l1.3-1.4l0.8-1.2l1-0.2l-0.9-3.2l1.1-1.5l1-0.2l1.2-0.7l1-1.1l1.2-0.5l0.9-0.7l0.7-1.4l2.2-1.8l1.1-0.4l1.3-1.3l-0.9-2l0-0.9
			l-0.3-1.1l0-1.8l0.6-2.5l-0.2-1.9l0.8-0.8l1.1-2.4l0.2-2.1l0.2-0.9l-0.5-1.2l0-0.9l-0.9-2.4l0.1-1.7l1.7-1.3l0.4,0.2l-0.3,0.8
			l0.9,1.6l0,0.7l1.1,0.8l0,0.6l-1.3,1.9l0.1,0.8l-0.4,1l2.7,0.3l0.9,0.5l1,1.2l0.4,0.8l1.4,0.6l1.2-0.1l1.8,0.9L946.1,183.3z"/>
		<path class="st2" d="M791.2,84.7l0.3-2c0-0.1,0.1-0.2,0.1-0.3c0.1-1.1,0.2-2.2,1.2-3c0.4-0.4,0.6-0.8,0.7-1.4c0-0.6,0-1.3,0-1.9
			c0.1-0.2,0.2-0.4,0.4-0.6c0.2-0.2,0.6-0.4,0.6-0.6c0.1-1.1,0-2.3,0.1-3.4c0-0.4-0.1-0.7-0.5-0.8c-0.4-0.1-0.4-0.3-0.2-0.6
			c0.2,0,0.4,0,0.6,0c0.3-0.1,0.6-0.2,0.9-0.4l-0.4-0.6l0.3-0.2c0-0.3-0.1-0.5-0.1-0.8l-0.2-0.3c0.1-0.2,0.2-0.4,0.3-0.6
			c0.8-0.7,1.7-1.2,2.9-1c0.2,0,0.4-0.1,0.6-0.3c0,0-0.1-0.4-0.2-0.5l0,0c-0.6-0.4-1.2-0.7-1.9-1c-0.5-0.1-0.9-0.5-1-1.1
			c-0.1-0.6-0.6-1.1-1.3-1.1c-0.3,0-0.5,0.1-0.7,0.3c-0.4,0.3-0.7,0.6-1,0.9c-0.3,0.4-0.7,0.7-1.1,1c-0.8,0.4-1.1,1.3-1.6,1.9
			c-0.2,1,0,2-0.6,2.9c-0.4,0.5-0.8,1-1.3,1.5c-1,0.9-0.7,2.2-0.3,2.9c-0.2,0.9-0.4,1.7-0.6,2.4c-0.1,0.3-0.2,0.7-0.4,1
			c-0.6,0.9-0.6,1.4,0.3,1.9c0.4,0.2,0.7,0.3,0.6,0.9c0,0.4,0,0.8,0.1,1.2c-0.1,0.8-0.2,1.6-0.2,2.4c0.1,0.5-0.1,1.1-0.3,1.5
			c-0.4,0.7-0.8,1.5-1.2,2.3c0,0.6,0,1.2,0.1,1.7c0.1,0.3,0.2,0.6,0.4,0.9c0.2,0.3,0.5,0.6,0.9,0.7c0.3,0,0.6-0.1,0.8-0.4
			c0.5-0.6,0.9-1.2,1.3-1.9C790,87.3,790.6,86,791.2,84.7z"/>
		<path class="st2" d="M814.8,76.8c0-0.1,0.1-0.2,0.2-0.3c0.5-0.7,0.7-1.6,0.5-2.4c-0.1-0.5-0.1-1,0-1.4c0-0.1,0.2-0.2,0.3-0.3
			c0.3-0.1,0.6-0.2,1-0.3c0.2-0.3,0.4-0.6,0.6-1c0-0.2,0-0.4-0.2-0.6h0c-0.1-0.1-0.4,0.1-0.6,0.1c-0.5,0.1-0.7-0.3-0.8-0.7
			c-0.2-0.6-0.3-1.2-0.5-1.8v-0.2l0.7-0.7l0.2-0.2l-0.1,0l0-0.1l-0.3-0.7c0,0-0.1,0-0.1,0l-0.2,0.1l-0.2,0l-0.1-0.3h-0.1l-0.2,0
			l-0.3,0c-0.4,0-0.6-0.1-0.5-0.6c0,0,0-0.1,0-0.1l-0.4-0.8l-0.1-0.4l-0.9-0.2l-0.6-0.2c0,0-0.1,0-0.1,0l0.2-1.3l0.1-0.2l0-0.1
			l-0.4-0.4c0,0-0.1,0-0.1,0l-0.2,0.1l-0.6,0.2l-0.4,0l-0.6,0.2c-0.1,0.1-0.1,0.2-0.2,0.3c-0.6,0.5-0.7,1.3-0.3,1.9
			c0.1,0.1,0.2,0.2,0.3,0.3l0.2,0l0.6,0.7c0.3-0.1,0.7-0.2,1-0.2c0.5,0,0.3,0.5,0.4,0.8l-0.1,0.6l0,0.6l-0.9,1.1
			c0.1,0,0.2,0.1,0.3,0.1c-0.1,0-0.2,0-0.3-0.1l-0.3,0.1l-0.3-0.1c0,0-0.1,0-0.1,0l-0.6,0l-0.2-0.3l-0.7-0.2l-1.3,1.1l-0.3,0.6
			c0.2-0.1,0.5-0.2,0.7-0.3c-0.2,0.1-0.5,0.2-0.7,0.3l0,0.4l-0.3,0.2c-0.7,0.8-1.1,1.8-1.1,2.8c0.1,0.8-0.1,1.6-0.4,2.3
			c-0.3,0.5-0.4,1.2,0.3,1.6c0.1,0.1,0.2,0.2,0.2,0.3c0.1,0.6,0.2,1.3,0.3,1.9c0,0.4,0,0.8,0,1.2c0.1,0.2,0,0.5,0.2,0.6
			c0.2,0.2,0.5,0.4,0.8,0.5c0.1,0,0.3-0.2,0.5-0.3l0,0l0.2-0.1l1.9-0.5l0.3,0c0.2-0.6,0.5-1.1,1-1.5c-0.5,0.4-0.8,0.9-1,1.5l0.9-0.6
			l1.8-1.6l0.3,0C813.8,77.9,814.6,77.8,814.8,76.8z M813.5,65.2c-0.1-0.1-0.3-0.2-0.4-0.4C813.3,64.9,813.4,65,813.5,65.2z"/>
	</g>
</g>
</svg>
