<?xml version="1.0" encoding="utf-8"?>
<!-- Generator: Adobe Illustrator 26.5.0, SVG Export Plug-In . SVG Version: 6.00 Build 0)  -->
<svg version="1.1" xmlns="http://www.w3.org/2000/svg" xmlns:xlink="http://www.w3.org/1999/xlink" x="0px" y="0px"
	 viewBox="0 0 1096.6 794" style="enable-background:new 0 0 1096.6 794;" xml:space="preserve">
<style type="text/css">
	.st0{fill:#B3CFC0;stroke:#00634B;stroke-width:0.8;stroke-miterlimit:10;}
	.st1{fill:#FFFFFF;}
	.st2{fill:#C7F789;}
	.st3{fill:#B3CFC0;}
</style>
<g id="Capa_3">
	<g>
		<g>
			<path class="st0" d="M248.8,92.6l1.9,1l4.1,1.6l6.3,5.5l1.5,5.1l1.2,5l3.8,1.2l3.9,3.2l0.5,2.4l1.9,3.9l4.4-0.2l1.9,3.4l0.5,3.9
				l-0.5,5.4l0.2,2.4l2.1,2.9l1.5,3.9l2.5,2.9l6.5,0.4l4.1,0.5l5.6,2.6l4.1,3.3l6,3.4l2.9,3.1l5.3,6.4l2.9,7.9l2.7,6.7l3.2,7.3
				l3.8,7.5l4.9,6.8l8,9.6l13.3,5.7l6.5,0.7l6.3,4.5l9.5,4.3l10.6,7.7l9.5,6l4.9,6.5l4.6,5.3l4.9,5.8l6.8,4.5l5.4,1.6l6.5,1l6.6,1.1
				l6,0.4l7-0.2l3.6-4.1l-2.5-5.5l-7-5.8l-4.4-4.5l-0.5-3.6l3.4-5.5l2.2-3.6l1.2-2.9V229l2.9-3.6l-5.6,0l-6.6-0.2l-3.2,0l-3.8-0.5
				l-4.3-2.1l-6.3-3.4l-4.9-3.4l-9.5-6.2l-6.3-3.4l-2.4-2.1l-3.6-4.2l-1.7-5v-3.2v-5.8l-5.1-5.8l-4.4-4.4l-8.7-10.6l-1.9-3.4
				l-7.3-7.5l-4.1-5.8l-4.9-4.8l-3.9-6.5l-4.3-3.8l-4.1-6l-4.3-5l-4.6-3.7l-2.5-4.1l-1.5-3.9l-2.7-5l-2.6-4.6l-4.1-4.6l-1.2-2.9
				l-2.2-7.1l0.5-1.9l-1.1-0.9l-2.9-2.6l-0.5-0.5l-3,2.4l-1.9,4.8l-5.9,7.1l-2.4,2.9l-2.7,4.2l-4.4,5.1l-5.1,3.4l-3,3.7l-2.6,0.4
				l-0.9-4.5v-3.2l-0.3-4.6l-2.9-2.6l-0.5-3.6l-1.2-3.7l-3.1-6.8l-1.9-4.3l-5.8-0.4l-6.3,0.3l-7.5,3.5l-4.7,2l-1.4,3.2L248.8,92.6
				L248.8,92.6z"/>
			<path class="st0" d="M248.8,92.6l-0.9,4.3l-2.9,4.3l-3.2,2.9l-7,4.9l-2.7,4.4l-1.7,4.4l-3.4,0.8l0.5,3.4l5.5,5.3l6.6,7.4l5.3,6.5
				l3.1,2.4l0.7,4.1l0,8.7l-0.7,10.7l1.5,5.3l1.7,6.5l3.6,10.1l3.8,6.8l3.7,9.2l2.2,4.8l4.9,6.9l2.7,5.1l0.2,4.4l1.5,4.1l2.2,1.2
				l5.5,0.2h4.1l6.6-0.8l4.6-0.5l5.1-1.5l2.7-1.2l5-3.7l3.4-3.2l3.2-0.9l4.9-0.5l5.1,1.4l6.6-0.3l4.1-0.3l5.4,0.7l6,3.4l3.1,3.4
				l4.3,5.1l6.1,4l4.3-0.7l5.4,0.5l2.6,3.6l4.3,4.5l8.5,11.6l1,4.6l2,5l2.9,2.7l4.6,3.6l5.4,3.1l3.6,3.6l7,0.5l8.3,0.1l5.3,0.7
				l6.6,0.4l10.5-0.3l9.2-0.3l6.1,0.5l7.3,2.4l6.1-0.8l6.8-0.3l3.9,1.7l1.2-0.1l1.4-0.4l3.2-0.3l5.1-0.5l3,1.2l3.2,0.7h2l2.9-0.6
				l0.9-2.6l2.7,0l4.1-0.9l0-3.4l-1-2.4l-1.4-2.6v-3.8L511,265l-2.7-5l-2.5-4.6l-1.5-5.1l-1.2-4.4l-0.8-4.6l0.8-4.4l2.2-2.5l2.6-1.7
				l4.2,1l-0.4-1.7l-0.5-2.9l0.2-2.7l-2.1-3.2l-2.5-4.1l-0.7-0.7l-2.1-0.5h-0.6l-2.6,0l-3.2,0.1h-4.4l-3.1,1.7l-1.9,0.9l-3.4,1.5
				l-5.6,0.5l-4.4,1.5l-7.6,0.6l-7.8,0.3l-5.6,0.5l-2.9,3.6v2.2l-1.2,2.9l-2.2,3.6l-3.4,5.5l0.5,3.6l4.4,4.5l7,5.8l2.5,5.5l-3.6,4.1
				l-7,0.2l-6-0.4l-6.6-1.1l-6.5-1l-5.4-1.6l-6.8-4.5l-4.9-5.8L407,247l-4.9-6.5l-9.5-6l-10.6-7.7l-9.5-4.3l-6.3-4.5l-6.5-0.7
				l-13.3-5.7l-8-9.6l-4.9-6.8l-3.8-7.5l-3.2-7.3l-2.7-6.7l-2.9-7.9l-5.3-6.4l-2.9-3.1l-6-3.4l-4.1-3.3l-5.6-2.6l-4.1-0.5l-6.5-0.4
				l-2.5-2.9l-1.5-3.9l-2.1-2.9l-0.2-2.4l0.5-5.4l-0.5-3.9l-1.9-3.4l-4.4,0.2l-1.9-3.9l-0.5-2.4l-3.9-3.2l-3.8-1.2l-1.2-5l-1.5-5.1
				l-6.3-5.5l-4.1-1.6L248.8,92.6L248.8,92.6z"/>
			<path class="st0" d="M216.7,145.5l-6.6-9.1l-2.4-4.8l-2.2-5.8l-3.6-3.9l-3.2-3.1l-1.5-4.6v-5.3l-5.3-3.1l-6,3.7l-4.1,5.8
				l-3.6,4.6l-4.2,5.3l-9.7,5.1l-3.2,2l-4.3,2.7l-3.2,2l-3.8,1.5l-1.2,2.1l-3.1,4.7l-0.3,2.9v2.9l0.5,2.7l2.7,4.6l3.2,7.2l0.4,7.7
				l1.9,3.2l5.3,1.9l1.9,4.6l5.1,1.7l6.3,3.6l1.9,4.3l1.5,2.2l4.1,3.3l6.1-0.5l6.1,4.5l3.6,7.7l1.9,3.1l0.9-0.2l-0.4-5.6l2.4-6.5
				l3.4-9l3.6-6.8l1.7-5.6l-1-3.8l1.7-7.7l3.4-5.3l2.5-5.6L213,153l-1.5-3.9l2.2-1.7L216.7,145.5L216.7,145.5z"/>
			<path class="st0" d="M227.1,118.6l0.2-3.2l0.2-3.2l-2-3.6l-4.2,0.6l-2.7,4.8l-2.6,3.4l0.2,1.9l0.2,6.8l-1.9,5.1l-0.9,3.4l0.5,3.4
				l0.7,1.5l2.9,2.4l8.1,10.1l4.1,6.9l2,8.1l0.4,6.5v4.5l0.8,5.7l2,8.1l2.8,10.5l0.8,17.4l2,12.5l2,32.4v5.3l3.1,29.8l0.9-3.9
				l1.5-7.2l2.2-9.7l5.3-11.9l1-7.9l0.5-7.3l2.9-10.9l2.6-6.6l6.6-1.7l4.6-2.2l-1.5-4.1l-0.2-4.4l-2.7-5.1l-4.9-6.9l-2.2-4.8
				l-3.7-9.2l-3.8-6.8l-3.6-10.1l-1.7-6.5l-1.5-5.3l0.7-10.7l0-8.7l-0.7-4.1l-3.1-2.4l-5.3-6.5l-6.6-7.4l-5.5-5.3L227.1,118.6
				L227.1,118.6z"/>
			<path class="st0" d="M214.7,139.5l1.3,2.9l0.7,3.1l-3.1,1.9l-2.2,1.7l1.5,3.9l2.9,3.9l-2.5,5.6l-3.4,5.3l-1.7,7.7l1,3.8l-1.7,5.6
				l-3.6,6.8l-3.4,9l-2.4,6.5l0.4,5.6l0.5,4.6l0.9,4.8l4.4,7.5l5.3,9.2l4.4,9.7l3.2,12.6l3.2,4.8l1,6.5l2.3,12.4l3.6,7.5l3.8,6.7
				l4.7,8.9l1.9,5.1l0.7,2.9l3.4-1.5l1.4-2.9l1.2-6.1l1.4-5.9l-3.1-29.8v-5.3l-2-32.4l-2-12.5l-0.8-17.4l-2.8-10.5l-2-8.1l-0.8-5.7
				v-4.5l-0.4-6.5l-2-8.1l-4.1-6.9l-8.1-10.1L214.7,139.5L214.7,139.5z"/>
			<path class="st0" d="M145.8,153.9l-2.4,2.2l-5.9,8.9l-3.4,7.2l-1.5,2l-1.2,4.8l-0.8,5.1l1.7,4.3l3.2,8.5l2.2,8.9l0.5,7.1l3.2,2.4
				l2.2-0.5l2.9-0.6l3.1,1l0.2,4.9l-1.5,4.4l-1.5,3.6l0.2,3.6l-0.9,4.2l-4.1,1l-6.3,1.5l-5.5,1.5l-5.4,0.3l-2.9-2l-3.1-0.5v2.7
				l-0.7,5.8l0.2,8.2l-2.9,13.1v2.6l1.5,3.4l3.8-0.9l4.1-1.2l6.6-1.3l4.1,2.7l4.4,8.4l0.7,3.9l-0.2,9v5.3l-0.8,4.6l7,1l2.7-0.5
				l1.4,2l1.3-3.6l3.6-6.9l2-6.5l0.4-6.9l2.8-8.9l0.8-3.2l3.6-9.1l-0.1-1.7l3.1-6.5v-9.2l0-9.6l2.1-3.4l0.5-10.1l1.9-8.7l3-14.8
				l0.2-2.7l-1.5-2.2l-1.9-4.3l-6.3-3.6l-5.1-1.7l-1.9-4.6l-5.3-1.9l-1.9-3.2l-0.4-7.7l-3.2-7.2L145.8,153.9L145.8,153.9z"/>
			<path class="st0" d="M175.9,194.9l-0.2,2.7l-3,14.8l-1.9,8.7l-0.5,10.1l-2.1,3.4l0,9.6v9.2l-3.1,6.5l0.1,1.7l0.4,5.7l3.2,9.6
				l3.8,16l2.9,6l1.7,3.8l1,5.5l2.2,3.4l1.4,6l1.2,6.3l0.9,4.1l1.3,4.4l1.2,2.9l0.5,1.7l2.4,3.8l5.3,4.3l3.6,6.5l2.8,5.5l3.6,6.7
				l1.4,5.5l3.6,14.2l2.2,6l0.5,3.4l0.2,2.4l-1.5,0.8l3.2,0.4l2.6-0.9l1.2-0.2l2.2-1.2l2.9,1.9l4.2-0.9l4.1-2.2l4.6-3.4l2.4-3.4
				l1.5-4.4l2.2-4.1l1.5-2.2l2.2-2.6l2.2-2.7l0.7-4.4l-0.5-1.7l-0.2-2.4l-0.2-2.4l-2-1v-1.5l-1.5-1.7l-4.4-5.3l-1.5-6.3l-1.2-6.7
				l-1.9-6.1l-3.1-3.6l-1.2-5.3l3.8-4.1l3.7-1.3l-0.7-2.9l-1.9-5.1l-4.7-8.9l-3.8-6.7l-3.6-7.5l-2.3-12.4l-1-6.5l-3.2-4.8l-3.2-12.6
				l-4.4-9.7l-5.3-9.2l-4.4-7.5l-0.9-4.8l-0.5-4.6l-0.9,0.2l-1.9-3.1l-3.6-7.7l-6.1-4.5l-6.1,0.5L175.9,194.9L175.9,194.9z"/>
			<path class="st0" d="M273.9,230.3l-4.6,2.2l-6.6,1.7l-2.6,6.6l-2.9,10.9l-0.5,7.3l-1,7.9l-5.3,11.9l-2.2,9.7l-1.5,7.2l-0.9,3.9
				l-1.4,5.9l-1.2,6.1l-1.4,2.9l-3.4,1.5l-3.7,1.3l-3.8,4.1l1.2,5.3l3.1,3.6l1.9,6.1l1.2,6.7l1.5,6.3l4.4,5.3l1.5,1.7v1.5l5.9-1.7
				l8.3-2.2l9.5,0.7l8.3,1.1l2.7,0.9l6,3.1l5.6,1.7l8,0.9l12.8,1.2l11.9,0.9l9,1.1l8.3,1.2l8.7,3.4l5.1,2.6l5.6,3.6l8.5,3.1l2.2-0.5
				l3.8-1l6.5,0.7l2.9-0.5l2.9-3.7l2.9-2.6l3.9-2.9l3.6-0.9l2.6-1.3l3.4-3.4l5.1-1.4l2.4,0.4l4.8,0.2l3.8-0.6l1.4,1.8l1.8-0.8
				l2.2,0.2l4.1-2.2l4.3-3.1l4.4-3.9l3.9-1.7l7-1.7l2.7,0.2l0.9,0.7l0.9-1l1.5-1.7l0.5-1.9l0.7-1.2l1.2-3.2l1.4-3.6l0-4.3l0.5-4.6
				v-3.4l0.3-8.7v-3.4l1.7-2l2.2-1.5l5.8-3.2l1.9-3.2l1.7-3.4l0.7-2.2l1.5-3.4l1.4-2.9l2.6-2.7l2.5-3.1l1-1.5l0.5-2.1l-3.9-1.7
				l-6.8,0.3l-6.1,0.8l-7.3-2.4l-6.1-0.5l-9.2,0.3l-10.5,0.3l-6.6-0.4l-5.3-0.7l-8.3-0.1l-7-0.5l-3.6-3.6l-5.4-3.1l-4.6-3.6
				l-2.9-2.7l-2-5l-1-4.6l-8.5-11.6l-4.3-4.5l-2.6-3.6l-5.4-0.5l-4.3,0.7l-6.1-4l-4.3-5.1l-3.1-3.4l-6-3.4l-5.4-0.7l-4.1,0.3
				l-6.6,0.3l-5.1-1.4l-4.9,0.5l-3.2,0.9l-3.4,3.2l-5,3.7l-2.7,1.2l-5.1,1.5l-4.6,0.5l-6.6,0.8h-4.1l-5.5-0.2L273.9,230.3
				L273.9,230.3z"/>
			<path class="st0" d="M512,233.7l-4.2-1l-2.6,1.7l-2.2,2.5l-0.8,4.4l0.8,4.6l1.2,4.4l1.5,5.1l2.5,4.6l2.7,5l0.2,2.9v3.8l1.4,2.6
				l1,2.4l0,3.4l-4.1,0.9l-2.7,0l-0.9,2.6l-2.9,0.6h-2l-3.2-0.7l-3-1.2l-5.1,0.5l-3.2,0.3l-1.4,0.4l-1.2,0.1l-0.5,2.1l-1,1.5
				l-2.5,3.1l-2.6,2.7l-1.4,2.9l-1.5,3.4l-0.7,2.2l-1.7,3.4L470,308l-5.8,3.2l2.2,2.1l2.4,4.4l3.4,2.4l5.6,3.1l1.4,2.2l0.9,0.2
				l2.4-0.7l6.6,1.2l4.4-1.3l5.5-1.7l3.2-1l1.9-0.8l4.1-2l7-3.2l3.1,3.8l0.9,3.9l2.9,0.5l4.1,1.2l6,0.2l0.7-2l1.3-2.2l3.8-3.4
				l3.1-1.3l1.9-1.4l2.7-5.1l1.5-3l1.9-1.7l3.7-2.4l0.5-3.6l0.3-3.6l0.1-1.4l-0.4-2.1l-0.9-1l-0.8-0.9l-6.1-5.5l-2.9-2.6l-3.1-4.2
				l-0.9-3.6l0.3-4.6l-0.3-2.9v-5.8l-0.5-5.8l-3.6-6.7H532h-3.4l-1.4,1.7l-1,2.2l-0.7,2.2l-2.2,0.9l-4.6,0.1l-2-1.5l-1-3.1l-0.2-2.2
				l-1.2-3.4l-0.4-5.8L512,233.7L512,233.7z"/>
			<path class="st0" d="M165.3,261.5l-3.6,9.1l-0.8,3.2l-2.8,8.9l-0.4,6.9l-2,6.5L152,303l-1.3,3.6l0.2,0.2l0.9,2.2v2.6l0.5,1.2
				l-2.2,2.5l-0.8,3.8l-0.5,2.2v1.4l2.1,3.4l-2,3.9l1.3,0.9l0.3,0.7l0.5,4.4l-1.7,5l-3.1,2l-2.9,0.6l-8.7,0.7l-3-2.7l-13.8-1.7
				l-15.8-0.1l-7.2-2.9l-7.3-0.5l-1.4-0.7l-7-1.2l-4.2-0.2l-4.4-1.2l-8.7,1l-3.2-2.2l-2,0.2l-4.4,4.9l-2,5.4l-6.8,7.3l-5.4,6.6
				l-4.9,6.5l-5.3,4.6l-2.5,3.4l-4.1,5.1l-6.5,7.3l-2.2,2.9l0.5,2.2l0.7,4.4l-0.9,2.9l0.2,1.5l3.2,5l4.1,2.6l6,5l4.9,4.4l4.9,3.6
				l7.2,5.7l1.2,2.2l1.4,5.3l1,2.4l3.1-1.2l3.6-1.3l6.6,1.4l-0.7,6.1l-0.4,0.9l2.9,3.6l5.3,4.3l7.3,6l7.3,8.4l8.2,6l4.9,3.6
				l10.2,8.7l4.4,8l3.7,3.6l3.2,6.2l4.4,1l4.4-0.8l6.1,10.2l6.3,7l2.9,3.1l6.8,1.7l5.3,0.4l2.9,0.4l1.7-0.3l1.7-0.9l1.3,0.2l0.4-2.9
				l1.7-4.3l2.6-5.6l3.7-11.1l5.3-10l1.7-9.2l1.7-6.5l5.6-7.7l1.2-7.7l10.2-12.1l1.5-4.6l1.9-8.5l2.4-6.3l1.5-6.8l0.9-7.9l2.7-7.3
				l4.4-4.6l1.4-0.8l1.5-0.8l-0.2-2.4l-0.5-3.4l-2.2-6l-3.6-14.2l-1.4-5.5l-3.6-6.7l-2.8-5.5l-3.6-6.5l-5.3-4.3l-2.4-3.8l-0.5-1.7
				l-1.2-2.9l-1.3-4.4l-0.9-4.1l-1.2-6.3l-1.4-6l-2.2-3.4l-1-5.5l-1.7-3.8l-2.9-6l-3.8-16l-3.2-9.6L165.3,261.5L165.3,261.5z"/>
			<path class="st0" d="M464.2,311.2l-2.2,1.5l-1.7,2v3.4l-0.3,8.7v3.4l-0.5,4.6l0,4.3l-1.4,3.6l-1.2,3.2l-0.7,1.2l-0.5,1.9
				l-1.5,1.7l-0.9,1l-0.9-0.7l0.5,2.4l0.2,2l3.2,1.4l3.4,3.2l2.7,2.6l1.9,4.5l-0.7,3.4l-0.7,1l3.8,1l1.5,4.4l2.4,6l0.9,2.4l1.3,3.1
				l1,4.1l-0.2,5.1l3.6,0.2l2.2,0.2l4.4,0.5l1-1.9l3.2-0.8l3.2-0.7l2.6-0.7l2.4-0.8l1.3-1.5l1.7-2l3.1-3.2l2-2.4l1.9-1.9l0.9-2.9
				l-3.1-1.7l-4.1-3.2v-4.3l0.3-2.9l1-4.3l-0.2-3.4l-1.9-6.3l-3-4.8l-4.3-2.6L486,343l-1.9-0.7l-2.4-3.1l-0.9-5l0.9-4.9l-1.7-3.8
				l-0.9-0.2l-1.4-2.2l-5.6-3.1l-3.4-2.4l-2.4-4.4L464.2,311.2L464.2,311.2z"/>
			<path class="st0" d="M480,325.6l1.7,3.8l-0.9,4.9l0.9,5l2.4,3.1l1.9,0.7l6.1,3.2l4.3,2.6l3,4.8l1.9,6.3l0.2,3.4l-1,4.3l-0.3,2.9
				v4.3l4.1,3.2l3.1,1.7l4.1-6l5.1-2.2l0.9-0.5l4.1-4.4l0.2-0.7l1.4-1.7l1.5-1.4l2.2-4.7l1.5-3.4l0.5-3.4v-6.6l-1.4-4.1L527,336
				l0.5-2.4l3.4-4.3l1-3.7l-6-0.2l-4.1-1.2l-2.9-0.5l-0.9-3.9l-3.1-3.8l-7,3.2l-4.1,2l-1.9,0.8l-3.2,1l-5.5,1.7l-4.4,1.3l-6.6-1.2
				L480,325.6L480,325.6z"/>
			<path class="st0" d="M423.9,363.2l1.5,1.4l0.4,2.7l-0.4,2.2l0.4,1.9v1.2l-0.4,2.2l-0.5,4.1l0.2,2.4l1,2.2l1.9,2.2l3.8,1.2l2,0.5
				l3.4-0.4l3.8,1.7l6,5.8l6,2.1l6.1,1.6l7.7,0.9l7.1-1.5l0.2-5.1l-1-4.1l-1.3-3.1l-0.9-2.4l-2.4-6l-1.5-4.4l-3.8-1l0.7-1l0.7-3.4
				l-1.9-4.5l-2.7-2.6l-3.4-3.2l-3.2-1.4l-0.2-2l-0.5-2.4l-2.7-0.2l-7,1.7l-3.9,1.7l-4.4,3.9l-4.3,3.1l-4.1,2.2L423.9,363.2
				L423.9,363.2z"/>
			<path class="st0" d="M245.8,358l2,1l0.2,2.4l0.2,2.4l0.5,1.7L248,370l-2.2,2.7l-2.2,2.6l-1.5,2.2l-2.2,4.1l-1.5,4.4l-2.4,3.4
				l-4.6,3.4l-4.1,2.2l-4.2,0.9l-2.9-1.9l-2.2,1.2l-1.2,0.2l-2.6,0.9l-3.2-0.4l-1.4,0.8l-4.4,4.6l-2.7,7.3l-0.9,7.9L200,423
				l-2.4,6.3l-1.9,8.5l-1.5,4.6l-10.2,12.1l7.3,1.1l7.3-0.3l10.5,1.4l7.8,0.9l11.9,3.5l8.9,5.8l7,6.2l7.3,9.1l5.3,8l1.7,6l1.5,5.6
				l6,3.8l6.6-2l8-5.3l9.5-9l0.9-2.7l9.4-5.8l2.9-3.1l6.8-4.4l5.6-6.8l6-8.2l4.1-7.5l2-2.9l7-5.6l7.7-7.1l7.3-6l8.2-6.1l2.2-1.5
				l3.1-1.5l3.2-3.2l7.1-4.4l5.1-7.3l3.7-3.7l4.9-1.4l4.2-1.9l1.4-2.4l0.5-1.2l1-3.8l2.7-2.7l3.7-3.2l1.2-2l1.4-1.2l2.6-3.1l2.4-1.7
				l3.7-4.4l2.2-2.9l2.5-1.2l2.7-3.6l1.9-0.9l-1.4-1.8l-3.8,0.6l-4.8-0.2l-2.4-0.4l-5.1,1.4l-3.4,3.4l-2.6,1.3l-3.6,0.9l-3.9,2.9
				l-2.9,2.6l-2.9,3.7l-2.9,0.5l-6.5-0.7l-3.8,1l-2.2,0.5l-8.5-3.1L356,373l-5.1-2.6l-8.7-3.4l-8.3-1.2l-9-1.1l-11.9-0.9l-12.8-1.2
				l-8-0.9l-5.6-1.7l-6-3.1l-2.7-0.9l-8.3-1.1l-9.5-0.7l-8.3,2.2L245.8,358L245.8,358z"/>
			<path class="st0" d="M423.9,363.2l-1.8,0.8l-1.9,0.9l-2.7,3.6l-2.5,1.2l-2.2,2.9l-3.7,4.4l-2.4,1.7l-2.6,3.1l-1.4,1.2l-1.2,2
				l-3.7,3.2l-2.7,2.7l-1,3.8l-0.5,1.2l-1.4,2.4l2.4,6.7l1.9,2.6l1.2-0.7l5.3,1.2l1,1.9l2.5,2.9l5.6,3.8l5.6,2.1l6.3,1.1l4.2,0.5
				l4.3,3.4l5.8,2.9l4.6,1.9l2.9,4.5l2.1,2l7.6,1.6l5.5,3.6l3.4-3.9l2.4-4.4l0.4-0.5l1.5-0.7l1-1.9l0.7-1.7l1.7-0.3l3.6-0.3l1-1
				l4.2-3.7l3-4.4l1.2-3.2V410l-0.2-4.1l0.1-5v-2v-2.2l-1,1.9l-4.4-0.5l-2.2-0.2l-3.6-0.2l-7.1,1.5l-7.7-0.9l-6.1-1.6l-6-2.1l-6-5.8
				l-3.8-1.7l-3.4,0.4l-2-0.5l-3.8-1.2l-1.9-2.2l-1-2.2l-0.2-2.4l0.5-4.1l0.4-2.2v-1.2l-0.4-1.9l0.4-2.2l-0.4-2.7L423.9,363.2
				L423.9,363.2z"/>
			<path class="st0" d="M595.1,373.5l-2.7,1.3l0.1,2.1l1.5,1.9l2.7,0.9h1.5l3.9,1.6l1.2,1.5l1.4,1.9l3.6,0.5l2.7-0.3l1.4-0.1
				l1.3-0.2l2.9,1.2l1.9,1.9l2.6,0.9l1.5-0.7l5.1-1l3.9-0.8l2.7,0.2l3.8,1.4l4.4,1l3.1,1.4l4.7-0.2l-1.2-0.7l-3.9-2.7l-4.6-2.4
				l-3.2-2.1l-3.4-1.9l-6.8-5.8l-6-4.3l-2.7-1l-5.1-3.6l-3.2-0.7l-1.7,1.2h-2.4l-1,0.8l-1,1.5l-1.9,1.7l2.5,2.7L595.1,373.5
				L595.1,373.5z"/>
			<path class="st0" d="M516.5,371.6l-5.1,2.2l-4.1,6l-0.9,2.9l-1.9,1.9l-2,2.4l-3.1,3.2l-1.7,2l0.2,2.2l1.2,1.9l0.2,3.8l-0.7,6v3.6
				l0.5,4.1l1.9,2.6l1.3,1.4l2.8,3l6.5,1.9l3.1,1.4l2.7,1l1.5,1l5.9-1.1l2.5-0.5l5.6-1l3.1-1.7l2.2-2.7l1.7-3.9l-2.4-2.3l2-1.9
				l-0.9-4.6l-1.5-5.8l-1.9-4.1L535,393l0.5-3.6l1.7-2.9l1-3.6l1.2-4.2l1.2-0.9l-2.6,0.1l-2.2,1.7l-2.1-0.2l-3.2-1.4l-2.7-0.5
				l-3.1-0.4l-4.9,0l-3.2-2.9L516.5,371.6L516.5,371.6z"/>
			<path class="st0" d="M588.3,376.7l-0.9,5.3v1l1,3.4l1.2,3.1l0.7,2.2l1.4,1.5l2.2,1.9l2.7,1.4l1.4,1.9l1.4-0.3l0.4-0.5l1.2-1.4
				l2-1.5l1.5-0.5l3.8-1.4l3.8-1.7l0.3-1.7l-0.4-2l0.5-2.7l-1.4,0.1l-2.7,0.3l-3.6-0.5l-1.4-1.9l-1.2-1.5l-3.9-1.6h-1.5l-2.7-0.9
				l-1.5-1.9l-0.1-2.1L588.3,376.7L588.3,376.7z"/>
			<path class="st0" d="M556.6,377.9v1.5l-0.4,2.4v3.1l3.1,3.8l2.6,2.1l2,2.9l2.2,4.8l2,4.3l1.7,4.5l1.5,1.5l0.5,1.8l2.4-2.6l1-1.4
				l2.8-1.3l1.9-0.7l4.1-0.8l2.4-0.5l2.9,0.5l2.7,1.7l4.1,0.2h1.9l1.2-2.5l1.5-2.4l0.9-1.4l-2.2-1.2l-1.4,0.3l-1.4-1.9l-2.7-1.4
				l-2.2-1.9l-1.4-1.5l-0.7-2.2l-1.2-3.1l-1-3.4v-1l0.9-5.3l-1.2-0.2l-2.6-0.4l-2.5-0.4l-3.4-0.4l-3.2-0.2h-1.5l-3.1,0.2l-2,0.2
				l-3.4,1.7l-3.6,0.7L556.6,377.9L556.6,377.9z"/>
			<path class="st0" d="M540.7,377.7l-1.2,0.9l-1.2,4.2l-1,3.6l-1.7,2.9L535,393l0.4,3.6l1.9,4.1l1.5,5.8l0.9,4.6l-2,1.9l2.4,2.3
				l-1.7,3.9l-2.2,2.7l-3.1,1.7l-5.6,1l2.8,2l0.7,0.2l2.2,2.2l0.7,2.7l3.7,2.9l1.5,2.4l3.1,1.4l4.2,1l4.8,1.2l5.6-0.2l3.1-0.1
				l4.9-0.2l-1.2-1.2l1-2.5l1-2.6l0.5-3.4l1.7-3.9l0.4-2.6l0.7-3.2l1-3.2l1-2.7l1.2-2.6l0.2-1l-0.2-0.8l-0.5-1.8l-1.5-1.5l-1.7-4.5
				l-2-4.3l-2.2-4.8l-2-2.9l-2.6-2.1l-3.1-3.8v-3.1l0.4-2.4v-1.5h-2.7l-0.7,0.5l-3.6,2.5l-4.4-0.2l-2.9-3.1L540.7,377.7L540.7,377.7
				z"/>
			<path class="st0" d="M650.4,389.7l-4.7,0.2l-3.1-1.4l-4.4-1l-3.8-1.4l-2.7-0.2l-3.9,0.8l-5.1,1l-1.5,0.7l-2.6-0.9l-1.9-1.9
				l-2.9-1.2l-1.3,0.2l-0.5,2.7l0.4,2l-0.3,1.7l-0.2,1l1.9,0.2l2.4,0.5l0.4,2.7l-3.2,3.2l-1.2,0.2l-1.2,1.9l1.5,3.1l0.9,2.9l1.2,1.4
				l0.1,1.7l3.1,3.3l2.1,2.2l4.1,4l1.9,1.2l7.5,2.3l1,0.9l0.8,1.2l2.7,1.4l5.4,2.2l5.3,2.1l4.1,1.9l5.1,0l5.8,0.9l3.1,0.4l3.1,1.9
				l2.7-1.4l1-2.9l1.7-3.9l2.4-4.4l1-8l-0.2-3.2l-1-3.8l-1.5-3.4l-2.1-2.1l-1.2-2.5l-4.9-1.2l-3.4-1.9l-4.6-1.9l-4.2-2.7
				L650.4,389.7L650.4,389.7z"/>
			<path class="st0" d="M611.9,391.1l-3.8,1.7l-3.8,1.4l-1.5,0.5l-2,1.5l-1.2,1.4l-0.4,0.5l2.2,1.2l-0.9,1.4l-1.5,2.4l2.2,1.3
				l3.8,2.4l4.4,2.1l3.6,1.9l4.4,2.4l-3.1-3.3l-0.1-1.7l-1.2-1.4l-0.9-2.9l-1.5-3.1l1.2-1.9l1.2-0.2l3.2-3.2l-0.4-2.7l-2.4-0.5
				l-1.9-0.2L611.9,391.1L611.9,391.1z"/>
			<path class="st0" d="M392.1,398.2l-4.2,1.9l-4.9,1.4l-3.7,3.7l-5.1,7.3l5.1,1l3.1-0.5l2.7,0.4l2.7,0.4l1.2,2.1l1.4,1.3l2.2,1
				l1.7,4.1l2.9,6l6.6,4.3l5.3,1.2l5.3,1.6l4.4,0.2l5.4,2.1l6,4.8l2.6-1l3-1.2h3.4l2.9,0.4l1.2,2.6l1.9,1.5l4.1,1.9l5.1-0.1l2.4-0.2
				l2-3.4l2.2-2.7l-5.5-3.6l-7.6-1.6l-2.1-2l-2.9-4.5l-4.6-1.9l-5.8-2.9l-4.3-3.4l-4.2-0.5l-6.3-1.1l-5.6-2.1l-5.6-3.8l-2.5-2.9
				l-1-1.9l-5.3-1.2l-1.2,0.7l-1.9-2.6L392.1,398.2L392.1,398.2z"/>
			<path class="st0" d="M599.2,403l-1.2,2.5h-1.9l-4.1-0.2l-2.7-1.7l-2.9-0.5l-2.4,0.5l-4.1,0.8l-1.9,0.7l-2.8,1.3l-1,1.4l-2.4,2.6
				l0.2,0.8l1,1.9l1,1.9l1.9,1.4l4.9,1.7h1.5l1.4,0.9l1.7,2.6l2.5,3.8l2.9-2.7l1.2-1.5l1.4-3.6l1.2-3.2l1.2-1.5l1.4-2.7l1.4-3.1
				L599.2,403L599.2,403z"/>
			<path class="st0" d="M599.2,403l-0.5,3.9l-1.4,3.1l2.9,5l3.2,5.5l2,2.2l5.8,0.9l2-0.6l1.2,0.5l4.6,1.9l4.1,0l3.4,0.7l3.9,0.5
				l3.9,0l3.2-0.3l-2.7-1.4l-0.8-1.2l-1-0.9l-7.5-2.3l-1.9-1.2l-4.1-4l-2.1-2.2l-4.4-2.4l-3.6-1.9l-4.4-2.1l-3.8-2.4L599.2,403
				L599.2,403z"/>
			<path class="st0" d="M597.3,409.9l-1.4,2.7l-1.2,1.5l-1.2,3.2l-1.4,3.6l-1.2,1.5l-2.9,2.7l-1.9,1.9l-2,3.2l-0.7,1.2l-0.2,2.4v1.9
				v4.6l0.7,0.9l0.4,1.7l-0.4,5.3l3.2-2.5l3.4-2.2l3.8-4.8l2.2-4.6l3-3.7l2.6-1l6.5-1.5l6.6,0.7l5.9,1.6l4.1-0.3l4.1-0.7l2.5-1.5
				l2.4-1.2l-3.9,0l-3.9-0.5l-3.4-0.7l-4.1,0l-4.6-1.9l-1.2-0.5l-2,0.6l-5.8-0.9l-2-2.2l-3.2-5.5L597.3,409.9L597.3,409.9z"/>
			<path class="st0" d="M572.1,411.2l-0.2,1l-1.2,2.6l-1,2.7l-1,3.2l-0.7,3.2l-0.4,2.6l-1.7,3.9l-0.5,3.4l-1,2.6l-1,2.5l1.2,1.2
				l3.4,1.4l3.6,0.4l3.9-0.1l2.2,0.9l3.1,2.6l1.5,1.9l1.7,1.2l0.4-5.3l-0.4-1.7l-0.7-0.9v-4.6v-1.9l0.2-2.4l0.7-1.2l2-3.2l1.9-1.9
				l-2.5-3.8l-1.7-2.6l-1.4-0.9H581l-4.9-1.7l-1.9-1.4l-1-1.9L572.1,411.2z"/>
			<path class="st0" d="M374.1,412.4l-7.1,4.4l-3.2,3.2l-3.1,1.5l-2.2,1.5l-8.2,6.1l3.9,5.1l1.4,2.9l1,3.2l2.4-0.2l3.2,0.2l3.8,0.4
				l3.8-0.1l2.9,1.6l1.3,0.9l4.8,1.5l1.7,1.2l5.3,1l2,1.6l2.2,1.4l3.2,0.7l2,0.4l0.9,1l5.8,2.2l5.4,0.5l2.4,1.4l1.5,2l1.2,5.6l2,1
				l2.1,0.5l2.5-0.7l2.5-1.5l4.1,2.4l1.9,0.7l1.2,2.4l1,3.6l2.6,2.2l3.2,2.7l-0.1,0.6l1.8,2.6l1.4,1.4l2.2,1.4l1.4,1.7l-0.2,1.5
				l-0.7,3.1l0.9,2.9l3.7,2.9l1.2,0.8l1.3-2.8l0.9-3.4l0.5-3.2l1.5-2.6l1.2-3.6l1.9-1.7l-0.7-3.2v-5l1.7-15.8l1.2-8.5l-2.4,0.2
				l-5.1,0.1l-4.1-1.9l-1.9-1.5l-1.2-2.6l-2.9-0.4h-3.4l-3,1.2l-2.6,1l-6-4.8l-5.4-2.1l-4.4-0.2l-5.3-1.6l-5.3-1.2l-6.6-4.3l-2.9-6
				l-1.7-4.1l-2.2-1l-1.4-1.3l-1.2-2.1l-2.7-0.4l-2.7-0.4l-3.1,0.5L374.1,412.4L374.1,412.4z"/>
			<path class="st0" d="M502.3,417.6l-0.7,2.5l-2,1.9l-1,1.9l-1.2,2.4l-0.5,1.5l-0.2,1.9l0.3,1.5l0.5,3.4l0.3,3l0.3,1.8l-0.9,1.9
				l-1.8,1.9l-2.5,0.9l-0.6,0.3l-2.3,0.7l-1.2-0.1l-2,0.5l-1.3,0.7l0.2,0.5l0.3,0.8l0.5,0.5l-0.2,0.6l-1.3,0.1l-0.7-0.3l-1.9-0.3
				l-1.4-0.5l-1.8,0.1l-1-0.2l-1.3-0.2h-1l-0.6,0.4h-0.9l-0.8-0.5l-0.1-0.2l-0.9-0.3l-0.8,0.1l-2-0.6l-0.2,2l0.2,2.9v6l0.5,3.4
				l1.7-1.9l0.5,0.9l2.2,0.5l1.2,0.3l1.4,0l1.7,0.5l1.3,1l1.3-0.4l1.5-0.9l3.1-1.2l2.9-0.6l3.7,1.2l2.2,1.4l3.2,0.9l2.4,0.4l2.4-1.7
				l1.7-3.4l1.2-1l3.1-1.2l3.2-0.7l4.4-1.8l2.4-3.4l3.8-3.7l1-2.2l0.5-1.9l-1.7-4.6l-2.2-1.9l-1.2-3.4l-0.8-1.9V427l0.3-1l-1.5-1
				l-2.7-1l-3.1-1.4l-6.5-1.9L502.3,417.6L502.3,417.6z"/>
			<path class="st0" d="M527.3,424.5l-2.5,0.5l-5.9,1.1l-0.3,1v2.4l0.8,1.9l1.2,3.4l2.2,1.9l1.7,4.6l-0.5,1.9l1.2,3.4v4.6v2.7
				l-0.4,6.5l-1.9,2.4l4.8,3.1l2.2,1.7l1.3,1l1,0.2l0.2,0l1-0.5l1.5-2l2.1,1l3.6,0.2l1.3-5.1l-3.2-8.5l-2.4-5.8v-6l1.5-3.9l1-1
				l-1.5-2.4l-3.7-2.9L533,429l-2.2-2.2l-0.7-0.2L527.3,424.5L527.3,424.5z"/>
			<path class="st0" d="M634.4,426.5l-2.4,1.2l-2.5,1.5l-4.1,0.7l-4.1,0.3l-5.9-1.6l-6.6-0.7l-6.5,1.5l-2.6,1l-3,3.7l-2.2,4.6
				l-3.8,4.8l-3.4,2.2l-3.2,2.5l1.2,1.9l0.9,1.9l2.5,3.1l4.1,3.6l5.1,4.1l3.2,4.4l0.2,1.9l1.2,5.1l1.2,6.6l0.5,8.7l1.5,4.9l1.7,6.2
				l2,5.3l4.3,3.9l5.9-2.4l1.7-0.1l2.2-0.9l3.4-1l7.3-1.3l3.9-2.9l8.4-4.4l8.5-4.7l1.2-0.2l7.8-5.8l0.7,0.3l0.8-1.2l2.2-1.5l3.7-4.9
				l1.5-3v-5.6l-0.7-3.6l-0.7-3.8l-3.8-6l-2.9-3.8l-1.5-2.7l1-4.4l1.3-2.2l3.4-4.7l2.9-5l-2.7,1.4l-3.1-1.9l-3.1-0.4l-5.8-0.9
				l-5.1,0l-4.1-1.9l-5.3-2.1l-5.4-2.2L634.4,426.5L634.4,426.5z"/>
			<path class="st0" d="M471.9,426.7l-1.7,0.3l-0.7,1.7l-1,1.9l-1.5,0.7l-0.4,0.5l-2.4,4.4l-3.4,3.9l-2.2,2.7l-2,3.4l-1.2,8.5
				l-1.7,15.8v5l0.7,3.2l1.7-0.7l2.7,1.7l4.3,2.6l2.2-0.8l-1.4-2.1l2.4-2l2.4-2.9l2.6-4.6l1.4-3.6l-0.4-3.8l-1.7-2.4l-0.5-3.4v-6
				l-0.2-2.9l0.2-2l0.4-4.8l1.2-4.1l0.5-3.2l0.5-4.1L471.9,426.7L471.9,426.7z"/>
			<path class="st0" d="M350.3,429.2l-7.3,6l-7.7,7.1l-7,5.6l-2,2.9l-4.1,7.5l-6,8.2l-5.6,6.8l-6.8,4.4l-2.9,3.1l-9.4,5.8l-0.9,2.7
				l-9.5,9l-8,5.3l-6.6,2l-6-3.8l-1.5-5.6l-1.7-6l-5.3-8l-7.3-9.1l-7-6.2l-8.9-5.8l-11.9-3.5l-7.8-0.9l-10.5-1.4l-7.3,0.3l-7.3-1.1
				l-1.2,7.7l-5.6,7.7l-1.7,6.5l-1.7,9.2l-5.3,10l-3.7,11.1l-2.6,5.6l-1.7,4.3l-0.4,2.9l2.2,1.7l4.9,0.5l7,1.7l3.9,2.8l3.1,2.9
				l4.2,4.3l2.8,3.9l3.6,4.3l3.8,2.2l2.9,3.4l5.3,4.3l0.8,1.2v2.2l2.2,3.8l2.2,3.2l5.6,3.4l4.6,0.7l6.8,0.9l6.8,0.7l3.6,1.2l4.2,1.7
				l1.4,1.7l3.2,3.1l2.5,2.1l3.1,3.1l2.9,4.1l2.7,2.4l4.4,3.2l4.4,1l1.7,1.7l1.2,1.4l0.8,0.8l1.5-0.3l5.3-2.7l11.4-5.3l4.9-2.7
				l6.8-3.4l6.3-5.9l8.7-5.4l6.6-7l5.1-5.8l2.4-2.9l1-2.4l0.4-1.2l2.2-2.6l1.7-3.9l3.6-1.2l4.9,0.4l-7.1-7l-1.5-8l0.7-8.2l1.5-7.8
				l1-2.9l8.3-8.7l3.6-4.9l4.8-3.5l3.4-4.9l6.1-4.8l3.6-2.7l-0.3-2.9l-0.4-3.4l-1.7-3.4l-2.7-3.8l-2.9-3.6l-3.9-2.2l-1-2.9l0.3-1.7
				l1.7-2l1.5-1.4l0.7-0.5l0.2-4.2l-0.7-3.8l-0.5-3.1l-1-3.2l-1.4-2.9L350.3,429.2L350.3,429.2z"/>
			<path class="st0" d="M564.7,440.2l-4.9,0.2l-3.1,0.1l-5.6,0.2l-4.8-1.2l-4.2-1L539,437l-1,1l-1.5,3.9v6l2.4,5.8l3.2,8.5l-1.3,5.1
				v5.6l2.9,5.6l1.4,4.8l0.2,4.3l5.8,4.6l9,5.8l6.1,3.8l6.5,3.6l3.9,2.6l5.6,5.8l1.5,1l5.3,2.1l4.6-0.3l1.5-0.9l0.8-0.7l6-1.3
				l6.5-1.8l5.5-2l-4.3-3.9l-2-5.3l-1.7-6.2l-1.5-4.9l-0.5-8.7l-1.2-6.6l-1.2-5.1l-0.2-1.9l-3.2-4.4l-5.1-4.1l-4.1-3.6l-2.5-3.1
				l-0.9-1.9l-1.2-1.9l-1.7-1.2l-1.5-1.9l-3.1-2.6l-2.2-0.9l-3.9,0.1l-3.6-0.4L564.7,440.2L564.7,440.2z"/>
			<path class="st0" d="M356.6,440.5l0.5,3.1l0.7,3.8l-0.2,4.2l-0.7,0.5l-1.5,1.4l-1.7,2l-0.3,1.7l1,2.9l3.9,2.2l2.9,3.6l2.7,3.8
				l1.7,3.4l0.4,3.4l0.3,2.9l1.9-1.4l3.9,3.2l1.7,0.2l4.2,3.8l1.9,1l1.7,2l1.2,3.6l0.2,4.9l0.2,3.9l0.2,3.4l1,2.2l2.7,3.6l3.4,6
				l3.2,6l2.6,5.8l1.9,4.1l1.7,2.2l5,3.3l1-1.5l2.7-3.2l-1-5.3l0.5-6.1l1.7-4.4l4.9-3.4l1.9-5.3l1-1.9l4.3-3.4l0.5-2.5l4.4-2.9
				l2.7-6.3l2-4.6l1.9-2.4l0.8-3.1l1.3-3.3l0.1-0.6l-3.2-2.7l-2.6-2.2l-1-3.6l-1.2-2.4l-1.9-0.7l-4.1-2.4l-2.5,1.5l-2.5,0.7
				l-2.1-0.5l-2-1l-1.2-5.6l-1.5-2l-2.4-1.4l-5.4-0.5l-5.8-2.2l-0.9-1l-2-0.4l-3.2-0.7l-2.2-1.4l-2-1.6l-5.3-1l-1.7-1.2l-4.8-1.5
				l-1.3-0.9l-2.9-1.6l-3.8,0.1l-3.8-0.4l-3.2-0.2L356.6,440.5L356.6,440.5z"/>
			<path class="st0" d="M524,443.1l-1,2.2l-3.8,3.7l-2.4,3.4l-4.4,1.8l-3.2,0.7l-3.1,1.2l-1.2,1l-1.7,3.4l-2.4,1.7l-2.4-0.4
				l-3.2-0.9l-2.2-1.4l-3.7-1.2l-2.9,0.6l-3.1,1.2l-1.5,0.9l-1.3,0.4l1.4,1.1l1,6.1l1.7,5.1l1.4,4.4l2.4,5.8l3.4,4.8l3.9,7l4.8,2.4
				l5.1,0l1.2-0.4l-2.4-5.1l-0.3-3.2l-0.7-5l0.7-6l2.4-4.8l3.2-1.9l4.4-1.7l4.7-2.5l4.1-5.3l1.9-2.4l0.4-6.5v-2.7v-4.6L524,443.1
				L524,443.1z"/>
			<path class="st0" d="M470.6,460.2l1.7,2.4l0.4,3.8l-1.4,3.6l-2.6,4.6l-2.4,2.9l-2.4,2l1.4,2.1l0.5,3.4l0.7,3.1l-1.7,1.2l2.2,3.2
				l2.7,2.4l5,1.9l6.5,1.9l6.8,0.9l6.6,4.1l6.1,1.4l4.1,0.9l4.6-0.3v-1.2l-0.2-0.9l-0.9-1.5l-0.7-1.5l-0.9-2.4l-1.2,0.4l-5.1,0
				l-4.8-2.4l-3.9-7l-3.4-4.8l-2.4-5.8l-1.4-4.4l-1.7-5.1l-1-6.1l-1.4-1.1l-1.3-1l-1.7-0.5l-1.4,0l-1.2-0.3l-2.2-0.5l-0.5-0.9
				L470.6,460.2L470.6,460.2z"/>
			<path class="st0" d="M532.3,468.7l0,7.3l-1.1,4.5l-3,6.2l-0.9,2.5l-1.5,2.8l-0.5,1.3l-1.9,2.9l-2.9,1.9l-1.1,2.3l-0.6,3.3
				l-1.7,2.3l-2.1,3.3l-1.2,1.4l-1.3,0.9v0l-0.7,2.2l0.9,2.6l1,3.2l2.9,4.3l2.7,7.2l1.9,6.8l0.2,6.3l0.4,5.3l-1.4,4.8l3.2,6l2,8.5
				l-0.9,10.2l-1.4,7.6l2.6,3.6l11.1,8.2l8.7,8.1l7,3.4l7.8,4.8l6.3,3.8l12.6,6.3l2.4,3.8l1.5,9.2l1.9,7.3l3.1,9l2,6.3l1.4,2.6
				l0.2,2.2l-2.9,0.7l2.4,0.5l6.5,1.1l3.8,1l3.7,2.4l2.7,1.9l4.4,1.9l1.9-1.3l-0.9-2.9l-0.5-7.1l-1.5-7.9l-1.5-5.5l-2.6-8.7l-2-8
				l-0.9-8.4l1.4-5.1l0.3-4.8l-5.1-4.8l-3.2-5.1l-2.6-7l-0.2-6.7l-1.5-5.1l2.9,1.9l-2.2-8.9l0.2-9.2v-4.1l-1.7-7l-1.4-7.7l-0.4-4.5
				l0.3-10.2l-0.9-7l-0.2-1.7l-0.4-3.1l0.9-3.9l2.9-4.4l-4.6,0.3l-5.3-2.1l-1.5-1l-5.6-5.8l-3.9-2.6l-6.5-3.6l-6.1-3.8l-9-5.8
				l-5.8-4.6l-0.2-4.3l-1.4-4.8l-2.9-5.6v-5.6l-3.6-0.2l-2.1-1l-1.5,2l-1,0.5L532.3,468.7L532.3,468.7z"/>
			<path class="st0" d="M431.5,486.5l1.2,2.7l0.3,5.5l-2,4.7l-1.9,5.6l-1.5,7.6l0.5,4.4l2.4,0.4l3.2,0.5l3.4,2.3h3.9l3.8,0.9
				l1.7-7.2v-2.2l-0.9-0.9l0.9-5.6l0.9-4.1l-0.2-2l0-3.2l-1.2-0.8l-3.7-2.9l-0.9-2.9l0.7-3.1l0.2-1.5l-1.4-1.7l-2.2-1.4l-1.4-1.4
				l-1.8-2.6l-1.3,3.3l-0.8,3.1L431.5,486.5z"/>
			<path class="st0" d="M366.3,479.4l-3.6,2.7l-6.1,4.8l-3.4,4.9l-4.8,3.5l-3.6,4.9l-8.3,8.7l-1,2.9l-1.5,7.8l-0.7,8.2l1.5,8l7.1,7
				l5.6,3.6l3.2,5.8l5.1,6.3l4.6,4l3.8,2.1l7.1,0l4.3-0.2l3.4,0.4l1.5-2.2l1-0.4l1.9-0.8l2-1l3.4-0.8l2.9-0.7l2-1.2l-0.4-2.4
				l1.7-1.9l2.2-2.7l1.9-2.2l1.4-2.5l1.2-3.6l1.7-3.2l1.2-1.8l-5-3.3l-1.7-2.2l-1.9-4.1l-2.6-5.8l-3.2-6l-3.4-6l-2.7-3.6l-1-2.2
				l-0.2-3.4l-0.2-3.9l-0.2-4.9l-1.2-3.6l-1.7-2l-1.9-1l-4.2-3.8l-1.7-0.2l-3.9-3.2L366.3,479.4L366.3,479.4z"/>
			<path class="st0" d="M465.3,481.5l-2.2,0.8l-4.3-2.6l-2.7-1.7l-1.7,0.7l-1.9,1.7l-1.2,3.6l-1.5,2.6l-0.5,3.2l-0.9,3.4l-1.3,2.8
				l0,3.2l0.2,2l-0.9,4.1l-0.9,5.6l0.9,0.9l3.4-1.5l3.9-1.4l3.1-0.3l3.4-1.9l3.1-1l1-0.9l1-2.2l-0.2-2.9l-1.4-3.4l-0.4-3.6l0.2-3.1
				l1.2-0.5l1.7-1.2l-0.7-3.1L465.3,481.5L465.3,481.5z"/>
			<path class="st0" d="M444.8,521.2l-3.8-0.9h-3.9l-3.4-2.3l-3.2-0.5l-2.4-0.4l-0.5-4.4l1.5-7.6l1.9-5.6l2-4.7l-0.3-5.5l-1.2-2.7
				l-2,4.6l-2.7,6.3l-4.4,2.9l-0.5,2.5l-4.3,3.4l-1,1.9l-1.9,5.3l-4.9,3.4l-1.7,4.4l-0.5,6.1l1,5.3l-2.7,3.2l0.5,2l5.1,2.6l3.9,4.6
				l2.4,2.2l2.5,3.1l2.2,2.4l3.7-0.3l6.6-0.5l4.2-1l2.2-0.5l1.7-1l1.7-2.2l2.2-2l1.9-1.5l0.7-0.4l-1.5-1.3l-1.4-3.8v-4.2l-0.5-4.4
				l0.1-4.1L444.8,521.2L444.8,521.2z"/>
			<path class="st0" d="M464.8,489.2l-1.2,0.5l-0.2,3.1l0.4,3.6l1.4,3.4l0.2,2.9l3.1,2.7l2.4,3.7l3.2,5.8l0.9,6.8l-0.1,6.7l2.4-1
				l2.7-1.5l3.6-1.4l4.8-3.4l3.6-1.9l3-2.4l2-1.9l2.6-1.2l3.1-1.5l1.9-1.2l1.7-1.9l1.7-2.5l1.7-1.2l-4.6,0.3l-4.1-0.9l-6.1-1.4
				l-6.6-4.1l-6.8-0.9l-6.5-1.9l-5-1.9l-2.7-2.4L464.8,489.2L464.8,489.2z"/>
			<path class="st0" d="M446.4,511.8v2.2l-1.7,7.2l-0.5,4.3l-0.1,4.1l0.5,4.4v4.2l1.4,3.8l0.7-0.5l2.4-1.5l3.2-0.7l5.1-0.7l3.6-1.5
				l1.5-1.5l1.2-0.3l2.5-0.5l3.6-0.3l4.9,0.2l-0.1-1.7l0.2-2.2l0-2.2l0.1-6.7L474,515l-3.2-5.8l-2.4-3.7l-3.1-2.7l-1,2.2l-1,0.9
				l-3.1,1l-3.4,1.9l-3.1,0.3l-3.9,1.4L446.4,511.8L446.4,511.8z"/>
			<path class="st0" d="M512.3,511.5l-0.9-1.8l-1.9-2.7l-0.2-1.4l-1.7,1.2l-1.7,2.5l-1.7,1.9l-1.9,1.2l-3.1,1.5l-2.6,1.2l-2,1.9
				l-3,2.4l-3.6,1.9l-4.8,3.4l-3.6,1.4l-2.7,1.5l-2.4,1l0,2.2l-0.2,2.2l0.1,1.7l0.7,2.4l-0.5,2.2l0.2,2.1l2-0.5l5.5-0.7l4.3,1.2
				l3.6,3.4l0.3,1.3l2.1-0.7l4.7-1.2l4.1-2.2l-0.5-3.6l0.7-5.8l1.9-4.1l3.1-5.3l3.1-3.9l1.5-2.9l0.4-2.7L512.3,511.5L512.3,511.5
				L512.3,511.5z"/>
			<path class="st0" d="M511.6,513.7l-0.4,2.7l-1.5,2.9l-3.1,3.9l-3.1,5.3l-1.9,4.1l-0.7,5.8l0.5,3.6l-4.1,2.2l-4.7,1.2l-2.1,0.7
				l0.2,0.7l-0.9,3.1l2.3,7.5l2.2,3.9l4.7,2.8l4.6-0.5l2,2.2l5.4,0l7.3,3.6l1.4,3.4l2.3,12.3l1,1.5l1.4-7.6l0.9-10.2l-2-8.5l-3.2-6
				l1.4-4.8l-0.4-5.3l-0.2-6.3l-1.9-6.8l-2.7-7.2l-2.9-4.3l-1-3.2L511.6,513.7L511.6,513.7z"/>
			<path class="st0" d="M474.7,534.6l-4.9-0.2l-3.6,0.3l-2.5,0.5l-1.2,0.3l-1.5,1.5l-3.6,1.5l-5.1,0.7l-3.2,0.7l-2.4,1.5l-0.7,0.5
				l1.5,1.3l2.4,2.1l3.1,0.7l4.6,2.9l0.7,2.7l2,4.9l2.2,4.1l1.7,0l1,0.1l3.2-0.3l3.9,2.1l2,2.2l1.7,1l2,2.5l-1.4-3.8l2.2-2.9l1-3.6
				l-0.5-4.8l-2-4.3l-1.7-5.1l-0.7-2.9l-0.2-2.1l0.5-2.2L474.7,534.6L474.7,534.6z"/>
			<path class="st0" d="M404.8,537.4l-1.2,1.8l-1.7,3.2l-1.2,3.6l-1.4,2.5l-1.9,2.2l-2.2,2.7l-1.7,1.9l0.4,2.4l0.5,1.5l2,3.4
				l4.1,5.1l1.5,1.2l2.2,0.5l4.7-2.5l3.1-1.9l3.2-1.9l3.6,0.5l0.2,2.6l-5.1,3.9l-2.5,2.4l-1,3.2l-0.5,3.8l0.2,1l3-2.5l2.1-1.4
				l1.9-0.8l2.7-1.2l3.2-0.9l4.1-2.2l3.2-1.9l2.4-0.9l3-0.9l0.5-0.4l0.9-2.4v-2.6l0.9-3.4l0.3-1.9l0.5-2.4l0.9-2.2l-0.3-2.4
				l-2.2,0.5l-4.2,1l-6.6,0.5l-3.7,0.3l-2.2-2.4l-2.5-3.1l-2.4-2.2l-3.9-4.6l-5.1-2.6l-0.5-2L404.8,537.4L404.8,537.4z"/>
			<path class="st0" d="M475,541.2l0.7,2.9l1.7,5.1l2,4.3l0.5,4.8l-1,3.6l-2.2,2.9l1.4,3.8l-0.8,1.4l-1.5,1.5l-0.5,2.6v3.2l0.5,1.7
				l1.5,4.8l0.2,2.4v1.7l-0.2,1.7l2,1.5l5.1,2.7l1-0.1l7.1,2.2l1.9,0.7l6,2.6l8,4.6l5.8,3.1l6.3,4.5l3.6,2.9l5.3,3.4l7.5,3.8
				l8.2,4.8l12.1,7l5.6,4l6.5,5l4.6,4.1l4.1,5.3l3.9,5.1l2.7,3.9l2.5,3.1l1.7,2.2l2.9-0.7l-0.2-2.2l-1.4-2.6l-2-6.3l-3.1-9l-1.9-7.3
				l-1.5-9.2l-2.4-3.8l-12.6-6.3l-6.3-3.8l-7.8-4.8l-7-3.4l-8.7-8.1l-11.1-8.2l-2.6-3.6l-1-1.5l-2.3-12.3l-1.4-3.4l-7.3-3.6l-5.4,0
				l-2-2.2l-4.6,0.5l-4.7-2.8l-2.2-3.9l-2.3-7.5l0.9-3.1l-0.2-0.7l-0.3-1.3l-3.6-3.4l-4.3-1.2l-5.5,0.7L475,541.2L475,541.2z"/>
			<path class="st0" d="M342,542.9l-4.9-0.4l-3.6,1.2l-1.7,3.9l-2.2,2.6l-0.4,1.2l-1,2.4l-2.4,2.9l-5.1,5.8l-6.6,7l-8.7,5.4
				l-6.3,5.9l-6.8,3.4l-4.9,2.7l-11.4,5.3l-5.3,2.7l-1.5,0.3l6.5,6.2l4.4,3.6l5.5,2.4l7,4.1l6.5,4.8l3.4,3.1l8,5.1l4.6,3.4l7.7,5.1
				l8.9,3.6l8.3,1.6l7,0.9l6.1-0.1l5.1-0.9l5.8-1.5l8.3-3.4l7.8-2l1.2-0.7l3.2-1.4l1.2-0.9l0.9-0.2l-0.4-1l-0.2-2.2l-0.9-6.8
				l-0.7-4.5l-1.2-4.1l1-6l2-4.1l0.4-4.6l-0.4-1.7l-0.2-0.9l-1.5-4.8l-2.9-5.3l-4.1-3.2l-4.1-4.1l0.9-3.9l2.5-4.4l2.2-1.7l-3.4-0.4
				l-4.3,0.2l-7.1,0l-3.8-2.1l-4.6-4l-5.1-6.3l-3.2-5.8L342,542.9L342,542.9z"/>
			<path class="st0" d="M439.3,550.4l0.3,2.4l-0.9,2.2l-0.5,2.4l-0.3,1.9l-0.9,3.4v2.6l-0.9,2.4l-0.5,0.4l-2,1.9l0.2,2.2v0.9
				l0.5,2.4v1.3l0.5,1l-0.2,2.4h1.2l1-0.4l2.4-0.6l0.9-0.4l-0.5-4.4l2.5-3.1l2.9-0.3l2.2-0.7l4.4-1.7l3.1-1.9l2.7-1.5l3.9-1.4l3.1-2
				l0.7-1l-1-0.1l-1.7,0l-2.2-4.1l-2-4.9l-0.7-2.7l-4.6-2.9l-3.1-0.7l-2.4-2.1l-0.7,0.4l-1.9,1.5l-2.2,2l-1.7,2.2L439.3,550.4
				L439.3,550.4z"/>
			<path class="st0" d="M379.1,564.9l-2.2,1.7l-2.5,4.4l-0.9,3.9l4.1,4.1l4.1,3.2l2.9,5.3l1.5,4.8l0.2,0.9l4.9,0.2l2.9-0.3l2.2-0.5
				l1.9-0.5l1-1.7l2.5-2l1.5-2.4l0.5-2.1l1.2-2l4.3-1l0.9-0.2l-0.2-1l0.5-3.8l1-3.2l2.5-2.4l5.1-3.9l-0.2-2.6l-3.6-0.5l-3.2,1.9
				l-3.1,1.9l-4.7,2.5l-2.2-0.5l-1.5-1.2l-4.1-5.1l-2-3.4l-0.5-1.5l-2,1.2l-2.9,0.7l-3.4,0.8l-2,1l-1.9,0.8l-1,0.4L379.1,564.9z"/>
			<path class="st0" d="M465.2,560.9l-0.7,1l-3.1,2l-3.9,1.4l-2.7,1.5l-3.1,1.9l-4.4,1.7l-2.2,0.7l-2.9,0.3l-2.5,3.1l0.5,4.4
				l4.9-0.3l3.8,1.9l2,1.7l2.6,1l0.7,2.3l0.3,1.3l-1,0.2l4.4,2.9l1.9-0.5l3.6-0.6l3.6-1l3.9-1l4.7-0.5l1.9-0.2l-0.2-2.4l-1.5-4.8
				l-0.5-1.7V574l0.5-2.6l1.5-1.5l0.8-1.4l-2-2.5l-1.7-1l-2-2.2l-3.9-2.1L465.2,560.9L465.2,560.9z"/>
			<path class="st0" d="M435.7,568.1l-3,0.9l-2.4,0.9l-3.2,1.9l-4.1,2.2l-3.2,0.9l-2.7,1.2l-1.9,0.8l-2.1,1.4l-3,2.5l0.2,3.2
				l-0.9,4.4l0.7,4.8l2.4,4.8l1.9,2.6l0.4,3.7l-0.2,2.6l-1.5,2.9l-0.8,1.7l3.7,2.2l5.3,1.7l5.1-0.2l2.6-0.9l3.4-1l2-3.4l1.5-1.2
				l3.2-0.8l2.7,1.4l3.6,1.7l3,0.9l2.2-0.5l-3.1-2.4l2.6-1.7l1.4-0.5l2.7-0.8l-4.7-2.1l-2.7-1.1l-3.4-0.9l-3.4-2.6l-2.4-3.1
				l-0.9-3.2l-1-3.6l-0.4-4.8l-0.5-4.2l0.2-2.4l-0.5-1v-1.3l-0.5-2.4v-0.9l-0.2-2.2L435.7,568.1L435.7,568.1z"/>
			<path class="st0" d="M434.8,580.3l0.5,4.2l0.4,4.8l1,3.6l0.9,3.2l2.4,3.1l3.4,2.6l3.4,0.9l1.2-0.9l1.7-2l0.5-1.5l2.2-3.4l0.3-3.6
				l-0.5-1.7l1.4-2.5l1-0.2l-0.3-1.3l-0.7-2.3l-2.6-1l-2-1.7l-3.8-1.9l-4.9,0.3l-0.9,0.4l-2.4,0.6l-1,0.4H434.8L434.8,580.3z"/>
			<path class="st0" d="M398.2,592.1l2.6,2.4l0.2,2.9l-0.5,5l1,4.2l2.4,4.5l1,3.6l1.4,4.5l0.3,5.1l4.8-0.3l0.5-3l0.5-3.6l-0.2-3.2
				v-2.6l0.8-1.7l1.5-2.9l0.2-2.6l-0.4-3.7l-1.9-2.6l-2.4-4.8l-0.7-4.8l0.9-4.4l-0.2-3.2l-0.9,0.2l-4.3,1l-1.2,2l-0.5,2.1l-1.5,2.4
				l-2.5,2L398.2,592.1z"/>
			<path class="st0" d="M477.5,586.1l-1.9,0.2l-4.7,0.5l-3.9,1l-3.6,1l-3.6,0.6l-1.9,0.5l-4.4-2.9l-1.4,2.5l0.5,1.7l-0.3,3.6
				l-2.2,3.4l-0.5,1.5l-1.7,2l-1.2,0.9l2.7,1.1l4.7,2.1l3-0.7l2.3-0.5l3.9-1.7l2.4-2l3.8-1.4l1.9-1l3.6-2.9l3.2-2l1.2-2.7l-2-1.5
				l0.2-1.7L477.5,586.1L477.5,586.1z"/>
			<path class="st0" d="M457.2,605.3l2.4,1.2l2.9,3.1l5.3,2.4l4.8-0.7l9-0.6l3.6,1.2l11.6,5.8l4.8,5.3l8.3,2.9l9.4,2.4l10.5,1.7
				l7.7,2.8l10.2,4l5.8,4.1l2.4,4.5l3.8,3.8l3.7,3.9l8,6.2l5.1,4.6l3.7,2.9l3.9,2.2l2.4,2.8l2.2,3.7l4.7,4.8l-0.5,2.2l4.2-1l1.4-1.2
				l4.4-0.3l3.9-1l6.6-2.5l1.5-0.7l-0.9-2.4l-1.9,1.3l-4.4-1.9l-2.7-1.9l-3.7-2.4l-3.8-1l-6.5-1.1l-2.4-0.5l-1.7-2.2l-2.5-3.1
				l-2.7-3.9l-3.9-5.1l-4.1-5.3l-4.6-4.1l-6.5-5l-5.6-4l-12.1-7l-8.2-4.8l-7.5-3.8l-5.3-3.4l-3.6-2.9l-6.3-4.5l-5.8-3.1l-8-4.6
				l-6-2.6l-1.9-0.7l-7.1-2.2l-1,0.1l-5.1-2.7l-1.2,2.7l-3.2,2l-3.6,2.9l-1.9,1l-3.8,1.4l-2.4,2l-3.9,1.7L457.2,605.3L457.2,605.3z"
				/>
			<path class="st0" d="M386.3,593.2l0.4,1.7l-0.4,4.6l-2,4.1l-1,6l1.2,4.1l0.7,4.5l0.9,6.8l0.2,2.2l0.4,1l3.3-1.1l7.2-1.2l5.6-0.2
				l2.7-1.2l1.2-0.4l-0.3-5.1l-1.4-4.5l-1-3.6l-2.4-4.5l-1-4.2l0.5-5l-0.2-2.9l-2.6-2.4l-1.9,0.5l-2.2,0.5l-2.9,0.3L386.3,593.2
				L386.3,593.2z"/>
			<path class="st0" d="M454.1,605.9l-2.7,0.8l-1.4,0.5l-2.6,1.7l3.1,2.4l-0.3,1.4l-0.2,1.9l0.7,2l0.2,1.7l0.5,1.4l3.4,1.4l3.4,0.9
				l4.1,1.2l3.6,1.2l1.5,1.2l5.8,1.2l7.5,1.4l4.1,1.9l8.2,1.6l5.8-0.3v1.4l-0.9,2.7l-0.5,3.9l0.2,2.4l6.5,2.1l8,0.4l7.6,1.7l6.1,1.1
				l7.5,2.9l13.8,6l7.1,2.4l5.3,2.1l3.6,1.9l-0.5,3.2l-0.5,3.2l-0.3,1.5l-0.9,3.1l4.8-0.2l5.3-0.2l4.6,0.5l6.5,2.2l3.4,1.9l2,1.7
				l2.1,2.4l0.8,1.5l2.6-0.7l0.5-2.2l-4.7-4.8l-2.2-3.7L584,669l-3.9-2.2l-3.7-2.9l-5.1-4.6l-8-6.2l-3.7-3.9l-3.8-3.8l-2.4-4.5
				l-5.8-4.1l-10.2-4l-7.7-2.8l-10.5-1.7l-9.4-2.4l-8.3-2.9l-4.8-5.3l-11.6-5.8l-3.6-1.2l-9,0.6l-4.8,0.7l-5.3-2.4l-2.9-3.1
				l-2.4-1.2L454.1,605.9L454.1,605.9z"/>
			<path class="st0" d="M412.1,611.4v2.6l0.2,3.2l-0.5,3.6l-0.5,3l2.7,0.2h1.2l2,2.1l2,0.9l0.9,0.5l1.9,3.1l1.2,2.7l0.3,2.4
				l-0.9,4.1l-2,4.1l-1.5,3.8l-1.2,3.7l-1.4,3.2v4.1l1.2,3.4l7.3,8l5.8,4.6l7.8,3.1l9.5,4l6.3,1.7l4.1,2.1l3.6,0.9l1,1.7l2.4,4.1
				l1.7,1.4l3.2,3.1l0.4,2l-2.5,9.4l-0.9,4.8l0.9,7.5l1.4,6.5l3.4,6.5l2.5,4.1l2.4,4.5l4.4,4.6l3.7,7l1.9,3.9l1.7,5.1l2,2.4l3.8,2
				l1.3,0l3.6-0.2l3.1-0.1l1.7-2.2l2.7-2.2l2.2-0.2l8-1.8l7.6,3.1l6,3.2l9.4,3.1l6.8,1.2l5.9,0.7l6.1-1.3l4.3-2.4l1.7-0.7l4.9-1.8
				l6-0.5l5.4,0h3.1l2,0.2l0.9,0.2l2.2-0.3l-0.4-2l0.7-1.4l0.9-1.5l1-4.4l-1.2-4.1l-1-3.6l0.2-2.5l1.7-4.1l-0.2-2.4l-2.4-3.6
				l-2.5-6.3l-1.7-4.3l-3.4-4.6l-2.5-5.5l1-7.5l1.9-3.6l1.9-4.4l-1.2-3.8l-2.4-2.9l-1.9-2.4l-2.2-3.4l0.4-1.2l4.6-1.8l6,0.4l2.7-0.8
				l-0.8-1.5l-2.1-2.4l-2-1.7l-3.4-1.9l-6.5-2.2l-4.6-0.5l-5.3,0.2l-4.8,0.2l-1.9,0.5l-3.1,0.9L552,675l-3.8,0.3l-8.1,0.5l-3.2,0.3
				l-7.3-0.9l-10.5-2.6l-4.8-2.4l-8.1-5l-4.4-3.1l-6.6-5.7l-3.8-2.4l-9.4-4.3l-6.1-3.1l-5.4-1.9l-9.4-2.8l-5.1-2.4l-4.1-1.4
				l-6.5,0.1l-5.3-2.2l1.7-4.4l3.2-4.4l4.9-7.5l0.9-3.2l-0.7-2l0.2-1.9l0.3-1.4l-2.2,0.5l-3-0.9l-3.6-1.7l-2.7-1.4l-3.2,0.8
				l-1.5,1.2l-2,3.4l-3.4,1l-2.6,0.9l-5.1,0.2l-5.3-1.7L412.1,611.4L412.1,611.4z"/>
			<path class="st0" d="M450.8,616.6l-0.9,3.2l-4.9,7.5l-3.2,4.4l-1.7,4.4l5.3,2.2l6.5-0.1l4.1,1.4l5.1,2.4l9.4,2.8l5.4,1.9l6.1,3.1
				l9.4,4.3l3.8,2.4l6.6,5.7l4.4,3.1l8.1,5l4.8,2.4l10.5,2.6l7.3,0.9l3.2-0.3l8.1-0.5l3.8-0.3l3.9-0.3l3.1-0.9l1.9-0.5l0.9-3.1
				l0.3-1.5l0.5-3.2l0.5-3.2l-3.6-1.9l-5.3-2.1l-7.1-2.4l-13.8-6l-7.5-2.9l-6.1-1.1l-7.6-1.7l-8-0.4l-6.5-2.1l-0.2-2.4l0.5-3.9
				l0.9-2.7v-1.4l-5.8,0.3l-8.2-1.6l-4.1-1.9l-7.5-1.4l-5.8-1.2l-1.5-1.2l-3.6-1.2l-4.1-1.2l-3.4-0.9l-3.4-1.4l-0.5-1.4L450.8,616.6
				L450.8,616.6z"/>
			<path class="st0" d="M497.8,392.2l-1.3,1.5l-2.4,0.8l-2.6,0.7l-3.2,0.7l-3.2,0.8v2.2v2l-0.1,5l0.2,4.1v3.9l-1.2,3.2l-3,4.4
				l-4.2,3.7l-1,1l-3.6,0.3l0.7,3.1l-0.5,4.1l-0.5,3.2l-1.2,4.1L470,446l2,0.6l0.8-0.1l0.9,0.3l0.1,0.2l0.8,0.5h0.9l0.6-0.4h1
				l1.3,0.2l1,0.2l1.8-0.1l1.4,0.5l1.9,0.3l0.7,0.3l1.3-0.1l0.2-0.6l-0.5-0.5l-0.3-0.8l-0.2-0.5l1.3-0.7l2-0.5l1.2,0.1l2.3-0.7
				l0.6-0.3l2.5-0.9l1.8-1.9l0.9-1.9l-0.3-1.8l-0.3-3l-0.5-3.4l-0.3-1.5l0.2-1.9l0.5-1.5l1.2-2.4l1-1.9l2-1.9l0.7-2.5l-1.3-1.4
				l-1.9-2.6l-0.5-4.1V406l0.7-6l-0.2-3.8l-1.2-1.9L497.8,392.2L497.8,392.2z"/>
			<path class="st0" d="M523,462.7l-4.1,5.3l-4.7,2.5l-4.4,1.7l-3.2,1.9l-2.4,4.8l-0.7,6l0.7,5l0.3,3.2l2.4,5.1l0.9,2.4l0.7,1.5
				l0.9,1.5l0.2,0.9v1.2l0.2,1.4l1.9,2.7l0.9,1.8l1.3-0.9l1.2-1.4l2.1-3.3l1.7-2.3l0.6-3.3l1.1-2.3l2.9-1.9l1.9-2.9l0.5-1.3l1.5-2.8
				l0.9-2.5l3-6.2l1.1-4.5l0-7.3l-1-0.2l-1.3-1l-2.2-1.7L523,462.7L523,462.7z"/>
		</g>
	</g>
	<g>
		<g>
			
				<rect x="848.8" y="186.3" transform="matrix(0.8003 -0.5996 0.5996 0.8003 57.4269 546.5524)" class="st1" width="0.8" height="1.6"/>
			<path class="st1" d="M813.7,229.3l-1.3-0.8l0.8-1.3l1.3,0.8L813.7,229.3z M816.1,225.3l-1.3-0.8l0.8-1.3l1.3,0.8L816.1,225.3z
				 M818.5,221.3l-1.3-0.8l0.8-1.3l1.3,0.8L818.5,221.3z M820.9,217.3l-1.3-0.8l0.8-1.3l1.3,0.8L820.9,217.3z M823.3,213.3l-1.3-0.8
				l0.8-1.3l1.3,0.8L823.3,213.3z M825.7,209.3l-1.3-0.8l0.8-1.3l1.3,0.8L825.7,209.3z M828.1,205.3l-1.3-0.8l0.8-1.3l1.3,0.8
				L828.1,205.3z M830.7,201.9l-0.9-1.3l1.2-0.9l0.9,1.3L830.7,201.9z M834.4,199.1l-0.9-1.3l1.2-0.9l0.9,1.3L834.4,199.1z
				 M838.2,196.3l-0.9-1.3l1.2-0.9l0.9,1.3L838.2,196.3z M841.9,193.5l-0.9-1.3l1.2-0.9l0.9,1.3L841.9,193.5z M845.6,190.7l-0.9-1.3
				l1.2-0.9l0.9,1.3L845.6,190.7z"/>
			<polygon class="st1" points="811.5,233 810.2,233 810.2,231.4 810.6,231.4 810.8,231.1 812.1,231.9 			"/>
			<path class="st1" d="M807.1,233h-1.6v-1.6h1.6V233z M802.3,233h-1.6v-1.6h1.6V233z M797.6,233H796v-1.6h1.6V233z M792.9,233h-1.6
				v-1.6h1.6V233z M788.1,233h-1.6v-1.6h1.6V233z M783.4,233h-1.6v-1.6h1.6V233z M778.7,233h-1.6v-1.6h1.6V233z M773.9,233h-1.6
				v-1.6h1.6V233z M769.2,233h-1.6v-1.6h1.6V233z M764.4,233h-1.6v-1.6h1.6V233z M759.7,233h-1.6v-1.6h1.6V233z M755,233h-1.6v-1.6
				h1.6V233z M750.2,233h-1.6v-1.6h1.6V233z M745.5,233h-1.6v-1.6h1.6V233z M740.7,233h-1.6v-1.6h1.6V233z M736,233h-1.6v-1.6h1.6
				V233z M731.3,233h-1.6v-1.6h1.6V233z M726.5,233h-1.6v-1.6h1.6V233z M721.8,233h-1.6v-1.6h1.6V233z"/>
			<rect x="715.5" y="231.4" class="st1" width="1.6" height="1.6"/>
			<path class="st1" d="M709.9,270.3l-1.1-1.1l1.1-1.2l1.1,1.1L709.9,270.3z M713.3,266.7l-1.1-1.1l1.1-1.2l1.1,1.1L713.3,266.7z
				 M716.7,263.2l-0.7-0.6h-0.6V261h1.6v1.8L716.7,263.2z M717,257.7h-1.6v-1.6h1.6V257.7z M717,252.8h-1.6v-1.6h1.6V252.8z
				 M717,247.8h-1.6v-1.6h1.6V247.8z M717,242.9h-1.6v-1.6h1.6V242.9z M717,237.9h-1.6v-1.6h1.6V237.9z"/>
			<polygon class="st1" points="706.8,273.5 705.7,273.5 705.7,271.9 706.1,271.9 706.4,271.6 707.6,272.7 			"/>
			<path class="st1" d="M702.2,273.5h-1.7v-1.6h1.7V273.5z M697.1,273.5h-1.7v-1.6h1.7V273.5z M691.9,273.5h-1.7v-1.6h1.7V273.5z
				 M686.8,273.5H685v-1.6h1.7V273.5z"/>
			<rect x="680" y="271.9" class="st1" width="1.6" height="1.6"/>
			<path class="st1" d="M681.6,305.8H680v-1.5h1.6V305.8z M681.6,301.2H680v-1.5h1.6V301.2z M681.6,296.6H680V295h1.6V296.6z
				 M681.6,291.9H680v-1.5h1.6V291.9z M681.6,287.3H680v-1.5h1.6V287.3z M681.6,282.7H680v-1.5h1.6V282.7z M681.6,278.1H680v-1.5
				h1.6V278.1z"/>
			<rect x="680" y="308.9" class="st1" width="1.6" height="1.6"/>
			<path class="st1" d="M820.6,310.5v-1.6h0.4l1.1-0.1l0.1,1.6l-1.2,0.1L820.6,310.5z M817.5,310.5h-1.6v-1.6h1.6V310.5z
				 M812.8,310.5h-1.6v-1.6h1.6V310.5z M808.1,310.5h-1.6v-1.6h1.6V310.5z M803.4,310.5h-1.6v-1.6h1.6V310.5z M798.7,310.5h-1.6
				v-1.6h1.6V310.5z M794.1,310.5h-1.6v-1.6h1.6V310.5z M789.4,310.5h-1.6v-1.6h1.6V310.5z M784.7,310.5h-1.6v-1.6h1.6V310.5z
				 M780,310.5h-1.6v-1.6h1.6V310.5z M775.3,310.5h-1.6v-1.6h1.6V310.5z M770.6,310.5h-1.6v-1.6h1.6V310.5z M765.9,310.5h-1.6v-1.6
				h1.6V310.5z M761.3,310.5h-1.6v-1.6h1.6V310.5z M756.6,310.5H755v-1.6h1.6V310.5z M751.9,310.5h-1.6v-1.6h1.6V310.5z
				 M747.2,310.5h-1.6v-1.6h1.6V310.5z M742.5,310.5h-1.6v-1.6h1.6V310.5z M737.8,310.5h-1.6v-1.6h1.6V310.5z M733.1,310.5h-1.6
				v-1.6h1.6V310.5z M728.5,310.5h-1.6v-1.6h1.6V310.5z M723.8,310.5h-1.6v-1.6h1.6V310.5z M719.1,310.5h-1.6v-1.6h1.6V310.5z
				 M714.4,310.5h-1.6v-1.6h1.6V310.5z M709.7,310.5h-1.6v-1.6h1.6V310.5z M705,310.5h-1.6v-1.6h1.6V310.5z M700.3,310.5h-1.6v-1.6
				h1.6V310.5z M695.7,310.5h-1.6v-1.6h1.6V310.5z M691,310.5h-1.6v-1.6h1.6V310.5z M686.3,310.5h-1.6v-1.6h1.6V310.5z M825.3,310.2
				l-0.1-1.6l1.6-0.1l0.1,1.6L825.3,310.2z M830,310l-0.1-1.6l1.6-0.1l0.1,1.6L830,310z M834.7,309.8l-0.1-1.6l1.6-0.1l0.1,1.6
				L834.7,309.8z M839.4,309.5l-0.1-1.6l1.6-0.1l0.1,1.6L839.4,309.5z M844,309.3l-0.1-1.6l1.6-0.1l0.1,1.6L844,309.3z M848.7,309.1
				l-0.1-1.6l1.6-0.1l0.1,1.6L848.7,309.1z M853.4,308.9l-0.1-1.6l1.6-0.1l0.1,1.6L853.4,308.9z"/>
			
				<rect x="858" y="307" transform="matrix(0.9988 -4.930457e-02 4.930457e-02 0.9988 -14.1331 42.699)" class="st1" width="0.8" height="1.6"/>
		</g>
		<g>
			
				<rect x="987.4" y="88.5" transform="matrix(0.3574 -0.934 0.934 0.3574 551.4158 979.8767)" class="st1" width="0.8" height="1.6"/>
			<path class="st1" d="M989.8,86.2l-1.5-0.6l0.6-1.5l1.5,0.6L989.8,86.2z M991.5,81.8l-1.5-0.6l0.6-1.5l1.5,0.6L991.5,81.8z
				 M993.1,77.4l-1.5-0.6l0.6-1.5l1.5,0.6L993.1,77.4z M994.8,72.9l-1.5-0.6l0.6-1.5l1.5,0.6L994.8,72.9z M996.5,68.5l-1.5-0.6
				l0.6-1.5l1.5,0.6L996.5,68.5z M998.2,64.1l-1.5-0.6l0.6-1.5l1.5,0.6L998.2,64.1z M999.9,59.7l-1.5-0.6l0.6-1.5l1.5,0.6
				L999.9,59.7z M1001.6,55.2l-1.5-0.6l0.6-1.5l1.5,0.6L1001.6,55.2z M1003.3,50.8l-1.5-0.6l0.6-1.5l1.5,0.6L1003.3,50.8z
				 M1005,46.4l-1.5-0.6l0.6-1.5l1.5,0.6L1005,46.4z M1006.7,42l-1.5-0.6l0.6-1.5l1.5,0.6L1006.7,42z M1008.4,37.6l-1.5-0.6l0.6-1.5
				l1.5,0.6L1008.4,37.6z"/>
			<polygon class="st1" points="1010.1,33.1 1009.5,32.9 1008.9,33 1008.9,32.7 1008.6,32.6 1008.8,32 1008.8,31.4 1010.8,31.2 			
				"/>
			<path class="st1" d="M977.5,35.9h-0.9v-1.6h0.8l0.6-0.1l0.1,1.6L977.5,35.9z M973.5,35.9H972v-1.6h1.5V35.9z M968.9,35.9h-1.5
				v-1.6h1.5V35.9z M964.3,35.9h-1.5v-1.6h1.5V35.9z M959.6,35.9h-1.5v-1.6h1.5V35.9z M955,35.9h-1.5v-1.6h1.5V35.9z M950.4,35.9
				h-1.5v-1.6h1.5V35.9z M945.8,35.9h-1.5v-1.6h1.5V35.9z M941.1,35.9h-1.5v-1.6h1.5V35.9z M936.5,35.9H935v-1.6h1.5V35.9z
				 M931.9,35.9h-1.5v-1.6h1.5V35.9z M927.3,35.9h-1.5v-1.6h1.5V35.9z M922.6,35.9h-1.5v-1.6h1.5V35.9z M981.3,35.5l-0.1-1.6
				l1.5-0.1l0.1,1.6L981.3,35.5z M985.9,35.1l-0.1-1.6l1.5-0.1l0.1,1.6L985.9,35.1z M990.5,34.7l-0.1-1.6l1.5-0.1l0.1,1.6
				L990.5,34.7z M995.1,34.3l-0.1-1.6l1.5-0.1l0.1,1.6L995.1,34.3z M999.7,33.8l-0.1-1.6l1.5-0.1l0.1,1.6L999.7,33.8z M1004.3,33.4
				l-0.1-1.6l1.5-0.1l0.1,1.6L1004.3,33.4z"/>
			<polygon class="st1" points="917.7,36.1 916.2,35.5 916.7,34.3 918,34.3 918,35.9 917.8,35.9 			"/>
			<path class="st1" d="M912,50.2l-1.5-0.6l0.6-1.6l1.5,0.6L912,50.2z M913.9,45.5l-1.5-0.6l0.6-1.6l1.5,0.6L913.9,45.5z
				 M915.8,40.8l-1.5-0.6l0.6-1.6l1.5,0.6L915.8,40.8z"/>
			<polygon class="st1" points="910.3,54.6 909,54.6 909,53 909.2,53 909.3,52.8 910.8,53.3 			"/>
			<path class="st1" d="M905.8,54.6h-1.6V53h1.6V54.6z M901,54.6h-1.6V53h1.6V54.6z M896.2,54.6h-1.6V53h1.6V54.6z M891.4,54.6h-1.6
				V53h1.6V54.6z M886.6,54.6H885V53h1.6V54.6z M881.8,54.6h-1.6V53h1.6V54.6z M877,54.6h-1.6V53h1.6V54.6z M872.3,54.6h-1.6V53h1.6
				V54.6z M867.5,54.6h-1.6V53h1.6V54.6z M862.7,54.6h-1.6V53h1.6V54.6z M857.9,54.6h-1.6V53h1.6V54.6z M853.1,54.6h-1.6V53h1.6
				V54.6z M848.3,54.6h-1.6V53h1.6V54.6z M843.5,54.6h-1.6V53h1.6V54.6z M838.8,52.9l-1.1-1.1l1.1-1.1l1.1,1.1L838.8,52.9z
				 M835.3,49.5l-1.1-1.1l1.1-1.1l1.1,1.1L835.3,49.5z"/>
			<polygon class="st1" points="831.9,46.1 831.1,45.4 831.1,44.3 832.7,44.3 832.7,44.7 833,45 			"/>
			<path class="st1" d="M832.7,41h-1.6v-1.7h1.6V41z M832.7,36h-1.6v-1.7h1.6V36z M832.7,31h-1.6v-1.7h1.6V31z M832.7,26.1h-1.6
				v-1.7h1.6V26.1z M832.7,21.1h-1.6v-1.7h1.6V21.1z M832.7,16.2h-1.6v-1.7h1.6V16.2z"/>
			<rect x="831.1" y="9.7" class="st1" width="1.6" height="1.6"/>
			<path class="st1" d="M827.8,11.2h-1.7V9.7h1.7V11.2z M822.8,11.2h-1.7V9.7h1.7V11.2z M817.8,11.2h-1.7V9.7h1.7V11.2z M812.8,11.2
				h-1.7V9.7h1.7V11.2z M807.8,11.2h-1.7V9.7h1.7V11.2z"/>
			<rect x="801.2" y="9.7" class="st1" width="1.6" height="1.6"/>
			<path class="st1" d="M802.7,28.5h-1.6V27h1.6V28.5z M802.7,24.2h-1.6v-1.4h1.6V24.2z M802.7,19.9h-1.6v-1.4h1.6V19.9z
				 M802.7,15.5h-1.6v-1.4h1.6V15.5z"/>
			<rect x="801.2" y="31.3" class="st1" width="1.6" height="1.6"/>
			<path class="st1" d="M798.2,32.9h-1.5v-1.6h1.5V32.9z M793.8,32.9h-1.5v-1.6h1.5V32.9z M789.3,32.9h-1.5v-1.6h1.5V32.9z
				 M784.9,32.9h-1.5v-1.6h1.5V32.9z M780.4,32.9h-1.5v-1.6h1.5V32.9z M775.9,32.9h-1.5v-1.6h1.5V32.9z M771.5,32.9H770v-1.6h1.5
				V32.9z"/>
			<rect x="765.5" y="31.3" class="st1" width="1.6" height="1.6"/>
			<path class="st1" d="M767,102.7h-1.6v-1.6h1.6V102.7z M767,98h-1.6v-1.6h1.6V98z M767,93.4h-1.6v-1.6h1.6V93.4z M767,88.7h-1.6
				v-1.6h1.6V88.7z M767,84.1h-1.6v-1.6h1.6V84.1z M767,79.4h-1.6v-1.6h1.6V79.4z M767,74.8h-1.6v-1.6h1.6V74.8z M767,70.1h-1.6
				v-1.6h1.6V70.1z M767,65.5h-1.6v-1.6h1.6V65.5z M767,60.8h-1.6v-1.6h1.6V60.8z M767,56.2h-1.6v-1.6h1.6V56.2z M767,51.5h-1.6V50
				h1.6V51.5z M767,46.9h-1.6v-1.6h1.6V46.9z M767,42.2h-1.6v-1.6h1.6V42.2z M767,37.6h-1.6V36h1.6V37.6z"/>
			<polygon class="st1" points="766.3,107.7 765.2,106.5 765.5,106.2 765.5,105.8 767,105.8 767,106.9 			"/>
			
				<rect x="763.1" y="108.3" transform="matrix(0.7129 -0.7012 0.7012 0.7129 142.7 566.8165)" class="st1" width="1.1" height="1.6"/>
			<polygon class="st1" points="761.8,112.5 760.3,112.5 760.3,111.3 761.1,110.6 762.2,111.7 761.8,112 			"/>
			<rect x="760.3" y="115.7" class="st1" width="1.6" height="1.6"/>
			<path class="st1" d="M775.5,117.3H774v-1.6h1.5V117.3z M770.9,117.3h-1.5v-1.6h1.5V117.3z M766.4,117.3h-1.5v-1.6h1.5V117.3z
				 M778.9,116.5l-1.1-1.1l1.1-1.1l1.1,1.1L778.9,116.5z M782.1,113.3l-1.1-1.1l1.3-1.3h0.3l0,0.8l0.5,0.6L782.1,113.3z
				 M800.9,112.5h-1.5v-1.6h1.5V112.5z M796.3,112.5h-1.5v-1.6h1.5V112.5z M791.7,112.5h-1.5v-1.6h1.5V112.5z M787.2,112.5h-1.5
				v-1.6h1.5V112.5z"/>
			<rect x="803.9" y="110.9" class="st1" width="1.6" height="1.6"/>
			<path class="st1" d="M805.5,107.3h-1.6v-1.8h1.6V107.3z M805.5,101.9h-1.6v-1.8h1.6V101.9z"/>
			<rect x="803.9" y="94.9" class="st1" width="1.6" height="1.6"/>
			<path class="st1" d="M822.1,96.5h-1.4v-1.6h1.4V96.5z M818,96.5h-1.4v-1.6h1.4V96.5z M813.8,96.5h-1.4v-1.6h1.4V96.5z
				 M809.6,96.5h-1.4v-1.6h1.4V96.5z"/>
			<rect x="824.9" y="94.9" class="st1" width="1.6" height="1.6"/>
			<path class="st1" d="M826.5,92h-1.6v-1.5h1.6V92z M826.5,87.5h-1.6V86h1.6V87.5z"/>
			<rect x="824.9" y="81.5" class="st1" width="1.6" height="1.6"/>
			<path class="st1" d="M847.6,85.3l-1.3-0.8l0.8-1.3l1.3,0.8L847.6,85.3z M844.2,83.1h-1.4v-1.6h1.6l0.3,0.2l-0.5,0.8V83.1z
				 M839.8,83.1h-1.5v-1.6h1.5V83.1z M835.4,83.1h-1.5v-1.6h1.5V83.1z M830.9,83.1h-1.5v-1.6h1.5V83.1z"/>
			<polygon class="st1" points="850.7,87.6 850.6,87.1 850.2,86.9 851,85.6 851.9,86.1 852.2,87.2 			"/>
			<path class="st1" d="M859.1,153.8l-1.4-0.6l0.6-1.4l1.4,0.6L859.1,153.8z M860.9,149.6l-1.4-0.6l0.6-1.4l1.4,0.6L860.9,149.6z
				 M862.7,145.4l-1.4-0.6l0.6-1.4l1.4,0.6L862.7,145.4z M864.4,141.2l-1.4-0.6l0.2-0.4l-0.1-0.6l1.5-0.4l0.3,1.1L864.4,141.2z
				 M862.3,136.6l-0.4-1.5l1.5-0.4l0.4,1.5L862.3,136.6z M861.3,132.2l-0.4-1.5l1.5-0.4l0.4,1.5L861.3,132.2z M860.2,127.7l-0.4-1.5
				l1.5-0.4l0.4,1.5L860.2,127.7z M859.1,123.2l-0.4-1.5l1.5-0.4l0.4,1.5L859.1,123.2z M858.1,118.8l-0.4-1.5l1.5-0.4l0.4,1.5
				L858.1,118.8z M857,114.3l-0.4-1.5l1.5-0.4l0.4,1.5L857,114.3z M856,109.9l-0.4-1.5l1.5-0.4l0.4,1.5L856,109.9z M854.9,105.4
				l-0.4-1.5l1.5-0.4l0.4,1.5L854.9,105.4z M853.8,100.9l-0.4-1.5l1.5-0.4l0.4,1.5L853.8,100.9z M852.8,96.5l-0.4-1.5l1.5-0.4
				l0.4,1.5L852.8,96.5z M851.7,92l-0.4-1.5l1.5-0.4l0.4,1.5L851.7,92z"/>
			<polygon class="st1" points="856.6,158.1 856.1,157.1 856.5,156.1 857.9,156.7 857.8,157.1 858,157.4 			"/>
			
				<rect x="858.3" y="160.6" transform="matrix(0.8925 -0.451 0.451 0.8925 19.5138 404.8252)" class="st1" width="1.6" height="1.7"/>
			
				<rect x="860.4" y="165.1" transform="matrix(0.8927 -0.4507 0.4507 0.8927 17.8392 405.9167)" class="st1" width="1.6" height="0.8"/>
		</g>
		<polygon class="st2" points="871.4,315.8 869.3,317 866.5,317.8 866.1,318.5 866.4,321.5 866.3,322.9 866.6,324.2 867.2,324.9 
			867.2,326.2 867.8,329.2 865.2,330 865.7,330.9 865.3,332 866.2,333.9 866.2,335 865.9,335.6 864.7,335.6 863.5,336.1 862.6,336 
			860.9,335.3 859.9,335.7 859,335.4 858.7,334.8 857.6,332.9 857.4,331.9 857.6,330.9 857,330 854.7,329.2 853.8,328.3 
			853.8,327.7 854.3,326.4 854,325.8 853,325.6 851.6,325.9 849.5,326.6 848.8,326.6 847.1,326.2 844.9,324.7 844,324.2 
			842.2,322.8 841.3,321.7 839.4,321.4 838.6,320.4 836.5,318.4 834.1,318 833,316.6 832.4,316.6 831.6,315.3 829.9,314 
			828.3,312.4 828.4,311.9 827.4,312 827.2,311.3 825,309.4 825,308.6 827.7,305.5 828.1,304.8 830.8,305.2 831.3,305.3 
			834.5,305.6 834.8,305.1 834.8,302.8 834,302.8 834.1,301.4 833.4,300.4 832.4,300.6 832.6,298.1 833,298.3 834.5,298 
			834.8,296.5 833.9,296.3 833.4,294.2 833.5,293.5 834.3,292.2 834.8,291 836.5,290 837.3,288.9 838.1,288.9 838.2,289.6 
			838.8,290.1 839.5,291.5 839.3,290.7 839.4,289.5 840.2,288.9 840.3,289.6 841.8,288.1 841.9,287.3 842.8,286.9 843.7,286.9 
			844.3,288.4 844.5,289.3 845.5,288.4 846.7,286.9 847,287.1 847.2,288 848.1,289.6 852.2,294.4 852.4,295.4 852.8,295.8 
			855,297.1 856.8,297.2 858.6,296.9 859.2,296.6 860.1,296.7 860.5,297.2 860.9,299.3 861.5,299.3 862.1,298.8 862.4,299.3 
			862.4,300.7 863.4,302 863.4,302.7 862,304.2 861.6,305.1 861.7,306.4 860.9,307.6 861.1,308 862.1,308.1 865,307.9 865.9,308 
			867.2,307.7 867.7,307.2 869.2,308.2 871.6,309.5 872.3,310.2 872.3,311.3 871.3,313.3 871.9,314.1 872,315 		"/>
		<g>
			<polygon class="st3" points="841.9,280 842.3,281 843,280.6 843.2,279.7 843.5,279 842.7,279.2 			"/>
			<polygon class="st3" points="1080.5,317.6 1081,316.3 1080,314.7 1079.5,312.1 1079,311.4 1078.7,310.2 1078.2,309.4 
				1077.9,308.1 1077.4,307.2 1077.3,305.8 1076.5,304 1075.4,302.5 1075.9,301.5 1075.7,300 1074.7,299.8 1074.1,298.8 
				1073.5,296.9 1074.1,295.5 1074,294.8 1073.3,293.8 1072.2,293.3 1071,291.5 1070.5,291.1 1068,288.5 1066.5,288.5 1066.6,287.1 
				1066,286 1064.3,285.8 1063.2,285.4 1062.6,284.8 1061.2,284.9 1060.5,285.3 1060.5,284.5 1065,280.3 1069.5,276 1070.5,276 
				1070.5,275 1071.3,274.5 1071.8,273.1 1071.2,271.7 1069.7,270.7 1069.8,269.9 1069.1,268.6 1068.7,266.8 1068.4,266.4 
				1067.9,265.1 1065.8,265.4 1064.8,264.6 1064.5,262.8 1063.9,261.5 1063.6,259.3 1063.1,257.9 1061.4,255.2 1061.3,253.6 
				1061.5,252.6 1061.4,251 1060.8,249.7 1060,249.1 1059.3,247.5 1060.1,244.6 1060.2,242.8 1060,241.5 1060.3,239.7 1061,237.8 
				1060.1,235.5 1060.4,234.3 1059.8,233.1 1060,232.4 1060.8,231.1 1061.9,230.2 1064.3,228.8 1065.2,227 1064.8,225.6 
				1065.1,222.3 1065.4,221 1068.9,217.2 1068.9,216.8 1067.8,215.7 1067.5,214.3 1068,212.8 1066.2,211.5 1063.6,211.2 
				1062.4,211.2 1061.2,210.7 1058.9,211.9 1058.3,212.8 1057.5,213.2 1056.2,213 1054.9,212.5 1052.6,213 1051.5,213.6 
				1050.4,213.8 1048.8,213.6 1047.7,213.8 1045.9,214.7 1044.8,214.2 1044.2,214.6 1042.8,214.7 1040.4,214.3 1039.5,213.7 
				1038.5,213.6 1037.1,213.8 1036.7,213.2 1034.6,213.2 1033.6,213 1032.9,214.3 1032,214.8 1031.4,215.6 1029.6,215.8 
				1028.9,214.7 1027.1,215.4 1027,215.4 1023.4,210.7 1019.7,206 1016.1,201.3 1012.5,196.7 1010.4,196.9 1008.8,197.6 
				1007.9,197.5 1006.6,196.4 1004.4,196.1 1003.6,195.5 1003.3,194.8 1001.7,195 1000.5,194.3 999.8,194.3 996.5,195 995.6,195.7 
				994.3,196.1 993.7,196.6 992.7,196.7 991.8,196.4 991.2,195.7 990,196.1 987.5,195.8 986.4,196.1 985,195.5 984.3,196 
				983.7,195.5 982.8,195.7 981.5,195.6 981,195.2 980.2,195.1 980.2,195.6 979.1,195.5 978.8,194.9 978,194.9 976.6,195.5 
				976.3,195.8 974.6,196 973.8,196.2 973.2,196.2 971.6,195.5 969.1,190.5 969.3,188.4 967.9,187.8 965.3,188.1 963.9,187.6 
				963.4,186.2 962.7,185.4 963,184.1 962.7,183.4 962.5,180.8 963.4,178.2 962.8,176.7 964.9,174.7 964.8,173.2 965,171.9 
				964.9,170.1 964.6,169.4 964.5,167.6 959.8,162.3 959,162.1 956.5,151.9 956,151.8 955.4,151.1 954.5,151.5 953,151.8 
				952.1,150.8 952.4,150.1 952.1,148.6 951.4,147.7 950.3,148.1 949.9,148.9 948.9,149.2 947.6,150.2 946.4,150.5 945.6,150.2 
				944.5,150.3 945,149.8 945.8,147.5 946.8,145.4 947.9,144.5 947.8,144 949.1,142.1 949.8,141.8 950.2,140.8 951.3,139.3 
				951.9,137.4 953.1,136.4 953.2,135.7 952.8,135.6 952.1,134.9 952.3,133.3 953.8,129.3 953.5,127.9 953.7,126.7 954.3,125.7 
				955.6,124.1 956,123.3 958,120.1 959.2,117.7 960.6,113.9 961.6,111.8 962.4,110.9 963,108.9 964,108 964.5,108.1 966.2,107.4 
				968.2,107.6 971.1,102.2 974,96.8 980.9,95.1 981.9,94.7 985.7,93.8 985.9,93.1 985.3,93.3 986.1,92.6 987.5,91 988.6,90.5 
				990.1,89 990.4,88.4 990,87.1 988,82.9 987,82.1 985.4,81.9 984.7,81.4 983.7,81.4 982.6,80.4 981,80 978.8,79.9 978.1,80.2 
				979.2,80.2 979.7,80.5 979.2,81.1 978.6,81.1 978.4,81.8 977.8,81.1 977.2,82.2 976,82.9 976,81.7 973.7,83.2 974.4,83.9 
				975.2,85.4 974.2,85.5 973.6,86.3 972.7,86.4 972.5,85.6 973,84.3 971.2,84.7 969,84.8 968.7,85.1 969.5,85.9 969.6,87.3 
				968.6,89.6 967.8,90.6 967.5,91.9 966.6,92.1 966.3,92.7 963.6,94.2 963.3,93.9 962.4,94 961.8,94.8 961.1,94.7 960.1,95.2 
				957.6,95.8 955.6,97.4 955.4,98.1 954.8,98.6 953,98.8 951.5,100.3 950.1,101 949.4,101.6 948,102.5 947.6,103.3 944.8,105.2 
				942.6,105.4 941.4,105.2 939.6,105.4 937.2,105.4 934.5,105.3 930.9,103.6 927.9,103.9 927.2,104.2 927,105 925.9,106.2 
				926.3,108.3 926.1,109.9 924.8,111.3 922.6,111.6 920.3,111.5 919.1,111.1 915.7,109.6 913.6,109.1 912.5,109.6 911,111.3 
				910.2,111.7 909.1,113.2 906.1,115 905.1,115.3 904.7,115.4 904.4,116.7 903.6,117.3 902,117.8 900.7,118.9 900.7,119.6 
				899.5,120.1 900.3,121.7 900.4,122.7 899.9,122.8 899.7,121.9 898.5,123.6 899.3,124.3 899.5,125.8 899.1,126.3 898.4,126.4 
				897.8,125.9 897.2,127.9 895.8,129.1 895.8,129.4 897.4,128.5 898.4,127.5 899.4,127.1 899.1,127.9 899.6,128.8 898.8,129 
				898.5,129.6 898,129.5 898.4,130.3 898.2,130.6 899,130.9 899.2,132.3 898.4,132.8 897.9,133.7 897.2,135.6 897.2,136.6 
				896.3,137.9 895.7,138.3 896.6,138.4 897.5,138.8 898.3,139.9 898.4,141 898.2,141.8 896.8,144.4 895.7,144.8 893.9,144.6 
				892.5,144.3 890.6,144.6 889.9,145.3 887.9,146 886.8,146.9 886.8,147.6 885.6,148.7 885.3,150.5 884,152 883.5,153.4 
				881.9,154.4 881.4,155.2 880,155.7 879.1,157.1 877.7,157.7 876.7,158.6 875.5,159.2 874.8,160.1 872.9,160.7 870.8,161.2 
				869.8,162.3 869.5,162.9 870.1,162.9 871.8,163.8 872.6,165.2 873.4,166.9 872.9,168.4 873.7,171.1 873.5,172.7 873.7,172.7 
				873.7,175.2 873.4,175.9 871.6,176.3 870.5,176.3 869.8,176 869.5,174.5 869.8,173.5 871.2,173.9 870.9,173.2 871.5,173.3 
				871.2,172.1 870.4,172.4 871.3,171.6 870.3,171.6 869.6,172.5 869.2,171.1 869.6,171 868.8,169.9 869.1,169.1 868.5,168.8 
				866.9,168.4 866.4,167.1 865.2,165.5 863.1,164.2 862.6,163.1 861.8,162.6 860.4,160.8 859.8,162.3 858.7,163.8 859.2,165.1 
				860.3,166.1 861.1,169 862.7,170.5 863.6,172.8 864.1,175.2 863.7,176.2 863.9,176.9 862.3,177.7 860.7,178.9 859.3,180.9 
				857.5,183 857.1,184.3 856.1,184.8 855,182.4 853.7,181.5 853.1,181.6 852.8,182.3 853.5,185.1 851.1,185.9 849.8,188.2 
				849.3,189.7 849.2,190.6 850.1,191.9 852.2,193.8 853,194.1 853.6,194.9 853.8,195.6 854.4,196.2 854.3,196.8 853.6,197.1 
				853.4,198.4 854.1,198.5 856,199.8 856.4,200.3 857.3,202.3 857.1,203 857.8,203.1 858,202.2 858.9,201.9 859.8,202.2 
				859.9,203.1 861.2,204.9 861.3,205.6 860.9,206.3 860.8,208.4 859.8,208.7 860.1,209 859.9,210.7 859.5,211.3 858.2,210.6 
				858,212.1 858.8,213.6 859,214.4 859.9,215.9 860.3,215.3 861.2,217.5 861,217.9 861.4,219.1 862.3,220.8 862.7,221.2 
				862.2,222.7 860.8,223.8 860,225 858.9,224.7 857.9,225.2 857,225.3 856.4,227.2 857.1,227.5 858.5,227.3 858.7,228.3 
				859.5,228.3 858.9,229.3 859.1,230.7 859.5,230.8 859.9,231.9 859.3,231.5 859,233.7 859.9,233.4 859.3,234.8 859.5,235.8 
				860,237.5 859.8,239.1 860.6,241.7 861.4,242.6 862,243.5 861.7,243.7 860.9,242.9 860.9,244 861.4,244.9 861,245.4 860.7,247.6 
				861,248 860.3,248.4 860.3,250.2 858.7,251.9 858.5,252.4 859.1,253 858.4,253.3 858.7,253.9 857.1,253.8 857.2,252.7 
				856.7,254.3 857.9,254.3 856.9,255 857.1,255.7 858.5,254.9 859.9,255 859.5,256 858.5,256.6 858.5,258.4 859.9,260.3 
				860.6,259.8 861.2,257.6 862.4,257.1 863.1,257.8 862.8,259.3 863.1,259.5 860.9,260.3 861,260.8 862,261.1 861.3,261.8 
				862.6,262.1 863.6,261.7 865.3,261.4 867,260.8 866,262 865.8,263 864.9,262.9 864.3,264.1 864.2,265.5 864.6,265.3 864.7,266.1 
				863.7,267.1 862,267.7 860.5,269.7 860.9,269.8 860.6,271.4 859.8,271.7 859.6,272.2 858.9,272.2 856.8,274.1 857.6,274.9 
				857.4,275.3 856.6,275.5 854.9,277.8 854.1,278.5 854.8,278.6 853.8,279.1 853.5,278.6 852.7,280 853.2,279.7 854,279.9 
				852.7,282.2 853.7,282.2 852.4,283.3 851.7,283.4 851.1,284 852.2,284.2 850.4,284.8 850.1,286.8 848.7,285.4 848.4,286.9 
				848,286.2 847.9,287.3 847,287.1 847.2,288 848.1,289.6 852.2,294.4 852.4,295.4 852.8,295.8 855,297.1 856.8,297.2 858.6,296.9 
				859.2,296.6 860.1,296.7 860.5,297.2 860.9,299.3 861.5,299.3 862.1,298.8 862.4,299.3 862.4,300.7 863.4,302 863.4,302.7 
				862,304.2 861.6,305.1 861.7,306.4 860.9,307.6 861.1,308 862.1,308.1 865,307.9 865.9,308 867.2,307.7 867.7,307.2 869.2,308.2 
				871.6,309.5 872.3,310.2 872.3,311.3 871.3,313.3 871.9,314.1 872,315 871.4,315.8 869.3,317 866.5,317.8 866.1,318.5 
				866.4,321.5 866.3,322.9 866.6,324.2 867.2,324.9 867.2,326.2 867.8,329.2 865.2,330 865.7,330.9 865.3,332 866.2,333.9 
				866.2,335 865.9,335.6 866.7,336.9 869.2,337 869.4,337.6 870.6,338 871.7,337.8 873,338.3 872.5,337.4 873.1,337.3 875.1,337.4 
				875.8,337.7 876.7,338.8 878.7,337.8 880,337.9 880,335.1 881.6,335.2 882.3,334.4 883.5,334.9 885.7,335.2 886.3,336.3 
				887,336.1 888.7,336.9 889.1,338.2 889.8,338.7 890.3,339.6 891.4,340.8 892.8,341.8 895.3,342.5 897.1,341.8 898.3,343.4 
				900.6,344.4 901.2,345.1 902.1,345 903.6,345.4 904.4,345.8 905.7,344.2 908,345 910.4,346.7 911.2,347.8 911.7,347.6 
				912.7,348.4 913.7,347.7 913.8,347 915.3,348.7 916,349.9 916.1,350.9 916.9,350.8 917.2,351.6 918.1,351.2 919.3,352 920,353.7 
				920.5,353.3 922.2,354.3 922.2,355.2 922.9,355.5 923.3,357.6 923.6,358.6 923.1,359.3 924.3,360.1 924.9,361.1 925.6,361.5 
				925.4,362.7 924.3,362.6 925.2,363.3 925.4,364.6 927,365.5 928.1,365.7 929.2,366.2 930.1,365.3 930.6,367.1 931,367.4 
				932,367.1 931.8,367.8 932.8,367.7 933.9,369.8 935.8,370.3 936,369.5 936.7,370.3 937.7,370.2 939,371.1 939.2,372 939.8,372 
				939.9,372.9 940.4,373.5 939.9,374.1 940.6,374.2 940.9,375 941.7,375.5 941.9,376.5 941.7,377 942.4,377.4 942.3,377.8 
				941.4,378.7 940.9,380.6 942.7,380.9 943.3,381.9 944.5,381.9 945.8,382.6 945.7,381.8 946.8,381.9 947,382.3 947.4,381.2 
				948.2,382.2 949.1,382.8 949.2,383.8 950.1,384.1 949.8,386.7 950.2,387.5 950.2,388.3 950.9,388.4 950.2,389.1 949.6,390.4 
				948.6,390.9 948.9,391.7 950,392.7 949.8,393.4 951,393.3 950.8,394 951.3,393.3 952.4,394 953.3,393.5 953.3,394.6 954.1,395.5 
				953.8,396.3 957,394.7 957.8,395.5 958.1,394.5 958.7,394.9 959,395.8 959.5,395.6 960,394.1 961.4,394.4 962,394.8 963.4,394.7 
				965.1,394.8 965.5,395.9 966.2,396.2 967.7,395.6 968.7,395 969.9,395.1 970.5,395.8 970.6,394.7 971.7,393.7 972.5,392.8 
				973.8,393.5 974.4,393.3 975.1,393.6 974.9,392.4 976.1,392.1 976.9,389.8 977.5,390 978,389.3 979,388.8 979.3,389.1 
				979.4,390.3 981.2,390.2 983.7,391 983.7,392.5 984,392.6 984.3,391.4 985.6,392.3 986.2,393.6 986.2,394.1 987.5,393.7 
				988.1,393 988.7,393.1 988.7,393.9 989.6,393.1 990.5,393.7 991,393.1 991.8,393.1 991.8,392.1 993.1,391.5 994.5,392 
				994.1,390.1 995.9,391.2 997,390.8 997.7,391 998.4,392 999.4,392.2 1000.2,393 1001.5,393.4 1001.6,394.5 1002.2,394.4 
				1002.6,394.9 1002.2,395.6 1002.8,396.3 1003.6,395.8 1003.3,394.9 1003.8,395 1004.9,395.9 1005.6,395.6 1006.2,396.7 
				1006.8,396.8 1008.2,396.5 1009.3,396.7 1009.2,397.1 1008.1,397.7 1008.7,398.1 1010.1,397.7 1010.7,398.2 1010.7,399.6 
				1011.1,399.8 1011.7,399.1 1012.2,399.8 1012,400.9 1012.8,400.6 1013.1,399.8 1013.7,400.1 1013.9,401.9 1010.3,407.8 
				1006.8,413.7 1003.7,418.7 1000.6,423.8 1001.2,423.9 1002.2,424.8 1003.5,424.7 1005,425.4 1006.4,424.8 1007.6,423.6 
				1008.2,423.8 1009.8,423.8 1010.8,424.2 1011.5,425.4 1012,427.2 1012.6,428.2 1013.7,429.2 1014.4,430.1 1016.5,432.4 
				1017.6,426.5 1018.7,420.5 1019.8,414.5 1020.9,408.6 1022.2,401.8 1023.4,395.1 1024.7,388.3 1025.4,384.4 1026.7,376.8 
				1026.7,375.2 1027.2,374.2 1027.3,373.3 1027.8,371.7 1027.3,369.6 1028.1,367.8 1027.4,366.5 1027.1,365 1026.3,363.9 
				1025.4,363.2 1024.8,361.6 1023.2,359.5 1024.1,357.4 1023.8,356 1023.2,354.3 1021.3,353.4 1020.2,352.2 1019.3,351.9 
				1018.1,350.8 1017.2,350.9 1015.2,348.7 1014.1,346.4 1014.4,338.1 1014.4,332.8 1015.5,332.2 1016.6,332.3 1016.9,332 
				1019.4,331.8 1020.7,331.4 1021,330.6 1022.5,330.3 1022.9,330.8 1024.8,329.7 1025.6,328.8 1026.1,328.8 1028.2,330.5 
				1028.3,330.9 1029.9,330.5 1030.4,331.2 1031.7,331.2 1032,330.6 1033.3,330.6 1033.3,329.8 1032.4,329.2 1032.2,328.6 
				1032.7,328 1032.5,326.7 1032.9,325.9 1032.1,324.9 1032.4,324.2 1031.7,323.8 1031.6,322.5 1029.6,321.5 1028.8,321.3 
				1028.2,321.6 1026.7,321.7 1025.8,321.3 1024.2,321.4 1022.5,321 1021.4,321.3 1021.4,320.8 1020.4,320.7 1019,321.5 
				1018.6,321.3 1018.6,314.7 1018.6,308.1 1019.7,308.1 1020.7,307.5 1022.7,307.6 1024.6,306.9 1026.7,307.2 1028,307.6 
				1034.4,307.9 1040.8,308.1 1047.2,308.3 1053.6,308.5 1053.5,307.9 1052.9,308 1053.1,307.4 1052.6,307 1052,307.2 1052.2,306.3 
				1051.1,305.9 1051.8,304.9 1052.2,303.8 1052.7,303 1054.5,303.6 1055.3,304.4 1055.9,306 1057.2,307.2 1059.1,307.9 
				1059.7,307.8 1061.4,306.8 1062.9,305 1063.5,304.6 1065.5,301.4 1067.8,299.6 1069.4,300.1 1070.8,302 1072.4,306 1073.2,306.6 
				1074.4,308.3 1075,309.8 1075.4,311.7 1076,313 1076.4,314.6 1076.5,316.5 1076.3,317.5 1076.6,320 1081.2,319.2 			"/>
			<path class="st3" d="M799.4,66.6L799.4,66.6c-0.6-0.4-1.2-0.7-1.9-1c-0.5-0.1-0.9-0.5-1-1.1c-0.1-0.6-0.6-1.1-1.3-1.1
				c-0.3,0-0.5,0.1-0.7,0.3c-0.4,0.3-0.7,0.6-1,0.9c-0.3,0.4-0.7,0.7-1.1,1c-0.8,0.4-1.1,1.3-1.6,1.9c-0.2,1,0,2-0.6,2.9
				c-0.4,0.5-0.8,1-1.3,1.5c-1,0.9-0.7,2.2-0.3,2.9c-0.2,0.9-0.4,1.7-0.6,2.4c-0.1,0.3-0.2,0.7-0.4,1c-0.6,0.9-0.6,1.4,0.3,1.9
				c0.4,0.2,0.7,0.3,0.6,0.9c0,0.4,0,0.8,0.1,1.2c-0.1,0.8-0.2,1.6-0.2,2.4c0.1,0.5-0.1,1.1-0.3,1.5c-0.4,0.7-0.8,1.5-1.2,2.3
				c0,0.6,0,1.1,0.1,1.7c0.1,0.3,0.2,0.6,0.4,0.9c0.2,0.3,0.5,0.6,0.9,0.7c0.3,0,0.6-0.1,0.8-0.4c0.5-0.6,0.9-1.2,1.2-1.9
				c0.6-1.3,1.2-2.5,1.8-3.8l0.3-2c0-0.1,0.1-0.2,0.1-0.3c0.1-1.1,0.2-2.2,1.2-3c0.4-0.4,0.6-0.8,0.7-1.4c0-0.6,0-1.3,0-1.9
				c0.1-0.2,0.2-0.4,0.4-0.6c0.2-0.2,0.6-0.4,0.6-0.6c0.1-1.1,0-2.3,0.1-3.4c0-0.4-0.1-0.7-0.5-0.8c-0.4-0.1-0.4-0.3-0.2-0.6
				c0.2,0,0.4,0,0.6,0c0.3-0.1,0.6-0.2,0.9-0.4l-0.4-0.6l0.3-0.2c0-0.3-0.1-0.5-0.1-0.8l-0.2-0.3c0.1-0.2,0.2-0.4,0.3-0.6
				c0.8-0.7,1.7-1.2,2.9-1c0.2,0,0.4-0.1,0.6-0.3C799.6,67,799.5,66.7,799.4,66.6z"/>
			<path class="st3" d="M818,71.7c-0.1-0.1-0.4,0.1-0.6,0.1c-0.5,0.1-0.7-0.3-0.8-0.7c-0.2-0.6-0.3-1.2-0.5-1.8v-0.2l0.7-0.7
				l0.2-0.2l-0.1,0l0-0.1l-0.3-0.7c0,0-0.1,0-0.1,0l-0.2,0.1l-0.2,0l-0.1-0.3H816l-0.2,0l-0.3,0c-0.4,0-0.6-0.1-0.5-0.6
				c0,0,0-0.1,0-0.1l-0.4-0.8l-0.1-0.4l-0.9-0.2l-0.6-0.2c0,0-0.1,0-0.1,0l0.2-1.3l0.1-0.2l0-0.1l-0.4-0.4c0,0-0.1,0-0.1,0l-0.2,0.1
				l-0.6,0.2l-0.4,0l-0.6,0.2c-0.1,0.1-0.1,0.2-0.2,0.3c-0.6,0.5-0.7,1.3-0.3,1.9c0.1,0.1,0.2,0.2,0.3,0.3l0.2,0l0.6,0.7
				c0.3-0.1,0.7-0.2,1-0.2c0.5,0,0.3,0.5,0.4,0.7l-0.1,0.6l0,0.6l-0.9,1.1c0.1,0,0.2,0.1,0.3,0.1c-0.1,0-0.2,0-0.3-0.1l-0.3,0.1
				l-0.3-0.1c0,0-0.1,0-0.1,0l-0.6,0l-0.2-0.2l-0.7-0.2l-1.3,1.1l-0.3,0.6c0.2-0.1,0.5-0.2,0.7-0.3c-0.2,0.1-0.5,0.2-0.7,0.3l0,0.4
				l-0.3,0.2c-0.7,0.8-1.1,1.8-1.1,2.8c0.1,0.8-0.1,1.6-0.4,2.3c-0.3,0.5-0.4,1.2,0.3,1.6c0.1,0.1,0.2,0.2,0.2,0.3
				c0.1,0.6,0.2,1.3,0.3,1.9c0,0.4,0,0.8,0,1.2c0.1,0.2,0,0.5,0.2,0.6c0.2,0.2,0.5,0.4,0.8,0.5c0.1,0,0.3-0.2,0.5-0.3l0,0l0.2-0.1
				l1.9-0.5l0.3,0c0.2-0.6,0.5-1.1,1-1.5c-0.5,0.4-0.8,0.9-1,1.5l0.9-0.6l1.8-1.6l0.3,0c0.8,0,1.5-0.1,1.7-1c0-0.1,0.1-0.2,0.2-0.3
				c0.5-0.7,0.7-1.6,0.5-2.4c-0.1-0.5-0.1-0.9,0-1.4c0-0.1,0.2-0.2,0.3-0.3c0.3-0.1,0.6-0.2,1-0.3c0.2-0.3,0.4-0.6,0.6-1
				C818.2,72,818.2,71.8,818,71.7L818,71.7z M814.1,66c0.1,0.1,0.3,0.2,0.4,0.4C814.3,66.2,814.2,66.1,814.1,66z"/>
		</g>
	</g>
</g>
<g id="Capa_2">
</g>
</svg>
