<svg xmlns="http://www.w3.org/2000/svg" width="144" height="144" viewBox="0 0 144 144"><path d="M114.8,131.1L113.36,131.89L112.13,132.92L110.79,133.46L109.47,134.63L109.11,135.52L108.3,136.11L106.78,136.41L105.31,137.81L105.09,138.84L104.58,139.21L103.26,139.28L101,139.79L100.27,140.31L99.92,143.25L95.67,143.23L92.24,143.94L90.11,144L88.83,143.72L87.28,142.95L88.03,141.91L89.98,140.9L92.07,140.14L93.39,138.65L94.02,136.62L91.72,133.63L88.9,129.57L87.91,129.3L85.9,129.47L85.06,128.58L83.98,128.7L84.07,129.18L83.09,129.4L81.73,129.08L82.54,126.78L82.48,125.93L79.66,122.61L79.56,122.16L81.95,123.1L82.72,123.01L82.17,121.67L81.34,120.65L81.04,118.87L79.6,118.62L77.81,119.62L76.86,117.08L75.04,113.6L74.2,113.14L74.91,112.79L74.46,111.92L74.91,110.78L74.76,109.87L72.72,109.17L72.63,108.46L71.8,107.62L71.04,108.16L69.7,108.42L69.46,107.73L67.75,107.43L67,106.13L65.4,105.4L64.08,105.47L61.9,104.65L62.06,104.1L61.03,103.47L60.88,102.87L60.14,103.02L58.97,101.33L59.51,100.7L57.83,99.29L56.19,98.81L55.54,96.87L54.33,96.29L53.29,97.21L52.6,96.86L51.94,95.37L51.23,94.92L50.26,94.95L49.57,94.31L48.6,92.54L48.14,92.64L47.43,91.83L46.6,91.82L45.02,90.87L44.33,91.02L42.4,90.07L42.08,89.26L41.34,89.58L40.31,89.34L37.88,89.31L37.26,88.54L35.56,87.85L34.62,87.85L33.02,86.86L32.24,85.73L30.67,86.05L29.36,86.87L29.36,80.93L30.36,80.68L30.51,79.75L31.93,79.14L33.28,79.58L36.95,78.23L38.66,77.09L39.88,76.96L40.94,78.26L42.13,78.17L42.53,77.57L43.49,77.92L44.39,77.1L45.98,77.19L46.97,77.56L48.13,77.47L49.17,76.71L50.4,76.6L51.63,75.56L51.73,76.15L52.94,77.53L53.94,75.62L53.3,75.93L52.85,75.18L52.26,75.37L50.8,74.33L51.4,73.48L49.93,72.04L49.51,71.07L49.94,70.38L49.8,68.67L49.11,67.54L49.72,66.77L49.5,66.05L50.49,65.59L49.41,62.74L50.77,61.96L49.78,60.48L49.8,59.07L48.11,58.83L46.75,59.14L45.58,58.54L43.86,58.99L43.52,57.39L42.7,56.78L42.06,55.36L42.64,54.69L41.69,53.65L41.75,51.83L41.53,51.17L40.71,50.83L39.73,49.78L39.62,47.53L39.93,46.7L39.49,46.19L40.06,44.91L39.2,43.35L38.82,41.39L38.65,39.1L38.12,38.72L37.51,36.71L36.95,36.16L37.81,35.16L37.37,34.58L37.49,33.62L36.25,33.09L34.68,29.65L34,29.14L34.7,28.64L34.36,27.48L34.63,26.62L34.38,25.55L34.5,23.71L34.12,22.29L34.15,21.11L32.61,18.55L32.12,18.33L30.64,15.13L29.2,12.96L30.62,13.3L31.28,12.2L31.73,10.13L32.47,7.74L35.58,7.21L35.93,6.59L36.43,8.11L38.26,9.73L38.23,7.9L38.76,7.36L40.38,7.05L43.3,7.1L44.12,7.78L45.16,7.85L45.97,8.44L46.12,9.36L47.55,9.48L48.77,10.12L49.36,11.08L50.97,11.77L51.71,12.71L53.03,13.32L54.11,13.36L53.17,12L52.38,9.69L52.46,8.79L53.11,7.97L52.16,5.5L52.63,4.06L53.72,3.93L54.11,4.75L54.87,4.29L54.3,3.76L54.85,3.41L55.04,2.41L55.89,1.82L56.31,3.31L57.41,2.87L56.92,4.37L58.29,3.03L58.29,1.98L58.94,1.93L59.72,3.21L60.98,1.19L62.44,1.16L63.3,0.5L64.82,0L64.73,0.66L65.59,1.58L66.78,1.31L68.35,2.23L69.34,2.13L69.62,2.69L71.13,2.19L71.85,4.18L72.24,4.3L72.42,5.99L70.37,7.86L69.32,7.7L69.24,9.71L68.01,8.64L66.99,8.73L66.34,10.34L64.75,11.84L64.17,12.9L62.34,13.97L61.19,15.32L61.35,15.76L63.07,16.61L63.99,18.35L64.81,18.48L65.32,20.76L66.19,22.18L66.8,22.5L67.07,23.43L67.75,23.98L68.98,26.99L69.33,27.37L70.25,26.68L70.99,27.68L71.84,27.83L71.55,28.95L71.18,28.55L70.93,29.49L71.41,30.65L69.04,31.71L67.38,31.95L66.51,32.43L66.51,33.39L67.34,34.13L70.12,34.44L70.29,33.43L71.26,33.43L71.32,35.75L70.38,38.74L70.46,39.45L72.24,40.81L70.4,40.69L69.69,41.22L69.01,40.3L67.69,41.43L67.98,42.44L67.78,43.3L68.52,43.72L68.34,44.75L67.03,45.64L66.92,47.47L68.49,50.21L69.6,50.79L69.51,51.51L70.14,52.35L70.51,54.6L71.47,55.01L71.96,54.69L72.44,56.45L72.05,56.9L72.48,59.02L73.43,59.02L73.86,59.62L73.54,60.49L73.9,61.04L73.31,61.66L73.48,62.81L75.17,63.31L74.67,64.33L75.63,65.88L76.21,65.83L76.23,66.58L75.51,66.68L76,67.69L75.07,67.87L75.32,69.04L76.36,69.55L76.95,69.33L77,70.22L77.8,69.66L78.09,70.8L78.73,70.98L78.62,71.92L79.66,72.06L79.86,71.49L81.07,71.95L81.1,73.7L82.31,74.27L82.38,75.02L83.94,75.4L84.46,76.49L84.3,77.44L85.06,76.99L85.41,77.53L86.92,77.7L86.57,78.17L88.09,78.86L89.43,81.64L88.65,83.95L87.8,84.35L86.65,85.49L86.81,86.7L88.3,87.34L89,88.46L88.62,88.75L87,88.13L87.25,89.02L88.13,89.28L89.2,89.11L89.38,89.77L87.68,91.25L88.77,92.63L89.43,93L89.05,94.16L89.17,95.19L88.66,96.05L88.67,97.04L87.49,97.46L87.66,100.43L86.67,101.73L86.9,103.51L87.55,104.04L88.37,103.59L89.79,103.94L90.55,103.35L91.63,103.4L92.32,104.17L94.21,104.94L95.11,105.85L95.19,107.52L94.52,109.75L94.72,111.39L95.54,113.54L96.49,114.37L96.49,114.87L98.42,117.52L99.29,117.46L102.55,114.71L103.24,114.45L104.77,115.23L106.69,115.26L108.47,114.59L108.42,117.15L109.16,118.4L109.18,119.84L109.96,121.98L110.3,124.86L111.21,125.51L112.81,127.62L114.4,128.74Z" fill="#B3CFC0" stroke="#007139" stroke-width="0.5"/></svg>