<svg xmlns="http://www.w3.org/2000/svg" width="144" height="144" viewBox="0 0 144 144"><path d="M26.59,52.73L26.54,53.42L26.01,53.29L26.05,52.97ZM38.77,37.23L39.64,37.56L39.64,37.78L38.79,37.79ZM43.06,22.72L43.58,22.83L42.69,23.17L42.63,22.79ZM49.16,15.17L49.81,15.76L50.47,15.88L50.55,16.41L50.12,16.91L49.48,16.56L48.95,16.96L49.17,17.23L48.55,17.39L48.55,16.07ZM57.94,6.26L57.98,6.63L57.62,7L57.77,7.36L57.16,7.61L57.02,8.35L56.25,8.69L56.84,8.99L56.84,9.37L56.17,9.25L55.93,10.01L55.58,10.27L55.28,11.7L55.35,12.2L54.85,13.48L54.25,13.89L54.89,14.37L54.33,14.82L53.82,14.64L53.54,15.23L52.9,15.84L53.41,16.43L53.38,17.23L54.17,17.69L54.16,17.88L52.98,17.49L52.65,17.57L52.73,18.85L52.26,19.63L52.49,19.97L51.96,20.33L52.62,20.58L52.39,21.54L51.34,21.71L51.86,23.55L51.36,23.57L50.72,23.05L51.12,23.1L51.18,22.4L51.07,21.3L50.23,21.01L51.14,20.72L50.48,20.42L49.87,20.99L49.05,21.23L48.15,22.09L47.43,22.22L45.6,24.5L45.19,24.38L45.04,24.73L44.41,24.59L44.34,24.25L45.28,23.74L46.19,23.5L46.45,22.86L47.4,21.93L47.93,21.19L48.08,20.71L48.77,21.04L48.67,20.75L47.42,20.24L47.75,19.81L48.56,19.69L48.39,19.05L48.57,18.54L49.03,18.3L49.06,19.27L49.66,19.45L50.24,19.06L50.7,19.18L50.94,18.48L51.88,18.24L51.63,17.65L51.51,15.12L50.86,15.03L51.09,14.27L50.58,14.17L50.34,13.81L49.77,14.74L49.56,14.53L50.03,14.11L49.97,13.47L50.74,13L51.92,11.86L52.31,11.05L51.9,10.58L52.2,9.33L51.86,8.67L51.42,8.32L51.56,7.86L52.89,7.53L53.57,6.97L53.79,5.8L54.96,5.13L55.81,4.4L55.92,3.67L57.37,3.33L58.78,3.21L59.76,2.85L59.98,3.3L59.85,4.5L59.18,5.43L57.89,5.65ZM90.8,74.64L91.38,75.05L91.28,75.36L90.52,75.59L90.25,75.96L92.74,75.99L92.59,76.51L93.85,77.05L93.79,77.36L94.46,77.86L93.92,78.4L93.82,78.78L94.55,79.62L94.3,79.82L94.34,80.71L94.73,82.13L94.98,82.39L95.55,82.41L96.3,82.9L96.09,83.37L95.39,83.9L95.62,84.83L95.34,85.3L94.72,85.73L93.67,85.97L93.44,86.31L93.94,86.9L95.19,87.26L94.23,87.94L94.11,88.54L93.01,88.13L92.31,89.31L91.78,89.66L91.54,89.73L91.3,90.46L90.51,90.61L89.16,90.46L88.97,92.04L88.35,91.18L88.87,90.58L88.67,90L88.17,89.72L88.38,88.79L88.36,87.93L87.52,86.65L87.08,86.71L87.11,86.32L86.76,85.29L87.23,85.1L87.24,84.24L86.89,83.88L86.1,83.51L86.34,82.78L86.38,82L85.93,81.22L86.18,80.67L85.99,80.2L86.01,79.32L85.56,78.2L85.87,77.64L85.51,77.32L85.63,76.97L86.28,77.03L86.78,76.52L86.81,76.1L87.22,75.72L88.15,75.35L87.21,74.14L88.18,74.13L88.91,74.41ZM101.79,81.03L100.91,81.04L100.5,81.27L98.63,79.74L98.43,79.35L97.81,79.06L98.09,78.71L97.45,78.33L97.4,77.82L97.57,76.45L96.79,75.98L96.46,75.42L96.55,75.01L97.13,74.9L97.45,75.27L97.97,75.15L99.43,75.62L99.96,75.46L100.48,74.96L100.91,75.03L101.15,74.67L102.35,74.26L103.22,74.62L104.18,74.06L104.84,74.83L105.34,74.68L105.8,75.25L105.13,76.6L104.08,77.74L104,78.28L103.58,78.41L103.19,78.91L102.62,78.87L100.76,79.04L100.44,79.92L101.31,80.07L102.34,79.87L102.17,80.83ZM112.97,88.05L112.79,88.99L113.29,90.3L113.11,90.9L112.56,90.91L112.45,91.43L111.64,91.43L111.46,91.86L110.95,91.79L110.05,91.27L109.27,91.54L108.77,91.42L108.17,91.71L107.73,91.63L107.42,92.2L106.96,92.1L106.33,92.33L105.98,92.83L104.53,93.31L104.26,93.78L103.77,93.65L103.29,93.88L103.16,94.34L102.41,94.26L102.37,94.76L101.82,95.79L101,95.92L100.2,96.89L100.48,97.06L99.92,97.66L99.29,98.04L99.46,98.34L98.79,98.97L98.45,99.58L98.52,99.92L97.74,100.12L96.68,99.84L96.11,99.23L95.96,98.81L95.99,98.05L96.32,97.77L96.33,97.08L96.74,96.64L97.37,96.42L97.47,96.03L98.1,95.44L98.79,95.23L99.77,93.88L99.77,93.5L100.72,93.24L100.94,92.97L101.82,92.73L102.05,91.91L102.44,91.98L103.51,90.89L104.09,90.66L104.42,91.02L104.94,91.07L105.45,90.42L106.29,90.22L106.35,89.67L107.19,89.44L108.15,89.39L108.34,88.73L110.3,87.52L111.06,87.51L111.69,87.87ZM59.67,17L60.95,17.42L61.33,18.05L61.09,18.4L61.95,19.14L61.27,19.92L60.34,20.49L60.49,21.2L61.18,21.28L61.47,21.72L61.16,22.45L60.57,22.75L60.38,23.82L60.75,23.98L60.86,24.55L61.66,24.63L61.57,26.12L61.35,26.31L60.11,26.18L58.22,26.41L57.28,26.3L56.65,26.98L56.07,27.12L55.32,27.88L55.52,28.08L55.01,28.71L54.4,28.75L54.29,29.1L53.69,28.36L52.88,28.16L52.47,28.36L51.93,28.41L51.6,28.8L51.22,28.77L50.31,27.98L52.09,24.2L52.58,23.86L53.66,23.72L54.38,23.19L54.44,22.55L54.25,21.82L54.73,21.79L55.7,21.43L55.72,21.07L56.27,20.72L56.14,20.1L56.38,19.37L56.16,18.88L56.77,18.37L57.47,18.3L58.54,17.77L58.85,17.2L59.27,17.47L59.42,16.88ZM68.31,19.22L68.28,19.46L69.01,19.66L69.43,19.11L69.61,19.29L70.18,18.77L69.91,18.58L70.23,17.96L71.32,17.13L71.65,17.33L71.76,17.95L71.57,18.36L72.27,18.69L72.44,19.48L72.08,19.51L72.35,19.9L72.34,21.68L71.92,22.06L71.15,21.86L70.27,22.11L69.61,21.97L69.1,22.55L68.59,22.6L68.47,23.5L68.07,23.59L67.75,23.77L67.41,23.29L66.59,23.37L67.2,22.76L66.9,22.21L67.33,21.98L67.26,21.41L67.84,21.2L67.11,20.61L67.4,20.07L67.36,19.62L67.92,19.09ZM101.79,81.03L102.17,80.83L102.34,79.87L101.31,80.07L100.44,79.92L100.76,79.04L102.62,78.87L103.19,78.91L103.58,78.41L104,78.28L104.08,77.74L105.13,76.6L105.8,75.25L105.34,74.68L104.84,74.83L104.18,74.06L103.22,74.62L102.35,74.26L101.15,74.67L100.91,75.03L100.48,74.96L99.96,75.46L99.43,75.62L97.97,75.15L97.45,75.27L97.13,74.9L96.38,73.4L95.46,72.8L94.9,72.8L94.89,72.53L95.77,72.6L96.09,72.91L96.8,72.6L96.96,73.24L98.14,73.2L99.03,72.29L99.39,71.05L99.29,70.55L99.69,70.43L99.98,69.95L100.72,70.18L101.09,69.81L102.01,69.92L102.7,70.22L103.08,69.87L103.4,70.13L104.41,69.63L105.76,69.91L105.55,72.04L105.81,72.33L105.56,72.95L105.85,74.38L106.75,75.12L107.07,75.73L106.43,76.64L106.6,77.08L106.2,77.3L106.54,78.01L105,79.32L104.87,79.81L104.41,80.07L103.27,81.09ZM68.07,23.59L68.47,23.5L68.59,22.6L69.1,22.55L69.61,21.97L70.27,22.11L71.15,21.86L71.92,22.06L72.34,21.68L72.35,19.9L72.08,19.51L72.44,19.48L72.27,18.69L71.57,18.36L71.76,17.95L71.65,17.33L71.32,17.13L70.23,17.96L69.91,18.58L70.18,18.77L69.61,19.29L69.43,19.11L69.01,19.66L68.28,19.46L68.31,19.22L68.5,18.45L67.66,19L67.46,19.05L67.56,18.08L67.98,18.01L68.27,17.55L68.19,16.59L69.01,16.62L69.91,15.85L70.59,15.96L72.13,17.28L74.17,20.05L73.91,20.93L73.63,21.19L73.38,22.19L73.4,22.72L72.92,23.97L72.87,24.85L71.46,25.4L70.95,25.77L69.71,25.52L68.79,25.11L67.93,25.41L67.59,25.21L67.5,25.11ZM112.4,127.65L112.2,129.32L111.95,129.49L112.08,130.34L111.71,131.88L111.63,132.75L105.51,138.23L100.66,142.54L99.21,143.87L98.03,143.51L97.78,143.64L97.38,143.34L98,142.97L97.96,142.48L99.18,140.67L100.08,139.94L99.49,138.99L99.55,138.58L99.98,138.16L99.06,137.3L98.38,137.16L97.9,136.82L97.66,136.31L97.52,135.23L97.82,134.58L98.12,134.43L98.82,134.55L99.28,134.03L100.19,133.99L100.51,133.57L101.15,133.49L102.03,132.88L103.11,133.08L103.75,132.94L103.54,131.93L103.03,131.99L102.87,131.7L103.29,131.58L103.39,131.14L103.85,131.01L104.36,130.18L104.72,130.14L105.09,129.41L106.57,129.49L107.11,129.91L108.19,129.22L108.63,129.16L109.46,128.22L109.8,128.22L110.3,127.63ZM83.97,60.61L83.44,61.54L82.74,61.51L82.37,61.21L81.85,61.32L81.16,61.1L81.11,60.62L80.73,60.22L79.9,60.09L79.85,59.7L80.53,59.24L80.85,57.87L81.73,57.01L82.44,56.76L82.94,56.27L83.14,56.96L83.64,57.1L83.96,56.76L84.99,56.8L84.78,57.41L85.17,57.91L84.71,58.03L84.26,59.17L83.65,60.03ZM72.28,41.96L73.37,42.55L74.74,42.55L74.92,42.86L75.63,42.76L76.18,43.01L78.7,43.03L79.21,44.04L79.4,44.87L79.31,45.67L79.07,46.05L78.15,46.81L78.09,47.13L78.81,47.85L79.23,48.66L79.22,49.01L78.73,49.68L78.09,50.18L78.01,50.52L78.32,51.07L76.43,51.9L76.11,52.52L75.37,52.6L75.36,52.28L73.74,53.12L73.75,52.69L74.11,52.07L75.09,51.72L74.92,51.49L74.22,51.41L74.06,51.13L73.11,50.89L72.86,51.26L71.96,51.33L71.54,50.94L70.95,50.9L69.6,50.14L69.45,49.73L69.84,49.05L69.73,48.48L70.35,47.78L71.01,47.21L71.22,46.63L70.91,46.17L71.5,45.37L71.64,44.66L72.13,44.44L72.36,44.02L71.7,43.42L72.19,42.82L71.53,42.09ZM56.84,8.99L56.25,8.69L57.02,8.35L57.16,7.61L57.77,7.36L57.62,7L57.98,6.63L57.94,6.26L58.22,6.46L58.56,6.09L59.17,6.75L58.98,6.88L59.82,7.51L59.81,8.52L60.45,8.36L61.06,8.81L61.26,8.31L61.91,8.48L61.2,9.68L61.48,10.44L60.99,10.2L61.04,9.85L60.51,9.71L60.12,9.95L59.18,9.8L58.89,9.67L57.97,9.78L57.83,9.38ZM72.28,41.96L71.53,42.09L72.19,42.82L71.7,43.42L72.36,44.02L72.13,44.44L71.64,44.66L71.5,45.37L70.91,46.17L71.22,46.63L71.01,47.21L70.35,47.78L69.8,47.75L69.35,47.33L68.7,47.62L67.91,47.61L67.63,47.13L66.35,46.03L65.84,45.78L65.81,45.2L65.01,45.03L64.51,44.53L64,44.97L63.92,44L64.63,43.27L64.03,43.55L63.32,43.11L62.18,43.09L60.66,42.38L60.76,41.86L60.3,41.78L59.53,42.37L59.51,42.83L58.97,43.03L58.5,44.29L57.95,43.46L57.16,43.25L57.17,43.87L56.77,43.92L56.38,43.11L56.69,42.85L56.82,42.16L56.48,41.9L56.83,41.62L56.63,41.08L56.8,40.17L57.04,40.21L57.75,38.42L58.18,36.95L58.07,36.32L58.35,35.19L58.79,34.44L59.35,34.42L59.73,34.68L60.34,34.61L60.54,34.86L60.95,34.58L61.94,35.12L62.03,35.93L61.61,37.18L62.09,37.53L61.88,37.97L63.48,38.01L63.84,38.34L64.32,37.93L65.15,38.13L65.6,38.58L66.66,38.98L67.43,38.74L67.93,38.9L67.86,38.53L68.42,38.51L68.94,37.99L69.43,38.29L70.05,37.95L70.89,38.46L71.29,38.98L71.64,38.68L72.64,38.69L72.38,39.13L72.69,39.4L72.22,39.64L72.09,40.24L72.55,40.99ZM69.71,25.52L70.95,25.77L71.46,25.4L72.87,24.85L73.58,25.63L74.73,25.66L76.11,26.27L76.85,26.75L77.36,27.4L77.72,28.21L78.58,28.99L78.81,29.45L78.37,30.15L77.58,31.01L76.35,31.5L75.99,31.9L75.65,31.91L75.28,30.95L74.49,30.63L73.99,30.62L73.83,30.91L72.87,30.95L72.58,31.41L72,31.65L71.66,31.19L70.79,30.66L70.53,30.97L69.84,30.69L70.13,30.4L70.41,29.46L69.72,29.3L69.53,28.82L69.23,29.09L68.56,28.87L68.54,28.42L69.09,26.62ZM109.31,68.54L110.06,68.09L110.81,68.52L111.66,68.79L112.21,68.66L113.31,69.4L113.52,69.93L113.29,71.29L113.49,72.24L115.3,74.21L114.78,74.75L114.2,74.88L113.25,75.84L113.28,76.33L113.76,76.7L113.5,77.74L113.86,78.22L113.14,78.47L112.5,77.65L112.41,78.33L111.89,78.16L111.36,78.3L110.79,77.47L110.55,75.97L110.13,75.72L109.75,75.09L109.64,74.33L110.05,74.53L110.32,73.68L109.77,73.38L109.28,72.76L109.44,72.01L109.74,71.87L109.42,71.39L109.54,70.77L108.91,70.37L109.14,68.88ZM98.54,68.25L98.01,68.98L97.77,69.16L96.78,68.97L96.86,68.75L95.61,69.05L94.78,68.94L94.21,69.15L94.09,68.51L93.64,68.47L93.22,67.84L92.49,67.47L92.18,67.58L92.68,67.23L93.83,67.25L95.24,67.6L95.99,68.42L96.57,68.61L97.4,68.39L98.16,68.53ZM105.76,69.91L104.41,69.63L103.4,70.13L103.08,69.87L102.7,70.22L102.01,69.92L101.09,69.81L100.72,70.18L99.98,69.95L99.93,69.91L100.56,68.99L101.17,68.42L102.36,68.18L102.95,68.33L103.71,67.81L104.29,68.4L104.69,67.22L104.98,67.36L105.65,66.94L106.21,67.22L106.68,67.05L106.84,66.38L107.12,66.24L107.26,66.77L107.7,66.98L108.31,66.77L109.03,67.62L108.43,67.53L108.39,68.1L108.86,68.1L109.31,68.54L108.61,68.76L108.24,69.13L108.13,69.71L107.5,69.45ZM90.8,74.64L88.91,74.41L88.18,74.13L87.21,74.14L86.4,73.98L86.64,72.76L86.28,72.83L86.18,72.24L85.55,71L85.63,70.54L85,70.58L84.99,70.26L84.41,68.81L83.24,68L83.28,67.75L82.67,67.49L81.93,67.63L80.72,67.33L80.32,66.88L80.4,66.5L80.03,66.24L79.44,66.51L78.96,66.47L78.89,66.15L77.84,66.01L77.29,65.57L77.25,64.68L76.62,63.73L76.59,63.29L76,62.35L75.31,61.82L74.48,61.71L74.34,61.29L74.49,60.55L74.27,60.28L74.41,59.18L74.2,58.6L73.53,58.37L73.68,57.69L73.41,56.81L72.91,56.65L73.35,55.41L72.95,55.16L72.7,54.63L73,54.53L73.74,53.12L75.36,52.28L75.37,52.6L76.11,52.52L76.43,51.9L78.32,51.07L79.15,50.32L80.02,50.35L80.53,50.92L80.64,51.68L80.09,52.57L79.99,53.05L80.47,53.96L81.02,54.35L82.59,55.11L82.84,55.52L82.94,56.27L82.44,56.76L81.73,57.01L80.85,57.87L80.53,59.24L79.85,59.7L79.9,60.09L80.73,60.22L81.11,60.62L81.16,61.1L81.01,61.49L80.97,63.06L82.28,64.59L82.77,65.36L83.53,65.78L84.36,66.68L84.6,67.2L84.97,66.9L85.64,67.15L86.08,67.83L88.33,68.12L88.5,69.18L88.8,69.61L89.73,70.22L90.53,71.55L90.61,72.18L90.97,72.65L90.53,72.98L91.11,73.92L90.62,74.11ZM60.11,26.18L61.35,26.31L61.57,26.12L61.66,24.63L60.86,24.55L60.75,23.98L60.38,23.82L60.57,22.75L61.16,22.45L61.47,21.72L61.18,21.28L60.49,21.2L60.34,20.49L61.27,19.92L61.95,19.14L62.32,18.74L62.87,18.74L63.36,18.29L63.44,18.85L63.86,18.64L64.3,18.81L64.88,18.52L65.85,18.98L66.07,19.41L66.83,19.38L67.66,19L68.5,18.45L68.31,19.22L67.92,19.09L67.36,19.62L67.4,20.07L67.11,20.61L67.84,21.2L67.26,21.41L67.33,21.98L66.9,22.21L67.2,22.76L66.59,23.37L67.41,23.29L67.75,23.77L68.07,23.59L67.5,25.11L67.59,25.21L66.87,26.05L66.26,25.42L65.69,25.66L65.57,26.11L65.07,26.36L65.06,26.76L64.58,27.15L63.98,26.7L64.16,27.31L63.51,28.35L63.09,28.27L62.18,27.74L62.46,26.75L61.96,26.85L61.74,27.27L61.1,27.13L60.26,26.74ZM98.01,68.98L98.54,68.25L97.92,68.31L97.66,67.62L97.94,66.92L98.49,66.37L97.87,65.83L97.73,65.21L96.88,64.82L96.57,63.86L96.3,63.62L96.3,62.81L96.82,62.74L97.25,62.08L97.06,61.62L97.27,61.19L97.19,61.77L97.89,61.88L98.43,61.47L99.12,61.65L99.58,62.3L100.18,62.74L99.84,63.05L100.4,63.34L100.85,64.04L101.82,64.53L101.77,64.96L102.55,65.27L102.53,65.73L103.41,65.48L104,66.25L103.3,66.29L103.16,66.75L103.64,66.87L104.23,66.38L104.69,67.22L104.29,68.4L103.71,67.81L102.95,68.33L102.36,68.18L101.17,68.42L100.56,68.99L99.93,69.91L99.25,70L98.33,69.42ZM52.47,28.36L52.88,28.16L53.69,28.36L54.29,29.1L54.4,28.75L55.01,28.71L55.52,28.08L55.32,27.88L56.07,27.12L56.65,26.98L57.28,26.3L58.22,26.41L60.11,26.18L60.26,26.74L61.1,27.13L61.74,27.27L61.96,26.85L62.46,26.75L62.18,27.74L63.09,28.27L62.52,29.24L62.95,29.98L62.37,30.61L62.04,31.58L61.27,32.79L61.95,32.83L61.77,33.22L61.97,33.59L61.23,33.83L59.51,33.93L58.79,34.44L58.35,35.19L58.07,36.32L57.2,35.64L56.63,35.52L56.36,34.68L56,34.32L54.96,34.19L55.06,33.95L54.51,33.69L54.6,33.1L54.02,33.08L53.75,33.83L53.29,33.9L53.36,33.36L52.89,32.93L53.15,32.64L52.83,32.24L53.34,31.25L52.85,30.77L52.97,29.61L52.58,29.5L52.89,29.05ZM88.97,92.04L89.16,90.46L90.51,90.61L91.3,90.46L91.54,89.73L91.78,89.66L91.81,90.46L91.63,90.77L92.09,91.87L92.42,92.07L92.27,93.02L93.06,93.9L94.28,93.96L94.68,94.6L95.45,94.66L95.58,95.48L95.06,95.91L94.58,95.93L94.47,96.84L94.56,97.6L94.42,98.06L94.83,98.37L95.96,98.81L96.11,99.23L96.68,99.84L97.74,100.12L97.8,100.69L98.16,101.05L98.22,101.76L98.64,102.01L98.38,102.93L97.79,104.3L97.23,104.77L97.65,105.13L98.07,105.93L98.35,105.98L98.81,107.36L98.68,108.15L98.08,108.66L97.23,109.04L96.58,108.73L96.04,108.97L96.01,109.55L95.44,109.88L95.36,110.5L95.72,110.68L95.67,111.09L95.12,111.54L94.49,112.35L95,112.52L94.72,113.18L94.17,113.77L93,113.85L91.91,113.5L91.44,114.1L91.4,115.27L91.58,115.76L91.4,116.74L91.16,116.85L91.2,117.55L91.68,118.01L91.42,118.55L91.14,118.52L90.89,119.55L91.14,120.04L90.66,120.52L90.89,121.95L90.48,122.71L89.89,123.05L90.05,124.53L90.03,125.4L89.39,125.75L89.35,125.35L89,125.38L88.66,124.97L88.38,125.36L87.91,125.45L87.93,126.01L87.04,126.49L87.26,127.54L86.66,127.51L85.94,126.44L86.33,125.67L86.15,125.35L86.24,124.57L87.08,124.25L87.12,123.51L86.99,122.04L87.29,120.81L87.15,120.52L87.34,119.43L87.97,119.09L88.49,118.49L89.01,118.28L90.06,118.33L90.53,118.07L90.59,117.23L90.14,116.89L89.73,116.96L89.31,116.27L89.13,114.32L88.7,114.28L88.99,113.53L88.91,112.7L88.63,112.17L88.9,109.77L88.31,109.25L88.18,108.01L87.81,107.89L86.9,106.83L86.66,106.18L86.21,105.83L85.78,104.58L85.33,104.79L85.5,104.06L85.25,102.81L84.5,102.12L84.46,101.49L83.96,101.27L83.94,100.89L82.97,99.6L82.72,98.84L83,98.22L83.38,98.23L83.28,97.85L83.6,97.37L84.7,97.12L85.02,96.67L85.37,96.67L86.12,96.25L86.57,96.41L86.78,96.06L87.51,95.88L88.41,96.4L88.69,96.11L88.71,95.5L89.58,94.88L89.33,94.03L88.64,93.64L88.92,92.86ZM81.16,61.1L81.85,61.32L82.37,61.21L82.74,61.51L83.44,61.54L83.97,60.61L84.21,60.28L84.81,60.58L85.97,60.12L86.14,59.62L86.82,59.97L87.23,59.52L86.94,59.33L87.51,58.87L88.49,58.7L89.11,59.02L90.14,58.38L91.04,57.57L92.23,57.61L92.56,58.75L93.19,59.69L93.71,59.73L94.37,60.01L94.62,60.49L95.14,60.82L94.92,61.41L95.21,62.17L94.57,61.96L94.45,62.31L93.99,62.32L94.15,62.85L93.47,62.28L93.22,62.64L92.81,62.55L92.48,63.14L92.07,63.42L91.93,64.17L91.33,64.79L90.85,64.59L90.39,64.95L90.1,65.49L89.73,65.66L90.09,66.4L89.62,66.72L89.42,66.41L88.88,66.79L87.84,66.19L87.38,66.49L86.38,66.57L86.82,66.96L86.43,67.27L86.03,67.01L85.64,67.15L84.97,66.9L84.6,67.2L84.36,66.68L83.53,65.78L82.77,65.36L82.28,64.59L80.97,63.06L81.01,61.49ZM97.74,100.12L98.52,99.92L98.45,99.58L98.79,98.97L99.46,98.34L99.29,98.04L99.92,97.66L100.48,97.06L100.2,96.89L101,95.92L101.82,95.79L102.37,94.76L102.41,94.26L103.16,94.34L103.29,93.88L103.77,93.65L104.26,93.78L104.53,93.31L105.98,92.83L106.33,92.33L106.96,92.1L107.42,92.2L107.73,91.63L108.17,91.71L108.77,91.42L109.27,91.54L110.05,91.27L110.95,91.79L111.46,91.86L111.64,91.43L112.45,91.43L112.56,90.91L113.11,90.9L113.29,90.3L112.79,88.99L112.97,88.05L113.59,88.39L114.23,88.31L114.49,88.81L114.05,89.31L114.45,89.53L115.01,89.47L115.78,90.35L116.59,89.8L117.16,89.87L117.18,90.7L117.89,90.58L117.92,92.29L117.61,93.15L117.99,93.86L117.51,94.45L117.87,95.55L117.49,96L117.33,96.85L116.95,97.4L116.76,98.08L117.09,99.83L116.84,100.67L115.74,101.04L115.11,101.98L113.88,102.81L113.45,103.58L112.89,102.6L113.17,102.33L112.95,101.46L112.17,101.37L111.69,101.04L111.36,100.46L110.82,100.33L109.95,99.81L109.88,99.35L108.45,99.51L107.58,99.32L107.23,99.3L106.65,99.88L106.23,100.04L105.02,99.79L104.48,100.09L103.85,100.81L102.67,101.35L101.97,101.9L101.32,102.01L100.83,101.81L99.53,101.8L98.64,102.01L98.22,101.76L98.16,101.05L97.8,100.69ZM98.77,91.42L99.49,90.79L99.48,90.16L99.75,89.68L98.79,89.44L98.83,89.13L100.36,88.09L100.71,87.45L101.96,86.37L102.53,86.19L102.62,85.75L102.28,85.04L102.45,84.65L102.18,84.22L102.54,83.97L102.76,83.04L103.69,82.46L104.22,82.44L105.2,82.98L105.34,82.74L107.54,82.94L107.86,83.23L108.67,83.18L108.5,83.74L109.26,84.35L109.77,84.48L108.83,84.83L109.39,85.33L109.25,85.69L108.28,86.32L107.15,87.72L106.42,88.12L106.38,88.56L105.65,89.41L105.85,88.82L105.31,88.32L104.84,88.81L104.23,88.63L104.49,89.02L102.95,89.89L102.51,90.6L101.35,91.44L101.4,91.81L100.85,91.55L99.43,92.03L98.9,91.88ZM94.34,80.71L94.3,79.82L94.55,79.62L93.82,78.78L93.92,78.4L94.46,77.86L93.79,77.36L93.85,77.05L92.59,76.51L92.74,75.99L90.25,75.96L90.52,75.59L91.28,75.36L91.38,75.05L90.8,74.64L90.62,74.11L91.11,73.92L90.53,72.98L90.97,72.65L90.61,72.18L90.53,71.55L89.73,70.22L88.8,69.61L88.5,69.18L88.33,68.12L86.08,67.83L85.64,67.15L86.03,67.01L86.43,67.27L86.82,66.96L86.38,66.57L87.38,66.49L87.84,66.19L88.88,66.79L89.42,66.41L89.62,66.72L90.09,66.4L89.73,65.66L90.1,65.49L90.39,64.95L90.47,65.5L91.5,65.79L92.03,66.81L92.18,67.58L92.49,67.47L93.22,67.84L93.64,68.47L94.09,68.51L94.21,69.15L94.78,68.94L95.61,69.05L96.86,68.75L96.78,68.97L97.77,69.16L98.01,68.98L98.33,69.42L99.25,70L99.93,69.91L99.98,69.95L99.69,70.43L99.29,70.55L99.39,71.05L99.03,72.29L98.14,73.2L96.96,73.24L96.8,72.6L96.09,72.91L95.77,72.6L94.89,72.53L94.9,72.8L95.46,72.8L96.38,73.4L97.13,74.9L96.55,75.01L96.46,75.42L96.79,75.98L97.57,76.45L97.4,77.82L97.45,78.33L98.09,78.71L97.81,79.06L98.43,79.35L98.63,79.74L100.5,81.27L98.36,81.14L95.3,81.16L94.9,80.82ZM113.14,78.47L113.86,78.22L113.5,77.74L113.76,76.7L113.28,76.33L113.25,75.84L114.2,74.88L114.78,74.75L115.3,74.21L116.13,74.84L116.3,75.92L116.19,76.81L116.4,77.33L116.21,77.72L115.56,78.16L115.4,78.6L115.66,79.43L115.23,80.81L114.99,80.87L114.82,82.39L114.26,82.58L114.07,81.52L113.7,81.26L113.66,81.75L113.29,81.93L113.18,80.89L112.08,81.04L112.14,81.46L111.69,81.11L110.41,81.09L110.11,80.72L110.76,80.17L110.71,79.32L111.65,79.77L112.8,78.88L113.27,78.97ZM112.97,88.05L111.69,87.87L111.06,87.51L110.3,87.52L108.34,88.73L108.15,89.39L107.19,89.44L106.35,89.67L106.29,90.22L105.45,90.42L104.94,91.07L104.42,91.02L104.09,90.66L103.51,90.89L102.44,91.98L102.05,91.91L101.82,92.73L100.94,92.97L100.72,93.24L99.77,93.5L99.77,93.88L98.79,95.23L98.1,95.44L97.47,96.03L97.37,96.42L96.74,96.64L96.33,97.08L96.32,97.77L95.99,98.05L95.96,98.81L94.83,98.37L94.42,98.06L94.56,97.6L94.47,96.84L94.58,95.93L95.06,95.91L95.58,95.48L95.89,94.26L96.84,93.88L97.51,92.92L98.02,92.62L97.85,92.16L98.45,91.96L98.77,91.42L98.9,91.88L99.43,92.03L100.85,91.55L101.4,91.81L101.35,91.44L102.51,90.6L102.95,89.89L104.49,89.02L104.23,88.63L104.84,88.81L105.31,88.32L105.85,88.82L105.65,89.41L106.38,88.56L106.42,88.12L107.15,87.72L108.28,86.32L109.25,85.69L109.39,85.33L108.83,84.83L109.77,84.48L109.26,84.35L108.5,83.74L108.67,83.18L107.86,83.23L107.54,82.94L105.34,82.74L105.2,82.98L104.22,82.44L103.69,82.46L102.76,83.04L103.07,82.14L103.4,81.81L103.27,81.09L103.93,81.7L104.17,81.52L105.04,81.68L105.44,81.35L105.62,80.75L106.5,80.69L107.01,81.03L108.1,80.91L108.62,80.35L109.18,81.06L109.58,80.78L109.91,81.17L110.11,80.72L110.41,81.09L111.69,81.11L112.14,81.46L112.08,81.04L113.18,80.89L113.29,81.93L113.66,81.75L113.7,81.26L114.07,81.52L114.26,82.58L114.82,82.39L114.99,80.87L115.23,80.81L115.45,82.19L116.06,82.84L116.21,83.54L116.64,84.45L116.95,84.74L116.82,85.14L116.75,86.53L116.96,87.09L117.99,88.27L117.89,89.19L117.89,90.58L117.18,90.7L117.16,89.87L116.59,89.8L115.78,90.35L115.01,89.47L114.45,89.53L114.05,89.31L114.49,88.81L114.23,88.31L113.59,88.39ZM69.91,15.85L69.01,16.62L68.19,16.59L67.76,16.89L67.74,16.55L66.71,16.55L66.71,15.4L67.55,14.6L67.45,14.06L68.01,14.1L68.78,15.11ZM61.95,19.14L61.09,18.4L61.33,18.05L60.95,17.42L59.67,17L60.09,16.75L60.25,15.89L60.81,15.33L61.61,15L61.42,13.64L61.77,13.24L63.57,12.55L64.47,12.47L64.86,12.81L65.11,13.51L66.05,14.52L65.47,14.9L65.18,15.95L65.2,17.31L64.3,18.81L63.86,18.64L63.44,18.85L63.36,18.29L62.87,18.74L62.32,18.74ZM98.54,68.25L98.16,68.53L97.4,68.39L96.57,68.61L95.99,68.42L95.24,67.6L93.83,67.25L92.68,67.23L92.18,67.58L92.03,66.81L91.5,65.79L90.47,65.5L90.39,64.95L90.85,64.59L91.33,64.79L91.93,64.17L92.07,63.42L92.48,63.14L92.81,62.55L93.22,62.64L93.47,62.28L94.15,62.85L93.99,62.32L94.45,62.31L94.57,61.96L95.21,62.17L94.92,61.41L95.14,60.82L94.62,60.49L94.37,60.01L93.71,59.73L94.91,59.11L95.59,59.13L96.11,59.57L97.34,60.24L97.51,60.63L97.27,61.19L97.06,61.62L97.25,62.08L96.82,62.74L96.3,62.81L96.3,63.62L96.57,63.86L96.88,64.82L97.73,65.21L97.87,65.83L98.49,66.37L97.94,66.92L97.66,67.62L97.92,68.31ZM72.64,38.69L71.64,38.68L71.29,38.98L70.89,38.46L70.05,37.95L69.43,38.29L68.94,37.99L68.42,38.51L67.86,38.53L67.93,38.9L67.43,38.74L66.66,38.98L65.6,38.58L65.15,38.13L64.32,37.93L63.84,38.34L63.48,38.01L61.88,37.97L62.09,37.53L61.61,37.18L62.03,35.93L61.94,35.12L60.95,34.58L60.54,34.86L60.34,34.61L59.73,34.68L59.35,34.42L58.79,34.44L59.51,33.93L61.23,33.83L61.97,33.59L62.79,32.77L64.07,33.1L64.38,33.36L64.97,32.88L66.03,33.07L66.76,33.57L67.08,34.33L68.17,34.38L68.96,34.01L68.75,34.59L69.46,34.81L71.06,34.92L71.4,35.07L71.69,34.68L72.35,34.68L73.07,34.98L72.68,35.64L73.4,36.15L73.07,36.64L73.61,36.96L73.89,37.48L72.63,38.41ZM88.17,89.72L88.67,90L88.87,90.58L88.35,91.18L88.97,92.04L88.92,92.86L88.64,93.64L89.33,94.03L89.58,94.88L88.71,95.5L88.69,96.11L88.41,96.4L87.51,95.88L86.78,96.06L86.57,96.41L86.12,96.25L85.37,96.67L85.02,96.67L84.7,97.12L83.6,97.37L83.28,97.85L83.38,98.23L83,98.22L82.72,98.84L82.97,99.6L83.94,100.89L83.96,101.27L84.46,101.49L84.5,102.12L85.25,102.81L85.5,104.06L85.33,104.79L84.9,104.61L84.71,103.92L83.98,104.04L83.33,103.71L83.08,103.03L82.45,102.56L81.84,102.54L81.42,102.26L81.16,101.57L80.72,101.57L79.81,101.04L79.43,101.37L78.76,100.78L78.4,99.93L77.87,99.6L77.92,99.06L77.2,98.4L77.07,97.62L77.38,97.25L77.7,97.45L78.46,96.39L78.12,96.21L78.08,95.53L78.52,95.77L79.43,95.38L79.69,94.79L80.31,94.62L81.08,95.31L81.13,94.73L81.63,94.43L82.65,94.87L83.32,94.76L83.63,95.36L84.01,95.22L84.02,94.08L84.68,93.57L85.35,92.78L85.2,92.38L85.47,91.7L85.27,91.32L85.48,90.73L86,90.66L86.26,91.22L86.73,91.33L87.34,91.16L87.59,90.27ZM67.59,25.21L67.93,25.41L68.79,25.11L69.71,25.52L69.09,26.62L68.54,28.42L68.56,28.87L69.23,29.09L69.53,28.82L69.72,29.3L70.41,29.46L70.13,30.4L69.84,30.69L70.53,30.97L70.79,30.66L71.66,31.19L72,31.65L72.58,31.41L72.87,30.95L73.83,30.91L73.99,30.62L74.49,30.63L75.28,30.95L75.65,31.91L75.99,31.9L75.58,32.43L75.65,33.5L75.32,34.07L75.25,34.64L75.19,35.18L73.63,35.25L73.07,34.98L72.35,34.68L71.69,34.68L71.4,35.07L71.06,34.92L69.46,34.81L68.75,34.59L68.96,34.01L68.17,34.38L67.08,34.33L66.76,33.57L66.03,33.07L64.97,32.88L64.38,33.36L64.07,33.1L62.79,32.77L61.97,33.59L61.77,33.22L61.95,32.83L61.27,32.79L62.04,31.58L62.37,30.61L62.95,29.98L62.52,29.24L63.09,28.27L63.51,28.35L64.16,27.31L63.98,26.7L64.58,27.15L65.06,26.76L65.07,26.36L65.57,26.11L65.69,25.66L66.26,25.42L66.87,26.05ZM103.27,81.09L104.41,80.07L104.87,79.81L105,79.32L106.54,78.01L106.2,77.3L106.6,77.08L106.43,76.64L107.07,75.73L106.75,75.12L105.85,74.38L105.56,72.95L105.81,72.33L105.55,72.04L105.76,69.91L107.5,69.45L108.13,69.71L108.24,69.13L108.61,68.76L109.31,68.54L109.14,68.88L108.91,70.37L109.54,70.77L109.42,71.39L109.74,71.87L109.44,72.01L109.28,72.76L109.77,73.38L110.32,73.68L110.05,74.53L109.64,74.33L109.75,75.09L110.13,75.72L110.55,75.97L110.79,77.47L111.36,78.3L111.89,78.16L112.41,78.33L112.5,77.65L113.14,78.47L113.27,78.97L112.8,78.88L111.65,79.77L110.71,79.32L110.76,80.17L110.11,80.72L109.91,81.17L109.58,80.78L109.18,81.06L108.62,80.35L108.1,80.91L107.01,81.03L106.5,80.69L105.62,80.75L105.44,81.35L105.04,81.68L104.17,81.52L103.93,81.7ZM112.4,127.65L110.3,127.63L109.8,128.22L109.46,128.22L108.63,129.16L108.19,129.22L107.11,129.91L106.57,129.49L105.09,129.41L104.72,130.14L104.36,130.18L103.85,131.01L103.39,131.14L103.29,131.58L102.87,131.7L103.03,131.99L103.54,131.93L103.75,132.94L103.11,133.08L102.03,132.88L101.15,133.49L100.51,133.57L100.19,133.99L99.28,134.03L98.82,134.55L98.12,134.43L97.82,134.58L97.52,135.23L97.66,136.31L97.9,136.82L98.38,137.16L99.06,137.3L99.98,138.16L99.55,138.58L99.49,138.99L100.08,139.94L99.18,140.67L97.96,142.48L98,142.97L97.38,143.34L97.78,143.64L96.95,144L96.32,143.25L96.05,143.56L95.07,143.59L95.26,141.82L95.24,140.88L94.45,140.21L94.57,139.35L94.27,138.54L93.53,137.45L93.42,136.79L93.04,136.3L93.11,135.62L93.43,135.06L93.56,134.24L93.83,133.92L93.92,132.63L93.39,132.1L93.31,131.68L93.49,130.77L93.82,130.34L94.39,130.15L94.4,129.81L95.38,128.68L95.54,128.32L96.44,127.28L95.85,126.54L95.17,126.42L95,126.02L95.67,126.4L96.08,126.34L96.78,126.76L97.96,126L98.49,125.39L100.16,124.04L100.57,124.08L100.93,123.17L101.98,122.86L102.72,122.21L103.59,121.22L103.38,120.62L103.73,119.9L103.6,119.67L104.61,119.16L104.81,119.25L105.88,118.63L106.1,118.76L107.7,117.94L108.09,118.18L108.75,118.01L108.85,118.24L109.49,118.31L109.93,117.9L110.57,118.47L110.84,118.41L110.37,117.77L109.97,117.78L109.83,117.26L109.25,116.77L110.3,117.32L110.88,117.47L111.53,117.18L112.32,117.25L112.64,116.88L113,116.91L113.05,116.48L114.61,117.67L115.41,117.71L115.66,118.54L116.06,119.03L115.87,119.5L115.54,119.41L115.3,119.81L115.59,120.29L115.45,120.81L114.98,121.03L114.84,122.12L114.5,122.43L114.14,123.68L113.55,123.71L113,124.68L111.85,125.07L111.6,126.06L111.92,126.48ZM57.94,6.26L57.89,5.65L59.18,5.43L59.85,4.5L59.98,3.3L59.76,2.85L60.44,2.39L60.81,1.56L60.73,0.84L60.56,1.13L60.64,0.01L61.97,0L62.23,0.65L61.74,1.15L61.42,2.09L61.67,3.36L61.53,3.82L62.21,5.11L62.42,5.93L62.2,6.24L62.34,6.9L61.9,8.06L62.33,8.35L62.34,9.03L61.99,9.43L61.72,10.47L61.48,10.44L61.2,9.68L61.91,8.48L61.26,8.31L61.06,8.81L60.45,8.36L59.81,8.52L59.82,7.51L58.98,6.88L59.17,6.75L58.56,6.09L58.22,6.46ZM54.89,14.37L54.25,13.89L54.85,13.48L55.35,12.2L55.28,11.7L55.58,10.27L55.93,10.01L56.17,9.25L56.84,9.37L56.84,8.99L57.83,9.38L57.97,9.78L58.89,9.67L59.18,9.8L59.66,10.8L59.5,10.95L59.78,11.71L59.56,12.64L59.17,12.77L59.19,13.17L58.47,13.46L58.17,13.91L57.28,13.49L56.91,14.03L55.5,14.39ZM87.26,127.54L87.04,126.49L87.93,126.01L87.91,125.45L88.38,125.36L88.66,124.97L89,125.38L89.35,125.35L89.39,125.75L90.03,125.4L90.05,124.53L89.89,123.05L90.48,122.71L90.89,121.95L90.66,120.52L91.14,120.04L90.89,119.55L91.14,118.52L91.42,118.55L91.68,118.01L91.2,117.55L91.16,116.85L91.4,116.74L91.58,115.76L91.4,115.27L91.44,114.1L91.91,113.5L93,113.85L94.17,113.77L94.72,113.18L95,112.52L94.49,112.35L95.12,111.54L95.67,111.09L95.72,110.68L95.36,110.5L95.44,109.88L96.01,109.55L96.04,108.97L96.58,108.73L97.23,109.04L98.08,108.66L98.68,108.15L98.81,107.36L98.35,105.98L98.07,105.93L97.65,105.13L97.23,104.77L97.79,104.3L98.38,102.93L98.64,102.01L99.53,101.8L100.83,101.81L101.32,102.01L101.97,101.9L102.67,101.35L103.85,100.81L104.48,100.09L105.02,99.79L106.23,100.04L106.65,99.88L107.23,99.3L107.58,99.32L106.97,100.08L107.3,100.83L106.99,101.08L106.96,101.76L106.58,101.96L106.72,102.73L107.46,103.13L108.33,103.07L108.27,103.76L108.72,103.89L109.26,104.68L108.72,105.03L108.68,106.53L108.84,107.59L108.41,108.63L108.25,109.34L107.37,110.07L106.77,110.35L106.53,111.5L105.9,112.21L105.14,112.5L104.93,112.79L104.13,112.94L103.39,112.87L103.25,114.32L103.38,114.6L102.88,114.71L101.94,115.55L101.87,115.88L102.57,115.92L103.2,115.74L103.77,115.87L103.34,116.17L103.25,116.62L102.11,117.11L100.51,117.32L99.94,118.51L99.79,119.18L100,119.85L99.57,120.26L99.79,121.24L100.1,121.76L101.24,121.24L101.92,121.22L102.34,121.42L102.72,122.21L101.98,122.86L100.93,123.17L100.57,124.08L100.16,124.04L98.49,125.39L97.96,126L96.78,126.76L96.08,126.34L95.67,126.4L95,126.02L94.48,125.75L94.23,126.25L92.94,126.5L92.56,127.23L92.96,127.25L92.82,127.98L92.89,128.81L92.43,129.5L91.59,129.64L91.44,130.07L90.88,130.25L90.78,130.78L89.98,130.94L89.43,130.24L89.34,129.83L87.83,128.35L87.42,128.24ZM107.58,99.32L108.45,99.51L109.88,99.35L109.95,99.81L110.82,100.33L111.36,100.46L111.69,101.04L112.17,101.37L112.95,101.46L113.17,102.33L112.89,102.6L113.45,103.58L113.3,105.28L113.4,106.4L113.68,107.09L114.52,107.88L114.82,108.58L114.65,109.67L114.72,110.37L115.2,111.13L115.16,112.62L115.59,113.26L116.07,114.67L115.31,115.77L114.95,115.92L114.84,116.37L115.58,117.16L115.41,117.71L114.61,117.67L113.05,116.48L113,116.91L112.64,116.88L112.32,117.25L111.53,117.18L110.88,117.47L110.3,117.32L109.25,116.77L109.83,117.26L109.97,117.78L110.37,117.77L110.84,118.41L110.57,118.47L109.93,117.9L109.49,118.31L108.85,118.24L108.75,118.01L108.09,118.18L107.7,117.94L106.1,118.76L105.88,118.63L104.81,119.25L104.61,119.16L103.6,119.67L103.73,119.9L103.38,120.62L103.59,121.22L102.72,122.21L102.34,121.42L101.92,121.22L101.24,121.24L100.1,121.76L99.79,121.24L99.57,120.26L100,119.85L99.79,119.18L99.94,118.51L100.51,117.32L102.11,117.11L103.25,116.62L103.34,116.17L103.77,115.87L103.2,115.74L102.57,115.92L101.87,115.88L101.94,115.55L102.88,114.71L103.38,114.6L103.25,114.32L103.39,112.87L104.13,112.94L104.93,112.79L105.14,112.5L105.9,112.21L106.53,111.5L106.77,110.35L107.37,110.07L108.25,109.34L108.41,108.63L108.84,107.59L108.68,106.53L108.72,105.03L109.26,104.68L108.72,103.89L108.27,103.76L108.33,103.07L107.46,103.13L106.72,102.73L106.58,101.96L106.96,101.76L106.99,101.08L107.3,100.83L106.97,100.08ZM68.19,16.59L68.27,17.55L67.98,18.01L67.56,18.08L67.46,19.05L67.66,19L66.83,19.38L66.07,19.41L65.85,18.98L64.88,18.52L64.3,18.81L65.2,17.31L65.18,15.95L65.47,14.9L66.05,14.52L67.45,14.06L67.55,14.6L66.71,15.4L66.71,16.55L67.74,16.55L67.76,16.89ZM83.97,60.61L83.65,60.03L84.26,59.17L84.71,58.03L85.17,57.91L84.78,57.41L84.99,56.8L83.96,56.76L83.64,57.1L83.14,56.96L82.94,56.27L82.84,55.52L82.59,55.11L81.02,54.35L80.47,53.96L79.99,53.05L80.09,52.57L80.64,51.68L81.35,52L82.16,51.65L83.1,52.14L83.44,53L83.89,53.34L84.77,53.47L85.37,54.17L85.29,54.91L86.16,55.59L86.82,55.75L87.23,56.07L87.33,56.71L88.37,57.98L88.49,58.7L87.51,58.87L86.94,59.33L87.23,59.52L86.82,59.97L86.14,59.62L85.97,60.12L84.81,60.58L84.21,60.28ZM91.78,89.66L92.31,89.31L93.01,88.13L94.11,88.54L94.23,87.94L95.19,87.26L93.94,86.9L93.44,86.31L93.67,85.97L94.72,85.73L95.34,85.3L95.62,84.83L95.39,83.9L96.09,83.37L96.3,82.9L95.55,82.41L94.98,82.39L94.73,82.13L94.34,80.71L94.9,80.82L95.3,81.16L98.36,81.14L100.5,81.27L100.91,81.04L101.79,81.03L103.27,81.09L103.4,81.81L103.07,82.14L102.76,83.04L102.54,83.97L102.18,84.22L102.45,84.65L102.28,85.04L102.62,85.75L102.53,86.19L101.96,86.37L100.71,87.45L100.36,88.09L98.83,89.13L98.79,89.44L99.75,89.68L99.48,90.16L99.49,90.79L98.77,91.42L98.45,91.96L97.85,92.16L98.02,92.62L97.51,92.92L96.84,93.88L95.89,94.26L95.58,95.48L95.45,94.66L94.68,94.6L94.28,93.96L93.06,93.9L92.27,93.02L92.42,92.07L92.09,91.87L91.63,90.77L91.81,90.46ZM54.16,17.88L54.17,17.69L53.38,17.23L53.41,16.43L52.9,15.84L53.54,15.23L53.82,14.64L54.33,14.82L54.89,14.37L55.5,14.39L56.91,14.03L57.28,13.49L58.17,13.91L58.79,14.31L59.25,15.21L59.8,15.91L60.25,15.89L60.09,16.75L59.67,17L59.42,16.88L59.27,17.47L58.85,17.2L58.54,17.77L57.47,18.3L56.77,18.37L56.16,18.88L56.38,19.37L55.31,18.85L55.28,18.36L54.83,18.13L54.56,18.35ZM50.72,23.05L51.36,23.57L51.86,23.55L51.34,21.71L52.39,21.54L52.62,20.58L51.96,20.33L52.49,19.97L52.26,19.63L52.73,18.85L52.65,17.57L52.98,17.49L54.16,17.88L54.56,18.35L54.83,18.13L55.28,18.36L55.31,18.85L56.38,19.37L56.14,20.1L56.27,20.72L55.72,21.07L55.7,21.43L54.73,21.79L54.25,21.82L54.44,22.55L54.38,23.19L53.66,23.72L52.58,23.86L52.09,24.2L49.22,26.46L48.96,24.96L49.58,25.04L49.89,24.38L50.69,23.52L50.29,23.05L50.59,22.59ZM59.18,9.8L60.12,9.95L60.51,9.71L61.04,9.85L60.99,10.2L61.48,10.44L61.72,10.47L62.02,11.42L62.39,11.36L63.28,11.76L63.09,12.24L63.57,12.55L61.77,13.24L61.42,13.64L61.61,15L60.81,15.33L60.25,15.89L59.8,15.91L59.25,15.21L58.79,14.31L58.17,13.91L58.47,13.46L59.19,13.17L59.17,12.77L59.56,12.64L59.78,11.71L59.5,10.95L59.66,10.8ZM78.7,43.03L76.18,43.01L75.63,42.76L74.92,42.86L74.74,42.55L73.37,42.55L72.28,41.96L72.55,40.99L72.09,40.24L72.22,39.64L72.69,39.4L72.38,39.13L72.64,38.69L72.63,38.41L73.89,37.48L73.61,36.96L73.07,36.64L73.4,36.15L72.68,35.64L73.07,34.98L73.63,35.25L75.19,35.18L75.25,34.64L75.59,35.55L75.96,35.71L76.26,36.35L77.07,37.24L77.76,37.79L78.15,38.9L77.76,39.92L78.77,41.26L78.62,41.73L78.28,41.86L78.21,42.47Z" fill="#B3CFC0" stroke="#007139" stroke-width="0.5"/></svg>