<svg xmlns="http://www.w3.org/2000/svg" width="144" height="144" viewBox="0 0 144 144"><path d="M122.48,52.73L122.26,54.16L121.38,53.84L120.92,52.87L120.37,53.03L120.44,53.97L118.92,54.73L117.41,53.6L116.1,54.73L115.15,54.58L115.41,55.46L114.87,56.04L113.84,55.67L113.39,56.22L112.07,55.74L112.2,56.35L111.35,56.49L111.58,55.49L110.41,55.88L110.6,56.82L109.03,57.6L108.71,56.34L107.63,56.43L106.67,55.27L105.16,55.5L104.01,55.22L104.46,54.52L102.89,55.23L104.12,56.56L103.76,57.03L102.76,56.06L102.01,56.37L102.04,57.11L101.3,57.16L101.26,55.22L100.17,55.03L99.17,55.49L97.94,54.64L98.32,56.27L97.95,56.84L97.04,56.79L97.78,56.24L96.02,55.29L95.5,56.78L94.62,54.87L95.42,54.21L94.26,52.75L95.47,50.89L94.78,50.2L93.69,50.56L93.22,51.25L92.3,51.22L91.48,52.13L90.8,52.15L89.02,53.04L88.43,54.02L88.64,54.57L86.91,55.19L83.55,54.64L83.08,55.13L83.73,56.45L83.47,58.07L82.94,57.44L82.32,57.75L83.25,58.3L82.87,59.08L81.91,58.69L81.32,57.78L80.44,57.71L80.58,56L79.93,56.66L78.78,55.63L78.72,54.34L77.22,54.17L76.15,54.42L75.49,53.52L73.99,52.99L73.69,51.54L73.17,51.85L73.53,52.71L72.43,53.64L71.39,52.68L72.12,54.25L71.82,54.71L70.68,54.22L70.79,56.02L70.06,55.09L69.1,55.76L67.67,55.26L65.57,52.71L64.65,52.64L64.45,51.89L62.96,52.36L62.3,50.49L61.29,50.16L58.95,50.42L57.16,49.38L56.17,49.24L46.76,49.08L46.19,48.3L40.54,47.03L36.8,47.04L35.88,46.8L34.6,49.57L34.53,50.85L34,52.13L33.03,53.33L32.37,52.79L30.82,52.47L30.03,53.51L28.3,53.69L27.33,55.85L26.33,56.66L26.46,57.58L25.13,59.32L25.47,59.95L24.37,61.36L21.71,62.84L20.95,62.05L20.2,62.08L20.19,61L19.21,60.89L18.81,61.83L16.94,61.78L16.1,62.34L14.28,62.73L13.96,61.59L12.41,61.24L8.42,61.11L8.47,61.45L6.25,62.42L4.11,61.97L3.85,61.18L2.43,61.29L1.08,60.95L0.28,61.22L0.27,52.16L1.37,51.96L1.11,51.1L1.89,50.17L1.27,49.83L1.78,48.93L2.94,48.4L3.54,49.78L5.21,48.49L6.18,50.55L6.47,49.65L7.45,49.51L8.05,50.44L8.52,50.22L8.18,48.83L8.8,48.61L9.15,49.7L8.75,50.59L9.31,50.9L9.57,49.82L10.72,49.92L10.52,50.82L11.35,50.77L11.38,49.45L12.07,49.25L12.5,50.03L12.09,50.99L12.8,50.81L12.92,49.65L13.51,49.63L14.32,50.52L15.44,49.66L16.54,50.08L16.49,49.06L15.57,48.74L17.21,48.44L18.21,48.69L19.23,47.97L19.94,49.36L21.23,48.72L20.54,48.2L21.43,47.73L21.6,48.74L23.45,46.95L24.37,46.52L24.69,47.5L26.6,45.98L27.51,45.95L27.63,44.83L28.49,45.47L28.9,45.04L28.56,43.97L27.71,44.1L28.11,43.14L29.24,42.52L29.13,41.7L31.25,41L33.26,39.58L34.08,39.84L34.35,40.59L35.42,41.21L36.42,41.29L37.85,39.37L39.13,39.73L39.26,41.1L40.79,39.09L41.78,39.59L41.86,40.76L42.42,40.73L42.28,38.61L43.58,37.88L42.9,37.55L43.22,36.92L44.29,36.8L44.49,36.1L46.26,36.77L47.05,36.35L46.88,34.88L48.32,34.66L49.17,35.21L50.02,34.79L51.25,33.03L52.14,32.42L53.3,32.5L53.76,33.32L54.6,33.09L54.67,31.67L55.63,31.56L56.44,32.91L57.53,33.46L58.09,32.67L57.29,31.79L57.29,29.98L57.88,29.37L59.74,29.68L60.33,28.81L60.9,29.33L61.54,30.88L63.47,31.59L64.29,31.19L65.62,31.37L66.04,32.24L66.7,31.33L67.66,30.98L68.78,31.2L70.88,30.62L72.03,30.84L72.48,29.18L73.56,29.49L73.59,31.43L73.95,31.59L74.8,30.28L74.44,28.65L74.9,28.49L75.95,29.91L77.33,30.79L77.82,29.48L78.74,29.89L78.13,31.05L78.97,31.5L80.71,30.45L81.75,30.62L82.03,29.46L83.14,29.97L83.84,29.18L86.31,30.06L86.34,28.4L89.29,30.53L89.56,28.84L90.51,28.9L90.97,29.97L91.67,28.64L91.57,27.54L92.65,27.71L92.79,29.25L93.65,29.63L94.28,28.93L95.12,29.87L96.01,29.6L96.41,28.73L97.37,28.17L98.62,29.46L99.26,28.25L100.02,29.34L101.12,29.03L102.07,30.03L103.36,30.46L104.35,30.22L104.95,31.12L106.18,30.61L106.61,31.59L106.06,32.27L107.07,32.77L107.49,31.45L106.86,30.74L107.06,30.01L108.11,30.43L108.96,32.54L109.61,32.46L109.22,30.51L110.04,30.83L110.24,31.57L109.65,32.39L109.97,33.21L110.6,32.3L112.04,31.81L112.55,32.44L111.97,33.86L113.91,33.58L115.26,32.49L115.69,33.04L115.54,34.27L115.92,34.75L117.12,33.12L117.95,33.07L118.73,31.59L117.9,30.72L117.91,30.04L118.94,30.48L119.02,31.98L120.06,32.25L120.38,30.87L120.92,30.72L124.15,32.77L106.83,39.89L107.83,41.72L108.94,41.83L110.53,41.4L111.27,42.8L112.69,43.29L113.63,42.55L114.53,42.95L114.55,43.9L116.73,46.28L118.83,50.07L119.09,51.43L121.02,52.38ZM0.28,61.22L1.08,60.95L2.43,61.29L3.85,61.18L4.11,61.97L6.25,62.42L8.47,61.45L8.42,61.11L12.41,61.24L13.96,61.59L14.28,62.73L16.1,62.34L16.94,61.78L18.81,61.83L19.21,60.89L20.19,61L20.2,62.08L20.95,62.05L21.71,62.84L24.37,61.36L25.47,59.95L25.13,59.32L26.46,57.58L26.85,57.04L29.9,56.85L30.14,57.12L31.44,56.21L33.74,56.72L34.37,58.46L35.32,59.6L35.25,60.14L36.75,61.73L36.98,63.05L37.44,62.83L37.25,60.41L38.89,58.64L39.98,59.32L41.23,58.87L41.63,60.46L43.62,61.97L43.53,63.02L44.99,62.98L47.38,65.47L47.78,66.79L48.59,67.28L48.07,68.04L48.2,69.43L48.9,70.55L50.27,71.09L51.04,72.07L49.66,73.05L49.97,76.08L49.18,77.13L49.62,78.87L50.37,78.79L51.06,79.82L52.24,79.42L53.3,80.01L53.02,80.41L53.67,81.67L53.36,82.37L52.11,82.26L52.16,83.17L51.23,82.85L50.48,83.82L50.51,84.85L49.43,85.76L47.9,85.67L47.28,86.3L45.95,85.56L45,85.69L44.8,85.1L42.83,84.52L42.63,83.94L36.81,95.7L36.5,96.97L35.84,97.94L34.77,97.19L35.12,96.04L33.02,95.98L32.71,96.84L31.65,96.51L31.93,97.41L31.2,97.23L31.27,98.26L31.99,98.75L30.65,99.05L31.52,100.17L31.6,101.36L30.18,102.53L28.68,102.61L28.54,103.62L27.62,104.52L26.18,104.94L25.68,106.5L25.08,106.08L22.97,107.12L21.26,106.06L20.39,106.14L20.31,105.24L19.6,105.28L18.74,104.12L19.27,103.69L18.89,102.89L17.56,103.11L16.33,102.11L16.68,101.74L15.17,101.16L14.96,100.37L14.2,100.24L12.69,99.09L12.87,98.6L10.65,97.22L10.57,96.39L9.9,96.13L9.41,94.22L9.84,93.62L9.24,91.37L8.51,91.57L8.11,90.31L7.09,88.45L5.06,87.68L4.55,87L4.61,85.85L2.24,83.29L1.97,82.43L0.8,81.33L0,79.69L0.28,78.74ZM26.46,57.58L26.33,56.66L27.33,55.85L28.3,53.69L30.03,53.51L30.82,52.47L32.37,52.79L33.03,53.33L34,52.13L34.53,50.85L34.6,49.57L35.88,46.8L36.8,47.04L40.54,47.03L46.19,48.3L46.76,49.08L56.17,49.24L57.16,49.38L58.95,50.42L61.29,50.16L62.3,50.49L62.96,52.36L64.45,51.89L64.65,52.64L65.57,52.71L67.67,55.26L69.1,55.76L70.06,55.09L70.79,56.02L70.68,54.22L71.82,54.71L72.12,54.25L71.39,52.68L72.43,53.64L73.53,52.71L73.17,51.85L73.69,51.54L73.99,52.99L75.49,53.52L76.15,54.42L77.22,54.17L78.72,54.34L78.78,55.63L79.93,56.66L80.58,56L80.44,57.71L81.32,57.78L81.91,58.69L82.87,59.08L83.25,58.3L82.32,57.75L82.94,57.44L83.47,58.07L83.73,56.45L83.08,55.13L83.55,54.64L86.91,55.19L88.64,54.57L88.43,54.02L89.02,53.04L90.8,52.15L91.48,52.13L92.3,51.22L93.22,51.25L93.69,50.56L94.78,50.2L95.47,50.89L94.26,52.75L95.42,54.21L94.62,54.87L95.5,56.78L96.02,55.29L97.78,56.24L97.04,56.79L97.95,56.84L98.32,56.27L97.94,54.64L99.17,55.49L100.17,55.03L101.26,55.22L101.3,57.16L102.04,57.11L102.01,56.37L102.76,56.06L103.76,57.03L104.12,56.56L102.89,55.23L104.46,54.52L104.01,55.22L105.16,55.5L106.67,55.27L107.63,56.43L108.71,56.34L109.03,57.6L110.6,56.82L110.41,55.88L111.58,55.49L111.35,56.49L112.2,56.35L112.07,55.74L113.39,56.22L113.84,55.67L114.87,56.04L115.41,55.46L115.15,54.58L116.1,54.73L117.41,53.6L118.92,54.73L120.44,53.97L120.37,53.03L120.92,52.87L121.38,53.84L122.26,54.16L122.48,52.73L123.71,53.09L124.32,54.54L125.95,54.21L125.84,53.62L128.31,53.27L128.8,54.1L130.43,54.56L131.65,55.52L132.3,54.88L132.22,53.8L132.96,54.39L133.95,53.36L135.99,54.66L137.68,54.26L138.27,52.85L139.08,53.39L140.41,53.39L141.03,52.26L142.67,52.99L142.95,54.56L144,54.93L143.13,56.75L141.68,57.36L141.53,58L139.23,59.3L139.75,60.01L138.69,61.03L137.55,61.32L136.74,62.73L135.36,62.91L134.81,62.38L132.74,63.13L131.35,63.22L129.55,64.31L128.17,63.77L127.26,64.24L125.54,64.4L124.51,65.73L122.77,65.54L122.23,66.16L118.92,66.92L118.84,67.53L117.84,67.11L116.73,67.73L115.02,66.71L113.97,67.26L113.59,66.57L113.17,67.18L111.16,67.24L110.55,66.85L109.8,67.3L108.89,66.78L108.32,68.18L107.67,68.3L105.96,69.98L105.38,69.98L104.45,70.97L101.76,71.35L100.91,72.32L99.63,72.24L99.55,72.7L98.08,73.33L96.4,75.14L94.41,76.77L92.2,74.94L91.6,75.31L90.1,73.98L89.17,74.11L85.56,72.7L83.17,71.92L80.33,71.27L78.67,71.22L76.97,70.44L76.5,69.28L75.69,69.92L73.72,68.72L72.55,68.99L70.19,68.02L69.63,66.55L68.79,65.36L66.93,65.03L67.11,64.28L65.05,63.83L63.79,64.36L59.19,65.81L48.2,69.43L48.07,68.04L48.59,67.28L47.78,66.79L47.38,65.47L44.99,62.98L43.53,63.02L43.62,61.97L41.63,60.46L41.23,58.87L39.98,59.32L38.89,58.64L37.25,60.41L37.44,62.83L36.98,63.05L36.75,61.73L35.25,60.14L35.32,59.6L34.37,58.46L33.74,56.72L31.44,56.21L30.14,57.12L29.9,56.85L26.85,57.04ZM36.81,95.7L42.63,83.94L42.83,84.52L44.8,85.1L45,85.69L45.95,85.56L47.28,86.3L47.9,85.67L49.43,85.76L50.51,84.85L50.48,83.82L51.23,82.85L52.16,83.17L52.11,82.26L53.36,82.37L53.67,81.67L53.02,80.41L53.3,80.01L52.24,79.42L51.06,79.82L50.37,78.79L49.62,78.87L49.18,77.13L49.97,76.08L49.66,73.05L51.04,72.07L50.27,71.09L48.9,70.55L48.2,69.43L59.19,65.81L63.79,64.36L65.05,63.83L67.11,64.28L66.93,65.03L68.79,65.36L69.63,66.55L70.19,68.02L72.55,68.99L73.72,68.72L75.69,69.92L76.5,69.28L76.97,70.44L78.67,71.22L80.33,71.27L83.17,71.92L85.56,72.7L89.17,74.11L88.75,74.62L89.3,77.19L88.93,78.29L89.26,79.49L87.36,81.54L87.3,83.02L86.7,84.73L85.75,85.47L85.78,87.1L85.43,88.35L83.86,91.12L83.87,92.1L82.9,92.18L83.28,92.91L82.93,94.93L83.58,94.9L83.71,95.89L84.47,96.53L84.6,97.54L85.59,98.59L84.92,98.94L83.55,98.12L83.47,96.6L82.7,97.33L83.36,98.27L82.43,97.88L81.69,98.99L81.8,100.58L80.39,101.54L79.5,103.12L78.48,104.04L77.55,104.16L76.68,103.37L75.52,103.58L74.54,104.47L74.18,106.68L73.03,107.39L64.01,116.17L62.07,116.46L62.69,115.51L62.13,114.58L61,114.58L60.26,113.21L59.81,114.06L59.06,113.48L58.7,114.3L57.83,113.71L57.45,114.69L56.28,114.14L56.61,112.91L55.48,111.23L54.68,111.19L54.73,112.29L53.14,110.48L54.01,109.91L53.53,109.36L54.05,108.4L53.53,107.62L52.6,107.89L52.46,109.28L51.84,108.07L51.97,105.87L51.4,105.54L50.63,106.23L49.91,106L50.52,104.66L49.59,104.27L49.21,103.49L49.64,102.89L46.92,99.69L45.37,100.34L43.45,99.32L42.17,98.09L40.38,97.14L39.96,95.95L39.49,97.03L38.09,96.57L37.87,95.84Z" fill="#B3CFC0" stroke="#007139" stroke-width="0.5"/></svg>