<svg xmlns="http://www.w3.org/2000/svg" width="144" height="144" viewBox="0 0 144 144"><path d="M110.08,30.79L109.38,31.05L108.75,30.9L107.84,31.35L106.41,31.39L105.18,30.62L104.5,30.84L103.66,30.5L103.41,29.68L102.81,29.18L101.67,28.99L101.25,28.28L100.25,28.4L99.87,28.09L97.88,29.2L97.11,28.95L96.67,29.12L94.91,29.08L94,27.86L93.61,27.9L93.43,27.35L93.59,26.42L94.24,25.95L94.31,23.94L94.53,23.26L94.14,22.58L94.41,21.91L94,21.5L92.62,21.53L91.78,21.27L91.61,20.46L90.17,20.58L88.17,19.99L87.31,20.09L86.56,18.92L85.4,18.83L85.32,19.22L84.02,18.73L83.61,18.38L83.8,17.32L83.57,17.01L81.82,17.46L81.37,17.16L81.15,16.42L80.09,16.31L79.55,15.06L79.72,14.68L79.11,14.58L77.91,15.02L77.63,14.83L75.94,14.95L75.08,15.33L73.72,16.39L73.08,14.5L72.6,13.85L73.01,11.97L72.76,10.89L72.15,10.35L72.66,9.5L72.91,8.53L72.13,7.63L73.13,7.09L73.7,6.25L73.64,5.64L75.11,4.95L74.2,4.4L74.67,4.08L75.15,3.25L74.89,2.73L75.44,2.95L76.13,2.42L76.52,2.54L76.54,3.17L77.43,3.1L77.72,2.76L77.3,2.39L76.91,1.37L77.49,0.98L78.22,0.96L78.43,1.95L78.97,1.72L78.82,1.08L79.48,1.01L79.64,1.49L80.17,1.74L79.84,0.13L80.73,0.51L80.49,1.53L81.38,1.93L81.81,1.81L81.64,0.9L81.98,0.34L82.46,0.49L82.99,1.18L83.47,0.9L83.34,0.12L83.95,0L84.23,0.56L84.45,0.18L85,0.11L87.59,0.48L89.24,1.84L92.79,3.07L93.86,3.95L94.83,4.45L98.74,5.5L99.72,5.38L100.59,4.98L103.2,5.65L104.1,5.23L106.43,5.76L107.11,5.56L109.02,5.4L110.39,5.11L111.9,5.4L111.88,6.95L111.27,7.38L111.06,7.9L111.01,9.38L109.5,10.52L109.01,11.66L108.38,12.4L107.39,12.23L107.37,12.63L106.85,12.66L107.08,13.5L107.44,13.5L107.79,14.37L107.13,15.1L107.01,15.59L107.2,16.41L107.58,16.65L107.05,17.25L107.85,18.22L106.85,19.21L107.13,19.98L106.57,20.6L106.17,21.55L106.36,22.07L107.13,22.53L107.51,23.12L107.41,23.55L107.8,24.17L107.64,24.9L108.02,26.91L108.53,27.65L109.09,28L109.32,29.22ZM77.06,59.59L77.54,58.74L78.26,58.41L79,58.45L79.87,57.38L80.41,57.86L80.9,58.72L81.49,59.22L83.01,61.49L83.95,60.23L84.43,60.61L86.12,63.67L86.15,64.25L86.68,64.54L87.68,64.34L86.83,64.94L86.42,64.99L85.66,65.87L85.92,66.48L84.88,67.31L84.38,67.41L83.87,67.98L84.16,68.16L83.98,69.1L83.63,69.24L83.36,69.91L82.98,69.98L82.52,70.96L82.82,72.51L82.48,73.44L82.07,73.48L82.36,74.2L82.4,75.11L81.43,76.52L82.02,77.86L81.44,77.37L81,76.45L81.03,76.01L80.4,75.86L80.27,74.33L80.05,74.36L79.65,73.51L79.79,72.42L79.42,70.69L78.88,70.16L78.87,68.57L78.54,68.46L77.64,68.83L76.75,69.5L76.3,69.08L75.69,69.06L75.04,69.72L73.94,69.43L73.81,69.16L74.26,67.52L75.11,65.87L75.29,64.97L75.16,63.33L75.67,61.82L76.31,61.49L76.5,60.48ZM100.25,28.4L101.25,28.28L101.67,28.99L102.81,29.18L103.41,29.68L103.66,30.5L104.5,30.84L105.18,30.62L106.41,31.39L107.84,31.35L108.75,30.9L109.38,31.05L110.08,30.79L108.79,31.59L107.71,32.82L108,33.08L107.72,33.68L109.5,33.67L109.73,33.92L110.66,34.05L111.21,34.75L112.24,35.35L113.05,35.38L113.43,35.69L112.22,36.5L112.46,37.03L112.08,37.4L112.19,37.98L111.79,38.22L111.01,37.95L110.37,38.64L110.19,39.81L109.81,40.45L109.31,40.59L109.27,41.71L109.01,42.27L108.09,42.36L107.71,42.64L106.86,42.55L106.59,43.01L106.9,44.05L106,44.72L105.66,44.69L105.19,45.42L103.96,46.19L103.27,46.4L103.25,46.96L102.03,46.7L101.58,47.29L101,47.19L100.19,48.09L99.35,48.12L98.08,49.46L97.83,49.16L97.4,49.56L96.8,49.58L95.85,50.44L94.69,50.08L94.4,50.83L94.2,50.48L93.55,50.29L92.77,50.49L92.35,50.09L91.74,50L91.5,50.86L90.47,51.82L89.47,52.04L89.12,51.47L88.45,51.6L88.22,52.42L87.85,52.57L87.61,53.81L85.21,54.89L84.55,55.38L83.61,55.47L83.01,54.79L82.4,54.55L81.72,54.76L81.12,53.36L81.19,52.92L79.73,52.48L79.06,52.07L79.07,51.69L78.44,51.88L78.81,51.17L78.37,51.08L78.39,50.51L77.97,50.85L77.43,50.66L77.11,50.14L76.5,50.09L76.18,50.41L75.52,49.29L74.88,49.44L73.66,48.79L74.03,47.85L75.29,47.72L74.91,46.53L75.04,45.82L74.44,45.22L74.5,44.91L73.21,44.72L71.54,42.45L71.56,41.85L71.18,41.06L72.55,41.19L73.12,41.48L73.42,41.21L75.2,41.66L75.62,42.52L76.15,42.71L76.54,42.3L76.61,42.83L77.44,42.72L78.16,42.81L78.04,43.23L79.33,42.98L79.33,43.57L80.26,44.47L81.11,43.82L81.41,42.45L81.2,42.14L82.2,41.48L82.59,41.62L83.55,41.08L84.14,40.11L84.58,40.27L86.49,38.95L87.21,38.22L88.5,38.16L89.12,37.26L89.66,37.35L90.04,36.73L90.81,36.31L91.28,36.32L92.9,35.33L93.14,34.91L94,34.62L94.15,34.07L94.83,33.37L96.66,32.24L97.13,31.24L97.17,30.53L97.68,29.75L98.52,29.29L99.37,29.25ZM95.84,96.76L94.97,96.63L95.03,96.97L94.34,97.45L93.58,97.37L93.09,97.06L92.68,97.2L92.12,96.92L91.88,96.45L91.13,96.4L90.1,96.62L88.34,95.84L88.13,96.13L87.19,96.14L86.67,96.47L85.07,96.49L83.7,97.5L81.96,98.4L81.36,98.33L80.8,98.73L80.81,99.3L80.26,100.11L78.96,101.09L78.38,101.1L78.06,101.49L77.29,101.8L76.9,102.33L76.95,102.85L76.66,103.51L75.89,103.78L76.1,102.6L75.98,101.97L76.38,101.21L76.35,100.27L75.84,100.11L74.88,98.71L74.98,97.67L74.7,97.2L73.74,96.49L72.87,96.06L72.67,95.3L71.48,95.09L70.62,94.61L70.47,93.44L69.99,92.57L70.68,91.21L70.73,90.41L70.25,89.52L70.54,88.17L70.74,87.2L71.22,86.44L70.92,85.07L71.31,84.27L71.44,83.3L71.76,82.67L73.24,81.79L73.83,81.84L74.53,81.48L74.75,81.71L75.4,81.45L75.5,82.09L76.27,82.02L76.88,82.48L77.27,82.34L77.16,83.02L78.26,83.79L78.43,84.25L78.99,83.83L78.51,83.31L78.84,82.94L80.18,82.97L80.55,82.04L80.95,81.81L82.26,81.63L82.71,82.16L83.18,81.38L84.35,81.06L84.92,81.99L85.7,82.4L86.06,83.35L86.28,84.54L86.95,84.89L87.8,84.86L88.97,85.15L89.25,85.87L90.11,86.56L90.71,87.41L91.98,89.58L92.41,90.68L93,90.93L93.8,92.17L94.83,92.36L95.19,92.97L95.73,93.11L96.28,95.32L96.57,95.74ZM45.01,64.5L44.72,65.38L44.12,66.03L44.02,66.28L43.21,66.3L43.09,65.64L42.31,65.88L42.09,65.16L41.38,65.46L40.54,65.39L39.12,64.44L38.45,64.46L38.47,64.15L37.61,64.15L36.58,64.7L35.76,66.46L34.9,66.95L35.01,67.2L34.65,68.14L33.98,67.84L33.62,67.06L32.34,66.67L32.8,65.58L33.54,63.24L34.43,61.86L35.56,59.74L35.42,58.96L36.17,58.95L36.83,59.38L38.29,59.6L39.15,60.19L39.68,60.78L40.35,61L40.93,61.58L41.47,61.33L42.19,61.55L42.47,62.51L43,62.83L43.95,64.06ZM53.67,84.08L53.09,83.54L53.17,83L52.78,83.19L52.12,82.44L49.84,81.24L49.5,81.3L47.95,80.81L47.35,80.25L46.69,79.26L46.93,78.72L46.7,77.76L47.34,78.53L48.19,78.69L48.5,77.77L48.18,76.74L49.01,76.76L49.79,75.81L49.68,74.67L49.12,73.71L49.01,72.35L50.09,72.24L50.35,71.34L51.37,70.58L51.4,69.53L51.97,68.86L51.74,67.86L52.47,68.56L55.1,68.13L56.46,67.14L57.15,67.03L57.72,67.36L57.9,67.97L58.44,68.14L58.91,68.79L59.6,69.4L60.26,69.52L60.34,69.91L62.23,71.92L62.5,71.93L63.15,72.69L63.4,73.37L62.52,74.91L62.81,75.69L62.42,76.77L62.29,77.8L61.92,78.33L62.64,78.91L61.95,79.3L61.35,79.97L60.32,79.92L57.67,78.96L56.42,79.72L56.04,79.79L55.01,79.34L54.13,79.26L53.67,80.64L53.51,81.54L54.18,82.08L54.27,82.47L53.84,82.92ZM73.72,16.39L75.08,15.33L75.94,14.95L77.63,14.83L77.91,15.02L79.11,14.58L79.72,14.68L79.55,15.06L80.09,16.31L81.15,16.42L81.37,17.16L81.82,17.46L83.57,17.01L83.8,17.32L83.61,18.38L84.02,18.73L85.32,19.22L85.4,18.83L86.56,18.92L87.31,20.09L88.17,19.99L90.17,20.58L91.61,20.46L91.78,21.27L92.62,21.53L94,21.5L94.41,21.91L94.14,22.58L94.53,23.26L94.31,23.94L94.24,25.95L93.59,26.42L93.43,27.35L93.61,27.9L94,27.86L94.91,29.08L96.67,29.12L97.11,28.95L97.88,29.2L99.87,28.09L100.25,28.4L99.37,29.25L98.52,29.29L97.68,29.75L97.17,30.53L97.13,31.24L96.66,32.24L94.83,33.37L94.15,34.07L94,34.62L93.14,34.91L92.9,35.33L91.28,36.32L90.81,36.31L90.04,36.73L89.66,37.35L89.12,37.26L88.5,38.16L87.21,38.22L86.49,38.95L84.58,40.27L84.14,40.11L83.55,41.08L82.59,41.62L82.2,41.48L81.2,42.14L81.41,42.45L81.11,43.82L80.26,44.47L79.33,43.57L79.33,42.98L78.04,43.23L78.16,42.81L77.44,42.72L77.28,41.95L78.23,40.9L78.28,40.4L79.17,40.06L78.7,39.02L79.29,37.43L79.83,37.54L79.93,36.86L80.6,36.74L81.27,35.59L80.75,33.93L80.76,32.69L80.36,32.22L80.46,31.5L79.79,31.46L80.24,30.62L79.91,30.35L80.26,29.81L79.79,29.58L80.2,28.79L79.55,28.62L78.63,29.05L78.41,29.45L77.81,28.52L77.68,27.28L77.49,26.97L77.93,26.43L76.84,25.19L77.03,24.75L76.52,23.54L75.56,23.61L74.98,23.36L73.45,24.15L73.26,25.4L72.91,25.26L73.1,26.65L72.35,26.58L72.32,27.12L73.35,27.22L73.16,28.28L73.49,29L71.58,29.08L70.39,28.64L69.57,28.47L70.03,27.9L70.16,26.84L70.96,26.33L70.94,20.63L70.74,20.53L71.93,19.47L72.11,18.74L73.53,17ZM34.65,68.14L35.01,67.2L34.9,66.95L35.76,66.46L36.58,64.7L37.61,64.15L38.47,64.15L38.45,64.46L39.12,64.44L40.54,65.39L41.38,65.46L42.09,65.16L42.31,65.88L43.09,65.64L43.21,66.3L44.02,66.28L44.12,66.03L44.85,66.26L45.5,67.47L44.83,67.67L44.42,68.79L43.97,68.99L43.56,69.74L43.3,69.52L41.89,70.15L41.02,69.67L40.09,68.88L39.81,68.09L39.21,67.7L38.77,67.73L38.14,67.15L37.52,66.88L36.15,67.46L36.15,67.7ZM76.02,135.55L78.14,133.92L78.37,133.6L79.79,132.61L80.47,131.94L80.78,131.23L80.86,129.71L81.33,128.96L81.23,127.88L81.57,127.51L81.97,127.75L82.74,127.41L83.01,126.71L83.64,126.2L83.62,125.12L84.27,123.22L84.71,122.7L85.91,122L86.72,120.66L87,119.81L87.03,121.87L87.87,122.63L88.88,122.64L89.76,123.49L89.57,124.02L89.74,124.76L89.28,125.47L89.43,126.24L89.25,126.85L88.46,127.58L88.51,128.46L88.99,129.08L88.63,129.59L91.91,130.19L92.8,130.43L93.54,129.7L94.41,130L94.41,131.06L93.73,132.13L93.75,133L94.41,134.1L97.65,136.58L98.31,137.32L98.41,138.06L97.61,138.18L97.71,139.12L97.04,139.12L96.67,139.45L96.66,140.78L96.05,141.76L96.3,142.01L95.75,142.84L95.21,142.92L95.25,143.45L94.47,144L93.99,143.12L93.26,142.81L92.27,141.95L91.4,142.15L90.07,141.74L88.89,141.06L88.33,141.14L87.71,141.77L87.01,141.08L86.27,141.07L86.33,140.17L87.27,140.31L86.46,139.56L86.14,138.98L85.68,138.94L85.19,139.32L84.5,138.99L84.29,138.15L83.84,138.38L83.59,139.42L82.85,139.69L81.98,139.26L81.15,139.8L80.56,139.84L80.22,139.48L79.76,138.37L79.35,138.43L78.82,139.14L78.07,138.95L78.3,138.23L79.39,138.16L79.43,137.9L78.59,137.42L78.46,136.97L77.46,137.44L77.09,137.36L77.11,136.63L75.89,136.15ZM45.01,64.5L43.95,64.06L43,62.83L42.47,62.51L42.19,61.55L41.47,61.33L40.93,61.58L40.35,61L39.68,60.78L39.15,60.19L38.29,59.6L36.83,59.38L36.17,58.95L35.42,58.96L35.28,58.58L35.74,57.39L37.04,56.35L37.56,56.3L38.1,55.48L38.46,53.91L38.9,53.62L39.91,53.4L42.53,53.68L43.06,54.01L43.27,53.74L44.76,53.89L45.98,52.72L48.18,54.47L49.14,55.13L49.45,56.25L49.28,57L49.7,58.92L49.5,59.4L50.22,59.81L50.64,59.4L51.23,59.6L52.47,59.13L53.02,59.54L53.02,61.4L54.01,62.64L54.17,63.37L55.08,64.24L55.69,64.56L55.91,65.05L56.56,65.42L56.58,65.88L57.15,67.03L56.46,67.14L55.1,68.13L52.47,68.56L51.74,67.86L51.13,67.64L51.21,67.06L50.83,67.27L49.94,66.84L49.03,67.07L48.47,66.15L47.01,66.6L45.86,65.56L45.53,65.56ZM71.18,41.06L71.56,41.85L71.54,42.45L73.21,44.72L74.5,44.91L74.44,45.22L75.04,45.82L74.91,46.53L75.29,47.72L74.03,47.85L73.66,48.79L73.03,48.56L72.77,48.09L71.96,47.5L71.99,46.87L71.15,46.29L70.36,44.75L70,44.87L69.41,44.44L69.27,43.84L68.13,43.5L66.76,43.64L66.18,43.43L65.87,43.91L64.29,43.68L63.4,43.08L62.06,41.82L61.6,41.67L61.56,41.16L60.61,40.34L59.89,40.65L59.75,39.92L60.33,39.56L61.14,37.58L61.21,37.3L62.74,36.94L64.25,36.25L64.31,35.49L64.66,34.87L65.39,35.15L66.02,35.7L66.18,36.53L67.96,38.87L69.06,38.68L70.24,39.41L70.4,39.88L70.91,40.05L70.85,40.68ZM87.68,64.34L86.68,64.54L86.15,64.25L86.12,63.67L84.43,60.61L83.95,60.23L83.01,61.49L81.49,59.22L80.9,58.72L80.41,57.86L79.87,57.38L79,58.45L78.26,58.41L77.54,58.74L77.06,59.59L76.35,59L75.75,57.99L75.45,57.92L75.32,57.21L75.85,56.72L75.54,56.09L75.65,54.69L75.04,53.94L74.8,52.93L74.87,52.16L73.84,51.78L73.59,51.45L73.5,50.56L72.48,48.6L71.87,47.97L71.96,47.5L72.77,48.09L73.03,48.56L73.66,48.79L74.88,49.44L75.52,49.29L76.18,50.41L76.5,50.09L77.11,50.14L77.43,50.66L77.97,50.85L78.39,50.51L78.37,51.08L78.81,51.17L78.44,51.88L79.07,51.69L79.06,52.07L79.73,52.48L81.19,52.92L81.12,53.36L81.72,54.76L82.4,54.55L83.01,54.79L83.61,55.47L84.55,55.38L85.21,54.89L87.61,53.81L87.85,52.57L88.22,52.42L88.45,51.6L89.12,51.47L89.47,52.04L90.47,51.82L91.5,50.86L91.74,50L92.35,50.09L92.77,50.49L93.55,50.29L94.2,50.48L94.4,50.83L94.69,50.08L95.85,50.44L96.8,49.58L97.4,49.56L97.83,49.16L98.08,49.46L99.35,48.12L100.19,48.09L101,47.19L101.58,47.29L102.03,46.7L103.25,46.96L103.27,46.4L103.96,46.19L105.19,45.42L105.66,44.69L106,44.72L106.9,44.05L106.59,43.01L106.86,42.55L107.71,42.64L108.09,42.36L109.01,42.27L110.09,42.59L110.26,42.96L109.96,43.86L110.34,44.94L110.03,46.41L109.28,46.94L110.13,47.23L110.25,47.74L111.65,48.39L112.05,49.14L111.96,49.87L112.32,50.39L111.97,50.91L110.98,50.85L110.46,51.32L109.91,50.93L109.09,50.91L108.26,51.29L107.65,50.92L107.16,51.49L107.36,51.97L106.86,52.41L107.39,52.82L106.49,53.64L104.64,53.05L103.9,53.15L104.15,53.89L103.83,54.4L104.13,54.61L103.5,55.2L102.69,54.79L101.72,54.82L101.37,55.09L100.94,56L100.25,56.15L99.41,57.21L98.7,57.41L97.82,57.19L97.22,57.68L96.49,56.9L95.74,56.93L94.75,57.67L94.21,57.29L93.88,57.64L92.7,57.52L92.21,58.12L91.88,57.95L90.34,59.04L90.27,59.71L89.65,59.89L89.44,60.37L88.66,60.81L89.01,61.44L88.69,61.74L88.45,63.68L88.16,63.65ZM87,119.81L86.72,120.66L85.91,122L84.71,122.7L84.27,123.22L83.62,125.12L83.64,126.2L83.01,126.71L82.74,127.41L81.97,127.75L81.57,127.51L81.23,127.88L81.33,128.96L80.86,129.71L80.78,131.23L80.47,131.94L79.79,132.61L78.37,133.6L78.14,133.92L76.02,135.55L74.45,134.71L73.74,133.61L73.19,133.56L72.87,133.15L73.4,132.67L72.46,131.97L71.73,130.96L70.66,130.67L69.81,131.33L68.71,131.14L68.71,130.62L69.2,129.35L68.7,128.61L70.66,127.47L72.42,125.9L72.54,125.4L73.37,124.5L73.4,123.92L74.39,123.28L74.36,122.87L73.72,122.55L73.74,121.76L74.6,121.66L74.97,121.11L75.93,120.67L76.07,120.36L76.87,120.56L77.6,120.33L78.24,121.03L79.07,120.92L79.43,120.16L80.53,119.51L81.17,118.81L81.83,117.33L82.19,117.3L82.63,116.7L84.53,116.86L85.76,117.18L86.59,117.99L87.45,117.69L87.3,118.98ZM70.54,88.17L70.25,89.52L70.73,90.41L70.68,91.21L69.99,92.57L70.47,93.44L70.62,94.61L71.48,95.09L72.67,95.3L72.87,96.06L73.74,96.49L74.7,97.2L74.98,97.67L74.88,98.71L75.84,100.11L76.35,100.27L76.38,101.21L75.98,101.97L76.1,102.6L75.89,103.78L73.73,105.96L73.08,105.81L72.85,106.1L71.7,106.37L71.07,106.24L70.49,106.89L69.56,105.59L68.6,105.23L67.32,105.63L65.72,106.75L65.08,106.66L65.14,106.01L64.72,105.58L63.94,105.44L63.4,104.72L62.79,104.97L62.14,105.58L61.54,105.52L60.34,104.44L59.8,104.38L59.94,103.76L59.51,103.15L61.35,102.22L61.21,101.4L60.28,100.44L61.09,98.88L60.6,98.03L61.27,97.85L61.44,97.01L61.75,96.7L62.08,95.59L62.08,94.68L61.59,94.83L60.52,93.8L60.62,93.05L61.03,92.23L60.21,91.63L59.49,91.62L58.67,91.34L57.97,90.73L58.75,90.42L59.59,89.59L60.05,88.44L61.53,87.65L62.18,86.83L61.95,85.6L62.14,84.66L62.75,83.81L63.34,84.51L64.56,85.45L64.53,85.77L65.12,86.34L65.78,84.84L67.02,85.09L67.67,85.48L68.58,86.4L68.62,86.87L69.54,87.84L69.95,87.67ZM32.34,66.67L33.62,67.06L33.98,67.84L34.65,68.14L36.15,67.7L36.15,67.46L37.52,66.88L38.14,67.15L38.77,67.73L39.21,67.7L39.81,68.09L40.09,68.88L41.02,69.67L41.89,70.15L43.3,69.52L43.56,69.74L43.97,68.99L44.42,68.79L44.83,67.67L45.5,67.47L46.16,68.33L44.99,69.86L44.15,70.34L42.85,70.62L42.42,71.08L42.12,72.52L42.28,73.57L41.91,74.73L40.72,75.11L39.95,75.98L39.17,76.35L39.14,76.74L38.13,77.05L37.68,77.41L36.82,76.24L35.66,75.49L34.75,75.19L33.49,74.53L31.69,74.48L31.12,74.12L30.57,73.2L30.66,71.88L31,71.28L31.42,69.92L31.38,69.09L31.78,67.52ZM97.56,100.51L97.82,100.94L97.66,101.71L98,102.74L94.19,104.86L93.7,104.94L93.36,104.11L92.68,103.94L91.7,104.82L91.36,104.59L89.99,105.02L89.41,105.46L87.3,105.72L87.02,106.13L86.56,105.94L86.72,105.49L85.78,105.18L85.56,105.41L84.22,105.44L83.68,106.02L83.22,106.91L82.62,106.79L81.83,107.57L81.67,107.99L80.63,108.95L80.17,109.86L79.47,110.25L79.32,110.68L78.17,111.28L76.35,111.51L76.14,111.86L75.38,111.86L74.81,112.16L73.73,113.14L72.86,113.29L72.58,113.88L71.93,114.37L70.64,115.99L70.13,116.18L69.7,117.12L69.82,117.39L69.33,118.26L68.68,118.76L66.45,119.65L66.36,120.12L65.3,120.18L64.42,120.61L64.1,120.44L63.03,120.53L62.1,121.3L61.83,120.95L59.97,121.39L58.93,121.47L58.36,121.87L58.07,122.68L58.08,118.87L58.25,118.78L58.32,116.81L59.3,116.75L59.22,117.1L60.66,116.97L60.59,117.28L62.17,116.58L62.61,116.2L63.29,114.78L64.97,114.74L66.04,115.13L66.7,115.87L67.44,115.59L69.12,114.63L69.63,114.75L69.53,113.76L69.99,113.67L70.09,112.64L70.5,111.96L70.4,110.9L69.9,109.85L70.77,109.23L71.68,109.77L73.1,108.17L74.46,107.29L74.72,106.85L75.57,106.89L76.17,107.56L76.25,107.03L76.89,106.38L77.6,106.55L77.8,105.87L78.69,106.31L79.84,105.39L79.59,104.57L80.99,103.76L81.32,102.8L82.12,102.85L82.59,102.63L82.51,101.73L82.73,100.9L84.45,100.41L85.19,100.43L85.69,101.09L86.75,99.89L87.33,99.83L87.25,97.7L87.62,98.11L88.77,97.82L88.76,97L89.64,97L89.65,97.82L90.1,97.82L89.51,98.55L90.37,98.68L90.68,101.13L91.52,101.19L92.1,100.69L92.92,100.9L93.25,101.34L93.5,100.84L94.4,100.58L96.34,100.61L96.27,99.93L96.94,99.85ZM58.91,68.79L58.44,68.14L57.9,67.97L57.72,67.36L57.15,67.03L56.58,65.88L56.56,65.42L55.91,65.05L55.69,64.56L55.08,64.24L54.17,63.37L54.01,62.64L53.02,61.4L53.02,59.54L52.47,59.13L51.23,59.6L50.64,59.4L50.22,59.81L49.5,59.4L49.7,58.92L49.28,57L49.45,56.25L49.14,55.13L48.18,54.47L45.98,52.72L46.37,52L47.49,50.58L47.66,48.79L46.95,47.16L47.81,47.64L48.75,47.35L49.47,47.92L49.55,48.57L50.52,48.61L52.76,48.5L53.68,48.96L53.11,49.32L53.38,49.56L53.71,49.1L54.35,49.15L54.54,48.68L55.17,48.2L54.51,47.48L54.9,47.04L55.88,47.23L56.12,47.64L57.07,47.06L57.43,47.18L58.64,46.3L58.67,45.59L59.46,45.38L60.19,44.36L60.73,43.24L60.37,42.56L60.58,42.01L60.06,41.47L59.89,40.65L60.61,40.34L61.56,41.16L61.6,41.67L62.06,41.82L63.4,43.08L64.29,43.68L65.87,43.91L66.18,43.43L66.76,43.64L68.13,43.5L69.27,43.84L69.41,44.44L70,44.87L70.36,44.75L71.15,46.29L71.99,46.87L71.96,47.5L71.87,47.97L72.48,48.6L73.5,50.56L73.59,51.45L73.84,51.78L74.87,52.16L74.8,52.93L75.04,53.94L75.65,54.69L75.54,56.09L75.85,56.72L75.32,57.21L75.45,57.92L75.75,57.99L75.21,58.16L74.95,58.8L72.98,60.21L72.75,61.56L71.24,63.49L70.42,62.87L70.26,63.07L69.44,62.78L69.24,63.55L70.26,64.01L70.44,65.03L69.76,64.68L69.12,64.7L69.15,65.33L68.17,64.96L68.23,66.08L67.03,66.04L66.36,65.7L66.19,65.25L65.41,65.55L66.29,66.4L65.66,67.16L65.86,67.94L64.36,68.19L64.37,67.38L63.59,67.04L63.01,66.11L62.4,66.37L61.76,65.15L60.86,65.11L60.78,65.76L60.43,66.23L59.54,66.09L59.9,68.08L59.45,67.99ZM53.67,84.08L53.84,82.92L54.27,82.47L54.18,82.08L53.51,81.54L53.67,80.64L54.13,79.26L55.01,79.34L56.04,79.79L56.42,79.72L57.67,78.96L60.32,79.92L60.43,81.99L60.21,82.34L61.87,83.22L62.75,83.81L62.14,84.66L61.95,85.6L62.18,86.83L61.53,87.65L60.05,88.44L59.59,89.59L58.75,90.42L57.97,90.73L58.67,91.34L59.49,91.62L60.21,91.63L61.03,92.23L60.62,93.05L60.52,93.8L61.59,94.83L62.08,94.68L62.08,95.59L61.75,96.7L61.44,97.01L61.27,97.85L60.6,98.03L61.09,98.88L60.28,100.44L61.21,101.4L61.35,102.22L59.51,103.15L59.94,103.76L59.8,104.38L58.57,103.99L58.23,103.66L57.45,104.26L56.79,104.39L56.43,106.1L55.6,106.99L54.7,106.36L54.51,105.9L54.83,104.74L53.5,103.63L53.17,102.43L51.76,101.58L51.51,100.82L51.16,101.18L49.47,101.98L49.04,102.33L48.34,102.08L47.13,102.23L46.23,102.84L45.79,103.46L46.38,103.5L46.56,103.95L47.57,104.17L47.55,105.51L47.33,106.22L46.84,106.55L45.52,106.98L45.03,107.48L44.48,107.59L43.63,108.3L43.52,107.94L42.64,107.87L42.32,107.6L41.84,108.29L41.33,108.54L40.94,109.2L40.83,109.92L40.51,109.85L40.48,110.45L39.9,109.32L38.77,108.19L38.85,107.69L40.29,106.5L40.68,105.91L40.81,104.65L40.53,103.35L40.01,102.17L38.95,100.89L39.06,99.93L39.6,99.73L39.84,98.98L39.19,98.35L38.25,96.89L38.86,95.28L38.29,93.87L36.84,92.32L38.07,91.91L38.34,91.6L38.88,91.74L39.45,91.2L39.87,91.25L41.09,90.55L41.54,89.99L42.37,90.32L43.04,89.91L43.07,88.95L44.81,88.37L45.47,87.6L45.9,87.86L47.44,88.11L48.68,87.34L49.66,87.78L50.52,87.03L51.74,87.38L52.21,87.75L52.65,87.51L52.48,86.9L52.98,85.6L53.66,84.76ZM73.42,41.21L73.12,41.48L72.55,41.19L71.18,41.06L70.85,40.68L70.91,40.05L70.4,39.88L70.24,39.41L69.06,38.68L67.96,38.87L66.18,36.53L66.02,35.7L65.39,35.15L64.66,34.87L64.31,35.49L64.25,36.25L62.74,36.94L61.21,37.3L61.14,37.58L60.89,37.24L59.81,37.41L59.36,37.21L59.46,36.83L59.09,35.31L59.21,33.58L58.87,32.3L58.11,31.46L57.89,30.46L57.97,29.12L57.77,22.07L60.07,22.37L61.54,22.44L65.38,22.39L67.52,22.06L68.5,21.81L70.74,20.53L70.94,20.63L70.96,26.33L70.16,26.84L70.03,27.9L69.57,28.47L70.39,28.64L70.67,28.91L70.31,29.38L70.38,30.68L71.1,30.99L71.02,32.02L70.6,33.01L71.62,33.66L71.85,34.18L71.6,34.89L71.71,36.83L72.08,37.76L72.53,38.08L72.23,39.13L73.14,39.64L73.43,39.38ZM61.14,37.58L60.33,39.56L59.75,39.92L59.89,40.65L60.06,41.47L60.58,42.01L60.37,42.56L60.73,43.24L60.19,44.36L59.46,45.38L58.67,45.59L58.64,46.3L57.43,47.18L57.07,47.06L56.12,47.64L55.88,47.23L54.9,47.04L54.51,47.48L55.17,48.2L54.54,48.68L54.35,49.15L53.71,49.1L53.38,49.56L53.11,49.32L53.68,48.96L52.76,48.5L50.52,48.61L49.55,48.57L49.47,47.92L48.75,47.35L47.81,47.64L46.95,47.16L46.94,46.38L46.67,45.91L46.87,45.29L46.09,45.16L45.72,45.49L44.85,45.24L43.93,45.39L43.53,44.89L43.58,43.74L43.29,43.19L42.72,42.89L42.29,42.18L42.49,41.69L43.67,40.94L43.54,37.29L45.88,37.45L47.21,37.37L48.61,37.04L48.92,37.83L49.17,37.47L49.9,37.35L50.85,37.56L51.2,36.67L51.73,36.8L53.09,36.44L54.76,35.83L56.99,35.8L58.71,36.32L58.89,36.55L58.47,37.8ZM77.06,59.59L76.5,60.48L76.31,61.49L75.67,61.82L75.16,63.33L75.29,64.97L75.11,65.87L74.26,67.52L73.81,69.16L73.94,69.43L75.04,69.72L75.69,69.06L76.3,69.08L76.75,69.5L77.64,68.83L78.54,68.46L78.87,68.57L78.88,70.16L79.42,70.69L79.79,72.42L79.65,73.51L80.05,74.36L80.27,74.33L80.4,75.86L81.03,76.01L81,76.45L81.44,77.37L82.02,77.86L82.73,78.45L83.17,79.99L84.2,80.58L84.35,81.06L83.18,81.38L82.71,82.16L82.26,81.63L80.95,81.81L80.55,82.04L80.18,82.97L78.84,82.94L78.51,83.31L78.99,83.83L78.43,84.25L78.26,83.79L77.16,83.02L77.27,82.34L76.88,82.48L76.27,82.02L75.5,82.09L75.4,81.45L74.75,81.71L74.53,81.48L73.83,81.84L73.24,81.79L71.76,82.67L71.44,83.3L71.31,84.27L70.92,85.07L71.22,86.44L70.74,87.2L70.54,88.17L69.95,87.67L69.54,87.84L68.62,86.87L68.58,86.4L67.67,85.48L67.02,85.09L65.78,84.84L65.12,86.34L64.53,85.77L64.56,85.45L63.34,84.51L62.75,83.81L61.87,83.22L60.21,82.34L60.43,81.99L60.32,79.92L61.35,79.97L61.95,79.3L62.64,78.91L61.92,78.33L62.29,77.8L62.42,76.77L62.81,75.69L62.52,74.91L63.4,73.37L63.15,72.69L62.5,71.93L62.23,71.92L60.34,69.91L60.26,69.52L59.6,69.4L58.91,68.79L59.45,67.99L59.9,68.08L59.54,66.09L60.43,66.23L60.78,65.76L60.86,65.11L61.76,65.15L62.4,66.37L63.01,66.11L63.59,67.04L64.37,67.38L64.36,68.19L65.86,67.94L65.66,67.16L66.29,66.4L65.41,65.55L66.19,65.25L66.36,65.7L67.03,66.04L68.23,66.08L68.17,64.96L69.15,65.33L69.12,64.7L69.76,64.68L70.44,65.03L70.26,64.01L69.24,63.55L69.44,62.78L70.26,63.07L70.42,62.87L71.24,63.49L72.75,61.56L72.98,60.21L74.95,58.8L75.21,58.16L75.75,57.99L76.35,59ZM45.98,52.72L44.76,53.89L43.27,53.74L43.06,54.01L42.53,53.68L39.91,53.4L38.9,53.62L38.46,53.91L38.58,52.45L39.26,51.2L40.21,50.05L41.11,49.28L42.45,48.67L42.95,47.93L42.8,46.16L43.53,44.89L43.93,45.39L44.85,45.24L45.72,45.49L46.09,45.16L46.87,45.29L46.67,45.91L46.94,46.38L46.95,47.16L47.66,48.79L47.49,50.58L46.37,52ZM87.45,117.69L86.59,117.99L85.76,117.18L84.53,116.86L82.63,116.7L82.19,117.3L81.83,117.33L81.17,118.81L80.53,119.51L79.43,120.16L79.07,120.92L78.24,121.03L77.6,120.33L76.87,120.56L76.07,120.36L75.93,120.67L74.97,121.11L74.6,121.66L73.74,121.76L73.72,122.55L74.36,122.87L74.39,123.28L73.4,123.92L73.37,124.5L72.54,125.4L72.42,125.9L70.66,127.47L68.7,128.61L67.02,127.69L66.2,127.01L65.14,126.97L63.17,127.99L62.6,128.03L61.72,126.69L62.16,126.57L62.6,127.28L63.35,126.64L64.21,125.48L65.81,124.31L66.58,123.61L69.62,121.22L72,119.9L72.02,118.24L72.56,117.66L72.8,116.95L73.89,116L74.37,114.94L75.12,113.75L75.1,113.04L75.47,112.3L75.38,111.86L76.14,111.86L76.35,111.51L78.17,111.28L79.22,112.07L80.64,112.3L80.97,112.98L82.37,114.08L82.62,114.68L83.49,115.43L84.39,115.45L84.99,115.82L86.38,117.2L86.76,116.98L87.68,117.52ZM58.07,122.68L58.36,121.87L58.93,121.47L59.97,121.39L61.83,120.95L62.1,121.3L63.03,120.53L64.1,120.44L64.42,120.61L65.3,120.18L66.36,120.12L66.45,119.65L68.68,118.76L69.33,118.26L69.82,117.39L69.7,117.12L70.13,116.18L70.64,115.99L71.93,114.37L72.58,113.88L72.86,113.29L73.73,113.14L74.81,112.16L75.38,111.86L75.47,112.3L75.1,113.04L75.12,113.75L74.37,114.94L73.89,116L72.8,116.95L72.56,117.66L72.02,118.24L72,119.9L69.62,121.22L66.58,123.61L65.81,124.31L64.21,125.48L63.35,126.64L62.6,127.28L62.16,126.57L61.72,126.69L61.31,126.16L60.89,125.12L60.93,124.62L60.44,124.43L59.95,124.73L59.07,124.56L58.53,124.85L57.65,125.84L56.37,126.76L56.03,126.83L55.06,126.31L54.98,125.52L55.66,125.02L55.26,124.6L55.41,124.13L56.04,123.95L56.23,123.22L57.99,123.23ZM75.89,103.78L76.66,103.51L76.95,102.85L76.9,102.33L77.29,101.8L78.06,101.49L78.38,101.1L78.96,101.09L80.26,100.11L80.81,99.3L80.8,98.73L81.36,98.33L81.96,98.4L83.7,97.5L85.07,96.49L86.67,96.47L87.19,96.14L88.13,96.13L88.34,95.84L90.1,96.62L91.13,96.4L91.88,96.45L92.12,96.92L92.68,97.2L93.09,97.06L93.58,97.37L94.34,97.45L95.03,96.97L94.97,96.63L95.84,96.76L96.14,97.4L96.79,97.93L97.62,99.56L97.38,99.7L97.56,100.51L96.94,99.85L96.27,99.93L96.34,100.61L94.4,100.58L93.5,100.84L93.25,101.34L92.92,100.9L92.1,100.69L91.52,101.19L90.68,101.13L90.37,98.68L89.51,98.55L90.1,97.82L89.65,97.82L89.64,97L88.76,97L88.77,97.82L87.62,98.11L87.25,97.7L87.33,99.83L86.75,99.89L85.69,101.09L85.19,100.43L84.45,100.41L82.73,100.9L82.51,101.73L82.59,102.63L82.12,102.85L81.32,102.8L80.99,103.76L79.59,104.57L79.84,105.39L78.69,106.31L77.8,105.87L77.6,106.55L76.89,106.38L76.25,107.03L76.17,107.56L75.57,106.89L74.72,106.85L74.46,107.29L73.1,108.17L71.68,109.77L70.77,109.23L69.9,109.85L70.4,110.9L70.5,111.96L70.09,112.64L69.99,113.67L69.53,113.76L69.63,114.75L69.12,114.63L67.44,115.59L66.7,115.87L66.04,115.13L64.97,114.74L63.29,114.78L62.61,116.2L62.17,116.58L60.59,117.28L60.66,116.97L59.22,117.1L59.3,116.75L58.32,116.81L58.25,118.78L58.08,118.87L58.07,122.68L57.99,123.23L56.23,123.22L56.04,123.95L55.41,124.13L55.26,124.6L55.66,125.02L54.98,125.52L54.6,124.81L53.97,124.25L53.25,123.22L53.1,122.21L52.45,121.7L51.42,121.46L50.04,120.39L50.17,119.23L49.73,118.42L49.23,118.13L47.67,117.85L47.85,117.4L48.54,117.78L49.03,117.27L49.33,117.47L50.39,116.12L50.39,115.42L51.24,114.58L51.04,113.4L51.32,112.9L52.06,112.28L52.5,111.48L53.5,111.61L53.81,110.82L53.33,110.38L54.41,110.29L55.28,108.97L55.13,107.47L55.6,106.99L56.43,106.1L56.79,104.39L57.45,104.26L58.23,103.66L58.57,103.99L59.8,104.38L60.34,104.44L61.54,105.52L62.14,105.58L62.79,104.97L63.4,104.72L63.94,105.44L64.72,105.58L65.14,106.01L65.08,106.66L65.72,106.75L67.32,105.63L68.6,105.23L69.56,105.59L70.49,106.89L71.07,106.24L71.7,106.37L72.85,106.1L73.08,105.81L73.73,105.96ZM40.48,110.45L40.51,109.85L40.83,109.92L40.94,109.2L41.33,108.54L41.84,108.29L42.32,107.6L42.64,107.87L43.52,107.94L43.63,108.3L44.48,107.59L45.03,107.48L45.52,106.98L46.84,106.55L47.33,106.22L47.55,105.51L47.57,104.17L46.56,103.95L46.38,103.5L45.79,103.46L46.23,102.84L47.13,102.23L48.34,102.08L49.04,102.33L49.47,101.98L51.16,101.18L51.51,100.82L51.76,101.58L53.17,102.43L53.5,103.63L54.83,104.74L54.51,105.9L54.7,106.36L55.6,106.99L55.13,107.47L55.28,108.97L54.41,110.29L53.33,110.38L53.81,110.82L53.5,111.61L52.5,111.48L52.06,112.28L51.32,112.9L51.04,113.4L51.24,114.58L50.39,115.42L50.39,116.12L49.33,117.47L49.03,117.27L48.54,117.78L47.85,117.4L47.67,117.85L47.16,117.39L46.62,116.05L45.57,115.72L45.14,115.28L43.87,115.83L42.91,115.58L42.59,114.14L41.79,113.24L41.28,113.06L40.42,113.19L39.12,114.37L38.64,113.51L38.77,112.98L39.76,112.19L40.53,111.14ZM57.77,22.07L57.97,29.12L57.89,30.46L58.11,31.46L58.87,32.3L59.21,33.58L59.09,35.31L59.46,36.83L59.36,37.21L59.81,37.41L60.89,37.24L61.14,37.58L58.47,37.8L58.89,36.55L58.71,36.32L56.99,35.8L54.76,35.83L53.09,36.44L51.73,36.8L51.2,36.67L50.85,37.56L49.9,37.35L49.17,37.47L48.92,37.83L48.61,37.04L47.21,37.37L45.88,37.45L43.54,37.29L43.45,34.08L42.84,32.49L42.63,30.18L42.87,29.15L42.91,27.64L43.97,26.35L42.98,25.72L41.89,24.77L41.72,24.44L41.76,22.7L41.31,21.22L40.87,20.63L39.14,19.08L37.57,18.12L36.91,17.46L36.44,16.4L36.11,14.59L37.24,14.94L38.78,15.74L40.76,16.23L43.6,17.53L45.95,18.52L51.06,20.4L54.11,21.28ZM47.35,80.25L47.95,80.81L49.5,81.3L49.84,81.24L52.12,82.44L52.78,83.19L53.17,83L53.09,83.54L53.67,84.08L53.66,84.76L52.98,85.6L52.48,86.9L52.65,87.51L52.21,87.75L51.74,87.38L50.52,87.03L49.66,87.78L48.68,87.34L47.44,88.11L45.9,87.86L45.47,87.6L44.81,88.37L43.07,88.95L43.04,89.91L42.37,90.32L41.54,89.99L41.09,90.55L39.87,91.25L39.45,91.2L38.88,91.74L38.34,91.6L38.07,91.91L36.84,92.32L35.89,91.29L35.43,90.29L34.85,90.04L34.3,88.58L34.42,87.72L34.93,86.82L34.83,85.15L35.74,83.94L36.49,83.49L36.93,83.48L37.96,82.92L39.21,81.56L39.9,80.47L39.78,80.13L40.23,80.58L41.33,79.87L42.57,80.97L43.18,80.45L43.98,80.39L44.61,80.03L46.61,80.48ZM44.12,66.03L44.72,65.38L45.01,64.5L45.53,65.56L45.86,65.56L47.01,66.6L48.47,66.15L49.03,67.07L49.94,66.84L50.83,67.27L51.21,67.06L51.13,67.64L51.74,67.86L51.97,68.86L51.4,69.53L51.37,70.58L50.35,71.34L50.09,72.24L49.01,72.35L49.12,73.71L49.68,74.67L49.79,75.81L49.01,76.76L48.18,76.74L48.5,77.77L48.19,78.69L47.34,78.53L46.7,77.76L46.93,78.72L46.69,79.26L47.35,80.25L46.61,80.48L44.61,80.03L43.98,80.39L43.18,80.45L42.57,80.97L41.33,79.87L40.23,80.58L39.78,80.13L39.05,79.23L38.18,78.53L37.68,77.41L38.13,77.05L39.14,76.74L39.17,76.35L39.95,75.98L40.72,75.11L41.91,74.73L42.28,73.57L42.12,72.52L42.42,71.08L42.85,70.62L44.15,70.34L44.99,69.86L46.16,68.33L45.5,67.47L44.85,66.26ZM77.44,42.72L76.61,42.83L76.54,42.3L76.15,42.71L75.62,42.52L75.2,41.66L73.42,41.21L73.43,39.38L73.14,39.64L72.23,39.13L72.53,38.08L72.08,37.76L71.71,36.83L71.6,34.89L71.85,34.18L71.62,33.66L70.6,33.01L71.02,32.02L71.1,30.99L70.38,30.68L70.31,29.38L70.67,28.91L70.39,28.64L71.58,29.08L73.49,29L73.16,28.28L73.35,27.22L72.32,27.12L72.35,26.58L73.1,26.65L72.91,25.26L73.26,25.4L73.45,24.15L74.98,23.36L75.56,23.61L76.52,23.54L77.03,24.75L76.84,25.19L77.93,26.43L77.49,26.97L77.68,27.28L77.81,28.52L78.41,29.45L78.63,29.05L79.55,28.62L80.2,28.79L79.79,29.58L80.26,29.81L79.91,30.35L80.24,30.62L79.79,31.46L80.46,31.5L80.36,32.22L80.76,32.69L80.75,33.93L81.27,35.59L80.6,36.74L79.93,36.86L79.83,37.54L79.29,37.43L78.7,39.02L79.17,40.06L78.28,40.4L78.23,40.9L77.28,41.95Z" fill="#B3CFC0" stroke="#007139" stroke-width="0.5"/></svg>