<svg xmlns="http://www.w3.org/2000/svg" width="144" height="144" viewBox="0 0 144 144"><path d="M87.18,47.16L89.22,48.44L89.86,49.12L93.11,50.77L93.79,51.85L95.3,52.8L97.1,53.14L98.91,54.9L99.48,55.03L97.65,56.04L93.98,55.87L92.01,55.5L92.43,55.97L92.87,57.65L92.44,58.97L90.66,61.21L90.59,61.76L89.96,61.56L90.43,60.62L89.78,59.33L89.86,58.2L89.05,56.62L86.83,55.78L86.53,56.08L85.31,55.51L85.21,55.03L83.85,54.35L81.99,54.23L80.07,52.26L78.9,51.78L77.16,50.19L75.93,48.07L76.53,46.89L76.28,46.3L77.78,45.92L79.01,46.85L80.6,47.03L82.67,46.33L84.17,47.05L84.68,46.58L85.06,47.21ZM78.9,81.98L78.59,84.23L77.63,84.84L77.35,85.56L77.53,86.85L76.26,88.22L76.19,88.88L75.17,89.46L74.7,90.27L73.65,90.67L72.82,90.13L70.18,90.06L69.23,90L68.12,88.48L67.69,87.14L66.58,85.95L65.99,85.76L67.44,83.95L69.34,82.2L70.29,81.84L71.15,82.23L72.07,81.68L73.65,81.48L74.88,83.74L76.68,83.81L77.23,84.47L78.17,84.09ZM43.39,49.88L43.79,49.88L44.8,51.18L46.97,51.82L47.36,51.55L49.98,53.44L52.82,53.84L53.89,54.33L54.16,55.35L53.81,55.94L53.86,58.16L53.4,57.95L53.69,59.32L53.18,60.3L54.05,61.55L53.58,62.28L52.64,62.21L52.11,62.74L52.09,64.82L51.7,65.28L51.36,68.49L51.1,69.31L50.04,70.1L49.28,71.23L47.4,69.67L47.01,69.79L46.57,71.61L44.21,71.51L43.64,71.91L42.87,69.72L43.49,68.92L42.95,68.57L42.56,67.27L40.33,64.81L39.42,64.71L38.6,64.03L38.43,63.27L39.12,62.72L38.45,61.95L38.67,60.59L37.72,59.09L38.03,58.4L37.72,57.5L39.84,55.89L40.67,55.55L41.28,54.52L42.65,53.51L42.17,51.11L42.57,50.26ZM43.64,71.91L44.21,71.51L46.57,71.61L47.01,69.79L47.4,69.67L49.28,71.23L50.04,70.1L51.1,69.31L51.36,68.49L52.9,69.4L53.23,70.7L54.01,71.86L55.41,72.54L55.98,73.41L57.04,73.75L57.06,75.71L56.04,76.44L55.86,77.17L54.92,77.94L55.01,78.91L54.22,79.51L52.6,79.08L51.14,80.58L51.39,81.03L50.59,81.59L50.64,82.74L49.94,83.53L49.84,83.67L48.78,81.48L46.46,81.13L45.55,80.34L45.22,79.51L43.78,79.12L43.6,78.58L41.99,77.73L41.88,77.13L42.77,76.37L43.32,74.86ZM70.29,81.84L69.34,82.2L67.44,83.95L65.99,85.76L66.58,85.95L67.69,87.14L68.12,88.48L69.23,90L70.18,90.06L71.08,92.17L71.78,93.03L71.54,93.74L72.05,95.18L72.92,96.33L73.35,98.27L73.83,98.83L73.7,99.45L72.37,99.96L71.4,100.89L71.09,102.87L70.3,102.71L68.11,101.26L67.2,98.84L66.05,97.22L64.6,97.63L64.07,98.23L62.92,98.08L62.09,98.55L60.56,98.14L59.04,96.54L60.1,95.09L61.22,94.07L61.04,91.92L60.37,91.65L59.05,91.95L57.35,91.64L56.86,90.08L57.38,89.27L56.79,86.59L56.13,85.81L54.27,85.03L54.23,84.5L55.24,82.98L55.72,83.41L57.74,82.43L58.98,80.58L59.98,80.71L61.98,78.65L61.98,77.97L63.59,76.55L64.18,75.39L65.11,74.91L66.04,74.03L66.76,74.69L65.61,75.5L65.54,76.95L64.49,77.19L64.01,78L63.17,78.1L64.34,80.19L65.03,79.79L65.67,80.2L66.44,79.77L68.62,81.4L69.15,81.03ZM89.02,13.77L88.76,14.9L88.06,15.35L87.86,17.63L87.26,18.22L87.36,18.98L86.86,20.09L86.55,22.63L87.67,23.32L88.17,24.06L87.81,25.63L86.52,26.43L85.8,27.58L84.61,27.77L83.65,27.39L83.74,26.77L82.9,26.27L81.71,24.27L81.6,23.69L82.27,22.7L81.28,22.09L81.16,21.09L82.18,17.68L80.16,15.73L78.94,16.12L78.17,17.94L77.31,18.56L76.53,18.22L75.82,17.11L73.99,16.92L73.64,16.04L73.56,12.34L74.7,11.65L75.39,8.87L74.82,8.02L75.01,6.73L75.96,5.79L77.17,7.24L76.83,7.69L77.67,8.29L77.94,9.61L77.36,11.11L77.7,11.75L79,12.85L80.4,12.69L81.79,13.94L83.3,13.83L84.5,12.21L85.11,12.93L84.99,13.81L85.84,14.45L86.51,14.39L87.21,13.45L87,12.97L88.1,12.17ZM87.18,47.16L85.06,47.21L84.68,46.58L84.17,47.05L82.67,46.33L80.6,47.03L79.01,46.85L77.78,45.92L76.28,46.3L75.62,44.8L73.54,44L73,43.21L72.32,43.14L72.27,42.32L70.71,40.67L69.53,38.71L69.81,37.38L70.46,36.75L71.23,34.55L72.03,34.37L72.78,36.14L74.44,37.31L75.62,36.93L76.4,35.94L77.67,36.54L78.93,36.62L79.64,35.98L82.27,37.05L83.16,37.32L84.59,38.48L85.37,39.67L85.48,40.5L90.09,41.83L91.75,43.32L92.43,43.4L92.7,43.96L91.75,44.34L92.88,45.42L92.15,45.88L90.84,45L88.61,47.05ZM84.61,27.77L85.8,27.58L86.88,28.24L87.83,28.26L88.47,27.19L89.32,26.91L91.92,28.69L92.79,28.77L93.86,29.44L95.74,27.5L97.24,27.22L97.59,26.59L98.79,26.51L99.46,25.57L100.15,25.66L100.86,24.98L100.88,25.95L100.22,28.33L100.91,30.28L101.05,33.64L100.72,34.13L99.71,34.95L99.39,35.74L97.83,36.96L96.6,36.33L93.23,35.42L93.36,36.42L92.63,37.97L92.26,37.85L90.72,36.32L90.31,34.2L89.66,33.71L89.51,32.58L89.01,32.19L88.13,30.49L86.74,29.22L85.79,28.77ZM97.35,7.38L96.42,8.23L96.47,10.09L97.54,10.33L96.97,12.83L98.24,15.35L99.47,14.82L100.19,15.64L101.25,15.69L101.59,14.27L100.94,13.06L100.66,11.8L101.34,10.61L101.74,11.73L102.74,12.01L104.1,11.98L104.85,13.9L104.71,14.44L106.14,15.75L105.5,16.93L105.29,18.93L104.59,18.85L104.57,19.7L103.8,20.5L102.47,21.04L101.99,22.24L100.65,23.86L100.61,24.84L99.12,24.04L98.33,22.31L97.05,21.33L96.95,20.47L96.13,19.26L96.75,18.38L95.53,17.21L96.5,16.75L97.47,15.15L96.7,13.67L96.57,12.54L95.73,11.73L95.09,10.01L96.02,10.5L96.3,9.98L96.27,7.79L96.79,7.01ZM106.14,15.75L104.71,14.44L104.85,13.9L104.1,11.98L102.74,12.01L105.46,6.12L108.19,6.14L109.25,7.69L110.05,8.29L112.43,9.15L112.99,8.83L113.47,9.52L115.11,10.5L116.92,9.66L117.67,9.65L117.76,10.42L118.46,11.51L118.39,12.57L116.45,13.51L116.62,14.15L116.42,14.98L115.31,15.81L114.29,15.18L112.49,16L111.06,15.88L109.85,16.39L108.91,15.46L107.68,15.2ZM76.28,46.3L76.53,46.89L75.93,48.07L77.16,50.19L78.9,51.78L78.6,52.81L79.45,53.29L79.86,54.19L79.38,54.49L79.25,55.77L78.08,55.69L78.5,56.82L77.11,57.93L75.91,57.88L75.32,57.37L74.45,57.84L73.32,57.3L72.42,58.34L74.26,59.01L75.63,60.35L77.71,60.78L76.75,62.17L75.5,61.99L74.59,61.36L74.29,63.01L73.84,63.38L72.73,62.65L72.51,63.39L71.7,63.94L72.25,64.93L71.89,67.01L69.96,67.02L68.57,66.65L67.61,64.65L66.29,65.12L65.77,64.69L65.37,65.7L64.16,67.14L62.58,68.23L61.29,68.1L61.92,66.98L60.78,66.21L61.33,64.15L61.16,62.64L60.42,61.52L58.64,61.99L57.46,61.31L56.54,61.56L56.3,60.97L54.95,60.73L54.05,61.55L53.18,60.3L53.69,59.32L53.4,57.95L53.86,58.16L53.81,55.94L54.16,55.35L53.89,54.33L52.82,53.84L49.98,53.44L47.36,51.55L46.97,51.82L44.8,51.18L43.79,49.88L43.39,49.88L43.67,47.93L43.31,46.87L44.81,45.72L44.71,44.96L46.64,43.36L46.22,42.09L47.11,41.76L48.72,41.81L49.62,41.51L49.98,40.59L49.38,40.1L49.69,39L48.57,38.2L46.94,38.06L46.17,36.72L45.43,36.51L45.71,34.97L46.14,34.28L46.12,32.57L46.49,31.26L48.92,33.01L48.91,34.02L51.7,34.45L52.41,34.28L53.49,32.79L55.23,32.38L55.73,32.62L57.94,32.19L57.96,30.52L60.13,31.2L61.65,31.01L62.63,32L63.2,32.05L64.59,33.77L65.85,33.8L66.15,32.77L67.2,32.25L67.23,31.22L68.37,31.61L69.48,31.44L70.19,32.58L69.85,32.81L71.23,34.55L70.46,36.75L69.81,37.38L69.53,38.71L70.71,40.67L72.27,42.32L72.32,43.14L73,43.21L73.54,44L75.62,44.8ZM59.04,96.54L60.56,98.14L59.4,99.11L58.85,98.94L57.78,100.86L56.65,101.27L54.26,101.47L53.82,101.71L53.45,100.32L54.02,100.35L54.34,99.32L56.1,98.45L56.57,97.84ZM101.34,10.61L100.66,11.8L100.94,13.06L101.59,14.27L101.25,15.69L100.19,15.64L99.47,14.82L98.24,15.35L96.97,12.83L97.54,10.33L96.47,10.09L96.42,8.23L97.35,7.38L98.77,6.68L99.98,7.57L100.54,8.89L101.52,9.65ZM37.72,57.5L38.03,58.4L37.72,59.09L38.67,60.59L38.45,61.95L39.12,62.72L38.43,63.27L38.6,64.03L39.42,64.71L38.7,65.19L37.34,64.29L35.29,63.43L34.28,63.37L33.03,64.58L33.5,66.1L32.56,67.63L32.55,68.9L30.64,68.62L29.13,68.82L28.52,68.46L27.32,69.78L25.53,70.75L22.98,70.52L21.95,71.12L19.77,71.43L17.63,72.62L14.79,71.75L13.54,70.42L12.31,69.93L11.44,70.03L10.65,69.14L10.39,67.72L10.74,66.69L10.7,64.93L9.92,64.46L8.54,61.35L8.56,59.33L7.9,58.55L7.38,56.66L6.48,55.76L6.46,53.06L6.01,51.48L5.98,49.75L6.65,47.72L6.6,44.69L5.82,41.85L7.15,41.53L6.68,40.49L7.11,39.38L8.29,39.09L9.17,38.38L10.84,38.75L11.54,38.03L13.18,39.14L14.32,38.78L14.89,38.91L15.41,38.15L16.63,37.91L16.75,39.26L18.02,38.66L18.26,39.14L21.02,40.42L21.91,40.12L23.27,41.71L24.9,42.17L24.89,43.12L26.28,43.72L27.06,47.17L28.5,48.62L30.13,49.19L32.88,50.63L33.72,49.88L34.73,50.92L34.56,51.9L35,52.68L34.48,54.76L34.7,55.38L36.4,55.8L36.04,56.47L36.28,57.36ZM125.16,50.49L124.13,50.16L123.53,51.67L121.67,53.58L120.86,56.32L117.46,55.49L115.22,57.67L112.19,59.08L111.84,60.15L109.52,61.37L107.66,60.04L107.24,59.29L106.18,59.73L104.6,58.98L104.59,57.87L105.23,56.63L103.23,56.88L102.94,54.95L104.06,54.51L104.56,53.6L105.27,54.02L105.39,52.55L106.53,52.53L109.1,51.53L109.77,50.63L109.67,49.59L110.4,48.94L110.1,48.04L109.18,47.46L108.95,46.88L109.57,46.29L108.75,44.8L109.38,42.66L110.03,42.38L111.49,42.86L112.04,42.36L112.28,41.15L113.07,40.17L113.83,40.96L114.75,41.05L116,40.31L116.75,41.29L119.01,39.53L119.37,40.19L120.57,40.1L120.52,40.98L121.23,42.38L122.31,42.24L120.69,43.69L121.33,45.1L123.52,46.63L124.34,46.54L124.41,47.23L125.23,47.64L125.36,49.62ZM100.72,34.13L101.05,33.64L100.91,30.28L100.22,28.33L100.88,25.95L100.86,24.98L100.61,24.84L100.65,23.86L101.99,22.24L102.47,21.04L103.8,20.5L104.35,21.41L103.55,24.04L104.45,24.7L104.61,26.7L104.35,27.63L106.6,29.26L108.02,29.18L108.26,28.37L109.11,28.29L109.26,28.84L109.66,31.05L108.83,31.69L108.02,33.26L107.9,33.78L106.68,34.22L105.98,33.15L105.05,34.51L104.11,34.5L102.9,33.4L102.45,35.35L101.67,35.27ZM66.29,65.12L67.61,64.65L68.57,66.65L69.96,67.02L71.89,67.01L73.04,67.47L73.55,68.27L75.63,67.78L76.48,67.25L78.73,66.85L79.95,67.58L81.58,69.37L83.44,69.32L83.74,69.8L83.42,71.4L83.94,72.64L82.8,72.08L82.07,72.44L80.76,72.46L79.79,72.07L78.19,71.53L74.36,71.36L72.91,70.77L71.35,70.79L70.7,71.38L69,70.87L68.7,70.69L67.82,68.56L67.97,67.75L67.39,66.21ZM78.9,81.98L78.17,84.09L77.23,84.47L76.68,83.81L74.88,83.74L73.65,81.48L72.07,81.68L71.19,79.8L69.06,79.19L69.57,78.15L69.15,77.32L69.23,75.27L68.45,74.78L68.92,74.1L69.53,72.03L69,70.87L70.7,71.38L71.35,70.79L72.91,70.77L74.36,71.36L78.19,71.53L79.79,72.07L80.91,73.06L81.87,76.1L81.65,76.77L82.48,78.07L84.46,78.25L85.49,78.88L86.16,78.57L87.65,78.99L88.12,79.56L87.75,80.59L86.88,80.43L85.8,81.06L85.05,82.29L84.19,82.67L83.22,82.5L81.84,83.01L81.32,82.48L80.4,83.06L79.53,82.96ZM75.01,6.73L74.82,8.02L75.39,8.87L74.7,11.65L73.56,12.34L73.64,16.04L73.99,16.92L72.84,18.55L72.78,19.42L70.78,21.44L69.5,23.77L69.25,25.43L69.47,26.36L68.16,28.35L68.73,29.23L67.52,29.92L67.23,31.22L67.2,32.25L66.15,32.77L65.85,33.8L64.59,33.77L63.2,32.05L62.63,32L61.65,31.01L60.13,31.2L57.96,30.52L57.94,32.19L55.73,32.62L55.23,32.38L53.49,32.79L52.41,34.28L51.7,34.45L48.91,34.02L48.92,33.01L46.49,31.26L46.12,32.57L46.14,34.28L45.71,34.97L45.43,36.51L46.17,36.72L46.94,38.06L46.68,38.89L45.09,40.1L44.25,39.84L44.26,39L43.17,37.2L42.92,36.29L43.32,35.42L43.04,33.78L42.58,32.82L43.43,30.82L42.62,29.29L41.96,29.7L40.9,29.18L40.82,28.14L40.05,27.97L38.31,26.44L37.71,26.79L35.04,25.79L34.21,25.94L32.68,25.64L30.4,24.85L28.8,25.27L27.47,24.55L26.12,24.71L24.81,26.1L23.72,25.7L23.01,24.31L21.48,23.17L21.7,20.96L20.32,20.83L19.66,21.75L20.24,19.95L21.73,17.2L22.52,16.05L24.14,15.17L28.01,10.1L28.63,7.92L29.18,7.05L30.89,8.61L31.99,8.4L31.69,7.2L32.43,6.85L32.99,7.29L33.86,6.84L34.7,5.28L36.05,4.55L36.95,5.32L37.66,7.01L38.94,7.58L38.86,9.19L40.05,10.06L39.96,11.09L41.19,11.45L42.98,9.43L45.3,10.91L44.69,11.59L46.29,11.78L46.96,12.99L47.94,13.43L49.05,12.66L48.98,11.76L49.82,11.87L51.67,10.35L51.68,9.99L53.93,9.67L54.26,10.21L56.07,8.72L57.34,9.06L58.29,9.71L60.33,9.85L61.48,10.68L62.32,10.57L63.57,11.92L63.87,12.77L65.91,13.07L66.72,12.06L66.56,11.51L67.29,10.92L67.69,7.81L70.71,7.09L71.23,7.39L72.44,7.15L73.77,7.36ZM49.84,83.67L49.94,83.53L50.53,84.42L51.25,84.59L52.64,84.3L53.17,84.66L54.23,84.5L54.27,85.03L56.13,85.81L56.79,86.59L57.38,89.27L56.86,90.08L57.35,91.64L59.05,91.95L60.37,91.65L61.04,91.92L61.22,94.07L60.1,95.09L59.04,96.54L56.57,97.84L56.1,98.45L54.34,99.32L54.02,100.35L53.45,100.32L52.99,99.85L52.38,100.42L50.53,100.35L48.88,100.87L47.74,101.55L46.61,100.75L45.81,101.22L42.08,100.07L43.47,97.3L44.28,94.99L43.38,92.62L44.22,91.81L44.28,90.96L45.14,89.24L46.61,88.7L47.38,87.6L47.27,86.14L48.49,85.59L49.39,84.66ZM117.76,10.42L117.67,9.65L116.92,9.66L115.11,10.5L113.47,9.52L112.99,8.83L112.43,9.15L110.05,8.29L109.25,7.69L108.19,6.14L105.46,6.12L104.39,6.43L102,5.37L100.45,5.42L101.11,4.26L100.63,3.94L101.55,2.6L102.03,2.94L103.94,2.94L105.12,2.57L106.1,3.12L106.93,2.85L108.96,3.17L110.34,4.3L111.24,6.18L113.38,5.65L114.01,6.46L116.45,6.36L118.76,7.2L119.71,6.7L118.71,8.12L117.77,7.62L117.35,7.89L117.33,9.33L118.14,9.96ZM83.74,26.77L83.65,27.39L84.61,27.77L85.79,28.77L86.74,30.62L86.36,31.48L86.62,32.98L87.37,35.31L87.95,36.19L87.47,36.74L87.78,37.35L86.82,37.75L84.75,36.69L83.72,36.46L82.27,37.05L79.64,35.98L78.93,36.62L77.67,36.54L76.4,35.94L75.62,36.93L74.44,37.31L72.78,36.14L72.03,34.37L71.23,34.55L69.85,32.81L70.19,32.58L69.48,31.44L68.37,31.61L67.23,31.22L67.52,29.92L68.73,29.23L68.16,28.35L69.47,26.36L69.25,25.43L69.5,23.77L70.78,21.44L71.49,21.24L72.93,22.15L73.97,22.4L74.58,23.55L74.11,24.1L74.45,24.72L74.19,25.97L72.65,27.04L72.23,27.81L72.64,28.95L74.16,29.4L75.39,30.56L77.03,31.27L77.53,31.01L79.21,31.8L80.76,30.56L81.22,29.47L81.16,27.92L82.56,27.51ZM102.74,12.01L101.74,11.73L101.34,10.61L101.52,9.65L100.54,8.89L99.98,7.57L100.29,7.17L100.45,5.42L102,5.37L104.39,6.43L105.46,6.12ZM125.16,50.49L125.36,49.62L125.23,47.64L124.41,47.23L124.34,46.54L123.52,46.63L121.33,45.1L120.69,43.69L122.31,42.24L121.23,42.38L120.52,40.98L120.57,40.1L119.37,40.19L119.01,39.53L116.75,41.29L116,40.31L114.75,41.05L113.83,40.96L113.07,40.17L112.28,41.15L112.04,42.36L111.49,42.86L110.03,42.38L109.32,41.67L107.72,41.17L107.65,39.52L108.98,37.1L108.85,36.16L109.78,33.66L111.86,33.91L112.3,33.55L110.91,32.87L109.08,32.79L108.02,33.26L108.83,31.69L109.66,31.05L109.26,28.84L110.33,28.6L111.28,27.33L112.6,27.38L113.65,26.74L113.56,25.9L114.16,25.12L115.22,25.21L115.78,24.6L116.1,22.63L115.55,22.26L116.38,21.59L116.87,19.82L117.69,19.28L118.16,17.47L118.79,17.21L120.06,17.33L120.37,19.03L121.56,19.7L121.1,21.7L121.11,23.61L129.19,28.77L130.22,30.11L132.25,29.54L133.47,29.83L134.72,31.65L134.3,33.23L134.74,34.15L136,34.38L137.98,35.7L138.18,37.05L137.56,39.41L136.77,39.6L135.7,40.75L135.56,42.44L135,42.88L134.41,44.3L133.57,44.82L133.38,45.79L132.73,46.31L132.74,47.9L133.83,49.18L133.7,50.88L134.16,51.38L132.4,52.43L132.12,53.4L131.38,53.91L131.14,54.87L129.49,54.61L127.86,52.97L127.88,51.96L126.7,51.15L125.42,50.98ZM51.36,68.49L51.7,65.28L52.09,64.82L52.11,62.74L52.64,62.21L53.58,62.28L54.05,61.55L54.95,60.73L56.3,60.97L56.54,61.56L57.46,61.31L58.64,61.99L60.42,61.52L61.16,62.64L61.33,64.15L60.78,66.21L61.92,66.98L61.29,68.1L62.58,68.23L64.16,67.14L65.37,65.7L65.77,64.69L66.29,65.12L67.39,66.21L67.97,67.75L67.82,68.56L68.7,70.69L67.38,72.2L66.31,72.97L65.11,74.91L64.18,75.39L63.59,76.55L61.98,77.97L61.98,78.65L59.98,80.71L58.98,80.58L57.74,82.43L55.72,83.41L55.24,82.98L54.23,84.5L53.17,84.66L52.64,84.3L51.25,84.59L50.53,84.42L49.94,83.53L50.64,82.74L50.59,81.59L51.39,81.03L51.14,80.58L52.6,79.08L54.22,79.51L55.01,78.91L54.92,77.94L55.86,77.17L56.04,76.44L57.06,75.71L57.04,73.75L55.98,73.41L55.41,72.54L54.01,71.86L53.23,70.7L52.9,69.4ZM88.42,136.5L89.31,136.12L89.7,136.61L91.69,136.89L92.04,136.4L94.4,135.66L95.99,132.89L95.47,131.98L96.77,131.25L97.15,130.3L98.25,129.89L99.1,130.3L100.13,128.48L99.99,127.2L101.75,125.26L103.28,123.88L102.99,122.61L103.46,121.77L105.87,120.53L106.53,119.09L107.86,118.07L108.38,115.83L107.19,114.71L107.46,113.59L108.24,112.51L109.03,112.26L110.14,111.09L109.64,110.75L110.05,109.37L109.71,107.61L110.8,106.56L111.74,106.65L112.48,105.82L113.25,106.35L113.82,108.86L111.71,111.85L111.56,113.61L112.2,114.09L111.17,115.91L110.61,116.1L110.75,118.79L110.49,120.04L109.34,120.97L109.87,121.42L107.88,123.52L107.35,124.83L106.08,125.4L105.58,126.25L104.46,127.15L105.27,128.73L104.66,129.83L105.34,130.91L105.85,133.11L107.14,134.06L108.39,134L109.94,134.83L110.52,134.45L111.03,134.96L112.87,135L113.19,134.43L114.21,135.45L115.39,135.38L115.34,136.16L116.62,136.7L117.99,137.67L117.2,138.16L117.93,138.73L118.33,139.76L117.29,140.33L116.61,139.95L115.27,141.08L112.79,139.68L111.72,139.89L111.73,140.7L110.45,140.44L110.21,141.12L111.38,141.3L110.59,142.61L108.42,142.68L108.36,143.64L107.75,142.64L106.68,143.34L105.88,142.62L104.78,143.87L103.92,143.56L102.81,144L102.53,142.66L100.28,142.47L99.32,142.98L98.53,142.68L98.01,143.77L96.92,143.84L95.84,143.33L95.84,142.62L94.51,141.54L93.53,141.2L92.98,139.83L91.11,139.62L89.82,139.22ZM92.43,43.4L91.75,43.32L90.09,41.83L85.48,40.5L85.37,39.67L84.59,38.48L83.16,37.32L82.27,37.05L83.72,36.46L84.75,36.69L86.82,37.75L87.78,37.35L87.47,36.74L87.95,36.19L87.37,35.31L86.62,32.98L86.36,31.48L86.74,30.62L85.79,28.77L86.74,29.22L88.13,30.49L89.01,32.19L89.51,32.58L89.66,33.71L90.31,34.2L90.72,36.32L92.26,37.85L92.56,38.55L91.53,38.38L92.24,40.36L92.89,41.22L92.34,42.2ZM97.35,7.38L96.79,7.01L97.11,6.12L95.46,5.19L94.9,4.24L94.14,2.99L92.92,2.35L93.16,1.46L93.66,2.18L94.92,0L95.68,0.71L97.29,1.01L98.21,1.83L99.26,2.24L101.55,2.6L100.63,3.94L101.11,4.26L100.45,5.42L100.29,7.17L99.98,7.57L98.77,6.68ZM90.59,61.76L90.66,61.21L92.44,58.97L92.87,57.65L92.43,55.97L92.01,55.5L93.98,55.87L97.65,56.04L99.48,55.03L100.68,55.75L101.17,56.45L102.14,56.27L102.52,57.22L103.23,56.88L105.23,56.63L104.59,57.87L104.6,58.98L106.18,59.73L107.24,59.29L107.66,60.04L109.52,61.37L111.84,60.15L112.19,59.08L115.22,57.67L113.98,62.9L115.52,67.1L114.6,67.34L114.4,68.01L113.22,68.73L110.23,68.73L108.38,66.91L106.17,64.34L104.49,63.53L100.99,64.31L100.18,63.8L99.5,64.45L98.75,66.72L98.4,68.39L96.55,69.33L96.32,70.97L97.09,72.93L96.58,73.49L95.29,73.93L94.72,74.59L93.7,74.02L93.29,72.92L92.27,73.06L91.71,72.54L89.98,72.62L89.23,72.3L89.29,69.98L89.05,69.52L89.66,67.61L90.61,67.07L89.96,66.66L89.96,63.79L90.85,62.86ZM71.89,67.01L72.25,64.93L71.7,63.94L72.51,63.39L72.73,62.65L73.84,63.38L74.29,63.01L74.59,61.36L75.5,61.99L76.75,62.17L79.43,63.36L79.83,64.33L83.07,66.19L83.15,68.28L83.44,69.32L81.58,69.37L79.95,67.58L78.73,66.85L76.48,67.25L75.63,67.78L73.55,68.27L73.04,67.47ZM70.18,90.06L72.82,90.13L73.65,90.67L74.7,90.27L75.17,89.46L76.19,88.88L76.26,88.22L77.53,86.85L77.35,85.56L77.63,84.84L78.59,84.23L78.9,81.98L79.53,82.96L80.4,83.06L81.32,82.48L81.84,83.01L83.22,82.5L84.19,82.67L85.05,82.29L85.12,83.27L85.82,83.99L85.28,85.22L86.75,85.62L87.74,86.91L86.93,87.96L87.04,88.77L86.53,89.98L85.08,90.86L84.78,92.14L83.21,92.98L81.54,91.76L79.21,92.56L78.35,94.04L77.16,94.8L76.44,94.24L76.31,95.34L73.83,98.83L73.35,98.27L72.92,96.33L72.05,95.18L71.54,93.74L71.78,93.03L71.08,92.17ZM85.8,27.58L86.52,26.43L87.81,25.63L88.17,24.06L87.67,23.32L86.55,22.63L86.86,20.09L87.36,18.98L87.26,18.22L87.86,17.63L88.06,15.35L88.76,14.9L89.02,13.77L90.88,12.96L91.27,11.4L92.33,11.24L92.26,11.63L93.5,12.12L94.57,12.99L95.22,12.74L96.7,13.67L97.47,15.15L96.5,16.75L95.53,17.21L96.75,18.38L96.13,19.26L96.95,20.47L97.05,21.33L98.33,22.31L99.12,24.04L100.61,24.84L100.86,24.98L100.15,25.66L99.46,25.57L98.79,26.51L97.59,26.59L97.24,27.22L95.74,27.5L93.86,29.44L92.79,28.77L91.92,28.69L89.32,26.91L88.47,27.19L87.83,28.26L86.88,28.24ZM71.09,102.87L71.4,100.89L72.37,99.96L73.7,99.45L73.83,98.83L76.31,95.34L76.44,94.24L77.16,94.8L78.35,94.04L79.21,92.56L81.54,91.76L83.21,92.98L84.78,92.14L85.08,90.86L86.53,89.98L87.04,88.77L88.32,89.52L89.12,90.57L89.84,90.53L90.67,91.48L91.7,90.87L93.2,91.34L96.51,93.47L97.32,95.57L96.74,96.49L96.97,97.34L97.72,97.93L98.12,97.17L99.65,96.14L100.43,97L99.96,98.94L100.07,99.98L99.67,100.9L100.81,100.8L101.73,101.3L103.15,101.19L103.62,99.97L104.56,99.58L105.79,100.4L107.5,100.55L107.98,100.04L110.03,102.58L110.14,105.03L110.69,105.54L110.8,106.56L109.71,107.61L110.05,109.37L109.64,110.75L110.14,111.09L109.03,112.26L108.24,112.51L107.46,113.59L107.19,114.71L108.38,115.83L107.86,118.07L106.53,119.09L105.87,120.53L103.46,121.77L102.99,122.61L103.28,123.88L101.75,125.26L99.99,127.2L100.13,128.48L99.1,130.3L98.25,129.89L97.15,130.3L96.77,131.25L95.47,131.98L95.99,132.89L94.4,135.66L92.04,136.4L91.69,136.89L89.7,136.61L89.31,136.12L88.42,136.5L88.4,135.25L89.29,134.62L89.67,133.47L89.43,132.91L89.87,131.76L90.25,128.71L89.92,128.01L88.73,127.27L88.68,126.45L88.03,125.76L88.04,124.32L87.31,122.95L88.15,121.4L87.42,120.47L87.86,119.24L87.91,117.94L86.96,117.74L86.38,116.38L84.89,115.76L83.7,113.86L81.8,113.18L80.53,114.53L77.89,115.4L77,116.07L75.56,116.59L74.91,116.44L73.9,117.12L71.26,118.12L69.69,119.04L69.14,118.86L67.36,120.73L66.98,120.49L66.31,118.06L66.31,117.22L67.13,115.39L66.5,112.14L66.49,111.09L67.47,111.09L68.99,109.73L70.75,109.76L71.19,109.03L70.84,107.15L71.82,105.86L72.24,104.17ZM92.7,43.96L92.43,43.4L92.34,42.2L92.89,41.22L92.24,40.36L91.53,38.38L92.56,38.55L92.26,37.85L92.63,37.97L93.36,36.42L93.23,35.42L96.6,36.33L97.83,36.96L99.39,35.74L99.71,34.95L100.72,34.13L101.67,35.27L102.45,35.35L102.9,33.4L104.11,34.5L105.05,34.51L105.98,33.15L106.68,34.22L107.9,33.78L108.02,33.26L109.08,32.79L110.91,32.87L112.3,33.55L111.86,33.91L109.78,33.66L108.85,36.16L108.98,37.1L107.65,39.52L107.72,41.17L109.32,41.67L110.03,42.38L109.38,42.66L108.75,44.8L109.57,46.29L108.95,46.88L109.18,47.46L107.69,48.12L106.11,47.67L101.98,49.33L101.32,48.77L101.52,47.78L100.44,48.74L99.04,49.14L97.9,47.85L96.62,47.48L96.18,46.49L96.02,44.82L94.1,44.01ZM85.31,55.51L86.53,56.08L86.83,55.78L89.05,56.62L89.86,58.2L89.78,59.33L90.43,60.62L89.96,61.56L90.59,61.76L90.85,62.86L89.96,63.79L89.96,66.66L90.61,67.07L89.66,67.61L89.05,69.52L89.29,69.98L89.23,72.3L87.02,74.28L87.83,77.38L87.3,78.65L87.65,78.99L86.16,78.57L85.49,78.88L84.46,78.25L82.48,78.07L81.65,76.77L81.87,76.1L80.91,73.06L79.79,72.07L80.76,72.46L82.07,72.44L82.8,72.08L83.94,72.64L83.42,71.4L83.74,69.8L83.44,69.32L83.15,68.28L83.07,66.19L79.83,64.33L79.43,63.36L80.2,62.89L80.36,62.19L81.92,62.29L82.52,62.74L83.48,61.92L83.3,60.36L82.78,58.61L83.66,58.13L83.17,57.08L83.53,55.75ZM73.99,16.92L75.82,17.11L76.53,18.22L77.31,18.56L78.17,17.94L78.94,16.12L80.16,15.73L82.18,17.68L81.16,21.09L81.28,22.09L82.27,22.7L81.6,23.69L81.71,24.27L82.9,26.27L83.74,26.77L82.56,27.51L81.16,27.92L81.22,29.47L80.76,30.56L79.21,31.8L77.53,31.01L77.03,31.27L75.39,30.56L74.16,29.4L72.64,28.95L72.23,27.81L72.65,27.04L74.19,25.97L74.45,24.72L74.11,24.1L74.58,23.55L73.97,22.4L72.93,22.15L71.49,21.24L70.78,21.44L72.78,19.42L72.84,18.55ZM72.07,81.68L71.15,82.23L70.29,81.84L69.15,81.03L68.62,81.4L66.44,79.77L65.67,80.2L65.03,79.79L64.34,80.19L63.17,78.1L64.01,78L64.49,77.19L65.54,76.95L65.61,75.5L66.76,74.69L66.04,74.03L65.11,74.91L66.31,72.97L67.38,72.2L68.7,70.69L69,70.87L69.53,72.03L68.92,74.1L68.45,74.78L69.23,75.27L69.15,77.32L69.57,78.15L69.06,79.19L71.19,79.8ZM78.9,51.78L80.07,52.26L81.99,54.23L83.85,54.35L85.21,55.03L85.31,55.51L83.53,55.75L83.17,57.08L83.66,58.13L82.78,58.61L83.3,60.36L83.48,61.92L82.52,62.74L81.92,62.29L80.36,62.19L80.2,62.89L79.43,63.36L76.75,62.17L77.71,60.78L75.63,60.35L74.26,59.01L72.42,58.34L73.32,57.3L74.45,57.84L75.32,57.37L75.91,57.88L77.11,57.93L78.5,56.82L78.08,55.69L79.25,55.77L79.38,54.49L79.86,54.19L79.45,53.29L78.6,52.81ZM43.39,49.88L42.57,50.26L42.17,51.11L42.65,53.51L41.28,54.52L40.67,55.55L39.84,55.89L37.72,57.5L36.28,57.36L36.04,56.47L36.4,55.8L34.7,55.38L34.48,54.76L35,52.68L34.56,51.9L34.73,50.92L33.72,49.88L32.88,50.63L30.13,49.19L28.5,48.62L27.06,47.17L26.28,43.72L24.89,43.12L24.9,42.17L23.27,41.71L21.91,40.12L21.02,40.42L18.26,39.14L18.02,38.66L16.75,39.26L16.63,37.91L15.41,38.15L14.89,38.91L14.32,38.78L13.89,37.72L14.19,36.41L13.65,36.63L13.99,34.79L15.77,34.28L16.27,34.55L17.5,32.95L15.79,32.38L17.42,30.76L18.41,30.64L19.53,28.35L20.02,26.88L20.14,25.31L21.48,23.17L23.01,24.31L23.72,25.7L24.81,26.1L26.12,24.71L27.47,24.55L28.8,25.27L30.4,24.85L32.68,25.64L34.21,25.94L35.04,25.79L37.71,26.79L38.31,26.44L40.05,27.97L40.82,28.14L40.9,29.18L41.96,29.7L42.62,29.29L43.43,30.82L42.58,32.82L43.04,33.78L43.32,35.42L42.92,36.29L43.17,37.2L44.26,39L44.25,39.84L45.09,40.1L46.68,38.89L46.94,38.06L48.57,38.2L49.69,39L49.38,40.1L49.98,40.59L49.62,41.51L48.72,41.81L47.11,41.76L46.22,42.09L46.64,43.36L44.71,44.96L44.81,45.72L43.31,46.87L43.67,47.93ZM103.8,20.5L104.57,19.7L104.59,18.85L105.29,18.93L105.5,16.93L106.14,15.75L107.68,15.2L108.91,15.46L109.85,16.39L111.06,15.88L112.49,16L114.29,15.18L115.31,15.81L116.42,14.98L116.62,14.15L117.8,14.45L118.6,15.91L118.79,17.21L118.16,17.47L117.69,19.28L116.87,19.82L116.38,21.59L115.55,22.26L116.1,22.63L115.78,24.6L115.22,25.21L114.16,25.12L113.56,25.9L113.65,26.74L112.6,27.38L111.28,27.33L110.33,28.6L109.26,28.84L109.11,28.29L108.26,28.37L108.02,29.18L106.6,29.26L104.35,27.63L104.61,26.7L104.45,24.7L103.55,24.04L104.35,21.41ZM99.48,55.03L98.91,54.9L97.1,53.14L95.3,52.8L93.79,51.85L93.11,50.77L89.86,49.12L89.22,48.44L87.18,47.16L88.61,47.05L90.84,45L92.15,45.88L92.88,45.42L91.75,44.34L92.7,43.96L94.1,44.01L96.02,44.82L96.18,46.49L96.62,47.48L97.9,47.85L99.04,49.14L100.44,48.74L101.52,47.78L101.32,48.77L101.98,49.33L106.11,47.67L107.69,48.12L109.18,47.46L110.1,48.04L110.4,48.94L109.67,49.59L109.77,50.63L109.1,51.53L106.53,52.53L105.39,52.55L105.27,54.02L104.56,53.6L104.06,54.51L102.94,54.95L103.23,56.88L102.52,57.22L102.14,56.27L101.17,56.45L100.68,55.75ZM96.79,7.01L96.27,7.79L96.3,9.98L96.02,10.5L95.09,10.01L95.73,11.73L96.57,12.54L96.7,13.67L95.22,12.74L94.57,12.99L93.5,12.12L92.26,11.63L92.33,11.24L92.05,10.44L92.74,9.33L93.14,9.67L93.03,6.86L94.17,6.81L94.6,6.2L93.92,5.91L94.9,4.24L95.46,5.19L97.11,6.12Z" fill="#B3CFC0" stroke="#007139" stroke-width="0.5"/></svg>