<svg xmlns="http://www.w3.org/2000/svg" width="144" height="144" viewBox="0 0 144 144"><path d="M0,81.48L1.99,77.8L2.39,73.1L5.27,71.76L6.37,70.13L10.57,68.49L11.73,66.78L16.66,65.73L18.45,63.19L17.56,60.53L22.09,61.17L25.8,57.4L27.86,56.83L30.66,59.11L32.89,58.65L33.06,60.79L35.72,62.85L35.53,64.59L37.7,67.74L39.85,73.61L38.72,76.88L35.97,77.78L35.51,80.19L33.05,81.63L34.18,85.11L34.64,90.25L30.17,90.62L27.65,89.17L25.17,93.46L23.01,95.98L22,93.8L20.27,93.99L12.78,90.2L12.05,91.11L9.73,89.14L6.28,89.67L4.35,88.9L2.79,86.15L2.75,84.14L1,84.01L1.37,81.76ZM78.75,38.32L85.09,37.09L88.3,33.01L106.15,30.63L109.12,33.23L110.12,35.28L112.24,33.75L112.64,35.07L117.46,36.49L116.87,37.83L121.77,38.84L121.6,40.57L123.69,39.94L127.49,42.16L131.16,42.49L135.73,41.42L140.64,42.67L141.3,44.78L139.99,50.65L138.3,49.88L137.46,51.73L139.83,52.08L141.83,55.81L141.47,57.95L139.7,58.01L139.21,59.7L141.07,62.16L144,63.57L141.42,64.74L139.57,62.92L138.13,64.77L136,63.57L135.44,65.89L133.93,65.51L132.23,68.86L130.4,66.86L130.39,70.7L129.07,67.46L128.75,71.37L127.06,70.41L128.06,73.24L126.94,74.43L124.83,73.61L122.72,77.7L124.57,78.25L123.96,80.31L121.65,79.61L121.45,82.12L123.01,82.36L124.63,85.33L123.6,88.68L125.23,87.93L125.96,89.41L128.11,87.84L130.46,87.89L133.55,91.04L132.71,92.01L134.5,93.99L136.93,93.83L136.68,95.59L138.48,95.12L138.29,97.42L128.95,100.6L101.96,109.44L101.08,110.15L89.98,113.37L91.48,109.36L92.92,102.75L92.91,96.59L94.41,96.84L95.47,93.79L88.22,94.74L84.7,94.65L82.57,91.73L77.61,91.78L75.45,90.16L71.84,89.21L69.74,86.14L69.97,84.29L68.88,80.39L65.85,80.41L65.02,79.32L65.65,75.6L68.36,72.73L69.31,73.98L72.76,73.54L71.16,78.35L73.11,80.3L77.09,80.69L81.37,79.91L87.54,82.56L88.68,80.36L91.25,79.36L91.16,76.44L89.41,74.86L86.75,74.24L81.36,74.71L77.7,73.55L76.87,70.99L79.96,69.01L76.87,65.3L75.23,64.96L72.31,61.61L74.94,55.59L73.93,53.58L74.42,50.7L73.6,48.88L79.8,44.16L80.19,39.4Z" fill="#B3CFC0" stroke="#007139" stroke-width="0.5"/></svg>