<svg xmlns="http://www.w3.org/2000/svg" width="144" height="144" viewBox="0 0 144 144"><path d="M118.15,31.62L119.03,32.93L119.01,33.72L119.69,34.36L119.21,35.19L118.97,36.47L118.53,36.33L118.35,37.01L115.49,39.27L113.59,40.29L112.71,41.24L111.67,41.51L111.34,42.5L108.88,44.44L108.48,45.07L108.36,46.04L108.73,46.68L109.09,49.1L109.44,49.5L110.83,49.98L110.64,51.74L111.25,52.95L110.5,53.96L108.91,53.12L107.42,53.36L106.23,54.46L105.17,54.25L104.33,54.64L103.29,56.04L102.47,56.13L101.38,55.17L99.94,54.99L99.59,55.18L98.08,55L97.41,55.25L97.85,55.83L97.84,57.27L97.29,58.11L97.35,58.61L96.01,58.52L91.89,57.49L90.97,56.87L90.38,57.29L90.08,58.03L87.91,59.12L87.57,59.13L86.23,60.17L86.44,60.52L85.27,61.44L83.94,62.08L83.03,62.17L82.82,62.83L81.96,63.41L79.89,63.74L78.94,65.05L76.52,66.05L76.43,66.74L74.62,67.38L73.72,68.29L73.35,68.27L72.1,69.13L71.39,69.22L70.48,70.32L68.51,71.14L67.65,71.14L66.72,72.39L64.39,72.08L63.93,72.5L63.76,73.61L63.34,74.21L63.47,75.23L62.6,75.94L62.3,77.57L61.94,77.89L62.39,79.19L62.09,80.55L61.71,80.53L55.72,65.97L55.63,64.63L53.9,63.24L53.6,62.78L54.03,62.43L54.28,61.43L53.64,61.09L54.15,59.2L54.67,58.23L54.1,57.34L54.46,56.78L56.27,57.51L56.12,57.16L57.11,55.63L58.48,54.79L58.87,53.68L59.53,53.47L60.75,53.79L62.75,52.51L63.91,50.74L65.22,50.79L66.08,51.47L66.97,51.6L67.56,50.95L68.89,51L70.69,49.04L72.46,48.1L72.85,48.5L73.7,47.91L74.16,46.83L75.17,46.14L76.03,46.03L76.72,45.49L77.35,45.57L79.09,44.8L80.4,44.54L80.66,44.03L81.6,43.51L82.16,43.69L83.78,42.55L85.05,42.49L85.89,41.68L85.89,40.85L86.45,40.16L85.69,39.24L84.12,38.85L82.53,39.31L81.19,39.05L79.34,39.09L78.54,38.66L77.1,36.7L75.62,36.2L74.96,35.77L74.01,36.23L73.8,35.99L74.01,34.51L74.3,34.36L73.5,32.83L73.59,32.01L74.01,31.93L74.89,32.78L75.96,32.47L76.42,31.82L76.47,31.02L76.96,30.54L78.51,31.1L79.89,30.8L80.51,31.31L80.78,30.91L79.76,30.35L79.69,29.56L80.44,29.8L80.79,30.52L81.43,30.91L81.97,30.56L82.88,30.73L83.54,30.5L83.69,29.25L84.93,30.47L85.63,30.65L85.77,30.11L85.4,29.12L86.46,28.22L87.49,28.59L87.99,28.06L87.76,26.98L88.23,27L88.89,28.09L89.64,28.12L89.49,27.21L88.08,26.16L88.68,25.49L89.95,25.98L91.27,25.58L90.96,24.5L91.52,23.12L92.43,23.69L93.55,23.63L95.32,23.86L96.2,24.43L96.43,23.01L97.47,23.39L99,22.92L99.26,23.54L98.67,24.55L99.22,25.04L99.76,24.68L100.01,23.8L100.71,23.59L100.88,25.08L101.95,22.5L102.45,22.85L102.34,23.48L102.79,23.83L103.69,23.6L104.84,24.23L105.9,24.44L106.29,26.05L107.7,25.83L109.82,23.62L112.18,22.08L113.75,21.32L114.08,22.52L114.28,25.16L114.67,25.97L115.32,26.53L115.96,28.23L115.95,29.42L116.32,30.46L117.09,31.52ZM74.01,34.51L73.8,35.99L74.01,36.23L74.96,35.77L75.62,36.2L77.1,36.7L78.54,38.66L79.34,39.09L81.19,39.05L82.53,39.31L84.12,38.85L85.69,39.24L86.45,40.16L85.89,40.85L85.89,41.68L85.05,42.49L83.78,42.55L82.16,43.69L81.6,43.51L80.66,44.03L80.4,44.54L79.09,44.8L77.35,45.57L76.72,45.49L76.03,46.03L75.17,46.14L74.16,46.83L73.7,47.91L72.85,48.5L72.46,48.1L70.69,49.04L68.89,51L67.56,50.95L66.97,51.6L66.08,51.47L65.22,50.79L63.91,50.74L62.75,52.51L60.75,53.79L59.53,53.47L58.87,53.68L58.48,54.79L57.11,55.63L56.12,57.16L56.27,57.51L54.46,56.78L54.1,57.34L54.67,58.23L54.15,59.2L53.64,61.09L54.28,61.43L54.03,62.43L53.6,62.78L52.18,62.01L51.3,62.35L50.09,62.19L49.46,63L48.63,62.92L48.01,63.29L45.53,62.92L43.21,63.03L42.2,63.66L41.17,65.74L41.87,66.17L42.05,67.33L42.36,67.63L40.82,68.2L39.75,67.99L37.56,68.87L36.93,68.55L36.48,68.89L34.39,68.5L33.2,69L33.19,74.57L31.67,74.33L30.55,74.6L29.76,75.06L28.5,74.82L27.62,73.62L26.34,73.2L24.65,72.39L23.49,73.23L22.3,73.44L20.3,72.18L19.7,72.04L18.9,71.13L18.79,70.51L18.1,69.69L18.09,75.53L17.96,76.66L16.5,76.82L15.59,76.7L15.18,75.8L14.15,75.2L12.19,74.82L11.88,74.07L12.48,76.94L12.09,77.45L11.95,78.53L11.45,79.36L11.5,80.01L10.8,81.08L10.56,80.92L8.87,77.71L8.17,76.74L7.38,76.27L6.92,75.57L6.9,74.72L6.09,74.36L5.26,75.03L3.98,74.58L3.32,73.34L1.9,73.72L0.9,73.62L0.44,73.16L0,71.98L15.52,65.6L15.6,64.88L18.91,64.09L20.78,63.07L20.62,61.51L20.8,61.08L21.75,61.18L23.3,60.45L23.12,58.11L22.53,57.21L24.15,56.78L23.55,55.81L22.19,55.68L22.13,54.96L23.21,54.88L23.16,53.59L24,53.08L24.45,51.92L24.92,51.71L25.47,52.18L25.88,51.62L25.4,51.2L25.77,50.84L26.32,51.99L27.08,51.95L27.58,51.45L26.89,50.5L27.26,49.8L27.74,50.36L28.14,51.44L28.65,50.98L28.36,49.36L27.59,48.98L27.59,48.22L28.47,47.82L28.93,48.27L29.17,47.57L27.75,46.71L27.15,45.69L28.29,45.4L28.55,44.19L29.19,44.53L30.57,44.47L31.95,43.42L32.6,43.75L32.55,44.62L33.18,45L35.13,44.23L35.27,43.55L34.5,42.72L34.54,42.04L35.04,41.96L36.13,42.39L36.57,43.19L37.56,42.87L37.65,41.87L38,41.39L36.81,39.92L37.02,39.14L37.63,39.26L38.51,40.96L39.57,41.33L38.55,38.97L38.97,38.53L39.68,38.88L39.63,39.96L39.97,40.28L40.64,39.67L40.54,38.75L40.97,38.25L41.66,38.37L42.49,39.01L43.23,38.74L42.96,38.08L42.22,37.88L42.65,37.3L43.36,37.85L43.64,39.03L44.01,38.98L44.61,37.73L45.01,37.51L46.33,38.06L46.49,37.33L47.15,37.42L47.47,38.14L48.05,36.44L47.85,35.66L48.13,34.3L47.94,34.06L50.81,34.44L51.23,34.89L51.5,33.62L52.06,33.15L52.68,33.24L53.37,34.63L54.11,34.83L54.8,34.01L55.02,34.56L57.03,33.62L57.56,32.87L58.04,33.14L58.05,33.83L57.56,35.16L58.04,35.42L58.86,34.24L58.31,33.23L58.35,32.55L59.5,32.84L59.8,34.05L60.55,34.21L60.9,33.43L61.39,33.72L61.46,34.64L62.38,34.46L61.74,35.81L62.96,35.49L63.82,34.41L64.3,34.37L64.59,35.5L65.25,35.61L65.43,35.07L66.34,35.64L67.88,34.11L69.17,33.73L69.75,34.16L70.57,33.57L70.14,32.4L70.8,32.12L70.88,33.91L71.42,34.1L72.25,33.5L73.53,33.49ZM126.8,75.73L128.02,77.21L128.28,77.85L129.39,78.2L131.03,79.52L132.02,81L131.65,82.05L131.12,82.44L130.87,84.51L131.51,85.48L131.81,86.81L132.95,88.66L133.48,88.9L134.59,88.63L134.83,89.13L135.21,91.53L134.58,92.63L134.3,94.05L136.11,95.65L136.98,98.27L137.38,98.77L137.47,100.85L138.12,101.82L139.14,104.35L139.16,104.91L138.26,104.92L137.46,105.29L136.59,105.29L135.49,105.76L133.59,107.25L133.98,105.85L133.78,105.09L134.05,104.44L133.39,102.78L133.5,101.96L134.14,101.18L133.83,100.41L133.12,100.51L133.29,99.8L132.59,98.92L131.3,98.32L131.29,97.36L130.88,96.22L130.66,96.41L128.89,96.45L127.97,96.83L126.88,94.07L126.42,93.86L126.62,92.39L126.17,92.31L126.04,91.58L126.61,90.34L126.02,90.01L127.12,87.88L126.29,87.17L125.91,87.32L125.57,86.53L125.67,85.72L124.75,85.14L124.03,85.25L123.68,86.18L122.95,86.33L122.79,87.39L120.67,87.56L119.26,88.07L118.48,87.59L118,89.05L118.45,89.69L117.59,91.04L117.47,91.79L116.44,92.25L116.57,92.59L115.48,93.67L114.82,93.01L115.17,92.77L115.23,90.56L116.21,87.71L116.15,86.66L116.62,86.34L116.92,85.01L116.39,84.12L114.97,83.36L114.04,82.5L114.8,81.67L114.99,79.92L114.77,79.76L115.64,78.69L115.21,77.19L116.58,76.69L118.74,77.63L119.17,78.03L119.7,77.65L119.95,76.86L120.74,76.62L121.78,77.06L122.53,77L123.78,76.39L126.08,75.58ZM62.09,80.55L62.39,79.19L61.94,77.89L62.3,77.57L62.6,75.94L63.47,75.23L63.34,74.21L63.76,73.61L63.93,72.5L64.39,72.08L66.72,72.39L67.65,71.14L68.51,71.14L70.48,70.32L71.39,69.22L72.1,69.13L73.35,68.27L73.72,68.29L74.62,67.38L76.43,66.74L76.52,66.05L78.94,65.05L79.89,63.74L81.96,63.41L82.82,62.83L83.03,62.17L83.94,62.08L85.27,61.44L86.44,60.52L86.23,60.17L87.57,59.13L87.91,59.12L90.08,58.03L90.38,57.29L90.97,56.87L91.89,57.49L96.01,58.52L97.35,58.61L97.29,58.11L97.84,57.27L97.85,55.83L97.41,55.25L98.08,55L99.59,55.18L99.94,54.99L101.38,55.17L102.47,56.13L103.29,56.04L104.33,54.64L105.17,54.25L106.23,54.46L107.42,53.36L108.91,53.12L110.5,53.96L111.25,52.95L111.42,53.54L112,53.31L112.62,54.07L113.77,53.5L115.27,53.37L116.98,52.75L117.61,53.03L118.27,52.78L119.57,51.82L120.47,51.98L108.29,62.89L108.24,65.55L109.16,65.41L109.71,64.22L110.91,64.25L112.61,63.85L112.76,64.58L115.48,65.3L116.78,64.69L118.11,66.17L118.08,67.15L118.84,67.95L118.62,69.8L119.14,70.33L120.36,69.65L121.51,69.86L122.28,71.57L122.81,71.56L124.05,72.8L124.78,73.09L125.15,74.19L126.51,74.87L126.8,75.73L126.08,75.58L123.78,76.39L122.53,77L121.78,77.06L120.74,76.62L119.95,76.86L119.7,77.65L119.17,78.03L118.74,77.63L116.58,76.69L115.21,77.19L115.64,78.69L114.77,79.76L114.99,79.92L114.8,81.67L114.04,82.5L114.97,83.36L116.39,84.12L116.92,85.01L116.62,86.34L116.15,86.66L116.21,87.71L115.23,90.56L115.17,92.77L114.82,93.01L112.93,92.92L112.92,92.41L111.36,92.1L111.37,92.9L110.45,93.56L109.57,94.7L109.36,95.46L108.06,96.01L108,96.82L106.22,97.11L106.67,98.11L106.19,98.31L106.71,100.2L104.86,99.21L104.45,99.37L103.53,98.76L102.61,99.92L102.05,99.7L101.97,98.46L101.29,97.09L100.19,96.99L98.94,94.78L98.36,94.27L97.61,94.62L96.84,93.59L96.65,91.96L96.4,92.21L96.26,93.78L95.84,94.56L95.04,93.77L94.49,92.53L95.56,89.67L94.91,87.92L93.94,87.1L92.56,87.11L92.72,87.49L92.22,88.25L92.07,89.99L91.24,90.5L88.76,89.97L88.81,90.41L85.86,90.72L85.23,91.1L84.79,90.87L83.75,91.06L82.57,90.62L82.03,90.89L81.62,90.29L80.96,90.56L80.12,90.14L79.05,90.15L78.96,89.53L77.93,89.18L76.04,89.45L75.86,89.28L74.92,90.67L74.5,90.5L73.57,88.81L73.87,86.88L74.2,86.1L74.14,84.56L75.97,83.71L77.6,81.5L77.32,80.43L78.26,78.85L76.71,79.11L76.15,78.07L75.39,78.36L74.74,79.13L73.64,78.57L71.91,79.12L71.22,78.69L69.75,79.15L69.4,79.62L68,79.81L68.06,80.81L66.46,80.9L66.23,81.83L64.81,81.64L64.36,81.29L62.85,81.27ZM133.59,107.25L135.49,105.76L136.59,105.29L137.46,105.29L138.26,104.92L139.16,104.91L139.14,104.35L139.96,105.06L140.07,106.39L139.91,107.48L140.66,108.28L141.3,109.51L141.86,111.56L141.72,113.48L142.09,114.12L143.03,114.51L143.69,115.5L144,117.16L143.08,117.78L142.81,118.3L142.99,119.24L143.7,119.95L143.66,120.49L135.49,122.68L135.74,121.45L135.09,120.24L135.09,119.37L134.3,118.72L133.14,117.35L133.3,116.35L133.99,116.21L134.69,116.72L135.95,115.61L135.82,114.12L135.57,113.79L135.85,111.86L135.45,111.68L135,110.23L135.27,109.47L134.65,107.61ZM111.25,52.95L110.64,51.74L110.83,49.98L109.44,49.5L109.09,49.1L108.73,46.68L108.36,46.04L108.48,45.07L108.88,44.44L111.34,42.5L111.67,41.51L112.71,41.24L113.59,40.29L115.49,39.27L118.35,37.01L118.53,36.33L118.97,36.47L119.21,35.19L119.69,34.36L119.01,33.72L119.03,32.93L118.15,31.62L119.73,31.42L120.17,30.88L121,31.1L121.52,31.97L121.65,33.06L122.24,34.02L122.88,34.31L122.69,34.93L123.16,35.36L122.85,36.6L123.01,37.52L124.14,39.16L124.51,41.23L126.7,42.25L127.62,44.24L127.7,44.83L127.16,45.4L126.87,46.32L126.09,47.24L125.21,47.83L125.22,49.39L123.34,49.38L120.47,51.98L119.57,51.82L118.27,52.78L117.61,53.03L116.98,52.75L115.27,53.37L113.77,53.5L112.62,54.07L112,53.31L111.42,53.54ZM61.71,80.53L62.09,80.55L62.85,81.27L64.36,81.29L64.81,81.64L66.23,81.83L66.46,80.9L68.06,80.81L68,79.81L69.4,79.62L69.75,79.15L71.22,78.69L71.91,79.12L73.64,78.57L74.74,79.13L75.39,78.36L76.15,78.07L76.71,79.11L78.26,78.85L77.32,80.43L77.6,81.5L75.97,83.71L74.14,84.56L74.2,86.1L73.87,86.88L73.57,88.81L74.5,90.5L74.92,90.67L75.86,89.28L76.04,89.45L77.93,89.18L78.96,89.53L79.05,90.15L80.12,90.14L80.96,90.56L81.62,90.29L82.03,90.89L82.57,90.62L83.75,91.06L84.79,90.87L85.23,91.1L85.86,90.72L88.81,90.41L88.76,89.97L91.24,90.5L92.07,89.99L92.22,88.25L92.72,87.49L92.56,87.11L93.94,87.1L94.91,87.92L95.56,89.67L94.49,92.53L95.04,93.77L95.84,94.56L95.27,95.66L94.85,95.9L94.56,97.56L93.45,99.09L93.78,99.66L95.44,99.59L94.85,100.91L96.02,101.29L96.27,100.98L97.21,101.52L96.67,102.53L97.41,102.35L97.72,102.91L87.66,102.92L74.84,102.93L65.41,102.94L54.47,102.94L53.98,102.46L53.12,102.53L51.86,101.88L51.56,102.36L50.24,101.37L48.84,101.28L47.79,101.77L46.42,102.92L45.81,102.81L45.31,103.25L44.92,102.84L43.52,102.65L42.1,102.84L40.65,103.92L39.63,104.02L38.94,103.55L38.05,103.5L36.07,102.17L34.02,102.36L33.02,101.69L31.22,101.19L30.65,100.34L29.81,99.97L27.91,98L26.97,97.9L26.8,97.36L27.4,96.15L28.37,95.91L29.01,96.23L30.32,95.89L30.96,93.93L33.41,93.08L35.35,92.85L36.05,93.48L38.87,93.71L39.58,94.16L42.28,94.27L44.73,93.32L45.13,92.53L44.98,91.99L45.51,91.05L46.63,90.54L47.67,89.07L49.27,87.23L49.72,86L50.38,85.61L50.22,84.81L50.71,84.53L51.09,82.97L50.87,82.33L51.17,81.75L52.31,81.67L53.8,80.96L54.56,81.7L54.79,82.33L55.89,82.62L56.98,82.13L57.82,82.11L59.23,80.93L60.68,80.82L60.74,80.29ZM53.6,62.78L53.9,63.24L55.63,64.63L55.72,65.97L61.71,80.53L60.74,80.29L60.68,80.82L59.23,80.93L57.82,82.11L56.98,82.13L55.89,82.62L54.79,82.33L54.56,81.7L53.8,80.96L52.31,81.67L51.17,81.75L50.87,82.33L51.09,82.97L50.71,84.53L50.22,84.81L50.38,85.61L49.72,86L49.27,87.23L47.67,89.07L46.63,90.54L45.51,91.05L44.98,91.99L45.13,92.53L44.73,93.32L42.28,94.27L39.58,94.16L38.87,93.71L36.05,93.48L35.35,92.85L33.41,93.08L30.96,93.93L30.32,95.89L29.01,96.23L28.37,95.91L27.4,96.15L27.32,95.66L28.12,95.07L28.19,94.04L29.2,93.26L28.86,92.21L28.95,91.25L29.49,90.01L29.03,89.37L29.9,89.04L30.3,88.48L31.09,88.2L31.22,87.63L32.52,87.08L33.3,85.46L32.35,85.12L32.11,83.72L30.64,83.06L30.08,84.08L28.89,84.07L28.17,83.59L27.64,84.86L26.13,85.21L25.29,84.68L24.34,84.62L24.87,84.33L24.3,84.05L23.41,84.97L22.75,84.44L22.82,85.4L22.24,85.98L21.14,85.12L20.93,84.63L20.43,85.08L19.68,84.71L19.24,83.97L18.42,84.33L18.46,83.94L17.03,84.28L17.13,84.81L15.67,85.11L15.1,84.25L15.95,84.47L15.13,83.8L14.48,83.89L13.8,83.22L12.71,83.17L10.99,82.32L10.8,81.08L11.5,80.01L11.45,79.36L11.95,78.53L12.09,77.45L12.48,76.94L11.88,74.07L12.19,74.82L14.15,75.2L15.18,75.8L15.59,76.7L16.5,76.82L17.96,76.66L18.09,75.53L18.1,69.69L18.79,70.51L18.9,71.13L19.7,72.04L20.3,72.18L22.3,73.44L23.49,73.23L24.65,72.39L26.34,73.2L27.62,73.62L28.5,74.82L29.76,75.06L30.55,74.6L31.67,74.33L33.19,74.57L33.2,69L34.39,68.5L36.48,68.89L36.93,68.55L37.56,68.87L39.75,67.99L40.82,68.2L42.36,67.63L42.05,67.33L41.87,66.17L41.17,65.74L42.2,63.66L43.21,63.03L45.53,62.92L48.01,63.29L48.63,62.92L49.46,63L50.09,62.19L51.3,62.35L52.18,62.01Z" fill="#B3CFC0" stroke="#007139" stroke-width="0.5"/></svg>