<svg xmlns="http://www.w3.org/2000/svg" width="144" height="144" viewBox="0 0 144 144"><path d="M93.22,75.48L93.48,75.36L93.91,75.99L94.34,76.09L94.22,76.63L94.55,76.76L94.56,78.02L94.75,78.52L94.72,79.29L94.88,79.92L95.4,80.41L95.46,81.22L95.84,81.62L95.69,82.29L95.42,82.63L95.3,83.3L95.48,83.59L95.01,84.38L93.51,84.7L93.14,85.38L93.03,86.08L92.07,85.77L90.84,86.95L89.95,87.35L89.33,88.45L89.57,88.92L89.22,89.16L89.24,90.22L88.66,89.67L88.49,90.37L87.42,90.76L87.34,91.28L87,91.39L86.71,91.1L86.25,91.31L85.77,91.47L84.82,91.12L84.43,91.39L83.97,92.12L83.62,92.02L83.21,92.43L82.3,92.21L82.17,92.65L81.88,92.58L81.66,93.06L80.97,93.32L80.49,92.57L80.03,92.41L80.5,91.4L79.83,91.33L79.49,91.77L78.85,91.38L78.33,91.53L77.56,91.4L76.22,91.38L75.75,91.61L75.64,92.08L75.07,92.17L74.39,91.57L73.5,91.49L72.38,92.13L71.8,91.92L71.74,90.72L71.3,90.26L70.4,89.95L70.1,89.48L70.11,88.77L69.89,88.51L69.68,86.39L69.28,85.1L69.11,83.61L68.49,83.37L68.1,82.89L67.6,83.25L67.17,82.5L67.12,81.94L66.65,81.41L66.43,80.74L65.98,80.61L66.42,80.06L66.31,79.27L66.49,78.79L67.07,78.62L67.19,77.84L67.78,77.75L68.45,77.09L68.69,76.14L68.55,75.06L67.9,75.08L67.99,74.56L69.2,72.7L70.12,73.11L70.56,73.72L71.47,74.06L71.78,74.56L72.71,74.56L73.58,74.32L74.47,73.38L75.15,72.98L75.33,72.59L75.25,71.92L75.8,71.2L76.62,71.26L76.99,71.75L76.66,71.98L77.04,72.99L77.74,73.03L77.88,73.36L77.57,73.77L77.69,74.04L78.4,74.48L78.86,75.16L78.75,75.66L78.97,75.85L78.91,76.51L78.92,76.81L78.28,76.91L77.74,77.71L77.14,77.95L76.04,78.14L75.27,77.58L74.86,77.63L74.15,78.12L73.46,77.72L72.08,77.44L71.5,78.59L71.13,79.67L70.76,80.02L70.63,81.2L71.12,80.51L71.64,80.85L72.17,80.77L72.71,81.93L73.11,81.78L73.24,82.28L72.59,82.39L72.42,83.01L72.53,85.07L73.01,85.57L73.55,85.84L73.9,86.5L74.55,86.69L74.45,87.13L75.14,87.52L75.47,87.28L76.57,87.03L77.23,87.23L77.88,86.68L78.62,86.83L79.23,85.91L78.91,85.48L79.14,85.32L79.99,85.68L80.83,85.2L81.28,85.22L81.49,84.91L82.91,84.42L82.86,83.74L83.56,83.54L83.82,83.15L84.61,82.81L84.44,82.64L84.97,82L84.82,81.53L85.54,81.73L86.73,81.46L87.22,80.68L88.05,80.59L88.64,79.87L89.98,78.87L90.48,78.13L91.31,77.72L92.08,77.13L92.4,76.2L93.13,75.78ZM67.87,10.56L67.42,10.91L66.45,9.59L65.48,11.59L64.35,11.54L64.06,11.32L63.58,11.57L63.5,11.31L62.7,12.02L62.02,12.02L61.16,11.81L60.74,12.01L60.08,11.91L60.13,11.68L59.59,11.22L59.42,10.57L59.7,9.53L59.23,8.74L59.31,8L58.84,7.59L58.48,6.78L57.95,6L57.94,5.65L56.62,5.8L56.55,4.93L56.89,3.77L56.94,3L57.2,3.16L57.75,2.91L57.61,2.21L58.27,2.36L57.93,1.49L58.06,1.34L57.79,0.51L58.3,0.3L58.92,0.73L59.14,0.6L58.98,0L59.42,0.08L59.75,0.46L59.83,1.13L60.16,1.23L60.49,1.85L61.28,2.7L61.47,2.63L61.81,3.29L62.05,4.13L61.85,4.71L62.5,5.2L62.7,5.84L64.46,6.87L65.2,6.98L65.51,7.4L66.27,7.66L66.35,8.11L66.79,8.56L66.66,8.9L67.37,9.65ZM65.98,80.61L66.43,80.74L66.65,81.41L67.12,81.94L67.17,82.5L67.6,83.25L68.1,82.89L68.49,83.37L69.11,83.61L69.28,85.1L69.68,86.39L69.89,88.51L70.11,88.77L70.1,89.48L70.4,89.95L71.3,90.26L71.74,90.72L71.8,91.92L71.67,92.05L71.28,94.86L71.21,97.35L71.66,97.56L71.89,98.44L72.25,97.98L72.39,97.32L72.77,96.63L72.86,95.88L73.45,95.19L73.83,95.41L74.05,95.98L74.04,96.62L73.73,98.09L73.46,98.88L74.12,99.28L74.54,99.92L74.48,100.5L73.8,101.4L73.8,101.84L73.35,102.27L73.47,102.48L72.89,103.83L72.32,103.57L72.01,103.17L72.1,102.79L71.3,102.54L71.21,102.98L70.61,103.03L70.68,103.56L70.32,103.45L69.83,102.86L69.55,102.89L69.34,102.01L68.95,101.2L68.14,101.39L68.04,100.55L67.8,100.76L66.83,100.1L66.3,100.12L66.39,100.44L65.95,100.31L65.79,100.71L65.07,100.24L64.4,100.72L63.84,100.43L63.51,99.87L62.91,99.76L62.77,99.36L62.33,99.24L62.03,98.64L62.06,98.27L62.57,98.07L62.64,97.69L62.06,96.85L62.03,96.56L62.71,96.66L64,96L64.13,95.22L63.84,94.46L64.49,93.53L64.44,92.7L64.09,92.41L63.81,91.7L63.58,91.63L63.38,90.92L63.67,89.97L63.93,89.81L64.93,89.77L64.87,88.71L64.69,88.73L64.55,87.97L64.83,87.46L66.05,86.39L65.69,85.85L65.22,85.85L64.48,85.47L64.27,85.12L63.58,85.47L63.25,85.14L62.68,84.98L63.09,84.68L62.76,84.17L62.71,83.61L61.33,82.88L61.55,81.86L61.43,81.57L61.84,80.88L62.09,81.01L63.74,81.21L64.24,80.52L64.8,80.28L65.07,80.66ZM80.03,92.41L80.49,92.57L80.97,93.32L81.66,93.06L81.88,92.58L82.17,92.65L82.3,92.21L83.21,92.43L83.62,92.02L83.97,92.12L84.43,91.39L84.82,91.12L85.77,91.47L86.25,91.31L86,91.93L86.17,92.62L85.55,93.1L85.12,93.77L85.36,94.42L85.32,94.89L85.56,95.36L85.03,95.27L83.97,95.6L82.86,95.58L82.59,95.98L82.05,96.07L81.94,96.37L82.53,96.66L82.92,97.38L82.83,98.58L83.37,98.57L83.11,98.84L82.91,99.61L82.12,100.04L81.38,99.76L81.25,99.21L79.94,99.08L79.55,97.58L80.3,97.06L79.56,96.7L79.22,96.29L79.54,96.11L79.26,95.68L79.24,94.51L79.46,93.56L79.92,93.12ZM94.89,99.68L94.31,100.04L93.42,101.36L92.81,101.21L91.81,101.44L91.52,101.86L90.96,102.13L90.2,101.78L90,101.06L89.17,101.27L88.98,101.63L88.39,101.37L88.18,101.16L88.27,100.42L87.45,100.07L87.88,99.74L88.32,99.09L88.6,99.51L89.57,99.72L89.97,99.31L90.49,99.25L90.45,97.98L90.74,97.89L91.04,97L91.07,96.24L91.6,96.13L92,95.53L92.47,95.32L92.71,94.74L93.47,94.46L94.02,94.56L94.58,94.21L94.69,93.47L95.86,92.91L96.46,92.31L97.43,91.82L97.38,91.51L98.07,91.29L98.71,91.95L99.63,92.42L100.57,93.35L100.66,94.01L100.38,94.17L100.44,94.99L99.59,95.01L99.09,95.45L98.53,95.58L98.12,96.01L98.42,97.08L98.35,97.93L98.01,98.72L97.38,98.84L97.02,99.51L96.35,99.6L96.08,99.89L95.6,99.8L95.3,100.08ZM61.84,80.88L61.43,81.57L60.93,82.02L60.08,82.07L59.61,81.28L59.65,80.58L59.22,80.24L59.44,80.87L59.47,81.8L58.96,80.95L58.88,80.41L58.27,79.69L57.05,78.55L56.3,77.52L55.54,75.84L55.98,74.17L55.97,72.86L56.32,73.42L56.93,73.42L57.78,74.79L58.1,74.73L58.04,74.08L58.64,73.25L58.51,72.98L58.76,71.66L58.99,71.13L58.68,70.46L58.32,70.57L57.74,70.07L57.95,69.69L58.39,69.88L58.74,69.62L58.91,69.88L59.41,69.52L58.87,68.56L59.16,68.55L59.24,67.75L59.53,67.3L59.3,66.8L59.91,66.26L60.34,64.91L59.72,63.98L59.01,63.92L58.97,63.41L58.05,62.72L58.13,62.25L57.89,62.04L58.21,61.6L57.89,61.34L57.94,60.74L56.58,60.1L55.52,60.35L56.15,59.72L56.53,59L56.91,58.92L57.21,58.08L57.97,57.57L58.55,57.4L58.92,56.97L59.21,56.96L59.87,57.65L60.72,58.24L60.46,58.53L59.66,58.3L59.29,59.05L58.95,59.38L58.29,59.54L58.29,60.12L58.83,60.21L58.91,61.41L58.57,61.74L58.62,62.65L59.3,62.62L59.59,63.28L60.19,63.47L60.83,64.84L60.23,66.52L60.72,67.28L60.35,67.6L60.76,68.36L60.29,68.38L59.98,68.73L60.54,69.24L60.5,69.58L61.27,70.23L61.08,70.7L61.24,71.05L60.68,71.25L60.62,71.7L60.87,72.27L60.2,72.93L60.71,73.67L61.64,73.54L62.46,73.76L63.23,74.45L62.94,74.67L62.71,75.37L63.02,75.46L63.22,76.5L63.65,76.83L63.48,77.57L62.85,77.71L62.37,78.22L62.16,78.71L61.45,79.23L61.38,80.15L61.98,80.21L62.13,80.49ZM62.06,96.85L62.64,97.69L62.57,98.07L62.06,98.27L62.03,98.64L62.33,99.24L62.77,99.36L62.91,99.76L63.51,99.87L63.84,100.43L64.4,100.72L65.07,100.24L65.79,100.71L65.95,100.31L66.39,100.44L66.3,100.12L66.83,100.1L67.8,100.76L68.04,100.55L68.14,101.39L68.95,101.2L69.34,102.01L69.55,102.89L69.83,102.86L70.32,103.45L70.68,103.56L70.61,103.03L71.21,102.98L71.3,102.54L72.1,102.79L72.01,103.17L72.32,103.57L71.15,103.25L70.73,103.77L70.37,103.73L69.92,104.09L70.08,104.77L69.91,105.06L69.4,105.02L69.04,105.35L69.08,105.8L68.38,105.89L67.93,106.7L67.33,106.45L67.05,105.75L66.58,106.15L66.29,105.73L65.91,106.43L65.42,106.67L65.41,107.43L64.93,107.49L64.89,108.34L64.62,109.17L64.04,109.43L63.2,109.08L62.74,109.64L63.21,111.36L62.87,111.92L63.25,112.37L62.75,112.52L61.9,112.41L61.61,112.83L61.75,113.3L62.17,113.01L62.92,113.4L63.38,113.1L63.61,112.31L65.1,112.23L65.61,111.36L65.99,111.33L66.44,111.9L66.88,111.95L67.78,112.9L67.3,113.1L66.28,113.88L66.13,114.54L66.67,114.69L67.03,115.17L67.77,114.86L67.7,114L68.01,113.68L68.99,114.18L69.32,113.99L69.82,114.46L70.68,114.62L70.96,114.86L71.16,115.29L70.8,116.26L70.29,116.68L71.01,117.19L71.75,117.26L72.17,117.87L71.8,118.34L72.2,119.07L71.46,119.69L71.16,119.4L70.75,119.58L70.4,120.3L69.58,120.41L69.6,120.76L68.52,121.52L68.45,122.33L68.11,123.19L67.53,123.14L67.22,124.17L66.44,124.47L66.16,125.13L66.19,125.6L65.67,126.24L65.41,126.85L65.65,127.45L66.66,127.5L67.31,127.73L68.4,127.12L69.09,127.55L68.58,127.93L68.4,128.5L67.65,128.11L67,128.21L67.02,129.39L66.53,129.1L65.4,129.5L65.04,129.15L64.45,129.38L64.06,128.99L64.1,128.65L63.27,127.91L62.88,127.85L62.89,127.39L62.45,126.96L62.51,126.69L61.83,126.42L61.92,126.01L61.33,125.55L61.16,125.76L60.77,125.42L60.32,125.53L60.35,122.63L60.47,121.86L60.24,120.48L60.43,120.05L60.97,120.31L61.11,120.1L60.5,119.06L59.64,119.35L59.7,118.97L60.2,118.56L59.62,118.15L59.26,116.24L59.49,116.03L59.2,115.67L59.14,114.67L58.79,113.96L58.82,113.63L58.58,109.09L58.48,107.86L58.15,107.19L58.3,106.16L58.3,104.23L58.43,103.54L58.28,102.61L57.96,102.42L58.14,101.67L57.92,101.27L57.66,100.03L58.23,100.06L58.16,99.52L58.37,98.79L57.95,98.82L57.84,98.47L57.15,98.89L57.26,98.27L56.9,97.75L56.41,97.41L55.83,97.38L55.26,98.01L54.7,97.59L53.82,97.65L54.3,96.91L55.31,97.24L55.34,96.81L56.45,96.45L56.57,96.08L57.42,95.94L57.47,95.55L58.25,95.46L58.37,95.07L58.73,95.68L60.53,95.36L60.79,96.22L61.49,96.91L61.41,97.5L62.01,97.12ZM76.62,71.26L75.8,71.2L75.25,71.92L75.33,72.59L75.15,72.98L74.47,73.38L73.58,74.32L72.71,74.56L71.78,74.56L71.47,74.06L70.56,73.72L70.12,73.11L69.2,72.7L67.99,74.56L67.9,75.08L68.55,75.06L68.69,76.14L68.45,77.09L67.78,77.75L67.19,77.84L67.07,78.62L66.49,78.79L66.31,79.27L66.42,80.06L65.98,80.61L65.07,80.66L64.8,80.28L64.24,80.52L63.74,81.21L62.09,81.01L61.84,80.88L62.13,80.49L61.98,80.21L61.38,80.15L61.45,79.23L62.16,78.71L62.37,78.22L62.85,77.71L63.48,77.57L63.65,76.83L63.22,76.5L63.02,75.46L62.71,75.37L62.94,74.67L63.23,74.45L62.46,73.76L61.64,73.54L60.71,73.67L60.2,72.93L60.87,72.27L60.62,71.7L60.68,71.25L61.24,71.05L61.08,70.7L61.27,70.23L60.5,69.58L60.54,69.24L59.98,68.73L60.29,68.38L60.76,68.36L60.35,67.6L60.72,67.28L60.23,66.52L60.83,64.84L60.19,63.47L59.59,63.28L59.3,62.62L58.62,62.65L58.57,61.74L58.91,61.41L58.83,60.21L58.29,60.12L58.29,59.54L58.95,59.38L59.29,59.05L59.66,58.3L60.46,58.53L60.72,58.24L61.53,58.1L62.2,57.61L62.65,57.8L64.17,57.96L64.31,57.42L64.22,56.4L64.56,56.16L66.05,56.66L66.2,57.31L66.85,58L67.38,57.38L67.4,56.9L68.57,56.46L69.18,56.67L69.65,56.31L70.51,56.33L70.93,55.88L71.91,55.81L72.57,55.41L73.23,55.26L72.88,55.78L72.33,56.81L71.16,56.82L71.1,57.28L71.52,57.5L71.3,57.85L71.4,58.41L71.24,58.94L71.62,59.57L72.19,59.7L72.27,59.97L71.36,60.67L71.63,61.06L72.05,60.73L72.15,61.68L72.56,61.92L73.03,61.19L73.45,61.42L72.98,62L73.09,62.53L74.04,62.42L74.49,62.59L74.42,63.08L73.79,63.08L73.34,63.7L73.7,64.54L74.37,64.22L74.77,64.54L75.15,65.82L75.76,65.68L75.73,66.81L76.33,66.18L77.04,66.76L77.35,67.33L76.55,67.92L76.47,68.31L76.84,68.48L77.21,68.27L77.51,68.5L77.19,68.86L76.53,68.79L76.59,69.21L77.26,69.57L77.33,70.07L76.81,70.06L77.13,70.75ZM74.48,100.5L74.54,99.92L74.12,99.28L73.46,98.88L73.73,98.09L74.04,96.62L74.66,97.17L75,97.84L75.42,97.82L75.88,98.17L76.02,98.98L76.57,99.19L76.94,99.03L78.29,99.74L78.74,99.46L79.84,100.12L79.68,100.27L80.51,101.25L80.76,102.17L79,102.11L78.62,102.3L79.27,102.67L79.39,103.14L80.23,103.37L80.45,103.89L80.86,104.07L80.14,105.03L79.25,104.85L77.82,104.74L78.17,103.7L77.18,103.8L76.02,104.27L75.08,104.14L75.31,102.56L75.55,102.37L75.56,101.72ZM60.72,58.24L59.87,57.65L59.21,56.96L59.19,56.32L59.48,55.83L58.96,55.17L57.94,55.04L57.81,54.48L58.03,53.93L57.56,53.43L58.32,53.01L58.36,52.45L59.55,51.82L61.11,50.56L61.15,49.81L62.02,49.43L62.33,48.56L63.43,48.01L64.38,47.82L64.65,48.46L64.81,48.08L65.9,47.09L66.33,47.15L67.26,46.69L67.74,46.11L66.89,45.2L67.89,44.84L70.31,43.39L70.38,43.05L69.91,42.55L71.14,42.04L72.24,41.99L72.63,42.14L73.74,41.81L74.09,41.49L74.34,41.84L75.76,41.16L76.11,41.19L76.45,41.6L77.51,40.88L78.01,41.14L78.3,40.85L78.57,41.31L79.1,41.06L79.75,41.4L80.04,41.19L80.19,41.72L79.86,42.15L79.78,42.83L79.44,43.13L79.42,43.61L79.97,43.14L80.37,43.09L80.59,41.94L81.39,41.84L82.33,42.17L82.81,42.13L83.12,42.83L83.2,44.2L82.29,43.96L82.7,43.11L82.53,42.86L81.26,42.71L80.68,42.94L81.02,43.68L80.41,44.43L81.21,44.73L81.37,45.12L82.17,45.35L82.66,45.86L83.73,45.61L84.18,45.31L84.61,46.13L84.53,46.6L85.2,46.95L85.04,47.7L84.53,48.22L84.33,49.05L84.55,49.23L84.41,49.89L83.98,50.59L83.85,51.26L83.35,51.68L82.93,51.6L82.69,50.77L82.33,51.06L81.94,50.58L81.05,50.82L80.14,50.16L79.87,50.42L79.19,50.32L75.59,50.91L75.05,51.44L75.35,51.41L75.43,51.93L75.76,51.92L75.48,52.35L76.01,52.26L76.34,52.67L76.51,54.26L76.78,54.84L76.54,55.22L75.37,55.54L75.77,56.12L75.39,56.01L75.27,56.34L74.67,55.8L74.03,55.62L73.32,56.18L72.88,55.78L73.23,55.26L72.57,55.41L71.91,55.81L70.93,55.88L70.51,56.33L69.65,56.31L69.18,56.67L68.57,56.46L67.4,56.9L67.38,57.38L66.85,58L66.2,57.31L66.05,56.66L64.56,56.16L64.22,56.4L64.31,57.42L64.17,57.96L62.65,57.8L62.2,57.61L61.53,58.1ZM79.94,99.08L81.25,99.21L81.38,99.76L82.12,100.04L82.91,99.61L83.11,98.84L83.37,98.57L83.66,98.65L84,98.24L84.89,98.21L85.94,97.87L86.43,98.07L86.76,97.22L87.49,97.48L87.68,97.91L88.66,98.26L88.73,98.74L89.21,98.61L90.49,99.25L89.97,99.31L89.57,99.72L88.6,99.51L88.32,99.09L87.88,99.74L87.45,100.07L88.27,100.42L88.18,101.16L88.39,101.37L88.17,101.76L87.66,101.81L87.28,101.59L85.73,101.99L85.32,102.65L84.55,103.55L83.36,104.12L82.49,104L82.56,103.78L82.17,102.68L82.01,101.42L81.61,101.63L81.55,100.93L81.04,100.37L80.5,100.42L80.29,100.05L79.84,100.12L78.74,99.46ZM91.87,108.49L90.77,108.4L90.16,108.97L89.29,108.95L88.69,109.33L87.86,109.06L87.62,109.45L87.83,110.68L87.21,111.55L86.52,111.72L86.02,112.54L85.41,112.76L84.79,112.6L84.38,112.26L83.73,112.12L83.25,112.41L82.03,112.21L81.91,112.52L81.22,112.72L80.94,112.25L80.36,112.54L79.17,112.65L78.68,112.35L78.62,111.99L79.48,111.07L79.67,109.92L79.94,109.75L80.1,109.02L80.86,109.11L81.6,109.36L82.65,109.44L83.69,108.8L84.59,108.54L84.4,107.85L84.94,107.62L85.64,107.67L85.61,107.95L86.45,108.22L86.7,107.65L87.12,107.52L87.34,108.04L87.69,108.28L87.53,108.69L88.62,108.5L89.07,108.71L89.75,108.44L90.03,107.65L90.58,107.37L90.54,106.97L89.75,106.32L90.51,105.89L91,106.06L91.52,106.66L91.92,107.85ZM89.24,90.22L89.22,89.16L89.57,88.92L89.33,88.45L89.95,87.35L90.84,86.95L92.07,85.77L93.03,86.08L93.14,85.38L93.51,84.7L95.01,84.38L95.48,83.59L95.3,83.3L95.42,82.63L95.69,82.29L95.84,81.62L96.7,81.76L97,81.13L97.53,81.19L98.13,82.14L98.69,82.42L98.68,82.95L99.16,83.24L98.87,84.03L99,84.96L98.46,85.19L97.71,86.35L97.7,86.92L98.24,87.4L98.15,88.15L98.54,88.45L98.26,88.91L98.86,89.16L98.56,89.64L98.79,90.11L98.28,90.69L98.07,91.29L97.38,91.51L97.43,91.82L96.46,92.31L95.03,91.5L94.65,91.88L94.25,91.76L93.31,91.79L92.93,90.9L91.74,90.58L91.17,90.87L90.8,90.8L90.2,91.04L89.43,90.82ZM60.32,125.53L60.77,125.42L61.16,125.76L61.33,125.55L61.92,126.01L61.83,126.42L62.51,126.69L62.45,126.96L62.89,127.39L62.88,127.85L63.27,127.91L64.1,128.65L64.06,128.99L64.45,129.38L65.04,129.15L65.4,129.5L66.53,129.1L67.02,129.39L67,128.21L67.65,128.11L68.4,128.5L68.81,128.82L68.51,129L69.16,129.57L69.3,129.3L70.64,129.77L70.71,129.46L71.17,129.48L72,130.03L72.64,129.96L72.99,129.58L73.14,129.99L73.74,129.53L74.08,130.11L74.95,129.97L75.07,130.23L76.24,129.92L76.34,130.79L76.9,130.88L76.9,130.37L77.36,130.35L78.56,130.71L78.9,131.26L79.72,131.25L79.85,130.89L80.91,131.31L81.3,131.29L81.51,131.51L82,132.68L82.76,132.75L83.98,132.63L84.58,133.01L84.67,134.11L85.21,134.74L85.31,135.23L85.87,135.72L86.87,135.94L87.11,136.68L87.17,137.56L86.92,138.5L86.32,139.76L85.52,140.98L84.74,140.87L84.22,141.59L84.21,142.57L83.73,142.64L83.68,143.2L82.7,143.85L82.78,143.15L81.69,142.47L80.92,143.03L80.54,143.62L79.95,144L79.39,143.6L78.25,143.48L77.87,143.19L77.3,143.26L76.53,142.59L76.06,142.77L75.72,142.59L75.63,141.94L74.8,141.79L74.29,141.94L73.55,140.67L72.92,140.44L72.84,139.94L72.02,139.62L71.57,139.24L70.73,139.42L70.42,139.25L69.98,140L69.66,139.84L69.37,140.1L68.18,140L67.61,139.19L67.07,139.64L66.59,139.37L66.71,138.86L66.24,138.16L65.89,138.02L65.43,137.34L64.49,137.66L64,137.65L63.49,138.15L62.68,137.29L62.6,135.81L62.23,135.79L61.71,136.18L61.49,136.64L61.42,137.47L60.9,137.86L60.18,137.17L59.49,136.9L58.83,137.43L58.39,137.98L58.3,138.42L57.42,138.56L56.97,138.48L56.81,139.24L57.17,140.15L56.55,141.75L55.46,140.04L54.77,139.71L54.24,139.07L54.23,137.19L54.06,136.8L54.26,135.06L54.56,134.41L55.04,133.98L55.52,133.98L55.23,135.06L56.03,134.73L56.54,134.27L57.13,134.29L57.63,133.98L57.51,133.69L56.72,133.42L57.22,133.2L57.9,132.15L58.46,131.67L59.07,131.62L59.06,130.71L59.61,130.18L59.6,129.51L59.91,127.23L60.41,126.97L60,126.55ZM68.4,128.5L68.58,127.93L69.09,127.55L68.4,127.12L67.31,127.73L66.66,127.5L65.65,127.45L65.41,126.85L65.67,126.24L66.19,125.6L66.16,125.13L66.44,124.47L67.22,124.17L67.53,123.14L68.11,123.19L68.45,122.33L68.52,121.52L69.6,120.76L69.58,120.41L70.4,120.3L70.75,119.58L71.16,119.4L71.46,119.69L72.2,119.07L71.8,118.34L72.17,117.87L71.75,117.26L71.01,117.19L70.29,116.68L70.8,116.26L71.16,115.29L70.96,114.86L71.93,114.35L72.64,113.44L73.26,113.58L73.57,114.03L73.9,114.06L74.16,113.15L74.1,112.74L74.9,111.96L74.57,111.52L75.53,110.99L75.48,110.49L76.42,109.69L75.9,109.16L76.12,108.66L76.45,108.51L76.34,108.13L76.61,107.24L75.29,107.06L74.68,105.76L74.87,105.36L74.75,104.43L75.08,104.14L76.02,104.27L77.18,103.8L78.17,103.7L77.82,104.74L79.25,104.85L79.12,105.09L79.43,105.61L79.9,105.7L79.81,106.37L80.2,106.68L81.22,106.21L81.57,105.79L81.88,106.46L82.31,106.48L84.26,105.08L84.49,105.11L84.4,105.71L84.76,105.85L84.44,106.61L83.85,107.04L82.82,107.2L82.17,107.05L81.68,107.54L81.22,108.31L80.27,108.15L79.95,108.48L79.66,108.81L79.48,108.49L78.36,108.91L77.98,109.71L77.7,109.9L77.87,111L77.41,111.49L77.42,112.18L77.81,111.78L78.3,112.12L77.68,112.72L76.98,112.64L76.33,113.2L75.92,112.66L75.79,113.14L75.2,113.83L74.44,114.13L74.45,114.68L73.83,115.72L74.4,116.19L74.19,116.55L74.1,117.44L73.88,118.2L74.27,118.7L74.11,119.51L74.54,120L74.16,120.24L74.35,120.94L74.25,121.4L73.92,121.51L73.33,120.94L73.31,121.45L72.8,121.71L71.9,121.29L71.36,121.7L71.66,123.36L72.12,123.64L72.66,124.46L73.47,124.49L73.87,124.1L74.42,124.45L74.49,124.17L75.25,124.12L75.75,124.57L76.35,124.61L76.88,124.95L77.41,125.88L78.16,125.8L78.73,126L79.76,126.73L80.01,127.56L80.25,127.84L80.83,127.91L80.4,128.11L79.94,128.98L80.24,129.11L81.03,130.59L81.3,131.29L80.91,131.31L79.85,130.89L79.72,131.25L78.9,131.26L78.56,130.71L77.36,130.35L76.9,130.37L76.9,130.88L76.34,130.79L76.24,129.92L75.07,130.23L74.95,129.97L74.08,130.11L73.74,129.53L73.14,129.99L72.99,129.58L72.64,129.96L72,130.03L71.17,129.48L70.71,129.46L70.64,129.77L69.3,129.3L69.16,129.57L68.51,129L68.81,128.82ZM58.92,56.97L58.55,57.4L57.97,57.57L57.21,58.08L56.91,58.92L56.53,59L56.15,59.72L55.52,60.35L54.84,60.78L54.69,61.34L53.98,61.52L53.87,60.73L54,60.31L53.57,59.51L53.41,58.72L53.07,58.32L52.97,57.51L52.39,56.68L51.06,55.65L50.44,55.4L50.29,55.57L50.04,54.94L49.39,55.05L49.08,56.13L48.82,55.2L48.57,54.83L48.81,53.76L49.07,53.51L48.97,52.96L50.06,52.55L50.27,52.08L50.15,51.27L49.53,50.31L48.51,49.25L47.33,48.26L46.63,47.53L46.02,46.53L45.22,46.53L44.64,45.47L43.34,44.36L46.1,36.92L46.96,37L47.71,36.75L48.58,35.75L48.69,36.59L48.92,36.93L48.48,37.62L47.78,37.63L48.09,38.6L47.8,39.23L48.26,40.29L48.9,42.3L49.46,42.55L49.51,43.62L49.9,44.28L50.78,44.27L51.11,44.73L52.04,44.88L52.4,45.76L52.22,46.23L51.88,46.38L52.03,46.76L51.89,48.09L52.56,48.96L52.64,49.85L52.43,50.19L53.12,51.03L52.94,52.37L52.68,52.46L52.23,53.16L52.55,53.37L52.83,54.27L53.23,54.9L53.61,55.06L53.9,55.8L53.63,56.3L54.17,57.04L53.91,57.91L53.63,57.95L53.8,59.43L54.29,59.53L54.52,58.97L55.31,58.68L55.51,58.42L55.18,58.16L55.63,57.99L56.09,56.68L56.3,56.5L57.5,56.82L58.24,56.67ZM86.25,91.31L86.71,91.1L87,91.39L87.34,91.28L87.42,90.76L88.49,90.37L88.66,89.67L89.24,90.22L89.43,90.82L90.2,91.04L90.8,90.8L91.17,90.87L91.74,90.58L92.93,90.9L93.31,91.79L94.25,91.76L94.65,91.88L95.03,91.5L96.46,92.31L95.86,92.91L94.69,93.47L94.58,94.21L94.02,94.56L93.47,94.46L92.71,94.74L92.47,95.32L92,95.53L91.6,96.13L91.07,96.24L91.04,97L90.74,97.89L90.45,97.98L90.49,99.25L89.21,98.61L88.73,98.74L88.66,98.26L87.68,97.91L87.49,97.48L86.76,97.22L86.43,98.07L85.94,97.87L84.89,98.21L84,98.24L83.66,98.65L83.37,98.57L82.83,98.58L82.92,97.38L82.53,96.66L81.94,96.37L82.05,96.07L82.59,95.98L82.86,95.58L83.97,95.6L85.03,95.27L85.56,95.36L85.32,94.89L85.36,94.42L85.12,93.77L85.55,93.1L86.17,92.62L86,91.93ZM93.22,75.48L93.13,75.78L92.4,76.2L92.08,77.13L91.31,77.72L90.48,78.13L89.98,78.87L88.64,79.87L88.05,80.59L87.22,80.68L86.73,81.46L85.54,81.73L84.82,81.53L84.97,82L84.44,82.64L84.61,82.81L83.82,83.15L83.56,83.54L82.86,83.74L82.91,84.42L81.49,84.91L81.28,85.22L80.83,85.2L79.99,85.68L79.14,85.32L78.91,85.48L79.23,85.91L78.62,86.83L77.88,86.68L77.23,87.23L76.57,87.03L75.47,87.28L75.14,87.52L74.45,87.13L74.55,86.69L73.9,86.5L73.55,85.84L73.01,85.57L72.53,85.07L72.42,83.01L72.59,82.39L73.24,82.28L73.11,81.78L72.71,81.93L72.17,80.77L71.64,80.85L71.12,80.51L70.63,81.2L70.76,80.02L71.13,79.67L71.5,78.59L72.08,77.44L73.46,77.72L74.15,78.12L74.86,77.63L75.27,77.58L76.04,78.14L77.14,77.95L77.74,77.71L78.28,76.91L78.92,76.81L78.91,76.51L79.86,76.76L80.24,76.41L81.05,76.59L81.63,76.13L82.4,75.85L82.89,75.84L83.66,76.23L84.95,76.25L86.25,76.83L86.44,76.34L87,76.58L87.93,76.67L88.38,76.06L89.21,75.82L90.64,75.72L90.78,75.54L91.71,75.6L92.03,75.82L92.78,75.33ZM72.32,103.57L72.89,103.83L73.47,102.48L73.35,102.27L73.8,101.84L73.8,101.4L74.48,100.5L75.56,101.72L75.55,102.37L75.31,102.56L75.08,104.14L74.75,104.43L74.87,105.36L74.68,105.76L75.29,107.06L76.61,107.24L76.34,108.13L76.45,108.51L76.12,108.66L75.9,109.16L76.42,109.69L75.48,110.49L75.53,110.99L74.57,111.52L74.9,111.96L74.1,112.74L74.16,113.15L73.9,114.06L73.57,114.03L73.26,113.58L72.64,113.44L71.93,114.35L70.96,114.86L70.68,114.62L69.82,114.46L69.32,113.99L68.99,114.18L68.01,113.68L67.7,114L67.77,114.86L67.03,115.17L66.67,114.69L66.13,114.54L66.28,113.88L67.3,113.1L67.78,112.9L66.88,111.95L66.44,111.9L65.99,111.33L65.61,111.36L65.1,112.23L63.61,112.31L63.38,113.1L62.92,113.4L62.17,113.01L61.75,113.3L61.61,112.83L61.9,112.41L62.75,112.52L63.25,112.37L62.87,111.92L63.21,111.36L62.74,109.64L63.2,109.08L64.04,109.43L64.62,109.17L64.89,108.34L64.93,107.49L65.41,107.43L65.42,106.67L65.91,106.43L66.29,105.73L66.58,106.15L67.05,105.75L67.33,106.45L67.93,106.7L68.38,105.89L69.08,105.8L69.04,105.35L69.4,105.02L69.91,105.06L70.08,104.77L69.92,104.09L70.37,103.73L70.73,103.77L71.15,103.25ZM80.1,109.02L79.94,109.75L79.67,109.92L79.48,111.07L78.62,111.99L78.68,112.35L79.17,112.65L79.72,113.59L79.59,114.03L79.81,114.42L79.58,115.2L79.41,115.03L78.73,115.3L78.59,115.88L78.18,116.14L77.64,116.04L76.74,117.05L76.94,117.8L76.54,117.96L76.57,118.52L76.1,118.59L76.22,119.28L75.79,119.47L75.31,119.17L75.03,119.4L75.03,119.96L75.14,120.7L75.59,121.11L75.65,122L76.01,122.5L75.93,123.02L76.51,123.27L76.77,123.74L77.1,123.73L77.74,124.37L78.96,124.71L79.39,125.25L79.41,125.71L80.11,126.43L80.83,127.91L80.25,127.84L80.01,127.56L79.76,126.73L78.73,126L78.16,125.8L77.41,125.88L76.88,124.95L76.35,124.61L75.75,124.57L75.25,124.12L74.49,124.17L74.42,124.45L73.87,124.1L73.47,124.49L72.66,124.46L72.12,123.64L71.66,123.36L71.36,121.7L71.9,121.29L72.8,121.71L73.31,121.45L73.33,120.94L73.92,121.51L74.25,121.4L74.35,120.94L74.16,120.24L74.54,120L74.11,119.51L74.27,118.7L73.88,118.2L74.1,117.44L74.19,116.55L74.4,116.19L73.83,115.72L74.45,114.68L74.44,114.13L75.2,113.83L75.79,113.14L75.92,112.66L76.33,113.2L76.98,112.64L77.68,112.72L78.3,112.12L77.81,111.78L77.42,112.18L77.41,111.49L77.87,111L77.7,109.9L77.98,109.71L78.36,108.91L79.48,108.49L79.66,108.81L79.95,108.48ZM79.17,112.65L80.36,112.54L80.94,112.25L81.22,112.72L81.91,112.52L82.03,112.21L83.25,112.41L83.73,112.12L84.38,112.26L84.79,112.6L85.41,112.76L86.02,112.54L86.52,111.72L87.21,111.55L87.64,111.78L87.78,112.35L87.49,112.74L87.95,113.76L87.63,114.19L86.39,114.48L86.25,115.89L85.47,116.45L85.21,118.59L84.64,118.71L83.53,120.7L83.13,121.1L82.93,121.81L83.13,122.25L82.22,122.25L82.45,122.41L81.49,122.84L80.96,122.23L80.31,121.75L79.7,120.94L79.39,120.82L78.56,120.98L77.83,120.88L77.72,120.34L77.17,119.79L76.45,119.64L75.72,119.74L75.3,119.48L75.03,119.96L75.03,119.4L75.31,119.17L75.79,119.47L76.22,119.28L76.1,118.59L76.57,118.52L76.54,117.96L76.94,117.8L76.74,117.05L77.64,116.04L78.18,116.14L78.59,115.88L78.73,115.3L79.41,115.03L79.58,115.2L79.81,114.42L79.59,114.03L79.72,113.59ZM85.2,46.95L84.53,46.6L84.61,46.13L84.18,45.31L83.73,45.61L82.66,45.86L82.17,45.35L81.37,45.12L81.21,44.73L80.41,44.43L81.02,43.68L80.68,42.94L81.26,42.71L82.53,42.86L82.7,43.11L82.29,43.96L83.2,44.2L83.12,42.83L82.81,42.13L82.33,42.17L81.39,41.84L80.59,41.94L80.37,43.09L79.97,43.14L79.42,43.61L79.44,43.13L79.78,42.83L79.86,42.15L80.19,41.72L80.04,41.19L79.75,41.4L79.1,41.06L78.57,41.31L78.3,40.85L78.01,41.14L77.51,40.88L76.45,41.6L76.11,41.19L75.76,41.16L74.34,41.84L74.09,41.49L73.74,41.81L72.63,42.14L72.24,41.99L72.64,40.52L72.9,40.24L73.77,40.06L73.64,39.68L73.09,39.56L72.21,38.81L71.05,38.74L70.8,38.16L70.49,38.13L69.82,37.44L69.93,37.01L71.19,36.94L72.1,36.42L72.67,36.44L73.12,35.88L73.73,35.44L73.78,35.08L73.36,34.57L72.66,34.69L72.28,34.26L71.75,34.25L71.29,33.86L71.15,33.42L70.42,32.94L68.62,33.32L67.58,33.69L66.96,33.38L66.47,32.84L66.56,31.85L66.17,30.76L66.21,30.22L65.98,28.93L66.28,28.13L66.15,27.18L66.81,27.07L69.06,29.43L70.15,30.45L71.4,31.35L71.99,32.99L72.2,33.13L73.33,33.21L75.57,33.21L76.31,33.51L80.59,37.32L81.89,41.4L82.59,41.78L83.08,41.71L83.55,42.65L84.06,43.13L84.56,43.24L85.62,46.57L85.93,46.9ZM61.43,81.57L61.55,81.86L61.33,82.88L62.71,83.61L62.76,84.17L63.09,84.68L62.68,84.98L63.25,85.14L63.58,85.47L64.27,85.12L64.48,85.47L65.22,85.85L65.69,85.85L66.05,86.39L64.83,87.46L64.55,87.97L64.69,88.73L64.87,88.71L64.93,89.77L63.93,89.81L63.67,89.97L63.38,90.92L63.58,91.63L63.81,91.7L64.09,92.41L64.44,92.7L64.49,93.53L63.84,94.46L64.13,95.22L64,96L62.71,96.66L62.03,96.56L62.06,96.85L62.01,97.12L61.41,97.5L61.49,96.91L60.79,96.22L60.53,95.36L58.73,95.68L58.37,95.07L58.25,95.46L57.47,95.55L57.42,95.94L56.57,96.08L56.45,96.45L55.34,96.81L55.31,97.24L54.3,96.91L54.79,96.18L54.77,94.98L54.9,94.46L55.34,93.76L55.96,94.16L56.74,93.85L57.19,93.31L58.4,93.09L58.75,93.68L59.38,93.71L59.94,93.39L60.3,92.42L61.1,91.89L62.2,90.45L62.44,89.87L62.38,88.54L62.7,88.89L62.89,88.49L62.74,87.84L62.54,88.21L61.86,87.05L61.81,86.45L61.44,86.59L61.28,85.64L61.05,85.54L60.75,84.51L60.9,84.22L60.6,83.69L60.08,82.07L60.93,82.02ZM89.75,106.32L90.54,106.97L90.58,107.37L90.03,107.65L89.75,108.44L89.07,108.71L88.62,108.5L87.53,108.69L87.69,108.28L87.34,108.04L87.12,107.52L86.7,107.65L86.45,108.22L85.61,107.95L85.64,107.67L84.94,107.62L84.4,107.85L84.59,108.54L83.69,108.8L82.65,109.44L81.6,109.36L80.86,109.11L80.1,109.02L79.95,108.48L80.27,108.15L81.22,108.31L81.68,107.54L82.17,107.05L82.82,107.2L83.85,107.04L84.44,106.61L84.76,105.85L84.4,105.71L84.69,105.41L85.4,105.45L85.8,105.82L86.1,104.85L85.83,104.41L86.66,104.55L86.9,104.74L87.3,104.21L88.59,104.21L88.55,105.03L88.9,105.89L89.35,105.96ZM71.8,91.92L72.38,92.13L73.5,91.49L74.39,91.57L75.07,92.17L75.64,92.08L75.75,91.61L76.22,91.38L77.56,91.4L78.33,91.53L78.85,91.38L79.49,91.77L79.83,91.33L80.5,91.4L80.03,92.41L79.92,93.12L79.46,93.56L79.24,94.51L79.26,95.68L79.54,96.11L79.22,96.29L79.56,96.7L80.3,97.06L79.55,97.58L79.94,99.08L78.74,99.46L78.29,99.74L76.94,99.03L76.57,99.19L76.02,98.98L75.88,98.17L75.42,97.82L75,97.84L74.66,97.17L74.04,96.62L74.05,95.98L73.83,95.41L73.45,95.19L72.86,95.88L72.77,96.63L72.39,97.32L72.25,97.98L71.89,98.44L71.66,97.56L71.21,97.35L71.28,94.86L71.67,92.05ZM59.21,56.96L58.92,56.97L58.24,56.67L57.5,56.82L56.3,56.5L56.09,56.68L55.63,57.99L55.18,58.16L55.51,58.42L55.31,58.68L54.52,58.97L54.29,59.53L53.8,59.43L53.63,57.95L53.91,57.91L54.17,57.04L53.63,56.3L53.9,55.8L53.61,55.06L53.23,54.9L52.83,54.27L52.55,53.37L52.23,53.16L52.68,52.46L52.94,52.37L53.12,51.03L52.43,50.19L52.64,49.85L52.56,48.96L51.89,48.09L52.03,46.76L51.88,46.38L52.22,46.23L52.4,45.76L52.04,44.88L51.11,44.73L50.78,44.27L49.9,44.28L49.51,43.62L49.46,42.55L48.9,42.3L48.26,40.29L47.8,39.23L48.09,38.6L47.78,37.63L48.48,37.62L48.92,36.93L48.69,36.59L48.58,35.75L48.9,35.52L48.14,33.75L47.77,33.05L47.82,32.59L47.44,32.23L47.66,31.79L47.49,31.2L47.61,30.23L48.07,29.98L48.04,29.71L49,29.79L49.67,30.25L49.76,30.53L50.63,31.15L50.6,31.58L51.23,33.29L51.65,33.87L51.8,34.5L52.16,34.62L52.46,35.29L53.12,35.47L53.98,34.4L54.44,33.4L55.23,33.65L55.24,33.16L55.66,32.16L55.97,31.86L56.02,30.94L56.76,30.9L56.99,29.97L57.5,29.61L57.5,29.04L58.08,28.82L58.33,27.73L58.7,27.45L59.75,27.66L59.99,27.12L59.4,26.28L59.1,25.63L59.63,25.23L59.99,24.69L59.88,24.4L60.41,23.87L60.35,23.55L61.41,23.18L61.85,23.18L62.42,22.81L63.7,22.91L63.91,22.74L64.78,22.89L65.42,22.43L65.04,22.29L64.78,21.67L64.94,21.86L66,22.2L66.63,22.8L66.77,22.52L67.25,22.73L67.73,23.45L67.38,24.1L67.97,25.04L67.35,25.73L66.69,25.55L66.35,25.69L66.56,26.9L66.81,27.07L66.15,27.18L66.28,28.13L65.98,28.93L66.21,30.22L66.17,30.76L66.56,31.85L66.47,32.84L66.96,33.38L67.58,33.69L68.62,33.32L70.42,32.94L71.15,33.42L71.29,33.86L71.75,34.25L72.28,34.26L72.66,34.69L73.36,34.57L73.78,35.08L73.73,35.44L73.12,35.88L72.67,36.44L72.1,36.42L71.19,36.94L69.93,37.01L69.82,37.44L70.49,38.13L70.8,38.16L71.05,38.74L72.21,38.81L73.09,39.56L73.64,39.68L73.77,40.06L72.9,40.24L72.64,40.52L72.24,41.99L71.14,42.04L69.91,42.55L70.38,43.05L70.31,43.39L67.89,44.84L66.89,45.2L67.74,46.11L67.26,46.69L66.33,47.15L65.9,47.09L64.81,48.08L64.65,48.46L64.38,47.82L63.43,48.01L62.33,48.56L62.02,49.43L61.15,49.81L61.11,50.56L59.55,51.82L58.36,52.45L58.32,53.01L57.56,53.43L58.03,53.93L57.81,54.48L57.94,55.04L58.96,55.17L59.48,55.83L59.19,56.32ZM87.21,111.55L87.83,110.68L87.62,109.45L87.86,109.06L88.69,109.33L89.29,108.95L90.16,108.97L90.77,108.4L91.87,108.49L92.9,108.69L93.63,107.54L94.28,107.55L94.51,107.08L95.66,107.07L95.94,106.69L96.68,106.75L96.92,107.07L97.79,107.31L98.88,108.21L98.83,109.26L98.59,109.46L98.61,110.1L98.38,110.92L97.94,111.06L97.77,111.41L97.72,112.41L97.97,112.98L98.02,114L97.61,114.95L96.76,115.2L97.24,115.6L96.77,116.77L96.3,117.32L94.87,117.6L94.28,117.58L93.7,118.42L92.78,118.63L92.3,119.37L91.21,120.01L90.53,119.98L90.15,119.77L89.83,119.99L89.1,120.08L88.65,119.92L86.59,120.03L86.05,119.65L85.21,118.59L85.47,116.45L86.25,115.89L86.39,114.48L87.63,114.19L87.95,113.76L87.49,112.74L87.78,112.35L87.64,111.78ZM83.98,132.63L82.76,132.75L82,132.68L81.51,131.51L81.3,131.29L81.03,130.59L80.24,129.11L79.94,128.98L80.4,128.11L80.83,127.91L80.11,126.43L79.41,125.71L79.39,125.25L78.96,124.71L77.74,124.37L77.1,123.73L76.77,123.74L76.51,123.27L75.93,123.02L76.01,122.5L75.65,122L75.59,121.11L75.14,120.7L75.03,119.96L75.3,119.48L75.72,119.74L76.45,119.64L77.17,119.79L77.72,120.34L77.83,120.88L78.56,120.98L79.39,120.82L79.7,120.94L80.31,121.75L80.96,122.23L81.49,122.84L82.45,122.41L82.22,122.25L83.13,122.25L82.93,121.81L83.13,121.1L83.53,120.7L84.64,118.71L85.21,118.59L86.05,119.65L86.59,120.03L88.65,119.92L89.1,120.08L89.83,119.99L90.15,119.77L90.53,119.98L91.21,120.01L92.02,121.16L91.65,121.56L91.48,122.55L91.58,122.91L90.96,124.01L90.93,124.46L90.25,125.16L90.22,125.76L89.72,125.93L89.1,125.83L88.99,126.22L88.43,126.57L89.15,127.2L89.51,127.97L89.07,127.87L88.95,128.23L88.48,128.44L87.98,129.23L87.05,129.48L86.06,130.26L85.42,130.3L85.01,130.61L84.13,130.81L83.88,130.65L83.59,131.61L84.03,132.27ZM88.39,101.37L88.98,101.63L89.17,101.27L90,101.06L90.2,101.78L90.96,102.13L91.52,101.86L91.81,101.44L92.81,101.21L93.42,101.36L94.31,100.04L94.89,99.68L94.91,100.21L94.5,101.18L94.44,101.68L94.59,102.51L95.31,103.54L95.43,104.4L96.38,105.2L96.39,106.1L96.68,106.75L95.94,106.69L95.66,107.07L94.51,107.08L94.28,107.55L93.63,107.54L92.9,108.69L91.87,108.49L91.92,107.85L91.52,106.66L91,106.06L90.51,105.89L89.75,106.32L89.35,105.96L88.9,105.89L88.55,105.03L88.59,104.21L87.3,104.21L86.9,104.74L86.66,104.55L85.83,104.41L86.1,104.85L85.8,105.82L85.4,105.45L84.69,105.41L84.4,105.71L84.49,105.11L84.26,105.08L82.31,106.48L81.88,106.46L81.57,105.79L82.13,106.04L82.88,105.62L82.58,105.14L82.84,104.44L82.49,104L83.36,104.12L84.55,103.55L85.32,102.65L85.73,101.99L87.28,101.59L87.66,101.81L88.17,101.76ZM61.16,11.81L62.02,12.02L62.7,12.02L63.5,11.31L63.58,11.57L64.06,11.32L64.35,11.54L65.48,11.59L66.45,9.59L67.42,10.91L67.87,10.56L67.98,10.98L68.91,11.97L69.15,12.57L69.67,12.63L70.85,12.49L70.91,13.34L71.27,14.44L71.79,15.04L71.61,16.64L71.96,17.44L72.13,18.25L71.47,19.21L70.64,19.39L70.35,19.76L70.07,21.17L70.25,21.62L69.59,21.97L69.86,22.24L69.29,24.03L68.47,24.91L67.97,25.04L67.38,24.1L67.73,23.45L67.25,22.73L66.77,22.52L66.63,22.8L66,22.2L64.94,21.86L64.78,21.67L65.23,21.3L65.06,21.02L64.39,20.68L63.78,20.09L63.24,18.67L63.62,17.65L63.18,16.83L63.17,15.98L62.42,15.48L62.67,15.35L62.56,14.53L62.31,14.38L62.27,13.82L61.7,13.66L61.41,12.83L61.53,12.45ZM79.25,104.85L80.14,105.03L80.86,104.07L80.45,103.89L80.23,103.37L79.39,103.14L79.27,102.67L78.62,102.3L79,102.11L80.76,102.17L80.51,101.25L79.68,100.27L79.84,100.12L80.29,100.05L80.5,100.42L81.04,100.37L81.55,100.93L81.61,101.63L82.01,101.42L82.17,102.68L82.56,103.78L82.49,104L82.84,104.44L82.58,105.14L82.88,105.62L82.13,106.04L81.57,105.79L81.22,106.21L80.2,106.68L79.81,106.37L79.9,105.7L79.43,105.61L79.12,105.09Z" fill="#B3CFC0" stroke="#007139" stroke-width="0.5"/></svg>