<svg xmlns="http://www.w3.org/2000/svg" width="144" height="144" viewBox="0 0 144 144"><path d="M18.04,123.34L17.68,115.14L14.45,115.1L12,112.18L14.19,108.71L11.7,106.93L12.23,98.26L10.9,96.43L9.01,98.54L2.76,91.13L4.44,89.38L3.44,83.92L4.73,81.99L4.66,74.66L5.99,69.95L0,64.01L3.65,59.53L6.2,37.99L8.02,36.71L16.95,35.24L18.77,31.76L22.43,28.27L26.24,27.52L32.43,20.92L35.79,19.57L44.84,13.17L49.65,8.86L56.97,8.33L62.27,10.41L71.79,9.67L73.57,15L83.14,16.13L83.06,20.05L87.64,23.58L93.15,23.69L93.71,26.09L98.74,29.81L100.33,29.05L102.93,32.96L102.46,34.64L104.96,42.95L106.96,43.05L106.59,46.34L111.35,47.22L113.57,50.75L118.79,55.75L117.42,59.32L121.21,64.29L124.1,75.45L127.38,78.99L124.72,83.02L125.7,87.66L121.38,93.21L120.24,99.54L122.18,103.01L121.37,106.5L124.22,110.08L129.13,111.75L133.64,112.01L136.7,115.93L137.23,111.92L142.37,113.54L144,119.37L139.32,124.29L140.36,127.85L131.97,135.67L129.57,134.22L121.57,134.31L116.1,133.4L102.77,129.68L84.41,127.81L70.84,122.49L63.43,121.82L58.39,124.88L54.1,125.27L50.38,129.41L46.37,127.55L44.38,130.6L41.45,127.35L23.63,122.61L20.88,125.21Z" fill="#B3CFC0" stroke="#007139" stroke-width="0.5"/></svg>