<svg xmlns="http://www.w3.org/2000/svg" width="144" height="144" viewBox="0 0 144 144"><path d="M95.49,2.64L96.79,11.52L105.67,15.28L107.77,39.95L103.95,49.34L106.42,60.88L113.2,63.86L115.74,79.75L123.82,91.42L144,103.87L128.77,126.19L132.17,132.88L120.07,126.94L93.71,132.72L83.15,141.36L91.87,128.08L90.58,120.03L81.18,112.53L74.49,115.46L73.95,126.83L68.81,138L60.53,140.71L59.71,130.71L51.5,119.82L45.11,121.14L48.36,132.07L26.66,129.24L4.69,120.5L11.11,106.22L0,99.11L93.61,96.22L81.96,91.95L79.29,84.67L67.29,82.73L61.08,65.21L69.33,53.17L63.69,51L66.56,40.65L57.38,33.88L52.97,10.63L59,5.73L69.09,13.64L77.07,6.53Z" fill="#B3CFC0" stroke="#007139" stroke-width="0.5"/></svg>