<svg xmlns="http://www.w3.org/2000/svg" width="144" height="144" viewBox="0 0 144 144"><path d="M111.47,67.3L106.72,69.79L101.33,76.37L77.96,77.01L73.49,78.11L76.94,84.39L57.09,82.23L50.54,85.23L48.35,90.58L50.87,103.45L50.1,111.64L52.38,114.85L51.81,122.41L49.18,125.02L43.92,122.42L42.41,117.91L35.42,109.3L28.25,106.75L15.97,94.22L13.55,96.83L8.46,90.06L1.91,88.68L0,84.22L22.94,84.24L24.52,77.49L10.55,70.59L4.08,68.73L2.82,64.61L9.71,65.02L10.69,58.1L16.94,59.64L21.8,63.78L22.05,53.36L18.15,48.91L25.67,37.75L27.58,39.62L36.35,38.14L46.41,39.85L57.74,39.57L62.96,32.53L71.81,32.61L71.93,34.87L80.44,31.76L83.48,34.24L90.45,34.05L94.82,27.97L102.15,29.47L107.4,25.85L113.8,24.85L125.97,18.98L139.37,23.88L127.09,31.52L127.93,38.46L137.83,29.44L144,30.46L141.49,33.17L140.4,43.67L136.95,45.17L135.39,52.46L130.86,52.6L134.43,60.02L131.83,69.33L125.12,66.93Z" fill="#B3CFC0" stroke="#007139" stroke-width="0.5"/></svg>