<svg xmlns="http://www.w3.org/2000/svg" width="144" height="144" viewBox="0 0 144 144"><path d="M66.12,99.65L65.42,100.04L65.65,102.43L65.16,102.94L62.47,102.89L60.89,101.78L56.78,101.36L55.94,102.04L54.3,101.59L49.71,101.25L48.12,99.6L46.91,99.92L45.34,98.5L44.16,99.23L44.07,100.22L43.21,100.79L43.82,101.72L42.85,102.61L42.96,103.66L41.63,104.01L40.91,103.62L40.65,105.11L38.9,105.19L37.22,106.1L35.73,105.23L36.14,103.85L35.58,102.62L35.33,101.36L36.17,99.12L33.37,96.58L31.96,97.36L29.81,95.39L28.34,95.54L27.54,93.86L28.6,93.15L28.73,91.91L27.7,92.12L27.99,90.22L27.25,88.54L28.23,86.45L28.92,85.77L30.44,86.1L30.79,87.39L32.77,87.06L34.26,87.68L36.51,86.61L38.57,87.6L39.98,86.88L40.07,87.66L41.39,88L41.43,90.03L42.73,89.84L44.1,91.67L47.68,88.82L47.95,88.16L49.34,88.61L49.76,89.8L51.57,90.39L52.7,89.79L54.22,90.53L55.14,88.97L57.03,87.95L59.31,88.13L61.47,87.72L63.03,87.97L63.77,92.17L63.09,92.3L61.98,94.04L62.35,94.81L61.43,97.16L63.02,98.64L64.1,98.61L64.96,99.31ZM67.4,53.06L67.52,53.73L66.25,55.51L65.25,55.56L64.9,56.46L63.03,57.17L60.94,57.11L60.23,57.47L60.23,56.47L61.16,55.6L60.76,54.15L60.91,51.74L61.32,50.89L61.1,48.85L60.55,48.4L58.91,48.66L57.19,48.01L56.18,45.81L56.5,43.73L54.99,42.98L54.73,42.25L51.98,42.88L50.87,42.65L50.09,41.65L48.76,41.05L47.78,39.35L46.33,40.1L45.12,39.33L43.96,39.87L43.57,41.13L42.43,41.75L40.92,41.84L39.05,43.6L38.52,42.94L38.63,40.14L38.04,38.22L38.03,36.25L37.62,33.78L37,32.64L37.59,31.11L38.81,30.37L38.73,29.52L36.17,28.59L35.88,26.51L36.36,24.89L35.97,24.4L35.94,21.98L37.31,22.27L38.91,23.56L40.84,23.4L42.11,23.88L42.07,25.15L42.97,27.05L44.72,26.67L46.05,28.29L46.37,27.87L48.18,28.66L49.36,30.12L51.28,29.23L52.02,28.14L53.39,27.74L54.84,26.54L56.68,26.78L57.36,28.24L60.67,29.03L61.66,31.23L61.58,32.86L59.96,34.25L60.03,35.03L62.18,37.18L64.75,36.98L64.13,38.78L64.95,40.84L66.15,42.22L65.46,42.88L66.22,43.82L66.01,45.75L67.54,46.66L68.02,47.68L67.29,50.01L67.62,51.27ZM28.92,85.77L28.23,86.45L27.25,88.54L26.47,89.64L25.61,89.43L25.39,90.38L24.27,90.37L24.26,91.78L22.3,91.27L20.79,88.82L19.27,87.22L18.05,86.77L19.63,85.99L19.58,84.99L17.71,84.68L16.72,85.58L14.2,86L14.08,87.17L14.76,88.4L13.39,88.86L12.36,91.27L10.32,91.15L9.55,91.52L9.57,89.98L11.25,85.03L12.11,83.3L13.32,82.2L12.7,81.19L13.23,79.29L13.06,78.08L12.13,78.03L11.34,77.14L10.81,75.38L10.98,74.17L12.04,74.05L12.73,73.23L15.07,72.53L16.6,73.76L17.72,73.81L19.28,72.57L19.61,73.63L21.38,74.67L23.62,75.32L24.77,75.13L25.44,75.83L24.99,76.36L25.69,77.6L24.89,77.97L24.22,79.67L25.01,79.93L24.49,81L25.18,81.48L25.47,83.9L26.83,83.77L28.8,84.56ZM61.19,79.57L60.42,79.03L59.04,79.36L55.74,77.61L54.16,79.96L52.18,80.65L51.77,79.87L47.92,78.36L46.21,78.85L44.64,80.11L43.1,80.59L41.95,79.92L41.15,80.72L41.07,78.55L41.47,75.73L42.73,75.78L44.83,73.82L45,70.48L44.07,69.82L44.07,68.4L42.45,67.74L44.95,66.79L45.74,67.08L46.81,66.98L47.7,65.54L48.54,66.64L48.35,68.4L49.34,69.13L51.04,69.58L52.29,71.86L55.84,72.78L57.3,71.79L57.62,73.21L58.84,73.8L59.03,74.98L59.91,76.2L59.48,77.11ZM16.49,97.31L16.97,97.64L19.57,97.77L19.92,98.63L19.53,99.1L18.23,100.1L17.66,101.7L16.68,102.09L16.94,103.28L15.24,104.84L15.97,105.01L14.4,106.51L14.03,108.09L14.91,109.98L14.43,111.37L13.57,111.35L11.97,113.32L9.15,112.22L6.89,111.62L6.86,110.79L7.59,109.2L6.65,108.27L7.12,107.14L6.52,106.4L7.06,105.68L6.49,104.7L7.05,103.82L7.82,103.77L9.82,101.9L12.2,98.77L12.49,97.52L13.32,96.83L13.97,97.65ZM35.58,102.62L36.14,103.85L35.73,105.23L37.22,106.1L37.02,107.34L37.99,107.56L37.39,110.94L38.94,111.45L37.24,111.64L36.41,112.53L34.82,111.71L33.82,111.68L34.09,110.43L33.18,107.5L31.8,107.53L29.83,109.02L30,109.82L28.52,110.73L24.93,110.59L23.2,109.21L23.09,106.96L21.06,101.8L20.41,101.16L19.53,99.1L19.92,98.63L22.2,96.56L23.61,95.68L23.35,97.13L23.91,98.23L23.46,100.02L24.13,101.35L27.31,105.02L28.25,105L28.36,103.94L30.94,104.38L31.75,105.4L34,104.6L35.22,103.72ZM42.45,67.74L44.07,68.4L44.07,69.82L45,70.48L44.83,73.82L42.73,75.78L41.47,75.73L41.07,78.55L41.15,80.72L40.94,81.15L38.65,81.62L36.8,80.28L35.41,79.97L34.7,79.06L33.51,79.83L31.29,79.21L30.53,78.46L30.09,76.26L29.41,75.29L29.28,73.86L28.43,73.56L28.95,71.95L30.49,70.06L31.57,70.28L31.93,69.42L31.81,67.22L34.12,64.8L34.77,62.45L35.01,62.31L36.24,63.31L36.54,64.84L38.85,65.32L41.23,64.4L42.27,64.33L42.65,65.83ZM125.94,71L125.14,69.02L123.68,69.62L128.27,64.56L127.29,63.89L126.8,64.64L125.38,62.93L126.56,61.71L125.38,59.86L126.07,58.88L128.38,57.98L129.4,56.13L129.51,55.06L130.69,54.75L131.4,53.76L130.4,52.26L129.43,51.58L131.84,49.52L133.05,48.98L133.12,47.53L134.11,47.33L135.14,46.08L134.58,45.93L134.64,44.41L133.95,43.87L134.38,43.01L133.29,42.19L133.45,41.03L135.82,41.44L134.79,39.43L133.37,38.96L130.63,39.92L129.18,39.25L127.54,40.25L125.9,39.23L125.91,38.7L124.38,38.94L123.17,38.23L123.36,36.85L125.64,35.72L126.38,34.59L126.51,32.37L128.04,31.69L128.32,30.36L130.3,29.86L130.64,28.35L131.49,27.87L130.2,27.34L131.59,26.22L132.46,25.61L132.29,24.45L133.12,23.52L132.88,21.82L133.55,19.91L134.54,19.8L134.37,18.11L136.57,18.08L138.24,17.32L139.84,18.49L140.63,21.74L140.65,23.54L141.58,25.22L142.86,25.12L144,26.5L143.93,28.58L142.94,31.59L143.82,33.21L143.77,34.04L142.08,35.22L142.09,36.8L141.17,40.25L141.32,41.22L142.45,42.95L142.46,44.11L140.8,45.91L138.8,46.72L139.75,50.35L140.44,54.17L141.51,54.56L141,55.2L139.6,54.81L138.5,55.58L139.53,57.39L139.61,59.08L137.58,59.79L138.41,62.14L137.19,63.63L135.16,63.08L135.83,64.58L134.87,66.35L134.31,69.16L132.92,70.15L132.15,72.28L131.15,71.83L129.88,72.88L128.62,72.18L127.79,71.03ZM45.74,67.08L44.95,66.79L42.45,67.74L42.65,65.83L42.27,64.33L41.23,64.4L38.85,65.32L36.54,64.84L36.24,63.31L35.01,62.31L35.82,61.05L36.22,58.74L37.46,55.51L37.53,54.53L37.89,53.28L38.72,53.28L40.04,54.72L41.38,55.19L43.37,54.93L43.65,57.09L44.73,58.01L44.36,62.03L45.14,63.12L44.63,64.4L45.11,64.81ZM89.4,69.74L88.67,70.5L88.09,72.98L89.95,71.64L93.11,72.74L94.05,73.72L95.93,74.14L95.75,75.7L94.24,77.08L93.14,79.36L91.66,80.75L89.98,84.04L89.69,85.79L90.09,86.02L88.11,86.92L87.04,86.68L85.32,85.19L83.99,85.42L83.23,84.45L80.9,84.62L80.17,85.32L79.23,84.71L79.15,83.09L78.2,80.8L76.42,79.5L75.55,77.81L76.1,77.15L75.72,76.12L77.06,75.15L77.84,73.29L79.23,72.35L80.24,74.24L82.28,74.53L83.73,72.65L85.83,72.37L87.34,70ZM37.89,53.28L37.53,54.53L36.2,53.37L34.2,53.37L34.41,51.09L33.36,49.65L33.92,48.52L33.49,47.7L32.35,48.02L32.42,47.02L31.58,46.25L31.35,45.12L32.82,45.6L34.01,44.88L36.31,46.49L38.28,46.74L37.93,47.67L38.56,49.94ZM95.93,74.14L94.05,73.72L93.11,72.74L89.95,71.64L88.09,72.98L88.67,70.5L89.4,69.74L89.83,68.88L92.19,68.5L92.52,67.66L95.01,67.52L98.37,66.76L98.74,65.88L100.37,65.62L100.93,66.44L100.61,67.58L101.85,68.07L103.78,65.89L105.91,65.56L106.75,66.14L106.15,67.72L106.51,68.16L105.46,69.21L105.46,70.34L106.18,70.77L103.98,72.11L101.67,71.76L99.87,72.33L98.59,73.45L96.29,73.57ZM64.96,99.31L64.1,98.61L63.02,98.64L61.43,97.16L62.35,94.81L61.98,94.04L63.09,92.3L63.77,92.17L66.14,91.91L67.21,89.1L66.34,87.43L66.31,86.11L67.01,84.53L65.22,82.36L64.43,82.94L62.48,82.09L61.97,80.49L61.19,79.57L62.12,78.37L61.88,77.72L62.75,76.71L62.5,73.29L63.23,71.91L62.99,70.98L63.82,67.57L64.69,66.76L67.22,66.49L67.81,67.72L69.44,66.49L70.22,66.95L71.24,66.44L73.08,64.23L75,62.44L76.13,62.19L77.4,64.07L79.16,65.23L79.68,69.56L79.66,71.88L79.23,72.35L77.84,73.29L77.06,75.15L75.72,76.12L76.1,77.15L75.55,77.81L76.42,79.5L78.2,80.8L79.15,83.09L79.23,84.71L80.17,85.32L80.9,84.62L83.23,84.45L83.99,85.42L82.7,85.97L80.92,86.07L79.71,87.1L79.56,88.22L78.22,89.39L77.09,89.49L76.44,90.26L74.58,89.84L71.86,88.61L70.6,88.87L68.29,91.95L64.24,95.31L64.51,95.79L63.79,97.94ZM63.77,92.17L63.03,87.97L61.47,87.72L59.31,88.13L57.03,87.95L55.14,88.97L54.22,90.53L52.7,89.79L51.57,90.39L49.76,89.8L49.34,88.61L47.95,88.16L47.68,88.82L44.1,91.67L42.73,89.84L41.43,90.03L41.39,88L40.07,87.66L39.98,86.88L38.57,87.6L36.51,86.61L34.26,87.68L32.77,87.06L30.79,87.39L30.44,86.1L28.92,85.77L28.8,84.56L26.83,83.77L25.47,83.9L25.18,81.48L24.49,81L25.01,79.93L24.22,79.67L24.89,77.97L25.69,77.6L24.99,76.36L25.44,75.83L28.3,74.57L28.43,73.56L29.28,73.86L29.41,75.29L30.09,76.26L30.53,78.46L31.29,79.21L33.51,79.83L34.7,79.06L35.41,79.97L36.8,80.28L38.65,81.62L40.94,81.15L41.15,80.72L41.95,79.92L43.1,80.59L44.64,80.11L46.21,78.85L47.92,78.36L51.77,79.87L52.18,80.65L54.16,79.96L55.74,77.61L59.04,79.36L60.42,79.03L61.19,79.57L61.97,80.49L62.48,82.09L64.43,82.94L65.22,82.36L67.01,84.53L66.31,86.11L66.34,87.43L67.21,89.1L66.14,91.91ZM131.59,26.22L130.2,27.34L131.49,27.87L130.64,28.35L130.3,29.86L128.32,30.36L128.04,31.69L126.51,32.37L126.38,34.59L125.64,35.72L123.36,36.85L121.99,36.79L120.83,38.45L117.52,40.92L114.82,42L113.57,41.18L112.31,42.57L112.4,43.37L111.47,44.52L110.29,45.09L108.52,44.22L105.86,43.59L106.47,41.71L109.87,40.03L109.44,35.21L110.82,34.86L112.04,33.95L112.28,33.1L113.28,33.26L113.19,35.15L115.24,34.82L115.92,33.97L115.97,31.82L116.78,30.39L118.05,29.48L117.6,27.34L116.37,26.99L115.87,24.26L114.93,23.21L115.87,22.02L115.85,21.08L116.72,20.82L118.69,21.19L120.66,22.29L121.06,23.96L122.57,25.21L123.59,25.11L124.23,26.32L125.17,25.9L125.9,26.59L128.11,27.22L128.53,26.27L130.07,26.55ZM39.05,43.6L40.92,41.84L42.43,41.75L43.57,41.13L43.96,39.87L45.12,39.33L46.33,40.1L47.78,39.35L48.76,41.05L50.09,41.65L50.87,42.65L51.98,42.88L54.73,42.25L54.99,42.98L56.5,43.73L56.18,45.81L57.19,48.01L58.91,48.66L60.55,48.4L61.1,48.85L61.32,50.89L60.91,51.74L60.76,54.15L61.16,55.6L60.23,56.47L60.23,57.47L56.53,54.78L55.05,54.86L53.38,53.79L51.89,53.53L48.96,54.85L47.7,54.77L46.51,53.31L44.17,52.36L43.37,54.93L41.38,55.19L40.04,54.72L38.72,53.28L37.89,53.28L38.56,49.94L37.93,47.67L38.28,46.74L39.27,45.95ZM27.25,88.54L27.99,90.22L27.7,92.12L28.73,91.91L28.6,93.15L27.54,93.86L28.34,95.54L29.81,95.39L31.96,97.36L33.37,96.58L36.17,99.12L35.33,101.36L35.58,102.62L35.22,103.72L34,104.6L31.75,105.4L30.94,104.38L28.36,103.94L28.25,105L27.31,105.02L24.13,101.35L23.46,100.02L23.91,98.23L23.35,97.13L23.61,95.68L25.12,94.11L24.26,91.78L24.27,90.37L25.39,90.38L25.61,89.43L26.47,89.64ZM89.4,69.74L87.34,70L85.83,72.37L83.73,72.65L82.28,74.53L80.24,74.24L79.23,72.35L79.66,71.88L79.68,69.56L79.16,65.23L77.4,64.07L76.13,62.19L75,62.44L73.08,64.23L71.24,66.44L70.02,64.85L68.95,64.71L67.77,63.59L67.37,62L68.45,60.79L70.51,59.36L71.31,58.41L70.62,56.46L71.28,55.52L70.27,54.31L68.24,52.93L67.4,53.06L69.57,51.38L71.16,51.21L70.67,53.04L71.54,55.46L71.32,56.96L71.9,57.59L74.27,54.17L74.78,52.93L75.73,52.14L76.96,49.64L78.03,48.17L79.66,47.64L80.15,46.7L84.25,45.38L86.16,45.12L87.24,45.47L87.86,43.93L88.95,43.77L90.85,44.83L91.33,45.8L90.79,47.21L90.93,48.56L93.24,47.83L93.52,50.11L92.68,51.3L93.09,56.49L93.57,56.87L93.85,59.34L94.45,59.99L96.86,60.13L97,60.96L98.66,62.26L97.68,63.83L98.74,65.88L98.37,66.76L95.01,67.52L92.52,67.66L92.19,68.5L89.83,68.88ZM34.77,62.45L34.12,64.8L31.81,67.22L31.93,69.42L31.57,70.28L30.49,70.06L29.28,68.83L28.45,66.54L28.5,64.8L27.17,64.76L24.98,62.18L24.89,61.02L23.35,61.2L22.4,60.2L20.37,59.92L20.03,61.48L17.76,61.13L14.51,63.5L12.37,63.88L9.49,63.25L7.73,62.57L6.87,62.83L7.56,61L7.96,58.21L7.14,56.68L7.19,55.4L6.58,54.94L6.17,48.76L6.82,47.8L8.03,49.34L10,49.74L11.73,47.14L12.85,46.89L15.49,43.95L16.64,44.36L17.48,43.13L19.76,42.65L21.37,41.33L21.78,42.09L24.26,44.3L24.54,46.63L25.92,46.76L27.36,48.15L26.9,49.23L27.3,52.18L26.85,54.71L28,56.68L28.12,57.98L29.81,59.15L29.79,60.19L30.66,61.84L32.86,62.34L33.76,61.84ZM12.36,91.27L13.39,88.86L14.76,88.4L14.08,87.17L14.2,86L16.72,85.58L17.71,84.68L19.58,84.99L19.63,85.99L18.05,86.77L19.27,87.22L20.79,88.82L22.3,91.27L24.26,91.78L25.12,94.11L23.61,95.68L22.2,96.56L19.92,98.63L19.57,97.77L16.97,97.64L16.49,97.31L17.24,95.7L17.06,94.27L17.93,92.95L17.03,92.62L15.58,90.72L13.15,90.52L13.71,91.06L13.33,92.57L11.27,92.41L11.16,94.09L10.33,95.39L9.07,95.61L8.71,94.92L9.29,92.31L11.49,91.99ZM60.23,57.47L60.94,57.11L63.03,57.17L64.9,56.46L65.25,55.56L66.25,55.51L67.52,53.73L67.4,53.06L68.24,52.93L70.27,54.31L71.28,55.52L70.62,56.46L71.31,58.41L70.51,59.36L68.45,60.79L67.37,62L67.77,63.59L68.95,64.71L70.02,64.85L71.24,66.44L70.22,66.95L69.44,66.49L67.81,67.72L67.22,66.49L64.69,66.76L63.82,67.57L62.99,70.98L63.23,71.91L62.5,73.29L62.75,76.71L61.88,77.72L62.12,78.37L61.19,79.57L59.48,77.11L59.91,76.2L59.03,74.98L58.84,73.8L57.62,73.21L57.3,71.79L55.84,72.78L52.29,71.86L51.04,69.58L49.34,69.13L48.35,68.4L48.54,66.64L47.7,65.54L46.81,66.98L45.74,67.08L45.11,64.81L44.63,64.4L45.14,63.12L44.36,62.03L44.73,58.01L43.65,57.09L43.37,54.93L44.17,52.36L46.51,53.31L47.7,54.77L48.96,54.85L51.89,53.53L53.38,53.79L55.05,54.86L56.53,54.78ZM106.75,66.14L105.91,65.56L103.78,65.89L101.85,68.07L100.61,67.58L100.93,66.44L100.37,65.62L98.74,65.88L97.68,63.83L98.66,62.26L97,60.96L96.86,60.13L94.45,59.99L93.85,59.34L93.57,56.87L93.09,56.49L92.68,51.3L93.52,50.11L93.24,47.83L90.93,48.56L90.79,47.21L91.33,45.8L90.85,44.83L88.95,43.77L87.86,43.93L88.14,42.55L90.06,40.5L91.07,40.2L92.43,38.89L92.86,37.52L91.92,36.96L92.67,35.58L91.55,32.56L92.88,30.54L94,30.98L95.14,30.04L97.2,30.52L99.41,28.98L101.66,28.07L102.56,25.96L103.48,25.53L103.38,24.41L105.83,24.46L107.92,23.9L110.4,22.34L115.14,21.8L115.85,21.08L115.87,22.02L114.93,23.21L115.87,24.26L116.37,26.99L117.6,27.34L118.05,29.48L116.78,30.39L115.97,31.82L115.92,33.97L115.24,34.82L113.19,35.15L113.28,33.26L112.28,33.1L112.04,33.95L110.82,34.86L109.44,35.21L109.87,40.03L106.47,41.71L105.86,43.59L108.52,44.22L110.29,45.09L111.47,44.52L112.4,43.37L112.31,42.57L113.57,41.18L114.82,42L113.53,45.1L113.31,47.04L113.87,48.01L112.8,49.12L112.87,51.09L111.63,52.48L112.06,54.48L111.78,56.61L112.45,57.3L112.2,59.44L111.26,59.78L108.73,63.03L108.34,65.45L107.79,66.28ZM16.49,97.31L13.97,97.65L13.32,96.83L12.49,97.52L12.2,98.77L9.82,101.9L7.82,103.77L7.05,103.82L6.94,102.45L7.7,99.07L8.07,96.39L8.71,94.92L9.07,95.61L10.33,95.39L11.16,94.09L11.27,92.41L13.33,92.57L13.71,91.06L13.15,90.52L15.58,90.72L17.03,92.62L17.93,92.95L17.06,94.27L17.24,95.7ZM35.01,62.31L34.77,62.45L33.76,61.84L32.86,62.34L30.66,61.84L29.79,60.19L29.81,59.15L28.12,57.98L28,56.68L26.85,54.71L27.3,52.18L26.9,49.23L27.36,48.15L25.92,46.76L24.54,46.63L24.26,44.3L25.91,46.33L28.02,45.2L29.59,45.66L31.35,45.12L31.58,46.25L32.42,47.02L32.35,48.02L33.49,47.7L33.92,48.52L33.36,49.65L34.41,51.09L34.2,53.37L36.2,53.37L37.53,54.53L37.46,55.51L36.22,58.74L35.82,61.05ZM123.36,36.85L123.17,38.23L124.38,38.94L125.91,38.7L125.9,39.23L127.54,40.25L129.18,39.25L130.63,39.92L133.37,38.96L134.79,39.43L135.82,41.44L133.45,41.03L133.29,42.19L134.38,43.01L133.95,43.87L134.64,44.41L134.58,45.93L135.14,46.08L134.11,47.33L133.12,47.53L133.05,48.98L131.84,49.52L129.43,51.58L130.4,52.26L131.4,53.76L130.69,54.75L129.51,55.06L129.4,56.13L128.38,57.98L126.07,58.88L125.38,59.86L126.56,61.71L125.38,62.93L126.8,64.64L127.29,63.89L128.27,64.56L123.68,69.62L125.14,69.02L125.94,71L125.03,70.34L123.47,70.16L122.3,68.81L119.47,68.97L117.96,70.22L117.16,70.3L116.76,71.4L114.88,70.76L113.87,70.95L112.7,69.89L109.29,69.4L107.61,70.67L106.18,70.77L105.46,70.34L105.46,69.21L106.51,68.16L106.15,67.72L106.75,66.14L107.79,66.28L108.34,65.45L108.73,63.03L111.26,59.78L112.2,59.44L112.45,57.3L111.78,56.61L112.06,54.48L111.63,52.48L112.87,51.09L112.8,49.12L113.87,48.01L113.31,47.04L113.53,45.1L114.82,42L117.52,40.92L120.83,38.45L121.99,36.79ZM37.22,106.1L38.9,105.19L40.65,105.11L40.91,103.62L41.63,104.01L42.96,103.66L42.85,102.61L43.82,101.72L43.21,100.79L44.07,100.22L44.16,99.23L45.34,98.5L46.91,99.92L48.12,99.6L49.71,101.25L54.3,101.59L55.94,102.04L56.78,101.36L60.89,101.78L62.47,102.89L65.16,102.94L65.65,102.43L65.42,100.04L66.12,99.65L67.23,101.16L67.2,102.72L65.26,107.16L63.58,107.86L63.27,108.5L63.42,111.22L64.39,113.86L65.46,115.63L67.1,116.28L66.6,119.31L64.18,121.95L63.4,121.95L62.88,123.66L60.82,126.35L59.97,126.68L58.07,125.81L57.57,126.21L55.1,124.81L54.61,122.59L53.91,122.3L53.79,120.49L52.34,118.92L52.05,117.23L49.99,116.52L49.79,115L48.75,114.25L49.19,113.66L45.65,112.78L42.81,113.65L42.15,112.32L40.6,112.8L39.78,111.28L38.94,111.45L37.39,110.94L37.99,107.56L37.02,107.34ZM9.55,91.52L10.32,91.15L12.36,91.27L11.49,91.99L9.29,92.31L8.71,94.92L8.07,96.39L7.7,99.07L6.94,102.45L7.05,103.82L6.49,104.7L7.06,105.68L6.52,106.4L7.12,107.14L6.65,108.27L7.59,109.2L6.86,110.79L4.71,109.76L4.74,109.02L3.37,108.63L2.79,106.21L2.1,105.25L2.07,101.69L1.05,101.11L0,99.25L1.13,96.11L0.57,95.55L2.62,92.42L2.54,91.13L3.79,91.32L3.39,89.72L5.06,89.51L6.76,91.2L8.62,92.54Z" fill="#B3CFC0" stroke="#007139" stroke-width="0.5"/></svg>