<svg xmlns="http://www.w3.org/2000/svg" width="144" height="144" viewBox="0 0 144 144"><path d="M108.05,59.49L105.09,62.37L103.16,64.97L102.91,66.01L100.19,69.03L98.98,69.97L98.54,69.5L97.41,70.3L95.45,70.39L96.08,68.83L94.47,68.15L93.81,66.32L94.55,65.23L91.94,63.57L90.99,61.74L88.79,62.03L86.34,61.28L86.21,58.78L85.16,56.84L85.69,54.81L84.77,54.96L83.47,51.85L83.29,50.39L80.97,50.3L79.55,49.35L79.55,48.42L77.59,46.98L77,49.97L75.48,51.67L73.85,51.37L73.79,50.78L71.2,50.63L71.68,48.67L70.79,48.47L69.49,46.42L68.4,46.94L67.24,48.25L66.89,49.95L65.5,48.26L66.74,45.89L67.99,45.21L68.38,43.9L67.85,43.56L68.39,42.98L69.24,40.46L71.27,38.4L74.1,38.51L74.6,37.39L76.98,37.76L80.06,36.7L82.24,35.14L83.38,35.91L80.06,40.27L78.63,44.38L78.85,45.72L81.02,46.07L81.89,47.17L83.19,47.31L83.29,48.49L84.82,48.65L85.94,49.37L86.79,48.4L87.08,46.44L87.82,44.84L88.48,45.14L88.13,47.24L89.98,48.87L88.88,50.35L90.25,50.65L91.69,52.23L93.45,53.44L94.74,52.9L97.3,53.13L98.25,56.61L99.41,56.66L100.45,55.99L101.4,56.5L105.77,57.44L106.41,57.15L106.4,59.39ZM51.99,132.18L51.78,133.12L49.73,133.81L47.82,133.66L46.06,135.05L44.79,136.91L43.5,137.15L42.85,139.62L41.42,140.05L39.61,142.08L37.68,141.89L34.25,144L33.96,143.12L31.11,141.75L32.72,141.04L34.29,139.06L35.43,138.41L34.69,137.92L35.24,136.09L34.49,135.37L35.53,133.68L37.86,132.87L38.14,132.32L39.97,132.1L41.29,130.37L40.92,129.42L42.76,127.17L42.92,126.03L44.13,125.01L44.86,124.86L45.81,125.58L47.07,124.75L49.14,125.18L49.73,127.05L50.74,128.26ZM62.75,93.51L63.98,94.47L63.97,96.32L63.71,96.92L64.57,98.16L63.62,99.08L63.9,101.66L62.53,102.2L62.12,103.36L62.96,103.37L62.75,104.58L61.47,105.3L58.75,105.61L58.19,104.42L56.53,103.25L54.96,101.58L57.59,101.8L58.36,100.99L55.62,101.08L55.19,97.15L54.42,96.21L55.46,95.38L55.17,93.14L59.07,93.19L60.99,95.08L61.85,95.13L61.79,94.09ZM87.82,44.84L87.08,46.44L86.79,48.4L85.94,49.37L84.82,48.65L83.29,48.49L83.19,47.31L81.89,47.17L81.02,46.07L78.85,45.72L78.63,44.38L80.06,40.27L83.38,35.91L82.24,35.14L80.06,36.7L76.98,37.76L74.6,37.39L74.1,38.51L71.27,38.4L69.24,40.46L68.39,42.98L67.85,43.56L67.83,41.95L68.68,39.73L68.3,39.08L68.87,37.79L70.02,36.86L71.8,34L71.45,32.98L72.46,32.32L73.39,32.75L74.05,32.12L74.5,30.29L76.63,30.56L76.92,31.29L78.64,29.62L81.01,29.39L81.39,27.56L84.06,27.61L84.4,26.69L85.23,27.61L88.4,29.41L88.67,29.98L89.42,27.57L90.33,26.84L91.96,27.24L92.02,28.81L93.72,29.2L91.88,31.31L90.97,31.22L91.73,32.21L90.72,32.31L89.66,33.32L89.54,34.67L90.5,37.94L90.17,40.33L88.36,41.28L87.26,43.01L87.86,44.22ZM80.31,96.09L79.32,93.98L77.72,93.55L76.61,91.59L77.64,87.46L78.36,87.27L80.78,83.84L81.72,83.43L82.95,81.59L85.85,80.1L85.73,79.57L88.17,77.06L89.2,76.76L91.75,74.89L92,74.2L93.63,73.28L93.77,71.66L94.98,71.31L96.21,72.26L95.69,73.94L94.91,74.63L95.18,76.83L96.24,78.46L94.92,79.28L94.68,80.44L93.15,82.6L93.2,83.99L90.28,83.73L90.06,85.64L87.58,89.31L86.59,89.99L86.59,90.95L84.76,93.3L83.95,92.86L83.03,95.01ZM58.75,105.61L61.47,105.3L61.42,105.96L62.59,106.93L61.89,107.95L60.6,108.43L60.1,110.26L59.97,110.97L57.66,113.62L56.07,113.98L55.02,116.39L53.02,116.01L51.86,113.81L50.63,112.96L52.3,109.98L54.4,109.08L54.74,108.24L55.88,108.33L56.38,109.15L57.66,108.65L57.9,106.85L58.51,105.71ZM110.27,34.73L110.83,36.77L113.2,39.13L114.3,41.47L113.64,43.14L114.94,44.85L116.14,44.77L117.17,46.36L119.27,46.91L117.74,48.37L117.64,49.47L116.13,49.67L114.16,53.09L113.21,53.38L112.79,54.66L110.57,55.63L108.28,54.37L108.71,50.55L106,49.39L105.27,48.63L102.28,47.91L100.56,46.91L99.36,48.54L98.29,48.69L97.33,47.32L94.5,45.25L94.35,44.52L96.14,40.4L98.7,41.45L101.05,40.27L101.89,40.38L101.36,39.08L103.47,35.61L104.07,35.36L105.82,35.06L107.14,35.57ZM93.77,71.66L93.63,73.28L92,74.2L91.75,74.89L89.2,76.76L88.17,77.06L85.73,79.57L85.85,80.1L82.95,81.59L81.72,83.43L80.78,83.84L80.35,83.37L80.37,81.3L77.09,76.56L77.48,75L77.16,73.27L76.79,72.63L77.99,69.74L79.01,69.2L79.86,70.43L81.78,67.59L83.57,66.81L84.53,69.32L85.17,68.81L87.26,68.52L88.7,69.08L89.21,69.96L91.36,71.68L91.2,72.29ZM119.27,46.91L117.17,46.36L116.14,44.77L114.94,44.85L113.64,43.14L114.3,41.47L113.2,39.13L110.83,36.77L110.27,34.73L114.11,31.44L116.48,27.08L119.35,25.29L119.55,24.71L118.33,22.87L118.72,20.03L120.99,19.28L121.74,17.65L120.97,15.91L122.32,14.31L123.34,14.28L123.57,12.66L126.04,10.12L126.72,10.03L129.38,7.67L132.36,4.69L133.04,2.5L133.72,1.59L133.99,0L136.84,1.57L137.54,1.15L139.1,1.48L139.41,2.62L138.6,4.39L138.26,6.32L138.94,7.05L141.25,6.4L141.43,7.41L140.71,8.44L139.88,8.42L138.42,11.03L136.98,11.07L135.47,12.89L134.44,16.48L131.97,19.92L130.79,19.74L129.45,21.07L127.77,23.53L128.66,24.04L128.57,25.84L129.3,26.89L128.18,28.28L128.31,29.14L127.2,29.81L128.65,32.81L128.05,34.15L128.66,34.9L127.46,35.49L125.52,38.53L125.09,41.28L122.68,42.26L121.7,44.32L120.34,45.3ZM50.41,113.14L50.26,113.67L46.39,116.7L45.65,116.04L43.71,117.12L43.61,118.06L42.58,118.71L40.63,118.39L40.21,117.31L41.4,115.79L42.89,114.85L44.1,113.27L44.71,112.71L46.85,113.76L48.84,113.63L49.61,112.79ZM61.47,105.3L62.75,104.58L62.96,103.37L62.12,103.36L62.53,102.2L63.9,101.66L63.62,99.08L64.57,98.16L63.71,96.92L63.97,96.32L65.91,95.9L67.53,96.58L68.6,98.08L70.75,98.81L72.03,99.99L73.11,99.19L73.85,99.88L75.71,99.45L76.81,98.51L79.72,97.25L79.8,96.86L79.66,97.78L78.61,100.11L76.96,101.99L77.72,103.46L76.62,106.8L75.16,106.93L73.08,108.13L70.97,108.47L70.61,110.17L67.54,114.52L67.65,115.01L65.92,115.28L64.7,113.61L63.43,113.44L61.06,111.67L60.1,110.26L60.6,108.43L61.89,107.95L62.59,106.93L61.42,105.96ZM63.97,96.32L63.98,94.47L62.75,93.51L64.53,91.92L65.94,92.35L66.3,90.71L67.71,88.53L69.17,87.69L68.86,86.81L69.51,86.38L68.86,85.19L71.43,82.32L71.47,83.46L72.38,83.52L73.28,85.28L77.23,86.41L77.64,87.46L76.61,91.59L77.72,93.55L79.32,93.98L80.31,96.09L79.8,96.86L79.72,97.25L76.81,98.51L75.71,99.45L73.85,99.88L73.11,99.19L72.03,99.99L70.75,98.81L68.6,98.08L67.53,96.58L65.91,95.9ZM55.02,116.39L56.07,113.98L57.66,113.62L59.97,110.97L60.1,110.26L61.06,111.67L63.43,113.44L64.7,113.61L65.92,115.28L67.65,115.01L65.87,116.06L65.87,116.62L64.31,118.5L63.95,119.79L64.15,121.31L63.22,122.63L61.36,123.36L59.18,120.96L59.1,119.74L57.47,119.73L55.95,118.33ZM80.78,83.84L78.36,87.27L77.64,87.46L77.23,86.41L73.28,85.28L72.38,83.52L71.47,83.46L71.43,82.32L72.69,81.01L73.57,79.39L74.75,79.37L74.34,78.16L75.17,77.73L75.3,76.17L76.73,75.59L76.15,75.19L77.16,73.27L77.48,75L77.09,76.56L80.37,81.3L80.35,83.37ZM67.66,72.89L67.21,74.3L67.73,76.41L67.38,78.43L67.88,81.35L66.67,82.31L64.44,81.98L63.55,78.84L64.03,75.95L63.4,75.33L60.8,76.68L59.28,76.13L59.34,74.69L58.68,73.98L56.78,73.1L57.61,70.64L57.41,69.24L55.35,67.88L54.05,67.64L53.67,66.41L62.01,65.69L64.39,66.2L65.93,70.46L65.9,72.24ZM33.47,116.06L31.63,118.05L35.45,119.77L33.81,120.75L32.27,121.09L31.22,124.25L29.55,124.5L27.51,125.03L27.3,123.84L26.34,123.51L24.02,120.18L23.93,117.72L24.92,116.64L24.54,115.17L22.66,113.79L21.87,113.97L19.93,112.47L19.83,111.77L18.26,111.07L17.54,109.55L17.71,108.68L15.95,105.89L15.04,104.99L15.43,103.81L16.45,103.07L17.59,98.99L18.3,98.32L19.13,98.85L18.48,99.85L18.23,102.19L17.71,102.4L18.01,104.16L18.83,105.51L17.96,106.35L18.88,106.9L18.6,108.33L19.38,108.92L20.23,110.64L21.84,110.84L24.13,112.47L25.32,112.37L26.8,113.53L30.35,114.27L32.14,115.89ZM28.7,103.42L29.03,104.4L30.59,106.07L32.56,106.26L34.13,104.37L34.62,104.73L36.26,103.94L39.8,103.47L40.68,103.96L42.23,103.14L43.42,100.71L43.9,102.18L46.21,100.1L48.75,99.5L46.85,102.1L47.21,102.91L44.96,104.66L43.56,105.16L43.46,106.81L41.38,108.65L40.05,109.83L38.15,110.18L36.59,109.47L35.25,109.76L33.7,107.71L32.34,108.44L31.21,108.89L30.99,107.87L29.21,107.36L28.99,106.37L27.65,105.14L25.14,104.6L22.17,102.64L20.26,100.89L19.13,98.85L22.75,98.03L24.49,98.88ZM48.75,99.5L46.21,100.1L43.9,102.18L43.42,100.71L42.23,103.14L40.68,103.96L39.8,103.47L36.26,103.94L34.62,104.73L34.13,104.37L32.56,106.26L30.59,106.07L29.03,104.4L28.7,103.42L31.79,103.42L34.16,101.73L32.57,97.38L33.85,91.98L36.17,89.72L39.69,90.58L40.53,87.75L42.45,85.77L43.07,84.21L44.4,85.05L45.73,85.23L46.96,86.07L46.93,87.11L48.62,88.8L50.32,89.08L50.57,88.09L51.74,87.01L51.69,87.76L53.29,89.18L53.03,91.31L52.56,91.7L52.55,93.7L51.73,95.32L49.9,96.4L48.48,95.96L47.84,96.85L48.46,97.39L47.51,98.76ZM56.78,73.1L58.68,73.98L57.29,75.84L56.85,77.04L58.21,77.88L58.38,78.87L57.15,78.92L56.29,80.12L56.45,83.25L54.65,85.97L53.45,85.44L52.97,84.95L53.11,83.19L51.98,81.87L51.97,80.22L52.84,78.68L53.71,78.14L54.9,76.22L55.04,74.47ZM44.1,113.27L42.89,114.85L41.4,115.79L38.99,115.19L37.25,114.11L35.68,114.66L34.94,114.06L34.57,112.64L34.93,110.27L33.9,108.99L32.34,108.44L33.7,107.71L35.25,109.76L36.59,109.47L38.15,110.18L40.05,109.83L41.38,108.65L43.48,108.95L43.81,110.1L43.06,111.71ZM62.75,93.51L61.79,94.09L61.85,95.13L60.99,95.08L59.07,93.19L55.17,93.14L55.46,95.38L53.8,95.01L52.55,93.7L52.56,91.7L53.03,91.31L53.29,89.18L51.69,87.76L51.74,87.01L51.62,86.55L53.45,85.44L54.65,85.97L57.64,87.49L59.84,87.98L61.54,86.86L63.18,87.81L63.23,88.68L64.31,88.01L64.13,88.92L65.99,88.86L67.53,87.41L68.86,86.81L69.17,87.69L67.71,88.53L66.3,90.71L65.94,92.35L64.53,91.92ZM66.89,49.95L67.24,48.25L68.4,46.94L69.49,46.42L70.79,48.47L71.68,48.67L71.2,50.63L73.79,50.78L73.85,51.37L75.48,51.67L77,49.97L77.59,46.98L79.55,48.42L79.55,49.35L80.97,50.3L83.29,50.39L83.47,51.85L84.77,54.96L85.69,54.81L85.16,56.84L86.21,58.78L86.34,61.28L85.66,63.11L84.98,63.4L83.57,66.81L81.78,67.59L79.86,70.43L79.01,69.2L77.99,69.74L77.19,68.8L77.14,67.14L75.62,67.74L73.28,67.64L73.49,65.29L71.85,65.08L72.05,64.12L71.05,64.48L70.23,63.63L68.4,64.71L67.59,62.75L65.72,62.43L65.53,60.66L67.82,59.77L70.01,60.58L71.07,59.6L71.96,57.45L73.52,55.63L73.31,55L70.33,54.13L68.3,54.29L67.82,52.83L66.02,51.52ZM38.14,132.32L37.86,132.87L35.53,133.68L34.49,135.37L35.24,136.09L34.69,137.92L35.43,138.41L34.29,139.06L32.72,141.04L31.11,141.75L30.25,142.64L29.06,142.33L28.6,140.98L28.49,138.43L27.55,136.93L29.68,135.79L31.21,133.56L31.76,132.17L33.18,130.4L34.27,130.01L35.61,130.46L36.4,130.02L37.54,130.46ZM55.46,95.38L54.42,96.21L55.19,97.15L55.62,101.08L58.36,100.99L57.59,101.8L54.96,101.58L56.53,103.25L58.19,104.42L58.75,105.61L58.51,105.71L57.34,105.21L56.29,103.83L55.15,103.27L52.94,103.64L51.63,102.35L50.85,102.7L49.74,101.99L48.46,103.18L47.21,102.91L46.85,102.1L48.75,99.5L47.51,98.76L48.46,97.39L47.84,96.85L48.48,95.96L49.9,96.4L51.73,95.32L52.55,93.7L53.8,95.01ZM44.13,125.01L42.92,126.03L42.76,127.17L40.92,129.42L41.29,130.37L39.97,132.1L38.14,132.32L37.54,130.46L36.4,130.02L35.61,130.46L34.27,130.01L33.18,130.4L31.76,132.17L31.21,133.56L29.68,135.79L27.55,136.93L26.36,135.81L25.87,136.34L24.1,136.18L22.83,135.33L21.92,135.69L21.63,133.92L23.09,132.63L24.92,132.43L26.77,130.44L26.77,129.22L27.75,128.55L28.98,126.78L29.55,124.5L31.22,124.25L32.27,121.09L33.81,120.75L35.45,119.77L31.63,118.05L33.47,116.06L34.4,116.68L38.36,117.92L39.83,117.97L40.21,117.31L40.63,118.39L42.58,118.71L41.98,121.83L42.92,124.05ZM86.34,61.28L88.79,62.03L90.99,61.74L91.94,63.57L94.55,65.23L93.81,66.32L94.47,68.15L96.08,68.83L95.45,70.39L94.98,71.31L93.77,71.66L91.2,72.29L91.36,71.68L89.21,69.96L88.7,69.08L87.26,68.52L85.17,68.81L84.53,69.32L83.57,66.81L84.98,63.4L85.66,63.11ZM41.4,115.79L40.21,117.31L39.83,117.97L38.36,117.92L34.4,116.68L33.47,116.06L32.14,115.89L30.35,114.27L26.8,113.53L25.32,112.37L24.13,112.47L21.84,110.84L20.23,110.64L19.38,108.92L18.6,108.33L18.88,106.9L17.96,106.35L18.83,105.51L18.01,104.16L17.71,102.4L18.23,102.19L18.48,99.85L19.13,98.85L20.26,100.89L22.17,102.64L25.14,104.6L27.65,105.14L28.99,106.37L29.21,107.36L30.99,107.87L31.21,108.89L32.34,108.44L33.9,108.99L34.93,110.27L34.57,112.64L34.94,114.06L35.68,114.66L37.25,114.11L38.99,115.19ZM15.43,103.81L15.04,104.99L15.95,105.89L17.71,108.68L17.54,109.55L18.26,111.07L19.83,111.77L19.93,112.47L21.87,113.97L22.66,113.79L24.54,115.17L24.92,116.64L23.93,117.72L24.02,120.18L26.34,123.51L27.3,123.84L27.51,125.03L29.55,124.5L28.98,126.78L27.75,128.55L26.77,129.22L26.77,130.44L24.92,132.43L23.09,132.63L21.63,133.92L21.92,135.69L21.37,137L19.9,137.11L17.76,136.69L18.55,132.67L17.74,131.77L15.75,133.62L14.74,132.13L15.34,131.18L14.5,129.01L11.08,126.81L9.52,126.32L8.46,126.95L6.85,126.01L4.81,124.27L4.59,123.31L5.43,122.22L4.4,120.89L2.88,120.48L3.43,119.21L2.57,117.5L3.42,116.17L5.43,115.68L5.76,114.01L4.97,113.68L5.51,112.37L4.68,109.16L7.02,107.08L11.16,107.75L11.59,108.89L12.65,109.48L15.1,107.76L14.3,105.74L14.54,104.04ZM66.02,51.52L67.82,52.83L68.3,54.29L70.33,54.13L73.31,55L73.52,55.63L71.96,57.45L71.07,59.6L70.01,60.58L67.82,59.77L65.53,60.66L65.72,62.43L64.38,64.07L63.38,64.3L61.5,63.55L60.84,61.63L57.88,58.37L56.37,58.33L56.68,56.73L58.81,55.92L60.7,54.52L61.08,53.41L63.13,53.84L64.66,53.37ZM51.99,132.18L50.74,128.26L49.73,127.05L49.14,125.18L47.07,124.75L45.81,125.58L44.86,124.86L46.32,123.09L46.24,122.61L48.48,121.05L48.89,119.77L51.16,118.16L53.02,116.01L55.02,116.39L55.95,118.33L57.47,119.73L59.1,119.74L59.18,120.96L61.36,123.36L60.44,124.46L60.11,125.93L58.64,127.08L58.46,129.27L54.35,131.58L53.3,131.34ZM58.51,105.71L57.9,106.85L57.66,108.65L56.38,109.15L55.88,108.33L54.74,108.24L54.4,109.08L52.3,109.98L50.63,112.96L50.41,113.14L49.61,112.79L48.84,113.63L46.85,113.76L44.71,112.71L44.1,113.27L43.06,111.71L43.81,110.1L43.48,108.95L41.38,108.65L43.46,106.81L43.56,105.16L44.96,104.66L47.21,102.91L48.46,103.18L49.74,101.99L50.85,102.7L51.63,102.35L52.94,103.64L55.15,103.27L56.29,103.83L57.34,105.21ZM68.86,85.19L69.51,86.38L68.86,86.81L67.53,87.41L65.99,88.86L64.13,88.92L64.31,88.01L63.23,88.68L63.18,87.81L61.54,86.86L59.84,87.98L57.64,87.49L54.65,85.97L56.45,83.25L56.29,80.12L57.15,78.92L58.38,78.87L58.21,77.88L56.85,77.04L57.29,75.84L58.68,73.98L59.34,74.69L59.28,76.13L60.8,76.68L63.4,75.33L64.03,75.95L63.55,78.84L64.44,81.98L66.67,82.31L67.88,81.35ZM108.05,59.49L106.4,59.39L106.41,57.15L105.77,57.44L101.4,56.5L100.45,55.99L99.41,56.66L98.25,56.61L97.3,53.13L94.74,52.9L93.45,53.44L91.69,52.23L90.25,50.65L88.88,50.35L89.98,48.87L88.13,47.24L88.48,45.14L87.82,44.84L87.86,44.22L90.08,44.45L89.97,43.1L90.67,41.81L92.75,42.77L94.35,44.52L94.5,45.25L97.33,47.32L98.29,48.69L99.36,48.54L100.56,46.91L102.28,47.91L105.27,48.63L106,49.39L108.71,50.55L108.28,54.37L110.57,55.63L110.16,57.3ZM67.66,72.89L65.9,72.24L65.93,70.46L64.39,66.2L62.01,65.69L53.67,66.41L54.03,65.05L52.73,63.17L51.47,62.87L49.37,63.46L48.31,62.08L39.95,56.74L42.32,54.1L43.32,56.29L44.35,56.98L44.61,58.07L46.33,57.94L48.18,59.68L49.07,59.48L50.56,60.99L52.34,60.89L54.12,60.21L55.54,58.55L56.37,58.33L57.88,58.37L60.84,61.63L61.5,63.55L63.38,64.3L64.38,64.07L65.72,62.43L67.59,62.75L68.4,64.71L70.23,63.63L71.05,64.48L72.05,64.12L71.85,65.08L73.49,65.29L73.28,67.64L71.76,68.97L70.41,70.71L69.43,72.97ZM44.86,124.86L44.13,125.01L42.92,124.05L41.98,121.83L42.58,118.71L43.61,118.06L43.71,117.12L45.65,116.04L46.39,116.7L50.26,113.67L50.41,113.14L50.63,112.96L51.86,113.81L53.02,116.01L51.16,118.16L48.89,119.77L48.48,121.05L46.24,122.61L46.32,123.09ZM87.86,44.22L87.26,43.01L88.36,41.28L90.17,40.33L90.5,37.94L89.54,34.67L89.66,33.32L90.72,32.31L91.73,32.21L90.97,31.22L91.88,31.31L93.72,29.2L93.63,27.29L95.2,26.5L95.17,25.64L101.68,25.86L102.43,26.11L101.95,27.4L102.53,28.73L101,29.23L100.91,33.32L100.14,34.43L104.07,35.36L103.47,35.61L101.36,39.08L101.89,40.38L101.05,40.27L98.7,41.45L96.14,40.4L94.35,44.52L92.75,42.77L90.67,41.81L89.97,43.1L90.08,44.45ZM77.99,69.74L76.79,72.63L77.16,73.27L76.15,75.19L76.73,75.59L75.3,76.17L75.17,77.73L74.34,78.16L74.75,79.37L73.57,79.39L72.69,81.01L71.43,82.32L68.86,85.19L67.88,81.35L67.38,78.43L67.73,76.41L67.21,74.3L67.66,72.89L69.43,72.97L70.41,70.71L71.76,68.97L73.28,67.64L75.62,67.74L77.14,67.14L77.19,68.8Z" fill="#B3CFC0" stroke="#007139" stroke-width="0.5"/></svg>