<svg xmlns="http://www.w3.org/2000/svg" width="144" height="144" viewBox="0 0 144 144"><path d="M118.08,117.95L110.88,118.49L109.25,115.53L92.68,108.79L90.54,106.89L85.13,105.24L78.19,108.22L83.48,117.75L80.49,122.54L80.19,127.35L77.36,129.86L73.67,130.91L70.58,129.83L68.43,126.94L66.44,126.96L65.87,122.92L63.28,123.17L57.78,127.51L48.72,126.78L48.79,125.62L40.05,123.42L38.67,118.1L40.5,110.98L45.63,106.12L45.29,104.69L39.86,103.36L40.53,100.31L37.97,99.91L39.76,95.92L36.02,96.27L37.27,94.13L34.54,89.08L27.74,83.96L29.53,77.68L27.55,77L26.1,80.15L22,80.34L18.15,82.81L15.59,78.42L17.39,72.62L19.62,73.23L19.98,68.12L13.89,66.46L9.95,64.36L7.8,59.32L3.69,58.3L3.85,51.86L0,48.72L3.8,39.56L7.57,37.62L6.27,33.2L12.94,29.68L14.16,30.44L16.33,25.58L21.95,24.59L25.29,20.84L31.91,20.69L32.19,19.5L37.67,20.6L41.99,17.38L44.78,13.09L48.95,16.03L49.84,22.1L56.04,24.12L57.97,21.9L61.93,23.57L63.53,21.4L70.46,24.48L71.63,26.99L71.47,31.31L75.83,34.28L79.03,39.79L81.79,40.57L85.36,44.52L89.79,45.4L90.32,48.15L93.82,49.22L93.19,51.82L96.12,51.47L98.44,56.71L100.19,55.34L105.84,60.35L109.19,61.79L112.82,68.31L114.83,65.64L115.66,68.36L118.87,68.83L118.1,70.72L121.27,71.37L123.21,73.65L126.16,72.58L128.86,73.64L127.34,78.64L129.28,82.06L127.05,82.12L130.01,89.27L132.96,89.38L132.38,91.52L134.76,94.78L137.83,93.94L140.13,100.94L141.67,100.69L142.4,104.83L141.32,108.06L144,108.25Z" fill="#B3CFC0" stroke="#007139" stroke-width="0.5"/></svg>